<?xml version="1.0" standalone="no"?>
<!DOCTYPE svg PUBLIC "-//W3C//DTD SVG 1.1//EN" "http://www.w3.org/Graphics/SVG/1.1/DTD/svg11.dtd" >
<svg xmlns="http://www.w3.org/2000/svg">
<metadata></metadata>
<defs>
<font id="hms_gilbert_scriptregular" horiz-adv-x="925" >
<font-face units-per-em="2048" ascent="1536" descent="-512" />
<missing-glyph horiz-adv-x="268" />
<glyph horiz-adv-x="0" />
<glyph horiz-adv-x="682" />
<glyph unicode=" "  horiz-adv-x="268" />
<glyph unicode="&#x09;" horiz-adv-x="268" />
<glyph unicode="&#xa0;" horiz-adv-x="268" />
<glyph unicode="!" horiz-adv-x="167" d="M180 414q-13 -75 -19.5 -126.5t-8.5 -66.5q-5 -27 -14.5 -40t-28.5 -13q-15 0 -24.5 10t-8.5 27q2 20 7 40t7 31q32 222 41 291q6 23 5.5 60.5t7.5 53t40 15.5q26 0 36.5 -19.5t6.5 -54t-12 -68.5t-19.5 -76.5t-15.5 -63.5zM96 104q25 0 40.5 -14.5t15.5 -40.5 q0 -25 -19 -43t-45 -18t-41.5 17t-15.5 40q-1 22 19.5 40.5t45.5 18.5z" />
<glyph unicode="&#x22;" horiz-adv-x="290" d="M88 565q-35 2 -61.5 22.5t-26.5 53.5q0 32 24 54.5t58 19.5t53.5 -35.5t16.5 -65.5q0 -46 -30 -98.5t-65 -52.5q-18 0 -23.5 15.5t3.5 21.5q43 31 51 65zM266 565q-35 2 -61.5 22.5t-26.5 53.5q0 32 24 54.5t58 19.5t53.5 -35.5t16.5 -65.5q0 -46 -29.5 -98.5 t-64.5 -52.5q-19 0 -24.5 15.5t3.5 21.5q43 31 51 65z" />
<glyph unicode="#" horiz-adv-x="649" d="M350 172h-131q-22 0 -43 -29l-67 -108l-19 -33q-24 -39 -57 -22q-27 18 0 61q10 18 32 50t27 40q23 34 25 41h-80q-15 0 -25.5 6.5t-9.5 20.5q6 43 90 43q42 0 56 1.5t18 8.5q14 22 44.5 81t45.5 83q-26 1 -47.5 0.5t-26 -1t-14.5 0.5q-32 3 -37 33q0 13 10.5 24.5 t26.5 11.5q33 2 108 2q10 0 16 8.5t13 26.5q1 4 2 6q15 30 39 74q12 24 23 33q25 21 49 0q19 -16 4 -45q-9 -15 -27 -50t-28 -51q69 0 125 3q3 0 18 30q13 30 22 56q2 4 5.5 12.5t6.5 15t7 10.5q27 18 43 15q7 -1 15.5 -12t8.5 -19q2 -19 -10 -51q-3 -9 -28 -55q6 0 31 -0.5 t40 -3t23 -7.5q18 -12 14.5 -29.5t-24.5 -23.5q-25 -10 -72 -10q-4 0 -11.5 0.5t-11 0.5t-8 -1.5t-6.5 -5.5q-33 -39 -94 -170q25 2 63 2q27 -2 36 -14.5t-3 -32.5q-7 -15 -30 -25t-44 -8q-26 2 -42 0.5t-24.5 -9t-15.5 -26.5q-21 -55 -45 -111q-2 -4 -5.5 -14t-7 -17 t-7.5 -12q-7 -13 -23 -16.5t-28 4.5q-27 18 -11 47q27 50 52 101q8 17 24 59zM465 418q-76 0 -111 -2q-23 0 -32 -15q-2 -3 -80 -133q-1 -3 -1 -9.5t-1 -10.5h147z" />
<glyph unicode="$" horiz-adv-x="546" d="M223 -39v21q-80 12 -136 52.5t-56 108.5q0 25 21.5 45.5t47.5 22.5q41 3 41 -23q0 -14 -10 -24q-12 -14 -12 -33q0 -22 31 -44.5t73 -33.5q0 28 1 89.5t1 93.5q-4 0 -8 4q-11 6 -46 22t-53.5 26.5t-43.5 28.5t-37.5 41t-13.5 50q0 78 57.5 146t148.5 116v26q0 36 13 62 q7 11 20.5 14t22.5 -4q18 -12 18 -45v-21q91 31 150 31q53 -2 88.5 -32t31.5 -80q-2 -36 -23 -67.5t-54 -43.5q-19 -8 -33 -10q-50 -13 -60 16q-4 15 5.5 29.5t29.5 23.5q1 0 10.5 2t14.5 4q1 1 4 2q33 16 33 39q0 48 -76 48q-41 0 -123 -35q-2 -35 -2 -105q-2 -80 -2 -248 q4 -2 14.5 -5t14.5 -5q145 -61 145 -153q0 -60 -50.5 -96.5t-123.5 -39.5v-16q0 -55 -37 -55t-37 55zM104 438q0 -71 123 -131q2 66 2 187v96q-125 -80 -125 -152zM387 109q0 23 -22 43t-68 47v-156q36 2 63 21t27 45z" />
<glyph unicode="%" horiz-adv-x="632" d="M-2 526q0 69 40.5 104.5t102.5 35.5q57 0 89 -38.5t32 -82.5q0 -62 -38 -104t-97 -42q-53 0 -91 35t-38 92zM348 127q0 68 40.5 103.5t103.5 35.5q57 0 88.5 -38.5t31.5 -82.5q0 -62 -38 -103.5t-97 -41.5q-53 0 -91 35t-38 92zM152 -8q-21 0 -30.5 16t-0.5 37 q241 493 291 602q17 27 43 27q23 -1 31 -16t-1 -35l-6 -15q-95 -157 -223 -442q-15 -33 -57 -146q-10 -25 -47 -28zM66 532q0 -22 18 -40.5t41 -18.5q29 0 50.5 22.5t21.5 49.5q0 22 -16.5 41.5t-37.5 19.5q-30 0 -53.5 -22.5t-23.5 -51.5zM416 133q0 -22 18 -40.5t41 -18.5 q29 0 50.5 22t21.5 49q0 23 -16 42.5t-37 19.5q-30 0 -54 -22.5t-24 -51.5z" />
<glyph unicode="&#x26;" horiz-adv-x="559" d="M399 143q57 -51 90 -71q15 -12 18 -29t-9 -31q-12 -12 -29.5 -10.5t-32.5 16.5l-63 60q-14 14 -15 14q-112 -104 -196 -104q-41 0 -76 33.5t-35 76.5q0 42 13.5 72t44.5 63q14 14 28 30.5t30.5 36t25.5 30.5q-3 14 -11 37.5t-13 42.5t-5 36q0 54 39.5 89.5t91.5 35.5 q36 1 59 -19.5t21 -53.5q0 -36 -19.5 -82t-44.5 -76l-22 -27l67 -112q39 45 52 73q8 16 15.5 41t14 35t19.5 10q20 0 26 -26t-4 -60q-6 -24 -19 -45.5t-33.5 -48t-27.5 -37.5zM324 139l-70 103q-12 15 -23 16t-28 -10q-33 -25 -54.5 -58t-21.5 -65q0 -28 18.5 -46t42.5 -18 q32 0 72 25t64 53zM258 373q43 35 43 98q0 39 -20 39q-18 0 -30.5 -20t-12.5 -46q-4 -44 20 -71z" />
<glyph unicode="'" horiz-adv-x="169" d="M88 565q-35 2 -61.5 22.5t-26.5 53.5q0 32 24 54.5t58 19.5t53.5 -35.5t16.5 -65.5q0 -46 -30 -98.5t-65 -52.5q-18 0 -23.5 15.5t3.5 21.5q43 31 51 65z" />
<glyph unicode="(" horiz-adv-x="251" d="M4 219q12 185 59 345.5t125 213.5q10 5 28 1t24 -17q8 -24 0.5 -37t-23.5 -18q-61 -25 -102 -169t-43 -300q0 -149 14.5 -249.5t58.5 -142.5q23 -22 29 -55q4 -18 -10 -25.5t-33 1.5q-51 24 -83 112t-40.5 176.5t-3.5 163.5z" />
<glyph unicode=")" horiz-adv-x="251" d="M252 317q-12 -185 -59 -345.5t-125 -213.5q-10 -5 -28 -0.5t-24 17.5q-8 24 -0.5 37t23.5 18q61 25 102 169t43 300q0 95 -4 160.5t-21 133t-48 97.5q-23 22 -29 55q-4 18 10 26t33 -1q51 -24 83 -112t40.5 -177t3.5 -164z" />
<glyph unicode="*" horiz-adv-x="403" d="M168 641q1 10 4.5 38t5.5 38q4 35 33 35q30 0 27 -43v-41q31 22 61 49q22 15 40.5 15t27.5 -15q22 -28 -21 -60l-92 -69q13 -13 53 -58q40 -43 10 -73q-22 -22 -51 0l-53 45q-2 -14 -3.5 -40.5t-2.5 -31.5l-4 -22q-10 -33 -41 -27q-15 2 -23.5 13.5t-7.5 29.5l6 72 l-67 -41q-45 -30 -64 2q-19 28 21 55l106 74q-6 6 -26 25.5t-29 29t-22.5 25t-22.5 28.5q-15 27 12 47q18 13 39 -8z" />
<glyph unicode="+" horiz-adv-x="387" d="M229 147q0 -19 -12 -33.5t-29 -11.5q-11 1 -17.5 19.5t-6.5 36.5v32h-39q-19 0 -33.5 12t-11.5 29q1 11 19.5 18t35.5 7q5 0 15 -1t14 -1q0 31 2 47q0 16 10 29.5t23 13.5q11 0 20 -13t10 -30q0 -7 1 -23t1 -24h48q16 0 29.5 -10t13.5 -23q0 -11 -13 -20.5t-30 -10.5 q-16 -2 -50 -2v-41z" />
<glyph unicode="," horiz-adv-x="307" d="M127 -2q-35 2 -61.5 22.5t-26.5 53.5q0 32 23 54t57 19t53 -35t16 -65q0 -46 -29.5 -98.5t-64.5 -52.5q-18 0 -22.5 15t4.5 21q43 31 51 66z" />
<glyph unicode="-" horiz-adv-x="387" d="M125 190q-19 0 -33.5 12t-11.5 29q1 11 19.5 18t35.5 7q26 -1 71.5 -1t72.5 -1q16 0 29.5 -10t13.5 -23q0 -11 -13 -20.5t-30 -10.5q-23 -2 -50.5 -2t-59 1t-44.5 1z" />
<glyph unicode="." horiz-adv-x="169" d="M68 104q25 0 40 -14.5t15 -40.5q0 -25 -19 -43t-45 -18t-41.5 17t-15.5 40q-1 22 20 40.5t46 18.5z" />
<glyph unicode="/" horiz-adv-x="448" d="M68 -8q-21 0 -30.5 16t-0.5 37q241 493 291 602q17 27 43 27q23 -1 31 -16t-1 -35l-6 -15q-95 -157 -223 -442q-15 -33 -57 -146q-10 -25 -47 -28z" />
<glyph unicode="0" horiz-adv-x="538" d="M223 8q-87 0 -139.5 53.5t-52.5 128.5q0 127 92 233.5t213 106.5q79 0 120.5 -59t41.5 -154q0 -119 -85 -214t-190 -95zM111 219q0 -59 35 -96t90 -37q74 0 125.5 68t56.5 143q5 63 -21 110.5t-84 47.5q-84 0 -143 -74.5t-59 -161.5z" />
<glyph unicode="1" horiz-adv-x="313" d="M113 262q-37 -14 -50 -14q-32 0 -32 24q0 16 14.5 30t25 19t31.5 13q30 13 33 24q29 203 121 203q57 0 57 -63q0 -47 -47 -109q-11 -15 -33.5 -41t-41 -45.5t-19.5 -21.5q-2 -36 -9.5 -109t-10.5 -104q-4 -33 -13 -50.5t-33 -17.5q-18 0 -27.5 11t-6.5 32q8 59 24 135.5 t17 83.5z" />
<glyph unicode="2" horiz-adv-x="585" d="M272 96q10 -2 40.5 -10t49 -11t37.5 -3q6 0 11.5 1t11.5 3.5t10 4.5t10 7l9 7.5t9 9t8 8.5t9 10.5t8 9.5q23 23 45 10q12 -7 13.5 -22t-6.5 -25q-65 -94 -152 -94q-52 0 -98 14l-37 13q-46 21 -74 -11q-14 -16 -38 -30t-44 -13q-33 0 -50 19.5t-17 48.5q0 39 39.5 58.5 t85.5 4.5q42 3 84 48q42 42 58 59t48 55t45.5 69t13.5 60q1 33 -18.5 53.5t-52.5 20.5q-53 0 -101.5 -33t-48.5 -76q0 -22 25 -47q19 -22 10 -45q-9 -20 -41 -20q-35 0 -50 26.5t-15 61.5q3 86 76 143.5t157 57.5q52 2 93 -30.5t40 -92.5q-2 -49 -20.5 -94.5t-54 -90 t-60 -69.5t-68.5 -66z" />
<glyph unicode="3" horiz-adv-x="495" d="M147 410q37 -23 37 -48q0 -17 -14.5 -27.5t-30.5 -10.5q-34 0 -48 23t-9 54q13 70 85 117t136 45q62 0 106 -33t44 -92q0 -89 -60 -149q51 -28 51 -82q0 -103 -67.5 -171.5t-163.5 -68.5q-38 -2 -77.5 12.5t-65.5 40.5q-24 24 -32 58.5t5 62.5q13 26 41 19q31 -6 22 -37 q-8 -34 26.5 -59t92.5 -25q56 0 93.5 39.5t37.5 91.5q0 29 -12.5 46t-38.5 11q-74 -16 -84 31q-5 27 15.5 36t60.5 9q41 0 60.5 33.5t19.5 79.5q0 34 -26 59t-58 25q-99 -3 -146 -90z" />
<glyph unicode="4" horiz-adv-x="540" d="M385 180q32 0 46 3.5t38 15.5q51 22 51 -19q0 -7 -3 -13.5t-9.5 -12t-10.5 -8.5t-13.5 -8.5t-10.5 -6.5q-41 -18 -94 -18q-6 0 -6 -58q0 -40 -9 -55.5t-34 -15.5q-45 0 -35 51l14 86q-81 27 -131 4q-8 -3 -32 -15.5t-35 -15.5q-32 -12 -56 2t-24 45q0 30 19.5 49.5 t51.5 18.5q62 -4 68 2q25 32 149 205q32 42 52 108q7 19 21.5 34t31.5 15q23 0 35 -15.5t12 -35.5q0 -19 -8 -33.5t-31 -44.5q-11 -15 -19.5 -57.5t-17 -116.5t-10.5 -90zM315 188q5 38 31 158q-8 -11 -34 -44t-44.5 -58t-25.5 -39q22 0 73 -17z" />
<glyph unicode="5" horiz-adv-x="505" d="M68 162q14 -4 26.5 -20.5t21.5 -32t31.5 -28.5t55.5 -13q64 0 108.5 42.5t44.5 98.5q0 45 -27.5 66.5t-70.5 21.5q-55 0 -94 -39q-31 -31 -62 -14q-15 8 -18.5 25.5t6.5 39.5q2 3 8.5 16.5t8 17t7 14.5t7 15.5t5.5 14.5t5 15.5t4 15.5t4 18t2 18t2 21q0 33 16.5 51.5 t47.5 14.5q143 -22 196 12q46 22 58 -14q14 -41 -33 -62q-48 -22 -143 -22q-45 0 -66 -25t-24 -80q60 26 110.5 21t87.5 -37q43 -36 39 -115q0 -76 -59 -143.5t-144 -77.5q-99 -13 -161 33q-38 26 -35 65v9.5v10v10.5t1 11l2.5 10t4 8t6.5 5.5t9 2.5t12 -1z" />
<glyph unicode="6" horiz-adv-x="423" d="M152 272q41 27 104 27q57 0 91 -42t34 -99q0 -73 -60 -121.5t-133 -48.5q-64 0 -109.5 43t-45.5 121q0 112 99.5 229.5t207.5 144.5q26 4 39 -14q12 -23 0.5 -38.5t-35.5 -22.5q-65 -26 -120 -77.5t-72 -101.5zM223 229q-45 0 -73 -21.5t-31 -55.5t19.5 -63.5t60.5 -29.5 q40 0 69 23.5t33 64.5q4 37 -19.5 59.5t-58.5 22.5z" />
<glyph unicode="7" horiz-adv-x="489" d="M125 469q6 -6 6 -23q-3 -43 -45 -43q-29 0 -42 19.5t-13 44.5q0 31 24.5 53.5t53.5 22.5q17 0 94 -17q67 -19 119.5 -15.5t97.5 34.5q41 26 60.5 17.5t19.5 -44.5q0 -28 -17 -48.5t-53 -20.5q-48 0 -68 -37q-32 -52 -91.5 -159.5t-75.5 -135.5q-11 -18 -31 -58t-29 -53 q-11 -14 -33 -14q-43 0 -43 37q0 14 6 25.5t15.5 23t30.5 40t43 64.5q70 115 135 230l22 32z" />
<glyph unicode="8" horiz-adv-x="432" d="M162 281q-40 23 -60 47t-20 59q0 56 59 92.5t115 36.5q51 0 86.5 -24.5t34.5 -71.5q0 -73 -74 -139q86 -68 86 -142q0 -63 -49 -104t-121 -41q-75 0 -130.5 35t-55.5 94q0 24 13 48t38 47t39 34.5t39 28.5zM309 135q0 32 -28.5 61t-59.5 29t-65.5 -33.5t-34.5 -64.5 q0 -26 26 -47t72 -21q33 0 61 21.5t29 54.5zM242 453q-32 0 -59 -18.5t-27 -43.5q0 -16 14.5 -36.5t34.5 -30.5q26 -15 51 2q21 12 35.5 33t15.5 42q0 25 -20.5 38.5t-44.5 13.5z" />
<glyph unicode="9" horiz-adv-x="436" d="M84 76q10 0 16.5 -6.5t10 -15t12.5 -15t22 -6.5q58 0 105.5 54t50.5 118q-42 -25 -102 -25q-67 -1 -110.5 47.5t-43.5 112.5q0 71 59 136t127 65q45 0 78 -27.5t48.5 -70.5t22.5 -85.5t5 -81.5q-3 -69 -32.5 -140.5t-84 -123t-118.5 -51.5q-53 0 -80.5 28.5t-16.5 61.5 q2 8 10.5 16.5t20.5 8.5zM223 463q-37 0 -67.5 -42t-30.5 -79q0 -36 25.5 -56t60.5 -20t64.5 15.5t29.5 31.5q0 66 -22 108t-60 42z" />
<glyph unicode=":" horiz-adv-x="169" d="M68 104q25 0 40 -14.5t15 -40.5q0 -25 -19 -43t-45 -18t-41.5 17t-15.5 40q-1 22 20 40.5t46 18.5zM76 391q25 0 40 -14.5t15 -40.5q0 -25 -18.5 -43.5t-44.5 -18.5t-42 17.5t-16 40.5q-1 22 20 40.5t46 18.5z" />
<glyph unicode=";" horiz-adv-x="243" d="M137 391q25 0 40.5 -14.5t15.5 -40.5q0 -25 -19 -43.5t-45 -18.5t-41.5 17.5t-15.5 40.5q-1 22 19.5 40.5t45.5 18.5zM125 6q-32 2 -56 20t-24 48q0 29 20.5 48.5t51.5 16.5q30 -3 47 -32t14 -58q0 -42 -26 -88.5t-58 -46.5q-16 0 -20 14t4 19q1 1 7 5.5t9 7.5t9 8.5 t9.5 10.5t7 12.5t5.5 14.5z" />
<glyph unicode="&#x3c;" horiz-adv-x="225" d="M170 332q18 -2 18 -31q0 -12 -4 -21t-8.5 -14t-18 -16.5t-22.5 -20.5q-27 -27 -4 -61q4 -5 12.5 -14.5t13.5 -16t10.5 -15.5t8.5 -18q17 -45 -10 -55q-29 -11 -57 25q-6 7 -64 86q-14 21 -13 35.5t17 35.5q11 14 34.5 38.5t31.5 33.5q33 33 55 29z" />
<glyph unicode="=" horiz-adv-x="296" d="M59 94q-24 0 -32 4q-31 9 -25 43q11 33 37 35h158q58 0 61 -35q4 -28 -12 -39t-49 -8h-138zM63 203q-18 0 -33 9t-18 21q-3 14 10.5 28.5t32.5 14.5q69 7 181 7q31 0 40 -31q2 -13 -8 -28.5t-26 -16.5q-31 -2 -95 -2.5t-84 -1.5z" />
<glyph unicode="&#x3e;" horiz-adv-x="225" d="M43 45q-18 2 -18 31q0 12 4 20.5t9 13.5t18 16.5t22 20.5q28 28 4 62q-4 5 -12.5 14.5t-13.5 15.5t-10.5 15t-8.5 18q-8 20 -5 36t15 20q29 11 57 -25q6 -7 64 -86q14 -21 13 -36t-17 -36q-11 -14 -34.5 -38t-31.5 -33q-33 -33 -55 -29z" />
<glyph unicode="?" horiz-adv-x="366" d="M104 236q6 14 19.5 32t25 30t33 32t29.5 28q78 78 78 150q0 58 -31 94t-74 39q-47 3 -80 -16.5t-38 -51.5q-7 -45 30 -79q14 -14 16 -30t-10 -28q-26 -20 -57 4q-45 36 -45 92q0 79 56.5 126t144.5 42q78 -4 116.5 -53.5t38.5 -130.5t-57 -151q-28 -34 -86.5 -91 t-67.5 -67q-20 -20 -36 -17q-20 3 -5 46zM111 106q25 0 40 -14.5t15 -40.5q0 -25 -19 -43t-45 -18t-41.5 17t-15.5 40q-1 22 20 40.5t46 18.5z" />
<glyph unicode="@" horiz-adv-x="745" d="M524 360q-8 -29 6 -65.5t41 -36.5q61 0 106.5 66.5t45.5 130.5q2 56 -25.5 99.5t-73.5 67t-94.5 35t-95.5 11.5q-145 -3 -254.5 -111t-109.5 -256q0 -111 80 -186.5t186 -75.5q66 0 121 41q15 10 33 8t26 -16q10 -17 5 -34.5t-23 -23.5q-84 -34 -176 -34 q-128 0 -224 84.5t-96 209.5q0 208 132 335.5t331 127.5q124 0 221 -67.5t100 -184.5q0 -26 -4 -84q-9 -76 -80 -141t-145 -65q-28 0 -56 19t-28 44q-17 -25 -32 -41t-44 -31t-63 -16q-64 -4 -98 40.5t-31 102.5q5 85 64 147t141 62q67 0 98 -41t16 -121zM455 365 q0 100 -70 100q-47 -3 -73 -37t-33 -84q-7 -49 13.5 -78.5t51.5 -27.5q40 2 75 38.5t36 88.5z" />
<glyph unicode="A" d="M377 256q-25 7 -49.5 -0.5t-38.5 -26.5q-20 -28 -49 -28q-19 0 -23.5 19t6.5 38q45 72 156 72q42 0 43 2q30 72 51.5 117t53 95.5t62.5 78.5t74 46.5t93 18.5q41 0 53 -35q15 -34 -14 -63q-8 -8 -15.5 -17.5t-14.5 -23t-12 -23t-12 -27.5t-10.5 -26.5t-10 -29.5 t-8.5 -27.5t-8.5 -29.5t-7.5 -26q-6 -17 -12 -67q8 -4 24.5 1.5t27 8t20.5 -11.5q7 -21 -8.5 -35.5t-36 -19.5t-37.5 -5q-3 0 -7 -7.5t-7 -20.5t-3 -27q0 -46 19.5 -79.5t60.5 -33.5q11 0 23.5 4t22 8.5t22 15t19.5 16t19.5 20t16 19t16.5 20t13 16.5q14 21 22.5 31.5t24 23 t29.5 13.5q47 2 -23 -96q-30 -42 -48.5 -63.5t-48 -48t-62 -37t-72.5 -9.5q-62 0 -93.5 45.5t-31.5 110.5q0 44 14 75q-30 0 -79.5 11.5t-65.5 11.5h-4t-4 -3t-7.5 -10t-11.5 -20q-49 -91 -126 -160t-157 -69q-67 0 -106 37.5t-39 109.5q0 73 35.5 143.5t97.5 96.5 q28 8 43 8q15 1 25 -7.5t12 -23.5q3 -34 -27 -41q-110 -32 -110 -159q0 -38 22 -64.5t54 -28.5q119 0 225 197zM608 293q50 200 64 246q3 8 8 20.5t12 29.5t10 25q-62 -12 -127 -110t-92 -185q24 -2 64 -14t61 -12z" />
<glyph unicode="B" horiz-adv-x="724" d="M530 319q0 -1 11 -6q45 -14 81.5 -46.5t36.5 -73.5q0 -53 -28 -91q-83 -106 -221 -106q-36 0 -54 2q-76 10 -116.5 64t-40.5 120q2 135 73 312q11 29 23.5 42t36.5 9q33 -7 2 -78q-62 -147 -62 -268q0 -62 36.5 -99t101.5 -37t118.5 31.5t53.5 91.5q0 39 -45 63.5 t-99 24.5q-12 0 -29.5 -3.5t-29.5 -6t-24 -3t-19 5.5t-8 20q-2 12 13 26t32 15q63 6 103 29.5t65 74.5q12 27 12 49q0 34 -23.5 58.5t-60.5 36t-69.5 16t-63.5 4.5q-49 0 -107.5 -16t-107.5 -53t-49 -83q0 -21 16 -36t45 -19q21 -3 34 -14t11 -23q-1 -17 -19 -28t-40 -9 q-52 3 -85.5 42t-33.5 87q0 50 38.5 92.5t94.5 67.5t112.5 39t100.5 14q37 0 74 -4t77 -15.5t70.5 -29.5t50 -49t19.5 -70t-32.5 -89t-61.5 -70q-1 -1 -6.5 -5t-6.5 -6z" />
<glyph unicode="C" horiz-adv-x="610" d="M625 252q14 14 28 14q39 -5 4 -71q-58 -118 -158.5 -177t-211.5 -51q-121 8 -203 78t-82 188q0 109 51 214t139.5 173t186.5 68q61 0 100 -37t39 -94q0 -89 -92 -192q-17 -17 -40 -17.5t-36 14.5q-14 17 -9 38t28 38q67 34 67 109q0 25 -21 46t-50 21q-69 0 -135.5 -59.5 t-105 -142t-36.5 -152.5q0 -100 55 -156.5t154 -64.5q109 -9 192 48t136 165z" />
<glyph unicode="D" horiz-adv-x="884" d="M328 500q15 47 33 65.5t36 5.5q7 -4 10.5 -8.5t4.5 -11.5t0.5 -14t-3.5 -18.5t-6 -21.5t-8.5 -28t-9.5 -33q-27 -106 -27 -301q0 -84 86 -84q135 4 225.5 96.5t90.5 217.5q-1 62 -32 110t-79.5 75.5t-102.5 41.5t-110 14q-105 0 -217 -40t-143 -115q-21 -64 47 -82 q11 -4 42.5 -8t42.5 -13t5 -31q-5 -20 -27 -25t-43.5 -1t-42.5 12q-121 45 -94 146q15 57 63 102.5t111 70.5t126.5 37.5t119.5 12.5q71 0 140.5 -17.5t130.5 -51.5t99 -91.5t38 -130.5q0 -125 -60.5 -217.5t-157 -137t-213.5 -44.5q-48 0 -77.5 33t-34.5 83q-8 78 4 207.5 t33 194.5z" />
<glyph unicode="E" horiz-adv-x="542" d="M264 -8q-89 0 -148 38.5t-59 110.5q0 39 25 80l4 6q-4 2 -6 4q-75 57 -80 131q-6 82 60 164.5t159 131.5t170 49q70 0 112.5 -35.5t35.5 -96.5q-5 -37 -39.5 -71t-75.5 -41q-51 -8 -62 18q-11 32 33 47q28 8 48 25.5t20 38.5q0 23 -25 38t-69 15q-56 0 -122.5 -37.5 t-114.5 -100.5t-48 -126q0 -70 47 -94q5 -3 10 2q27 26 68.5 42.5t77.5 16.5q35 0 61.5 -24t26.5 -58q0 -42 -37 -64t-86 -22q-24 0 -48.5 4t-37.5 8l-12 5q-15 -15 -15 -37q0 -46 41.5 -76.5t85.5 -30.5q160 0 262 142q6 8 11.5 18t9 18t8 16.5t8.5 14t9 8.5t11 1.5 t13 -7.5q28 -24 -14 -82q-49 -83 -134.5 -136.5t-183.5 -53.5zM193 252q9 -4 30.5 -7t30.5 -1q12 2 21.5 8.5t9.5 15.5q-2 8 -9 12t-16 3q-36 -4 -67 -31z" />
<glyph unicode="F" horiz-adv-x="692" d="M170 225q29 -22 -12 -39q-13 -5 -31 -8q-52 -9 -49 -69q2 -40 45.5 -67.5t95.5 -21.5q43 4 78.5 30.5t58 66t36.5 79t22 80.5q-3 1 -10 4.5t-15.5 6t-15.5 2.5q-34 0 -70 -25q-12 -10 -26.5 -15t-25.5 -0.5t-11 19.5q-2 12 10.5 28t32.5 28q48 30 108 30q14 0 27 -2.5 t15.5 -4t4.5 0.5q25 123 58 209q3 9 8 16l7.5 10.5t2.5 4.5q-49 1 -138 26t-134 25q-38 0 -63 -20t-25 -50q0 -28 18 -44.5t53 -16.5q41 0 74 33q22 22 43 8q20 -14 17.5 -35t-23.5 -39q-46 -39 -121 -39q-56 0 -94.5 36.5t-38.5 88.5q0 61 57 102.5t115 41.5q49 0 152 -27 t147 -27q2 0 8.5 5t19 15.5t23.5 18.5q21 18 43 28.5t48 10.5t46 -16q68 -57 5 -96q-46 -29 -119 -29q-41 0 -54 -29q-37 -80 -67 -223q36 -12 55 -12t57 24q5 3 12 7l10.5 6t9 4.5t8.5 3t7 0t6.5 -3t4.5 -7.5q3 -4 2.5 -14t-4.5 -16q-55 -78 -142 -60q-37 6 -44.5 1 t-18.5 -42q-78 -257 -256 -274q-76 -6 -140 31.5t-71 105.5q-6 57 27 100.5t88 47.5q30 3 53 -13z" />
<glyph unicode="G" horiz-adv-x="741" d="M414 70q-3 80 51.5 156t128.5 79q40 0 65 -26t25 -60q0 -63 -60 -121.5t-128 -77.5q-7 -2 -7 -8q1 -119 -79 -192.5t-187 -73.5q-78 0 -147.5 41.5t-75.5 112.5q0 50 35 82t82 32q46 0 49 -24q2 -11 -8 -20t-25 -9q-26 0 -40.5 -16.5t-14.5 -40.5q0 -36 42.5 -64 t110.5 -28q67 0 117.5 31t63.5 83q6 23 7 42t-2 29.5t-9 10.5q-125 0 -209 66.5t-84 197.5q0 112 66 212t169.5 158t212.5 58q58 0 98.5 -29t40.5 -69q0 -54 -42.5 -97t-96.5 -56q-38 -11 -49 14q-6 13 2.5 29t24.5 24q2 1 29 15t39 26t12 27q0 22 -27 34.5t-70 12.5 q-87 0 -167.5 -58.5t-125.5 -138t-45 -149.5q0 -92 67 -155.5t161 -59.5zM485 84q60 17 94.5 64t28.5 94q-48 0 -85.5 -41t-37.5 -117z" />
<glyph unicode="H" horiz-adv-x="833" d="M113 532q33 11 53 11q18 0 33.5 -11t15.5 -24q-1 -30 -29 -49t-65 -19q-32 0 -51 22t-19 50q0 77 65.5 126.5t139.5 49.5q41 0 69 -25.5t37.5 -63.5t13 -83t-2.5 -84q-4 -56 -8 -76q44 0 96 -11t74 -11q2 0 2 4t2 16.5t6 28.5q35 152 114 289q22 40 56 22 q15 -9 17.5 -26.5t-9.5 -32.5q-92 -126 -117 -299q31 7 70 53q22 25 51 6q15 -8 18.5 -24t-6.5 -31q-22 -26 -43 -39q-15 -8 -47.5 -22t-44.5 -19q-7 -104 8 -144q18 -46 64 -46q24 0 45 13.5t32 27t28.5 41.5t23.5 36q21 32 39 27q11 -4 14.5 -12.5t-2.5 -24.5t-9.5 -24 t-15.5 -29q-18 -29 -31.5 -47.5t-37.5 -41.5t-49 -32q-19 -8 -45 -8q-142 0 -142 223q0 29 -4 29q-14 0 -69 12.5t-78 11.5q-26 -1 -32.5 -8t-12.5 -37q-18 -111 -91 -202t-153 -91q-43 0 -64.5 32t-21.5 71q0 90 70.5 164.5t162.5 111.5q42 16 57 27t15 29q4 30 4.5 68 t-4.5 84.5t-24 77t-50 30.5q-38 0 -73 -27t-45 -70zM272 260q-78 -27 -140 -83t-62 -114q0 -43 30 -43q40 0 80.5 45.5t64.5 100.5t27 94z" />
<glyph unicode="I" horiz-adv-x="487" d="M330 569q-39 0 -80.5 -5.5t-82 -16.5t-66 -30.5t-25.5 -45.5q0 -15 10.5 -28.5t26.5 -14.5q10 -1 61 16q30 13 35 -8q10 -26 -23.5 -51t-74.5 -27q-43 -1 -74 30t-31 73q0 58 53.5 98t123 56t143.5 16q24 0 36 26q14 28 36 51t46 27q31 4 53.5 -10t24.5 -39 q3 -37 -18 -63.5t-58 -32.5q-27 -4 -31.5 -11t-6.5 -42q-15 -229 -45 -342q-65 -248 -228 -248q-62 0 -103 48t-32 120q8 68 55 116t111 48q29 0 59.5 -16.5t30.5 -43.5q0 -16 -17 -24.5t-24 0.5q-20 24 -65 24q-36 0 -59 -24t-28 -66q-5 -45 16.5 -81t72.5 -36 q44 0 79 47.5t54 117t32.5 149t14 143.5t-1.5 100z" />
<glyph unicode="J" horiz-adv-x="595" d="M397 -37q-7 -37 -11.5 -59.5t-15.5 -64t-21.5 -68.5t-28.5 -60.5t-38.5 -53.5t-48.5 -34t-61 -14q-66 0 -116.5 44t-53.5 105q-3 68 25.5 112t87.5 75q87 44 176 82q30 11 45.5 27t21.5 46q8 35 28.5 224.5t29.5 230.5q-122 8 -178 8q-22 0 -46 -13t-24 -32q0 -17 18 -26 t35 -9q16 0 28.5 4.5t24 11.5t17.5 9q14 5 28.5 -2.5t18.5 -20.5q10 -36 -36.5 -55.5t-86.5 -19.5q-44 0 -83.5 35t-39.5 81q0 42 42 70.5t85 30.5q32 1 43 1t42.5 -2t41.5 -3l94 -7q5 11 17.5 33t17.5 35q26 46 77 51t83 -35q28 -37 2 -55q-37 -30 -98 -59q-31 -16 -45 -51 q-14 -26 -25.5 -107.5t-21 -178t-11.5 -112.5l-12 -69q60 22 133 108q12 14 25.5 33.5t21.5 28.5q19 22 39 6q21 -21 -33 -90q-91 -115 -209 -166q-4 -12 -4 -25zM328 -33q-77 -21 -164 -67q-42 -25 -64 -52t-22 -65t30.5 -67t69.5 -29q29 0 52.5 21.5t39 59.5t25.5 71 t20 75t13 53z" />
<glyph unicode="K" horiz-adv-x="903" d="M395 338q16 -3 34 -7.5t27.5 -7t10.5 -1.5q111 57 181 135.5t114 189.5q2 5 5 18.5t5 18.5q14 28 39 21q32 -14 29 -41l-9 -29q-63 -209 -311 -367q14 -14 58.5 -74t84 -96.5t76.5 -36.5q52 0 135 123q40 59 50 59q4 0 6 -5q13 -25 -2 -62q-28 -67 -85.5 -122.5 t-109.5 -55.5q-34 0 -66 14t-61.5 40.5t-50 49.5t-49 58.5t-41.5 50.5l-6 6q-21 -10 -51 -16.5t-50 -8.5l-20 -2q-29 -93 -89 -158t-128 -65q-50 0 -84 29.5t-35 73.5q0 53 35 104q19 23 37 10q19 -14 12 -32q-1 -3 -6.5 -12.5t-9.5 -20.5t-4 -23q0 -26 14.5 -45.5 t40.5 -19.5q46 0 88 47.5t65 116.5q1 2 -4.5 5.5t-14 10.5t-13.5 16q-14 22 0 51.5t41 43.5q14 8 27 13t18.5 6.5t5.5 2.5q16 164 16 186q0 101 -69 101q-57 0 -120.5 -53.5t-70.5 -110.5q-5 -23 4 -49q21 10 49 14q25 3 39.5 -8.5t16.5 -32.5q1 -16 -7.5 -26t-25 -14.5 t-29 -5.5t-28.5 -1q-36 0 -64.5 30.5t-30.5 65.5q0 58 52 119.5t122 99t125 37.5q47 0 77 -34t30 -111q0 -44 -11.5 -118t-13.5 -95zM375 252q6 -4 30.5 3.5t24.5 12.5t-18.5 12t-26.5 7q-4 0 -10 -35z" />
<glyph unicode="L" horiz-adv-x="735" d="M268 160q26 -10 78 -36.5t92 -41t78 -14.5q118 0 223 172q13 20 31 20q11 -1 15 -12t1 -23q-35 -94 -117 -162.5t-159 -68.5q-44 0 -91 16.5t-98.5 42.5t-72.5 33q-14 -30 -22 -44t-23.5 -35t-34.5 -29t-43 -7q-38 0 -73.5 29.5t-35.5 65.5q0 44 41 82t84 38q40 0 56 -12 l7 20q4 17 1 17q-61 -5 -124 19t-79 71q-5 17 5.5 27t27.5 6q15 -4 26 -12q45 -56 150 -56q1 0 2 7t4 27.5t6 39.5q5 34 7 49.5t9.5 60.5t15.5 72t21 68.5t28.5 66.5t35.5 49t46 32.5t56 2.5q54 -11 79 -62t22 -108q-6 -109 -84.5 -206t-182.5 -142q-5 -2 -8 -63zM285 299 q73 41 124.5 112t51.5 146q0 35 -12.5 71t-34.5 36q-47 0 -92 -187q-22 -88 -37 -178zM176 100q-21 21 -45 21q-13 0 -26.5 -14t-18.5 -33q6 -11 20 -19t25 -8q14 0 27.5 14.5t17.5 38.5z" />
<glyph unicode="M" horiz-adv-x="1073" d="M575 94q114 108 197 312q53 153 53 231q0 39 14 58t44 16q22 -3 31 -26.5t-3 -51.5q-21 -48 -35 -108t-19.5 -102.5t-14.5 -131.5q-2 -31 -3.5 -83.5t9.5 -102.5t33 -50q54 0 169 163q4 5 5 7q2 3 7 9.5t8 10.5t8 9t9.5 6.5t11 0.5t13.5 -5q25 -17 2 -51 q-49 -76 -122 -149.5t-132 -73.5q-96 0 -96 198q0 48 8 80q-50 -92 -95 -152.5t-104 -113.5q-24 -21 -49 -4q-35 24 -32 63q6 108 6 160q-3 -3 -7.5 -10t-7.5 -10q-52 -91 -131.5 -155t-165.5 -67q-68 -2 -115.5 34.5t-47.5 107.5q0 84 54 153.5t144 83.5q66 8 94 -18 q16 -16 13 -37q-3 -13 -14.5 -16t-24.5 0q-27 6 -53 6q-62 -6 -104 -53t-42 -105q0 -38 29.5 -66t75.5 -28q47 0 101 43t99 106.5t79 125.5t52 110q38 107 47 203q5 45 17 63t43 12q18 -3 32 -20t13 -35q-1 -6 -14 -45q-81 -197 -89 -369v-133z" />
<glyph unicode="N" horiz-adv-x="888" d="M369 465q31 41 56.5 70t62 61t77.5 49t84 17q200 0 88 -304q-69 -196 -69 -243q0 -34 12 -50t29 -16q83 0 153 141q22 43 41 43q20 0 23 -22q3 -20 -6 -39q-48 -88 -103 -139t-135 -51q-50 0 -69 28t-19 78q2 35 11 75.5t17.5 66.5t25 72t22.5 65q6 17 8.5 24t8.5 26.5 t8 30t6 29.5t3.5 30t-1.5 26t-7 24t-14 18t-21.5 13t-31.5 4q-61 0 -129 -66t-123 -157q-32 -58 -37 -125q-1 -7 -4.5 -36.5t-5.5 -44t-8 -43.5t-12 -45t-16.5 -38t-23 -33.5t-31 -20t-40.5 -8.5q-25 0 -46.5 24t-21.5 56q0 45 24.5 92t72.5 108.5t57 74.5q5 11 8.5 33 t3.5 24q10 85 -2 148q-8 29 -26.5 46.5t-41.5 16.5q-60 0 -115 -67.5t-55 -133.5q0 -23 15 -40.5t41 -20.5q15 -2 23 -4.5t14 -10t6 -20.5q-3 -39 -43 -39q-51 0 -83 35t-32 84q0 60 35 126.5t90 111.5t108 45q59 0 96 -52.5t40 -113.5q0 -3 1 -14t1 -19zM270 207 q-42 -48 -61 -92t-2 -62q14 7 24 19.5t16.5 31.5t10 33.5t7 38t5.5 31.5z" />
<glyph unicode="O" horiz-adv-x="731" d="M629 319q0 -130 -98.5 -233.5t-223.5 -103.5q-150 0 -225.5 93.5t-75.5 243.5q3 156 91 247t229 91q128 0 197 -51t93 -153q26 16 42 49t14 61q-1 19 12 25t25 -2q15 -15 18 -41q4 -48 -25 -91t-73 -61q-1 0 -2 -1t-2 -1q4 -46 4 -72zM557 377q-104 13 -162.5 72.5 t-64.5 142.5q-109 4 -176 -73.5t-72 -186.5q-3 -128 56.5 -203.5t172.5 -75.5q95 0 171.5 83t76.5 177q0 50 -2 64zM547 453q-12 54 -57.5 90t-86.5 41q-9 -41 40.5 -87.5t103.5 -43.5z" />
<glyph unicode="P" horiz-adv-x="782" d="M365 145q-21 -61 -64.5 -110t-99.5 -49q-50 0 -81.5 26.5t-31.5 69.5q0 27 19 55.5t45 28.5q22 0 28 -12q5 -13 -6 -30t-24 -28q-1 -20 17 -34.5t38 -14.5q32 0 60 41.5t42 91t17 92.5q8 55 14 137.5t10 104.5q8 50 39 45q29 -2 29 -43q0 -22 -6.5 -64t-16.5 -100 t-14 -86q-5 -38 17 -50.5t59 -12.5q103 0 180.5 61t77.5 154q0 91 -94 142.5t-222 51.5q-65 0 -140.5 -22.5t-135.5 -71.5t-60 -110q0 -37 31 -61.5t74 -24.5q11 0 27.5 5t30 9t26.5 6.5t21 -3.5t10 -22q4 -27 -27 -41t-86 -14q-69 0 -118.5 31.5t-49.5 89.5q0 77 43 138.5 t110.5 96t140.5 52.5t142 18q157 -3 253.5 -69t96.5 -181q0 -77 -29.5 -137t-79.5 -96t-111.5 -54t-131.5 -18q-10 0 -21.5 2t-25 5.5t-22.5 4.5z" />
<glyph unicode="Q" horiz-adv-x="618" d="M131 252q30 17 43 22q14 8 29.5 2t15.5 -26q0 -55 -94 -55q-54 0 -89.5 47t-35.5 106q0 123 93 219.5t210 96.5q67 0 118.5 -28.5t81 -75.5t44 -101t14.5 -111q0 -91 -36.5 -154t-106.5 -118q9 -9 28 -39t37 -52t33 -22q30 0 64 51q18 38 43 13q13 -21 9.5 -32.5 t-20.5 -35.5q-16 -23 -44 -43t-50 -20q-36 0 -63.5 23.5t-53.5 66t-32 49.5q-56 -41 -140 -41q-143 0 -143 80q0 35 29 58.5t61 31.5t62 8q28 0 57 -10t43 -23q15 -13 28.5 -13t32.5 13q42 34 69.5 87.5t27.5 109.5q0 105 -50.5 183.5t-144.5 78.5q-93 0 -166.5 -74.5 t-73.5 -171.5q0 -34 19.5 -67t50.5 -33zM307 82q-38 24 -76 24q-69 0 -69 -26q0 -23 71 -23q41 0 74 25z" />
<glyph unicode="R" horiz-adv-x="882" d="M567 233q5 -6 41.5 -55t70.5 -86t52 -37q11 0 21.5 4t20.5 13.5t18.5 17.5t19 23t16.5 24t16.5 26t14.5 23q0 1 4 6.5t5.5 8t6.5 9t7.5 8t8 6t8 3t7.5 -1.5q10 -4 10 -20.5t-8 -34.5q-34 -72 -81 -124t-101 -52q-32 0 -61 13.5t-55 40.5t-44 49t-42 57.5t-34 48.5 q-1 1 -20 -2t-43.5 -5.5t-36.5 -0.5q-11 -20 -30.5 -60.5t-35 -66.5t-38 -55.5t-53 -44.5t-68.5 -15q-67 0 -115.5 44t-48.5 109q0 43 13.5 78.5t32 51.5t34.5 8q20 -10 12 -37q-2 -6 -6 -17t-6 -17.5t-4 -17t-2 -22.5q0 -45 24.5 -75.5t65.5 -30.5q30 0 56 20.5t44.5 53.5 t30 61.5t18.5 56.5q-2 3 -6 9.5t-9 26.5t-3 40q2 19 13 34t38 33q-6 75 -6 123q3 39 39 45q34 5 39 -36q1 -20 -6 -134q30 0 69.5 -22t53.5 -45q58 22 101.5 80.5t43.5 130.5q0 35 -21.5 60.5t-59 39t-80 19t-91.5 4.5q-65 -1 -135 -31.5t-119 -81.5t-49 -104q0 -26 30 -45 t74 -25q14 -2 20 -4t10.5 -8t4.5 -17q0 -14 -11.5 -28t-27.5 -15q-69 -9 -128.5 31t-59.5 104q0 61 43 118t108 95.5t139 61t138 22.5q52 0 100 -8.5t93 -27.5t73 -55t29 -85q0 -98 -55 -174.5t-138 -116.5zM467 262q-12 11 -30 20t-27 9l-4 -33q28 -10 61 4z" />
<glyph unicode="S" horiz-adv-x="524" d="M260 -23q-58 0 -113 16t-97 55t-42 95q0 25 22 45.5t48 22.5q41 3 41 -23q0 -14 -10 -24q-13 -16 -13 -33q0 -31 58 -59.5t110 -28.5q39 0 70 19.5t31 46.5q0 11 -5 22t-19 23t-24.5 20t-36.5 22t-39 20.5t-46 23.5q-12 6 -46.5 21.5t-53.5 26.5t-44 29t-37.5 41 t-13.5 50q0 66 45 128.5t111.5 104.5t140.5 67t133 25q53 -2 89 -32t32 -80q-2 -36 -23.5 -67.5t-54.5 -43.5q-19 -8 -33 -10q-49 -13 -59 16q-4 15 5.5 29.5t29.5 23.5q3 1 7.5 1.5t8.5 1.5t8 3q1 1 4 2q33 16 33 39q0 48 -76 48q-48 0 -123 -34.5t-135.5 -89t-60.5 -102.5 q0 -28 16.5 -52.5t50.5 -46t68 -37t86 -36.5q146 -61 146 -153q0 -63 -55.5 -99.5t-133.5 -36.5z" />
<glyph unicode="T" horiz-adv-x="673" d="M440 145q-2 -27 0.5 -74.5t-2.5 -62.5q-3 -18 -22 -27.5t-35 -3.5q-34 9 -29 46q7 82 40.5 255.5t72.5 296.5q-14 2 -81 12t-97 11q-193 3 -205 -57q-4 -25 15.5 -42.5t41.5 -17.5q58 0 58 -39q0 -31 -37 -41q-55 -15 -104 23.5t-54 95.5q0 42 26.5 72.5t68 45t79.5 20.5 t74 6q65 0 130 -7.5t148.5 -22.5t116.5 -20q80 -14 164 11q11 51 68 51q21 0 35 -13.5t14 -37.5t-11.5 -36.5t-33.5 -23.5q-53 -25 -149 -26.5t-152 16.5q-50 12 -66 -37q-29 -92 -50 -200t-24 -173z" />
<glyph unicode="U" horiz-adv-x="962" d="M668 174q-60 -85 -143 -143t-169 -58q-67 0 -103 43.5t-36 110.5q0 14 2 29.5t4.5 27.5t9 29.5t9.5 26.5t12 28.5t12 25t13.5 26t11.5 22.5q33 80 31 143q0 45 -21.5 72t-62.5 27q-54 0 -107 -45.5t-53 -98.5q0 -86 82 -102q45 -12 39 -47q-5 -37 -64 -29 q-58 6 -96.5 52.5t-36.5 105.5q0 95 85 164t179 71q67 0 101 -50t34 -116q3 -79 -43 -176q-5 -10 -19.5 -38t-22 -43t-14.5 -38t-7 -42q0 -46 22 -75t60 -32q64 0 125.5 42t107.5 99q22 28 41 60q17 29 19 45q1 13 4.5 91t11.5 122q11 58 40 109t65 51q25 0 39 -23.5 t14 -56.5q0 -138 -86 -285q-10 -19 -12.5 -28t-0.5 -29q3 -37 6.5 -62t11 -52t21 -40.5t33.5 -13.5q53 0 133 135q26 44 41 20q13 -21 -4 -61q-35 -65 -86 -117.5t-104 -52.5q-24 0 -43 12t-32.5 34.5t-22 41.5t-18 48.5t-13.5 39.5zM737 379q26 45 39.5 114.5t-2.5 88.5 q-16 -29 -27.5 -101t-9.5 -102z" />
<glyph unicode="V" horiz-adv-x="593" d="M371 238l75 190q9 20 27.5 65.5t29.5 70t29 60t37 62.5q22 31 57.5 44t67.5 1q22 -7 29 -31q3 -11 -7 -17.5t-24 -8.5q-42 -5 -74 -53q-120 -188 -200 -453q-17 -56 -17 -111q3 -35 -12 -53.5t-43 -13.5q-36 3 -39 49v84q0 64 -4 82q-6 28 -16 85t-19.5 102t-19.5 85 q-6 23 -15 49t-27 55.5t-36 32.5q-36 6 -66 -27t-34 -85q-3 -36 11 -62t42 -32q12 -3 26 1t22.5 7.5t17 -1t14.5 -20.5q14 -34 -20 -50t-77 -11q-53 7 -78.5 47t-25.5 92q0 79 54.5 146t129.5 67q36 0 65 -34t40 -74q15 -50 63 -252q6 -25 17 -88z" />
<glyph unicode="W" horiz-adv-x="1042" d="M762 90q43 0 100 123q36 75 56 151.5t19.5 156t-26.5 143.5q-10 23 -4.5 40.5t25.5 18.5q13 3 27.5 -7t19.5 -22q28 -62 29 -150t-30 -195t-91 -208q-77 -137 -142 -137q-14 0 -30 14.5t-32 41.5t-27 48t-24.5 51t-15.5 34q-37 -63 -98.5 -143.5t-89.5 -80.5 q-18 0 -32 13.5t-25.5 46t-19 59t-20 83t-20.5 87.5q-44 181 -59 222q-29 77 -62 77q-41 0 -79.5 -50.5t-38.5 -94.5q0 -61 82 -74q19 -3 27.5 -10t8.5 -23q-3 -33 -45 -33q-54 3 -98.5 35.5t-44.5 83.5q0 48 30.5 105t79 97t93.5 40q32 0 59.5 -30t46.5 -84.5t30.5 -95.5 t22.5 -99.5t11 -59.5q34 -147 61 -215q39 41 101.5 129t58.5 111q-25 136 -25 213q0 40 20.5 70t53.5 30q53 0 53 -98q0 -29 -19.5 -89t-21.5 -71t-1.5 -16.5t3 -18t3.5 -18.5q12 -55 46 -128t54 -73z" />
<glyph unicode="X" horiz-adv-x="780" d="M369 285q-17 -20 -52 -61.5t-53 -63.5l-121 -142l-6 -8q-36 -32 -55 -10q-18 21 10 57q36 44 110.5 133.5t110.5 133.5q15 20 15.5 31.5t-13.5 33.5q-7 10 -82 125q-15 20 -23.5 30.5t-25 23t-30.5 12.5q-41 0 -63.5 -38.5t-22.5 -90.5q0 -31 15.5 -51.5t47.5 -20.5 q18 0 30.5 -9t12.5 -22q0 -17 -16.5 -27t-44.5 -10q-51 0 -82 35.5t-31 89.5q0 80 44.5 148.5t115.5 68.5q51 0 90 -39q21 -20 38.5 -44.5t39 -60.5t30.5 -50q3 -4 14 -22.5t17 -26.5q166 220 301 313q24 13 38.5 9.5t16.5 -15.5q3 -14 -4.5 -26.5t-13.5 -17t-27 -18.5 q-49 -33 -132.5 -126.5t-147.5 -178.5q14 -24 48.5 -91.5t55.5 -100.5q29 -47 52 -71t47 -24q34 0 77 45.5t62 92.5q17 38 39 30q16 -8 16.5 -23t-6.5 -26q-28 -69 -85 -126.5t-114 -57.5q-36 0 -75.5 32t-69.5 89q-11 19 -98 166z" />
<glyph unicode="Y" horiz-adv-x="696" d="M489 158q-54 -70 -110 -110t-127 -40q-61 0 -98 37.5t-37 101.5q0 17 2 35.5t4.5 32t8 34.5t8.5 31t10.5 34t9.5 32q4 11 14 41.5t14.5 46t10.5 40t8 45t0 40.5q0 54 -53 57q-37 3 -61 -16.5t-23 -52.5q0 -16 22 -25.5t45 0.5q24 10 35 -18q11 -26 -18.5 -39.5 t-63.5 -13.5t-61 24t-27 57q-5 59 54 109t126 43q42 -4 69 -39t25 -74q-1 -73 -42 -206t-41 -185q0 -40 26 -68t60 -28q35 0 69.5 19.5t61.5 51.5t46.5 63t35.5 65q32 69 26 75q5 150 31.5 227.5t71.5 67.5q28 -6 30.5 -53t-13 -106t-33 -110t-30.5 -75q-3 -6 -10 -55 t-15 -116t-13 -95q86 42 149 170q8 15 19.5 21t23.5 -1q11 -6 6 -26q-16 -58 -68 -125t-112 -96q-41 -20 -41 -23q-6 -75 -38.5 -148.5t-92.5 -126.5t-133 -53q-51 0 -89 27.5t-38 75.5q0 41 26.5 81t68.5 71.5t84 55t83 38.5q43 15 69 48.5t29 78.5q0 8 2.5 23.5t3.5 23.5z M442 -61q-4 -2 -43.5 -21.5t-63.5 -33t-57 -35.5t-50 -44t-17 -43q0 -22 14 -32.5t35 -10.5q69 0 124.5 76.5t57.5 143.5z" />
<glyph unicode="Z" d="M649 551q-59 4 -194 30.5t-203 26.5q-77 0 -122.5 -26t-45.5 -82q0 -33 21.5 -54.5t56.5 -21.5q26 0 50.5 9t52.5 26t34 20q15 7 31 0.5t22 -20.5q9 -20 -24 -49q-31 -26 -84.5 -46t-100.5 -20q-63 0 -101 38t-38 103q0 90 66 143.5t163 53.5q85 0 237 -27.5t226 -27.5 q5 0 17.5 13t27.5 29t39 29t49 13t38.5 -14.5t13.5 -37.5q0 -26 -29 -49.5t-61 -34.5q-56 -20 -97 -65q-58 -62 -172 -197t-172 -196q65 -26 158.5 -47t157.5 -21q67 0 112.5 19.5t69.5 47t53 79.5q18 31 36 45.5t28 3.5q7 -6 4.5 -25.5t-13.5 -38.5q-44 -98 -114.5 -146.5 t-173.5 -53.5q-41 0 -77.5 3t-80 12.5t-60.5 14t-73 21t-64 18.5q-20 5 -75 -43q-55 -47 -97 -47q-33 0 -55.5 23.5t-22.5 62.5q0 55 38.5 71.5t115.5 6.5q42 -8 88 45q53 57 169 188.5t175 194.5z" />
<glyph unicode="[" horiz-adv-x="270" d="M98 -160q122 -6 154 -2q23 3 32 -4t9 -29t-12.5 -30t-40.5 -8h-142q-29 0 -43 18t-12 47q26 545 61 846q10 88 164 88q24 0 33.5 -7.5t9.5 -27.5q0 -28 -15 -35.5t-46 -7.5q-77 0 -80 -22q-7 -35 -11.5 -68t-8.5 -74.5t-6 -63.5t-6 -79t-5 -76q-35 -449 -35 -465z" />
<glyph unicode="\" horiz-adv-x="448" d="M395 4q-12 -16 -30.5 -14t-28.5 22q-231 463 -301 598q-10 30 6 52q15 17 31.5 14t27.5 -23q6 -12 6 -14q66 -163 216 -446q11 -21 79 -134q16 -24 -6 -55z" />
<glyph unicode="]" horiz-adv-x="290" d="M193 631q-122 6 -154 2q-23 -3 -32 4t-9 29t12.5 30.5t40.5 8.5h142q29 0 43 -18t12 -48q-25 -530 -62 -846q-10 -88 -163 -88q-24 0 -33.5 7.5t-9.5 27.5q0 28 15 35.5t46 7.5q77 0 80 22q7 35 11.5 68t8.5 74.5t6 63.5t6 79t5 76q35 449 35 465z" />
<glyph unicode="^" horiz-adv-x="270" d="M260 479q0 -10 -11 -18t-22 -8q-39 0 -77 49q-20 26 -44 2q-45 -49 -73 -49q-25 0 -30 19.5t22 41.5q37 30 75 57q17 15 31 15t31 -15q46 -28 71 -53q27 -23 27 -41z" />
<glyph unicode="_" horiz-adv-x="565" d="M125 -14q-19 0 -33.5 12t-11.5 29q1 11 19 17.5t36 6.5q27 -1 174.5 -1t173.5 -1q16 0 29.5 -10t13.5 -23q0 -11 -13 -20t-30 -10q-23 -2 -99.5 -2t-164.5 1t-94 1z" />
<glyph unicode="`" horiz-adv-x="419" d="M313 483q8 -31 -7 -31q-14 0 -99 46l-8 4l-70 35q-23 13 -26 23q-2 8 1 18q3 13 21 18.5t33 -0.5q9 -4 25.5 -12.5t19.5 -10.5q103 -56 110 -90z" />
<glyph unicode="a" horiz-adv-x="458" d="M236 59q-16 -28 -54 -44.5t-73 -16.5q-52 0 -92 44.5t-40 107.5q0 95 48.5 158t140.5 63q63 0 131 -33q36 -15 25 -47q-4 -12 -21 -12.5t-37 8.5q-39 17 -53 22q-24 6 -49 6q-50 0 -81.5 -45.5t-31.5 -101.5q0 -44 20 -72t52 -28q33 0 59.5 29.5t26.5 68.5q0 33 2 49 q7 43 39 45q19 2 38 -12.5t23 -34.5q3 -16 -10.5 -41.5t-15.5 -32.5q-8 -26 4 -52t35 -26q25 0 55.5 35.5t48.5 67.5q2 3 7 13.5t7 14.5t7 12t9 11t9 6.5t10.5 3t11.5 -3.5q17 -6 -6 -59q-31 -72 -78.5 -120t-97.5 -48q-56 0 -69 65z" />
<glyph unicode="b" horiz-adv-x="485" d="M66 344v2q22 207 84 318q31 61 79 61q30 0 50 -37t20 -74q0 -129 -121 -333q-49 -82 -37 -166q5 -28 24.5 -51t39.5 -23q25 0 49 18t35 37q-33 25 -52 70t-16 82q4 47 27.5 85.5t64.5 35.5q43 -3 62.5 -39t19.5 -86q0 -65 -20 -109q1 0 3 -0.5t6 -1t9 -0.5q12 1 23 6.5 t21 17.5t15.5 19t15.5 24t11 19q17 28 39 17q8 -4 8 -18.5t-6 -27.5q-20 -44 -58 -80t-79 -36q-17 0 -33 4q-19 -38 -65 -70.5t-95 -32.5q-31 -1 -54.5 9.5t-37 32t-22 42.5t-12 52t-4.5 50t-1 46v14q-12 -16 -24 -41q-37 -60 -58 -41q-17 17 5 58q9 18 42.5 74t41.5 73z M215 641q-18 -24 -33.5 -75.5t-22.5 -87.5t-17.5 -103t-10.5 -68q47 54 83.5 187.5t0.5 146.5zM315 150q11 19 15.5 57t1.5 61q-2 14 -8.5 26.5t-16.5 12.5q-12 0 -21.5 -17t-9.5 -42q0 -63 39 -98z" />
<glyph unicode="c" horiz-adv-x="333" d="M172 356q-49 0 -82 -52.5t-33 -108.5q0 -31 6.5 -58t25.5 -48t48 -21q44 0 86.5 29.5t67.5 66.5q36 56 49 69q10 12 23.5 8.5t13.5 -22.5q2 -7 -3.5 -19.5t-15 -28t-10.5 -17.5q-31 -58 -93 -107t-124 -49q-73 0 -110 56.5t-37 131.5q0 100 50 163t120 63q31 0 58 -15 t42 -41q24 -41 6 -76.5t-65 -35.5q-20 -2 -33.5 14.5t-9.5 36.5q11 39 20 61z" />
<glyph unicode="d" horiz-adv-x="448" d="M336 68q5 0 12 6t14.5 17t13.5 19.5t13 20.5t8 14q29 57 44 76.5t34 16.5q11 -2 12.5 -14.5t-2 -23.5t-8.5 -20l-21 -42t-26 -45.5t-34.5 -50.5t-37 -32.5t-43.5 -15.5q-38 0 -59 47q-5 9 -11.5 27.5t-8.5 23.5q-31 -34 -72.5 -62t-75.5 -28q-33 -1 -56 10.5t-35 33.5 t-17 46t-5 53q0 85 60 157t137 69q16 0 51 -13q9 203 78 283q36 43 76 31q43 -11 43 -80q0 -68 -20 -150.5t-56 -154.5q-8 -18 -26 -51t-21 -39q-12 -25 3 -77t36 -52zM215 285q-35 24 -61 24q-50 0 -79.5 -53t-29.5 -104q0 -33 14 -58.5t39 -25.5q32 1 68 33t51 65q2 4 3 9 t1.5 12t0.5 12.5t-0.5 16t-1 17.5t-1.5 22t-2 24q0 1 -1 3t-1 3zM287 307q74 173 63 281q-25 -28 -44 -119.5t-19 -161.5z" />
<glyph unicode="e" horiz-adv-x="346" d="M61 141q1 -39 25.5 -60.5t60.5 -21.5q33 0 61.5 14t52.5 41t39 48.5t34 54.5t39 23q25 -8 2 -60q-88 -183 -242 -186q-67 0 -106 48t-39 116q0 63 16.5 117.5t58 94.5t101.5 40q45 0 81 -28t36 -69q0 -73 -73.5 -122.5t-146.5 -49.5zM59 203q6 1 18.5 2t18.5 2t16 3 t19.5 5.5t20.5 9.5q23 12 38 34t15 44q0 23 -12.5 37t-34.5 14q-47 0 -74 -51.5t-25 -99.5z" />
<glyph unicode="f" horiz-adv-x="307" d="M135 170q9 -10 30.5 -18.5t35.5 -8.5q45 0 98 80q23 37 43 27q11 -7 12.5 -17t-1 -17t-9.5 -19q-27 -56 -78 -91.5t-94 -15.5q21 -38 21 -162q0 -53 -10 -111t-38 -108.5t-69 -50.5q-37 0 -53.5 41t-16.5 100q0 35 25 215l7 52q8 51 13.5 101.5t1.5 53.5q-23 -45 -30 -55 q-13 -18 -31 -20t-22 12t12 41q19 28 43.5 72.5t31.5 64.5q6 15 6 43q1 48 7.5 94.5t21.5 100.5t47.5 87t77.5 33q34 0 56 -31t22 -71q0 -179 -160 -354q-5 -6 0 -68zM207 618q-12 -2 -24 -14.5t-19 -34.5q-10 -30 -19.5 -99t-9.5 -138q38 43 65 110t29 121q0 55 -22 55z M100 86q-30 -117 -30 -279q0 -31 5.5 -56t12.5 -25q14 0 25.5 85t11.5 148q0 24 -7.5 63.5t-17.5 63.5z" />
<glyph unicode="g" horiz-adv-x="442" d="M305 45q10 6 20 14.5t21 21.5t18.5 22.5t18.5 27t15.5 24t15.5 25.5t12 21q21 34 41 26q14 -7 14.5 -23.5t-8.5 -27.5q-95 -154 -170 -199q-4 -4 -4 -45q0 -76 -37 -131t-98 -55q-39 0 -67 30.5t-25 69.5q4 49 54.5 93.5t111.5 70.5l1 10q1 10 1.5 17t-0.5 10 q-60 -49 -111 -49q-68 0 -107.5 40.5t-39.5 115.5q0 93 58 160t150 67q69 0 124 -31t38 -63q-19 -30 -47 -13q-75 43 -117 43q-55 0 -97 -46.5t-42 -104.5q0 -47 28 -76t64 -29q34 0 63.5 21.5t43.5 54.5q0 2 5 35t11 41q12 22 30.5 27t35.5 -9q16 -11 18.5 -28.5 t-10.5 -36.5l-27 -47q-2 -4 -3 -34t-3 -40zM172 -201q25 0 40.5 31.5t20.5 73.5q3 12 3 47q-32 -10 -62 -38.5t-35 -51.5q-5 -24 5 -43t28 -19z" />
<glyph unicode="h" horiz-adv-x="565" d="M66 334q2 4 4.5 8.5t4 7t3.5 4.5v19q0 55 9.5 114.5t27.5 115.5t50.5 92t74.5 36q31 0 44 -31t13 -69q0 -78 -42 -176.5t-95 -161.5q-10 -13 -10 -74q73 148 163 148q57 0 79 -43.5t22 -120.5q0 -18 -0.5 -46.5t-0.5 -42t1 -29.5t5.5 -22t12.5 -6q29 0 100 121 q2 3 6.5 11.5t7.5 13t8.5 12.5t9 10t10.5 5t12 -1q11 -4 15 -11.5t0 -20.5t-11.5 -27t-22.5 -37q-40 -68 -74.5 -104.5t-70.5 -36.5q-20 0 -34.5 6.5t-23 22t-14 29.5t-7.5 41.5t-2.5 45t-0.5 51.5v20q0 27 -0.5 39.5t-4 28t-12.5 21.5t-24 6q-10 0 -20 -4t-20 -13 t-18 -18.5t-17 -24t-15.5 -26t-14.5 -28.5t-12.5 -27t-12 -27t-9.5 -22q-15 -34 -15 -64q0 -38 -28 -55q-54 -23 -54 39q0 15 2 45.5t4.5 75t4.5 75.5q-9 -14 -21.5 -28.5t-15.5 -20.5q-2 -3 -7 -11t-8 -13t-8.5 -10.5t-10 -8t-11 -2t-12.5 5.5q-9 9 -9.5 21.5t2.5 18.5 t11 20q5 7 25 37.5t35.5 56t21.5 39.5zM227 672q-11 -9 -20 -24.5t-15.5 -38.5t-11 -42.5t-8.5 -50.5t-6 -47t-4.5 -48.5t-3.5 -39.5q36 44 61.5 140.5t7.5 150.5z" />
<glyph unicode="i" horiz-adv-x="294" d="M35 193q-21 -43 -45 -43q-13 0 -13.5 18.5t11.5 46.5q27 61 73 119q10 16 27 27t33 10q22 -2 38 -15t15 -32q-2 -22 -11 -90t-9 -103q0 -67 6 -75q3 -3 6 -3q5 0 10 2.5t10.5 7t11 10t11.5 13.5l10.5 14t10.5 15t9 14.5t8.5 14t6.5 10.5q54 94 74 94q11 0 15.5 -6.5 t3.5 -16.5t-4.5 -19.5t-8.5 -19.5q-102 -202 -182 -202q-34 0 -52 28.5t-18 77.5q0 30 1.5 54t4.5 54t4 48q0 3 1.5 12.5t1.5 15t-3 5.5q-11 0 -57 -86zM111 442q-25 -6 -44 6t-24 35q-6 27 9.5 54.5t39.5 31.5q20 5 41 -9.5t27 -37.5q3 -24 -13.5 -49.5t-35.5 -30.5z" />
<glyph unicode="j" horiz-adv-x="264" d="M117 291q-23 -10 -76 -96q-4 -5 -13 -19t-13 -19.5t-11.5 -13.5t-13.5 -10.5t-13 -1.5q-30 6 -2 57q10 21 41 72q57 92 113 92q61 0 61 -119q0 -24 -3 -65.5t-3 -50.5l74 102q8 12 14 14t19 -4q21 -13 8 -43q-12 -23 -47 -73q-13 -19 -34 -42.5t-25 -27.5q-2 -2 -6 -7 t-4.5 -6t-3 -4.5t-3 -5t-1.5 -5.5t-1.5 -7.5t-1.5 -9.5q-21 -114 -51 -225q-21 -80 -64 -135.5t-92 -55.5q-40 0 -60 35t-20 84q0 60 30 123t62 101.5t82 90.5q34 34 47 59t13 66v54q0 9 -1 45.5t-1 50.5zM104 -18q-121 -145 -149 -228q-10 -25 -7.5 -58.5t23.5 -41.5 q46 9 88.5 119t44.5 209zM82 541q0 21 15.5 38t39.5 17t40 -16.5t16 -38.5q0 -25 -16.5 -40.5t-41.5 -15.5q-24 0 -38.5 17t-14.5 39z" />
<glyph unicode="k" horiz-adv-x="561" d="M432 59q53 42 111 142q20 46 51 32q22 -15 -8 -63q-73 -122 -131 -160q-48 -30 -78 -2q-7 6 -23.5 25t-19.5 22q-14 15 -18 15.5t-35 -11.5q-32 -12 -56 11t-18 67q7 46 49 66.5t82 -17.5l18 -22q21 28 21 88q0 63 -39 63q-50 0 -114 -84t-81 -137q-7 -19 -12 -63 q-1 -5 -1 -16.5t-1 -16.5q-3 -47 -33 -47q-22 1 -34.5 15.5t-12.5 35.5q0 11 10 78q15 73 15 149q-9 -14 -21.5 -28.5t-15.5 -20.5q-2 -3 -7 -11t-8 -13t-8.5 -10.5t-10 -8t-11 -2t-12.5 5.5q-9 9 -9.5 21.5t2.5 18.5t11 20q71 115 84 143q5 14 6 27q2 39 4 108.5t4 108.5 q16 250 117 250q25 0 42.5 -13t26 -34t12 -41.5t3.5 -42.5q0 -52 -9.5 -100.5t-32.5 -101t-39 -83t-50 -90.5q-3 -5 -8.5 -56.5t-4.5 -78.5q31 62 92.5 123t112.5 61q35 0 63.5 -27t32.5 -69q3 -37 -7.5 -81.5t-29.5 -66.5q-4 -6 -9.5 -11t-8 -7.5t-2.5 -3.5q18 -29 49 -56z M193 756q-10 -5 -18 -23t-13.5 -48.5t-8.5 -51t-6.5 -57t-3.5 -39.5q-4 -37 -8 -103q35 52 57.5 130t24.5 122q5 70 -24 70zM268 150q-6 -9 -3.5 -22.5t11.5 -14.5q18 -3 37 16q-4 19 -20 26t-25 -5z" />
<glyph unicode="l" horiz-adv-x="305" d="M160 -16q-25 0 -44 11t-29.5 31t-17 41.5t-8.5 50t-2 47.5t1 43.5t1 29.5q-1 -1 -14 -26.5t-20 -35.5q-9 -14 -20.5 -20.5t-24.5 0.5q-16 16 8 61q8 14 24 42.5t25.5 45t17.5 36.5t9 32q5 89 24.5 184t55.5 169.5t77 74.5q21 0 35.5 -15t21 -38.5t9 -42.5t2.5 -37 q0 -88 -38.5 -191.5t-92.5 -173.5q-17 -23 -19 -39q-2 -23 -3.5 -69.5t8.5 -93t30 -46.5q11 0 29 19t32 40.5t31 49t21 33.5q3 4 11.5 19.5t17 24.5t18.5 9q7 0 13 -7.5t3 -19.5q-6 -25 -16 -47q-35 -73 -83 -132.5t-93 -59.5zM141 385q72 124 80 231q2 13 0.5 53.5 t-8.5 53.5q-22 -30 -38 -100.5t-21 -113t-13 -124.5z" />
<glyph unicode="m" horiz-adv-x="765" d="M645 66q21 0 50 39t53 83q16 31 28 44.5t21 7.5q25 -17 -9 -86q-61 -115 -106 -148q-52 -32 -92.5 1.5t-40.5 103.5q0 27 16 110q12 53 -6 53q-12 0 -35 -31.5t-41 -64.5q-60 -106 -82 -153q-20 -42 -53 -29q-43 16 -37 65q13 195 -8 195q-10 0 -26.5 -21t-35.5 -55.5 t-34.5 -65t-31 -62.5t-17.5 -36q-15 -30 -35 -26q-1 0 -6.5 2t-7 2t-6 2t-6 3t-5 3t-5 4t-3.5 5t-3 6.5t-1 7.5q-3 21 0 43q18 91 22 120q7 56 7 78q-8 2 -18 -8.5t-33 -44t-35 -49.5q-16 -19 -33 -10q-23 11 -8 41q88 159 129 159q15 0 26 -7t17.5 -20.5t10.5 -26.5 t5.5 -33.5t2 -31.5t0 -30t-0.5 -21q1 3 23 33l14 21q14 20 18 25t17 22.5t21 24.5t20.5 17.5t24 14.5t22.5 4q71 0 53 -221q6 10 21.5 40.5t19.5 35.5q30 45 42 62.5t34.5 45t40 37.5t35.5 10q27 0 44 -21.5t17 -47.5q0 -19 -8 -71t-10 -75q-2 -26 -1.5 -43t6.5 -24.5 t19 -7.5z" />
<glyph unicode="n" horiz-adv-x="526" d="M334 354q27 0 44 -21.5t17 -47.5q0 -19 -8 -71t-10 -75q-3 -42 2 -59t24 -17q33 0 99 123q15 29 29.5 43.5t23.5 8.5q13 -9 11 -28.5t-21 -57.5q-61 -114 -107 -148q-52 -32 -92.5 1.5t-40.5 103.5q0 22 17 110q4 13 3 33t-10 20q-12 0 -34.5 -31t-40.5 -65 q-17 -30 -48.5 -94.5t-33.5 -67.5q-15 -30 -35 -26q-1 0 -6.5 2t-7 2t-6 2t-6 3t-5 3t-5 4t-3.5 5t-3 6.5t-1 7.5q-3 21 0 43q18 91 22 120q7 56 7 78q-8 2 -18 -8.5t-33 -44t-35 -49.5q-16 -19 -33 -10q-24 12 -10 41q88 159 131 159q15 0 26 -7t17.5 -21t10.5 -27.5 t5.5 -34.5t2 -32t0 -30.5t-0.5 -21.5l23 41q77 135 139 135z" />
<glyph unicode="o" horiz-adv-x="536" d="M432 131q43 0 72 47q21 31 34 41t29 2q19 -11 -6 -53q-55 -98 -135 -98q-33 0 -57 12q-66 -88 -179 -88q-90 0 -145 51.5t-55 138.5q0 91 57.5 148t145.5 59q45 0 67.5 -17t18.5 -50q34 9 61 2q39 -9 61 -45t15 -82q-7 -38 -17 -64q10 -4 33 -4zM244 299q-14 25 -66 25 q-40 0 -77.5 -45t-37.5 -95q0 -55 33.5 -90t89.5 -35q39 0 75.5 18.5t45.5 47.5q-59 34 -76 80t13 94zM338 172q12 25 8 59q-1 15 -10.5 26t-18.5 11q-26 0 -26 -37t47 -59z" />
<glyph unicode="p" horiz-adv-x="593" d="M98 291q-2 0 -9.5 -13t-18 -31.5t-13.5 -23.5q-28 -50 -39 -63q-13 -14 -25 -8.5t-13 28.5q0 22 14 43q76 168 129 168q19 0 32 -17t13 -34q0 -38 -6 -72q-8 -53 -6 -78q33 87 93.5 151.5t121.5 64.5q51 0 89.5 -37.5t41.5 -87.5q10 -110 -49 -191q65 20 133 129 q11 19 18 21.5t17 -13.5q16 -21 -5 -59q-40 -81 -127 -128.5t-178 -47.5q-82 0 -135 26q-23 -57 -35 -166t-2 -167q4 -24 -8 -39t-33 -15q-44 3 -41 58q11 138 21 297l8 133q0 6 2.5 41.5t5.5 79.5t4 51zM436 244q0 96 -71 96q-51 0 -98.5 -78t-57.5 -137q-2 -8 1 -22.5 t7 -18.5q34 -28 85.5 -22t80.5 40q53 67 53 142z" />
<glyph unicode="q" horiz-adv-x="440" d="M197 25q-9 -3 -30 -12.5t-37 -13t-42 -3.5q-51 0 -83 38t-32 95q0 103 73 179.5t173 76.5q55 0 98 -43q55 -55 19 -125l-39 -84q-25 -54 -45 -215q29 60 85 152.5t97 152.5q22 30 37 25q36 -12 -8 -86q-12 -19 -61 -95t-68 -112q-75 -144 -98 -260q-6 -28 -15 -38t-24 -7 q-38 6 -31 57l33 309q0 2 -1 5t-1 4zM43 143q3 -35 20.5 -57.5t45.5 -22.5q36 3 71.5 34t48.5 65q5 16 15 49.5t14 46.5q9 35 -4 54t-47 16q-65 -6 -113 -58t-51 -127z" />
<glyph unicode="r" horiz-adv-x="391" d="M227 301q-40 0 -98 -8q-30 -3 -45 -25q-20 -31 -59 -102q-20 -34 -39 -23q-23 13 -4 52l49 94q-35 28 -35 73q0 42 39.5 93t70.5 51q18 0 27 -9t8.5 -25t-4 -32t-12 -35.5t-14 -30.5t-11.5 -22q77 15 131 15q38 0 54.5 -16t13.5 -52q-5 -36 -18 -70q-11 -30 -19.5 -57.5 t-14 -55t-2.5 -43.5t15 -16q18 0 70 70q40 68 47 82q15 24 35 10q10 -7 10 -33q-2 -14 -23 -53q-49 -87 -92 -123q-23 -20 -53 -20q-36 0 -60 26.5t-24 61.5q0 65 33 155q1 4 6.5 17.5t10.5 27.5t7 23z" />
<glyph unicode="s" horiz-adv-x="450" d="M332 92q60 22 114 127q6 14 16.5 24.5t22.5 6.5q12 -5 13.5 -15.5t-2.5 -21.5q-10 -35 -23 -55q-49 -74 -118 -116.5t-146 -47.5q-95 -3 -148 47q-32 32 -8 63q15 19 28.5 18.5t33.5 -20.5q41 -41 71 -41q40 0 65 28.5t25 66.5q0 66 -149 182q-7 -15 -88 -148 q-19 -34 -43 -18q-20 10 2 53l65 125q13 25 13 27q-2 3 -13 21t-16 30q-24 44 4 90q10 17 31.5 25.5t42.5 3.5q21 -3 36 -19.5t15 -40.5q0 -16 -2.5 -27.5t-7.5 -24.5t-6 -17l-3 -7.5t-0.5 -5.5t0.5 -4t3 -3.5t5 -4t7.5 -5t9.5 -5.5q53 -37 109 -96q31 -31 45 -60.5 t14 -74.5q0 -35 -18 -60z" />
<glyph unicode="t" horiz-adv-x="315" d="M100 612q5 25 20.5 38.5t29.5 13.5q20 0 22 -25t-6 -59q-13 -67 -16 -146q14 0 38 1q24 2 43 1.5t31.5 -2.5t18.5 -8.5t4 -17.5q-3 -17 -16.5 -25t-28.5 -8q-14 -1 -31 -1h-24.5t-17.5 -1.5t-13.5 -5.5t-8 -11.5t-6.5 -19t-4 -29.5q-2 -25 -4 -58t-2.5 -80.5t7 -79.5 t22.5 -32q31 0 68.5 39t68.5 103q11 25 21 35.5t24 9.5q34 -2 12 -58q-25 -64 -89.5 -132t-119.5 -68q-32 0 -51.5 20t-25.5 55.5t-7 64.5t1.5 68.5t2.5 45.5l-34 -64q-13 -30 -37 -20q-21 14 0 61q6 13 29 50.5t32 56.5q3 6 10 19.5t9 21.5q-20 0 -33.5 2t-24.5 10.5 t-10 23.5q1 18 12 26.5t26.5 7.5t31.5 -1q4 82 26 178z" />
<glyph unicode="u" horiz-adv-x="618" d="M344 51q-17 -33 -53.5 -57.5t-83.5 -24.5q-54 0 -91.5 36.5t-37.5 84.5q0 58 13 113.5t24 70.5q-5 0 -17.5 -9t-31 -32t-31.5 -53q-8 -19 -21.5 -27.5t-23.5 -5.5q-24 12 -8 54q35 71 74 110t73 39q26 0 39.5 -15.5t13.5 -37.5q0 -28 -14 -90.5t-14 -97.5q0 -30 19.5 -50 t45.5 -20q53 0 81 52.5t28 121.5q0 21 3 43.5t10.5 47t23 40.5t36.5 16q52 0 52 -92q0 -38 -43 -102q-15 -22 -15 -41q0 -30 19 -55t47 -25q18 0 36 11.5t35.5 35.5t26 37t23.5 39q4 7 11 20.5t11 20.5t10.5 15t12 11.5t12.5 2.5q30 -2 -4 -78q-28 -70 -73.5 -126.5 t-100.5 -56.5q-33 0 -64.5 21.5t-52.5 52.5z" />
<glyph unicode="v" horiz-adv-x="653" d="M557 137q44 0 70 43q21 31 34 41t29 2q19 -11 -6 -53q-53 -94 -131 -94q-44 0 -94 61q-40 -65 -106 -111t-120 -46q-60 0 -89 50t-29 126q0 43 6 96.5t6 62.5q-4 0 -8 -1.5t-8.5 -5.5t-8.5 -8t-9.5 -12.5t-10 -15.5t-12.5 -20.5t-14 -24.5t-16.5 -29.5t-19.5 -33.5 q-12 -20 -32 -10q-11 6 -13 21.5t5 27.5q30 52 45 77t39.5 59.5t45.5 49t42 14.5q31 0 42 -17t11 -56q0 -12 -8.5 -62t-8.5 -71q0 -142 62 -142q52 0 111 59.5t59 112.5q0 2 -5.5 20.5t-10 45t-1.5 49.5q4 40 27 59t53 17q29 -1 44.5 -28.5t15.5 -57.5q-1 -23 -16 -49.5 t-31 -42.5q0 -16 -7 -41q28 -62 68 -62z" />
<glyph unicode="w" horiz-adv-x="716" d="M211 55q26 0 78 58q6 6 6 10q-8 36 -8 70q0 44 20 76t58 32q27 0 41 -19.5t14 -45.5q0 -56 -47 -103q-10 -11 -1 -34t23 -23q29 0 65 45t36 80q-7 16 -13 28q-14 28 -14 72q0 31 20.5 62.5t47.5 31.5q25 0 40 -26t15 -52q0 -45 -29 -127q26 -37 58 -45q41 -10 71 39 q21 31 33.5 40t28.5 1q19 -11 -6 -53q-27 -49 -68 -73t-78 -15q-33 6 -65 47q-67 -119 -146 -119q-38 0 -72 37q-2 -1 -11.5 -9.5t-12 -10.5t-11 -9t-12 -9t-11.5 -7.5t-12.5 -7.5t-12 -5.5t-13.5 -5t-13.5 -2.5t-14.5 -1q-40 1 -64.5 37.5t-24.5 84.5q0 57 10.5 121.5 t10.5 83.5q-8 2 -23 -20t-39 -61.5t-40 -61.5q-16 -19 -35 -10q-11 6 -12 20.5t6 26.5q39 69 61.5 105t52.5 67t54 31q23 0 37 -21t14 -57q0 -38 -10 -104t-11 -97q0 -72 29 -72z" />
<glyph unicode="x" horiz-adv-x="446" d="M225 227l72 90q25 34 37 39q17 7 37 -8q26 -23 2 -47q-58 -61 -88 -90q-13 -12 -17.5 -17t-10.5 -14t-3.5 -18t10.5 -19q10 -22 70 -82q62 85 90 134q21 35 49 26q8 -3 12 -7.5t3 -12t-4 -14.5t-9 -19q-46 -84 -117 -164q-43 -51 -94 23l-65 90q-51 -46 -97 -92 q-4 -4 -12 -14.5t-14 -14.5q-24 -24 -49 -2q-11 9 -9 24t15 27l104 96q31 25 17 60q-2 5 -25.5 40.5t-28.5 51.5q-17 -23 -65 -105q-22 -32 -43 -24q-22 11 4 65q38 74 76 121q19 23 48.5 17t41.5 -33q11 -24 33.5 -57.5t29.5 -49.5z" />
<glyph unicode="y" horiz-adv-x="520" d="M309 63q-2 -2 -12 -11t-15.5 -13t-16.5 -12.5t-20 -13t-21 -9.5t-25 -7.5t-27 -2.5q-44 0 -72 29t-28 81q0 59 26 191q-5 -4 -17.5 -26t-30 -56t-21.5 -41q-9 -18 -27 -18t-21.5 20.5t9.5 40.5q53 109 92 160q17 22 49 22q17 -1 26.5 -14.5t11 -27.5t1.5 -36 q0 -19 -11.5 -94t-11.5 -106q0 -22 13 -37.5t33 -15.5q35 0 70.5 25.5t55.5 60.5q3 6 8.5 38.5t11.5 75.5t11 64q8 42 24 61t42 12q39 -13 39 -63q0 -40 -18.5 -93t-49.5 -97q-8 -8 -20 -103q12 8 32 31t51 62.5t37 47.5q12 14 26 33.5t22 28.5q19 22 38 6q21 -21 -32 -90 q-32 -41 -100.5 -116t-86.5 -101q-5 -8 -8.5 -16t-5.5 -13.5t-3 -16t-1.5 -16t-1.5 -21.5t-2 -24q-6 -89 -56.5 -156t-117.5 -67q-37 1 -59.5 25t-22.5 61q0 46 41 107.5t82 97.5q9 8 34 28t35 30t22 26.5t15 32.5l2 15q2 15 2 21zM143 -315q55 -6 96.5 62t41.5 153 q-57 -36 -97.5 -97.5t-40.5 -117.5z" />
<glyph unicode="z" horiz-adv-x="413" d="M242 51q-102 0 -156 -51q-15 -13 -34.5 -11.5t-33.5 15.5q-22 26 26 73l3 3q27 26 57 56t66.5 67t56.5 57q29 29 47 53q-22 11 -84 11q-42 0 -55 -4t-31 -27q-14 -19 -33.5 -50.5t-33.5 -49.5q-2 -2 -7.5 -9.5t-8.5 -11t-8.5 -7.5t-10.5 -5q-21 -4 -25 9.5t9 35.5 q8 15 28 54t36 64.5t36 49.5q14 16 76 16q20 0 58 1t54 1q125 0 62 -104q-19 -33 -46.5 -64t-63 -64.5t-52.5 -52.5q71 8 113 5q15 -3 30 6q55 55 84 94l17 25q11 14 15.5 16.5t21.5 -2.5q11 -6 12.5 -15.5t-1 -16.5t-9.5 -21q-7 -11 -24 -33t-23 -31q-10 -13 -31.5 -36 t-35.5 -39.5t-13 -20.5q31 -120 -68 -285q-34 -56 -82.5 -91.5t-101.5 -35.5q-34 0 -57 29t-23 63q0 65 86.5 171.5t157.5 162.5zM266 -8q-63 -46 -124.5 -121t-71.5 -131q-6 -43 28 -43q49 0 111 94q70 114 57 201z" />
<glyph unicode="{" horiz-adv-x="225" d="M133 494q4 -22 33 -107q10 -29 13.5 -43t0 -35t-21.5 -33q-33 -20 -8 -45q14 -14 18.5 -32.5t2.5 -33t-7 -41t-6 -40.5q-3 -24 -9 -66t-10 -76.5t-4 -66.5q0 -20 7.5 -38.5t21.5 -18.5q12 0 27 12.5t21.5 18t18.5 -4.5q14 -17 5 -47q-6 -20 -34.5 -37.5t-51.5 -17.5 q-33 0 -52 27.5t-22.5 58.5t0.5 59q1 10 7 52.5t10 82t4.5 82.5t-10 69t-32.5 26q-27 0 -41 8t-14 33q0 22 13 37.5t26 19.5q41 13 50 37.5t-5 66.5q-53 201 -12 340q17 64 82 64q17 0 29 -1t26.5 -5t21 -14t2.5 -25q-3 -15 -17.5 -23.5t-29.5 -3.5q-27 9 -43 -4 q-11 -9 -16.5 -25.5t-5.5 -45t1 -47.5t5.5 -60.5t5.5 -56.5z" />
<glyph unicode="|" horiz-adv-x="165" d="M37 -8q0 71 3 244t3 258v202q0 38 12 62q7 11 20.5 14t22.5 -4q19 -13 19 -45q0 -26 -2 -95.5t-2 -103.5q-2 -91 -2 -532q0 -55 -37 -55t-37 55z" />
<glyph unicode="}" horiz-adv-x="225" d="M129 51q-4 21 -33 107q-10 30 -13.5 43.5t0 34t21.5 32.5q34 20 9 45q-14 14 -18.5 33t-3 33t6.5 41.5t6 40.5q3 24 9 66t10 76.5t4 66.5q0 20 -7.5 38.5t-21.5 18.5q-12 0 -27 -12.5t-21.5 -18.5t-18.5 4q-13 16 -4 48q6 20 34.5 37.5t51.5 17.5q25 0 42.5 -16t23.5 -39 t8.5 -48t-1.5 -43q-1 -10 -7 -52.5t-10 -82t-4.5 -82t10 -68.5t32.5 -26q27 0 41 -8t14 -33q0 -22 -13 -37.5t-26 -19.5q-41 -13 -50 -38t5 -67q53 -201 12 -340q-17 -63 -81 -63q-24 0 -40 2t-30.5 12.5t-9.5 30.5q3 15 17.5 23.5t29.5 3.5q27 -9 43 4q11 9 16.5 25.5 t5.5 45t-1 47.5t-5.5 60.5t-5.5 56.5z" />
<glyph unicode="~" horiz-adv-x="444" d="M135 604q36 0 93 -40t85 -40q23 0 48 18.5t43.5 30t33.5 0.5q9 -11 6 -28.5t-14 -28.5q-68 -63 -117 -63q-33 -3 -65.5 19t-64.5 45.5t-62 23.5q-48 0 -64 -47q-7 -22 -15 -32t-22 -9q-9 1 -14.5 9.5t-5.5 16.5q0 52 38 88.5t97 36.5z" />
<glyph unicode="&#xa1;" horiz-adv-x="167" d="M104 250q14 76 20.5 128t8.5 64q10 54 43 54q15 0 24.5 -10t8.5 -27q-2 -20 -7 -40.5t-7 -31.5q-32 -222 -41 -291q-5 -20 -6 -48t-1.5 -43t-11 -26.5t-35.5 -11.5q-26 0 -36.5 19.5t-6.5 54.5t12 68.5t19.5 76.5t15.5 64zM188 559q-25 0 -40 14.5t-15 40.5q0 25 19 43.5 t45 18.5t41.5 -17.5t15.5 -40.5q1 -22 -20 -40.5t-46 -18.5z" />
<glyph unicode="&#xa2;" horiz-adv-x="430" d="M184 -8v6q-72 1 -107.5 57t-35.5 131q0 81 39 137t110 76v31q0 36 13 62q7 11 20.5 14t22.5 -4q18 -12 18 -45v-45h10q31 0 58.5 -15t42.5 -41q24 -41 5.5 -76.5t-65.5 -35.5q-8 -1 -11.5 1.5t-3 8.5t1.5 11.5t4.5 15.5t4.5 16q6 19 -3.5 39t-35.5 20h-10 q-6 -264 -6 -276q49 24 78 86q-1 11 14 11q20 -1 23 -18q1 -3 0 -7q-6 -44 -38.5 -81t-76.5 -57q0 -4 1 -11t1 -11q0 -55 -37 -55t-37 55zM115 195q0 -48 16 -85t53 -42q0 8 6 272q-75 -38 -75 -145z" />
<glyph unicode="&#xa3;" horiz-adv-x="413" d="M184 221q6 -26 20 -65t15 -41q7 -18 29 -25q82 -37 137 27q29 33 49 26q16 -7 19 -28.5t-4 -32.5q-22 -49 -75.5 -73t-103.5 -7q-28 12 -52.5 9t-49.5 -25q-38 -32 -88.5 -13t-59.5 70q-5 35 14 60.5t52 25.5q21 0 58 -16h3q-17 49 -38 100l-56 -6q-41 -4 -51 20 q-5 17 8 52q11 31 74 6q-37 87 -37 166q0 109 73.5 190.5t178.5 81.5q79 0 116.5 -44.5t37.5 -119.5q0 -31 -10 -62.5t-19 -48.5t-29 -51q-17 -29 -51 -20q-39 9 -20 49q25 32 41 75.5t16 67.5q1 38 -21.5 59t-62.5 21q-68 0 -118.5 -56t-53.5 -124q-3 -45 10 -98 q17 -64 31 -78q2 -2 4 -3t5.5 -1.5t6.5 -1t9 -0.5h10.5h13.5h16t22 1t23 1q23 2 39.5 -10t16.5 -31q0 -36 -58 -33q-7 1 -38.5 2.5t-51.5 3.5z" />
<glyph unicode="&#xa4;" horiz-adv-x="593" d="M170 455q0 40 12 67l-14 15q-29 33 -35 53q-3 13 4.5 24t18.5 13q20 6 45 -19l32 -33q36 19 80 19q34 0 60 -16l6 6q31 28 53 34q13 3 24 -4t13 -18q6 -21 -18 -45l-27 -29q10 -27 10 -49q0 -49 -24 -86l16 -14q29 -32 35 -54q3 -13 -4.5 -23.5t-18.5 -12.5 q-21 -6 -45 18q-6 4 -12.5 10.5t-14 15t-12.5 13.5q-24 -12 -55 -12q-42 0 -66 16l-18 -18q-33 -29 -53 -35q-13 -3 -24 4t-13 18q-6 21 18 45q10 13 39 37q-12 24 -12 60zM238 461q0 -22 18 -41t41 -19q29 0 50.5 22.5t21.5 49.5q0 22 -16.5 42t-37.5 20q-30 0 -53.5 -22.5 t-23.5 -51.5z" />
<glyph unicode="&#xa5;" horiz-adv-x="458" d="M199 215q-6 17 -8 28q0 3 -3 3q-73 0 -139 8q-2 0 -7 1.5t-7.5 2t-7 2t-7 2.5t-5.5 3.5t-5 5.5t-3 7t-1 9q0 13 9 20.5t15.5 8.5t22.5 3h111q-50 94 -113 275q0 1 -3 12t-3 17q-3 34 25 43q25 8 41 -19q5 -9 14 -35q17 -64 26.5 -95.5t30 -76t49.5 -86.5q21 -30 45 0 q49 63 125 232q22 54 27 63q5 8 16.5 14t18.5 5q9 -1 19.5 -10.5t13.5 -18.5q8 -27 -2 -47q-53 -109 -160 -279h112q29 0 29 -32q0 -11 -5.5 -17t-9.5 -7.5t-16 -4.5q-31 -7 -73 -4q-48 4 -66 -2q-1 -4 -5 -17.5t-4.5 -16t1.5 -7.5q29 -4 125 -4q45 0 39 -43q-6 -33 -39 -29 q-32 1 -139 14q-21 -93 -25 -106q-14 -51 -49 -51q-36 0 -14 106q10 59 4 62q-3 2 -36 2.5t-71.5 0.5t-48.5 1q-41 0 -41 30q-1 17 13 28t36 9q36 -2 148 -10z" />
<glyph unicode="&#xa6;" horiz-adv-x="165" d="M41 455q0 1 1 53.5t1 187.5q0 38 12 62q7 11 20.5 14t22.5 -4q19 -13 19 -45q0 -21 -1 -130t-1 -138q0 -56 -37 -56t-37 56zM41 14q0 1 1 54t1 188q0 37 12 61q7 12 20.5 14.5t22.5 -3.5q19 -13 19 -45q0 -21 -1 -130.5t-1 -138.5q0 -55 -37 -55t-37 55z" />
<glyph unicode="&#xa7;" horiz-adv-x="436" d="M270 47q5 -14 26 -60.5t28 -72.5q18 -77 -25.5 -149.5t-116.5 -79.5q-86 -5 -134.5 35t-45.5 124q0 17 6 29q11 16 21 16q11 0 20 -18q4 -8 14.5 -33.5t18.5 -36.5q35 -60 106 -41q27 6 47.5 31.5t20.5 54.5q0 108 -57 160q-42 40 -66 66.5t-45.5 66.5t-21.5 76 q0 78 27.5 134.5t107.5 103.5l-27 67q-43 108 23 209q28 43 95 58.5t116 -17.5q30 -24 61 -55q18 -21 -6 -45q-22 -19 -41 4l-19 18q-49 49 -116 21q-58 -27 -58 -95q-3 -80 43 -147q5 -8 41 -59t52 -80q29 -53 45 -123q12 -47 -29 -99.5t-86 -52.5q-11 0 -15.5 -1.5 t-6.5 -4.5t-3 -4zM328 211q0 59 -52 125q-25 32 -56.5 31t-53.5 -35q-30 -50 -33 -107q0 -46 49 -78t86 -22q60 29 60 86z" />
<glyph unicode="&#xa8;" horiz-adv-x="262" d="M47 504q-18 -2 -31.5 13t-13.5 36q-1 20 10.5 32.5t32.5 14.5q17 0 33.5 -12t17.5 -27q2 -19 -13.5 -37.5t-35.5 -19.5zM246 555q2 -17 -12 -32.5t-33 -16.5q-17 -1 -31 9.5t-16 25.5q-1 17 13.5 37t29.5 22q19 2 33.5 -11.5t15.5 -33.5z" />
<glyph unicode="&#xa9;" horiz-adv-x="864" d="M102 528q0 151 125 316q53 72 156 93.5t190 -24.5q175 -100 181 -297q0 -18 3.5 -50.5t4 -50t-5.5 -50.5q-1 -4 -5 -19.5t-5.5 -20.5t-5.5 -19.5t-7 -20.5t-8 -18t-10 -19.5t-12 -16.5t-15 -16q-52 -41 -80 -55q-92 -53 -166 -55q-148 -3 -239 96q-65 75 -86 148 q-3 13 -7.5 39.5t-7.5 39.5zM166 545q9 -105 74 -189q75 -96 176 -86q50 3 96 9q73 12 130 76.5t63 140.5q2 32 -12 88.5t-15 81.5q0 36 -12 71q-43 104 -142 129q-79 24 -151.5 0.5t-114.5 -88.5q-29 -42 -63 -127q-7 -20 -16.5 -58t-12.5 -48zM379 578q-3 -50 49 -72 q53 -24 86 6l8 8t10 8q20 10 29 7q17 -10 21 -31q0 -41 -41 -64q-34 -20 -90 -10.5t-93 41.5q-34 30 -45 70.5t6 83.5q22 52 56 92q24 30 67 40t76 -5q20 -8 29 -17q25 -25 6 -43q-6 -6 -18.5 -10.5t-18.5 -1.5q-50 30 -90 -4q-40 -35 -47 -98z" />
<glyph unicode="&#xab;" horiz-adv-x="323" d="M129 70q-12 -2 -27 6.5t-24 21.5q-28 45 -60 125q-11 21 0 43q22 47 84 146q21 37 50 37q24 0 24 -23q0 -20 -72 -123q-23 -37 -23 -59.5t23 -63.5q4 -8 18.5 -30t18.5 -31q22 -46 -12 -49zM256 70q-12 -2 -27 6.5t-24 21.5q-28 45 -60 125q-11 21 0 43q22 47 84 146 q21 37 50 37q24 0 24 -23q0 -20 -72 -123q-23 -37 -23 -59.5t23 -63.5q4 -8 18.5 -30t18.5 -31q22 -46 -12 -49z" />
<glyph unicode="&#xad;" horiz-adv-x="387" d="M125 190q-19 0 -33.5 12t-11.5 29q1 11 19.5 18t35.5 7q26 -1 71.5 -1t72.5 -1q16 0 29.5 -10t13.5 -23q0 -11 -13 -20.5t-30 -10.5q-23 -2 -50.5 -2t-59 1t-44.5 1z" />
<glyph unicode="&#xae;" horiz-adv-x="864" d="M102 528q0 155 125 316q53 72 155 93.5t191 -24.5q176 -101 179 -297q1 -16 5 -50.5t4.5 -50t-5.5 -50.5q-11 -40 -15.5 -56.5t-19 -45.5t-33.5 -48q-52 -41 -80 -55q-92 -53 -166 -55q-148 -3 -239 96q-63 69 -86 148q-7 22 -15 79zM166 545q9 -109 74 -189 q75 -96 176 -86q46 3 96 9q73 12 128.5 76.5t61.5 140.5q3 33 -10 90t-14 80q-4 47 -12 71q-43 104 -142 129q-79 24 -152 0.5t-114 -88.5q-37 -53 -63 -127q-11 -28 -29 -106zM387 528q0 -12 1 -31t1 -26q5 -30 4 -35q-11 -28 -20 -28q-27 5 -33 20q-12 22 -16 61 q-3 108 0 220q0 29 9 38t40 15q69 12 106 4q35 -10 52 -33.5t26 -62.5q16 -69 -39 -101l-18 -20q10 -10 28.5 -32t28.5 -32q28 -24 12 -45q-7 -9 -27 -8.5t-30 10.5q-14 13 -51 54q-28 35 -74 32zM387 610h55q47 0 47 41q1 21 -14 37t-37 19q-48 6 -51 -37q-1 -8 -1 -18 t0.5 -22.5t0.5 -19.5z" />
<glyph unicode="&#xaf;" horiz-adv-x="288" d="M180 510q-16 1 -35 1t-41.5 -0.5t-33.5 -0.5h-25q-24 1 -34.5 11t-8.5 28q0 39 51 39h164q31 0 42 -7.5t11 -31.5q0 -39 -90 -39z" />
<glyph unicode="&#xb0;" horiz-adv-x="276" d="M0 455q0 69 40.5 104t102.5 35q57 0 89 -38.5t32 -82.5q0 -62 -38 -103.5t-97 -41.5q-53 0 -91 35t-38 92zM68 461q0 -22 18 -41t41 -19q29 0 50.5 22.5t21.5 49.5q0 22 -16.5 42t-37.5 20q-30 0 -53.5 -22.5t-23.5 -51.5z" />
<glyph unicode="&#xb4;" horiz-adv-x="395" d="M133 436q-29 0 -29 12q0 13 56 74l9 9q7 8 11 12l53 57q26 26 46 14q12 -7 13.5 -25.5t-9.5 -31.5q-10 -14 -33 -37q-84 -84 -117 -84z" />
<glyph unicode="&#xb5;" horiz-adv-x="638" d="M432 356q25 -12 35 -20q-4 -126 -4 -176q1 -45 12.5 -58.5t56.5 -25.5q8 -27 -16 -51q-34 -30 -61 0q-17 19 -45 63l-20.5 -20.5l-21.5 -21.5t-20.5 -18t-24.5 -16.5t-25 -9t-29 -3.5t-30.5 7.5t-35.5 16.5l-6 -93q-4 -32 -11 -51q-15 -38 -57 -24q-14 3 -21.5 18 t-3.5 33q0 8 5 18q8 13 14 27.5t11 26.5t9 29.5t6.5 27.5t4.5 30t3.5 28t2.5 30.5t1.5 28t1.5 30.5t1 29l4 82q0 27 8 33q16 16 41 20q23 0 23 -33q-4 -94 -4 -141q0 -49 6 -72q11 -31 39.5 -37.5t50.5 17.5q37 46 49 84q25 78 18 135q-3 18 1.5 25.5t31.5 31.5z" />
<glyph unicode="&#xb6;" horiz-adv-x="755" d="M520 653q2 -49 3 -99.5t-0.5 -108.5t-2.5 -96.5t-4 -108t-4 -99.5q-2 -88 -20 -211q-5 -32 -37 -32q-20 0 -29 21t0 36q23 55 25 88q8 57 12 172q3 111 0 225q-4 161 -14 215l-48 -6q0 -169 -2 -241v-56l-18 -307q0 -5 0.5 -19t0.5 -24t-1 -25t-3.5 -25.5t-6.5 -21 t-11.5 -15.5t-17.5 -5q-29 0 -34.5 22.5t11.5 73.5q10 30 13 78l12 199q2 7 -2 32q-240 5 -240 146q0 46 16 83.5t47 65.5t61.5 46.5t74.5 39.5q104 44 209 21q61 -14 111 -64q21 -20 32 -50t6 -52.5t-26 -22.5q-6 0 -12.5 7t-6.5 12q-4 28 -15 47.5t-18.5 25.5t-31 17.5 t-29.5 15.5z" />
<glyph unicode="&#xb7;" horiz-adv-x="327" d="M170 371q25 0 40 -15t15 -41q0 -25 -18.5 -43t-44.5 -18t-42 17t-16 40q-1 22 20 41t46 19z" />
<glyph unicode="&#xb8;" horiz-adv-x="460" d="M305 -182q0 -50 -24.5 -81t-59 -38.5t-69 -3t-56.5 19.5q-6 4 -10 12.5t0 18.5q5 12 19 13t34 -5q1 0 5 -1q18 -2 41.5 -5.5t43 13.5t19.5 55q0 24 -19 40.5t-43 16.5q-20 0 -46.5 -9.5t-41 -8.5t-24.5 22q-14 27 2.5 67.5t73.5 88.5q14 12 37 3q19 -7 8 -20 q-44 -37 -65.5 -68t-12.5 -44q11 -6 15.5 -2.5t27 11t51.5 7.5q41 0 67.5 -30.5t26.5 -71.5z" />
<glyph unicode="&#xba;" horiz-adv-x="276" d="M0 455q0 69 40.5 104t102.5 35q57 0 89 -38.5t32 -82.5q0 -62 -38 -103.5t-97 -41.5q-53 0 -91 35t-38 92zM68 461q0 -22 18 -41t41 -19q29 0 50.5 22.5t21.5 49.5q0 22 -16.5 42t-37.5 20q-30 0 -53.5 -22.5t-23.5 -51.5z" />
<glyph unicode="&#xbb;" horiz-adv-x="333" d="M215 446q12 2 27 -6.5t24 -21.5q28 -45 60 -125q11 -21 0 -43q-22 -47 -84 -146q-20 -36 -49 -36q-25 0 -25 22q0 20 72 123q23 37 23 59.5t-23 63.5q-4 8 -18.5 30t-18.5 31q-22 46 12 49zM88 446q12 2 27 -6.5t24 -21.5q28 -45 60 -125q11 -21 0 -43q-22 -47 -84 -146 q-20 -36 -49 -36q-25 0 -25 22q0 20 72 123q23 37 23 59.5t-23 63.5q-4 8 -18.5 30t-18.5 31q-22 46 12 49z" />
<glyph unicode="&#xbc;" horiz-adv-x="1071" d="M834 180q32 0 46 3.5t38 15.5q51 22 51 -19q0 -7 -3 -13.5t-9.5 -12t-10.5 -8.5t-13.5 -8.5t-10.5 -6.5q-41 -18 -95 -18q-6 0 -6 -58q0 -40 -9 -55.5t-34 -15.5q-45 0 -35 51l15 86q-81 27 -131 4q-7 -3 -32 -15.5t-36 -15.5q-32 -12 -56 2t-24 45q0 30 20 49.5t52 18.5 q61 -4 67 2q35 44 150 205q30 39 51 108q7 19 21.5 34t31.5 15q23 0 35.5 -15.5t12.5 -35.5q0 -19 -8 -33.5t-31 -44.5q-11 -15 -19.5 -57.5t-17 -116.5t-10.5 -90zM764 188q5 38 31 158q-9 -12 -34.5 -44.5t-44.5 -57.5t-26 -39q23 0 74 -17zM281 -8q-21 0 -30.5 16 t-0.5 37q241 493 291 602q17 27 43 27q23 -1 31 -16t-1 -35l-6 -15q-95 -157 -223 -442q-15 -33 -57 -146q-10 -25 -47 -28zM184 406q-40 -15 -49 -15q-33 0 -33 25q0 33 67 59q3 1 5 2q30 13 33 25q29 203 121 203q57 0 57 -64q0 -47 -47 -109q-11 -15 -33.5 -41t-41 -45.5 t-19.5 -21.5q-2 -36 -10 -108t-11 -105q-2 -22 -5.5 -35t-13 -23t-26.5 -10q-18 0 -28 11t-7 32q8 60 24 137t17 83z" />
<glyph unicode="&#xbd;" horiz-adv-x="1126" d="M184 406q-40 -15 -49 -15q-33 0 -33 25q0 33 67 59q3 1 5 2q30 13 33 25q29 203 121 203q57 0 57 -64q0 -47 -47 -109q-11 -15 -33.5 -41t-41 -45.5t-19.5 -21.5q-2 -36 -10 -108t-11 -105q-2 -22 -5.5 -35t-13 -23t-26.5 -10q-18 0 -28 11t-7 32q8 60 24 137t17 83z M287 -8q-21 0 -30.5 16t-0.5 37q241 493 291 602q17 27 43 27q23 -1 31.5 -16t-0.5 -35l-7 -15q-95 -157 -223 -442q-15 -33 -57 -146q-10 -25 -47 -28zM752 96q10 -2 40.5 -10t49 -11t37.5 -3q6 0 11.5 1t11.5 3.5t10 4.5t10 7l9 7.5t9 9t8 8.5t9 10.5t8 9.5q22 23 45 10 q11 -7 12.5 -22t-6.5 -25q-65 -94 -152 -94q-52 0 -98 14l-37 13q-46 21 -74 -11q-14 -16 -38 -30t-44 -13q-33 0 -50 19.5t-17 48.5q0 39 39.5 58.5t85.5 4.5q42 3 84 48l11 11q48 48 74 76t53.5 74t27.5 82q1 33 -19 53.5t-53 20.5q-53 0 -101.5 -33t-48.5 -76 q0 -22 25 -47q19 -22 10 -45q-9 -20 -41 -20q-35 0 -50 26.5t-15 61.5q3 86 76 143.5t157 57.5q52 2 93 -30.5t40 -92.5q-2 -49 -20.5 -95t-53.5 -89.5t-60 -69.5t-68 -66z" />
<glyph unicode="&#xbe;" horiz-adv-x="1343" d="M215 532q37 -23 37 -47q0 -17 -15 -28t-30 -11q-34 0 -48 23.5t-9 54.5q13 70 85 117t136 45q62 0 105.5 -33t43.5 -92q0 -90 -59 -149q51 -28 51 -82q0 -103 -67.5 -171.5t-163.5 -68.5q-38 -2 -78 12.5t-66 40.5q-24 24 -31.5 58.5t5.5 62.5q13 26 41 19q31 -6 22 -37 q-8 -34 26.5 -59t92.5 -25q56 0 93.5 39.5t37.5 91.5q0 29 -12.5 46t-38.5 11q-74 -16 -84 31q-5 27 15.5 36t60.5 9q41 0 60 33.5t19 79.5q0 34 -26 59t-58 25q-98 -3 -145 -91zM557 -8q-21 0 -30.5 16t-0.5 37q241 493 291 602q17 27 43 27q23 -1 31.5 -16t-0.5 -35 l-6 -15q-95 -157 -223 -442q-20 -43 -58 -146q-10 -25 -47 -28zM1106 180q32 0 46 3.5t38 15.5q51 22 51 -19q0 -7 -3 -13.5t-9.5 -12t-10.5 -8.5t-13.5 -8.5t-10.5 -6.5q-41 -18 -94 -18q-6 0 -6 -58q0 -40 -9 -55.5t-34 -15.5q-45 0 -35 51l14 86q-81 27 -131 4 q-7 -3 -32 -15.5t-36 -15.5q-32 -12 -55.5 2t-23.5 45q0 30 19.5 49.5t51.5 18.5q62 -4 68 2q25 32 149 205q32 42 52 108q7 19 21.5 34t31.5 15q23 0 35 -15.5t12 -35.5q0 -19 -8 -33.5t-31 -44.5q-11 -15 -19.5 -57.5t-17 -116.5t-10.5 -90zM1036 188q5 38 31 158 q-8 -11 -34 -44t-44.5 -58t-25.5 -39q22 0 73 -17z" />
<glyph unicode="&#xbf;" horiz-adv-x="366" d="M252 399q-6 -14 -19.5 -32t-25 -30t-33.5 -33t-29 -28q-77 -77 -77 -149q0 -58 30.5 -94t73.5 -39q47 -3 81 16t38 51q7 45 -31 80q-14 14 -16 30t10 28q26 20 57 -4q45 -36 45 -93q0 -79 -56 -126t-144 -42q-78 4 -117 54t-39 131t57 151q28 34 86.5 91t67.5 67 q19 19 37 16q19 -3 4 -45zM246 528q-25 0 -40.5 15t-15.5 41q0 25 19 43t45 18t41.5 -17t15.5 -40q1 -22 -19.5 -41t-45.5 -19z" />
<glyph unicode="&#xc0;" d="M377 256q-25 7 -49.5 -0.5t-38.5 -26.5q-20 -28 -49 -28q-19 0 -23.5 19t6.5 38q45 72 156 72q42 0 43 2q30 72 51.5 117t53 95.5t62.5 78.5t74 46.5t93 18.5q41 0 53 -35q15 -34 -14 -63q-8 -8 -15.5 -17.5t-14.5 -23t-12 -23t-12 -27.5t-10.5 -26.5t-10 -29.5 t-8.5 -27.5t-8.5 -29.5t-7.5 -26q-6 -17 -12 -67q8 -4 24.5 1.5t27 8t20.5 -11.5q7 -21 -8.5 -35.5t-36 -19.5t-37.5 -5q-3 0 -7 -7.5t-7 -20.5t-3 -27q0 -46 19.5 -79.5t60.5 -33.5q11 0 23.5 4t22 8.5t22 15t19.5 16t19.5 20t16 19t16.5 20t13 16.5q14 21 22.5 31.5t24 23 t29.5 13.5q47 2 -23 -96q-30 -42 -48.5 -63.5t-48 -48t-62 -37t-72.5 -9.5q-62 0 -93.5 45.5t-31.5 110.5q0 44 14 75q-30 0 -79.5 11.5t-65.5 11.5h-4t-4 -3t-7.5 -10t-11.5 -20q-49 -91 -126 -160t-157 -69q-67 0 -106 37.5t-39 109.5q0 73 35.5 143.5t97.5 96.5 q28 8 43 8q15 1 25 -7.5t12 -23.5q3 -34 -27 -41q-110 -32 -110 -159q0 -38 22 -64.5t54 -28.5q119 0 225 197zM608 293q50 200 64 246q3 8 8 20.5t12 29.5t10 25q-62 -12 -127 -110t-92 -185q24 -2 64 -14t61 -12zM889 788q8 -31 -7 -31q-14 0 -100 46l-8 4l-69 35 q-23 13 -26 23q-2 8 1 18q3 13 20.5 18.5t32.5 -0.5q4 -1 45 -22q104 -57 111 -91z" />
<glyph unicode="&#xc1;" d="M377 256q-25 7 -49.5 -0.5t-38.5 -26.5q-20 -28 -49 -28q-19 0 -23.5 19t6.5 38q45 72 156 72q42 0 43 2q30 72 51.5 117t53 95.5t62.5 78.5t74 46.5t93 18.5q41 0 53 -35q15 -34 -14 -63q-8 -8 -15.5 -17.5t-14.5 -23t-12 -23t-12 -27.5t-10.5 -26.5t-10 -29.5 t-8.5 -27.5t-8.5 -29.5t-7.5 -26q-6 -17 -12 -67q8 -4 24.5 1.5t27 8t20.5 -11.5q7 -21 -8.5 -35.5t-36 -19.5t-37.5 -5q-3 0 -7 -7.5t-7 -20.5t-3 -27q0 -46 19.5 -79.5t60.5 -33.5q11 0 23.5 4t22 8.5t22 15t19.5 16t19.5 20t16 19t16.5 20t13 16.5q14 21 22.5 31.5t24 23 t29.5 13.5q47 2 -23 -96q-30 -42 -48.5 -63.5t-48 -48t-62 -37t-72.5 -9.5q-62 0 -93.5 45.5t-31.5 110.5q0 44 14 75q-30 0 -79.5 11.5t-65.5 11.5h-4t-4 -3t-7.5 -10t-11.5 -20q-49 -91 -126 -160t-157 -69q-67 0 -106 37.5t-39 109.5q0 73 35.5 143.5t97.5 96.5 q28 8 43 8q15 1 25 -7.5t12 -23.5q3 -34 -27 -41q-110 -32 -110 -159q0 -38 22 -64.5t54 -28.5q119 0 225 197zM608 293q50 200 64 246q3 8 8 20.5t12 29.5t10 25q-62 -12 -127 -110t-92 -185q24 -2 64 -14t61 -12zM723 772q-29 0 -29 12q0 13 56 74l9 9q7 8 11 12l53 57 q26 26 45 14q12 -7 13.5 -25.5t-9.5 -31.5q-13 -18 -32 -37q-84 -84 -117 -84z" />
<glyph unicode="&#xc2;" d="M377 256q-25 7 -49.5 -0.5t-38.5 -26.5q-20 -28 -49 -28q-19 0 -23.5 19t6.5 38q45 72 156 72q42 0 43 2q30 72 51.5 117t53 95.5t62.5 78.5t74 46.5t93 18.5q41 0 53 -35q15 -34 -14 -63q-8 -8 -15.5 -17.5t-14.5 -23t-12 -23t-12 -27.5t-10.5 -26.5t-10 -29.5 t-8.5 -27.5t-8.5 -29.5t-7.5 -26q-6 -17 -12 -67q8 -4 24.5 1.5t27 8t20.5 -11.5q7 -21 -8.5 -35.5t-36 -19.5t-37.5 -5q-3 0 -7 -7.5t-7 -20.5t-3 -27q0 -46 19.5 -79.5t60.5 -33.5q11 0 23.5 4t22 8.5t22 15t19.5 16t19.5 20t16 19t16.5 20t13 16.5q14 21 22.5 31.5t24 23 t29.5 13.5q47 2 -23 -96q-30 -42 -48.5 -63.5t-48 -48t-62 -37t-72.5 -9.5q-62 0 -93.5 45.5t-31.5 110.5q0 44 14 75q-30 0 -79.5 11.5t-65.5 11.5h-4t-4 -3t-7.5 -10t-11.5 -20q-49 -91 -126 -160t-157 -69q-67 0 -106 37.5t-39 109.5q0 73 35.5 143.5t97.5 96.5 q28 8 43 8q15 1 25 -7.5t12 -23.5q3 -34 -27 -41q-110 -32 -110 -159q0 -38 22 -64.5t54 -28.5q119 0 225 197zM608 293q50 200 64 246q3 8 8 20.5t12 29.5t10 25q-62 -12 -127 -110t-92 -185q24 -2 64 -14t61 -12zM913 809q0 -10 -10.5 -18.5t-21.5 -8.5q-40 0 -78 49 q-20 26 -43 3q-46 -50 -74 -50q-25 0 -30 20t22 42q29 23 76 57q17 15 30.5 15t30.5 -15q49 -30 72 -53q26 -22 26 -41z" />
<glyph unicode="&#xc3;" d="M377 256q-25 7 -49.5 -0.5t-38.5 -26.5q-20 -28 -49 -28q-19 0 -23.5 19t6.5 38q45 72 156 72q42 0 43 2q30 72 51.5 117t53 95.5t62.5 78.5t74 46.5t93 18.5q41 0 53 -35q15 -34 -14 -63q-8 -8 -15.5 -17.5t-14.5 -23t-12 -23t-12 -27.5t-10.5 -26.5t-10 -29.5 t-8.5 -27.5t-8.5 -29.5t-7.5 -26q-6 -17 -12 -67q8 -4 24.5 1.5t27 8t20.5 -11.5q7 -21 -8.5 -35.5t-36 -19.5t-37.5 -5q-3 0 -7 -7.5t-7 -20.5t-3 -27q0 -46 19.5 -79.5t60.5 -33.5q11 0 23.5 4t22 8.5t22 15t19.5 16t19.5 20t16 19t16.5 20t13 16.5q14 21 22.5 31.5t24 23 t29.5 13.5q47 2 -23 -96q-30 -42 -48.5 -63.5t-48 -48t-62 -37t-72.5 -9.5q-62 0 -93.5 45.5t-31.5 110.5q0 44 14 75q-30 0 -79.5 11.5t-65.5 11.5h-4t-4 -3t-7.5 -10t-11.5 -20q-49 -91 -126 -160t-157 -69q-67 0 -106 37.5t-39 109.5q0 73 35.5 143.5t97.5 96.5 q28 8 43 8q15 1 25 -7.5t12 -23.5q3 -34 -27 -41q-110 -32 -110 -159q0 -38 22 -64.5t54 -28.5q119 0 225 197zM608 293q50 200 64 246q3 8 8 20.5t12 29.5t10 25q-62 -12 -127 -110t-92 -185q24 -2 64 -14t61 -12zM653 934q36 0 93 -40t85 -40q23 0 48 18.5t43.5 30 t33.5 0.5q9 -11 6 -28.5t-14 -28.5q-69 -64 -117 -64q-33 -3 -65.5 19t-64.5 45.5t-62 23.5q-48 0 -64 -47q-7 -23 -14.5 -32.5t-21.5 -8.5q-9 1 -15 10.5t-6 16.5q0 52 38 88.5t97 36.5z" />
<glyph unicode="&#xc4;" d="M377 256q-25 7 -49.5 -0.5t-38.5 -26.5q-20 -28 -49 -28q-19 0 -23.5 19t6.5 38q45 72 156 72q42 0 43 2q30 72 51.5 117t53 95.5t62.5 78.5t74 46.5t93 18.5q41 0 53 -35q15 -34 -14 -63q-8 -8 -15.5 -17.5t-14.5 -23t-12 -23t-12 -27.5t-10.5 -26.5t-10 -29.5 t-8.5 -27.5t-8.5 -29.5t-7.5 -26q-6 -17 -12 -67q8 -4 24.5 1.5t27 8t20.5 -11.5q7 -21 -8.5 -35.5t-36 -19.5t-37.5 -5q-3 0 -7 -7.5t-7 -20.5t-3 -27q0 -46 19.5 -79.5t60.5 -33.5q11 0 23.5 4t22 8.5t22 15t19.5 16t19.5 20t16 19t16.5 20t13 16.5q14 21 22.5 31.5t24 23 t29.5 13.5q47 2 -23 -96q-30 -42 -48.5 -63.5t-48 -48t-62 -37t-72.5 -9.5q-62 0 -93.5 45.5t-31.5 110.5q0 44 14 75q-30 0 -79.5 11.5t-65.5 11.5h-4t-4 -3t-7.5 -10t-11.5 -20q-49 -91 -126 -160t-157 -69q-67 0 -106 37.5t-39 109.5q0 73 35.5 143.5t97.5 96.5 q28 8 43 8q15 1 25 -7.5t12 -23.5q3 -34 -27 -41q-110 -32 -110 -159q0 -38 22 -64.5t54 -28.5q119 0 225 197zM608 293q50 200 64 246q3 8 8 20.5t12 29.5t10 25q-62 -12 -127 -110t-92 -185q24 -2 64 -14t61 -12zM676 760q-18 -2 -31.5 13t-13.5 36q-1 20 10.5 32.5 t32.5 14.5q17 0 33.5 -12t17.5 -27q2 -19 -13.5 -37.5t-35.5 -19.5zM874 811q2 -17 -12 -32.5t-33 -16.5q-17 -1 -31 9.5t-16 25.5q-1 17 13.5 37t29.5 22q19 2 33.5 -11.5t15.5 -33.5z" />
<glyph unicode="&#xc5;" d="M377 256q-25 7 -49.5 -0.5t-38.5 -26.5q-20 -28 -49 -28q-19 0 -23.5 19t6.5 38q45 72 156 72q42 0 43 2q30 72 51.5 117t53 95.5t62.5 78.5t74 46.5t93 18.5q41 0 53 -35q15 -34 -14 -63q-8 -8 -15.5 -17.5t-14.5 -23t-12 -23t-12 -27.5t-10.5 -26.5t-10 -29.5 t-8.5 -27.5t-8.5 -29.5t-7.5 -26q-6 -17 -12 -67q8 -4 24.5 1.5t27 8t20.5 -11.5q7 -21 -8.5 -35.5t-36 -19.5t-37.5 -5q-3 0 -7 -7.5t-7 -20.5t-3 -27q0 -46 19.5 -79.5t60.5 -33.5q11 0 23.5 4t22 8.5t22 15t19.5 16t19.5 20t16 19t16.5 20t13 16.5q14 21 22.5 31.5t24 23 t29.5 13.5q47 2 -23 -96q-30 -42 -48.5 -63.5t-48 -48t-62 -37t-72.5 -9.5q-62 0 -93.5 45.5t-31.5 110.5q0 44 14 75q-30 0 -79.5 11.5t-65.5 11.5h-4t-4 -3t-7.5 -10t-11.5 -20q-49 -91 -126 -160t-157 -69q-67 0 -106 37.5t-39 109.5q0 73 35.5 143.5t97.5 96.5 q28 8 43 8q15 1 25 -7.5t12 -23.5q3 -34 -27 -41q-110 -32 -110 -159q0 -38 22 -64.5t54 -28.5q119 0 225 197zM608 293q50 200 64 246q3 8 8 20.5t12 29.5t10 25q-62 -12 -127 -110t-92 -185q24 -2 64 -14t61 -12zM643 889q0 69 40.5 104t102.5 35q57 0 89 -38.5t32 -82.5 q0 -62 -38 -103.5t-97 -41.5q-53 0 -91 35t-38 92zM711 895q0 -22 18 -40.5t41 -18.5q29 0 50.5 22t21.5 49q0 22 -16.5 42t-37.5 20q-30 0 -53.5 -22.5t-23.5 -51.5z" />
<glyph unicode="&#xc6;" horiz-adv-x="1087" d="M1141 264q27 -24 -15 -82q-49 -83 -134 -136.5t-183 -53.5q-89 0 -148 38.5t-59 110.5q0 35 33 76h-29q-30 0 -82.5 16.5t-68.5 16.5h-4t-4 -3t-7.5 -10t-11.5 -20q-49 -91 -126 -160t-157 -69q-67 0 -106 37.5t-39 109.5q0 73 35.5 143.5t97.5 96.5q28 8 43 8 q15 1 25 -7.5t12 -23.5q3 -34 -27 -41q-110 -32 -110 -159q0 -38 22 -64.5t54 -28.5q119 0 225 197q-25 7 -49.5 -0.5t-38.5 -26.5q-20 -28 -49 -28q-19 0 -23.5 19t6.5 38q45 72 156 72q42 0 43 2q30 72 51.5 117t53 95.5t62.5 78.5t74 46.5t93 18.5q41 0 53 -35 q0 -6 4 -10q84 43 158 43q70 0 112 -35t35 -96q-5 -37 -39 -71.5t-75 -41.5q-50 -7 -62 19q-11 32 33 47q28 8 47.5 25t19.5 38q0 23 -25 38.5t-69 15.5q-43 0 -95 -24.5t-97 -65.5q-20 -38 -60 -175q-3 -7 -5.5 -19t-5 -26t-3.5 -20q4 -4 8 -4q5 -3 10 2q27 26 68.5 42.5 t77.5 16.5q35 0 61.5 -24t26.5 -58q0 -42 -37 -64t-86 -22q-24 0 -48.5 4t-36.5 8l-13 5q-10 0 -20.5 -13.5t-10.5 -27.5q0 -46 41.5 -76.5t85.5 -30.5q160 0 262 142q6 8 11.5 18t9 18t8 16.5t8.5 14t9 8.5t11 1.5t13 -7.5zM483 319q23 -2 59 -16.5t52 -17.5q-9 15 -12 57 q-9 100 90 199q3 10 15 37.5t15 35.5q-62 -12 -127 -110t-92 -185zM811 287q-14 -2 -35 -11.5t-33 -19.5q9 -4 31 -7t31 -1q12 2 21.5 8.5t9.5 15.5q-2 8 -9 12t-16 3z" />
<glyph unicode="&#xc7;" horiz-adv-x="610" d="M428 -182q0 -50 -24.5 -81t-59 -38.5t-69 -3t-56.5 19.5q-6 4 -10 12.5t0 18.5q5 12 19 13t34 -5q1 0 5 -1q18 -2 41.5 -5.5t43 13.5t19.5 55q0 24 -19 40.5t-43 16.5q-20 0 -46.5 -9.5t-41 -8.5t-24.5 22q-22 42 22 100q-97 23 -157 89.5t-60 166.5q0 109 51 214 t139.5 173t186.5 68q61 0 100 -37t39 -94q0 -89 -92 -192q-17 -17 -40 -17.5t-36 14.5q-14 17 -9 38t28 38q67 34 67 109q0 25 -21 46t-50 21q-69 0 -135.5 -59.5t-105 -142t-36.5 -152.5q0 -99 52.5 -155.5t150.5 -65.5q10 0 16 -2q105 -4 186 52.5t132 162.5q14 14 28 14 q39 -5 4 -71q-58 -118 -158.5 -177t-211.5 -51q-3 0 -9.5 1t-9.5 1q-42 -45 -28 -65q11 -6 15.5 -2.5t27 11t51.5 7.5q41 0 67.5 -30.5t26.5 -71.5z" />
<glyph unicode="&#xc8;" horiz-adv-x="542" d="M264 -8q-89 0 -148 38.5t-59 110.5q0 39 25 80l4 6q-4 2 -6 4q-75 57 -80 131q-6 82 60 164.5t159 131.5t170 49q70 0 112.5 -35.5t35.5 -96.5q-5 -37 -39.5 -71t-75.5 -41q-51 -8 -62 18q-11 32 33 47q28 8 48 25.5t20 38.5q0 23 -25 38t-69 15q-56 0 -122.5 -37.5 t-114.5 -100.5t-48 -126q0 -70 47 -94q5 -3 10 2q27 26 68.5 42.5t77.5 16.5q35 0 61.5 -24t26.5 -58q0 -42 -37 -64t-86 -22q-24 0 -48.5 4t-37.5 8l-12 5q-15 -15 -15 -37q0 -46 41.5 -76.5t85.5 -30.5q160 0 262 142q6 8 11.5 18t9 18t8 16.5t8.5 14t9 8.5t11 1.5 t13 -7.5q28 -24 -14 -82q-49 -83 -134.5 -136.5t-183.5 -53.5zM193 252q9 -4 30.5 -7t30.5 -1q12 2 21.5 8.5t9.5 15.5q-2 8 -9 12t-16 3q-36 -4 -67 -31zM397 805q8 -31 -7 -31q-14 0 -90 40q-11 6 -17 9l-70 35q-23 13 -26 23q-2 8 1 18q3 13 21 19t33 0q9 -4 25.5 -12.5 t19.5 -10.5q103 -56 110 -90z" />
<glyph unicode="&#xc9;" horiz-adv-x="542" d="M264 -8q-89 0 -148 38.5t-59 110.5q0 39 25 80l4 6q-4 2 -6 4q-75 57 -80 131q-6 82 60 164.5t159 131.5t170 49q70 0 112.5 -35.5t35.5 -96.5q-5 -37 -39.5 -71t-75.5 -41q-51 -8 -62 18q-11 32 33 47q28 8 48 25.5t20 38.5q0 23 -25 38t-69 15q-56 0 -122.5 -37.5 t-114.5 -100.5t-48 -126q0 -70 47 -94q5 -3 10 2q27 26 68.5 42.5t77.5 16.5q35 0 61.5 -24t26.5 -58q0 -42 -37 -64t-86 -22q-24 0 -48.5 4t-37.5 8l-12 5q-15 -15 -15 -37q0 -46 41.5 -76.5t85.5 -30.5q160 0 262 142q6 8 11.5 18t9 18t8 16.5t8.5 14t9 8.5t11 1.5 t13 -7.5q28 -24 -14 -82q-49 -83 -134.5 -136.5t-183.5 -53.5zM193 252q9 -4 30.5 -7t30.5 -1q12 2 21.5 8.5t9.5 15.5q-2 8 -9 12t-16 3q-36 -4 -67 -31zM295 750q-29 0 -29 12q1 13 58 74q15 17 18 20l53 57l9.5 9.5t9.5 6.5t13 3.5t13 -4.5q12 -7 13.5 -26t-9.5 -32 q-10 -14 -32 -36q-84 -84 -117 -84z" />
<glyph unicode="&#xca;" horiz-adv-x="542" d="M264 -8q-89 0 -148 38.5t-59 110.5q0 39 25 80l4 6q-4 2 -6 4q-75 57 -80 131q-6 82 60 164.5t159 131.5t170 49q70 0 112.5 -35.5t35.5 -96.5q-5 -37 -39.5 -71t-75.5 -41q-51 -8 -62 18q-11 32 33 47q28 8 48 25.5t20 38.5q0 23 -25 38t-69 15q-56 0 -122.5 -37.5 t-114.5 -100.5t-48 -126q0 -70 47 -94q5 -3 10 2q27 26 68.5 42.5t77.5 16.5q35 0 61.5 -24t26.5 -58q0 -42 -37 -64t-86 -22q-24 0 -48.5 4t-37.5 8l-12 5q-15 -15 -15 -37q0 -46 41.5 -76.5t85.5 -30.5q160 0 262 142q6 8 11.5 18t9 18t8 16.5t8.5 14t9 8.5t11 1.5 t13 -7.5q28 -24 -14 -82q-49 -83 -134.5 -136.5t-183.5 -53.5zM193 252q9 -4 30.5 -7t30.5 -1q12 2 21.5 8.5t9.5 15.5q-2 8 -9 12t-16 3q-36 -4 -67 -31zM459 803q0 -10 -11 -18.5t-22 -8.5q-40 0 -78 49q-20 25 -43 2q-45 -49 -74 -49q-25 0 -30 20t22 42q29 23 76 57 q17 15 30.5 15t30.5 -15q49 -30 72 -53q27 -22 27 -41z" />
<glyph unicode="&#xcb;" horiz-adv-x="542" d="M264 -8q-89 0 -148 38.5t-59 110.5q0 39 25 80l4 6q-4 2 -6 4q-75 57 -80 131q-6 82 60 164.5t159 131.5t170 49q70 0 112.5 -35.5t35.5 -96.5q-5 -37 -39.5 -71t-75.5 -41q-51 -8 -62 18q-11 32 33 47q28 8 48 25.5t20 38.5q0 23 -25 38t-69 15q-56 0 -122.5 -37.5 t-114.5 -100.5t-48 -126q0 -70 47 -94q5 -3 10 2q27 26 68.5 42.5t77.5 16.5q35 0 61.5 -24t26.5 -58q0 -42 -37 -64t-86 -22q-24 0 -48.5 4t-37.5 8l-12 5q-15 -15 -15 -37q0 -46 41.5 -76.5t85.5 -30.5q160 0 262 142q6 8 11.5 18t9 18t8 16.5t8.5 14t9 8.5t11 1.5 t13 -7.5q28 -24 -14 -82q-49 -83 -134.5 -136.5t-183.5 -53.5zM193 252q9 -4 30.5 -7t30.5 -1q12 2 21.5 8.5t9.5 15.5q-2 8 -9 12t-16 3q-36 -4 -67 -31zM248 764q-18 -2 -31.5 13t-13.5 36q-1 20 10.5 32.5t32.5 14.5q17 0 33.5 -12t17.5 -27q2 -19 -13.5 -37.5 t-35.5 -19.5zM446 815q2 -17 -12 -32.5t-33 -16.5q-17 -1 -31 9.5t-16 25.5q-1 17 13.5 37t29.5 22q19 2 33.5 -11.5t15.5 -33.5z" />
<glyph unicode="&#xcc;" horiz-adv-x="487" d="M330 569q-39 0 -80.5 -5.5t-82 -16.5t-66 -30.5t-25.5 -45.5q0 -15 10.5 -28.5t26.5 -14.5q10 -1 61 16q30 13 35 -8q10 -26 -23.5 -51t-74.5 -27q-43 -1 -74 30t-31 73q0 58 53.5 98t123 56t143.5 16q24 0 36 26q14 28 36 51t46 27q31 4 53.5 -10t24.5 -39 q3 -37 -18 -63.5t-58 -32.5q-27 -4 -31.5 -11t-6.5 -42q-15 -229 -45 -342q-65 -248 -228 -248q-62 0 -103 48t-32 120q8 68 55 116t111 48q29 0 59.5 -16.5t30.5 -43.5q0 -16 -17 -24.5t-24 0.5q-20 24 -65 24q-36 0 -59 -24t-28 -66q-5 -45 16.5 -81t72.5 -36 q44 0 79 47.5t54 117t32.5 149t14 143.5t-1.5 100zM334 754q8 -32 -9 -31q-15 0 -92 42q-9 4 -14 7l-69 35q-23 13 -26 23q-2 8 1 18q3 13 20.5 18.5t32.5 -0.5q4 -1 45 -22q104 -57 111 -90z" />
<glyph unicode="&#xcd;" horiz-adv-x="487" d="M330 569q-39 0 -80.5 -5.5t-82 -16.5t-66 -30.5t-25.5 -45.5q0 -15 10.5 -28.5t26.5 -14.5q10 -1 61 16q30 13 35 -8q10 -26 -23.5 -51t-74.5 -27q-43 -1 -74 30t-31 73q0 58 53.5 98t123 56t143.5 16q24 0 36 26q14 28 36 51t46 27q31 4 53.5 -10t24.5 -39 q3 -37 -18 -63.5t-58 -32.5q-27 -4 -31.5 -11t-6.5 -42q-15 -229 -45 -342q-65 -248 -228 -248q-62 0 -103 48t-32 120q8 68 55 116t111 48q29 0 59.5 -16.5t30.5 -43.5q0 -16 -17 -24.5t-24 0.5q-20 24 -65 24q-36 0 -59 -24t-28 -66q-5 -45 16.5 -81t72.5 -36 q44 0 79 47.5t54 117t32.5 149t14 143.5t-1.5 100zM229 700q-29 0 -29 12q0 13 56 74l9 9q7 8 11 12l54 57l9.5 9.5t9.5 6.5t13 3.5t13 -4.5q12 -7 13.5 -26t-9.5 -32q-10 -14 -33 -37q-84 -84 -117 -84z" />
<glyph unicode="&#xce;" horiz-adv-x="487" d="M330 569q-39 0 -80.5 -5.5t-82 -16.5t-66 -30.5t-25.5 -45.5q0 -15 10.5 -28.5t26.5 -14.5q10 -1 61 16q30 13 35 -8q10 -26 -23.5 -51t-74.5 -27q-43 -1 -74 30t-31 73q0 58 53.5 98t123 56t143.5 16q24 0 36 26q14 28 36 51t46 27q31 4 53.5 -10t24.5 -39 q3 -37 -18 -63.5t-58 -32.5q-27 -4 -31.5 -11t-6.5 -42q-15 -229 -45 -342q-65 -248 -228 -248q-62 0 -103 48t-32 120q8 68 55 116t111 48q29 0 59.5 -16.5t30.5 -43.5q0 -16 -17 -24.5t-24 0.5q-20 24 -65 24q-36 0 -59 -24t-28 -66q-5 -45 16.5 -81t72.5 -36 q44 0 79 47.5t54 117t32.5 149t14 143.5t-1.5 100zM365 739q0 -10 -11 -18t-22 -8q-40 0 -78 49q-20 25 -43 2q-45 -49 -74 -49q-25 0 -30 19.5t22 41.5q41 33 76 58q17 15 30.5 15t30.5 -15q46 -28 72 -54q27 -22 27 -41z" />
<glyph unicode="&#xcf;" horiz-adv-x="487" d="M330 569q-39 0 -80.5 -5.5t-82 -16.5t-66 -30.5t-25.5 -45.5q0 -15 10.5 -28.5t26.5 -14.5q10 -1 61 16q30 13 35 -8q10 -26 -23.5 -51t-74.5 -27q-43 -1 -74 30t-31 73q0 58 53.5 98t123 56t143.5 16q24 0 36 26q14 28 36 51t46 27q31 4 53.5 -10t24.5 -39 q3 -37 -18 -63.5t-58 -32.5q-27 -4 -31.5 -11t-6.5 -42q-15 -229 -45 -342q-65 -248 -228 -248q-62 0 -103 48t-32 120q8 68 55 116t111 48q29 0 59.5 -16.5t30.5 -43.5q0 -16 -17 -24.5t-24 0.5q-20 24 -65 24q-36 0 -59 -24t-28 -66q-5 -45 16.5 -81t72.5 -36 q44 0 79 47.5t54 117t32.5 149t14 143.5t-1.5 100zM162 702q-17 -2 -31 13t-14 37q-1 20 10.5 32.5t32.5 14.5q17 0 33.5 -12t17.5 -27q2 -19 -13.5 -38t-35.5 -20zM360 754q2 -17 -12 -32.5t-33 -16.5q-17 -1 -31 9t-16 25q-2 17 13 38t30 22q19 2 33.5 -11.5t15.5 -33.5z " />
<glyph unicode="&#xd0;" horiz-adv-x="884" d="M246 190q-19 0 -33.5 12t-11.5 29q1 11 19.5 18t35.5 7q6 0 17.5 -1t17.5 -1q11 170 37 246q15 47 33 65.5t36 5.5q7 -4 10.5 -8.5t4.5 -11.5t0.5 -14t-3.5 -18.5t-6 -21.5t-8.5 -28t-9.5 -33q-22 -86 -25 -182h39q16 0 29.5 -10t13.5 -23q0 -11 -13 -20.5t-30 -10.5 q-14 -2 -41 -2v-53q0 -84 86 -84q135 4 225.5 96.5t90.5 217.5q-1 62 -32 110t-79.5 75.5t-102.5 41.5t-110 14q-105 0 -217 -40t-143 -115q-21 -64 47 -82q11 -4 42.5 -8t42.5 -13t5 -31q-5 -20 -27 -25t-43.5 -1t-42.5 12q-121 45 -94 146q15 57 63 102.5t111 70.5 t126.5 37.5t119.5 12.5q71 0 140.5 -17.5t130.5 -51.5t99 -91.5t38 -130.5q0 -125 -60.5 -217.5t-157 -137t-213.5 -44.5q-48 0 -77.5 33t-34.5 83q-4 50 -4 90q-7 0 -21 1t-20 1z" />
<glyph unicode="&#xd1;" horiz-adv-x="888" d="M369 465q31 41 56.5 70t62 61t77.5 49t84 17q200 0 88 -304q-69 -196 -69 -243q0 -34 12 -50t29 -16q83 0 153 141q22 43 41 43q20 0 23 -22q3 -20 -6 -39q-48 -88 -103 -139t-135 -51q-50 0 -69 28t-19 78q2 35 11 75.5t17.5 66.5t25 72t22.5 65q6 17 8.5 24t8.5 26.5 t8 30t6 29.5t3.5 30t-1.5 26t-7 24t-14 18t-21.5 13t-31.5 4q-61 0 -129 -66t-123 -157q-32 -58 -37 -125q-1 -7 -4.5 -36.5t-5.5 -44t-8 -43.5t-12 -45t-16.5 -38t-23 -33.5t-31 -20t-40.5 -8.5q-25 0 -46.5 24t-21.5 56q0 45 24.5 92t72.5 108.5t57 74.5q5 11 8.5 33 t3.5 24q10 85 -2 148q-8 29 -26.5 46.5t-41.5 16.5q-60 0 -115 -67.5t-55 -133.5q0 -23 15 -40.5t41 -20.5q15 -2 23 -4.5t14 -10t6 -20.5q-3 -39 -43 -39q-51 0 -83 35t-32 84q0 60 35 126.5t90 111.5t108 45q59 0 96 -52.5t40 -113.5q0 -3 1 -14t1 -19zM270 207 q-42 -48 -61 -92t-2 -62q14 7 24 19.5t16.5 31.5t10 33.5t7 38t5.5 31.5zM436 881q36 0 93 -40t85 -40q23 0 48 18.5t43.5 30t33.5 0.5q9 -11 6 -28.5t-14 -28.5q-69 -64 -117 -64q-33 -3 -65.5 19t-64.5 45.5t-62 23.5q-48 0 -64 -47q-7 -23 -14.5 -32.5t-21.5 -8.5 q-9 1 -15 10t-6 17q0 52 38 88.5t97 36.5z" />
<glyph unicode="&#xd2;" horiz-adv-x="731" d="M629 319q0 -130 -98.5 -233.5t-223.5 -103.5q-150 0 -225.5 93.5t-75.5 243.5q3 156 91 247t229 91q128 0 197 -51t93 -153q26 16 42 49t14 61q-1 19 12 25t25 -2q15 -15 18 -41q4 -48 -25 -91t-73 -61q-1 0 -2 -1t-2 -1q4 -46 4 -72zM557 377q-104 13 -162.5 72.5 t-64.5 142.5q-109 4 -176 -73.5t-72 -186.5q-3 -128 56.5 -203.5t172.5 -75.5q95 0 171.5 83t76.5 177q0 50 -2 64zM547 453q-12 54 -57.5 90t-86.5 41q-9 -41 40.5 -87.5t103.5 -43.5zM457 760q8 -32 -9 -31q-15 0 -92 42q-9 4 -14 7l-70 35q-22 13 -25 23q-2 8 1 18 q3 13 20.5 18.5t32.5 -0.5q4 -1 45 -22q104 -57 111 -90z" />
<glyph unicode="&#xd3;" horiz-adv-x="731" d="M629 319q0 -130 -98.5 -233.5t-223.5 -103.5q-150 0 -225.5 93.5t-75.5 243.5q3 156 91 247t229 91q128 0 197 -51t93 -153q26 16 42 49t14 61q-1 19 12 25t25 -2q15 -15 18 -41q4 -48 -25 -91t-73 -61q-1 0 -2 -1t-2 -1q4 -46 4 -72zM557 377q-104 13 -162.5 72.5 t-64.5 142.5q-109 4 -176 -73.5t-72 -186.5q-3 -128 56.5 -203.5t172.5 -75.5q95 0 171.5 83t76.5 177q0 50 -2 64zM547 453q-12 54 -57.5 90t-86.5 41q-9 -41 40.5 -87.5t103.5 -43.5zM270 698q-29 0 -29 12q0 13 56 74l9 9q7 8 11 12l54 57l9.5 9.5t9.5 6.5t13 3.5 t13 -4.5q12 -7 13.5 -26t-9.5 -32q-10 -14 -33 -37q-84 -84 -117 -84z" />
<glyph unicode="&#xd4;" horiz-adv-x="731" d="M629 319q0 -130 -98.5 -233.5t-223.5 -103.5q-150 0 -225.5 93.5t-75.5 243.5q3 156 91 247t229 91q128 0 197 -51t93 -153q26 16 42 49t14 61q-1 19 12 25t25 -2q15 -15 18 -41q4 -48 -25 -91t-73 -61q-1 0 -2 -1t-2 -1q4 -46 4 -72zM557 377q-104 13 -162.5 72.5 t-64.5 142.5q-109 4 -176 -73.5t-72 -186.5q-3 -128 56.5 -203.5t172.5 -75.5q95 0 171.5 83t76.5 177q0 50 -2 64zM547 453q-12 54 -57.5 90t-86.5 41q-9 -41 40.5 -87.5t103.5 -43.5zM457 721q0 -10 -11 -18.5t-22 -8.5q-40 0 -78 49q-20 25 -43 2q-45 -49 -74 -49 q-25 0 -30 20t22 42q28 23 76 57q17 15 30.5 15t30.5 -15q49 -30 72 -53q27 -22 27 -41z" />
<glyph unicode="&#xd5;" horiz-adv-x="731" d="M629 319q0 -130 -98.5 -233.5t-223.5 -103.5q-150 0 -225.5 93.5t-75.5 243.5q3 156 91 247t229 91q128 0 197 -51t93 -153q26 16 42 49t14 61q-1 19 12 25t25 -2q15 -15 18 -41q4 -48 -25 -91t-73 -61q-1 0 -2 -1t-2 -1q4 -46 4 -72zM557 377q-104 13 -162.5 72.5 t-64.5 142.5q-109 4 -176 -73.5t-72 -186.5q-3 -128 56.5 -203.5t172.5 -75.5q95 0 171.5 83t76.5 177q0 50 -2 64zM547 453q-12 54 -57.5 90t-86.5 41q-9 -41 40.5 -87.5t103.5 -43.5zM270 874q36 0 93.5 -39.5t85.5 -39.5q19 0 38.5 11.5t31.5 23t28 18t26 -3.5 q9 -11 6 -29t-14 -29q-68 -63 -116 -63q-33 -3 -66 19t-65 45.5t-62 23.5q-47 0 -63 -47q-7 -22 -15 -32t-22 -9q-9 1 -15 10t-6 17q0 52 38 88t97 36z" />
<glyph unicode="&#xd6;" horiz-adv-x="731" d="M629 319q0 -130 -98.5 -233.5t-223.5 -103.5q-150 0 -225.5 93.5t-75.5 243.5q3 156 91 247t229 91q128 0 197 -51t93 -153q26 16 42 49t14 61q-1 19 12 25t25 -2q15 -15 18 -41q4 -48 -25 -91t-73 -61q-1 0 -2 -1t-2 -1q4 -46 4 -72zM557 377q-104 13 -162.5 72.5 t-64.5 142.5q-109 4 -176 -73.5t-72 -186.5q-3 -128 56.5 -203.5t172.5 -75.5q95 0 171.5 83t76.5 177q0 50 -2 64zM547 453q-12 54 -57.5 90t-86.5 41q-9 -41 40.5 -87.5t103.5 -43.5zM264 721q-18 -2 -31.5 13t-13.5 36q-1 20 10.5 32.5t32.5 14.5q17 0 33.5 -12t17.5 -27 q2 -19 -13.5 -37.5t-35.5 -19.5zM463 772q2 -17 -12 -32.5t-33 -16.5q-17 -1 -31 9.5t-16 25.5q-1 17 13.5 37t29.5 22q19 2 33.5 -11.5t15.5 -33.5z" />
<glyph unicode="&#xd7;" horiz-adv-x="387" d="M270 184q14 -12 15 -31t-13 -30q-8 -6 -25.5 2t-29.5 20l-22 23l-29 -27q-12 -14 -31.5 -15t-30.5 13q-6 8 2.5 26t20.5 30l20 20l-30 33q-11 11 -13.5 27t7.5 26q8 7 23.5 5t27.5 -13l33 -31l34 33q11 11 27.5 13.5t26.5 -7.5q7 -8 4.5 -23.5t-13.5 -27.5l-32 -37 q3 -3 12.5 -13.5t15.5 -15.5z" />
<glyph unicode="&#xd8;" horiz-adv-x="731" d="M629 319q0 -130 -98.5 -233.5t-223.5 -103.5q-37 0 -67 6l-21 -54q-10 -25 -47 -28q-21 0 -30.5 16t-0.5 37q1 2 10 22t15 29q-81 38 -120.5 119t-39.5 190q3 156 91 247t229 91q84 0 145 -24l23 51q17 27 43 27q23 -1 31 -16.5t-1 -35.5l-6 -14l-29 -47q62 -51 84 -145 q26 16 42 49t14 61q-1 19 12 25t25 -2q15 -15 18 -41q4 -48 -25 -91t-73 -61q-1 0 -2 -1t-2 -1q4 -46 4 -72zM199 78q148 299 186 379q-49 58 -55 135q-109 4 -176 -73.5t-72 -186.5q-3 -90 27 -156t90 -98zM557 377q-71 9 -121 39q-45 -91 -98 -213l-68 -148q12 -2 41 -2 q95 0 171.5 83t76.5 177q0 50 -2 64zM547 453q-11 44 -49 82l-31 -58q42 -27 80 -24zM418 524l22 47q-19 9 -37 13q-6 -26 15 -60z" />
<glyph unicode="&#xd9;" horiz-adv-x="962" d="M668 174q-60 -85 -143 -143t-169 -58q-67 0 -103 43.5t-36 110.5q0 14 2 29.5t4.5 27.5t9 29.5t9.5 26.5t12 28.5t12 25t13.5 26t11.5 22.5q33 80 31 143q0 45 -21.5 72t-62.5 27q-54 0 -107 -45.5t-53 -98.5q0 -86 82 -102q45 -12 39 -47q-5 -37 -64 -29 q-58 6 -96.5 52.5t-36.5 105.5q0 95 85 164t179 71q67 0 101 -50t34 -116q3 -79 -43 -176q-5 -10 -19.5 -38t-22 -43t-14.5 -38t-7 -42q0 -46 22 -75t60 -32q64 0 125.5 42t107.5 99q22 28 41 60q17 29 19 45q1 13 4.5 91t11.5 122q11 58 40 109t65 51q25 0 39 -23.5 t14 -56.5q0 -138 -86 -285q-10 -19 -12.5 -28t-0.5 -29q3 -37 6.5 -62t11 -52t21 -40.5t33.5 -13.5q53 0 133 135q26 44 41 20q13 -21 -4 -61q-35 -65 -86 -117.5t-104 -52.5q-24 0 -43 12t-32.5 34.5t-22 41.5t-18 48.5t-13.5 39.5zM737 379q26 45 39.5 114.5t-2.5 88.5 q-16 -29 -27.5 -101t-9.5 -102zM602 739q8 -31 -7 -31q-14 0 -100 46l-8 4l-69 35q-23 13 -26 23q-2 8 1 18q3 13 20.5 18.5t32.5 -0.5l46 -23q103 -56 110 -90z" />
<glyph unicode="&#xda;" horiz-adv-x="962" d="M668 174q-60 -85 -143 -143t-169 -58q-67 0 -103 43.5t-36 110.5q0 14 2 29.5t4.5 27.5t9 29.5t9.5 26.5t12 28.5t12 25t13.5 26t11.5 22.5q33 80 31 143q0 45 -21.5 72t-62.5 27q-54 0 -107 -45.5t-53 -98.5q0 -86 82 -102q45 -12 39 -47q-5 -37 -64 -29 q-58 6 -96.5 52.5t-36.5 105.5q0 95 85 164t179 71q67 0 101 -50t34 -116q3 -79 -43 -176q-5 -10 -19.5 -38t-22 -43t-14.5 -38t-7 -42q0 -46 22 -75t60 -32q64 0 125.5 42t107.5 99q22 28 41 60q17 29 19 45q1 13 4.5 91t11.5 122q11 58 40 109t65 51q25 0 39 -23.5 t14 -56.5q0 -138 -86 -285q-10 -19 -12.5 -28t-0.5 -29q3 -37 6.5 -62t11 -52t21 -40.5t33.5 -13.5q53 0 133 135q26 44 41 20q13 -21 -4 -61q-35 -65 -86 -117.5t-104 -52.5q-24 0 -43 12t-32.5 34.5t-22 41.5t-18 48.5t-13.5 39.5zM737 379q26 45 39.5 114.5t-2.5 88.5 q-16 -29 -27.5 -101t-9.5 -102zM545 655q-29 0 -29 12q0 13 56 74l9 9q7 8 11 12l53 57l9.5 9.5t9.5 6.5t13 3.5t13 -4.5q12 -7 13.5 -26t-9.5 -32q-12 -17 -32 -37q-84 -84 -117 -84z" />
<glyph unicode="&#xdb;" horiz-adv-x="962" d="M668 174q-60 -85 -143 -143t-169 -58q-67 0 -103 43.5t-36 110.5q0 14 2 29.5t4.5 27.5t9 29.5t9.5 26.5t12 28.5t12 25t13.5 26t11.5 22.5q33 80 31 143q0 45 -21.5 72t-62.5 27q-54 0 -107 -45.5t-53 -98.5q0 -86 82 -102q45 -12 39 -47q-5 -37 -64 -29 q-58 6 -96.5 52.5t-36.5 105.5q0 95 85 164t179 71q67 0 101 -50t34 -116q3 -79 -43 -176q-5 -10 -19.5 -38t-22 -43t-14.5 -38t-7 -42q0 -46 22 -75t60 -32q64 0 125.5 42t107.5 99q22 28 41 60q17 29 19 45q1 13 4.5 91t11.5 122q11 58 40 109t65 51q25 0 39 -23.5 t14 -56.5q0 -138 -86 -285q-10 -19 -12.5 -28t-0.5 -29q3 -37 6.5 -62t11 -52t21 -40.5t33.5 -13.5q53 0 133 135q26 44 41 20q13 -21 -4 -61q-35 -65 -86 -117.5t-104 -52.5q-24 0 -43 12t-32.5 34.5t-22 41.5t-18 48.5t-13.5 39.5zM737 379q26 45 39.5 114.5t-2.5 88.5 q-16 -29 -27.5 -101t-9.5 -102zM696 719q0 -10 -10.5 -18.5t-21.5 -8.5q-40 0 -78 49q-20 25 -43 2q-45 -49 -74 -49q-25 0 -30 20t22 42q29 23 76 57q17 15 30.5 15t30.5 -15q49 -30 72 -53q26 -22 26 -41z" />
<glyph unicode="&#xdc;" horiz-adv-x="962" d="M668 174q-60 -85 -143 -143t-169 -58q-67 0 -103 43.5t-36 110.5q0 14 2 29.5t4.5 27.5t9 29.5t9.5 26.5t12 28.5t12 25t13.5 26t11.5 22.5q33 80 31 143q0 45 -21.5 72t-62.5 27q-54 0 -107 -45.5t-53 -98.5q0 -86 82 -102q45 -12 39 -47q-5 -37 -64 -29 q-58 6 -96.5 52.5t-36.5 105.5q0 95 85 164t179 71q67 0 101 -50t34 -116q3 -79 -43 -176q-5 -10 -19.5 -38t-22 -43t-14.5 -38t-7 -42q0 -46 22 -75t60 -32q64 0 125.5 42t107.5 99q22 28 41 60q17 29 19 45q1 13 4.5 91t11.5 122q11 58 40 109t65 51q25 0 39 -23.5 t14 -56.5q0 -138 -86 -285q-10 -19 -12.5 -28t-0.5 -29q3 -37 6.5 -62t11 -52t21 -40.5t33.5 -13.5q53 0 133 135q26 44 41 20q13 -21 -4 -61q-35 -65 -86 -117.5t-104 -52.5q-24 0 -43 12t-32.5 34.5t-22 41.5t-18 48.5t-13.5 39.5zM737 379q26 45 39.5 114.5t-2.5 88.5 q-16 -29 -27.5 -101t-9.5 -102zM483 700q-17 -2 -31 13t-14 37q-1 20 10.5 32.5t32.5 14.5q17 0 33.5 -12t17.5 -27q2 -19 -13.5 -38t-35.5 -20zM682 752q2 -17 -12 -33t-33 -17q-17 -1 -31 9.5t-16 25.5q-2 17 13 38t30 22q19 2 33.5 -11.5t15.5 -33.5z" />
<glyph unicode="&#xdd;" horiz-adv-x="696" d="M489 158q-54 -70 -110 -110t-127 -40q-61 0 -98 37.5t-37 101.5q0 17 2 35.5t4.5 32t8 34.5t8.5 31t10.5 34t9.5 32q4 11 14 41.5t14.5 46t10.5 40t8 45t0 40.5q0 54 -53 57q-37 3 -61 -16.5t-23 -52.5q0 -16 22 -25.5t45 0.5q24 10 35 -18q11 -26 -18.5 -39.5 t-63.5 -13.5t-61 24t-27 57q-5 59 54 109t126 43q42 -4 69 -39t25 -74q-1 -73 -42 -206t-41 -185q0 -40 26 -68t60 -28q35 0 69.5 19.5t61.5 51.5t46.5 63t35.5 65q32 69 26 75q5 150 31.5 227.5t71.5 67.5q28 -6 30.5 -53t-13 -106t-33 -110t-30.5 -75q-3 -6 -10 -55 t-15 -116t-13 -95q86 42 149 170q8 15 19.5 21t23.5 -1q11 -6 6 -26q-16 -58 -68 -125t-112 -96q-41 -20 -41 -23q-6 -75 -38.5 -148.5t-92.5 -126.5t-133 -53q-51 0 -89 27.5t-38 75.5q0 41 26.5 81t68.5 71.5t84 55t83 38.5q43 15 69 48.5t29 78.5q0 8 2.5 23.5t3.5 23.5z M442 -61q-4 -2 -43.5 -21.5t-63.5 -33t-57 -35.5t-50 -44t-17 -43q0 -22 14 -32.5t35 -10.5q69 0 124.5 76.5t57.5 143.5zM403 698q-28 0 -29 11q0 13 56 73q2 2 7 8q9 10 14 15l53 57l9.5 9.5t9.5 6.5t13 3.5t13 -4.5q12 -7 13.5 -26t-9.5 -32q-10 -14 -33 -37 q-84 -84 -117 -84z" />
<glyph unicode="&#xde;" horiz-adv-x="743" d="M373 573q75 37 172 37q67 0 107 -53t40 -119q0 -110 -79.5 -189.5t-190.5 -84.5q-55 -3 -111 14q-19 -97 -61 -150t-125 -53q-57 0 -91 43t-34 95q0 43 17.5 80t39 53.5t35.5 9.5t11.5 -27.5t-19.5 -40.5q-29 -29 -29 -71q0 -32 24.5 -56t61.5 -24q23 0 41.5 15 t32.5 47.5t25 70t20 96.5t15 111.5t14 130.5q6 55 6 113q0 10 -2.5 23t-11.5 26.5t-23 13.5q-30 0 -48 -33.5t-11 -62.5q5 -20 -1.5 -39t-25.5 -19q-21 0 -32.5 14.5t-11.5 32.5t3 35q19 56 61.5 101t90.5 45q33 0 55.5 -27.5t30.5 -63t6 -69.5q-2 -15 -2 -25zM330 270 q22 -16 26 -18q42 -17 80 -14q75 3 132 58t57 124q0 47 -26.5 84t-68.5 37q-28 0 -54.5 -4t-54 -13t-45.5 -28t-22 -45q-10 -95 -24 -181z" />
<glyph unicode="&#xdf;" horiz-adv-x="434" d="M123 111q17 6 32.5 -8.5t34 -32t41.5 -17.5q32 0 53 21t21 51q0 21 -11.5 42.5t-23.5 33t-35 31.5t-30 26q-47 40 -47 84t47 84q26 20 40.5 52.5t14.5 66.5q0 46 -27.5 80t-70.5 34q-30 0 -49 -19.5t-27 -43.5q-6 -21 -6 -43q8 -166 -23 -485q-7 -119 -77 -181 q-23 -20 -53.5 -31.5t-53.5 -11.5q-51 0 -51 39q0 18 16.5 27.5t34.5 9.5q92 0 111 115q6 34 16 196q8 122 8 306q0 192 160 192q86 0 121 -35q51 -48 51 -135q0 -113 -84 -170q-56 -41 0 -86q62 -50 88 -78q41 -44 41 -92q0 -62 -48 -110t-106 -48q-39 0 -71.5 19t-46.5 45 q-32 58 10 72z" />
<glyph unicode="&#xe0;" horiz-adv-x="458" d="M236 59q-16 -28 -54 -44.5t-73 -16.5q-52 0 -92 44.5t-40 107.5q0 95 48.5 158t140.5 63q63 0 131 -33q36 -15 25 -47q-4 -12 -21 -12.5t-37 8.5q-39 17 -53 22q-24 6 -49 6q-50 0 -81.5 -45.5t-31.5 -101.5q0 -44 20 -72t52 -28q33 0 59.5 29.5t26.5 68.5q0 33 2 49 q7 43 39 45q19 2 38 -12.5t23 -34.5q3 -16 -10.5 -41.5t-15.5 -32.5q-8 -26 4 -52t35 -26q25 0 55.5 35.5t48.5 67.5q2 3 7 13.5t7 14.5t7 12t9 11t9 6.5t10.5 3t11.5 -3.5q17 -6 -6 -59q-31 -72 -78.5 -120t-97.5 -48q-56 0 -69 65zM330 483q8 -31 -7 -31q-14 0 -100 46 l-8 4l-70 35q-22 13 -25 23q-2 8 1 18q3 13 20.5 18.5t32.5 -0.5q9 -4 25.5 -12.5t19.5 -10.5q104 -57 111 -90z" />
<glyph unicode="&#xe1;" horiz-adv-x="458" d="M236 59q-16 -28 -54 -44.5t-73 -16.5q-52 0 -92 44.5t-40 107.5q0 95 48.5 158t140.5 63q63 0 131 -33q36 -15 25 -47q-4 -12 -21 -12.5t-37 8.5q-39 17 -53 22q-24 6 -49 6q-50 0 -81.5 -45.5t-31.5 -101.5q0 -44 20 -72t52 -28q33 0 59.5 29.5t26.5 68.5q0 33 2 49 q7 43 39 45q19 2 38 -12.5t23 -34.5q3 -16 -10.5 -41.5t-15.5 -32.5q-8 -26 4 -52t35 -26q25 0 55.5 35.5t48.5 67.5q2 3 7 13.5t7 14.5t7 12t9 11t9 6.5t10.5 3t11.5 -3.5q17 -6 -6 -59q-31 -72 -78.5 -120t-97.5 -48q-56 0 -69 65zM174 436q-29 0 -29 12q0 13 56 74l9 9 q7 8 11 12l53 57q26 26 45 14q12 -8 13.5 -25.5t-8.5 -31.5t-33 -37q-84 -84 -117 -84z" />
<glyph unicode="&#xe2;" horiz-adv-x="458" d="M236 59q-16 -28 -54 -44.5t-73 -16.5q-52 0 -92 44.5t-40 107.5q0 95 48.5 158t140.5 63q63 0 131 -33q36 -15 25 -47q-4 -12 -21 -12.5t-37 8.5q-39 17 -53 22q-24 6 -49 6q-50 0 -81.5 -45.5t-31.5 -101.5q0 -44 20 -72t52 -28q33 0 59.5 29.5t26.5 68.5q0 33 2 49 q7 43 39 45q19 2 38 -12.5t23 -34.5q3 -16 -10.5 -41.5t-15.5 -32.5q-8 -26 4 -52t35 -26q25 0 55.5 35.5t48.5 67.5q2 3 7 13.5t7 14.5t7 12t9 11t9 6.5t10.5 3t11.5 -3.5q17 -6 -6 -59q-31 -72 -78.5 -120t-97.5 -48q-56 0 -69 65zM367 479q0 -10 -11 -18t-22 -8 q-40 0 -78 49q-20 25 -43 2q-45 -49 -74 -49q-25 0 -30 19.5t22 41.5q28 23 76 57q17 15 30.5 15t30.5 -15q49 -30 72 -53q27 -23 27 -41z" />
<glyph unicode="&#xe3;" horiz-adv-x="458" d="M236 59q-16 -28 -54 -44.5t-73 -16.5q-52 0 -92 44.5t-40 107.5q0 95 48.5 158t140.5 63q63 0 131 -33q36 -15 25 -47q-4 -12 -21 -12.5t-37 8.5q-39 17 -53 22q-24 6 -49 6q-50 0 -81.5 -45.5t-31.5 -101.5q0 -44 20 -72t52 -28q33 0 59.5 29.5t26.5 68.5q0 33 2 49 q7 43 39 45q19 2 38 -12.5t23 -34.5q3 -16 -10.5 -41.5t-15.5 -32.5q-8 -26 4 -52t35 -26q25 0 55.5 35.5t48.5 67.5q2 3 7 13.5t7 14.5t7 12t9 11t9 6.5t10.5 3t11.5 -3.5q17 -6 -6 -59q-31 -72 -78.5 -120t-97.5 -48q-56 0 -69 65zM119 604q36 0 93 -40t85 -40 q23 0 48 18.5t43.5 30t33.5 0.5q9 -11 6 -28.5t-14 -28.5q-68 -63 -117 -63q-33 -3 -66 19t-65 45.5t-62 23.5q-47 0 -63 -47q-7 -22 -15 -32t-22 -9q-9 1 -14.5 9.5t-5.5 16.5q0 52 38 88.5t97 36.5z" />
<glyph unicode="&#xe4;" horiz-adv-x="458" d="M236 59q-16 -28 -54 -44.5t-73 -16.5q-52 0 -92 44.5t-40 107.5q0 95 48.5 158t140.5 63q63 0 131 -33q36 -15 25 -47q-4 -12 -21 -12.5t-37 8.5q-39 17 -53 22q-24 6 -49 6q-50 0 -81.5 -45.5t-31.5 -101.5q0 -44 20 -72t52 -28q33 0 59.5 29.5t26.5 68.5q0 33 2 49 q7 43 39 45q19 2 38 -12.5t23 -34.5q3 -16 -10.5 -41.5t-15.5 -32.5q-8 -26 4 -52t35 -26q25 0 55.5 35.5t48.5 67.5q2 3 7 13.5t7 14.5t7 12t9 11t9 6.5t10.5 3t11.5 -3.5q17 -6 -6 -59q-31 -72 -78.5 -120t-97.5 -48q-56 0 -69 65zM111 463q-18 -2 -31.5 13t-13.5 36 q-1 20 10.5 32.5t32.5 14.5q17 0 33.5 -12t17.5 -27q2 -19 -13.5 -37.5t-35.5 -19.5zM309 514q2 -17 -12 -32.5t-33 -16.5q-17 -1 -31 9.5t-16 25.5q-1 17 13.5 37t29.5 22q19 2 33.5 -11.5t15.5 -33.5z" />
<glyph unicode="&#xe5;" horiz-adv-x="458" d="M236 59q-16 -28 -54 -44.5t-73 -16.5q-52 0 -92 44.5t-40 107.5q0 95 48.5 158t140.5 63q63 0 131 -33q36 -15 25 -47q-4 -12 -21 -12.5t-37 8.5q-39 17 -53 22q-24 6 -49 6q-50 0 -81.5 -45.5t-31.5 -101.5q0 -44 20 -72t52 -28q33 0 59.5 29.5t26.5 68.5q0 33 2 49 q7 43 39 45q19 2 38 -12.5t23 -34.5q3 -16 -10.5 -41.5t-15.5 -32.5q-8 -26 4 -52t35 -26q25 0 55.5 35.5t48.5 67.5q2 3 7 13.5t7 14.5t7 12t9 11t9 6.5t10.5 3t11.5 -3.5q17 -6 -6 -59q-31 -72 -78.5 -120t-97.5 -48q-56 0 -69 65zM55 578q0 68 40.5 103.5t103.5 35.5 q57 0 88.5 -38.5t31.5 -82.5q0 -62 -38 -103.5t-97 -41.5q-53 0 -91 35t-38 92zM123 584q0 -22 18 -41t41 -19q29 0 50.5 22.5t21.5 49.5q0 23 -16 42t-37 19q-30 0 -54 -22t-24 -51z" />
<glyph unicode="&#xe6;" horiz-adv-x="595" d="M623 240q25 -8 2 -60q-88 -183 -242 -186q-48 0 -82.5 25.5t-50.5 66.5l-14 -27q-16 -28 -54 -44.5t-73 -16.5q-52 0 -92 44.5t-40 107.5q0 95 48.5 158t140.5 63q61 0 121 -29q48 68 127 68q45 0 80.5 -28t35.5 -69q0 -50 -37.5 -91t-87 -61t-94.5 -20q1 -39 25.5 -60.5 t60.5 -21.5q33 0 61.5 14t52.5 41t39 48.5t34 54.5t39 23zM209 215q7 43 39 45h4q4 22 8 29q-31 15 -49 20q-24 6 -49 6q-50 0 -81.5 -45.5t-31.5 -101.5q0 -44 20 -72t52 -28q33 0 59.5 29.5t26.5 68.5q0 33 2 49zM309 203q6 1 18.5 2t18 2t15.5 3t19.5 5.5t20.5 9.5 q23 12 38.5 34t15.5 44q0 23 -12.5 37t-34.5 14q-46 0 -72.5 -48.5t-26.5 -96.5v-6z" />
<glyph unicode="&#xe7;" horiz-adv-x="333" d="M291 -182q0 -50 -24.5 -81t-59 -38.5t-69 -3t-56.5 19.5q-6 4 -10 12.5t0 18.5q5 12 19 13t34 -5q2 0 5 -1q19 -2 41.5 -5.5t42 13.5t19.5 55q0 24 -18.5 40.5t-42.5 16.5q-20 0 -46.5 -9.5t-41.5 -8.5t-25 22q-27 52 41 123q-59 13 -87.5 66t-28.5 120q0 100 50 163 t120 63q31 0 58 -15t42 -41q24 -41 6 -76.5t-65 -35.5q-20 -2 -33.5 14.5t-9.5 36.5q11 39 20 61q-49 0 -82 -52.5t-33 -108.5q0 -31 6.5 -58t25.5 -48t48 -21q44 0 86.5 29.5t67.5 66.5q36 56 49 69q10 12 23.5 8.5t13.5 -22.5q2 -7 -3.5 -19.5t-15 -28t-10.5 -17.5 q-28 -51 -79.5 -97t-106.5 -57q-78 -71 -60 -96q11 -6 15.5 -2.5t27.5 11t52 7.5q41 0 67.5 -30.5t26.5 -71.5z" />
<glyph unicode="&#xe8;" horiz-adv-x="346" d="M61 141q1 -39 25.5 -60.5t60.5 -21.5q33 0 61.5 14t52.5 41t39 48.5t34 54.5t39 23q25 -8 2 -60q-88 -183 -242 -186q-67 0 -106 48t-39 116q0 63 16.5 117.5t58 94.5t101.5 40q45 0 81 -28t36 -69q0 -73 -73.5 -122.5t-146.5 -49.5zM59 203q6 1 18.5 2t18.5 2t16 3 t19.5 5.5t20.5 9.5q23 12 38 34t15 44q0 23 -12.5 37t-34.5 14q-47 0 -74 -51.5t-25 -99.5zM274 483q8 -31 -7 -31q-14 0 -99 46l-8 4l-70 35q-22 13 -25 23q-2 8 1 18q3 13 20.5 18.5t32.5 -0.5q9 -4 25.5 -12.5t19.5 -10.5q103 -56 110 -90z" />
<glyph unicode="&#xe9;" horiz-adv-x="346" d="M61 141q1 -39 25.5 -60.5t60.5 -21.5q33 0 61.5 14t52.5 41t39 48.5t34 54.5t39 23q25 -8 2 -60q-88 -183 -242 -186q-67 0 -106 48t-39 116q0 63 16.5 117.5t58 94.5t101.5 40q45 0 81 -28t36 -69q0 -73 -73.5 -122.5t-146.5 -49.5zM59 203q6 1 18.5 2t18.5 2t16 3 t19.5 5.5t20.5 9.5q23 12 38 34t15 44q0 23 -12.5 37t-34.5 14q-47 0 -74 -51.5t-25 -99.5zM119 436q-29 0 -29 12q0 13 56 74l9 9q7 8 11 12l53 57q26 26 45 14q12 -7 13.5 -25.5t-9.5 -31.5q-13 -17 -32 -37q-84 -84 -117 -84z" />
<glyph unicode="&#xea;" horiz-adv-x="346" d="M61 141q1 -39 25.5 -60.5t60.5 -21.5q33 0 61.5 14t52.5 41t39 48.5t34 54.5t39 23q25 -8 2 -60q-88 -183 -242 -186q-67 0 -106 48t-39 116q0 63 16.5 117.5t58 94.5t101.5 40q45 0 81 -28t36 -69q0 -73 -73.5 -122.5t-146.5 -49.5zM59 203q6 1 18.5 2t18.5 2t16 3 t19.5 5.5t20.5 9.5q23 12 38 34t15 44q0 23 -12.5 37t-34.5 14q-47 0 -74 -51.5t-25 -99.5zM309 479q0 -10 -11 -18t-22 -8q-39 0 -77 49q-20 25 -43 2q-45 -49 -74 -49q-25 0 -30 19.5t22 41.5q29 23 76 57q17 15 30.5 15t30.5 -15q49 -30 72 -53q26 -22 26 -41z" />
<glyph unicode="&#xeb;" horiz-adv-x="346" d="M61 141q1 -39 25.5 -60.5t60.5 -21.5q33 0 61.5 14t52.5 41t39 48.5t34 54.5t39 23q25 -8 2 -60q-88 -183 -242 -186q-67 0 -106 48t-39 116q0 63 16.5 117.5t58 94.5t101.5 40q45 0 81 -28t36 -69q0 -73 -73.5 -122.5t-146.5 -49.5zM59 203q6 1 18.5 2t18.5 2t16 3 t19.5 5.5t20.5 9.5q23 12 38 34t15 44q0 23 -12.5 37t-34.5 14q-47 0 -74 -51.5t-25 -99.5zM92 483q-18 -2 -31.5 13t-13.5 36q-1 20 11 33t32 15q17 0 33.5 -12t17.5 -27q2 -19 -13.5 -38t-35.5 -20zM291 535q2 -17 -12 -33t-33 -17q-17 -1 -31 9.5t-16 25.5q-2 17 13 38 t30 22q19 2 33.5 -11.5t15.5 -33.5z" />
<glyph unicode="&#xec;" horiz-adv-x="294" d="M35 193q-21 -43 -45 -43q-13 0 -13.5 18.5t11.5 46.5q27 61 73 119q10 16 27 27t33 10q22 -2 38 -15t15 -32q-2 -22 -11 -90t-9 -103q0 -67 6 -75q3 -3 6 -3q5 0 10 2.5t10.5 7t11 10t11.5 13.5l10.5 14t10.5 15t9 14.5t8.5 14t6.5 10.5q54 94 74 94q11 0 15.5 -6.5 t3.5 -16.5t-4.5 -19.5t-8.5 -19.5q-102 -202 -182 -202q-34 0 -52 28.5t-18 77.5q0 30 1.5 54t4.5 54t4 48q0 3 1.5 12.5t1.5 15t-3 5.5q-11 0 -57 -86zM250 483q8 -31 -7 -31q-14 0 -100 46l-8 4l-69 35q-23 13 -26 23q-2 8 1 18q3 13 20.5 18.5t32.5 -0.5q9 -4 25.5 -12.5 t19.5 -10.5q104 -57 111 -90z" />
<glyph unicode="&#xed;" horiz-adv-x="294" d="M35 193q-21 -43 -45 -43q-13 0 -13.5 18.5t11.5 46.5q27 61 73 119q10 16 27 27t33 10q22 -2 38 -15t15 -32q-2 -22 -11 -90t-9 -103q0 -67 6 -75q3 -3 6 -3q5 0 10 2.5t10.5 7t11 10t11.5 13.5l10.5 14t10.5 15t9 14.5t8.5 14t6.5 10.5q54 94 74 94q11 0 15.5 -6.5 t3.5 -16.5t-4.5 -19.5t-8.5 -19.5q-102 -202 -182 -202q-34 0 -52 28.5t-18 77.5q0 30 1.5 54t4.5 54t4 48q0 3 1.5 12.5t1.5 15t-3 5.5q-11 0 -57 -86zM94 436q-29 0 -29 12q0 13 56 74l9 9q7 8 11 12l54 57q26 26 45 14q12 -7 13.5 -25.5t-9.5 -31.5q-10 -14 -33 -37 q-84 -84 -117 -84z" />
<glyph unicode="&#xee;" horiz-adv-x="294" d="M35 193q-21 -43 -45 -43q-13 0 -13.5 18.5t11.5 46.5q27 61 73 119q10 16 27 27t33 10q22 -2 38 -15t15 -32q-2 -22 -11 -90t-9 -103q0 -67 6 -75q3 -3 6 -3q5 0 10 2.5t10.5 7t11 10t11.5 13.5l10.5 14t10.5 15t9 14.5t8.5 14t6.5 10.5q54 94 74 94q11 0 15.5 -6.5 t3.5 -16.5t-4.5 -19.5t-8.5 -19.5q-102 -202 -182 -202q-34 0 -52 28.5t-18 77.5q0 30 1.5 54t4.5 54t4 48q0 3 1.5 12.5t1.5 15t-3 5.5q-11 0 -57 -86zM285 479q0 -10 -11 -18t-22 -8q-40 0 -78 49q-20 25 -43 2q-45 -49 -74 -49q-25 0 -30 19.5t22 41.5q29 23 76 57 q17 15 30.5 15t30.5 -15q49 -30 72 -53q27 -23 27 -41z" />
<glyph unicode="&#xef;" horiz-adv-x="294" d="M35 193q-21 -43 -45 -43q-13 0 -13.5 18.5t11.5 46.5q27 61 73 119q10 16 27 27t33 10q22 -2 38 -15t15 -32q-2 -22 -11 -90t-9 -103q0 -67 6 -75q3 -3 6 -3q5 0 10 2.5t10.5 7t11 10t11.5 13.5l10.5 14t10.5 15t9 14.5t8.5 14t6.5 10.5q54 94 74 94q11 0 15.5 -6.5 t3.5 -16.5t-4.5 -19.5t-8.5 -19.5q-102 -202 -182 -202q-34 0 -52 28.5t-18 77.5q0 30 1.5 54t4.5 54t4 48q0 3 1.5 12.5t1.5 15t-3 5.5q-11 0 -57 -86zM49 483q-18 -2 -31.5 13t-13.5 36q-1 20 11 33t32 15q17 0 33.5 -12t17.5 -27q2 -19 -13.5 -38t-35.5 -20zM248 535 q2 -17 -12 -33t-33 -17q-17 -1 -31 9.5t-16 25.5q-2 17 13 38t30 22q19 2 33.5 -11.5t15.5 -33.5z" />
<glyph unicode="&#xf0;" horiz-adv-x="401" d="M272 319q18 82 -16 154q-10 -2 -31 -9t-35.5 -10t-30.5 -4t-26 8.5t-12 28.5q-5 41 61 41q10 0 60 13q-25 86 -78 106q-28 11 -43 24.5t-12 28.5q4 25 45 25q12 0 23.5 -2t22.5 -8t18.5 -10t17.5 -15.5t14.5 -15.5t15 -19t12.5 -17.5t12 -19.5l11 -18l8 16t10 18.5t9 14 t11.5 13.5t12.5 6q17 4 24.5 -5.5t6.5 -24.5t-8 -32q-18 -49 -43 -67q-8 -6 4 -88q13 -82 8 -144q-3 -51 -22 -110t-50.5 -113.5t-79.5 -90.5t-102 -36q-53 0 -85 51.5t-32 110.5q0 85 69.5 153t150.5 68q48 0 79 -21zM258 227q-17 13 -24 17t-20.5 9t-29.5 5 q-52 0 -93.5 -38.5t-41.5 -92.5q0 -33 20 -61.5t50 -28.5q33 0 65 37t50 79t24 74z" />
<glyph unicode="&#xf1;" horiz-adv-x="526" d="M334 354q27 0 44 -21.5t17 -47.5q0 -19 -8 -71t-10 -75q-3 -42 2 -59t24 -17q33 0 99 123q15 29 29.5 43.5t23.5 8.5q13 -9 11 -28.5t-21 -57.5q-61 -114 -107 -148q-52 -32 -92.5 1.5t-40.5 103.5q0 22 17 110q4 13 3 33t-10 20q-12 0 -34.5 -31t-40.5 -65 q-17 -30 -48.5 -94.5t-33.5 -67.5q-15 -30 -35 -26q-1 0 -6.5 2t-7 2t-6 2t-6 3t-5 3t-5 4t-3.5 5t-3 6.5t-1 7.5q-3 21 0 43q18 91 22 120q7 56 7 78q-8 2 -18 -8.5t-33 -44t-35 -49.5q-16 -19 -33 -10q-24 12 -10 41q88 159 131 159q15 0 26 -7t17.5 -21t10.5 -27.5 t5.5 -34.5t2 -32t0 -30.5t-0.5 -21.5l23 41q77 135 139 135zM172 604q36 0 93 -40t85 -40q23 0 48 18.5t43.5 30t33.5 0.5q9 -11 6 -28.5t-14 -28.5q-68 -63 -117 -63q-33 -3 -65.5 19t-64.5 45.5t-62 23.5q-48 0 -64 -47q-7 -22 -15 -32t-22 -9q-9 1 -14.5 9.5t-5.5 16.5 q0 52 38 88.5t97 36.5z" />
<glyph unicode="&#xf2;" horiz-adv-x="536" d="M432 131q43 0 72 47q21 31 34 41t29 2q19 -11 -6 -53q-55 -98 -135 -98q-33 0 -57 12q-66 -88 -179 -88q-90 0 -145 51.5t-55 138.5q0 91 57.5 148t145.5 59q45 0 67.5 -17t18.5 -50q34 9 61 2q39 -9 61 -45t15 -82q-7 -38 -17 -64q10 -4 33 -4zM244 299q-14 25 -66 25 q-40 0 -77.5 -45t-37.5 -95q0 -55 33.5 -90t89.5 -35q39 0 75.5 18.5t45.5 47.5q-59 34 -76 80t13 94zM338 172q12 25 8 59q-1 15 -10.5 26t-18.5 11q-26 0 -26 -37t47 -59zM307 483q8 -31 -7 -31q-14 0 -99 46l-8 4l-70 35q-23 13 -26 23q-2 8 1 18q3 13 21 18.5t33 -0.5 q9 -4 25.5 -12.5t19.5 -10.5q103 -56 110 -90z" />
<glyph unicode="&#xf3;" horiz-adv-x="536" d="M432 131q43 0 72 47q21 31 34 41t29 2q19 -11 -6 -53q-55 -98 -135 -98q-33 0 -57 12q-66 -88 -179 -88q-90 0 -145 51.5t-55 138.5q0 91 57.5 148t145.5 59q45 0 67.5 -17t18.5 -50q34 9 61 2q39 -9 61 -45t15 -82q-7 -38 -17 -64q10 -4 33 -4zM244 299q-14 25 -66 25 q-40 0 -77.5 -45t-37.5 -95q0 -55 33.5 -90t89.5 -35q39 0 75.5 18.5t45.5 47.5q-59 34 -76 80t13 94zM338 172q12 25 8 59q-1 15 -10.5 26t-18.5 11q-26 0 -26 -37t47 -59zM143 457q-29 0 -29 12q1 13 58 74q15 17 18 20l54 58q26 26 45 14q12 -7 13.5 -25.5t-9.5 -31.5 q-10 -14 -33 -37q-84 -84 -117 -84z" />
<glyph unicode="&#xf4;" horiz-adv-x="536" d="M432 131q43 0 72 47q21 31 34 41t29 2q19 -11 -6 -53q-55 -98 -135 -98q-33 0 -57 12q-66 -88 -179 -88q-90 0 -145 51.5t-55 138.5q0 91 57.5 148t145.5 59q45 0 67.5 -17t18.5 -50q34 9 61 2q39 -9 61 -45t15 -82q-7 -38 -17 -64q10 -4 33 -4zM244 299q-14 25 -66 25 q-40 0 -77.5 -45t-37.5 -95q0 -55 33.5 -90t89.5 -35q39 0 75.5 18.5t45.5 47.5q-59 34 -76 80t13 94zM338 172q12 25 8 59q-1 15 -10.5 26t-18.5 11q-26 0 -26 -37t47 -59zM344 479q0 -10 -11 -18t-22 -8q-40 0 -78 49q-20 25 -43 2q-45 -49 -73 -49q-25 0 -30 19.5 t22 41.5q37 30 75 57q17 15 31 15t31 -15q46 -28 71 -53q27 -23 27 -41z" />
<glyph unicode="&#xf5;" horiz-adv-x="536" d="M432 131q43 0 72 47q21 31 34 41t29 2q19 -11 -6 -53q-55 -98 -135 -98q-33 0 -57 12q-66 -88 -179 -88q-90 0 -145 51.5t-55 138.5q0 91 57.5 148t145.5 59q45 0 67.5 -17t18.5 -50q34 9 61 2q39 -9 61 -45t15 -82q-7 -38 -17 -64q10 -4 33 -4zM244 299q-14 25 -66 25 q-40 0 -77.5 -45t-37.5 -95q0 -55 33.5 -90t89.5 -35q39 0 75.5 18.5t45.5 47.5q-59 34 -76 80t13 94zM338 172q12 25 8 59q-1 15 -10.5 26t-18.5 11q-26 0 -26 -37t47 -59zM178 604q36 0 93 -40t85 -40q23 0 48 18.5t43.5 30t33.5 0.5q9 -11 6 -28.5t-14 -28.5 q-68 -63 -117 -63q-33 -3 -65.5 19t-64.5 45.5t-62 23.5q-48 0 -64 -47q-7 -22 -15 -32t-22 -9q-9 1 -14.5 9.5t-5.5 16.5q0 52 38 88.5t97 36.5z" />
<glyph unicode="&#xf6;" horiz-adv-x="536" d="M432 131q43 0 72 47q21 31 34 41t29 2q19 -11 -6 -53q-55 -98 -135 -98q-33 0 -57 12q-66 -88 -179 -88q-90 0 -145 51.5t-55 138.5q0 91 57.5 148t145.5 59q45 0 67.5 -17t18.5 -50q34 9 61 2q39 -9 61 -45t15 -82q-7 -38 -17 -64q10 -4 33 -4zM244 299q-14 25 -66 25 q-40 0 -77.5 -45t-37.5 -95q0 -55 33.5 -90t89.5 -35q39 0 75.5 18.5t45.5 47.5q-59 34 -76 80t13 94zM338 172q12 25 8 59q-1 15 -10.5 26t-18.5 11q-26 0 -26 -37t47 -59zM117 463q-18 -2 -31.5 13t-13.5 36q-1 20 10.5 32.5t32.5 14.5q17 0 33.5 -12t17.5 -27 q2 -19 -13.5 -37.5t-35.5 -19.5zM315 514q2 -17 -12 -32.5t-33 -16.5q-17 -1 -31 9.5t-16 25.5q-1 17 13.5 37t29.5 22q19 2 33.5 -11.5t15.5 -33.5z" />
<glyph unicode="&#xf7;" horiz-adv-x="448" d="M229 104q25 0 40.5 -14.5t15.5 -40.5q0 -25 -19 -43t-45 -18t-41.5 17t-15.5 40q-1 22 19.5 40.5t45.5 18.5zM238 391q25 0 40 -14.5t15 -40.5q0 -25 -19 -43.5t-45 -18.5t-41.5 17.5t-15.5 40.5q-1 22 20 40.5t46 18.5zM150 170q-20 0 -34.5 12t-11.5 29q1 11 19.5 18 t36.5 7q26 -1 71 -1.5t72 -1.5q16 0 29.5 -9.5t13.5 -22.5q0 -11 -13 -20.5t-30 -10.5q-23 -2 -50 -2t-58.5 1t-44.5 1z" />
<glyph unicode="&#xf8;" horiz-adv-x="536" d="M432 131q43 0 72 47q21 31 34 41t29 2q19 -11 -6 -53q-55 -98 -135 -98q-33 0 -57 12q-66 -88 -179 -88q-19 0 -43 4q-3 -7 -8 -24.5t-10 -32.5q-10 -26 -47 -29q-21 0 -30.5 16t-0.5 37q4 11 14 29.5t13 25.5q-88 50 -88 164q0 91 57.5 148t145.5 59q34 0 53 -8l39 84 q17 27 43 27q23 -1 31 -16.5t-1 -35.5l-6 -14q-32 -51 -57 -100q16 3 45 -2q39 -9 61 -45t15 -82q-7 -38 -17 -64q10 -4 33 -4zM109 84q25 52 106 233q-21 7 -37 7q-40 0 -77.5 -45t-37.5 -95q0 -64 46 -100zM233 199l-59 -140h12q39 0 75.5 18.5t45.5 47.5q-56 30 -74 74z M338 172q12 25 8 59q-1 15 -10.5 26t-18.5 11q-26 0 -26 -37t47 -59z" />
<glyph unicode="&#xf9;" horiz-adv-x="618" d="M344 51q-17 -33 -53.5 -57.5t-83.5 -24.5q-54 0 -91.5 36.5t-37.5 84.5q0 58 13 113.5t24 70.5q-5 0 -17.5 -9t-31 -32t-31.5 -53q-8 -19 -21.5 -27.5t-23.5 -5.5q-24 12 -8 54q35 71 74 110t73 39q26 0 39.5 -15.5t13.5 -37.5q0 -28 -14 -90.5t-14 -97.5q0 -30 19.5 -50 t45.5 -20q53 0 81 52.5t28 121.5q0 21 3 43.5t10.5 47t23 40.5t36.5 16q52 0 52 -92q0 -38 -43 -102q-15 -22 -15 -41q0 -30 19 -55t47 -25q18 0 36 11.5t35.5 35.5t26 37t23.5 39q4 7 11 20.5t11 20.5t10.5 15t12 11.5t12.5 2.5q30 -2 -4 -78q-28 -70 -73.5 -126.5 t-100.5 -56.5q-33 0 -64.5 21.5t-52.5 52.5zM369 483q8 -31 -7 -31q-14 0 -100 46l-8 4l-70 35q-22 13 -25 23q-2 8 1 18q3 13 20.5 18.5t32.5 -0.5q9 -4 25.5 -12.5t19.5 -10.5q104 -57 111 -90z" />
<glyph unicode="&#xfa;" horiz-adv-x="618" d="M344 51q-17 -33 -53.5 -57.5t-83.5 -24.5q-54 0 -91.5 36.5t-37.5 84.5q0 58 13 113.5t24 70.5q-5 0 -17.5 -9t-31 -32t-31.5 -53q-8 -19 -21.5 -27.5t-23.5 -5.5q-24 12 -8 54q35 71 74 110t73 39q26 0 39.5 -15.5t13.5 -37.5q0 -28 -14 -90.5t-14 -97.5q0 -30 19.5 -50 t45.5 -20q53 0 81 52.5t28 121.5q0 21 3 43.5t10.5 47t23 40.5t36.5 16q52 0 52 -92q0 -38 -43 -102q-15 -22 -15 -41q0 -30 19 -55t47 -25q18 0 36 11.5t35.5 35.5t26 37t23.5 39q4 7 11 20.5t11 20.5t10.5 15t12 11.5t12.5 2.5q30 -2 -4 -78q-28 -70 -73.5 -126.5 t-100.5 -56.5q-33 0 -64.5 21.5t-52.5 52.5zM233 416q-29 0 -29 11q1 13 55 71q18 20 22 24l53 58q26 26 45 14q12 -7 13.5 -25.5t-9.5 -31.5q-10 -14 -33 -37q-84 -84 -117 -84z" />
<glyph unicode="&#xfb;" horiz-adv-x="618" d="M344 51q-17 -33 -53.5 -57.5t-83.5 -24.5q-54 0 -91.5 36.5t-37.5 84.5q0 58 13 113.5t24 70.5q-5 0 -17.5 -9t-31 -32t-31.5 -53q-8 -19 -21.5 -27.5t-23.5 -5.5q-24 12 -8 54q35 71 74 110t73 39q26 0 39.5 -15.5t13.5 -37.5q0 -28 -14 -90.5t-14 -97.5q0 -30 19.5 -50 t45.5 -20q53 0 81 52.5t28 121.5q0 21 3 43.5t10.5 47t23 40.5t36.5 16q52 0 52 -92q0 -38 -43 -102q-15 -22 -15 -41q0 -30 19 -55t47 -25q18 0 36 11.5t35.5 35.5t26 37t23.5 39q4 7 11 20.5t11 20.5t10.5 15t12 11.5t12.5 2.5q30 -2 -4 -78q-28 -70 -73.5 -126.5 t-100.5 -56.5q-33 0 -64.5 21.5t-52.5 52.5zM406 479q0 -10 -11 -18t-22 -8q-40 0 -78 49q-20 25 -43 2q-45 -49 -74 -49q-25 0 -30 19.5t22 41.5q28 23 76 57q17 15 30.5 15t30.5 -15q49 -30 72 -53q27 -23 27 -41z" />
<glyph unicode="&#xfc;" horiz-adv-x="618" d="M344 51q-17 -33 -53.5 -57.5t-83.5 -24.5q-54 0 -91.5 36.5t-37.5 84.5q0 58 13 113.5t24 70.5q-5 0 -17.5 -9t-31 -32t-31.5 -53q-8 -19 -21.5 -27.5t-23.5 -5.5q-24 12 -8 54q35 71 74 110t73 39q26 0 39.5 -15.5t13.5 -37.5q0 -28 -14 -90.5t-14 -97.5q0 -30 19.5 -50 t45.5 -20q53 0 81 52.5t28 121.5q0 21 3 43.5t10.5 47t23 40.5t36.5 16q52 0 52 -92q0 -38 -43 -102q-15 -22 -15 -41q0 -30 19 -55t47 -25q18 0 36 11.5t35.5 35.5t26 37t23.5 39q4 7 11 20.5t11 20.5t10.5 15t12 11.5t12.5 2.5q30 -2 -4 -78q-28 -70 -73.5 -126.5 t-100.5 -56.5q-33 0 -64.5 21.5t-52.5 52.5zM172 479q-18 -2 -31.5 13t-13.5 36q-1 20 10.5 32.5t32.5 14.5q18 0 34 -11.5t17 -26.5q2 -19 -13.5 -38t-35.5 -20zM371 530q2 -17 -12 -32.5t-33 -16.5q-17 -1 -31 9.5t-16 25.5q-1 17 13.5 37t29.5 22q19 2 33.5 -11.5 t15.5 -33.5z" />
<glyph unicode="&#xfd;" horiz-adv-x="520" d="M309 63q-2 -2 -12 -11t-15.5 -13t-16.5 -12.5t-20 -13t-21 -9.5t-25 -7.5t-27 -2.5q-44 0 -72 29t-28 81q0 59 26 191q-5 -4 -17.5 -26t-30 -56t-21.5 -41q-9 -18 -27 -18t-21.5 20.5t9.5 40.5q53 109 92 160q17 22 49 22q17 -1 26.5 -14.5t11 -27.5t1.5 -36 q0 -19 -11.5 -94t-11.5 -106q0 -22 13 -37.5t33 -15.5q35 0 70.5 25.5t55.5 60.5q3 6 8.5 38.5t11.5 75.5t11 64q8 42 24 61t42 12q39 -13 39 -63q0 -40 -18.5 -93t-49.5 -97q-8 -8 -20 -103q12 8 32 31t51 62.5t37 47.5q12 14 26 33.5t22 28.5q19 22 38 6q21 -21 -32 -90 q-32 -41 -100.5 -116t-86.5 -101q-5 -8 -8.5 -16t-5.5 -13.5t-3 -16t-1.5 -16t-1.5 -21.5t-2 -24q-6 -89 -56.5 -156t-117.5 -67q-37 1 -59.5 25t-22.5 61q0 46 41 107.5t82 97.5q9 8 34 28t35 30t22 26.5t15 32.5l2 15q2 15 2 21zM143 -315q55 -6 96.5 62t41.5 153 q-57 -36 -97.5 -97.5t-40.5 -117.5zM205 436q-29 0 -29 12q0 13 56 74l9 9q7 8 11 12l53 57q26 26 45 14q12 -7 13.5 -25.5t-9.5 -31.5q-12 -17 -32 -37q-84 -84 -117 -84z" />
<glyph unicode="&#xfe;" horiz-adv-x="452" d="M43 -76q13 127 27 236l16 114q-54 -99 -61 -110q-30 -37 -43 -37q-14 0 -16 16.5t5 28.5q46 98 140 236q4 8 24 131q3 23 7.5 68.5t7.5 68.5q4 26 12 45q9 21 20.5 28t32.5 5q17 -1 25 -20t2 -44q-12 -68 -68 -340q18 18 52 26.5t57 6.5q44 -3 70 -46.5t26 -94.5 q0 -54 -26 -107t-66 -82q-63 -49 -160 -49q-2 -17 -4.5 -34.5t-3.5 -41.5q-2 -67 -11 -95t-34 -28t-31.5 30.5t0.5 88.5zM135 68q70 5 121.5 53.5t52.5 116.5q0 75 -47 75q-32 0 -64 -29t-40 -63q-5 -19 -23 -153z" />
<glyph unicode="&#xff;" horiz-adv-x="520" d="M309 63q-2 -2 -12 -11t-15.5 -13t-16.5 -12.5t-20 -13t-21 -9.5t-25 -7.5t-27 -2.5q-44 0 -72 29t-28 81q0 59 26 191q-5 -4 -17.5 -26t-30 -56t-21.5 -41q-9 -18 -27 -18t-21.5 20.5t9.5 40.5q53 109 92 160q17 22 49 22q17 -1 26.5 -14.5t11 -27.5t1.5 -36 q0 -19 -11.5 -94t-11.5 -106q0 -22 13 -37.5t33 -15.5q35 0 70.5 25.5t55.5 60.5q3 6 8.5 38.5t11.5 75.5t11 64q8 42 24 61t42 12q39 -13 39 -63q0 -40 -18.5 -93t-49.5 -97q-8 -8 -20 -103q12 8 32 31t51 62.5t37 47.5q12 14 26 33.5t22 28.5q19 22 38 6q21 -21 -32 -90 q-32 -41 -100.5 -116t-86.5 -101q-5 -8 -8.5 -16t-5.5 -13.5t-3 -16t-1.5 -16t-1.5 -21.5t-2 -24q-6 -89 -56.5 -156t-117.5 -67q-37 1 -59.5 25t-22.5 61q0 46 41 107.5t82 97.5q9 8 34 28t35 30t22 26.5t15 32.5l2 15q2 15 2 21zM143 -315q55 -6 96.5 62t41.5 153 q-57 -36 -97.5 -97.5t-40.5 -117.5zM182 504q-18 -2 -31.5 13t-13.5 36q-1 20 10.5 32.5t32.5 14.5q17 0 33.5 -12t17.5 -27q2 -19 -13.5 -37.5t-35.5 -19.5zM381 555q2 -17 -12 -32.5t-33 -16.5q-17 -1 -31 9.5t-16 25.5q-1 17 13.5 37t29.5 22q19 2 33.5 -11.5t15.5 -33.5 z" />
<glyph unicode="&#x152;" horiz-adv-x="1273" d="M815 -8q-89 0 -148 38.5t-59 110.5q0 39 25 80l4 6q-4 2 -6 4q-4 2 -13 11q-28 -108 -117.5 -184t-193.5 -76q-150 0 -225.5 93.5t-75.5 243.5q3 156 91 247t229 91q208 0 272 -149q58 84 158.5 141.5t183.5 57.5q70 0 112 -35.5t35 -96.5q-5 -37 -39 -71t-75 -41 q-51 -8 -62 18q-11 32 33 47q28 8 48 25.5t20 38.5q0 23 -25 38t-69 15q-56 0 -122.5 -37.5t-114.5 -100.5t-48 -126q0 -70 47 -94q5 -3 10 2q27 26 68.5 42.5t77.5 16.5q35 0 61.5 -24t26.5 -58q0 -42 -37 -64t-86 -22q-24 0 -49 4t-38 8l-12 5q-14 -14 -14 -37 q0 -46 41.5 -76.5t85.5 -30.5q160 0 262 142q6 8 11.5 18t9 18t8 16.5t8.5 14t9 8.5t11 1.5t13 -7.5q28 -24 -14 -82q-49 -83 -134.5 -136.5t-183.5 -53.5zM330 592q-109 4 -176 -73.5t-72 -186.5q-3 -128 56.5 -203.5t172.5 -75.5q95 0 171.5 83t76.5 177v9q-8 24 -8 40 q-3 15 0 29q-20 91 -79 144.5t-142 56.5zM743 252q9 -4 31 -7t31 -1q12 2 21.5 8.5t9.5 15.5q-2 8 -9 12t-16 3q-14 -2 -35 -11.5t-33 -19.5z" />
<glyph unicode="&#x153;" horiz-adv-x="702" d="M190 -6q-90 0 -145 51.5t-55 138.5q0 91 57.5 148t145.5 59q45 0 67.5 -17t18.5 -50q34 9 61 2q15 -5 35 -17q48 101 145 101q45 0 81 -28t36 -69q0 -50 -37.5 -91t-87 -61t-94.5 -20q1 -39 25.5 -60.5t60.5 -21.5q33 0 61.5 14t52.5 41t38.5 48.5t33.5 54.5t39 23 q25 -8 2 -60q-88 -183 -242 -186q-88 0 -127 80q-64 -80 -172 -80zM244 299q-14 25 -66 25q-40 0 -77.5 -45t-37.5 -95q0 -55 33.5 -90t89.5 -35q39 0 75.5 18.5t45.5 47.5q-59 34 -76 80t13 94zM514 354q-40 0 -65.5 -38.5t-32.5 -86.5q3 -13 0 -26q6 1 18.5 2t18 2t15.5 3 t19.5 5.5t20.5 9.5q23 12 38 34t15 44q0 23 -12.5 37t-34.5 14zM338 172q1 2 2.5 5.5t2.5 6.5t1 6q2 6 2 21v20q-1 15 -10.5 26t-18.5 11q-26 0 -26 -37t47 -59z" />
<glyph unicode="&#x178;" horiz-adv-x="696" d="M489 158q-54 -70 -110 -110t-127 -40q-61 0 -98 37.5t-37 101.5q0 17 2 35.5t4.5 32t8 34.5t8.5 31t10.5 34t9.5 32q4 11 14 41.5t14.5 46t10.5 40t8 45t0 40.5q0 54 -53 57q-37 3 -61 -16.5t-23 -52.5q0 -16 22 -25.5t45 0.5q24 10 35 -18q11 -26 -18.5 -39.5 t-63.5 -13.5t-61 24t-27 57q-5 59 54 109t126 43q42 -4 69 -39t25 -74q-1 -73 -42 -206t-41 -185q0 -40 26 -68t60 -28q35 0 69.5 19.5t61.5 51.5t46.5 63t35.5 65q32 69 26 75q5 150 31.5 227.5t71.5 67.5q28 -6 30.5 -53t-13 -106t-33 -110t-30.5 -75q-3 -6 -10 -55 t-15 -116t-13 -95q86 42 149 170q8 15 19.5 21t23.5 -1q11 -6 6 -26q-16 -58 -68 -125t-112 -96q-41 -20 -41 -23q-6 -75 -38.5 -148.5t-92.5 -126.5t-133 -53q-51 0 -89 27.5t-38 75.5q0 41 26.5 81t68.5 71.5t84 55t83 38.5q43 15 69 48.5t29 78.5q0 8 2.5 23.5t3.5 23.5z M442 -61q-4 -2 -43.5 -21.5t-63.5 -33t-57 -35.5t-50 -44t-17 -43q0 -22 14 -32.5t35 -10.5q69 0 124.5 76.5t57.5 143.5zM340 721q-18 -2 -31.5 13t-13.5 36q-1 20 10.5 32.5t32.5 14.5q17 0 33.5 -12t17.5 -27q2 -19 -13.5 -37.5t-35.5 -19.5zM539 772q2 -17 -12 -32.5 t-33 -16.5q-17 -1 -31.5 9.5t-16.5 25.5q-1 17 13.5 37t29.5 22q19 2 34 -11.5t16 -33.5z" />
<glyph unicode="&#x2c6;" horiz-adv-x="270" d="M260 479q0 -10 -11 -18t-22 -8q-39 0 -77 49q-20 26 -44 2q-45 -49 -73 -49q-25 0 -30 19.5t22 41.5q37 30 75 57q17 15 31 15t31 -15q46 -28 71 -53q27 -23 27 -41z" />
<glyph unicode="&#x2dc;" horiz-adv-x="444" d="M135 604q36 0 93 -40t85 -40q23 0 48 18.5t43.5 30t33.5 0.5q9 -11 6 -28.5t-14 -28.5q-68 -63 -117 -63q-33 -3 -65.5 19t-64.5 45.5t-62 23.5q-48 0 -64 -47q-7 -22 -15 -32t-22 -9q-9 1 -14.5 9.5t-5.5 16.5q0 52 38 88.5t97 36.5z" />
<glyph unicode="&#x2000;" horiz-adv-x="682" />
<glyph unicode="&#x2001;" horiz-adv-x="1365" />
<glyph unicode="&#x2002;" horiz-adv-x="682" />
<glyph unicode="&#x2003;" horiz-adv-x="1365" />
<glyph unicode="&#x2004;" horiz-adv-x="455" />
<glyph unicode="&#x2005;" horiz-adv-x="341" />
<glyph unicode="&#x2006;" horiz-adv-x="227" />
<glyph unicode="&#x2007;" horiz-adv-x="227" />
<glyph unicode="&#x2008;" horiz-adv-x="170" />
<glyph unicode="&#x2009;" horiz-adv-x="273" />
<glyph unicode="&#x200a;" horiz-adv-x="75" />
<glyph unicode="&#x2010;" horiz-adv-x="387" d="M125 190q-19 0 -33.5 12t-11.5 29q1 11 19.5 18t35.5 7q26 -1 71.5 -1t72.5 -1q16 0 29.5 -10t13.5 -23q0 -11 -13 -20.5t-30 -10.5q-23 -2 -50.5 -2t-59 1t-44.5 1z" />
<glyph unicode="&#x2011;" horiz-adv-x="387" d="M125 190q-19 0 -33.5 12t-11.5 29q1 11 19.5 18t35.5 7q26 -1 71.5 -1t72.5 -1q16 0 29.5 -10t13.5 -23q0 -11 -13 -20.5t-30 -10.5q-23 -2 -50.5 -2t-59 1t-44.5 1z" />
<glyph unicode="&#x2012;" horiz-adv-x="387" d="M125 190q-19 0 -33.5 12t-11.5 29q1 11 19.5 18t35.5 7q26 -1 71.5 -1t72.5 -1q16 0 29.5 -10t13.5 -23q0 -11 -13 -20.5t-30 -10.5q-23 -2 -50.5 -2t-59 1t-44.5 1z" />
<glyph unicode="&#x2013;" horiz-adv-x="571" d="M125 190q-19 0 -33.5 12t-11.5 29q1 11 19.5 18t35.5 7q26 -1 164 -1t164 -1q16 0 29.5 -10t13.5 -23q0 -11 -13 -20.5t-30 -10.5q-23 -2 -94.5 -2t-154 1t-89.5 1z" />
<glyph unicode="&#x2014;" horiz-adv-x="735" d="M125 190q-19 0 -33.5 12t-11.5 29q1 11 19.5 18t35.5 7q26 -1 256 -1t256 -1q16 0 29.5 -10t13.5 -23q0 -11 -13 -20.5t-30 -10.5q-18 -1 -98.5 -1.5t-164.5 0t-167.5 1t-91.5 0.5z" />
<glyph unicode="&#x2018;" horiz-adv-x="235" d="M106 614q35 -2 62 -22t27 -53q0 -32 -24 -54.5t-58 -19.5t-53.5 35t-16.5 65q0 47 29.5 99.5t64.5 52.5q19 0 24.5 -15.5t-3.5 -21.5q-44 -32 -52 -66z" />
<glyph unicode="&#x2019;" horiz-adv-x="235" d="M129 565q-35 2 -61.5 22.5t-26.5 53.5q0 32 24 54.5t58 19.5t53.5 -35.5t16.5 -65.5q0 -46 -30 -98.5t-65 -52.5q-18 0 -23.5 15.5t3.5 21.5q43 31 51 65z" />
<glyph unicode="&#x201c;" horiz-adv-x="372" d="M244 614q35 -2 61.5 -22t26.5 -53q0 -32 -24 -54.5t-58 -19.5t-53.5 35t-16.5 65q0 47 29.5 99.5t64.5 52.5q19 0 24.5 -15.5t-3.5 -21.5q-43 -31 -51 -66zM66 614q35 -2 61.5 -22t26.5 -53q0 -32 -24 -54.5t-58 -19.5t-53.5 35t-16.5 65q0 47 29.5 99.5t64.5 52.5 q19 0 24.5 -15.5t-3.5 -21.5q-43 -31 -51 -66z" />
<glyph unicode="&#x201d;" horiz-adv-x="413" d="M129 565q-35 2 -61.5 22.5t-26.5 53.5q0 32 24 54.5t58 19.5t53.5 -35.5t16.5 -65.5q0 -46 -30 -98.5t-65 -52.5q-18 0 -23.5 15.5t3.5 21.5q43 31 51 65zM307 565q-35 2 -61.5 22.5t-26.5 53.5q0 32 24 54.5t58 19.5t53.5 -35.5t16.5 -65.5q0 -46 -30 -98.5t-65 -52.5 q-18 0 -23.5 15.5t3.5 21.5q43 31 51 65z" />
<glyph unicode="&#x201e;" horiz-adv-x="290" d="M88 0q-35 2 -61.5 22.5t-26.5 53.5q0 32 24 54.5t58 19.5t53.5 -35.5t16.5 -65.5q0 -46 -30 -98.5t-65 -52.5q-18 0 -23.5 15t3.5 21q43 31 51 66zM266 0q-35 2 -61.5 22.5t-26.5 53.5q0 32 24 54.5t58 19.5t53.5 -35.5t16.5 -65.5q0 -46 -29.5 -98.5t-64.5 -52.5 q-19 0 -24.5 15t3.5 21q43 31 51 66z" />
<glyph unicode="&#x2022;" horiz-adv-x="399" d="M201 354q46 0 75 -27.5t29 -74.5q0 -46 -35 -80.5t-84 -34.5q-50 0 -78 32t-28 75q-3 39 36.5 74.5t84.5 35.5z" />
<glyph unicode="&#x2026;" horiz-adv-x="509" d="M68 104q25 0 40 -14.5t15 -40.5q0 -25 -19 -43t-45 -18t-41.5 17t-15.5 40q-1 22 20 40.5t46 18.5zM238 104q25 0 40 -14.5t15 -40.5q0 -25 -19 -43t-45 -18t-41.5 17t-15.5 40q-1 22 20 40.5t46 18.5zM408 104q25 0 40 -14.5t15 -40.5q0 -25 -19 -43t-45 -18t-41.5 17 t-15.5 40q-1 22 20 40.5t46 18.5z" />
<glyph unicode="&#x202f;" horiz-adv-x="273" />
<glyph unicode="&#x2039;" horiz-adv-x="202" d="M129 70q-12 -2 -27 6.5t-24 21.5q-28 45 -60 125q-11 21 0 43q22 47 84 146q21 37 50 37q24 0 24 -23q0 -20 -72 -123q-23 -37 -23 -59.5t23 -63.5q4 -8 18.5 -30t18.5 -31q22 -46 -12 -49z" />
<glyph unicode="&#x203a;" horiz-adv-x="202" d="M72 446q12 2 27 -6.5t24 -21.5q25 -41 59 -125q11 -21 0 -43q-22 -47 -84 -146q-20 -36 -49 -36q-24 0 -24 22t71 123q23 37 23 59.5t-23 63.5q-4 8 -18.5 30t-18.5 31q-6 13 -7 23.5t4 17.5t16 8z" />
<glyph unicode="&#x205f;" horiz-adv-x="341" />
<glyph unicode="&#x20ac;" horiz-adv-x="610" d="M-18 303q-18 0 -33.5 9.5t-18.5 21.5q-3 14 10.5 28.5t32.5 14.5q14 0 54 4q43 130 140 218.5t212 88.5q61 0 100 -37t39 -94q0 -89 -92 -192q-17 -17 -40 -17.5t-36 14.5q-14 17 -9 38t28 38q67 34 67 109q0 25 -21 46t-50 21q-76 0 -146 -68.5t-106 -162.5h102 q32 0 41 -31q2 -13 -8.5 -28.5t-26.5 -16.5q-62 -4 -131 -4q-2 -14 -2 -43v-2h88q59 0 62 -35q4 -28 -12.5 -39t-49.5 -8h-84q20 -147 123 -158q80 -8 136.5 53t64.5 138q12 18 22 22q40 8 29 -65q-12 -90 -81.5 -158t-180.5 -61q-185 14 -201 229h-27q-24 0 -32 4 q-31 9 -25 43q11 33 37 35h45q0 3 6 45h-26z" />
<glyph unicode="&#x25fc;" horiz-adv-x="368" d="M0 369h369v-369h-369v369z" />
</font>
</defs>
</svg>
