<?xml version="1.0" standalone="no"?>
<!DOCTYPE svg PUBLIC "-//W3C//DTD SVG 1.1//EN" "http://www.w3.org/Graphics/SVG/1.1/DTD/svg11.dtd" >
<svg xmlns="http://www.w3.org/2000/svg">
<metadata></metadata>
<defs>
<font id="hms_gilbert_displayregular" horiz-adv-x="788" >
<font-face units-per-em="2048" ascent="1536" descent="-512" />
<missing-glyph horiz-adv-x="419" />
<glyph horiz-adv-x="0" />
<glyph horiz-adv-x="682" />
<glyph unicode=" "  horiz-adv-x="419" />
<glyph unicode="&#x09;" horiz-adv-x="419" />
<glyph unicode="&#xa0;" horiz-adv-x="419" />
<glyph unicode="!" horiz-adv-x="335" d="M68 1096q26 -8 43 -11.5t50.5 -2t71.5 13.5q33 9 45 -1t5 -42q-80 -400 -90 -680q0 -13 3 -30.5t4.5 -26.5t-3 -16.5t-17.5 -8.5q-67 -7 -67 59v63v68t-0.5 64.5t-1 71t-2 66t-4 71t-5.5 65t-7.5 69t-10 62.5t-12.5 64q-1 6 -7 23q-18 58 -3 60q4 0 8 -1zM152 -10 q-41 0 -66 22t-25 62q-2 34 26 60t67 26q40 0 63 -24.5t23 -53.5q0 -92 -88 -92z" />
<glyph unicode="&#x22;" horiz-adv-x="389" d="M96 1130q64 -5 75.5 -20.5t-1.5 -81.5q-5 -21 -11 -62t-7 -46q-7 -34 -70 -43q-6 0 -10 -0.5t-6.5 1.5t-4 3.5t-2.5 5.5t-1.5 6.5t-1 8t-1.5 9.5q-6 27 -26 172q-4 32 12 41t55 6zM281 1135q55 -3 70.5 -23t2.5 -84q-5 -21 -11 -62t-7 -46q-7 -35 -64 -43q-8 -1 -12.5 0 t-6.5 4.5t-2.5 7.5t-1 11.5t-1.5 12.5q-21 102 -31 170q-4 33 11 44t53 8z" />
<glyph unicode="#" horiz-adv-x="641" d="M440 240q11 -3 27 -6.5t27 -6t20 -6.5q28 -16 21 -41q-7 -20 -35 -20h-64q-31 2 -47 -29q-16 -39 -53 -115q-10 -19 -19 -24q-17 -7 -34 -4q-22 6 -15 30q8 32 17 48l39 88q-17 0 -65 -1t-62 -1q-8 0 -25 -23q-50 -98 -59 -117q-18 -38 -45 -26q-13 6 -17.5 19.5 t2.5 31.5q7 15 22 57t23 60q-67 -4 -78 12q-4 2 -2 12l2 10q0 7 8.5 15.5t16.5 11.5q11 3 38 3t32 1q36 3 55 35l45 94h-61q-37 0 -48 9t-8 28q11 21 21 28t35 7h57q34 0 50.5 10t23.5 39q5 17 19.5 48.5t17.5 37.5q15 33 40 20q29 -12 11 -45l-54 -100q76 0 109 2 q35 0 47 31q7 13 19.5 39.5t19.5 40.5q19 33 29 45q17 24 43 4q23 -17 10 -41q-26 -51 -53 -109q-8 -12 15 -15q16 -3 52 -3q15 0 23.5 -8t5.5 -21q-3 -14 -16.5 -24.5t-26.5 -10.5q-80 -1 -99.5 -12t-33.5 -55zM416 350h-131q-8 -16 -60 -110h109q22 4 28 16q38 62 54 94z " />
<glyph unicode="$" horiz-adv-x="620" d="M66 334q36 21 62 3.5t19 -67.5q-11 -98 33.5 -172.5t132.5 -74.5q111 0 133 110q7 37 -3.5 73.5t-36 71t-48.5 59.5t-58.5 58t-49.5 47q-45 47 -71 78.5t-56.5 77t-42.5 90.5t-8 92q6 90 52.5 137t121.5 52v63q0 6 -2 18.5t-2 18.5q-4 48 26 66q43 29 86 12 q4 -1 9.5 -11.5t3.5 -15.5l-9 -164q12 -4 24.5 -10t21.5 -11t21.5 -13t19 -12.5t19.5 -14t17 -12.5q2 83 18.5 115t61.5 22l8 -6q0 -49 -14.5 -161t-17.5 -175q0 -6 -6.5 -12.5t-12.5 -6.5q-11 -3 -22 13q-16 21 -20.5 60.5t-8.5 53.5q-11 37 -67.5 71t-108.5 50 q-23 9 -64 1.5t-51 -27.5q-14 -29 -15.5 -59t9.5 -59t28.5 -56t44.5 -55.5t54 -52.5t61 -52q86 -70 134.5 -161t37.5 -189q-12 -91 -63 -156q-49 -61 -143 -78q-20 -145 -54 -145q-18 0 -29.5 53t-11.5 94q-104 22 -161 113q-32 52 -34.5 125.5t32.5 130.5z" />
<glyph unicode="%" horiz-adv-x="1060" d="M29 573q2 94 63.5 159t155.5 65q87 0 139.5 -64t52.5 -145q0 -90 -55.5 -143.5t-142.5 -53.5q-89 0 -152.5 50t-60.5 132zM623 164q2 94 63.5 158.5t155.5 64.5q87 0 139.5 -64t52.5 -145q0 -90 -55.5 -143t-142.5 -53q-89 0 -152.5 50t-60.5 132zM313 -8q-21 0 -31 4 t-9.5 14.5t5 20.5t15.5 30q2 3 5 11.5t5 11.5q53 109 70 139q119 230 157 305l105 209q25 42 35.5 51t44.5 9q8 0 28 1t31.5 0.5t16.5 -3.5q2 -2 2.5 -5t-1 -7t-3 -7.5t-4 -8t-3.5 -5.5q-10 -20 -45 -91t-65.5 -129t-55.5 -100q-80 -131 -176 -346l-8 -16t-8 -19 q-12 -34 -37 -51.5t-74 -17.5zM154 573q0 -43 26 -80.5t60 -37.5q37 0 62.5 39.5t25.5 93.5q0 50 -22 85.5t-62 35.5q-36 0 -63 -40t-27 -96zM748 164q0 -43 26 -81t60 -38q37 0 62.5 39.5t25.5 93.5q0 50 -22 85.5t-62 35.5q-36 0 -63 -39.5t-27 -95.5z" />
<glyph unicode="&#x26;" horiz-adv-x="765" d="M180 410q-7 19 -27 67t-30 83t-10 67q0 72 59.5 124t128.5 52q73 0 124 -43t42 -113q-9 -74 -86 -162q-1 -1 -70 -94q5 -17 18.5 -38t24 -35t35 -43t33.5 -39q62 51 80 110q4 22 -4 31q-11 11 -27.5 16t-24.5 -2l-5.5 -5.5l-7 -7t-7.5 -7t-9.5 -6t-9.5 -2.5t-10 1t-10 7 q-17 14 6 41q58 68 119 41q11 -5 31.5 -17.5t23.5 -13.5q52 -27 88 20q21 34 47 21q4 -3 7.5 -13t1.5 -16q-8 -29 -32 -55.5t-50 -26.5q-2 0 -9.5 -12.5t-19 -31.5t-18.5 -29q-54 -80 -97 -123q38 -38 129 -95q55 -37 68 31q2 17 8.5 26.5t22.5 8.5q28 -4 24 -41 q-1 -30 -32 -70.5t-60 -52.5q-32 -16 -65 -12t-57.5 16t-55.5 37q-53 42 -90 82q-9 -7 -34 -27t-40 -30.5t-36.5 -20.5t-39.5 -10q-86 0 -144 63t-58 142q0 37 12.5 68.5t38.5 57.5t47.5 42.5t56.5 38.5zM279 477q5 5 22.5 23t27 29.5t17.5 23.5q37 49 49 88q12 38 -13.5 71 t-62.5 31q-32 -2 -62 -32t-30 -62q0 -96 52 -172zM346 129q-56 72 -133 219q-61 -43 -61 -137q0 -61 25.5 -106.5t55.5 -45.5q29 0 60.5 22t52.5 48z" />
<glyph unicode="'" horiz-adv-x="204" d="M82 1130q67 -5 84 -22t4 -80q-5 -21 -11 -62t-7 -46q-2 -11 -16 -21t-40 -10q-16 0 -21 1t-8.5 5t-5.5 16q-24 112 -32 172q-4 33 6.5 41.5t46.5 5.5z" />
<glyph unicode="(" horiz-adv-x="339" d="M338 1008q1 -9 -17 -23t-30 -20q-152 -107 -152 -473q0 -382 140 -492l34 -25q14 -8 2 -20q-18 -16 -47 -2q-136 69 -207 211t-73 309q-5 154 59.5 295t183.5 229q12 10 35 19.5t46 10t26 -18.5z" />
<glyph unicode=")" horiz-adv-x="395" d="M23 -66q-1 9 17 23t30 20q151 106 151 515q0 382 -139 491l-35 25q-15 9 -1 20q16 13 46 2q83 -32 143.5 -89t93.5 -129.5t48 -147t16 -158.5q5 -153 -70 -312.5t-194 -248.5q-12 -10 -35 -19.5t-45.5 -10t-25.5 18.5z" />
<glyph unicode="*" horiz-adv-x="522" d="M344 764l-25 -39h105q16 0 30.5 -2.5t28 -13t11.5 -27.5q-2 -27 -39 -31q0 -3 -43 -1l-43 1h-47l16 -28q5 -9 18.5 -28t16.5 -24q15 -19 18 -28q8 -20 5 -37t-15 -21q-31 -11 -49 21q-34 51 -49 80q-18 27 -23 37l-18 -31q-6 -9 -27 -57l-16 -31q-14 -16 -29.5 -21.5 t-26.5 2.5q-25 20 -6 54q16 33 45 82l19 32l-31 2q-4 0 -64 -6h-34q-21 5 -33.5 15.5t-9.5 23.5q3 31 43 31q31 2 92 2h35q-41 66 -52 86q-30 70 3 82q24 15 47 -17q8 -10 15 -21.5t16 -28.5t12 -23l20 -37q2 4 47 86q39 65 72 39q25 -15 8 -49q-6 -16 -23 -42.5t-20 -31.5z " />
<glyph unicode="+" horiz-adv-x="522" d="M287 236l-8 -123q0 -40 -35 -37q-33 3 -33 41q0 10 1.5 42t0.5 50q-1 25 -9.5 32t-33.5 5q-4 0 -64 -6h-34q-21 5 -33.5 15.5t-9.5 23.5q3 30 43 30q31 2 92 2q33 0 39.5 6t9.5 39q4 70 8 111q0 13 6 25q0 1 1.5 5.5t1.5 5.5t2 5t3 4.5t3.5 4t5 3t6.5 1t8 -0.5 q29 -6 29 -39v-100q-1 -9 -1 -20t0.5 -24t0.5 -20q80 -20 137 -2q12 4 20 4q14 -2 32.5 -18.5t17.5 -28.5q-2 -26 -39 -30q-1 0 -86 -6h-82z" />
<glyph unicode="," horiz-adv-x="249" d="M109 -2q-16 5 -31 12q-30 15 -40.5 46.5t-2 62.5t30.5 49q30 19 59.5 17.5t51.5 -29t22 -68.5q0 -76 -35.5 -140.5t-93.5 -88.5q-7 -3 -20 1.5t-19 12.5q-11 19 16 35q42 22 62 90z" />
<glyph unicode="-" horiz-adv-x="522" d="M369 242l-199 4q-10 -1 -44.5 -3.5t-53.5 -2.5q-21 5 -33.5 15.5t-9.5 23.5q3 30 43 30q31 2 92 2q45 0 130.5 2.5t129.5 1.5q16 0 30.5 -2.5t28 -13t11.5 -27.5q-2 -26 -39 -30q0 -3 -43 -2z" />
<glyph unicode="." horiz-adv-x="270" d="M121 -8q-41 0 -66.5 21t-25.5 61q-1 34 31.5 61t72.5 25q27 -2 51.5 -26t24.5 -50q0 -92 -88 -92z" />
<glyph unicode="/" horiz-adv-x="694" d="M106 -8q-21 0 -31 4t-9.5 14.5t5 20.5t15.5 30q8 16 34.5 71.5t45.5 90.5q80 153 248 490l104 209q24 42 35 50.5t45 8.5q14 0 20 -0.5t11.5 -4t4 -10.5t-8.5 -20q-9 -18 -44.5 -90t-66 -129.5t-55.5 -99.5q-46 -75 -132 -249t-134 -282q-2 -4 -8.5 -16t-8.5 -19 q-3 -9 -7 -27t-7.5 -24t-17 -12t-38.5 -6z" />
<glyph unicode="0" horiz-adv-x="868" d="M549 903q-2 2 -7 8.5t-6.5 9.5t-1.5 8.5t5 10.5q14 14 39 10q31 -2 77 -35q152 -123 152 -405q0 -105 -33 -206t-86 -175.5t-123.5 -120t-142.5 -45.5q-80 0 -145 34.5t-105.5 89t-67 125t-36 140.5t-5.5 137q10 177 92 310.5t197 187.5q52 23 92 14q50 -12 50 -57 q0 -13 -7 -17t-18.5 -2t-25 6t-29.5 6.5t-27 0.5q-33 -5 -61 -45q-55 -70 -88.5 -173t-36.5 -214q-4 -130 17 -238.5t74 -180t130 -71.5q61 0 111.5 54t79 132.5t44 154.5t15.5 132q-3 126 -32.5 238t-90.5 176z" />
<glyph unicode="1" horiz-adv-x="616" d="M362 86q0 -31 162 -31q18 0 28 -1.5t21 -8.5t17 -22q-10 -29 -47 -29q-44 0 -135.5 4.5t-120.5 5.5q-40 2 -124.5 -5t-88.5 -7q-13 0 -24.5 9.5t-14.5 27.5q-3 33 33 39q14 2 38.5 -3.5t34.5 -5.5q5 0 16.5 0.5t21 1t19.5 2t15.5 6t5.5 11.5q1 16 21 265.5t32 457.5 q-27 -47 -95 -112t-114 -81q-13 -4 -19.5 5t-6.5 34q0 9 2 16t4 11.5t10 11t14 11t22.5 15t29.5 19.5q61 43 119 110.5t69 141.5q1 9 -4 21t0.5 15t32.5 3q24 0 37 -14t6 -37q-19 -136 -22 -463t5 -424z" />
<glyph unicode="2" horiz-adv-x="702" d="M236 98q14 -7 54 -29.5t69.5 -34t56.5 -11.5q50 -6 98 22q51 32 51 98q0 30 19 35q15 5 29 -1t18 -19q13 -45 12.5 -90t-25.5 -91q-25 -44 -66 -66t-87 -13q-59 12 -143 79q-46 37 -103 52q-36 11 -55 -11q-38 -17 -72 -4q-13 8 -13.5 22.5t7.5 24.5q13 23 35 41 q18 15 58.5 48t61 51t51 46.5t53.5 57.5t44 62q38 60 63 140t31 152q8 98 -41 186t-127 103q-51 -27 -80.5 -84.5t-35 -123.5t2 -129.5t25.5 -112.5l35 -70q13 -25 7 -35.5t-33 -7.5q-25 -4 -48 12q-55 42 -96 138q-22 52 -21.5 131t20.5 153t68 127t113 53 q99 0 170.5 -26.5t110.5 -100.5q61 -104 61 -204q0 -53 -11.5 -102t-35 -93t-48.5 -80.5t-64 -77t-67.5 -68t-74 -68.5t-69.5 -64q-4 -3 -8 -17z" />
<glyph unicode="3" horiz-adv-x="638" d="M389 502q3 -2 7.5 -7t6.5 -6q79 -46 112.5 -102t33.5 -143q0 -73 -28 -135t-73 -101.5t-98.5 -61.5t-105.5 -22q-95 0 -153 69t-58 167q0 52 26 102.5t68 61.5q9 3 22 0t19 -9q4 -4 6 -20.5t0 -26.5q-1 -6 -16 -41q-17 -38 -17.5 -94t11.5 -94q14 -48 68 -56.5t95 23.5 q55 40 84.5 139t20.5 187q-8 79 -123 114q-9 3 -47 -2q-58 -6 -64 23q-5 12 9.5 25t40.5 20q2 0 12 2t16 4q189 51 189 225q0 83 -33.5 152t-87.5 72q-50 3 -90.5 -44t-51.5 -108.5t5 -118.5q1 -4 5 -15t5.5 -16.5t3 -13.5t-1 -13.5t-8.5 -8.5q-12 -6 -28 -0.5t-26 20.5 q-96 150 -16 266q30 45 90 70t117 25q103 0 177 -73t71 -177q0 -44 -13 -79.5t-42.5 -65.5t-53.5 -48t-69 -47l-13 -8q0 -4 -4 -10z" />
<glyph unicode="4" horiz-adv-x="686" d="M203 371q37 7 117.5 15t117.5 15q4 24 10.5 66.5t13.5 93.5t9 68q3 25 8.5 33t24.5 8q19 -1 22.5 -9t1.5 -34q-9 -90 -14 -224q15 2 78 11q9 3 11.5 10.5t1.5 16.5t1 20q0 30 25 33q13 4 25 -3.5t14 -21.5q0 -43 -3.5 -58.5t-21.5 -54.5q-21 -45 -36 -58t-50 -13 q-12 1 -24 3.5t-22.5 5t-14.5 3.5q-4 -54 -4 -76q0 -102 -5 -192q0 -46 -45 -76q-23 -12 -38.5 -8.5t-32.5 26.5q-27 44 -17 105q6 27 23 80t24 90q10 40 1 52t-50 17q-57 5 -168 9q-46 2 -98 -50q-5 -2 -12 -7.5t-8 -6.5q-15 -9 -31.5 -6t-22.5 14q-13 31 19 45 q32 19 60 50.5t53 76.5t38 72t35 78q50 113 82 213q8 24 14 52.5t12.5 63t10.5 52.5q5 21 8 29.5t10 16t16.5 6.5t26.5 -7q24 -8 34 -27t9 -59q-3 -125 -69 -254q-7 -14 -33.5 -65t-41 -78.5t-37.5 -68t-42 -67.5z" />
<glyph unicode="5" horiz-adv-x="710" d="M264 895q-10 -162 -22 -281q67 23 127 23q126 0 198 -61.5t72 -178.5q0 -88 -24.5 -164t-62.5 -126t-85.5 -86t-93 -52t-84.5 -16q-74 0 -130.5 25.5t-86.5 66t-42 85t-5 87.5q3 19 26 23t35 -11q9 -11 12 -28q9 -75 56.5 -116.5t128.5 -41.5q85 0 139.5 68.5t75.5 185.5 q10 77 1 140.5t-43 104t-87 40.5q-44 0 -96.5 -16.5t-84.5 -39.5q-5 -4 -13 -14.5t-13 -13.5q-31 8 -25 41q8 30 21 108.5t18 100.5q17 88 6 159q0 17 -2 25q0 32 20 45t48 -2q118 -64 209 -64q98 0 159 76q19 23 30 30t30 7q7 -18 0 -72q-6 -59 -56.5 -109.5t-115.5 -51.5 q-101 0 -240 104z" />
<glyph unicode="6" horiz-adv-x="579" d="M414 948q-51 -11 -80 -55q-43 -62 -89 -149.5t-65 -151.5q-13 -44 -20 -103q64 41 162 41q72 0 133 -48t80 -115q22 -81 1.5 -160.5t-75.5 -140.5q-46 -53 -123 -77t-139 -3q-66 23 -111.5 79.5t-63 125.5t-20.5 145.5t16 138.5q78 284 281 467q52 44 77 54t52 8 q55 -5 92 -56t17 -100q-12 -31 -45 -74q-11 -14 -30 -16t-32 8q-19 11 -16 57q2 32 1.5 51.5t-2 43t-1.5 30.5zM137 303q0 -64 12.5 -120.5t45 -99t79.5 -42.5q123 0 132 233q0 30 -5 60.5t-17.5 63.5t-38 54t-60.5 21q-58 0 -101.5 -53.5t-46.5 -116.5z" />
<glyph unicode="7" horiz-adv-x="583" d="M424 870q-46 0 -87 0.5t-80 -15t-62 -48.5q-38 -51 -45 -121q-4 -39 -15.5 -48t-48.5 -9q-13 0 -21 10.5t-7 37.5t14 68q31 105 20 203q-1 19 17 29t30 -2q11 -11 24 -18t29.5 -10t27 -4.5t31.5 -2.5t28 -2q92 -6 172 -6q2 1 34.5 25t46.5 30q19 9 37.5 1.5t26.5 -25.5 q9 -18 -1 -44.5t-48 -33.5q-68 -23 -127 -123q-49 -75 -64 -109q-112 -253 -112 -456q0 -137 -13 -166q-15 -30 -79 -43q-46 -9 -55.5 8.5t-4.5 95.5q5 95 74.5 276.5t128.5 295.5q48 88 115 184q0 1 5 8t9 14z" />
<glyph unicode="8" horiz-adv-x="643" d="M14 266q-4 54 15.5 102.5t57 85.5t79 64.5t90.5 50.5q-47 44 -81 102t-45 117.5t17 104.5q66 96 213 96q117 0 191 -59t74 -150q0 -67 -54 -117.5t-125 -74.5q66 -57 124.5 -158t58.5 -176q0 -115 -99.5 -189.5t-230.5 -74.5q-101 0 -188.5 85t-96.5 191zM322 45 q62 0 125 44.5t71 117.5q8 69 -44 138t-140 144q-2 2 -7.5 7t-7.5 6.5t-7 4.5t-8.5 3t-9 -0.5t-11.5 -3.5q-55 -28 -103.5 -92.5t-48.5 -141.5q0 -89 63.5 -158t127.5 -69zM381 625q35 17 56 29t43 32t32 46t10 61q0 56 -46.5 101t-100.5 50q-42 3 -68.5 -7.5t-42.5 -43.5 q-32 -64 8.5 -144t108.5 -124z" />
<glyph unicode="9" horiz-adv-x="690" d="M506 502q-22 -26 -77.5 -54t-94.5 -28q-102 0 -157.5 74.5t-55.5 181.5q0 77 24.5 145t78.5 115t128 47q40 0 70 -12q257 -111 221 -512q-6 -82 -27 -155.5t-58 -138.5t-96 -112t-134 -67q-68 -20 -133 -2q-55 10 -87 49t-32 92q0 48 19 77t48 34q35 5 57.5 -12.5 t22.5 -51.5q0 -69 -39 -115q35 -30 63 -35t66 13q59 25 105.5 108t68.5 167.5t25 152.5q0 15 -6 39zM254 694q0 -88 27 -151.5t77 -63.5q46 0 101 48.5t55 84.5q-1 54 -11.5 115t-37.5 122t-66 77q-46 21 -80.5 -16.5t-49.5 -96.5t-15 -119z" />
<glyph unicode=":" horiz-adv-x="264" d="M121 -8q-92 0 -92 82q-1 34 31.5 61t72.5 25q26 -2 49 -26t23 -50q0 -50 -21.5 -73t-62.5 -19zM213 457q-3 -8 -7 -24.5t-7 -24.5q-24 -46 -66 -43q-46 3 -65 49q-7 17 -9 28q-12 61 27 80q24 12 56.5 8t47.5 -22q7 -8 23 -51z" />
<glyph unicode=";" horiz-adv-x="262" d="M109 -2q-16 5 -31 12q-30 15 -40.5 46.5t-2 62.5t30.5 49q25 19 63 8.5t55 -41.5q15 -26 15 -47q-3 -101 -64 -190q-17 -22 -65 -39q-7 -3 -20 1.5t-19 12.5q-11 19 16 35q42 22 62 90zM197 397q-27 -50 -74 -47q-49 3 -72 53q-15 26 -11.5 64.5t32.5 52.5q27 14 62 10 t52 -24q24 -27 24.5 -55.5t-13.5 -53.5z" />
<glyph unicode="&#x3c;" horiz-adv-x="307" d="M100 332q41 -41 103 -84q41 -32 58.5 -52t17.5 -38q0 -33 -28 -35.5t-40 24.5q-2 6 -9 14t-18.5 19.5t-23 22t-28 24.5t-27.5 24t-28.5 24.5t-25.5 21.5q-24 24 -23 33t27 35q22 22 65 56.5t64 53.5q5 4 27 26.5t29 26.5q23 11 34 0q11 -12 -1 -29.5t-49 -52.5 q-8 -8 -13 -12q-15 -15 -59.5 -55.5t-51.5 -46.5z" />
<glyph unicode="=" horiz-adv-x="522" d="M369 242l-199 4q-4 0 -64 -6h-34q-21 5 -33.5 15.5t-9.5 23.5q3 30 43 30q31 2 92 2q45 0 130.5 2.5t129.5 1.5q16 0 30.5 -2.5t28 -13t11.5 -27.5q-2 -26 -39 -30q0 -3 -43 -2zM369 406l-199 4q-12 0 -36.5 -3.5t-27.5 -3.5h-34q-21 5 -33.5 15.5t-9.5 23.5q3 31 43 31 q31 2 92 2q45 0 130.5 2.5t129.5 1.5q16 0 30.5 -2.5t28 -13t11.5 -27.5q-2 -26 -39 -30q0 -3 -43 -2z" />
<glyph unicode="&#x3e;" horiz-adv-x="307" d="M211 328q-43 43 -102 84q-60 46 -69 60q-7 10 -7 22q0 33 27.5 35t39.5 -25q2 -6 9 -14t18.5 -19.5t23 -22t28 -24.5t27.5 -24t28.5 -24.5t25.5 -21.5q24 -24 23 -32.5t-27 -34.5q-22 -22 -65.5 -57.5t-63.5 -53.5q-5 -4 -26.5 -26.5t-28.5 -26.5q-23 -12 -35 0 q-11 12 1 29.5t49 52.5q8 8 13 12q7 7 31.5 32t45.5 46t34 33z" />
<glyph unicode="?" horiz-adv-x="567" d="M395 858q8 36 8 90q0 64 -26.5 119t-69.5 55q-54 0 -102 -77.5t-51 -139.5q-3 -61 10 -110q27 -89 29 -101q2 -8 -3 -28q-8 -19 -21 -20t-24 16q-34 49 -50.5 82.5t-26.5 80.5q-17 79 -17 111q0 93 79 160t181 67q58 0 96.5 -26t67.5 -80q38 -66 41 -162 q0 -64 -17 -123.5t-47 -114t-62.5 -105t-72.5 -118.5t-67 -133q-3 -7 -5 -23.5t-5 -23.5q-8 -22 -29 -27q-9 0 -20 11t-11 28q0 24 13 72t32 82q48 85 80 158q75 172 90 280zM211 -8q-41 0 -66.5 21t-25.5 61q-1 34 31.5 61t72.5 25q27 -2 51.5 -26t24.5 -50q0 -92 -88 -92z " />
<glyph unicode="@" horiz-adv-x="688" d="M438 268q-24 -33 -56 -48.5t-79 -24.5q-33 -7 -66 8t-51 45q-31 55 -11 136t79 118q26 16 67.5 16.5t67.5 -12.5q46 -24 62 -49t16 -78q0 -34 3.5 -45t18.5 -15q27 -7 54.5 7.5t36.5 38.5q24 65 2 131q-22 57 -54.5 93t-87.5 46q-117 23 -194 -23q-88 -56 -123 -159 q-38 -101 -27 -193q11 -65 63 -116t117 -58q144 -17 228 64q15 13 28.5 8t18.5 -25q10 -45 -31 -72q-87 -55 -217 -55q-115 0 -199 81t-84 224q0 74 25 145t70 129t117 93t159 35q91 0 161 -60t96 -148.5t1 -170.5q-12 -39 -34.5 -57t-61.5 -19q-10 -1 -28.5 -3.5t-30.5 -4 t-27.5 2.5t-28.5 15zM391 356q0 11 1 23t1 19.5t-2 15.5q-3 12 -15 25t-26 14q-39 4 -53 -4q-41 -19 -58 -72.5t5 -93.5q23 -41 63 -27q37 13 60.5 39t23.5 61z" />
<glyph unicode="A" horiz-adv-x="970" d="M621 66l-66 290l-176 19q-13 -43 -41 -145.5t-45 -157.5q26 -10 72 -15q14 0 20 -0.5t16 -2.5t14.5 -8.5t4.5 -16.5q0 -7 -2.5 -11.5t-7.5 -7t-8 -3.5t-10 -2l-7 -1q-30 -4 -42.5 -3.5t-40 4t-50.5 3.5q-3 0 -96 -5t-115 -1q-13 2 -22.5 11.5t-6.5 23.5q5 29 43 18 q30 -8 92 3t72 12q4 12 18 50.5t19.5 55t17 50t17.5 55.5t13 51.5t11 56.5q-34 12 -41.5 9.5t-19.5 -31.5q-7 -18 -20 -20.5t-25 11.5q-18 20 -15.5 43.5t23.5 36.5t55 17q8 2 18 2t23 -1t21 -1q24 98 45 170q2 9 9 37.5t9 44.5l31 163q6 44 -37 52q-108 21 -184 4 q-56 -13 -69.5 -34t-2.5 -77q-19 -27 -45 -4q-26 25 -27 57.5t25 61.5q56 59 145 59q36 1 152 -8q21 -2 66.5 -9t72.5 -10t70 -2t84 9q16 3 31 -2.5t16 -18.5q3 -38 -51 -45q-32 -5 -51 -10q0 -34 6 -55q27 -111 48.5 -240t43.5 -285.5t37 -242.5q52 -14 123 -11 q27 2 53.5 -4t26.5 -28q0 -21 -37 -25q-28 -2 -50.5 -1.5t-76.5 2t-90 1.5q-17 1 -81.5 -2.5t-74.5 -3.5q-34 0 -37 29q0 31 35 34q4 0 33 2.5t39 2.5zM541 438q2 81 -24 252.5t-44 198.5q11 -69 -3.5 -145.5t-40 -162t-32.5 -141.5q74 -29 144 -2z" />
<glyph unicode="B" horiz-adv-x="952" d="M221 61q12 54 12 66l15 373l6 358q2 16 2 43q-32 0 -83 -1t-79 -1q-15 0 -39 4q-26 9 -27 20q0 3 1 7q3 14 28 22q20 4 72 4q43 0 82.5 1t66 2.5t63.5 5t53 5t58.5 6.5t57.5 7q67 8 142.5 -8t129.5 -53q122 -85 90 -201q-21 -75 -98 -135q-28 -22 -67 -49q-12 -7 -58 -43 q93 -11 166 -58q65 -45 72 -100q14 -120 -78 -209q-75 -72 -167 -98.5t-206 -26.5q-21 0 -71.5 2t-69.5 2q-27 0 -110.5 -7.5t-104.5 -8.5h-6q-2 0 -12 0.5t-13.5 1.5t-9 6t-6.5 14q-3 26 45 33q30 2 77 8t66 8zM375 514q24 3 84 -2q75 0 124 18t87 66q35 42 43.5 92 t-0.5 103q-11 140 -264 129q-59 -3 -70 -13.5t-10 -64.5q0 -10 6 -250v-78zM369 74q11 1 42.5 -1.5t57.5 -0.5q45 3 113 24t102 64q61 74 39 178q-8 33 -72 75t-116 42q-101 0 -156 -4q-14 -126 -10 -377z" />
<glyph unicode="C" horiz-adv-x="702" d="M582 877q15 108 16 122q7 33 33 31q3 0 5 -0.5t4 -1.5t3 -2l2 -2t2 -3l1.5 -3t1.5 -4t1 -4.5t1 -5t1 -5.5q2 -12 2 -34q7 -95 4 -172q0 -39 -16 -109q-1 -7 -11 -13.5t-18 -8.5q-10 -1 -15 5.5t-9 18.5l-37 111q-24 87 -107 129q-18 9 -46 3t-44 -20q-54 -42 -87 -130.5 t-41.5 -164t-8.5 -155.5q0 -116 15.5 -184.5t52.5 -153.5q10 -24 38.5 -51.5t53.5 -40.5q5 -4 27 -5t30 1q50 11 72.5 43.5t42.5 101.5q2 8 5.5 23.5t5.5 25t6 19.5t9.5 13.5t12.5 0.5q26 -11 37.5 -49t1.5 -66q-57 -164 -246 -164q-55 0 -106 25t-88.5 65.5t-63.5 85.5 t-39 89q-26 98 -23 215q3 107 31 214.5t72 182.5q55 91 151 129q71 28 153.5 -3.5t111.5 -98.5z" />
<glyph unicode="D" horiz-adv-x="882" d="M248 942q-26 0 -82.5 -6t-69.5 -10q-30 -13 -59 6q-11 11 -8 20q0 5 5 10.5t11 6.5q71 21 193 23t196 -11q156 -24 242.5 -93t116.5 -210q37 -149 18 -311q-22 -197 -217 -326q-29 -19 -73 -28t-73 -10t-86.5 1t-70.5 2q-34 0 -89.5 -4t-79 -4.5t-67.5 6.5q-22 4 -24 19 q-1 13 8 19.5t22 6.5l117 4q6 0 22 3t27 3q9 143 10.5 439.5t10.5 443.5zM360 59h89q64 6 116.5 48.5t71.5 113.5q31 113 31 322q5 183 -66 280t-227 109q4 -58 4 -80q-1 -40 0.5 -141.5t-0.5 -141.5q-2 -81 -9.5 -230t-9.5 -185v-95z" />
<glyph unicode="E" horiz-adv-x="780" d="M217 924q-57 0 -131 4q-35 4 -47 16q-14 9 -10.5 21.5t20.5 15.5q6 2 23 2q24 1 117.5 -4t115.5 -4q41 0 70 2t64 6t65 6q31 4 64 4.5t76.5 -1t64.5 -1.5q41 -3 41 -43l-13 -256q-38 -10 -51 19q-3 9 -2 29.5t-2 29.5q-24 74 -31 88q-44 78 -127 66q-14 -2 -74 -4.5 t-75 -4.5q-8 -36 -8.5 -110.5t-1.5 -83.5q0 -21 -5 -191q17 0 67.5 -1t64.5 -1q31 0 34 31l4 25q0 34 29 34q15 0 29.5 -16t11.5 -31q-15 -62 -4 -155q5 -36 -18 -39q-15 0 -41 22q-3 2 -4.5 5.5t-3.5 9t-3 8.5q-14 27 -64 38.5t-79 -1.5q-23 -8 -23 -33q0 -15 -1 -43 t-1 -41q2 -76 2 -225q1 -7 -0.5 -36t-1.5 -32q38 -9 107 -7t102 11q56 18 81.5 92.5t23.5 122.5q-3 38 35 41q5 0 8 -1.5t4.5 -6t2 -7.5t1 -11t0.5 -13q4 -184 8 -276q-23 0 -70.5 -1t-72.5 -1q-43 0 -145 2t-146 2q-29 1 -106.5 -1.5t-106.5 1.5q-25 2 -40 18.5t-1 32.5 q29 11 81 7.5t81 2.5q15 47 20 423t-8 444z" />
<glyph unicode="F" horiz-adv-x="759" d="M393 459l-4 -350q0 -26 33.5 -38.5t74 -14t74 -8.5t33.5 -23q0 -27 -69 -27h-5q-20 -1 -61 2t-61 2q-7 0 -60 2.5t-59 -0.5q-34 -4 -67.5 -6t-76 -3t-53.5 -1q-11 -4 -18 0q-19 10 -19 20q-3 12 13 23q3 1 53 8q45 0 53 2q40 5 56 21.5t16 54.5q10 143 10 256 q4 230 4 346q2 63 -2 190q-113 6 -137 3q-4 0 -32 -8.5t-45 -6.5t-17 21q0 17 11 29.5t28 15.5q40 12 85 12.5t101 -5t84 -5.5q46 0 153 7t162 3q2 0 7 -1t8 -1q38 -3 48.5 -15t10.5 -51q0 -13 1.5 -53.5t0.5 -62.5q0 -49 -22 -62q-23 -9 -46 39q-10 20 -24.5 59.5 t-24.5 59.5q-16 30 -53 27q-15 0 -74 -2.5t-77 -2.5q-7 -72 -7 -118q-2 -38 -2 -226q-1 -32 5.5 -38.5t37.5 -8.5q90 0 107 54q1 2 4 20.5t8 26.5q8 21 23 24q24 3 30 -26q1 -3 1 -11t1 -12l7 -229q5 -37 -21 -39q-21 -5 -31 30q-22 56 -37 72q-32 39 -139 25z" />
<glyph unicode="G" horiz-adv-x="675" d="M449 281q-9 4 -30.5 9.5t-33 12.5t-8.5 21q1 11 10.5 15.5t20 4.5t24.5 -1.5t19 -0.5q51 8 67 12q40 7 60 -14t20 -64q0 -23 -4.5 -65.5t-5.5 -60.5q-8 -167 -90 -367q-7 -17 -18.5 -37t-18.5 -31t-24 -36t-21 -31q-20 -28 -31 -33q-6 -3 -15 -1.5t-12 5.5q-1 5 -1 6.5 t4.5 9.5t5.5 9q86 183 86 350q-10 -10 -31 -10q-80 -12 -144 12.5t-104 72t-66 114.5t-36.5 133t-10.5 133q0 154 43.5 293t147.5 225q77 64 174 39q14 -4 40 -25.5t40 -26.5q24 -34 33 32q3 16 5 49q4 41 7 42q38 11 45 10q13 -1 16 -21.5t0 -43.5q0 -18 1 -76t1 -76 q0 -56 -6 -112q0 -7 -8.5 -16t-13.5 -9q-28 4 -47 19q-5 4 -15 36l-39 84q-43 83 -108 78q-49 -5 -87 -64.5t-57.5 -143t-28.5 -156t-9 -123.5q0 -65 12 -135t34.5 -136t62.5 -108.5t89 -42.5q27 2 44.5 19.5t17.5 45.5q0 4 -6 175z" />
<glyph unicode="H" horiz-adv-x="1017" d="M662 500q0 28 2.5 88t1.5 90q0 18 0.5 54t0.5 65t-1 53q-1 15 -6 25.5t-17.5 17.5t-21 10t-27.5 8t-23 9q-3 4 -7.5 7t-6 6t-0.5 7q0 7 8.5 15t16.5 10q19 1 70.5 -4t66.5 -5q21 0 104 6t117 7q14 0 23 -5t6 -16q-1 -9 -10 -17.5t-17 -10.5q-33 -10 -63 -7 q-20 0 -43.5 -6.5t-28.5 -11.5q-29 -29 -25 -78q7 -83 10 -171t4.5 -216.5t2.5 -171.5q0 -34 10 -176q1 -20 15.5 -25.5t41.5 -5.5q15 0 49.5 -1t42.5 -1q33 0 33 -26q0 -23 -37 -27q-39 -5 -112 0.5t-90 5.5q-30 0 -86 -2t-74 -2q-13 0 -19 0.5t-13.5 5.5t-8.5 16 q-2 11 6.5 18.5t17 10.5t21.5 6q3 1 40.5 3t41.5 3v107l-12 221q0 17 -16.5 28t-37.5 11h-250q1 -59 -4 -171t-4 -167q0 -13 6.5 -17.5t22.5 -6.5t47 -8t51 -7q1 0 6 -0.5t6.5 -1t5.5 -1t6 -1.5t4.5 -2.5t4 -3.5t3 -5t1.5 -7q0 -29 -37 -33q-24 -2 -73 2q-30 1 -58 3t-59 3 q-33 0 -107.5 -4t-107.5 -4q-9 0 -25 4q-12 3 -15 13t3 20q16 24 49 24q63 0 92 2q27 1 34.5 8.5t10.5 34.5q2 12 2 68v141l9 260q4 168 4 254q0 29 -7 45q-4 18 -18 25q-22 6 -76.5 15.5t-66.5 11.5q-4 1 -12.5 1t-12.5 1q-15 5 -18 21.5t10 25.5q21 12 80 6q12 -1 43.5 -5 t39.5 -4.5t31.5 -3t30 -2.5t24.5 -1t25.5 -0.5t22 1.5t25.5 3t25 4t30 6q31 7 53 4q9 -2 18.5 -8t10.5 -13q2 -6 -3.5 -15.5t-11.5 -10.5q-125 -22 -125 -55q-4 -66 3 -189.5t4 -187.5h297z" />
<glyph unicode="I" horiz-adv-x="557" d="M350 911v-297q-4 -254 -4 -383q0 -31 4 -153q0 -23 133 -31h21q26 -13 22 -33q-8 -26 -30 -24q-126 8 -205 8q-50 0 -115.5 -4.5t-89.5 -3.5q-28 0 -47.5 10.5t-5.5 30.5q20 15 67.5 20t83 8.5t35.5 16.5q1 20 3.5 63.5t2 58.5t-3.5 64q-1 19 0.5 53t1.5 45q0 21 -1 65.5 t-1 66.5q0 45 1 134.5t1 133.5q0 39 -4 117q-1 22 -10 30t-29 8h-53q-38 0 -59 7q-10 4 -19 12t-8 16t12 15.5t21 9.5q20 2 67 -2q19 0 66.5 -6t73.5 -6q34 -1 96.5 3t89.5 3q22 0 43 -6q27 -7 18 -29q-10 -19 -24 -19q-12 -2 -68 -2h-86z" />
<glyph unicode="J" horiz-adv-x="638" d="M76 850q-20 -16 -34.5 3.5t-14.5 43.5t11.5 45t29.5 27q41 7 76 5.5t101 -6.5t95 -5q57 0 137 9t86 9q47 3 47 -31q3 -32 -49 -32q-35 -3 -82 -3q-29 0 -41 -11.5t-12 -43.5q4 -114 4 -145q0 -215 -2 -258q-13 -190 -57 -334q-26 -85 -82 -189q-54 -99 -135 -180l-6 -5 q-7 -5 -9 -6t-7.5 -3.5t-9 -2.5t-8.5 1.5t-10 5.5q-22 20 5 51q4 6 55 82q106 171 117 442q1 1 1 172l-1 171q-2 66 -2 180q0 35 -19.5 50.5t-60.5 20.5q-43 6 -70 5t-41 -13q-13 -12 -11.5 -33t-0.5 -22z" />
<glyph unicode="K" horiz-adv-x="970" d="M473 971q2 -15 0 -23t-11.5 -11.5t-18.5 -4.5t-29.5 -1.5t-36.5 -2.5q-26 -6 -34 -19.5t-11 -60.5q-5 -79 -0.5 -190.5t14.5 -139.5q33 0 70 37q154 150 219 291q6 15 9.5 25.5t5 22.5t-4.5 19.5t-18 10.5q-40 8 -82 8q-20 0 -28 10.5t-5 22t10 14.5q14 14 199 -8 q20 -2 42.5 1t50 9t42.5 8q79 10 86 -18q4 -19 -23 -31t-73 -12q-57 0 -78.5 -14t-52.5 -72q-29 -55 -100.5 -149.5t-127.5 -149.5l56 -21q86 -39 137 -155q14 -31 43 -131t43 -132q13 -29 27 -32t32 12q5 4 14 15.5t15 18t16 6.5t21 -13q-2 -28 -26.5 -59t-65.5 -52 q-54 -25 -110.5 0.5t-76.5 81.5q-16 44 -29.5 92t-29 111.5t-23.5 93.5q-4 16 -32 70q-18 30 -66 18q-25 -6 -62.5 -39.5t-37.5 -54.5v-303q39 -3 164 -17q21 -1 26.5 -9t3.5 -24q0 -3 -1 -5.5t-2.5 -4l-3 -3t-4.5 -2.5t-5 -1.5t-5.5 -1t-5.5 -1t-6 -1t-6 -0.5 q-30 -1 -99 3.5t-105 2.5q-30 -1 -92.5 -9t-92.5 -9q-55 -6 -63 10q-12 24 37 39q27 4 73 8q35 0 47.5 10t12.5 43q1 39 1 123t1 123q0 48 -0.5 137t-0.5 162t1 137v56q-2 38 -16 57.5t-50 26.5q-22 4 -84 10q-14 0 -21.5 9t-6.5 22q3 22 32 22q29 -1 91 -8.5t105.5 -6.5 t86.5 15q57 19 93 15t36 -27z" />
<glyph unicode="L" horiz-adv-x="804" d="M281 2q-25 -1 -97 -13.5t-104 -11.5q-24 1 -35.5 11t-9.5 28q3 29 47 29q26 0 93.5 10.5t96.5 10.5q9 56 9 110q7 175 6 244q-1 84 -7 237.5t-8 212.5q-4 40 -4 66q-40 16 -82.5 13t-79.5 -19q-38 -17 -22 -60q1 -3 6 -15t6 -19q1 -6 -4 -31q-29 6 -31 8q-45 55 -28 119 q15 58 96 69q101 13 229 -4q124 -15 205 7q13 4 39 8q25 3 35 -23q7 -21 -21 -33q-71 -39 -170 -32q-32 4 -34 4q-13 -22 -16 -180t0 -339t10 -339q15 1 62.5 -2t86.5 -1.5t61 11.5q47 28 56 51q5 13 9 26t6.5 30t4 25.5t2 31t0.5 26.5v31.5v28.5q0 7 -1.5 18.5t-2 18t3 14 t11.5 12.5q19 13 35 11t20 -23q7 -27 2 -94q-7 -77 14 -254q5 -30 -8.5 -43t-42.5 -4q-132 40 -444 18z" />
<glyph unicode="M" horiz-adv-x="1255" d="M639 287q39 107 53 149l19 56l75 217q35 130 76 219q9 18 19 28t25.5 13t27.5 3t39.5 -1.5t46.5 -1.5q22 0 73 9.5t64 8.5q37 -1 47 -19t-5 -35.5t-38 -17.5q-43 0 -74 -8q-32 -7 -44.5 -20.5t-18.5 -44.5q-6 -50 -6 -64q0 -63 -1 -298.5t-1 -360.5q0 -38 20 -55.5 t60 -20.5q28 0 49 1t23.5 1.5t11.5 -0.5q1 0 6.5 -0.5t7.5 -1t6.5 -1t6.5 -1.5t6 -2t5.5 -3t4 -4.5t3.5 -6t1 -7.5q1 -11 -6.5 -18t-14 -9t-18.5 -3q-41 -4 -112 4t-113 8q-26 0 -102 -4.5t-118 -1.5q-11 0 -18 8.5t-6 20.5q1 4 9.5 10t14.5 8h64q62 6 65 65q10 236 21 445 l6 186q0 56 -14 111l-31 -84l-37 -107q-37 -101 -87.5 -291.5t-74.5 -265.5q-3 -8 -8 -32q-16 -62 -72 -62q-32 3 -40 37q-23 82 -63 274t-71 293q-20 65 -41 156q-17 95 -18 98q-6 -70 -6 -205q0 -49 2 -144.5t2 -164.5q0 -35 -2 -113t-2 -114q-1 -24 22 -41.5t54 -22.5 q42 -6 48 -12q7 -7 7 -24q0 -23 -39 -23q-30 0 -69 6t-68 6q-33 0 -219 -12q-45 0 -45 27q0 10 5.5 16t12.5 6q83 0 154 19q62 17 65 79q19 249 17 383q-3 163 -9 320q0 21 -6 39q-12 34 -51 37q-67 4 -102 14q-13 3 -27.5 11t-11.5 20q4 16 51 12q142 -10 147 -10 q16 0 61.5 9t47.5 9q41 0 60.5 -20t29.5 -78q26 -150 59 -238q53 -155 97 -354q4 -8 4 -12q4 -2 8 -2z" />
<glyph unicode="N" horiz-adv-x="1146" d="M340 834q-1 -13 -3 -36.5t-3 -42.5t0 -36q0 -43 3.5 -124t4.5 -106q1 -22 -0.5 -63.5t-1.5 -54.5v-162q0 -35 1 -51t6.5 -37t17.5 -41q9 -16 36.5 -22t66.5 -7t48 -2q37 -8 49 -18q14 -10 10.5 -23t-20.5 -16q-20 -6 -68 -6q-28 0 -88.5 5t-87.5 5q-20 1 -107.5 -7.5 t-92.5 -8.5h-23q-21 17 -25 28q-1 3 6 11.5t13 11.5q16 4 69 11t64 9q25 5 35 8t19.5 13.5t9.5 29.5v359q0 115 -3 229q0 69 -4 201q0 29 -24 39q-9 4 -24.5 6.5t-35.5 3t-35 1t-35 0t-24 -0.5q-15 0 -39 -4q-10 0 -13.5 1t-7 5t-5.5 14q-1 13 6.5 19t21.5 8q17 4 38.5 4 t52 -2t49.5 -2q118 0 151 -4q60 -8 108 -39.5t74 -83.5q109 -228 211 -498q38 -101 84 -194q8 -20 31 -39q0 1 1 45t-1 45q0 223 -2 334q0 97 -4 293q-1 47 -13.5 58.5t-64.5 17.5q-78 10 -113 10q-18 -1 -19 17q-2 22 17 30q3 1 7 2q27 3 118 -3.5t115 -4.5q23 1 68.5 6.5 t64.5 6t68 -4.5q6 0 13.5 -8t6.5 -15q-3 -13 -24 -18q-113 -11 -133 -12q-35 -3 -35 -37q-8 -218 -8 -328q0 -120 8 -358q0 -26 -6 -88.5t-5 -98.5q-1 0 -7 -4t-9 -4q-13 0 -59.5 -4t-59.5 0q-9 1 -19.5 11t-15.5 20q-40 78 -108 225t-102 215l-93 189l-94 169q-3 3 -8 3z " />
<glyph unicode="O" horiz-adv-x="823" d="M778 502q-4 -91 -25.5 -175t-63 -161t-114.5 -123.5t-169 -46.5q-81 0 -144.5 28t-104 74t-67 109.5t-37 130t-10.5 141.5q0 67 14.5 138.5t46 141t74.5 124t106 88t136 33.5q90 2 162.5 -44t114.5 -121t63 -162.5t18 -174.5zM428 938q-44 0 -79 -18t-58 -44.5t-40.5 -69 t-26.5 -79.5t-15 -88t-7.5 -83t-2.5 -75q1 -67 6 -121t19.5 -113.5t36.5 -99.5t61 -66t90 -26q48 0 88 45t64 112t37.5 135t14.5 122q0 57 -0.5 88t-4 88t-10 91t-20.5 77t-33.5 67t-50 41t-69.5 17z" />
<glyph unicode="P" horiz-adv-x="808" d="M244 944q-17 -1 -62 -7t-51 -7q-35 -6 -47 -4q-23 5 -29 20q-5 11 2.5 18t18.5 9q64 15 151 24q21 2 127 2q116 -3 209 -22q94 -21 151.5 -94.5t65.5 -163.5q3 -62 -2 -109q-9 -111 -96 -174q-105 -77 -207 -80q-16 0 -35 -2t-43 -5.5t-37 -4.5l-6 -76l-6 -141 q0 -2 -0.5 -11.5t0 -13.5t1.5 -11t4.5 -12t8.5 -9q20 -9 46 -13.5t53.5 -6.5t32.5 -3l21 -3t15.5 -8t8.5 -18t-6.5 -16t-21.5 -6.5t-17 -1.5q-84 -14 -193 12q-59 12 -172 -12q-27 -7 -72 0q-13 0 -22 8.5t-6 22.5q5 22 32 22q20 0 56 4q47 0 76 23.5t30 68.5q17 282 17 303 q1 36 -0.5 103t-1.5 88l8 190q0 17 -1 56t-1 61zM362 424q32 -11 115 -6q68 4 101.5 32.5t52.5 96.5q21 77 10 213q-4 51 -20.5 85.5t-36.5 52.5t-58 27.5t-66.5 11t-80.5 1.5q-2 -78 -17 -514z" />
<glyph unicode="Q" horiz-adv-x="751" d="M53 477q4 189 43 322q37 122 148 186q30 18 69 21q40 4 60 4q165 0 250 -136q89 -143 75 -342q-12 -194 -33 -277q-51 -199 -209 -247q-20 -6 -42 -10q-32 -4 -52 -4q-74 0 -131 31.5t-90 79.5t-54 114.5t-28 128.5t-6 129zM381 950q-86 -7 -119 -55.5t-47 -142.5 q-22 -125 -18 -297v-44t0.5 -50.5t2 -52t4.5 -54.5t8.5 -51t13.5 -49t20.5 -40.5t28.5 -34t37.5 -20.5t47.5 -8q42 0 74.5 17.5t53.5 42.5t35.5 69t21.5 78t11 90.5t4.5 86t0.5 83.5v10q0 23 1.5 66.5t2 72t-1.5 69t-8 67.5t-19 57.5t-32.5 48t-50.5 29.5t-72 12zM156 -129 q29 -17 10 -45q-9 -11 -28.5 -6.5t-31.5 20.5q-28 38 -8 66q36 46 111 43q17 0 38 -4.5t31.5 -7.5t37.5 -13t32 -12q11 -4 39 -14t37 -13.5t31 -10t33 -8.5t28.5 -4.5t32.5 -2t31 3.5q-22 28 -6.5 66t53.5 38q26 1 45.5 -22t19.5 -54q0 -47 -41 -71q-63 -36 -219 2 q-67 15 -168 59q-72 29 -108 -10z" />
<glyph unicode="R" horiz-adv-x="978" d="M385 385q0 -162 4 -238q4 -55 40.5 -78.5t115.5 -23.5q35 0 43 -27q6 -18 -3.5 -24t-31.5 -6q-45 0 -126 10t-120 10q-14 0 -103 -9t-118 -9q-33 0 -47.5 10.5t-7.5 30.5q2 6 9 9.5t19 5.5t21 3t24.5 1.5t20.5 0.5q85 4 96 17q20 23 27 79q12 118 12 299v248q0 15 0.5 54 t0.5 59.5t-2.5 52t-8.5 58.5h-70q-4 0 -15 -1t-18.5 -0.5t-13.5 3.5q-10 2 -20 28q0 3 7 10.5t11 8.5q14 4 45 4q90 2 275 2q131 0 262 -35q12 -3 51 -27q117 -91 96 -235q-17 -117 -115 -199q-34 -29 -127 -74q47 -67 96 -181.5t64 -135.5q13 -20 27 -26t27.5 2.5t23 18 t21.5 25.5q2 3 2.5 12.5t1.5 12.5q10 31 39 31q7 -1 11.5 -3t7.5 -7t4 -7t3 -9.5t2 -8.5q7 -14 0 -25q-13 -28 -18.5 -38t-19 -29.5t-30 -29t-38.5 -13.5q-74 -14 -142 18q-35 16 -67.5 61.5t-51.5 88.5t-43 104t-34 82q-13 24 -49 37.5t-70 1.5zM387 469l33 -10 q66 -24 153 7.5t125 102.5q57 108 9 244q-17 44 -61 69t-97 27q-21 0 -62.5 2t-62.5 2q-7 0 -17.5 -3t-11.5 -3z" />
<glyph unicode="S" horiz-adv-x="620" d="M66 334q36 21 62 3.5t19 -67.5q-11 -98 33.5 -172.5t132.5 -74.5q111 0 133 110q7 37 -3.5 73.5t-36 71t-48.5 59.5t-58.5 58t-49.5 47q-45 47 -71 78.5t-56.5 77t-42.5 90.5t-8 92q7 98 58.5 144.5t137.5 46.5q46 0 87 -13.5t63 -28t53 -38.5q7 -5 10 -8q2 83 18.5 115 t61.5 22l8 -6q0 -49 -14.5 -161t-17.5 -175q0 -6 -6.5 -12.5t-12.5 -6.5q-11 -3 -22 13q-16 21 -20.5 60.5t-8.5 53.5q-11 37 -67.5 71t-108.5 50q-23 9 -64 1.5t-51 -27.5q-14 -29 -15.5 -59t9.5 -59t28.5 -56t44.5 -55.5t54 -52.5t61 -52q86 -70 134.5 -161t37.5 -189 q-12 -91 -63 -156q-35 -44 -100 -66.5t-123 -13.5q-112 19 -176 117q-32 52 -34.5 125.5t32.5 130.5z" />
<glyph unicode="T" horiz-adv-x="757" d="M299 907q-17 -2 -57 -5t-58 -7q-37 -9 -52.5 -31t-23.5 -51t-22 -43q-10 -13 -22.5 -9t-12.5 19q0 104 -8 138q-6 25 6.5 41.5t36.5 15.5q40 -2 136 -12.5t147 -10.5q77 0 104 0.5t69.5 3.5t75.5 11l52 10q28 6 35.5 -2t9.5 -37q2 -33 -0.5 -94t-1.5 -88q-22 -17 -45 10 q-13 13 -27 51q-4 15 -9.5 26t-14.5 18t-15 11.5t-20 8t-20 4.5t-25 3t-25 3q-7 0 -39.5 4t-40.5 4q-4 -32 -4 -45q-2 -44 -4 -136.5t-4 -137.5q-2 -49 -3 -146.5t-3 -146.5q-2 -55 -2 -166q0 -15 8 -29.5t20 -17.5q49 -16 92 -19q19 -2 51 -4t50 -4q20 0 29 -12.5t0 -24.5 t-33 -12q-37 -1 -149.5 5.5t-129.5 6.5q-32 0 -97.5 -4t-101.5 -5t-77 3q-13 3 -17 21q0 10 23 16q19 6 76.5 8t79.5 8q27 7 41 36t12 63q0 62 4 180q0 101 3 290.5t3 280.5z" />
<glyph unicode="U" horiz-adv-x="950" d="M506 932q-7 -24 -84 -37q-70 -18 -70 -92q-2 -102 -2 -291q0 -75 1 -124t5.5 -108t13.5 -95.5t23 -69.5t36.5 -48.5t53.5 -15.5q37 0 65 18t44.5 48.5t25.5 60.5t13 64q10 80 16.5 166.5t11.5 187t9 154.5q0 136 -80 157q-2 1 -9.5 3.5t-10 3.5t-8 3.5t-8 5t-5.5 6 t-3.5 8.5t-0.5 11q1 9 6 13t10 4t13 -1t10 -1q24 -1 69 -6.5t70 -6.5q33 -2 91.5 3t82.5 5q35 0 35 -24q0 -32 -37 -29q-13 0 -31 -3t-33 -3q-29 0 -59.5 -31.5t-30.5 -79.5q-9 -85 -13.5 -217t-6.5 -161q-12 -179 -35 -254q-48 -151 -189 -162q-32 -2 -69 2 q-65 8 -110 49.5t-64 96.5t-21 122q-2 61 -2.5 173t-1.5 147l-8 239q0 27 -12.5 49t-38.5 25q-10 2 -42.5 3.5t-37.5 2.5q-23 0 -35 2q-9 1 -14.5 2.5t-11 7t-4.5 13.5q0 22 30 22q43 0 120.5 -7t113.5 -7q37 0 102 11t94.5 10.5t22.5 -25.5z" />
<glyph unicode="V" horiz-adv-x="1024" d="M535 109l51 196q5 23 22 80l64 219l55 209q1 5 4 16.5t4.5 18t3 16.5t0 16t-4 12.5t-9 10t-16.5 4.5q-70 4 -86 4q-25 4 -25 25q0 25 27 25q19 0 81.5 -7.5t96.5 -7.5q35 0 94.5 10t75.5 11q41 2 41 -23q0 -18 -12.5 -26t-38.5 -13q-24 -5 -57 -7t-52.5 -3.5t-22.5 -5.5 q-13 -16 -30 -70l-103 -377l-63 -200q-5 -19 -13.5 -57.5t-13.5 -57.5q-8 -43 -28 -94q-5 -24 -17 -27q-15 -4 -27.5 -10.5t-23 -9.5t-27.5 -2q-7 0 -14 2t-16 8t-12.5 8t-14.5 12l-12 9q-4 3 -15 30l-98 475q-10 52 -32.5 156t-32.5 156q-7 42 -101 59q-3 0 -15 1.5t-21 3 t-23 4t-24 6t-20 7.5t-15.5 9.5t-6.5 11.5q-3 22 44 25t61 -4q102 -21 168 -19q83 0 135 12q39 10 66 10.5t36 -4.5t10 -10q5 -17 -15 -29t-42.5 -16t-38.5 -4q-4 0 -15.5 -0.5t-17 -1.5t-14 -2.5t-15 -5t-12.5 -8.5q0 -89 72 -414.5t101 -361.5z" />
<glyph unicode="W" horiz-adv-x="1443" d="M815 834q18 -146 80.5 -421.5t87.5 -306.5l51 195l23 80l63 221q12 41 56 207q18 94 -31 94q-3 0 -14.5 -0.5t-20 -0.5t-21 0.5t-21.5 2.5t-18 5.5t-13.5 9.5t-4.5 14q0 22 27 22q23 1 84 -8.5t96 -9.5q29 0 83 9t71 9q16 0 28.5 -7.5t12.5 -18.5q0 -17 -17.5 -25 t-34.5 -8q-49 -7 -102 -10q-4 -9 -15 -33.5t-16 -38.5q-29 -104 -85 -296t-81 -281q-1 -3 -16 -62.5t-29.5 -107.5t-25.5 -66q-14 -14 -82 -14q-34 0 -64.5 17t-34.5 46q-18 79 -50.5 236.5t-49.5 236.5q-14 72 -20 97l-52 -183q-7 -23 -84 -315q-7 -26 -28 -92 q-18 -47 -74 -47q-94 13 -104 67q-12 71 -28.5 150t-38 174.5t-32.5 148.5q-10 54 -33 159t-32 153q-8 53 -60 59q-41 8 -94 8q-13 2 -25.5 11t-13.5 20q-1 12 10 19.5t25 9.5q8 1 78 -5q24 -2 69 -9t68 -7q17 0 50.5 6t49.5 8q1 0 18.5 2.5t31 4t30.5 2t27 -3t10 -11.5 q0 -26 -25.5 -38.5t-52.5 -12.5h-8h-9h-8t-8.5 -0.5l-7.5 -1.5t-8 -2.5t-7.5 -3t-8 -4.5t-6.5 -6q0 -89 71.5 -414t100.5 -361q12 50 39.5 141.5t38.5 133.5q7 27 59 221l41 164l-12 70q-2 10 11 18t34.5 12t46.5 4q23 0 35.5 -6t15.5 -12.5t4 -17.5z" />
<glyph unicode="X" horiz-adv-x="1255" d="M567 418q-35 -48 -143.5 -183.5t-138.5 -175.5q9 -3 38.5 -5.5t61.5 -4t37 -2.5t22 -1t24 -4.5t7 -18.5q-2 -23 -45 -23q-35 -1 -94.5 4.5t-89.5 5.5q-8 0 -57 -2.5t-82.5 -3.5t-57.5 2q-8 2 -22 21l5.5 5.5l6 6t6 4.5t6.5 2q19 3 61 7t60 7q18 0 25 11q27 32 119 144.5 t120 145.5q16 20 48.5 68.5t43.5 63.5q-82 160 -194 301q-71 95 -170 100q-21 2 -68 10q-14 0 -30.5 10t-16.5 19q0 22 35 22q46 0 132 -13t128 -13q32 0 108.5 9.5t112.5 8.5q45 0 45 -22q0 -11 -12 -20t-27 -9q-33 0 -49 -2h-28q-22 -6 -28.5 -21t5.5 -34q36 -60 43 -68 q15 -22 55.5 -85t61.5 -93q21 28 75.5 93.5t55.5 66.5q67 88 102 125q-159 10 -149 47q4 12 42 13.5t109 -3t101 -4.5q36 0 95.5 5t78.5 5q22 0 30.5 -9.5t0 -21t-30.5 -16.5q-26 -6 -50.5 -9.5t-59.5 -5.5t-52 -4q-7 -1 -22.5 -12.5t-20.5 -17.5q-41 -50 -132 -166.5 t-128 -161.5q19 -31 50 -85.5t52 -86.5q8 -13 79 -103t81 -110q40 -64 109 -72q19 -2 66.5 -2.5t70.5 -3.5q31 -5 41 -18t-2 -24t-37 -11q-50 -2 -137.5 6t-128.5 8q-30 0 -131 -6.5t-138 -5.5q-7 0 -14.5 5.5t-7.5 12.5q0 23 26 23q132 0 152 16q-24 42 -119.5 178 t-120.5 181z" />
<glyph unicode="Y" horiz-adv-x="991" d="M215 8q0 11 10.5 18t22 9t28 3.5t19.5 2.5q7 1 49.5 6t58.5 8q34 6 31 41q-1 28 3 147.5t1 159.5q-7 91 -51 164q-14 24 -66 119.5t-77 136.5q-23 39 -58.5 60t-95.5 24q-22 0 -46 6.5t-24 22.5q0 6 5.5 10.5t13.5 6t18 2.5t18 0.5t15 -1.5h8q26 0 84 -6.5t88 -5.5 q55 0 136 12q22 5 61.5 2.5t44.5 -22.5q3 -11 -5.5 -16t-19.5 -5q-20 1 -48 1.5t-52 -10.5t-22 -32q0 -16 4 -24l157 -299q2 -5 13 -10q15 29 85 160t103 198h-90q-27 0 -39 4q-4 1 -8 12t-4 17q0 12 12 16q15 6 29 6l161 -10q22 0 85 5t85 5q33 0 33 -20q0 -11 -5 -18 t-11.5 -10.5t-17.5 -5t-19 -1t-21 1t-18 0.5q-59 2 -78 -6.5t-39 -46.5q-18 -34 -97.5 -176t-111.5 -207q-4 -8 -4 -80q0 -31 -1 -142t-1 -141q0 -27 11.5 -36.5t42.5 -16.5q9 -1 40.5 -6.5t60 -10t40.5 -5.5l18 -3t13 -7t6 -17q0 -17 -17 -20t-45 2q-128 14 -237 14 q-51 0 -134.5 -8t-117 -5t-33.5 27z" />
<glyph unicode="Z" horiz-adv-x="733" d="M696 909q-8 -15 -37.5 -43.5t-37.5 -44.5q-9 -17 -114.5 -204t-175 -316.5t-120.5 -234.5q12 1 37.5 0t32.5 0q22 2 176 2q65 4 94 63q8 18 27.5 82.5t27.5 93.5l3 9t3 10t3 10.5t4.5 10.5t5 8.5t5.5 7t7 4.5t8.5 1.5t9.5 -3.5q13 -5 13 -35q0 -17 -11.5 -71.5 t-11.5 -94.5q0 -70 9.5 -112t9.5 -44q0 -13 -1 -18.5t-6.5 -10t-17.5 -4.5q-15 0 -43 6.5t-92 12.5t-164 6q-41 0 -127 -4q-73 -6 -147 -6q-25 0 -33 8q-4 5 -4.5 10.5t1.5 9t6.5 10t6.5 9.5q34 54 66.5 109t67.5 118t58.5 105t62 116.5t53.5 103.5t58.5 114t53.5 104 q8 16 65 100q-16 2 -40.5 1.5t-32.5 0.5q-164 7 -209 -12q-27 -12 -49 -56.5t-41 -107t-25 -76.5q-1 -2 -1 -7t-1 -7q-2 -5 -3 -18.5t-5.5 -19t-16.5 -3.5q-24 2 -24 47q-1 6 4.5 30t12 73t7.5 110q0 24 -4 48t-8.5 38t-8 25.5t-1.5 16.5t10 5q14 0 61.5 -16t118.5 -16 q76 2 236 2q24 -1 83 0.5t83 -0.5q11 0 19 -3.5t13 -16t-10 -36.5z" />
<glyph unicode="[" horiz-adv-x="376" d="M29 967v14v12.5t1 9t2.5 7.5t5.5 5t9 4.5t13.5 2.5t19 2h24.5q50 0 126.5 10.5t95.5 7.5q24 -5 24 -24q0 -23 -28 -29q-16 -3 -51 -8t-45 -8t-27 -13.5t-22 -28.5t-5 -48q0 -113 -2 -181l-6 -602v-88q0 -20 7 -28t26 -7q46 0 100 -4q35 0 35 -24q1 -17 -8 -26t-25 -9 q-29 -1 -103.5 2.5t-93.5 3.5q-48 0 -59.5 23.5t-11.5 99.5q0 59 1 327t1 328q0 217 -4 269z" />
<glyph unicode="\" horiz-adv-x="567" d="M494 -8q-49 0 -74 17.5t-37 51.5q-2 7 -8.5 19t-7.5 16q-93 209 -177 346q-25 42 -55.5 100.5t-64.5 128t-45 91.5q-1 1 -3.5 5.5t-4 8t-3 7.5t-1 7t2.5 5q5 3 16.5 3.5t31.5 -0.5t28 -1q34 0 44.5 -9t35.5 -51l104 -209q12 -24 158 -305q17 -30 70 -139q2 -3 5 -11.5 t5 -11.5q11 -20 15.5 -30t5 -20.5t-9.5 -14.5t-31 -4z" />
<glyph unicode="]" horiz-adv-x="376" d="M340 -8v-14v-12.5t-1 -9t-3 -8t-6 -5.5t-9 -5t-13.5 -2t-19 -2h-24.5q-50 0 -126 -10.5t-95 -7.5q-25 5 -25 25q0 22 29 28q16 3 38.5 6t34 5t26.5 6.5t22.5 10.5t15 16.5t10.5 25.5t3 37q0 112 2 180l6 602v88q0 20 -7 28t-26 7q-46 0 -100 4q-35 0 -35 25q-1 17 8 25.5 t25 8.5q29 1 103 -2.5t93 -3.5q48 0 60 -23.5t12 -99.5q0 -59 -1 -327t-1 -328q0 -216 4 -268z" />
<glyph unicode="^" horiz-adv-x="454" d="M229 524l-75 -104q-32 -41 -52.5 -58.5t-38.5 -17.5q-33 0 -41 29t19 41q8 3 20 14t32 33t30.5 34t36.5 43t30 35q24 24 33 23t35 -27q22 -22 57.5 -65.5t53.5 -63.5q4 -5 26.5 -26.5t26.5 -28.5q12 -23 0 -35q-12 -11 -28.5 0.5t-50.5 47.5q-10 11 -15 16 q-14 14 -51.5 56.5t-47.5 53.5z" />
<glyph unicode="_" horiz-adv-x="727" d="M369 -25l-199 5q-14 -1 -46.5 -4t-51.5 -3q-21 5 -33.5 15.5t-9.5 23.5q3 31 43 31q31 2 92 2q35 0 226.5 2.5t238.5 1.5q16 0 30.5 -2.5t27.5 -13t11 -27.5q-2 -27 -39 -31q-13 -2 -76.5 -2t-137.5 1t-76 1z" />
<glyph unicode="`" horiz-adv-x="317" d="M162 1247l114 -137q24 -34 5 -45q-20 -14 -60 -14q-5 0 -28 18q-33 29 -48 41t-43.5 32t-54.5 32q-24 8 -18 40q5 30 62 45t71 -12z" />
<glyph unicode="a" horiz-adv-x="935" d="M608 854q5 -27 25 -134t33 -165q20 -85 46 -243t44 -236q4 -14 10 -27q13 -2 56.5 2t72.5 0.5t29 -22.5q0 -22 -9 -27q-14 -8 -34.5 -9.5t-40 1.5t-49 6.5t-52.5 3.5q-45 0 -101.5 -7t-82.5 -7h-7h-9t-9 0.5t-10 1t-8.5 2t-8 3.5t-5.5 5t-4.5 7t-1.5 9q0 16 28 21.5 t64.5 7t48.5 8.5q-13 55 -64 242l-245 -10q-15 -33 -26 -71.5t-23.5 -92t-20.5 -82.5q17 2 58.5 4.5t47.5 3.5q17 2 29 -5t12 -19q0 -28 -30 -31q-25 -1 -90 1.5t-78 2.5q-5 0 -32 0.5t-42 0t-37 -2.5t-37 -6q-12 -6 -29 0t-14 24q1 6 3.5 10.5t6.5 7.5t7.5 5.5t10 4t11 2 t12.5 1t11.5 0.5h12h11.5q25 -2 41 -1t25.5 11.5t15.5 34.5l80 283q16 56 53 177.5t56 186.5q44 146 53 183q-75 31 -150 12q-83 -18 -71 -88q3 -13 -9 -22.5t-27 -6t-20 22.5q-8 29 4.5 61t38.5 51q53 38 148 31q63 -5 156 0.5t102 5.5q15 0 15.5 -18t-4.5 -47.5t3 -67.5z M465 838q-25 -98 -71.5 -273.5t-57.5 -216.5q49 -10 76 -9t75 6.5t76 4.5z" />
<glyph unicode="b" horiz-adv-x="923" d="M317 49q-1 91 1 274t-1 326t-16 273q-69 0 -182 -37q-95 -27 -91 4q2 20 35 41q12 7 21 10q140 45 287 45q21 0 108 6q164 14 268.5 -33.5t108.5 -156.5q0 -100 -45.5 -166.5t-136.5 -89.5q-1 0 -6 -8q23 -6 46 -15t50.5 -29t48.5 -45.5t35 -66t14 -88.5 q0 -106 -60 -178.5t-163 -102.5q-100 -30 -231 -14q-32 4 -128.5 -4t-99.5 -8q-61 0 -100 2q-29 4 -29 28q0 25 29 29q19 3 35 0q42 -7 101 -5t101 9zM457 59q88 -4 127 9q69 20 106.5 98t26.5 145q-19 100 -83 147.5t-151 30.5q-30 -6 -35 -12t-4 -35l7 -352q0 -5 2.5 -16 t3.5 -15zM444 547q12 2 43 5.5t50.5 6t43 9.5t37.5 16q99 67 105 180q4 79 -43 121q-55 53 -199 53q-33 -1 -41 -10.5t-6 -42.5q4 -80 8 -240q2 -31 2 -98z" />
<glyph unicode="c" horiz-adv-x="724" d="M598 879q5 12 17 37t16 38q3 15 9 21.5t19 5.5q25 -6 25 -31q0 -65 -2 -98q-8 -115 -10 -180q-3 -33 -31 -39q-31 -6 -41 26q-15 38 -20 66q-8 49 -62 131q-26 38 -59 49q-102 42 -178 -26q-56 -56 -56 -310q0 -53 0.5 -90t3 -90.5t7.5 -91.5t13 -82t21 -74t30.5 -56 t42.5 -39t56 -13q52 0 82 28q10 10 33.5 29t39.5 35.5t28 34.5q2 6 14 14q22 22 43 2q21 -21 2 -43q-28 -39 -61 -72q-122 -116 -275 -65q-56 10 -99 42.5t-69.5 80t-44 103t-23.5 117.5t-5.5 118t6.5 108q4 43 20 129q12 62 47 111t94 106q63 60 161 61t157 -57 q6 -6 49 -36z" />
<glyph unicode="d" horiz-adv-x="899" d="M266 55q12 84 9.5 444.5t-15.5 409.5q-95 -11 -194 -51q-5 -3 -14 -4t-17 3t-8 15q0 16 18 25q48 31 144.5 57.5t189.5 26.5q137 0 228 -31t141 -95.5t70 -148.5t20 -206q0 -245 -135.5 -375.5t-376.5 -118.5q-62 3 -132 -2.5t-102 -5.5q-17 0 -34.5 9.5t-16.5 21.5 q1 6 3.5 11t7 7.5t8.5 4.5t11 2.5t11 0.5h12h10h162zM401 66q12 3 44.5 7t43.5 7q49 17 85 41t58.5 57t36.5 64t20 77t7.5 80t1.5 88q0 202 -64 317.5t-179 115.5q-40 0 -53 -7.5t-13 -40.5q5 -286 8 -344q3 -64 3.5 -134.5t-0.5 -165.5t-1 -130q0 -14 2 -32z" />
<glyph unicode="e" horiz-adv-x="763" d="M373 504q87 -9 139 -6q16 2 41 37q4 6 7.5 14.5t7 18t5.5 14.5q33 5 33 -29q0 -17 -12 -45t-9.5 -62.5t17.5 -60.5q6 -11 6 -29.5t-6 -27.5q-15 -15 -29 -5t-22 29q-2 2 -2 8q-18 56 -60.5 76t-97.5 2q-22 -7 -22 -35q-1 -13 -1 -40t-1 -41q-2 -38 -1 -112.5t-1 -111.5 v-45q11 0 40.5 -0.5t44.5 0t39 1.5t43.5 5t36.5 11q18 6 31 22q47 66 55 135q0 19 2 29q0 2 0.5 6.5t1 7t1 6t2 5.5t4 3.5t6 2t8.5 0.5q29 0 29 -33q1 -13 4.5 -54t3.5 -63q6 -119 4 -127q-3 -12 -16.5 -15t-45.5 -1q-43 2 -217 2q-15 0 -77.5 2t-79.5 2q-34 0 -110 -5 t-105 -5q-14 0 -28.5 9t-14.5 21q0 31 55 31l74 -6q5 0 30 2t35 2q1 19 5.5 120t5.5 131.5t3.5 116.5t2.5 131t-0.5 116.5t-4 131t-8.5 119.5q-25 15 -66.5 14t-64.5 -24q-8 -8 -12 -20t2 -23q10 -10 10.5 -28.5t-12.5 -22.5q-21 -4 -31 6q-14 15 -14.5 51.5t12.5 55.5 q45 60 154 57q2 0 113 -8t212 -8q34 0 94 4.5t74 3.5q25 0 25 -31v-162q0 -12 1 -36t1 -37q-2 -19 -15 -25t-28 6q-25 20 -29 80q0 81 -45 119q-24 20 -43 20q-57 2 -194 2q0 -70 2 -204.5t2 -200.5z" />
<glyph unicode="f" horiz-adv-x="808" d="M322 913q-25 1 -70.5 13t-69.5 12q-84 0 -96 -53q-4 -21 5.5 -42.5t27.5 -33.5q4 -2 24 -18q-23 -29 -57 -9q-31 17 -47.5 50t-5.5 73q10 37 43.5 56.5t109.5 19.5q18 0 43 -2.5l35 -3.5q60 -8 131 -8q131 0 228 15t116 15q26 0 33.5 -10.5t3.5 -46.5l-12 -119 q-6 -86 -25 -86q-4 0 -8 2t-7.5 6t-6.5 8t-6.5 11l-6 12t-5.5 13.5t-4.5 13.5t-4.5 13.5t-4 12.5q-15 49 -30.5 66.5t-42.5 19t-74 -1.5l-84 -8q-2 -33 -2 -96q0 -166 2 -250q0 -30 5 -36t32 -7h30q73 3 84 66q3 16 8 28q6 15 19 16.5t22 -10.5q11 -11 11 -22 q1 -11 -3.5 -38t-8.5 -51.5t-1.5 -54t13.5 -49.5q4 -20 -12 -25q-21 -7 -35 25q-1 1 -1 2q-32 47 -59 50q-72 10 -104 12q-4 -62 -4 -129.5t2 -150t2 -128.5q27 -4 55.5 -5.5t45.5 -1.5t45.5 0.5t39.5 0.5q37 0 37 -31q1 -14 -8 -22.5t-18 -10t-21 -1.5q-38 1 -119.5 10.5 t-116.5 9.5q-27 0 -99.5 -11t-102.5 -11q-6 0 -16.5 -0.5t-15.5 -0.5t-13 1t-11.5 4t-6.5 9t-3 15q0 28 43 25q85 -6 149 16v363q5 322 7 387q1 14 -4 112z" />
<glyph unicode="g" horiz-adv-x="616" d="M483 905q8 4 15.5 31t14.5 51t13 23q27 -4 27 -52q1 -36 -5 -125t-7 -108q0 -6 -9.5 -18.5t-11.5 -16.5q-2 2 -10 7t-12 9t-6 9q-25 49 -35 86q-17 63 -72 112q-49 40 -98 0q-49 -39 -66 -110q-10 -37 -15 -83.5t-6 -73.5t0 -88.5t1 -74.5q0 -163 23.5 -284t74.5 -133 q58 -13 96.5 34.5t38.5 128.5q0 91 -18 113q-19 23 -14 39t34 16q36 0 53.5 -3t32 -17t19 -41t4.5 -76q0 -169 -50 -294t-135 -187q-26 -20 -35.5 -24t-21.5 3q-24 21 6 62q2 3 19 26t22.5 31t20.5 30t21 34.5t14.5 31.5t12 35.5t3.5 32.5q-3 -1 -27 -18q-32 -23 -73 -26.5 t-74 11.5q-134 59 -178 316q-20 114 -6 260t59 252q34 77 131 139q47 28 125 6q52 -13 104 -76z" />
<glyph unicode="h" horiz-adv-x="923" d="M444 918q0 -7 -18.5 -9t-45 -8t-40.5 -22q-4 -4 -10 -43v-301q31 2 125 5t125 5l8 131q1 17 0.5 65.5t1.5 65.5q0 50 -11 71.5t-38 26.5q-12 2 -23.5 0t-20 1t-8.5 14q3 27 35 30q16 2 60 -4t55 -6q35 0 104.5 7.5t108.5 6.5q31 -4 39 -14q10 -14 0.5 -27.5t-29.5 -15.5 q-15 -1 -45.5 -1t-46.5 -1q-14 -1 -40 -6t-34 -6q-4 -122 -4 -172q0 -37 1 -133t1 -134q0 -282 -2 -338q0 -16 11 -27.5t33 -18t36.5 -9.5t38.5 -6q25 0 35 -2q1 0 6 -0.5t6.5 -0.5t6 -1t6 -1.5t5 -1.5t5 -2.5l3.5 -3.5t3 -4.5t1.5 -6t0.5 -7.5q0 -6 -1.5 -10t-5 -7 t-5.5 -4.5t-8 -3t-7.5 -2t-9 -1t-8.5 -0.5t-74.5 10t-128.5 10q-12 0 -61 -6.5t-82 -1.5q-17 4 -21 16q-4 15 8 27q8 7 45.5 4.5t49.5 17.5v404q-48 11 -124 12t-124 -10q-2 -23 -4 -80t-3.5 -120t-2.5 -79q-2 -31 2 -92q0 -17 3 -26.5t4.5 -10.5t8.5 -4t32 -3.5t31 -2.5 q39 -8 37 -24q-1 -12 -14.5 -18.5t-24.5 -6.5q-30 -4 -74 5t-71 7q-44 -3 -102 -14q-42 -7 -80 -4q-38 0 -47 29q10 29 49 26q25 0 43 2t38 8t30.5 19.5t11.5 34.5q0 17 1 49t1 49v537v102q0 25 -9 33t-36 8q-14 0 -45.5 -3t-44.5 -3q-10 0 -24.5 9.5t-14.5 21.5q0 36 51 36 q32 1 95 -5.5t91 -6.5q18 0 53 8t54 8q73 0 73 -40z" />
<glyph unicode="i" horiz-adv-x="573" d="M231 922q-14 0 -59 1.5t-66 0.5q-27 0 -38 -37q-8 -26 -29 -21q-23 6 -23 33q-3 31 24 52t60 24q20 5 101.5 0.5t101.5 -4.5q50 0 126 10.5t95 7.5q25 -5 25 -24q0 -23 -29 -29q-16 -3 -43.5 -7t-38.5 -6t-27.5 -8.5t-23 -16.5t-11.5 -27t-5 -42q0 -112 -2 -180l-7 -467 v-88q0 -20 7 -28t26 -7q47 0 101 -4q34 0 34 -24q1 -17 -7.5 -26t-24.5 -9q-29 -1 -103.5 2.5t-93.5 3.5q-27 1 -77 -1t-77 -1q-1 0 -43 -6q-3 0 -12.5 -2.5t-15.5 -1.5q-19 5 -19 18q-1 4 2.5 11.5t8.5 9.5q38 13 65 18q39 3 67.5 23.5t28.5 54.5q2 119 2 520 q0 42 1.5 101.5t1.5 100t-3 75.5z" />
<glyph unicode="j" horiz-adv-x="614" d="M254 895q-9 1 -51.5 10.5t-67.5 9.5q-49 0 -49 -41q0 -17 -12 -21.5t-25 5.5q-24 17 -22.5 49t28.5 41q16 5 58.5 7t82 1.5t87.5 -1.5t57 -1q31 0 188 11q19 2 33.5 2t23.5 -7.5t9 -23.5q0 -9 -13 -13t-33 -5.5t-24 -2.5q-6 -1 -39.5 -5t-57.5 -10.5t-24 -16.5 q-2 -14 -2 -45q9 -368 -20 -537q-42 -248 -164 -393q-41 -45 -90 -45q-28 0 -49 12q-10 3 -18 13.5t-5 19.5q3 8 12.5 12t18.5 2q41 -2 58 4t28 35q61 152 80 373q8 96 8 307v225q0 11 -6 29z" />
<glyph unicode="k" horiz-adv-x="1007" d="M354 487q13 6 27.5 15.5t26.5 17.5t27.5 22t24.5 22t26 26t23 24.5t24 27.5l21 24.5t22 25.5l18 23l59 78q22 34 11.5 74.5t-48.5 41.5q-8 1 -17.5 1t-24.5 -0.5t-27 -0.5q-18 0 -14 22q5 25 27 32q6 2 11 2q15 0 90 -10t93 -9q28 3 82 12t88 11q57 5 57 -31 q0 -14 -13.5 -21t-50 -16t-61.5 -18q-50 -18 -92.5 -54.5t-63.5 -64t-64 -92.5q-6 -9 -9 -13q-13 -19 -35 -43.5t-49.5 -53t-38.5 -40.5q12 -7 35.5 -19.5t41 -24t31.5 -25.5q51 -50 110.5 -151.5t74.5 -147.5q14 -50 39 -101q9 -20 23.5 -21t27.5 17l6 8q18 27 35 17 q11 -6 12 -19.5t-8 -27.5q-26 -37 -54 -58.5t-65.5 -21t-73.5 32.5q-19 18 -86.5 145.5t-79.5 157.5q-15 37 -43 78.5t-57 64.5q-23 16 -39 20q-28 10 -53 -1t-25 -39l-8 -230q0 -24 -4 -74q-3 -32 7 -42t44 -13l101 -6q20 0 28 -6q18 -12 15 -21q0 -6 -5.5 -12t-11.5 -8 q-10 -4 -33 -4q-17 1 -93.5 7.5t-110.5 6.5q-71 0 -127.5 -5.5t-81.5 -4.5q-11 1 -17 2.5t-10.5 7t-3.5 14.5q2 14 13.5 22.5t29.5 8.5q5 0 26.5 -0.5t38.5 -0.5t35.5 1t26.5 4q1 10 4.5 34.5t3.5 35.5q-10 420 -10 665q0 26 -12 84q-6 41 -84 48q-8 1 -27.5 -1.5 t-32.5 -0.5t-20 12q-19 24 0 36.5t51 10.5q13 -1 90 -10t98 -9q41 -1 93.5 8t91.5 9q36 0 47.5 -8.5t7.5 -22.5q-3 -13 -32.5 -19.5t-67.5 -4.5q-27 1 -41.5 -0.5t-21 -11.5t-7.5 -17.5t-2 -30.5q0 -16 2 -45t2 -43q1 -23 1 -102t1 -101q0 -28 4 -82z" />
<glyph unicode="l" horiz-adv-x="698" d="M358 901q0 -26 -0.5 -69t-0.5 -77t1 -65q0 -44 3.5 -127t3.5 -102v-359q0 -53 30 -53h78q63 3 84 64q16 57 31 125q5 20 9.5 59t6.5 51q33 8 49.5 -2t16.5 -43q3 -147 -2 -264q0 -30 -8 -37.5t-39 -7.5q-60 -1 -180 1.5t-134 2.5q-38 0 -116 -10.5t-97 -10.5 q-59 0 -59 43q0 12 20 20.5t49 8.5q104 0 123 12q-2 109 2 293t4 246q-1 70 -10 297q-9 0 -67.5 2.5t-75.5 1.5q-25 0 -42.5 12.5t-6.5 34.5q3 6 12 12.5t16 6.5q42 3 124.5 -4t113.5 -7q108 0 211 23q31 6 67 0q12 -2 21.5 -10.5t9.5 -22.5t-10 -22.5t-23 -10.5 q-43 -6 -115.5 -8t-99.5 -4z" />
<glyph unicode="m" horiz-adv-x="1234" d="M604 236q5 15 33 88.5t37 103.5l18 55q27 72 76 217q52 168 76 220q22 53 80 53h153q16 0 26 -1.5t21.5 -11t18.5 -26.5q-50 -12 -68 -12q-33 -3 -48 -15.5t-21 -44.5q-15 -422 -15 -749q0 -37 24 -55.5t64 -20.5q18 -2 54 2q5 0 14.5 1t13.5 1q3 -1 11 -2t13 -2t10.5 -4 t8.5 -8t4 -13q0 -11 -7.5 -17.5t-13 -7.5t-18.5 -3q-32 -3 -96 0q-21 0 -74 7t-75 7q-54 0 -110 -4.5t-109 -1.5q-14 2 -21 7.5t-4 16.5q1 6 9.5 11.5t15.5 7.5q10 1 31.5 1t31.5 1q34 2 59.5 18t26.5 45q3 90 13.5 295t13.5 314q0 49 -15 108l-30 -84l-37 -106 q-17 -47 -101 -291q-15 -44 -44.5 -122t-43.5 -122q-4 -13 -8 -35q-6 -22 -10.5 -32.5t-15.5 -18.5t-29 -8q-16 0 -27 10.5t-14 26.5q-40 140 -93.5 396t-70.5 325q-17 95 -18 98q-7 -79 -7 -205q0 -436 -2 -522q0 -64 52 -72q8 -2 20 -3t18.5 -2t15 -3t10.5 -5.5t5 -10 t-2 -15.5q-4 -14 -25 -15.5t-66.5 4t-72.5 5.5q-39 0 -112 -7.5t-86 -8.5q-37 0 -37 22q0 10 6.5 18.5t13.5 10.5q24 7 69.5 7.5t61.5 2.5q31 6 43.5 22t14.5 48q23 320 10 715q0 21 -6 39q-6 19 -17.5 26.5t-33.5 9.5q-120 8 -140 11q-11 2 -21 10.5t-7 21.5q1 7 12 11 t20 4q11 1 76 -2.5t68 -3.5q29 1 70 7.5t65 6.5q60 -2 81.5 -20t31.5 -76q17 -93 38 -191t56.5 -251t44.5 -191l4 -14q2 0 4.5 -1t3.5 -1z" />
<glyph unicode="n" horiz-adv-x="980" d="M252 752q-6 -60 -6 -62q1 -80 0 -250t0 -250q0 -80 6 -100q0 -7 26.5 -15.5t51.5 -11.5q4 -1 38 -2t38 -2q39 -8 34 -39q-6 -34 -47 -28l-22.5 4.5t-26.5 3.5q-13 0 -62 3.5t-63 2.5q-7 -1 -64.5 -8.5t-86.5 -5.5q-39 4 -39 31q1 7 3 12t7 7.5t8.5 4t11 2.5t9.5 2 q86 16 102 27q14 61 14 92q0 72 -3 195t-3 147v313q0 5 1 15.5t1 15.5q-1 15 -4 23.5t-14.5 13.5t-17 6t-29.5 4q-3 0 -19 1.5t-29.5 3.5t-19.5 5q-7 3 -13.5 12t-6.5 15q0 11 12 20t24 9l189 -4q46 -1 68.5 -19t37.5 -63q45 -134 160 -396q98 -218 166 -354q4 29 4 86 l12 524q3 62 -2 111q-3 27 -34.5 37.5t-65.5 5.5q-25 -4 -33 -2q-34 11 -28 41q2 18 32 22q23 1 83.5 -8t92.5 -8q37 0 86 7t91 7q13 0 22 -10t8 -24q-2 -23 -34 -27q-3 0 -14 -1.5t-17 -0.5q-34 5 -62.5 -4t-36.5 -33q-16 -45 -16 -121q0 -121 -8 -346.5t-8 -327.5 q0 -38 -10.5 -53t-43.5 -12q-14 1 -33 1t-32 1q-25 2 -39 33q-8 19 -26.5 55.5t-26.5 54.5q-26 59 -97.5 202.5t-97.5 207.5q-33 83 -90 203q-2 -2 -8 -2z" />
<glyph unicode="o" d="M51 446q0 79 10.5 152.5t36 146t63.5 126.5t99 87t137 33q174 0 257 -126t83 -353q0 -487 -299 -539q-32 -4 -51 -4q-74 0 -133.5 30.5t-96.5 78.5t-61.5 112.5t-34.5 127.5t-10 128zM406 932q-86 -7 -120 -57t-48 -144q-26 -151 -23 -297q2 -154 11 -210 q29 -197 159 -197q44 0 77.5 22.5t54 64t34 86.5t19.5 105t8 104.5t2 98.5v18q0 55 -0.5 84t-3.5 79t-9.5 78t-19 64t-30.5 55t-46.5 32.5t-64.5 13.5z" />
<glyph unicode="p" horiz-adv-x="763" d="M336 360q-3 -34 -5 -60.5t-3 -42t-1.5 -42.5t-0.5 -35v-49v-57q0 -20 198 -60q22 0 20.5 -16.5t-18.5 -22.5q-5 -2 -10 -2q-40 0 -129.5 12.5t-128.5 12.5q-35 0 -89.5 -4t-62.5 -4l-5 -1q-5 -1 -6.5 -1t-6.5 -0.5t-7 0t-6 1t-6 2t-4.5 4t-4 6t-1.5 7.5q0 6 2 11t4.5 7.5 t8.5 4.5t9.5 2.5t11 1t9.5 0.5q55 8 73 21t22 59q6 54 8.5 123t2.5 115t-0.5 131.5t-0.5 115.5v297q-6 13 -54 25t-79 10q-10 -6 -26.5 -4.5t-20.5 14.5q-5 23 18 33q55 0 121 -8.5t84 -8.5q31 0 81 5.5t83 5.5q149 0 235 -65t86 -206q0 -148 -71.5 -229.5t-206.5 -95.5 q-32 -5 -123 -13zM344 915q0 -29 -1 -85t-1 -85q-1 -11 -1 -23t0.5 -26t0.5 -22v-244q4 -1 12 -3.5t11 -2.5q48 0 73 2q69 7 127 72t58 166q0 226 -142 249q-19 3 -40 3.5t-52 -0.5t-45 -1z" />
<glyph unicode="q" horiz-adv-x="839" d="M786 508q-4 -91 -25.5 -175t-63 -161t-114.5 -123.5t-169 -46.5q-81 0 -144.5 28t-104 74t-67 109.5t-37 130t-10.5 141.5q0 67 14.5 138.5t46 141t74.5 124t106 88t136 33.5q90 2 162.5 -44t114.5 -121t63 -162.5t18 -174.5zM436 944q-225 0 -237 -459q9 -424 221 -424 q48 0 90 45.5t68 112.5t41 136t16 122q0 50 -1 87.5t-5.5 89t-12.5 89t-23 77.5t-35.5 65.5t-51.5 42t-70 16.5zM227 -121q0 -6 7 -15.5t8.5 -15t-9.5 -16.5q-22 -17 -51 12q-38 38 -24 80q9 34 61 41q85 10 150 -33q9 -6 34 -24t34 -23t30 -12t45 -8q31 0 45 2q28 0 31 31 l4 24q6 24 21.5 37t35.5 12q27 -2 48.5 -17t25.5 -36q8 -40 -3.5 -61.5t-49.5 -38.5q-58 -26 -106.5 -27.5t-88.5 14.5t-98 54q-6 4 -22.5 14t-25 15t-24 10t-29.5 6q-36 0 -49 -25z" />
<glyph unicode="r" horiz-adv-x="1019" d="M723 442q59 -43 76 -106q6 -21 49 -172q26 -76 39 -101q21 -44 53 -4l4 9q17 25 35 16q11 -6 12.5 -20.5t-6.5 -26.5q-36 -52 -102 -62t-117 27q-41 35 -55 84q-34 131 -64 205q-30 78 -86 123q-38 27 -104 35q-27 0 -41 2q0 -67 -2 -191.5t-2 -189.5q13 -2 48.5 -3.5 t47.5 -3.5q13 -3 33 -0.5t37.5 -4t17.5 -23.5q0 -23 -37 -23q-35 -2 -103 2t-102 2q-30 0 -92 -5t-94 -5q-64 0 -64 27q0 5 4.5 9.5t12.5 7.5t16.5 5.5t19.5 4.5t18.5 3t16 2t9.5 1q18 0 88 4v407q0 37 1 110t1 109q0 169 -23 226q-95 0 -178 -86q-39 -42 -29 -113 q7 -55 99 -55q14 0 14 -11q0 -17 -31 -27q-6 -2 -12 -3q-55 -11 -93 21.5t-38 103.5q0 57 26.5 101.5t72.5 71t98.5 41.5t113.5 21q181 13 217 8l101 -10q94 -10 173 -65.5t79 -135.5q1 -115 -72.5 -194.5t-187.5 -116.5q81 -18 102 -31zM414 506l90 6q94 3 166.5 71.5 t72.5 166.5q0 54 -27.5 94.5t-70.5 61t-89.5 29t-90.5 3.5q-40 -3 -47.5 -12t-7.5 -52q0 -18 -1.5 -82.5t-0.5 -97.5q2 -31 3 -93t3 -95z" />
<glyph unicode="s" horiz-adv-x="622" d="M451 905q20 13 26.5 58t18.5 55q27 20 43.5 4t13.5 -45l4 -225q1 -9 1 -27t1 -27q-3 -28 -31 -34q-14 -2 -26 4t-13 18q-3 71 -45 119q-34 44 -76.5 76.5t-80.5 27.5q-45 -7 -56 -53q-23 -103 148 -301l106 -125q64 -70 78 -172q6 -120 -78 -202.5t-198 -82.5 q-118 0 -197 76q-40 38 -52.5 86.5t0 91t41.5 77t68 48.5q15 6 33 6q15 0 20 -10t-1 -24q0 -5 -4 -9q-21 -27 -33 -63.5t-10 -65.5q5 -66 40.5 -110.5t98.5 -44.5q85 0 121 54.5t18 133.5q-6 25 -23.5 55t-30 46.5t-42.5 52t-35 41.5q-43 49 -129 170q-55 72 -55 161 q0 94 56.5 158t139.5 64q45 0 82.5 -19.5t57.5 -42.5z" />
<glyph unicode="t" horiz-adv-x="731" d="M614 43q11 -46 -28 -49q0 -2 -30 -1l-30 1q-16 1 -68.5 6.5t-84.5 5.5q-33 0 -107.5 -3.5t-103.5 -2.5q-3 0 -12 0.5t-13 1.5t-10.5 3t-10 7t-5.5 13q-4 12 8.5 18t42.5 8q81 12 102 17q31 5 31 45q-2 50 -2 299q-2 119 -2 352v113q0 24 -10 31.5t-33 4.5 q-50 -9 -74 -32.5t-31 -73.5q-5 -40 -18 -82q-2 -12 -5 -19t-11 -12.5t-21 -3.5q-27 5 -27 41l5 148q0 25 -3 49q-3 40 31 37q220 -15 266 -15q65 0 230 15q5 0 20.5 2.5t22.5 2.5t16.5 -4.5t14.5 -13.5q4 -6 5 -16t0.5 -16t-2 -20.5t-1.5 -18.5q-1 -25 -6.5 -73.5 t-6.5 -57.5q-3 -38 -37 -35q-17 1 -24 10t-10 29q-3 50 -21 96q-12 31 -40.5 47t-63.5 14q-24 0 -27 -22q0 -9 -1 -26.5t-1 -26.5q0 -57 1 -166t1 -164q0 -49 -1 -126.5t-1 -138t2 -116.5q0 -24 17 -39.5t37 -21.5t51 -11q56 -8 79 -10z" />
<glyph unicode="u" horiz-adv-x="907" d="M535 934q3 20 51 20q16 0 51.5 -6t54.5 -6q18 0 65.5 4.5t65.5 3.5q37 -5 39 -6q8 -3 16 -10t7 -10q-2 -8 -8.5 -17t-12.5 -10q-16 -4 -47 -4q-47 0 -69 -12.5t-25 -51.5q-2 -12 -2 -38q1 -60 0 -181t0 -182q0 -70 -8 -168q-8 -91 -80.5 -177.5t-159.5 -86.5 q-42 0 -77 10t-60.5 25.5t-46 42.5t-34 51t-23.5 62.5t-15 65.5t-9 71.5t-5 69t-2 69t-2 61.5q-2 54 -2 156.5t-2 157.5q0 56 -45 53q-46 0 -82 -8q-34 -3 -43 30q-3 15 6.5 26.5t27.5 12.5q36 1 104.5 -6.5t100.5 -7.5q22 0 74 8t74 8q1 0 8 -1t10 -1.5t10 -1.5t11 -2.5 t8.5 -4t7 -6t2.5 -7.5q2 -15 -49 -29q-59 -23 -70 -32q-20 -17 -20 -70q-1 -107 0 -186.5t5 -156.5t11.5 -130.5t20 -99.5t30.5 -73t42.5 -42t56.5 -15q58 0 101.5 67.5t55.5 170.5q9 78 10.5 175.5t-1.5 198t-3 105.5q0 42 -12 59.5t-47 26.5q-8 2 -21 4.5t-19.5 4.5 t-13.5 5t-9.5 8t-1.5 13z" />
<glyph unicode="v" horiz-adv-x="989" d="M518 121q14 63 69 269t68 265q2 10 8.5 39t9.5 41.5t9 38t11 41.5t12.5 37t15.5 39q1 4 -4.5 7.5t-29.5 6.5t-64 2q-20 0 -37 7.5t-17 21.5q0 35 72 35q5 0 58.5 -8.5t86.5 -8.5q41 0 93.5 8.5t58.5 8.5q14 0 26.5 -7.5t12.5 -21.5q1 -9 -11 -18.5t-45 -17t-79 -7.5 q-16 0 -28 -4.5t-19 -9t-12.5 -17t-8 -19t-6.5 -24t-6 -24.5l-144 -541l-43 -186q0 -15 3 -27q3 -52 -46 -49q-27 2 -100 2q-50 0 -57 57q-3 19 -29 138q-13 53 -55 244.5t-60 256.5q-9 35 -19 64t-27.5 64.5t-43.5 55t-57 17.5q-3 0 -11.5 -0.5t-14 0t-14 1t-13.5 2 t-10.5 4t-8 7.5t-2.5 11q0 35 83 34h5q16 0 62 -8t71 -8q39 0 106 8.5t75 9.5q41 6 70.5 0t29.5 -32q0 -18 -12.5 -26.5t-26.5 -8.5q-3 0 -70.5 3t-89.5 1q125 -547 195 -774h10z" />
<glyph unicode="w" horiz-adv-x="1267" d="M1257 944q0 -33 -51 -33q-48 0 -80 -7.5t-46 -21t-18.5 -22t-6.5 -20.5l-33 -162l-23 -152l-6 -28q-9 -57 -28.5 -231.5t-24.5 -215.5q-7 -51 -47 -51q-59 -3 -92 2q-11 1 -17 9.5t-7.5 16t-2.5 21.5q-10 170 -67 467q-15 82 -25 107q-11 -43 -12 -52q-9 -38 -50 -238.5 t-57 -260.5q-2 -8 -5.5 -24t-5 -20.5t-6 -13.5t-10 -11.5t-15.5 -5.5t-25 -3q-65 -2 -78.5 10t-22.5 76q-9 71 -59.5 282t-63.5 308l-20 125q-7 37 -49.5 66.5t-83.5 29.5q-10 0 -32.5 3.5t-35.5 2.5q-34 0 -39 23q-5 27 29 32q50 4 137 -9t125 -13q30 0 101.5 15.5 t115.5 6.5q29 -5 27 -28q-7 -31 -35 -25q-44 0 -59 -6q-29 -9 -56 -29q-14 -11 -10 -33q10 -70 46 -281t46 -280q0 -3 9 -71t16 -109q9 37 20 94q60 280 97 502q8 41 16 131q4 51 -14 76q-9 12 -4 25t22 14q58 0 81.5 -9.5t33.5 -45.5q18 -61 30 -123q12 -56 34.5 -232.5 t31.5 -222.5q4 -18 25 -190q5 34 27 189.5t44.5 303.5t38.5 242q7 40 -6 54t-51 9h-9q-118 -7 -117 29q1 6 5 14q18 30 61 23q121 -19 183 -17q36 1 87.5 11t59.5 10q57 0 57 -33z" />
<glyph unicode="x" horiz-adv-x="1044" d="M442 899q13 -33 58 -129t59 -133q27 50 88 152t80 135q0 12 -45 12q-42 0 -53 6.5t-11 22.5q0 33 72 24q96 -11 115.5 -12.5t109.5 2.5q99 8 99 -21q0 -10 -23 -18t-57 -10q-56 -3 -107 -12q-28 -8 -39 -25q-17 -24 -102 -166l-76 -125q-11 -18 -11.5 -46.5t7.5 -47.5 q29 -89 62 -163.5t94 -197.5q13 -27 44 -46.5t64 -26.5q13 -2 56.5 -6.5t60.5 -8.5q12 -2 23 -14t6 -29q-3 -9 -12 -14.5t-17 -6t-24 -1t-21 -0.5q-16 0 -91 9t-106 9q-46 1 -128 -8t-105 -8q-42 0 -47 24q-2 9 1 18.5t15 12.5q8 1 43 4t66 6t37 7q-16 42 -62.5 157.5 t-60.5 153.5q-26 -35 -62.5 -95.5t-76.5 -130.5t-56 -96q9 -3 40.5 -5t37.5 -5q19 -10 16 -20q-5 -33 -49 -33q-24 0 -63 4t-55 4q-26 0 -70 -3t-66 -4t-43 1q-30 8 -30 24q0 26 30 33.5t125 7.5q85 0 107 43q11 23 52.5 95t45.5 80q44 76 80 155q15 34 4 66 q-49 114 -123 270q-4 10 -11.5 31t-11.5 30.5t-13.5 24t-20 21t-28.5 11.5t-42 5q-91 0 -178 27q-14 5 -14 20q-1 3 4 7.5t10 6.5q6 2 35 2q30 -2 91 -7.5t97.5 -7.5t73.5 -1q26 0 97 12.5t89 14.5q35 4 37 -19q5 -27 -26 -35q-7 -1 -46 -6t-49 -8z" />
<glyph unicode="y" horiz-adv-x="950" d="M195 8q0 11 10.5 18t22 9t27.5 3.5t19 2.5q7 1 50 6t59 8q34 6 31 41q-1 27 3 177.5t1 191.5q-5 67 -51 143q-111 195 -123 215q-23 39 -58.5 60t-95.5 24q-22 0 -46 6.5t-24 22.5q0 6 5.5 10.5t13.5 6t18 2.5t18 0.5t15 -1.5h8q26 0 84 -6.5t88 -5.5q34 0 115 12 q22 5 62 2.5t45 -22.5q3 -11 -5.5 -16t-19.5 -5q-19 1 -42.5 1t-42.5 -10.5t-17 -31.5q0 -16 4 -24l137 -258q3 -5 12 -10q20 38 78 145t90 172h-70q-26 0 -38 4q-4 1 -8.5 12.5t-4.5 16.5q0 12 13 16q15 6 28 6l142 -10q22 0 85 5t85 5q32 0 32 -20q0 -11 -5 -18 t-11.5 -10.5t-17.5 -5t-19 -1t-21 1t-18 0.5q-59 2 -78 -6.5t-39 -46.5q-22 -41 -91.5 -161.5t-100.5 -184.5q-2 -4 -2 -14.5t1 -30t1 -31.5q0 -30 -1 -162t-1 -162q0 -27 11 -36.5t42 -16.5q9 -1 40.5 -6.5t60 -10t40.5 -5.5l18 -3t13 -7t6 -17q0 -17 -16.5 -20t-44.5 2 q-128 14 -238 14q-51 0 -134.5 -8t-116.5 -5t-33 27z" />
<glyph unicode="z" horiz-adv-x="733" d="M696 909q-8 -15 -37.5 -43.5t-37.5 -44.5q-9 -17 -114.5 -204t-175 -316.5t-120.5 -234.5q12 1 37.5 0t32.5 0q22 2 176 2q2 0 9.5 0.5t9.5 0.5t8.5 0.5t8.5 1.5t7.5 2t7.5 2.5t6 3.5t6.5 5t5 6.5t4.5 7.5q25 49 56 168l3 9t3 10t3 10.5t4.5 10.5t5 8.5t5.5 7t7 4.5 t8.5 1.5t9.5 -3.5q12 -5 12 -35q0 -29 -6.5 -69.5t-7.5 -76.5q-1 -56 4.5 -94t5.5 -41q0 -12 -1 -17.5t-6.5 -9.5t-17.5 -4q-15 0 -38 5.5t-81.5 11.5t-158.5 6q-41 0 -127 -4q-73 -6 -147 -6q-25 0 -33 8q-4 5 -4.5 10.5t1.5 9t6.5 10t6.5 9.5q34 54 66.5 109t67.5 118 t58.5 105t62 116.5t53.5 103.5t58.5 114t53.5 104q8 16 65 100q-16 2 -40.5 1.5t-32.5 0.5q-146 6 -189 -12q-42 -19 -67 -51t-47 -82q-1 -2 -1 -7t-1 -7q-2 -5 -3 -18.5t-5.5 -19t-16.5 -3.5q-25 2 -25 47q-1 24 4.5 67.5t6.5 59.5q0 14 -1 34.5t-1 31t1 22t6 16t13 4.5 q14 0 53.5 -14t110.5 -14q76 2 215 2q24 -1 83 0.5t83 -0.5q11 0 19 -3.5t13 -16t-10 -36.5z" />
<glyph unicode="{" horiz-adv-x="544" d="M324 197q0 -18 -1.5 -44.5t-2 -43t0 -38t3 -34t7.5 -26t14.5 -19t23 -8.5t33 1.5t44.5 14.5q9 7 32 15t30 3q22 -19 -7.5 -46.5t-58.5 -39.5q-131 -51 -203 35t-67 248q17 207 -59 229q-8 5 -6.5 22t15.5 33.5t30 12.5q40 -8 75 -39q-70 -51 -172 -18q-40 12 -23 48 q8 18 17 19q1 1 2 0q34 -14 59 -14t38.5 10.5t21 32t8.5 46.5t-0.5 58t-3.5 63q-1 14 -2 21q-3 104 26.5 179t90.5 107t153 -3q29 -12 58.5 -39.5t7.5 -46.5q-12 -9 -62 16q-25 11 -44.5 15.5t-33 2t-23 -7.5t-14.5 -19t-7.5 -26t-3 -33.5t0 -38t2 -43t1.5 -44.5 q3 -98 -22 -173.5t-75 -111.5q47 -41 73 -114.5t24 -161.5z" />
<glyph unicode="|" horiz-adv-x="190" d="M68 -162q-19 0 -30 65.5t-11 108.5q2 53 2 690l8 342q2 78 2 234q0 6 -2 18.5t-2 18.5q-3 47 26 65q45 30 89 13q4 -1 9 -11.5t3 -15.5q0 -247 -10 -362q-8 -87 -9.5 -500t2.5 -500q0 -66 -20.5 -116t-56.5 -50z" />
<glyph unicode="}" horiz-adv-x="542" d="M219 758q0 16 1.5 40t2.5 39t1 35.5t-1.5 32.5t-5 26t-9.5 21t-16 13t-23 5.5t-31.5 -4.5t-41.5 -14q-50 -25 -61 -16q-20 19 8.5 47t56.5 39q93 35 154 3t90.5 -107t26.5 -179q-16 -205 57 -229q23 0 61 -10q39 -12 22 -49q-9 -17 -17 -19q-105 43 -124 -45 q-9 -40 1 -169v-3q3 -104 -26.5 -179.5t-90.5 -107.5t-154 4q-28 11 -56.5 39t-8.5 47q7 5 29.5 -3t31.5 -15q23 -9 41.5 -13t31.5 -4t23 6t16 13.5t9.5 21.5t5 26t1.5 32.5t-1 35.5t-2.5 39t-1.5 40q-6 210 94 282q-47 41 -72 115.5t-22 163.5z" />
<glyph unicode="~" horiz-adv-x="544" d="M514 373q-10 -8 -37 -30t-46 -35t-38 -21q-55 -25 -135 12l-43 25q-42 20 -67.5 16.5t-61.5 -33.5q-10 -10 -25 -16q-17 -4 -26.5 7t-3.5 28q7 18 18 26q59 56 139 41q42 -4 68 -24q53 -30 91 -23t81 45q24 22 41.5 18.5t44.5 -36.5z" />
<glyph unicode="&#xa1;" horiz-adv-x="335" d="M260 -18q-26 8 -43 11.5t-51 2t-72 -13.5q-33 -9 -44.5 1t-4.5 42q80 400 90 680q0 13 -3 30.5t-5 26t2.5 16t17.5 8.5q68 7 68 -59v-63v-68t0.5 -64.5t1 -71t2 -66t4 -71t5.5 -65t7.5 -69t10 -62.5t12.5 -64q1 -6 7 -23q18 -57 3 -59q-4 0 -8 1zM176 1087 q41 0 65.5 -21.5t24.5 -61.5q2 -34 -25.5 -60t-66.5 -26q-40 0 -63 24t-23 53q0 92 88 92z" />
<glyph unicode="&#xa2;" horiz-adv-x="724" d="M598 879q5 12 17 37t16 38q3 15 9 21.5t19 5.5q25 -6 25 -31q0 -65 -2 -98q-8 -115 -10 -180q-3 -33 -31 -39q-31 -6 -41 26q-15 38 -20 66q-8 49 -62 131q-26 38 -59 49q-102 42 -178 -26q-56 -56 -56 -310q0 -53 0.5 -90t3 -90.5t7.5 -91.5t13 -82t21 -74t30.5 -56 t42.5 -39t56 -13q52 0 82 28q10 10 33.5 29t39.5 35.5t28 34.5q2 6 14 14q22 22 43 2q21 -21 2 -43q-28 -39 -61 -72q-68 -65 -152 -77q-20 -166 -55 -166q-19 0 -30 56.5t-11 96.5v17q-6 1 -15 4l-12 4q-56 10 -99 42.5t-69.5 80t-44 103t-23.5 117.5t-5.5 118t6.5 108 q4 43 20 129q12 62 47 111t94 106q49 46 117 58v63q0 6 -2 18.5t-2 18.5q-4 47 27 66q43 29 86 12q4 -1 9 -11.5t3 -15.5l-6 -157q46 -11 86 -48q6 -6 49 -36z" />
<glyph unicode="&#xa3;" horiz-adv-x="532" d="M274 326q8 0 26.5 0.5t34 0.5t25.5 -1q17 -1 28 -13.5t11 -27.5q-2 -27 -39 -31q-40 -4 -77 -4q-4 -13 -16.5 -67.5t-24.5 -73.5q22 -32 62 -41t71 10q27 18 65 74q8 12 21.5 13t25.5 -9q9 -8 17 -23t8 -27q-3 -74 -63 -103t-123 -7q-25 8 -84 43q-29 18 -37.5 18 t-34.5 -20q-33 -29 -64 -29q-30 0 -50 22t-27 52q-3 24 14.5 38t35.5 17t34 2q5 -1 10.5 5t8 11t5.5 13q1 3 4.5 12t5 15t4 14.5t2 15.5t-2.5 13h-58q-33 4 -33 28q-3 25 27 33q14 3 30.5 5t25 2.5t8.5 2.5q-47 92 -66 260q-6 107 56.5 188t164.5 81q76 0 119 -57.5 t43 -127.5q0 -146 -107 -172q-25 -8 -41 4q-20 11 -8 43l25 54q29 67 18 149q-6 70 -63 70q-63 -8 -84 -135q-9 -60 1.5 -128.5t31.5 -113.5q6 -13 15 -47t19 -51z" />
<glyph unicode="&#xa4;" horiz-adv-x="550" d="M174 223l-49 -55q-15 -20 -19 -23q-13 -15 -33 -16.5t-32 10.5q-11 11 -12 35.5t12 32.5q44 26 54.5 65t-3.5 84q-11 62 39 97q6 3 16 15t13 15l-41 60q-17 34 -19 41q-3 27 23 30q39 3 57 -22q20 -24 25 -41q16 -44 67 -33q76 17 131 -20q4 4 21 22.5t25 28.5 q29 32 55 16q34 -24 10 -65q-6 -9 -51 -66q44 -111 -27 -190q3 -4 14.5 -18t14.5 -21q25 -48 27 -68q4 -24 -12 -34.5t-38 1.5q-13 8 -26 29q-4 5 -11.5 15.5t-12 15.5t-12.5 12.5t-15 11t-18.5 5t-24.5 0.5q-20 -2 -43.5 2.5t-56 14t-48.5 13.5zM373 311q17 32 2 92 q-14 46 -37 52q-91 21 -137 -33q-34 -40 -2 -121q0 -1 2 -6.5t4 -7.5q17 -28 56.5 -32t62.5 19q8 7 25 19.5t24 17.5z" />
<glyph unicode="&#xa5;" horiz-adv-x="991" d="M602 242h-35v-142q0 -27 11.5 -36.5t42.5 -16.5q9 -1 40.5 -6.5t60 -10t40.5 -5.5l18 -3t13 -7t6 -17q0 -17 -17 -20t-45 2q-128 14 -237 14q-51 0 -134.5 -8t-117 -5t-33.5 27q0 11 10.5 18t22 9t28 3.5t19.5 2.5q7 1 49.5 6t58.5 8q34 6 31 41q-1 13 4 148l-35 2 q-3 0 -63 -6h-35q-21 5 -33.5 15.5t-9.5 23.5q3 30 43 30q31 2 92 2h43q0 67 -2 92v5l-35 2q-12 0 -35.5 -3.5t-27.5 -3.5h-35q-21 5 -33.5 15.5t-9.5 23.5q3 31 43 31q31 2 92 2h27q-9 39 -37 92q-14 24 -66 119.5t-77 136.5q-23 39 -58.5 60t-95.5 24q-22 0 -46 6.5 t-24 22.5q0 6 5.5 10.5t13.5 6t18 2.5t18 0.5t15 -1.5h8q26 0 84 -6.5t88 -5.5q55 0 136 12q22 5 61.5 2.5t44.5 -22.5q3 -11 -5.5 -16t-19.5 -5q-20 1 -48 1.5t-52 -10.5t-22 -32q0 -16 4 -24l157 -299q2 -5 13 -10q15 29 85 160t103 198h-90q-27 0 -39 4q-4 1 -8 12t-4 17 q0 12 12 16q15 6 29 6l161 -10q22 0 85 5t85 5q33 0 33 -20q0 -11 -5 -18t-11.5 -10.5t-17.5 -5t-19 -1t-21 1t-18 0.5q-59 2 -78 -6.5t-39 -46.5q-12 -22 -90 -162t-110 -205h75q16 0 30.5 -2.5t28 -13t11.5 -27.5q-2 -26 -39 -30q0 -3 -43 -2l-43 2h-33v-23v-68h88 q16 0 30.5 -2.5t28 -13t11.5 -27.5q-2 -26 -39 -30q0 -3 -43 -2z" />
<glyph unicode="&#xa6;" horiz-adv-x="190" d="M147 930q-4 -41 -33.5 -50t-56 12t-22.5 54l2 98q2 78 2 234q0 6 -2 18.5t-2 18.5q-3 47 26 65q45 30 89 13q4 -1 9 -11.5t3 -15.5q0 -247 -10 -362q-1 -8 -5 -74zM29 463q0 49 40 54q35 5 60 -23q21 -23 12 -52q0 -324 4 -438q0 -66 -20.5 -116t-56.5 -50 q-19 0 -30 65.5t-11 108.5q2 33 2 451z" />
<glyph unicode="&#xa7;" horiz-adv-x="618" d="M127 459q3 102 76 168l-74 67q-64 73 -74 174q-3 120 83 200.5t200 78.5q118 -3 194 -82q39 -39 50.5 -88t-1.5 -91t-43 -75.5t-69 -46.5q-15 -6 -33 -6q-15 1 -19.5 12.5t1.5 24.5q0 4 4 8q22 25 34.5 61t12.5 66q-3 67 -38 113t-97 47q-86 1 -123 -52.5t-21 -134.5 q6 -25 22.5 -55.5t28 -46.5t41 -52.5t33.5 -41.5q48 -57 125 -175q55 -72 52 -161q-3 -104 -70 -168l70 -70q58 -67 73 -174q3 -120 -83.5 -199.5t-200.5 -76.5q-119 3 -195 79q-50 52 -53 117.5t31.5 115.5t87.5 68q18 7 32 7q15 0 20 -11t-3 -24q0 -4 -4 -8 q-21 -27 -34 -64t-11 -65q3 -66 38 -111.5t97 -46.5q85 -3 122 50.5t21 133.5q-5 21 -14 41.5t-26.5 45t-25.5 36t-33.5 41.5t-27.5 33q-50 62 -123 174q-53 69 -53 164zM207 567q-13 -54 31 -128.5t129 -176.5l16 -18q7 7 10 18q15 58 -18.5 139t-100.5 164l-30 25 q-34 -13 -37 -23z" />
<glyph unicode="&#xa8;" horiz-adv-x="501" d="M121 1137q-41 0 -66.5 21t-25.5 61q-1 34 31.5 61t72.5 25q27 -2 51.5 -26t24.5 -50q0 -92 -88 -92zM387 1137q-41 0 -66.5 21t-25.5 61q-1 34 31.5 61t72.5 25q27 -2 51.5 -26t24.5 -50q0 -92 -88 -92z" />
<glyph unicode="&#xa9;" horiz-adv-x="827" d="M528 8q-93 -24 -137 -22q-105 7 -176 51q-42 26 -61 55q-1 2 -35 47q-11 14 -27 41q-21 38 -39 78q-8 21 -10 29q-35 145 -14 256q12 60 26 84q11 18 29 51t34 59t34 47q44 51 86 70q63 31 111 39.5t114 3.5q105 -8 209 -80l12 -8q9 -5 17 -11.5t15 -15.5t12 -14.5 t10.5 -18t8.5 -17t8.5 -19.5t6.5 -17.5t6.5 -20t5.5 -18.5q27 -93 27 -168q0 -8 4 -24q4 -63 -8 -103q-17 -65 -27 -118q-4 -18 -8 -23q-9 -12 -41 -57t-51 -68q-9 -11 -20 -21t-28.5 -22.5t-23.5 -17.5q0 -2 -29 -13t-41 -14zM573 92q15 10 19 14l29 29q93 86 106 236 q1 9 1 25.5t1 30.5t4 26q5 27 2 57q-1 19 -4.5 40.5t-6.5 36t-9.5 40.5t-9.5 37q0 4 -9 18q-23 52 -84 106q-40 34 -90 46q-158 30 -274 -27q-20 -9 -39.5 -29t-29.5 -35t-27 -43q-45 -80 -58 -182q-11 -86 -4 -143q6 -52 23 -96q6 -10 14 -31.5t10 -26.5q45 -92 121 -145 q21 -17 35 -19q73 -18 153 -18l50 10q16 4 44 21t33 22zM233 444q4 105 78 166q28 24 65 33t81 -3.5t78 -51.5q7 -6 10 -17q1 -1 3.5 -7t3.5 -8.5t2 -7.5t1 -8t-2 -7t-6 -7q-3 -2 -5.5 -3t-5 -1h-5t-5.5 1.5t-4.5 2t-4.5 3t-4.5 3.5t-4.5 4t-4 3q-52 48 -101 41 q-51 -6 -81 -48.5t-23 -97.5q3 -23 10 -53q11 -42 40 -64.5t65.5 -18.5t68.5 34q6 5 16.5 18.5t16.5 18.5q15 15 29 8q11 -3 16 -27q3 -9 -6 -22q-38 -66 -108 -87.5t-132 19.5q-47 35 -64.5 71.5t-17.5 112.5z" />
<glyph unicode="&#xaa;" horiz-adv-x="935" d="M608 854q5 -27 25 -134t33 -165q20 -85 46 -243t44 -236q4 -14 10 -27q13 -2 56.5 2t72.5 0.5t29 -22.5q0 -22 -9 -27q-14 -8 -34.5 -9.5t-40 1.5t-49 6.5t-52.5 3.5q-45 0 -101.5 -7t-82.5 -7h-7h-9t-9 0.5t-10 1t-8.5 2t-8 3.5t-5.5 5t-4.5 7t-1.5 9q0 16 28 21.5 t64.5 7t48.5 8.5q-13 55 -64 242l-245 -10q-15 -33 -26 -71.5t-23.5 -92t-20.5 -82.5q17 2 58.5 4.5t47.5 3.5q17 2 29 -5t12 -19q0 -28 -30 -31q-25 -1 -90 1.5t-78 2.5q-5 0 -32 0.5t-42 0t-37 -2.5t-37 -6q-12 -6 -29 0t-14 24q1 6 3.5 10.5t6.5 7.5t7.5 5.5t10 4t11 2 t12.5 1t11.5 0.5h12h11.5q25 -2 41 -1t25.5 11.5t15.5 34.5l80 283q16 56 53 177.5t56 186.5q44 146 53 183q-75 31 -150 12q-83 -18 -71 -88q3 -13 -9 -22.5t-27 -6t-20 22.5q-8 29 4.5 61t38.5 51q53 38 148 31q63 -5 156 0.5t102 5.5q15 0 15.5 -18t-4.5 -47.5t3 -67.5z M465 838q-25 -98 -71.5 -273.5t-57.5 -216.5q49 -10 76 -9t75 6.5t76 4.5z" />
<glyph unicode="&#xab;" horiz-adv-x="555" d="M27 336q0 25 6.5 34t20.5 9.5t16 1.5q34 18 58.5 42t58 68.5t53.5 67.5q21 21 72 25q35 3 32 -11q-1 -4 -6 -10q-32 -33 -102.5 -116t-90.5 -101q55 -40 120 -112t65 -113q0 -36 -31 -29q-61 15 -78 62q-10 26 -42.5 68t-53.5 57q-18 14 -38 22t-32 9.5t-20 7.5t-8 18z M225 346q0 15 4.5 23.5t9 10.5t13.5 5q31 10 55.5 34.5t59 72t55.5 71.5q21 21 72 25q35 3 32 -11q-1 -4 -6 -10q-32 -33 -102 -116t-90 -101q55 -39 119.5 -111.5t64.5 -113.5q0 -36 -31 -29q-61 15 -78 62q-10 26 -42.5 68t-53.5 57q-22 17 -44.5 26.5t-30 15t-7.5 21.5z " />
<glyph unicode="&#xad;" horiz-adv-x="522" d="M369 242l-199 4q-10 -1 -44.5 -3.5t-53.5 -2.5q-21 5 -33.5 15.5t-9.5 23.5q3 30 43 30q31 2 92 2q45 0 130.5 2.5t129.5 1.5q16 0 30.5 -2.5t28 -13t11.5 -27.5q-2 -26 -39 -30q0 -3 -43 -2z" />
<glyph unicode="&#xae;" horiz-adv-x="827" d="M528 8q-93 -24 -137 -22q-105 7 -176 51q-42 26 -61 55q-1 2 -35 47q-11 14 -27 41q-21 38 -39 78q-8 21 -10 29q-35 145 -14 256q12 60 26 84q11 18 29 51t34 59t34 47q44 51 86 70q63 31 111 39.5t114 3.5q105 -8 209 -80l12 -8q9 -5 17 -11.5t15 -15.5t12 -14.5 t10.5 -18t8.5 -17t8.5 -19.5t6.5 -17.5t6.5 -20t5.5 -18.5q27 -93 27 -168q0 -8 4 -24q4 -63 -8 -103q-17 -65 -27 -118q-4 -18 -8 -23q-9 -12 -41 -57t-51 -68q-9 -11 -20 -21t-28.5 -22.5t-23.5 -17.5q0 -2 -29 -13t-41 -14zM573 92q15 10 19 14l29 29q93 86 106 236 q1 9 1 25.5t1 30.5t4 26q5 27 2 57q-1 19 -4.5 40.5t-6.5 36t-9.5 40.5t-9.5 37q0 4 -9 18q-23 52 -84 106q-40 34 -90 46q-158 30 -274 -27q-20 -9 -39.5 -29t-29.5 -35t-27 -43q-45 -80 -58 -182q-11 -86 -4 -143q6 -52 23 -96q6 -10 14 -31.5t10 -26.5q45 -92 121 -145 q21 -17 35 -19q73 -18 153 -18l50 10q16 4 44 21t33 22zM334 385q0 -59 -2 -88q0 -35 -21 -41q-12 -3 -27 9.5t-18 27.5q-4 53 -2 80q7 106 17 174q6 57 41 83.5t94 18.5q46 -7 71 -16q33 -9 52 -38.5t17.5 -65t-24.5 -60.5q-9 -9 -32 -27.5t-35 -29.5l47 -76l18 -23 q19 -36 -6 -51q-12 -8 -27.5 -4.5t-25.5 16.5q-6 9 -17 28.5t-16 27.5l-10 20q-20 38 -32.5 42.5t-61.5 -7.5zM332 446q37 4 39 5q46 11 51 14q33 21 49 39q12 15 9.5 38.5t-19.5 30.5q-57 21 -88 11q-39 -12 -39 -49q-2 -29 -2 -89z" />
<glyph unicode="&#xaf;" horiz-adv-x="530" d="M373 1081l-199 4q-10 -1 -44.5 -3.5t-53.5 -2.5q-21 5 -33.5 15.5t-9.5 23.5q3 31 43 31q31 2 92 2q45 0 130.5 2.5t129.5 1.5q16 0 30.5 -2.5t28 -13t11.5 -27.5q-2 -27 -39 -31q0 -3 -43 -1z" />
<glyph unicode="&#xb0;" horiz-adv-x="466" d="M29 262q2 94 63.5 158.5t155.5 64.5q87 0 139.5 -64t52.5 -145q0 -90 -55.5 -143t-142.5 -53q-89 0 -152.5 50t-60.5 132zM154 262q0 -43 26 -81t60 -38q37 0 62.5 39.5t25.5 93.5q0 50 -22 85.5t-62 35.5q-36 0 -63 -39.5t-27 -95.5z" />
<glyph unicode="&#xb1;" horiz-adv-x="440" d="M248 369v-62q0 -35 -33 -35q-25 0 -29 31q-4 21 -8 68l-110 12q-26 3 -31 9t-10 38q23 11 73.5 8t79.5 8v60q0 33 2 49q3 31 33 31q13 0 22 -9t11 -22v-74q-1 -28 6 -35.5t33 -7.5q10 0 26.5 0.5t30 0.5t25.5 -1q23 -1 34.5 -11.5t8.5 -25.5q-4 -26 -45 -26zM238 221 l120 -8q25 -4 33 -10q21 -21 19 -29q-1 -7 -11 -14.5t-16 -7.5q-72 -3 -127 2q-91 11 -145 2q-25 -6 -50 0q-8 2 -15.5 9t-6.5 11q0 8 6.5 17t13.5 12q41 11 97 14q14 2 82 2z" />
<glyph unicode="&#xb4;" horiz-adv-x="294" d="M238 1188l-164 -76q-39 -14 -43 8q-8 22 0 62q1 4 5 7t11 7.5t10 7.5q3 2 14.5 10t15 10.5t14.5 9.5t15.5 10.5t14 10.5t14.5 11.5t13 11.5t13.5 12.5t12 12.5t11.5 14q16 21 45 8q28 -12 27.5 -71.5t-29.5 -65.5z" />
<glyph unicode="&#xb5;" horiz-adv-x="907" d="M236 -205q-19 0 -30 65.5t-11 108.5q2 47 2 619v71v9q0 111 -2 170q0 56 -45 53q-46 0 -82 -8q-34 -3 -43 30q-3 15 6.5 26.5t27.5 12.5q36 1 104.5 -6.5t100.5 -7.5q22 0 74 8t74 8q1 0 8 -1t10 -1.5t10 -1.5t11 -2.5t8.5 -4t7 -6t2.5 -7.5q2 -15 -49 -29 q-59 -23 -70 -32q-20 -17 -20 -70q-1 -107 0 -186.5t5 -156.5t11.5 -130.5t20 -99.5t30.5 -73t42.5 -42t56.5 -15q58 0 101.5 67.5t55.5 170.5q9 78 10.5 175.5t-1.5 198t-3 105.5q0 42 -12 59.5t-47 26.5q-8 2 -21 4.5t-19.5 4.5t-13.5 5t-9.5 8t-1.5 13q3 20 51 20 q16 0 51.5 -6t54.5 -6q18 0 65.5 4.5t65.5 3.5q37 -5 39 -6q8 -3 16 -10t7 -10q-2 -8 -8.5 -17t-12.5 -10q-16 -4 -47 -4q-47 0 -69 -12.5t-25 -51.5q-2 -12 -2 -38q1 -60 0 -181t0 -182q0 -70 -8 -168q-8 -91 -80.5 -177.5t-159.5 -86.5q-95 0 -151 47q-3 -68 -9 -82 q0 -66 -20.5 -116t-56.5 -50z" />
<glyph unicode="&#xb6;" horiz-adv-x="591" d="M358 754q-43 4 -53 -4t-10 -48q0 -26 1 -55.5t2.5 -65t2.5 -55.5l4 -225q4 -144 4 -215q3 -37 0 -74q0 -24 -33 -28q-23 -3 -34 22q-2 10 -2 29q0 23 -3.5 126t-3.5 158q-3 42 -36 50q-65 17 -115 73q-92 94 -33 232q34 89 113 108l22 11q86 54 217 24q79 -19 115 -47 q64 -45 43 -108q-3 -8 -10.5 -16.5t-13.5 -8.5t-31 20q-4 8 -4 19q1 30 -15 43.5t-53 21.5q0 -7 -1.5 -28t-0.5 -31q1 -50 5 -150.5t5 -150.5q1 -32 1 -67t-0.5 -78t-0.5 -66v-133v-6.5v-7t-0.5 -6t-1.5 -6t-2.5 -5t-4 -5t-6.5 -3t-9 -2.5q-39 -3 -45 35q-9 65 -9 88 q0 46 1.5 139t1.5 139q0 69 -3 198t-4 159z" />
<glyph unicode="&#xb7;" horiz-adv-x="243" d="M125 401q-41 0 -66.5 21t-25.5 61q-1 34 31.5 61t72.5 25q27 -2 51.5 -25.5t24.5 -49.5q0 -93 -88 -93z" />
<glyph unicode="&#xb8;" horiz-adv-x="376" d="M133 -20q30 68 74 112q23 23 45 -4l-57 -108q7 -1 20 0t23 0q52 -5 85.5 -49.5t20.5 -96.5q-24 -87 -84.5 -141.5t-159.5 -54.5q-13 0 -22.5 1.5t-18 6t-11 6.5t-13.5 10q-9 8 -6 17.5t14 15.5q8 4 29 4q56 -1 97 36.5t60 94.5q16 50 -11 78.5t-79 28.5q-9 0 -13 2 t-4 7.5t2.5 12.5t8.5 21z" />
<glyph unicode="&#xba;" d="M51 446q0 79 10.5 152.5t36 146t63.5 126.5t99 87t137 33q174 0 257 -126t83 -353q0 -487 -299 -539q-32 -4 -51 -4q-74 0 -133.5 30.5t-96.5 78.5t-61.5 112.5t-34.5 127.5t-10 128zM406 932q-86 -7 -120 -57t-48 -144q-26 -151 -23 -297q2 -154 11 -210 q29 -197 159 -197q44 0 77.5 22.5t54 64t34 86.5t19.5 105t8 104.5t2 98.5v18q0 55 -0.5 84t-3.5 79t-9.5 78t-19 64t-30.5 55t-46.5 32.5t-64.5 13.5z" />
<glyph unicode="&#xbb;" horiz-adv-x="555" d="M551 352q0 -25 -6.5 -34t-20.5 -9.5t-16 -1.5q-34 -18 -58.5 -42t-58 -68.5t-53.5 -67.5q-21 -21 -72 -25q-35 -3 -32 11q1 4 6 10q32 33 102 116t90 101q-55 39 -119.5 111.5t-64.5 113.5q0 36 31 29q60 -15 77 -61q10 -26 43 -68t54 -57q18 -14 38 -22t32 -10t20 -8 t8 -18zM352 342q0 -11 -2 -18.5t-6 -11.5t-7.5 -5.5t-10.5 -3.5q-31 -10 -55.5 -34.5t-59 -72t-55.5 -71.5q-21 -21 -71 -25q-37 -3 -34 11q1 4 6 10q32 33 102.5 116t90.5 101q-55 39 -119.5 111.5t-64.5 113.5q0 36 30 29q61 -15 78 -62q10 -26 42.5 -67.5t53.5 -56.5 q18 -14 35.5 -23t26.5 -12t14.5 -10t5.5 -19z" />
<glyph unicode="&#xbf;" horiz-adv-x="567" d="M172 297q-8 -36 -8 -90q0 -64 26.5 -119t69.5 -55q54 0 102.5 77.5t51.5 139.5q3 58 -11 110q-25 81 -28 101q-3 10 2 28q8 19 21 20.5t24 -15.5q34 -50 51 -83.5t27 -80.5q16 -74 16 -111q0 -93 -79 -160t-181 -67q-58 0 -96.5 26t-67.5 80q-38 66 -41 162 q0 64 17 123.5t47 114t62.5 105t72.5 118.5t67 133q3 7 5.5 23.5t5.5 23.5q8 22 28 27q9 0 20 -11t11 -28q0 -24 -13 -72t-32 -82q-50 -88 -80 -157q-74 -172 -90 -281zM356 1163q42 0 67.5 -21t25.5 -61q1 -34 -32 -61t-73 -25q-27 2 -51.5 26t-24.5 50q0 92 88 92z" />
<glyph unicode="&#xc0;" horiz-adv-x="970" d="M621 66l-66 290l-176 19q-13 -43 -41 -145.5t-45 -157.5q26 -10 72 -15q14 0 20 -0.5t16 -2.5t14.5 -8.5t4.5 -16.5q0 -7 -2.5 -11.5t-7.5 -7t-8 -3.5t-10 -2l-7 -1q-30 -4 -42.5 -3.5t-40 4t-50.5 3.5q-3 0 -96 -5t-115 -1q-13 2 -22.5 11.5t-6.5 23.5q5 29 43 18 q30 -8 92 3t72 12q4 12 18 50.5t19.5 55t17 50t17.5 55.5t13 51.5t11 56.5q-34 12 -41.5 9.5t-19.5 -31.5q-7 -18 -20 -20.5t-25 11.5q-18 20 -15.5 43.5t23.5 36.5t55 17q8 2 18 2t23 -1t21 -1q24 98 45 170q2 9 9 37.5t9 44.5l31 163q6 44 -37 52q-108 21 -184 4 q-56 -13 -69.5 -34t-2.5 -77q-19 -27 -45 -4q-26 25 -27 57.5t25 61.5q56 59 145 59q36 1 152 -8q21 -2 66.5 -9t72.5 -10t70 -2t84 9q16 3 31 -2.5t16 -18.5q3 -38 -51 -45q-32 -5 -51 -10q0 -34 6 -55q27 -111 48.5 -240t43.5 -285.5t37 -242.5q52 -14 123 -11 q27 2 53.5 -4t26.5 -28q0 -21 -37 -25q-28 -2 -50.5 -1.5t-76.5 2t-90 1.5q-17 1 -81.5 -2.5t-74.5 -3.5q-34 0 -37 29q0 31 35 34q4 0 33 2.5t39 2.5zM541 438q2 81 -24 252.5t-44 198.5q11 -69 -3.5 -145.5t-40 -162t-32.5 -141.5q74 -29 144 -2zM485 1294l115 -137 q24 -34 4 -45q-20 -14 -59 -14q-7 0 -29 18q-2 2 -13 11.5t-14 12t-13.5 11.5t-14.5 12t-13.5 10.5t-15 11t-14.5 10t-15.5 10t-15 8t-16.5 8.5q-26 9 -19 41q5 30 62 44.5t71 -12.5z" />
<glyph unicode="&#xc1;" horiz-adv-x="970" d="M621 66l-66 290l-176 19q-13 -43 -41 -145.5t-45 -157.5q26 -10 72 -15q14 0 20 -0.5t16 -2.5t14.5 -8.5t4.5 -16.5q0 -7 -2.5 -11.5t-7.5 -7t-8 -3.5t-10 -2l-7 -1q-30 -4 -42.5 -3.5t-40 4t-50.5 3.5q-3 0 -96 -5t-115 -1q-13 2 -22.5 11.5t-6.5 23.5q5 29 43 18 q30 -8 92 3t72 12q4 12 18 50.5t19.5 55t17 50t17.5 55.5t13 51.5t11 56.5q-34 12 -41.5 9.5t-19.5 -31.5q-7 -18 -20 -20.5t-25 11.5q-18 20 -15.5 43.5t23.5 36.5t55 17q8 2 18 2t23 -1t21 -1q24 98 45 170q2 9 9 37.5t9 44.5l31 163q6 44 -37 52q-108 21 -184 4 q-56 -13 -69.5 -34t-2.5 -77q-19 -27 -45 -4q-26 25 -27 57.5t25 61.5q56 59 145 59q36 1 152 -8q21 -2 66.5 -9t72.5 -10t70 -2t84 9q16 3 31 -2.5t16 -18.5q3 -38 -51 -45q-32 -5 -51 -10q0 -34 6 -55q27 -111 48.5 -240t43.5 -285.5t37 -242.5q52 -14 123 -11 q27 2 53.5 -4t26.5 -28q0 -21 -37 -25q-28 -2 -50.5 -1.5t-76.5 2t-90 1.5q-17 1 -81.5 -2.5t-74.5 -3.5q-34 0 -37 29q0 31 35 34q4 0 33 2.5t39 2.5zM541 438q2 81 -24 252.5t-44 198.5q11 -69 -3.5 -145.5t-40 -162t-32.5 -141.5q74 -29 144 -2zM592 1188l-164 -76 q-39 -14 -43 8q-8 22 0 62q1 4 5 7.5t11.5 7.5t10.5 7q29 20 38.5 26.5t32.5 23.5t38 31.5t28 31.5q16 21 45 8q28 -12 27.5 -71.5t-29.5 -65.5z" />
<glyph unicode="&#xc2;" horiz-adv-x="970" d="M621 66l-66 290l-176 19q-13 -43 -41 -145.5t-45 -157.5q26 -10 72 -15q14 0 20 -0.5t16 -2.5t14.5 -8.5t4.5 -16.5q0 -7 -2.5 -11.5t-7.5 -7t-8 -3.5t-10 -2l-7 -1q-30 -4 -42.5 -3.5t-40 4t-50.5 3.5q-3 0 -96 -5t-115 -1q-13 2 -22.5 11.5t-6.5 23.5q5 29 43 18 q30 -8 92 3t72 12q4 12 18 50.5t19.5 55t17 50t17.5 55.5t13 51.5t11 56.5q-34 12 -41.5 9.5t-19.5 -31.5q-7 -18 -20 -20.5t-25 11.5q-18 20 -15.5 43.5t23.5 36.5t55 17q8 2 18 2t23 -1t21 -1q24 98 45 170q2 9 9 37.5t9 44.5l31 163q6 44 -37 52q-108 21 -184 4 q-56 -13 -69.5 -34t-2.5 -77q-19 -27 -45 -4q-26 25 -27 57.5t25 61.5q56 59 145 59q36 1 152 -8q21 -2 66.5 -9t72.5 -10t70 -2t84 9q16 3 31 -2.5t16 -18.5q3 -38 -51 -45q-32 -5 -51 -10q0 -34 6 -55q27 -111 48.5 -240t43.5 -285.5t37 -242.5q52 -14 123 -11 q27 2 53.5 -4t26.5 -28q0 -21 -37 -25q-28 -2 -50.5 -1.5t-76.5 2t-90 1.5q-17 1 -81.5 -2.5t-74.5 -3.5q-34 0 -37 29q0 31 35 34q4 0 33 2.5t39 2.5zM541 438q2 81 -24 252.5t-44 198.5q11 -69 -3.5 -145.5t-40 -162t-32.5 -141.5q74 -29 144 -2zM494 1227l-76 -105 q-32 -41 -52 -58t-38 -17q-33 0 -41.5 28.5t18.5 40.5q6 2 14 9t19.5 18.5t22 23t24.5 28t24 27.5t24.5 28.5t21.5 25.5q24 24 32.5 23t34.5 -27q22 -22 57.5 -65.5t53.5 -63.5q4 -5 26.5 -27t26.5 -29q11 -23 0 -34q-12 -11 -29.5 1t-52.5 49q-8 8 -12 13 q-14 14 -50.5 56.5t-47.5 54.5z" />
<glyph unicode="&#xc3;" horiz-adv-x="970" d="M621 66l-66 290l-176 19q-13 -43 -41 -145.5t-45 -157.5q26 -10 72 -15q14 0 20 -0.5t16 -2.5t14.5 -8.5t4.5 -16.5q0 -7 -2.5 -11.5t-7.5 -7t-8 -3.5t-10 -2l-7 -1q-30 -4 -42.5 -3.5t-40 4t-50.5 3.5q-3 0 -96 -5t-115 -1q-13 2 -22.5 11.5t-6.5 23.5q5 29 43 18 q30 -8 92 3t72 12q4 12 18 50.5t19.5 55t17 50t17.5 55.5t13 51.5t11 56.5q-34 12 -41.5 9.5t-19.5 -31.5q-7 -18 -20 -20.5t-25 11.5q-18 20 -15.5 43.5t23.5 36.5t55 17q8 2 18 2t23 -1t21 -1q24 98 45 170q2 9 9 37.5t9 44.5l31 163q6 44 -37 52q-108 21 -184 4 q-56 -13 -69.5 -34t-2.5 -77q-19 -27 -45 -4q-26 25 -27 57.5t25 61.5q56 59 145 59q36 1 152 -8q21 -2 66.5 -9t72.5 -10t70 -2t84 9q16 3 31 -2.5t16 -18.5q3 -38 -51 -45q-32 -5 -51 -10q0 -34 6 -55q27 -111 48.5 -240t43.5 -285.5t37 -242.5q52 -14 123 -11 q27 2 53.5 -4t26.5 -28q0 -21 -37 -25q-28 -2 -50.5 -1.5t-76.5 2t-90 1.5q-17 1 -81.5 -2.5t-74.5 -3.5q-34 0 -37 29q0 31 35 34q4 0 33 2.5t39 2.5zM541 438q2 81 -24 252.5t-44 198.5q11 -69 -3.5 -145.5t-40 -162t-32.5 -141.5q74 -29 144 -2zM731 1192q-10 -8 -37 -30 t-46 -35t-38 -21q-55 -25 -135 12l-43 25q-42 20 -67.5 16.5t-61.5 -33.5q-11 -11 -24 -16q-17 -5 -27 6.5t-4 28.5q7 18 18 26q59 56 140 41q41 -4 67 -24q53 -30 91 -23t81 45q24 22 41.5 18.5t44.5 -36.5z" />
<glyph unicode="&#xc4;" horiz-adv-x="970" d="M621 66l-66 290l-176 19q-13 -43 -41 -145.5t-45 -157.5q26 -10 72 -15q14 0 20 -0.5t16 -2.5t14.5 -8.5t4.5 -16.5q0 -7 -2.5 -11.5t-7.5 -7t-8 -3.5t-10 -2l-7 -1q-30 -4 -42.5 -3.5t-40 4t-50.5 3.5q-3 0 -96 -5t-115 -1q-13 2 -22.5 11.5t-6.5 23.5q5 29 43 18 q30 -8 92 3t72 12q4 12 18 50.5t19.5 55t17 50t17.5 55.5t13 51.5t11 56.5q-34 12 -41.5 9.5t-19.5 -31.5q-7 -18 -20 -20.5t-25 11.5q-18 20 -15.5 43.5t23.5 36.5t55 17q8 2 18 2t23 -1t21 -1q24 98 45 170q2 9 9 37.5t9 44.5l31 163q6 44 -37 52q-108 21 -184 4 q-56 -13 -69.5 -34t-2.5 -77q-19 -27 -45 -4q-26 25 -27 57.5t25 61.5q56 59 145 59q36 1 152 -8q21 -2 66.5 -9t72.5 -10t70 -2t84 9q16 3 31 -2.5t16 -18.5q3 -38 -51 -45q-32 -5 -51 -10q0 -34 6 -55q27 -111 48.5 -240t43.5 -285.5t37 -242.5q52 -14 123 -11 q27 2 53.5 -4t26.5 -28q0 -21 -37 -25q-28 -2 -50.5 -1.5t-76.5 2t-90 1.5q-17 1 -81.5 -2.5t-74.5 -3.5q-34 0 -37 29q0 31 35 34q4 0 33 2.5t39 2.5zM541 438q2 81 -24 252.5t-44 198.5q11 -69 -3.5 -145.5t-40 -162t-32.5 -141.5q74 -29 144 -2zM354 1116q-41 0 -66.5 21 t-25.5 61q-1 34 32 61t73 25q27 -2 51 -26t24 -50q0 -92 -88 -92zM621 1116q-42 0 -67.5 21t-25.5 61q-1 34 32 61t73 25q27 -2 51.5 -26t24.5 -50q0 -92 -88 -92z" />
<glyph unicode="&#xc5;" horiz-adv-x="970" d="M621 66l-66 290l-176 19q-13 -43 -41 -145.5t-45 -157.5q26 -10 72 -15q14 0 20 -0.5t16 -2.5t14.5 -8.5t4.5 -16.5q0 -7 -2.5 -11.5t-7.5 -7t-8 -3.5t-10 -2l-7 -1q-30 -4 -42.5 -3.5t-40 4t-50.5 3.5q-3 0 -96 -5t-115 -1q-13 2 -22.5 11.5t-6.5 23.5q5 29 43 18 q30 -8 92 3t72 12q4 12 18 50.5t19.5 55t17 50t17.5 55.5t13 51.5t11 56.5q-34 12 -41.5 9.5t-19.5 -31.5q-7 -18 -20 -20.5t-25 11.5q-18 20 -15.5 43.5t23.5 36.5t55 17q8 2 18 2t23 -1t21 -1q24 98 45 170q2 9 9 37.5t9 44.5l31 163q6 44 -37 52q-108 21 -184 4 q-56 -13 -69.5 -34t-2.5 -77q-19 -27 -45 -4q-26 25 -27 57.5t25 61.5q56 59 145 59q36 1 152 -8q21 -2 66.5 -9t72.5 -10t70 -2t84 9q16 3 31 -2.5t16 -18.5q3 -38 -51 -45q-32 -5 -51 -10q0 -34 6 -55q27 -111 48.5 -240t43.5 -285.5t37 -242.5q52 -14 123 -11 q27 2 53.5 -4t26.5 -28q0 -21 -37 -25q-28 -2 -50.5 -1.5t-76.5 2t-90 1.5q-17 1 -81.5 -2.5t-74.5 -3.5q-34 0 -37 29q0 31 35 34q4 0 33 2.5t39 2.5zM541 438q2 81 -24 252.5t-44 198.5q11 -69 -3.5 -145.5t-40 -162t-32.5 -141.5q74 -29 144 -2zM508 1473q90 5 150.5 -42 t60.5 -126q0 -91 -60.5 -146t-148.5 -55q-100 0 -159.5 46.5t-59.5 133.5q0 83 67 138.5t150 50.5zM500 1159q52 0 81 39.5t29 97.5q0 45 -28 82t-70 37q-117 5 -117 -127q0 -54 31.5 -91.5t73.5 -37.5z" />
<glyph unicode="&#xc6;" horiz-adv-x="1130" d="M1040 711q-3 9 -2 29.5t-2 29.5q-2 6 -7 25t-10.5 34t-12.5 29q-44 78 -127 66q-14 -2 -74.5 -4.5t-75.5 -4.5q-8 -36 -8.5 -110.5t-1.5 -83.5q0 -55 -4 -191q17 0 67 -1t64 -1q15 0 24 8.5t11 22.5l4 25q0 34 28 34q15 0 29.5 -16t11.5 -31q-15 -62 -4 -155 q5 -36 -18 -39q-15 0 -41 22q-3 2 -6 11.5t-4 11.5q-14 27 -64.5 38.5t-79.5 -1.5q-22 -7 -22 -33q0 -15 -1 -43t-1 -41q2 -76 2 -225q1 -7 -0.5 -36t-1.5 -32q38 -9 107 -7t102 11q30 9 52.5 38.5t33 65t15 64.5t3.5 47q-3 38 35 41q5 0 8 -1.5t4.5 -6t2 -7.5t1 -11 t0.5 -13q4 -184 8 -276q-23 0 -70.5 -1t-72.5 -1q-50 0 -161.5 6t-118.5 6q-17 1 -81.5 -2.5t-74.5 -3.5q-17 0 -25.5 6.5t-7.5 22.5q5 30 41 34q4 0 34 2.5t40 2.5l-13 290l-172 19q-16 -33 -65 -139t-78 -164q24 -10 70 -15q18 0 26.5 -0.5t17 -7.5t5.5 -20 q-1 -7 -4 -11.5t-8.5 -7t-9 -3.5t-10 -2t-7.5 -1q-31 -4 -43.5 -3.5t-39.5 4t-50 3.5q-5 0 -77 -4t-77 0q-13 2 -20.5 11.5t-1.5 23.5q10 29 47 18q28 -6 36 -4t29 8.5t43 8.5q4 8 24 43.5t26 47t22.5 42.5t24.5 48t20.5 43t21.5 49t17 46q-32 12 -40.5 9.5t-25.5 -31.5 q-10 -18 -23.5 -20.5t-23.5 11.5q-12 20 -6 43.5t29 36.5t59 17q8 2 18 2t23 -1t21 -1q62 142 76 170l34 82l62 163q7 23 0.5 35.5t-29.5 16.5q-104 21 -182 4q-60 -13 -77 -34t-15 -77q-24 -27 -47 -4q-22 24 -17 57t37 62q68 59 156 59q36 1 151 -8q129 -6 158 -6 q41 0 65.5 2t52.5 6t60 6q31 4 64 4.5t76.5 -1t64.5 -1.5q41 -3 41 -43l-12 -256q-39 -11 -52 19zM575 438q17 80 23.5 251.5t-6.5 199.5q-2 -69 -30.5 -145.5t-69.5 -162t-58 -141.5q68 -29 141 -2z" />
<glyph unicode="&#xc7;" horiz-adv-x="702" d="M291 -123q23 55 59 98q-95 14 -166 93.5t-98 169.5q-26 98 -23 215q3 107 31 214.5t72 182.5q55 91 151 129q71 28 153.5 -3.5t111.5 -98.5q15 108 16 122q7 33 33 31q3 0 5 -0.5t4 -1.5t3 -2l2 -2t2 -3l1.5 -3t1.5 -4t1 -4.5t1 -5t1 -5.5q2 -12 2 -34q7 -95 4 -172 q0 -39 -16 -109q-1 -7 -11 -13.5t-18 -8.5q-10 -1 -15 5.5t-9 18.5l-37 111q-24 87 -107 129q-18 9 -46 3t-44 -20q-54 -42 -87 -130.5t-41.5 -164t-8.5 -155.5q0 -116 15.5 -184.5t52.5 -153.5q10 -24 38.5 -51.5t53.5 -40.5q5 -4 27 -5t30 1q50 11 72.5 43.5t42.5 101.5 q2 8 5.5 23.5t5.5 25t6 19.5t9.5 13.5t12.5 0.5q26 -11 37.5 -49t1.5 -66q-53 -154 -228 -164q-30 -54 -49 -96q7 -1 20 0t23 0q52 -5 86 -49.5t21 -95.5q-24 -87 -84.5 -142t-159.5 -55q-7 0 -13 0.5t-10 1t-9 2.5l-7.5 3t-7 4l-6 4t-6.5 5t-6 5q-8 8 -5.5 17t13.5 15 q10 5 28 5q57 -1 98 36.5t60 94.5q16 50 -10.5 78t-79.5 28q-9 0 -13 2t-4 7.5t2.5 12.5t8.5 21z" />
<glyph unicode="&#xc8;" horiz-adv-x="780" d="M217 924q-57 0 -131 4q-35 4 -47 16q-14 9 -10.5 21.5t20.5 15.5q6 2 23 2q24 1 117.5 -4t115.5 -4q41 0 70 2t64 6t65 6q31 4 64 4.5t76.5 -1t64.5 -1.5q41 -3 41 -43l-13 -256q-38 -10 -51 19q-3 9 -2 29.5t-2 29.5q-24 74 -31 88q-44 78 -127 66q-14 -2 -74 -4.5 t-75 -4.5q-8 -36 -8.5 -110.5t-1.5 -83.5q0 -21 -5 -191q17 0 67.5 -1t64.5 -1q31 0 34 31l4 25q0 34 29 34q15 0 29.5 -16t11.5 -31q-15 -62 -4 -155q5 -36 -18 -39q-15 0 -41 22q-3 2 -4.5 5.5t-3.5 9t-3 8.5q-14 27 -64 38.5t-79 -1.5q-23 -8 -23 -33q0 -15 -1 -43 t-1 -41q2 -76 2 -225q1 -7 -0.5 -36t-1.5 -32q38 -9 107 -7t102 11q56 18 81.5 92.5t23.5 122.5q-3 38 35 41q5 0 8 -1.5t4.5 -6t2 -7.5t1 -11t0.5 -13q4 -184 8 -276q-23 0 -70.5 -1t-72.5 -1q-43 0 -145 2t-146 2q-29 1 -106.5 -1.5t-106.5 1.5q-25 2 -40 18.5t-1 32.5 q29 11 81 7.5t81 2.5q15 47 20 423t-8 444zM410 1354l114 -137q25 -35 4 -46q-20 -14 -59 -14q-5 0 -29 19q-92 80 -145 104q-25 8 -19 41q5 30 62.5 45t71.5 -12z" />
<glyph unicode="&#xc9;" horiz-adv-x="780" d="M217 924q-57 0 -131 4q-35 4 -47 16q-14 9 -10.5 21.5t20.5 15.5q6 2 23 2q24 1 117.5 -4t115.5 -4q41 0 70 2t64 6t65 6q31 4 64 4.5t76.5 -1t64.5 -1.5q41 -3 41 -43l-13 -256q-38 -10 -51 19q-3 9 -2 29.5t-2 29.5q-24 74 -31 88q-44 78 -127 66q-14 -2 -74 -4.5 t-75 -4.5q-8 -36 -8.5 -110.5t-1.5 -83.5q0 -21 -5 -191q17 0 67.5 -1t64.5 -1q31 0 34 31l4 25q0 34 29 34q15 0 29.5 -16t11.5 -31q-15 -62 -4 -155q5 -36 -18 -39q-15 0 -41 22q-3 2 -4.5 5.5t-3.5 9t-3 8.5q-14 27 -64 38.5t-79 -1.5q-23 -8 -23 -33q0 -15 -1 -43 t-1 -41q2 -76 2 -225q1 -7 -0.5 -36t-1.5 -32q38 -9 107 -7t102 11q56 18 81.5 92.5t23.5 122.5q-3 38 35 41q5 0 8 -1.5t4.5 -6t2 -7.5t1 -11t0.5 -13q4 -184 8 -276q-23 0 -70.5 -1t-72.5 -1q-43 0 -145 2t-146 2q-29 1 -106.5 -1.5t-106.5 1.5q-25 2 -40 18.5t-1 32.5 q29 11 81 7.5t81 2.5q15 47 20 423t-8 444zM518 1227l-164 -76q-39 -14 -43 8q-8 22 0 62q1 4 5 7.5t11.5 7.5t10.5 7q29 20 38.5 26.5t32.5 23.5t38 31.5t28 31.5q16 21 45 8q28 -12 27.5 -71.5t-29.5 -65.5z" />
<glyph unicode="&#xca;" horiz-adv-x="780" d="M217 924q-57 0 -131 4q-35 4 -47 16q-14 9 -10.5 21.5t20.5 15.5q6 2 23 2q24 1 117.5 -4t115.5 -4q41 0 70 2t64 6t65 6q31 4 64 4.5t76.5 -1t64.5 -1.5q41 -3 41 -43l-13 -256q-38 -10 -51 19q-3 9 -2 29.5t-2 29.5q-24 74 -31 88q-44 78 -127 66q-14 -2 -74 -4.5 t-75 -4.5q-8 -36 -8.5 -110.5t-1.5 -83.5q0 -21 -5 -191q17 0 67.5 -1t64.5 -1q31 0 34 31l4 25q0 34 29 34q15 0 29.5 -16t11.5 -31q-15 -62 -4 -155q5 -36 -18 -39q-15 0 -41 22q-3 2 -4.5 5.5t-3.5 9t-3 8.5q-14 27 -64 38.5t-79 -1.5q-23 -8 -23 -33q0 -15 -1 -43 t-1 -41q2 -76 2 -225q1 -7 -0.5 -36t-1.5 -32q38 -9 107 -7t102 11q56 18 81.5 92.5t23.5 122.5q-3 38 35 41q5 0 8 -1.5t4.5 -6t2 -7.5t1 -11t0.5 -13q4 -184 8 -276q-23 0 -70.5 -1t-72.5 -1q-43 0 -145 2t-146 2q-29 1 -106.5 -1.5t-106.5 1.5q-25 2 -40 18.5t-1 32.5 q29 11 81 7.5t81 2.5q15 47 20 423t-8 444zM420 1300l-76 -104q-32 -41 -52 -58.5t-38 -17.5q-33 0 -41.5 29t18.5 41q6 2 14 9t19.5 18.5t22 23t24.5 28t24 27.5t24.5 28.5t21.5 25.5q24 24 33 23t35 -27q22 -22 56.5 -65t53.5 -64l26.5 -26.5t26.5 -29.5q12 -23 0 -35 q-12 -11 -28.5 0.5t-50.5 47.5q-10 11 -15 16q-14 14 -50.5 56t-47.5 54z" />
<glyph unicode="&#xcb;" horiz-adv-x="780" d="M217 924q-57 0 -131 4q-35 4 -47 16q-14 9 -10.5 21.5t20.5 15.5q6 2 23 2q24 1 117.5 -4t115.5 -4q41 0 70 2t64 6t65 6q31 4 64 4.5t76.5 -1t64.5 -1.5q41 -3 41 -43l-13 -256q-38 -10 -51 19q-3 9 -2 29.5t-2 29.5q-24 74 -31 88q-44 78 -127 66q-14 -2 -74 -4.5 t-75 -4.5q-8 -36 -8.5 -110.5t-1.5 -83.5q0 -21 -5 -191q17 0 67.5 -1t64.5 -1q31 0 34 31l4 25q0 34 29 34q15 0 29.5 -16t11.5 -31q-15 -62 -4 -155q5 -36 -18 -39q-15 0 -41 22q-3 2 -4.5 5.5t-3.5 9t-3 8.5q-14 27 -64 38.5t-79 -1.5q-23 -8 -23 -33q0 -15 -1 -43 t-1 -41q2 -76 2 -225q1 -7 -0.5 -36t-1.5 -32q38 -9 107 -7t102 11q56 18 81.5 92.5t23.5 122.5q-3 38 35 41q5 0 8 -1.5t4.5 -6t2 -7.5t1 -11t0.5 -13q4 -184 8 -276q-23 0 -70.5 -1t-72.5 -1q-43 0 -145 2t-146 2q-29 1 -106.5 -1.5t-106.5 1.5q-25 2 -40 18.5t-1 32.5 q29 11 81 7.5t81 2.5q15 47 20 423t-8 444zM322 1153q-42 0 -67.5 21t-25.5 61q-1 34 32 61t73 25q27 -2 51.5 -26t24.5 -50q0 -92 -88 -92zM588 1153q-41 0 -66.5 21t-25.5 61q-1 34 31.5 61t72.5 25q27 -2 51.5 -26t24.5 -50q0 -92 -88 -92z" />
<glyph unicode="&#xcc;" horiz-adv-x="557" d="M350 911v-297q-4 -254 -4 -383q0 -31 4 -153q0 -23 133 -31h21q26 -13 22 -33q-8 -26 -30 -24q-126 8 -205 8q-50 0 -115.5 -4.5t-89.5 -3.5q-28 0 -47.5 10.5t-5.5 30.5q20 15 67.5 20t83 8.5t35.5 16.5q1 20 3.5 63.5t2 58.5t-3.5 64q-1 19 0.5 53t1.5 45q0 21 -1 65.5 t-1 66.5q0 45 1 134.5t1 133.5q0 39 -4 117q-1 22 -10 30t-29 8h-53q-38 0 -59 7q-10 4 -19 12t-8 16t12 15.5t21 9.5q20 2 67 -2q19 0 66.5 -6t73.5 -6q34 -1 96.5 3t89.5 3q22 0 43 -6q27 -7 18 -29q-10 -19 -24 -19q-12 -2 -68 -2h-86zM279 1329l114 -137q24 -34 4 -45 q-20 -14 -59 -14q-6 0 -29 18q-92 80 -145 104q-26 9 -19 41q5 30 62.5 45t71.5 -12z" />
<glyph unicode="&#xcd;" horiz-adv-x="557" d="M350 911v-297q-4 -254 -4 -383q0 -31 4 -153q0 -23 133 -31h21q26 -13 22 -33q-8 -26 -30 -24q-126 8 -205 8q-50 0 -115.5 -4.5t-89.5 -3.5q-28 0 -47.5 10.5t-5.5 30.5q20 15 67.5 20t83 8.5t35.5 16.5q1 20 3.5 63.5t2 58.5t-3.5 64q-1 19 0.5 53t1.5 45q0 21 -1 65.5 t-1 66.5q0 45 1 134.5t1 133.5q0 39 -4 117q-1 22 -10 30t-29 8h-53q-38 0 -59 7q-10 4 -19 12t-8 16t12 15.5t21 9.5q20 2 67 -2q19 0 66.5 -6t73.5 -6q34 -1 96.5 3t89.5 3q22 0 43 -6q27 -7 18 -29q-10 -19 -24 -19q-12 -2 -68 -2h-86zM365 1182l-164 -76q-39 -14 -43 8 q-8 22 0 62q1 4 5 7t11 7.5t10 7.5q3 2 14.5 10t15 10.5t14.5 9.5t15.5 10.5t14 10.5t14.5 11.5t13 11.5t13.5 12.5t12 12.5t11.5 14q16 21 45 8q28 -12 27.5 -71.5t-29.5 -65.5z" />
<glyph unicode="&#xce;" horiz-adv-x="557" d="M350 911v-297q-4 -254 -4 -383q0 -31 4 -153q0 -23 133 -31h21q26 -13 22 -33q-8 -26 -30 -24q-126 8 -205 8q-50 0 -115.5 -4.5t-89.5 -3.5q-28 0 -47.5 10.5t-5.5 30.5q20 15 67.5 20t83 8.5t35.5 16.5q1 20 3.5 63.5t2 58.5t-3.5 64q-1 19 0.5 53t1.5 45q0 21 -1 65.5 t-1 66.5q0 45 1 134.5t1 133.5q0 39 -4 117q-1 22 -10 30t-29 8h-53q-38 0 -59 7q-10 4 -19 12t-8 16t12 15.5t21 9.5q20 2 67 -2q19 0 66.5 -6t73.5 -6q34 -1 96.5 3t89.5 3q22 0 43 -6q27 -7 18 -29q-10 -19 -24 -19q-12 -2 -68 -2h-86zM285 1307l-76 -105 q-32 -41 -52 -58.5t-38 -17.5q-33 0 -41.5 29t18.5 41q6 2 14 9t19.5 18.5t22 23t24.5 28t24 27.5t24.5 28.5t21.5 25.5q24 24 32.5 23t34.5 -27q22 -22 57.5 -65.5t53.5 -63.5q4 -4 26 -26.5t27 -29.5q11 -23 0 -34q-12 -11 -29.5 1t-52.5 49q-8 8 -12 13 q-14 14 -50.5 56.5t-47.5 54.5z" />
<glyph unicode="&#xcf;" horiz-adv-x="557" d="M350 911v-297q-4 -254 -4 -383q0 -31 4 -153q0 -23 133 -31h21q26 -13 22 -33q-8 -26 -30 -24q-126 8 -205 8q-50 0 -115.5 -4.5t-89.5 -3.5q-28 0 -47.5 10.5t-5.5 30.5q20 15 67.5 20t83 8.5t35.5 16.5q1 20 3.5 63.5t2 58.5t-3.5 64q-1 19 0.5 53t1.5 45q0 21 -1 65.5 t-1 66.5q0 45 1 134.5t1 133.5q0 39 -4 117q-1 22 -10 30t-29 8h-53q-38 0 -59 7q-10 4 -19 12t-8 16t12 15.5t21 9.5q20 2 67 -2q19 0 66.5 -6t73.5 -6q34 -1 96.5 3t89.5 3q22 0 43 -6q27 -7 18 -29q-10 -19 -24 -19q-12 -2 -68 -2h-86zM147 1143q-41 0 -66.5 21t-25.5 61 q-1 34 32 61t73 25q27 -2 51.5 -26t24.5 -50q0 -92 -89 -92zM414 1143q-41 0 -66.5 21t-25.5 61q-1 34 31.5 61t72.5 25q27 -2 51.5 -26t24.5 -50q0 -92 -88 -92z" />
<glyph unicode="&#xd0;" horiz-adv-x="882" d="M248 942q-26 0 -82.5 -6t-69.5 -10q-30 -13 -59 6q-11 11 -8 20q0 5 5 10.5t11 6.5q71 21 193 23t196 -11q156 -24 242.5 -93t116.5 -210q37 -149 18 -311q-22 -197 -217 -326q-29 -19 -73 -28t-73 -10t-86.5 1t-70.5 2q-34 0 -89.5 -4t-79 -4.5t-67.5 6.5q-22 4 -24 19 q-1 13 8 19.5t22 6.5l117 4q6 0 22 3t27 3q7 106 11 390l-31 2q-14 -1 -46.5 -4t-51.5 -3q-21 5 -33.5 15.5t-9.5 23.5q3 31 43 31q31 2 92 2h37q0 285 10 426zM406 446h-31l-15 -292v-95h89q64 6 116.5 48.5t71.5 113.5q31 113 31 322q5 183 -66 280t-227 109q4 -58 4 -80 q-1 -40 0.5 -141.5t-0.5 -141.5q0 -33 -2 -49h84q16 0 30.5 -2.5t27.5 -13t11 -27.5q-2 -27 -38 -31q0 -3 -43 -2z" />
<glyph unicode="&#xd1;" horiz-adv-x="1146" d="M340 834q-1 -13 -3 -36.5t-3 -42.5t0 -36q0 -43 3.5 -124t4.5 -106q1 -22 -0.5 -63.5t-1.5 -54.5v-162q0 -35 1 -51t6.5 -37t17.5 -41q9 -16 36.5 -22t66.5 -7t48 -2q37 -8 49 -18q14 -10 10.5 -23t-20.5 -16q-20 -6 -68 -6q-28 0 -88.5 5t-87.5 5q-20 1 -107.5 -7.5 t-92.5 -8.5h-23q-21 17 -25 28q-1 3 6 11.5t13 11.5q16 4 69 11t64 9q25 5 35 8t19.5 13.5t9.5 29.5v359q0 115 -3 229q0 69 -4 201q0 29 -24 39q-9 4 -24.5 6.5t-35.5 3t-35 1t-35 0t-24 -0.5q-15 0 -39 -4q-10 0 -13.5 1t-7 5t-5.5 14q-1 13 6.5 19t21.5 8q17 4 38.5 4 t52 -2t49.5 -2q118 0 151 -4q60 -8 108 -39.5t74 -83.5q109 -228 211 -498q38 -101 84 -194q8 -20 31 -39q0 1 1 45t-1 45q0 223 -2 334q0 97 -4 293q-1 47 -13.5 58.5t-64.5 17.5q-78 10 -113 10q-18 -1 -19 17q-2 22 17 30q3 1 7 2q27 3 118 -3.5t115 -4.5q23 1 68.5 6.5 t64.5 6t68 -4.5q6 0 13.5 -8t6.5 -15q-3 -13 -24 -18q-113 -11 -133 -12q-35 -3 -35 -37q-8 -218 -8 -328q0 -120 8 -358q0 -26 -6 -88.5t-5 -98.5q-1 0 -7 -4t-9 -4q-13 0 -59.5 -4t-59.5 0q-9 1 -19.5 11t-15.5 20q-40 78 -108 225t-102 215l-93 189l-94 169q-3 3 -8 3z M819 1212q-10 -8 -37 -30t-46 -35t-38 -21q-54 -25 -135 13l-43 24q-41 20 -67.5 16.5t-61.5 -32.5q-12 -12 -24 -17q-17 -5 -27 6.5t-4 28.5q8 19 18 27q59 56 140 41q39 -3 67 -25q84 -55 172 23q25 22 41.5 18.5t44.5 -37.5z" />
<glyph unicode="&#xd2;" horiz-adv-x="823" d="M778 502q-4 -91 -25.5 -175t-63 -161t-114.5 -123.5t-169 -46.5q-81 0 -144.5 28t-104 74t-67 109.5t-37 130t-10.5 141.5q0 67 14.5 138.5t46 141t74.5 124t106 88t136 33.5q90 2 162.5 -44t114.5 -121t63 -162.5t18 -174.5zM428 938q-44 0 -79 -18t-58 -44.5t-40.5 -69 t-26.5 -79.5t-15 -88t-7.5 -83t-2.5 -75q1 -67 6 -121t19.5 -113.5t36.5 -99.5t61 -66t90 -26q48 0 88 45t64 112t37.5 135t14.5 122q0 57 -0.5 88t-4 88t-10 91t-20.5 77t-33.5 67t-50 41t-69.5 17zM412 1307l114 -138q24 -34 4 -45q-20 -14 -59 -14q-7 0 -29 18 q-2 2 -13 11.5t-14 12t-13.5 11.5t-14.5 12t-13.5 10.5t-15 11t-14.5 10t-15.5 10t-15 8t-16.5 8.5q-25 8 -18 41q5 30 62 45t71 -12z" />
<glyph unicode="&#xd3;" horiz-adv-x="823" d="M778 502q-4 -91 -25.5 -175t-63 -161t-114.5 -123.5t-169 -46.5q-81 0 -144.5 28t-104 74t-67 109.5t-37 130t-10.5 141.5q0 67 14.5 138.5t46 141t74.5 124t106 88t136 33.5q90 2 162.5 -44t114.5 -121t63 -162.5t18 -174.5zM428 938q-44 0 -79 -18t-58 -44.5t-40.5 -69 t-26.5 -79.5t-15 -88t-7.5 -83t-2.5 -75q1 -67 6 -121t19.5 -113.5t36.5 -99.5t61 -66t90 -26q48 0 88 45t64 112t37.5 135t14.5 122q0 57 -0.5 88t-4 88t-10 91t-20.5 77t-33.5 67t-50 41t-69.5 17zM518 1208l-164 -75q-39 -14 -43 8q-8 21 0 61q1 4 5 7.5t11.5 8.5l10.5 7 t16 10.5t17 11.5t15.5 11t17 12t15 11.5t15.5 13t14 13t14.5 14.5t12.5 15q16 22 45 9q28 -12 27.5 -72t-29.5 -66z" />
<glyph unicode="&#xd4;" horiz-adv-x="823" d="M778 502q-4 -91 -25.5 -175t-63 -161t-114.5 -123.5t-169 -46.5q-81 0 -144.5 28t-104 74t-67 109.5t-37 130t-10.5 141.5q0 67 14.5 138.5t46 141t74.5 124t106 88t136 33.5q90 2 162.5 -44t114.5 -121t63 -162.5t18 -174.5zM428 938q-44 0 -79 -18t-58 -44.5t-40.5 -69 t-26.5 -79.5t-15 -88t-7.5 -83t-2.5 -75q1 -67 6 -121t19.5 -113.5t36.5 -99.5t61 -66t90 -26q48 0 88 45t64 112t37.5 135t14.5 122q0 57 -0.5 88t-4 88t-10 91t-20.5 77t-33.5 67t-50 41t-69.5 17zM420 1282l-76 -104q-32 -41 -52 -58.5t-38 -17.5q-33 0 -41.5 28.5 t18.5 40.5q6 2 14 9t19.5 18.5t22 23t24.5 28t24 27.5t24.5 28.5t21.5 25.5q24 24 33 23t35 -27q22 -22 56.5 -65t53.5 -64q4 -5 26.5 -26.5t26.5 -28.5q12 -23 0 -35q-12 -11 -29.5 1t-52.5 49q-8 8 -12 13q-14 14 -50.5 56.5t-47.5 54.5z" />
<glyph unicode="&#xd5;" horiz-adv-x="823" d="M778 502q-4 -91 -25.5 -175t-63 -161t-114.5 -123.5t-169 -46.5q-81 0 -144.5 28t-104 74t-67 109.5t-37 130t-10.5 141.5q0 67 14.5 138.5t46 141t74.5 124t106 88t136 33.5q90 2 162.5 -44t114.5 -121t63 -162.5t18 -174.5zM428 938q-44 0 -79 -18t-58 -44.5t-40.5 -69 t-26.5 -79.5t-15 -88t-7.5 -83t-2.5 -75q1 -67 6 -121t19.5 -113.5t36.5 -99.5t61 -66t90 -26q48 0 88 45t64 112t37.5 135t14.5 122q0 57 -0.5 88t-4 88t-10 91t-20.5 77t-33.5 67t-50 41t-69.5 17zM657 1221q-11 -9 -37 -30t-45 -34.5t-38 -21.5q-55 -26 -136 12l-43 24 q-41 20 -67.5 16.5t-61.5 -32.5q-11 -11 -24 -16q-17 -5 -27 6.5t-4 28.5q7 17 19 26q59 56 139 41q41 -4 67 -24q53 -30 91 -23t81 45q24 22 41.5 18.5t44.5 -36.5z" />
<glyph unicode="&#xd6;" horiz-adv-x="823" d="M778 502q-4 -91 -25.5 -175t-63 -161t-114.5 -123.5t-169 -46.5q-81 0 -144.5 28t-104 74t-67 109.5t-37 130t-10.5 141.5q0 67 14.5 138.5t46 141t74.5 124t106 88t136 33.5q90 2 162.5 -44t114.5 -121t63 -162.5t18 -174.5zM428 938q-44 0 -79 -18t-58 -44.5t-40.5 -69 t-26.5 -79.5t-15 -88t-7.5 -83t-2.5 -75q1 -67 6 -121t19.5 -113.5t36.5 -99.5t61 -66t90 -26q48 0 88 45t64 112t37.5 135t14.5 122q0 57 -0.5 88t-4 88t-10 91t-20.5 77t-33.5 67t-50 41t-69.5 17zM281 1124q-42 0 -67.5 21t-25.5 61q-1 34 32 61t73 25q27 -2 51.5 -25.5 t24.5 -49.5q0 -93 -88 -93zM547 1124q-41 0 -66.5 21t-25.5 61q-1 34 31.5 61t72.5 25q27 -2 51.5 -25.5t24.5 -49.5q0 -93 -88 -93z" />
<glyph unicode="&#xd7;" horiz-adv-x="413" d="M195 236q-17 -16 -48 -42.5t-45 -39.5q-27 -27 -51 0q-21 24 6 51q9 9 33 29.5t35 33.5q15 18 14.5 29.5t-18.5 28.5l-51 41l-25 24q-26 43 -2 58q24 18 51 -9q15 -12 68 -65q24 -23 32 -23t35 21q46 43 84 71q5 7 21 15q1 1 8 4t9.5 3.5t8 1t9.5 -2t8 -8.5 q15 -24 -8 -47l-72 -72q-8 -7 -23 -23.5t-20 -21.5q39 -67 94 -98q9 -3 19 -13q8 -11 9 -35t-9 -32q-21 -19 -50 6q-28 22 -63 57z" />
<glyph unicode="&#xd8;" horiz-adv-x="823" d="M113 -109q-17 0 -26.5 3.5t-13 8t-1 14.5t6.5 19t13 25l66 135q-115 129 -115 383q0 67 14.5 138.5t46 141t74.5 124t106 88t136 33.5q95 3 170 -50l35 70q24 42 35 50.5t45 8.5q15 0 20 -0.5t10.5 -3.5t4 -10t-8.5 -20q-20 -38 -76 -154q63 -72 94.5 -179t28.5 -214 q-4 -91 -25.5 -175t-63 -161t-114.5 -123.5t-169 -46.5q-110 0 -187 49l-20 -49q-2 -4 -8.5 -16t-8.5 -19q-3 -9 -6.5 -27t-7 -24.5t-17 -12.5t-38.5 -6zM616 469q0 215 -22 303q-100 -199 -129 -246q-63 -104 -199 -387q51 -84 146 -84q48 0 88 45t64 112t37.5 135 t14.5 122zM428 938q-44 0 -79 -18t-58 -44.5t-40.5 -69t-26.5 -79.5t-15 -88t-7.5 -83t-2.5 -75q4 -158 28 -250q38 74 110 216.5t83 164.5l131 262q-48 64 -123 64z" />
<glyph unicode="&#xd9;" horiz-adv-x="950" d="M506 932q-7 -24 -84 -37q-70 -18 -70 -92q-2 -102 -2 -291q0 -75 1 -124t5.5 -108t13.5 -95.5t23 -69.5t36.5 -48.5t53.5 -15.5q37 0 65 18t44.5 48.5t25.5 60.5t13 64q10 80 16.5 166.5t11.5 187t9 154.5q0 136 -80 157q-2 1 -9.5 3.5t-10 3.5t-8 3.5t-8 5t-5.5 6 t-3.5 8.5t-0.5 11q1 9 6 13t10 4t13 -1t10 -1q24 -1 69 -6.5t70 -6.5q33 -2 91.5 3t82.5 5q35 0 35 -24q0 -32 -37 -29q-13 0 -31 -3t-33 -3q-29 0 -59.5 -31.5t-30.5 -79.5q-9 -85 -13.5 -217t-6.5 -161q-12 -179 -35 -254q-48 -151 -189 -162q-32 -2 -69 2 q-65 8 -110 49.5t-64 96.5t-21 122q-2 61 -2.5 173t-1.5 147l-8 239q0 27 -12.5 49t-38.5 25q-10 2 -42.5 3.5t-37.5 2.5q-23 0 -35 2q-9 1 -14.5 2.5t-11 7t-4.5 13.5q0 22 30 22q43 0 120.5 -7t113.5 -7q37 0 102 11t94.5 10.5t22.5 -25.5zM516 1329l115 -137 q24 -34 4 -45q-20 -14 -60 -14q-5 0 -28 18q-91 79 -146 104q-25 8 -18 41q5 30 62 45t71 -12z" />
<glyph unicode="&#xda;" horiz-adv-x="950" d="M506 932q-7 -24 -84 -37q-70 -18 -70 -92q-2 -102 -2 -291q0 -75 1 -124t5.5 -108t13.5 -95.5t23 -69.5t36.5 -48.5t53.5 -15.5q37 0 65 18t44.5 48.5t25.5 60.5t13 64q10 80 16.5 166.5t11.5 187t9 154.5q0 136 -80 157q-2 1 -9.5 3.5t-10 3.5t-8 3.5t-8 5t-5.5 6 t-3.5 8.5t-0.5 11q1 9 6 13t10 4t13 -1t10 -1q24 -1 69 -6.5t70 -6.5q33 -2 91.5 3t82.5 5q35 0 35 -24q0 -32 -37 -29q-13 0 -31 -3t-33 -3q-29 0 -59.5 -31.5t-30.5 -79.5q-9 -85 -13.5 -217t-6.5 -161q-12 -179 -35 -254q-48 -151 -189 -162q-32 -2 -69 2 q-65 8 -110 49.5t-64 96.5t-21 122q-2 61 -2.5 173t-1.5 147l-8 239q0 27 -12.5 49t-38.5 25q-10 2 -42.5 3.5t-37.5 2.5q-23 0 -35 2q-9 1 -14.5 2.5t-11 7t-4.5 13.5q0 22 30 22q43 0 120.5 -7t113.5 -7q37 0 102 11t94.5 10.5t22.5 -25.5zM582 1190l-164 -76 q-39 -14 -43 8q-8 22 0 62q1 4 5 7t11 7.5t10 7.5q3 2 14.5 10t15 10.5t14.5 9.5t15.5 10.5t14 10.5t14.5 11.5t13 11.5t13.5 12.5t12 12.5t11.5 14q16 21 45 8q28 -12 27.5 -71.5t-29.5 -65.5z" />
<glyph unicode="&#xdb;" horiz-adv-x="950" d="M506 932q-7 -24 -84 -37q-70 -18 -70 -92q-2 -102 -2 -291q0 -75 1 -124t5.5 -108t13.5 -95.5t23 -69.5t36.5 -48.5t53.5 -15.5q37 0 65 18t44.5 48.5t25.5 60.5t13 64q10 80 16.5 166.5t11.5 187t9 154.5q0 136 -80 157q-2 1 -9.5 3.5t-10 3.5t-8 3.5t-8 5t-5.5 6 t-3.5 8.5t-0.5 11q1 9 6 13t10 4t13 -1t10 -1q24 -1 69 -6.5t70 -6.5q33 -2 91.5 3t82.5 5q35 0 35 -24q0 -32 -37 -29q-13 0 -31 -3t-33 -3q-29 0 -59.5 -31.5t-30.5 -79.5q-9 -85 -13.5 -217t-6.5 -161q-12 -179 -35 -254q-48 -151 -189 -162q-32 -2 -69 2 q-65 8 -110 49.5t-64 96.5t-21 122q-2 61 -2.5 173t-1.5 147l-8 239q0 27 -12.5 49t-38.5 25q-10 2 -42.5 3.5t-37.5 2.5q-23 0 -35 2q-9 1 -14.5 2.5t-11 7t-4.5 13.5q0 22 30 22q43 0 120.5 -7t113.5 -7q37 0 102 11t94.5 10.5t22.5 -25.5zM504 1282l-76 -104 q-32 -41 -52 -58.5t-38 -17.5q-33 0 -41.5 28.5t18.5 40.5q6 2 14 9t19.5 18.5t22 23t24.5 28t24 27.5t24.5 28.5t21.5 25.5q24 24 32.5 23t34.5 -27q22 -22 57.5 -65.5t53.5 -63.5q4 -5 26.5 -26.5t26.5 -28.5q12 -23 0 -35q-12 -11 -29.5 1t-52.5 49q-8 8 -12 13 q-14 14 -50.5 56.5t-47.5 54.5z" />
<glyph unicode="&#xdc;" horiz-adv-x="950" d="M506 932q-7 -24 -84 -37q-70 -18 -70 -92q-2 -102 -2 -291q0 -75 1 -124t5.5 -108t13.5 -95.5t23 -69.5t36.5 -48.5t53.5 -15.5q37 0 65 18t44.5 48.5t25.5 60.5t13 64q10 80 16.5 166.5t11.5 187t9 154.5q0 136 -80 157q-2 1 -9.5 3.5t-10 3.5t-8 3.5t-8 5t-5.5 6 t-3.5 8.5t-0.5 11q1 9 6 13t10 4t13 -1t10 -1q24 -1 69 -6.5t70 -6.5q33 -2 91.5 3t82.5 5q35 0 35 -24q0 -32 -37 -29q-13 0 -31 -3t-33 -3q-29 0 -59.5 -31.5t-30.5 -79.5q-9 -85 -13.5 -217t-6.5 -161q-12 -179 -35 -254q-48 -151 -189 -162q-32 -2 -69 2 q-65 8 -110 49.5t-64 96.5t-21 122q-2 61 -2.5 173t-1.5 147l-8 239q0 27 -12.5 49t-38.5 25q-10 2 -42.5 3.5t-37.5 2.5q-23 0 -35 2q-9 1 -14.5 2.5t-11 7t-4.5 13.5q0 22 30 22q43 0 120.5 -7t113.5 -7q37 0 102 11t94.5 10.5t22.5 -25.5zM365 1114q-42 0 -67.5 21 t-25.5 61q-1 34 32 61t73 25q27 -2 51.5 -26t24.5 -50q0 -92 -88 -92zM631 1114q-41 0 -66.5 21t-25.5 61q-1 34 31.5 61t72.5 25q27 -2 51.5 -26t24.5 -50q0 -92 -88 -92z" />
<glyph unicode="&#xdd;" horiz-adv-x="991" d="M215 8q0 11 10.5 18t22 9t28 3.5t19.5 2.5q7 1 49.5 6t58.5 8q34 6 31 41q-1 28 3 147.5t1 159.5q-7 91 -51 164q-14 24 -66 119.5t-77 136.5q-23 39 -58.5 60t-95.5 24q-22 0 -46 6.5t-24 22.5q0 6 5.5 10.5t13.5 6t18 2.5t18 0.5t15 -1.5h8q26 0 84 -6.5t88 -5.5 q55 0 136 12q22 5 61.5 2.5t44.5 -22.5q3 -11 -5.5 -16t-19.5 -5q-20 1 -48 1.5t-52 -10.5t-22 -32q0 -16 4 -24l157 -299q2 -5 13 -10q15 29 85 160t103 198h-90q-27 0 -39 4q-4 1 -8 12t-4 17q0 12 12 16q15 6 29 6l161 -10q22 0 85 5t85 5q33 0 33 -20q0 -11 -5 -18 t-11.5 -10.5t-17.5 -5t-19 -1t-21 1t-18 0.5q-59 2 -78 -6.5t-39 -46.5q-18 -34 -97.5 -176t-111.5 -207q-4 -8 -4 -80q0 -31 -1 -142t-1 -141q0 -27 11.5 -36.5t42.5 -16.5q9 -1 40.5 -6.5t60 -10t40.5 -5.5l18 -3t13 -7t6 -17q0 -17 -17 -20t-45 2q-128 14 -237 14 q-51 0 -134.5 -8t-117 -5t-33.5 27zM623 1217l-164 -76q-39 -14 -43 8q-8 21 0 61q1 4 5 7.5t11 8.5t10 7t14.5 10t15 10.5t14.5 9.5t15.5 10.5t14 10.5t14.5 11.5t13 11.5t13.5 12.5t12 12.5t11.5 14q16 21 45 8q28 -12 27.5 -71.5t-29.5 -65.5z" />
<glyph unicode="&#xde;" d="M227 907l-133 11q-74 5 -74 32q0 4 1 6.5t3.5 4t5 2.5t6.5 1.5t6 0.5h6h5q130 0 236 8q45 2 96 8t96 8q18 4 29 -2q18 -13 18 -24q-5 -26 -20 -29q-10 -3 -68 -8q-5 -1 -25.5 -1.5t-38.5 -2t-24 -4.5q-13 -6 -16.5 -17t-1.5 -28t2 -23q0 -106 22 -117q6 -4 25 -4 q34 0 57 -1t62 -5.5t66 -12.5t59 -25t51.5 -40.5t33 -60t13.5 -82.5v-84q0 -45 -23 -81t-57.5 -57.5t-80 -35.5t-85.5 -19.5t-78 -5.5q-28 0 -36.5 -18t-4.5 -82q3 -37 17.5 -49t52.5 -11q14 0 67 -3.5t62 -6.5q6 -2 13.5 -10t7.5 -14q0 -11 -19 -25q-8 -8 -22 -8 q-24 -2 -122 7t-114 9q-23 -1 -86 -11t-104 -7q-13 0 -24 1.5t-20.5 8.5t-7.5 18q1 8 9 13.5t16 5.5q33 7 107 12q33 0 40 33q5 35 5 106q0 461 -2 641q0 16 -4 44t-5 34zM348 672q-11 -118 6 -412q7 2 83 10.5t104 24.5q27 16 40.5 49t16 60t2.5 71q0 104 -38 149.5 t-138 45.5q-69 0 -76 2z" />
<glyph unicode="&#xdf;" horiz-adv-x="698" d="M410 569q35 -17 54 -27t50.5 -29t49.5 -34.5t40.5 -40t34.5 -49.5t20.5 -58t8.5 -71q0 -146 -77.5 -222.5t-201.5 -76.5q-34 0 -74.5 22t-64.5 52q-19 25 -16.5 57t22.5 51q29 22 53 -2q3 -5 8.5 -25.5t8.5 -25.5q8 -39 31.5 -61.5t41.5 -20.5q55 3 92 66t37 178 q0 40 -10 74.5t-24 58t-38.5 47.5t-44 38t-49.5 35.5t-47 35.5q-20 15 -17 32.5t28 20.5q80 10 129 68t49 122q0 84 -41 135.5t-113 51.5q-43 0 -73 -45.5t-44 -121.5t-20 -147t-6 -147v-61.5v-69.5v-69t-1.5 -72.5t-3 -67t-4.5 -65t-7 -53.5t-10 -46t-13 -31 q-43 -76 -68 -106q-25 -28 -63 -41q-21 -4 -30.5 11t1.5 34q4 8 8 12q62 55 66 178q1 36 -1 210t-1 210q0 14 1 46q1 44 2 68t4 70.5t8.5 75t15.5 70t23.5 67.5t34.5 56t47 46.5t62.5 28t79.5 11.5q133 0 209 -71.5t76 -174.5q0 -77 -71 -134t-162 -73z" />
<glyph unicode="&#xe0;" horiz-adv-x="935" d="M608 854q5 -27 25 -134t33 -165q20 -85 46 -243t44 -236q4 -14 10 -27q13 -2 56.5 2t72.5 0.5t29 -22.5q0 -22 -9 -27q-14 -8 -34.5 -9.5t-40 1.5t-49 6.5t-52.5 3.5q-45 0 -101.5 -7t-82.5 -7h-7h-9t-9 0.5t-10 1t-8.5 2t-8 3.5t-5.5 5t-4.5 7t-1.5 9q0 16 28 21.5 t64.5 7t48.5 8.5q-13 55 -64 242l-245 -10q-15 -33 -26 -71.5t-23.5 -92t-20.5 -82.5q17 2 58.5 4.5t47.5 3.5q17 2 29 -5t12 -19q0 -28 -30 -31q-25 -1 -90 1.5t-78 2.5q-5 0 -32 0.5t-42 0t-37 -2.5t-37 -6q-12 -6 -29 0t-14 24q1 6 3.5 10.5t6.5 7.5t7.5 5.5t10 4t11 2 t12.5 1t11.5 0.5h12h11.5q25 -2 41 -1t25.5 11.5t15.5 34.5l80 283q16 56 53 177.5t56 186.5q44 146 53 183q-75 31 -150 12q-83 -18 -71 -88q3 -13 -9 -22.5t-27 -6t-20 22.5q-8 29 4.5 61t38.5 51q53 38 148 31q63 -5 156 0.5t102 5.5q15 0 15.5 -18t-4.5 -47.5t3 -67.5z M465 838q-25 -98 -71.5 -273.5t-57.5 -216.5q49 -10 76 -9t75 6.5t76 4.5zM467 1288l115 -137q24 -34 4 -45q-20 -14 -60 -14q-6 0 -28 18q-91 79 -146 104q-25 8 -18 41q5 30 62 45t71 -12z" />
<glyph unicode="&#xe1;" horiz-adv-x="935" d="M608 854q5 -27 25 -134t33 -165q20 -85 46 -243t44 -236q4 -14 10 -27q13 -2 56.5 2t72.5 0.5t29 -22.5q0 -22 -9 -27q-14 -8 -34.5 -9.5t-40 1.5t-49 6.5t-52.5 3.5q-45 0 -101.5 -7t-82.5 -7h-7h-9t-9 0.5t-10 1t-8.5 2t-8 3.5t-5.5 5t-4.5 7t-1.5 9q0 16 28 21.5 t64.5 7t48.5 8.5q-13 55 -64 242l-245 -10q-15 -33 -26 -71.5t-23.5 -92t-20.5 -82.5q17 2 58.5 4.5t47.5 3.5q17 2 29 -5t12 -19q0 -28 -30 -31q-25 -1 -90 1.5t-78 2.5q-5 0 -32 0.5t-42 0t-37 -2.5t-37 -6q-12 -6 -29 0t-14 24q1 6 3.5 10.5t6.5 7.5t7.5 5.5t10 4t11 2 t12.5 1t11.5 0.5h12h11.5q25 -2 41 -1t25.5 11.5t15.5 34.5l80 283q16 56 53 177.5t56 186.5q44 146 53 183q-75 31 -150 12q-83 -18 -71 -88q3 -13 -9 -22.5t-27 -6t-20 22.5q-8 29 4.5 61t38.5 51q53 38 148 31q63 -5 156 0.5t102 5.5q15 0 15.5 -18t-4.5 -47.5t3 -67.5z M465 838q-25 -98 -71.5 -273.5t-57.5 -216.5q49 -10 76 -9t75 6.5t76 4.5zM555 1188l-164 -76q-39 -14 -43 8q-8 22 0 62q1 4 5 7.5t11.5 7.5t10.5 7q29 20 38.5 26.5t32.5 23.5t38 31.5t28 31.5q16 21 45 8q28 -12 27.5 -71.5t-29.5 -65.5z" />
<glyph unicode="&#xe2;" horiz-adv-x="935" d="M608 854q5 -27 25 -134t33 -165q20 -85 46 -243t44 -236q4 -14 10 -27q13 -2 56.5 2t72.5 0.5t29 -22.5q0 -22 -9 -27q-14 -8 -34.5 -9.5t-40 1.5t-49 6.5t-52.5 3.5q-45 0 -101.5 -7t-82.5 -7h-7h-9t-9 0.5t-10 1t-8.5 2t-8 3.5t-5.5 5t-4.5 7t-1.5 9q0 16 28 21.5 t64.5 7t48.5 8.5q-13 55 -64 242l-245 -10q-15 -33 -26 -71.5t-23.5 -92t-20.5 -82.5q17 2 58.5 4.5t47.5 3.5q17 2 29 -5t12 -19q0 -28 -30 -31q-25 -1 -90 1.5t-78 2.5q-5 0 -32 0.5t-42 0t-37 -2.5t-37 -6q-12 -6 -29 0t-14 24q1 6 3.5 10.5t6.5 7.5t7.5 5.5t10 4t11 2 t12.5 1t11.5 0.5h12h11.5q25 -2 41 -1t25.5 11.5t15.5 34.5l80 283q16 56 53 177.5t56 186.5q44 146 53 183q-75 31 -150 12q-83 -18 -71 -88q3 -13 -9 -22.5t-27 -6t-20 22.5q-8 29 4.5 61t38.5 51q53 38 148 31q63 -5 156 0.5t102 5.5q15 0 15.5 -18t-4.5 -47.5t3 -67.5z M465 838q-25 -98 -71.5 -273.5t-57.5 -216.5q49 -10 76 -9t75 6.5t76 4.5zM477 1282l-76 -104q-32 -41 -52 -58.5t-38 -17.5q-33 0 -41 28.5t19 40.5q8 3 20.5 14.5t31 32t31.5 35.5t36 42.5t30 35.5q24 24 33 23t35 -27q22 -22 56.5 -65t53.5 -64q4 -5 27 -26.5t27 -28.5 q12 -23 0 -35q-19 -17 -85 53l-10 10q-14 14 -50.5 56.5t-47.5 54.5z" />
<glyph unicode="&#xe3;" horiz-adv-x="935" d="M608 854q5 -27 25 -134t33 -165q20 -85 46 -243t44 -236q4 -14 10 -27q13 -2 56.5 2t72.5 0.5t29 -22.5q0 -22 -9 -27q-14 -8 -34.5 -9.5t-40 1.5t-49 6.5t-52.5 3.5q-45 0 -101.5 -7t-82.5 -7h-7h-9t-9 0.5t-10 1t-8.5 2t-8 3.5t-5.5 5t-4.5 7t-1.5 9q0 16 28 21.5 t64.5 7t48.5 8.5q-13 55 -64 242l-245 -10q-15 -33 -26 -71.5t-23.5 -92t-20.5 -82.5q17 2 58.5 4.5t47.5 3.5q17 2 29 -5t12 -19q0 -28 -30 -31q-25 -1 -90 1.5t-78 2.5q-5 0 -32 0.5t-42 0t-37 -2.5t-37 -6q-12 -6 -29 0t-14 24q1 6 3.5 10.5t6.5 7.5t7.5 5.5t10 4t11 2 t12.5 1t11.5 0.5h12h11.5q25 -2 41 -1t25.5 11.5t15.5 34.5l80 283q16 56 53 177.5t56 186.5q44 146 53 183q-75 31 -150 12q-83 -18 -71 -88q3 -13 -9 -22.5t-27 -6t-20 22.5q-8 29 4.5 61t38.5 51q53 38 148 31q63 -5 156 0.5t102 5.5q15 0 15.5 -18t-4.5 -47.5t3 -67.5z M465 838q-25 -98 -71.5 -273.5t-57.5 -216.5q49 -10 76 -9t75 6.5t76 4.5zM713 1227q-10 -8 -37 -30t-46 -35t-38 -21q-55 -25 -135 12l-43 25q-42 20 -67.5 16.5t-61.5 -33.5q-10 -10 -25 -16q-17 -5 -27 6.5t-4 28.5q7 17 19 26q59 56 139 41q42 -4 68 -24q53 -30 91 -23 t81 45q24 22 41.5 18.5t44.5 -36.5z" />
<glyph unicode="&#xe4;" horiz-adv-x="935" d="M608 854q5 -27 25 -134t33 -165q20 -85 46 -243t44 -236q4 -14 10 -27q13 -2 56.5 2t72.5 0.5t29 -22.5q0 -22 -9 -27q-14 -8 -34.5 -9.5t-40 1.5t-49 6.5t-52.5 3.5q-45 0 -101.5 -7t-82.5 -7h-7h-9t-9 0.5t-10 1t-8.5 2t-8 3.5t-5.5 5t-4.5 7t-1.5 9q0 16 28 21.5 t64.5 7t48.5 8.5q-13 55 -64 242l-245 -10q-15 -33 -26 -71.5t-23.5 -92t-20.5 -82.5q17 2 58.5 4.5t47.5 3.5q17 2 29 -5t12 -19q0 -28 -30 -31q-25 -1 -90 1.5t-78 2.5q-5 0 -32 0.5t-42 0t-37 -2.5t-37 -6q-12 -6 -29 0t-14 24q1 6 3.5 10.5t6.5 7.5t7.5 5.5t10 4t11 2 t12.5 1t11.5 0.5h12h11.5q25 -2 41 -1t25.5 11.5t15.5 34.5l80 283q16 56 53 177.5t56 186.5q44 146 53 183q-75 31 -150 12q-83 -18 -71 -88q3 -13 -9 -22.5t-27 -6t-20 22.5q-8 29 4.5 61t38.5 51q53 38 148 31q63 -5 156 0.5t102 5.5q15 0 15.5 -18t-4.5 -47.5t3 -67.5z M465 838q-25 -98 -71.5 -273.5t-57.5 -216.5q49 -10 76 -9t75 6.5t76 4.5zM358 1157q-41 0 -66.5 21t-25.5 61q-1 34 32 61t73 25q27 -2 51 -26t24 -50q0 -92 -88 -92zM625 1157q-42 0 -67.5 21t-25.5 61q-1 34 32 61t73 25q27 -2 51.5 -26t24.5 -50q0 -92 -88 -92z" />
<glyph unicode="&#xe5;" horiz-adv-x="935" d="M608 854q5 -27 25 -134t33 -165q20 -85 46 -243t44 -236q4 -14 10 -27q13 -2 56.5 2t72.5 0.5t29 -22.5q0 -22 -9 -27q-14 -8 -34.5 -9.5t-40 1.5t-49 6.5t-52.5 3.5q-45 0 -101.5 -7t-82.5 -7h-7h-9t-9 0.5t-10 1t-8.5 2t-8 3.5t-5.5 5t-4.5 7t-1.5 9q0 16 28 21.5 t64.5 7t48.5 8.5q-13 55 -64 242l-245 -10q-15 -33 -26 -71.5t-23.5 -92t-20.5 -82.5q17 2 58.5 4.5t47.5 3.5q17 2 29 -5t12 -19q0 -28 -30 -31q-25 -1 -90 1.5t-78 2.5q-5 0 -32 0.5t-42 0t-37 -2.5t-37 -6q-12 -6 -29 0t-14 24q1 6 3.5 10.5t6.5 7.5t7.5 5.5t10 4t11 2 t12.5 1t11.5 0.5h12h11.5q25 -2 41 -1t25.5 11.5t15.5 34.5l80 283q16 56 53 177.5t56 186.5q44 146 53 183q-75 31 -150 12q-83 -18 -71 -88q3 -13 -9 -22.5t-27 -6t-20 22.5q-8 29 4.5 61t38.5 51q53 38 148 31q63 -5 156 0.5t102 5.5q15 0 15.5 -18t-4.5 -47.5t3 -67.5z M465 838q-25 -98 -71.5 -273.5t-57.5 -216.5q49 -10 76 -9t75 6.5t76 4.5zM463 1475q90 5 150.5 -42t60.5 -126q0 -91 -60.5 -146t-148.5 -55q-100 0 -159.5 46.5t-59.5 133.5q0 83 67 138.5t150 50.5zM455 1161q52 0 81 39.5t29 97.5q0 45 -28 82t-70 37q-117 5 -117 -127 q0 -54 31.5 -91.5t73.5 -37.5z" />
<glyph unicode="&#xe6;" horiz-adv-x="1130" d="M1040 711q-3 9 -2 29.5t-2 29.5q-2 6 -7 25t-10.5 34t-12.5 29q-44 78 -127 66q-14 -2 -74.5 -4.5t-75.5 -4.5q-8 -36 -8.5 -110.5t-1.5 -83.5q0 -55 -4 -191q17 0 67 -1t64 -1q15 0 24 8.5t11 22.5l4 25q0 34 28 34q15 0 29.5 -16t11.5 -31q-15 -62 -4 -155 q5 -36 -18 -39q-15 0 -41 22q-3 2 -6 11.5t-4 11.5q-14 27 -64.5 38.5t-79.5 -1.5q-22 -7 -22 -33q0 -15 -1 -43t-1 -41q2 -76 2 -225q1 -7 -0.5 -36t-1.5 -32q38 -9 107 -7t102 11q30 9 52.5 38.5t33 65t15 64.5t3.5 47q-3 38 35 41q5 0 8 -1.5t4.5 -6t2 -7.5t1 -11 t0.5 -13q4 -184 8 -276q-23 0 -70.5 -1t-72.5 -1q-50 0 -161.5 6t-118.5 6q-17 1 -81.5 -2.5t-74.5 -3.5q-17 0 -25.5 6.5t-7.5 22.5q5 30 41 34q4 0 34 2.5t40 2.5l-13 290l-172 19q-16 -33 -65 -139t-78 -164q24 -10 70 -15q18 0 26.5 -0.5t17 -7.5t5.5 -20 q-1 -7 -4 -11.5t-8.5 -7t-9 -3.5t-10 -2t-7.5 -1q-31 -4 -43.5 -3.5t-39.5 4t-50 3.5q-5 0 -77 -4t-77 0q-13 2 -20.5 11.5t-1.5 23.5q10 29 47 18q28 -6 36 -4t29 8.5t43 8.5q4 8 24 43.5t26 47t22.5 42.5t24.5 48t20.5 43t21.5 49t17 46q-32 12 -40.5 9.5t-25.5 -31.5 q-10 -18 -23.5 -20.5t-23.5 11.5q-12 20 -6 43.5t29 36.5t59 17q8 2 18 2t23 -1t21 -1q62 142 76 170l34 82l62 163q7 23 0.5 35.5t-29.5 16.5q-104 21 -182 4q-60 -13 -77 -34t-15 -77q-24 -27 -47 -4q-22 24 -17 57t37 62q68 59 156 59q36 1 151 -8q129 -6 158 -6 q41 0 65.5 2t52.5 6t60 6q31 4 64 4.5t76.5 -1t64.5 -1.5q41 -3 41 -43l-12 -256q-39 -11 -52 19zM575 438q17 80 23.5 251.5t-6.5 199.5q-2 -69 -30.5 -145.5t-69.5 -162t-58 -141.5q68 -29 141 -2z" />
<glyph unicode="&#xe7;" horiz-adv-x="724" d="M283 -115q26 63 61 101q-16 2 -39 10q-56 10 -99 42.5t-69.5 80t-44 103t-23.5 117.5t-5.5 118t6.5 108q4 43 20 129q12 62 47 111t94 106q63 60 161 61t157 -57q6 -6 49 -36q5 12 17 37t16 38q3 15 9 21.5t19 5.5q25 -6 25 -31q0 -65 -2 -98q-8 -115 -10 -180 q-3 -33 -31 -39q-31 -6 -41 26q-15 38 -20 66q-8 49 -62 131q-26 38 -59 49q-102 42 -178 -26q-56 -56 -56 -310q0 -53 0.5 -90t3 -90.5t7.5 -91.5t13 -82t21 -74t30.5 -56t42.5 -39t56 -13q52 0 82 28q10 10 33.5 29t39.5 35.5t28 34.5q2 6 14 14q22 22 43 2q21 -21 2 -43 q-28 -39 -61 -72q-82 -79 -187 -79q-41 -79 -49 -97q7 -1 20 0t23 0q52 -5 86 -49.5t21 -95.5q-24 -87 -84.5 -142t-159.5 -55q-17 0 -30.5 4t-18 7.5t-17.5 13.5q-8 8 -5 17.5t14 15.5q8 4 28 4q57 -1 98 36.5t60 94.5q16 50 -10.5 78t-79.5 28q-9 0 -13 2t-4 7.5t2.5 12.5 t8.5 21z" />
<glyph unicode="&#xe8;" horiz-adv-x="763" d="M373 504q87 -9 139 -6q16 2 41 37q4 6 7.5 14.5t7 18t5.5 14.5q33 5 33 -29q0 -17 -12 -45t-9.5 -62.5t17.5 -60.5q6 -11 6 -29.5t-6 -27.5q-15 -15 -29 -5t-22 29q-2 2 -2 8q-18 56 -60.5 76t-97.5 2q-22 -7 -22 -35q-1 -13 -1 -40t-1 -41q-2 -38 -1 -112.5t-1 -111.5 v-45q11 0 40.5 -0.5t44.5 0t39 1.5t43.5 5t36.5 11q18 6 31 22q47 66 55 135q0 19 2 29q0 2 0.5 6.5t1 7t1 6t2 5.5t4 3.5t6 2t8.5 0.5q29 0 29 -33q1 -13 4.5 -54t3.5 -63q6 -119 4 -127q-3 -12 -16.5 -15t-45.5 -1q-43 2 -217 2q-15 0 -77.5 2t-79.5 2q-34 0 -110 -5 t-105 -5q-14 0 -28.5 9t-14.5 21q0 31 55 31l74 -6q5 0 30 2t35 2q1 19 5.5 120t5.5 131.5t3.5 116.5t2.5 131t-0.5 116.5t-4 131t-8.5 119.5q-25 15 -66.5 14t-64.5 -24q-8 -8 -12 -20t2 -23q10 -10 10.5 -28.5t-12.5 -22.5q-21 -4 -31 6q-14 15 -14.5 51.5t12.5 55.5 q45 60 154 57q2 0 113 -8t212 -8q34 0 94 4.5t74 3.5q25 0 25 -31v-162q0 -12 1 -36t1 -37q-2 -19 -15 -25t-28 6q-25 20 -29 80q0 81 -45 119q-24 20 -43 20q-57 2 -194 2q0 -70 2 -204.5t2 -200.5zM406 1309l114 -138q24 -34 4 -45q-20 -14 -59 -14q-6 0 -29 18 q-2 2 -13 11.5t-14 12t-13.5 11.5t-14.5 12t-13.5 10.5t-15 11t-14.5 10t-15.5 10t-15 8t-16.5 8.5q-25 9 -19 41q5 30 62.5 45t71.5 -12z" />
<glyph unicode="&#xe9;" horiz-adv-x="763" d="M373 504q87 -9 139 -6q16 2 41 37q4 6 7.5 14.5t7 18t5.5 14.5q33 5 33 -29q0 -17 -12 -45t-9.5 -62.5t17.5 -60.5q6 -11 6 -29.5t-6 -27.5q-15 -15 -29 -5t-22 29q-2 2 -2 8q-18 56 -60.5 76t-97.5 2q-22 -7 -22 -35q-1 -13 -1 -40t-1 -41q-2 -38 -1 -112.5t-1 -111.5 v-45q11 0 40.5 -0.5t44.5 0t39 1.5t43.5 5t36.5 11q18 6 31 22q47 66 55 135q0 19 2 29q0 2 0.5 6.5t1 7t1 6t2 5.5t4 3.5t6 2t8.5 0.5q29 0 29 -33q1 -13 4.5 -54t3.5 -63q6 -119 4 -127q-3 -12 -16.5 -15t-45.5 -1q-43 2 -217 2q-15 0 -77.5 2t-79.5 2q-34 0 -110 -5 t-105 -5q-14 0 -28.5 9t-14.5 21q0 31 55 31l74 -6q5 0 30 2t35 2q1 19 5.5 120t5.5 131.5t3.5 116.5t2.5 131t-0.5 116.5t-4 131t-8.5 119.5q-25 15 -66.5 14t-64.5 -24q-8 -8 -12 -20t2 -23q10 -10 10.5 -28.5t-12.5 -22.5q-21 -4 -31 6q-14 15 -14.5 51.5t12.5 55.5 q45 60 154 57q2 0 113 -8t212 -8q34 0 94 4.5t74 3.5q25 0 25 -31v-162q0 -12 1 -36t1 -37q-2 -19 -15 -25t-28 6q-25 20 -29 80q0 81 -45 119q-24 20 -43 20q-57 2 -194 2q0 -70 2 -204.5t2 -200.5zM530 1188l-163 -76q-39 -14 -43 8q-8 22 0 62q1 4 5 7t11 7.5t10 7.5 q29 20 38.5 26.5t32.5 23.5t38 31.5t28 31.5q16 21 45 8q28 -12 27.5 -71.5t-29.5 -65.5z" />
<glyph unicode="&#xea;" horiz-adv-x="763" d="M373 504q87 -9 139 -6q16 2 41 37q4 6 7.5 14.5t7 18t5.5 14.5q33 5 33 -29q0 -17 -12 -45t-9.5 -62.5t17.5 -60.5q6 -11 6 -29.5t-6 -27.5q-15 -15 -29 -5t-22 29q-2 2 -2 8q-18 56 -60.5 76t-97.5 2q-22 -7 -22 -35q-1 -13 -1 -40t-1 -41q-2 -38 -1 -112.5t-1 -111.5 v-45q11 0 40.5 -0.5t44.5 0t39 1.5t43.5 5t36.5 11q18 6 31 22q47 66 55 135q0 19 2 29q0 2 0.5 6.5t1 7t1 6t2 5.5t4 3.5t6 2t8.5 0.5q29 0 29 -33q1 -13 4.5 -54t3.5 -63q6 -119 4 -127q-3 -12 -16.5 -15t-45.5 -1q-43 2 -217 2q-15 0 -77.5 2t-79.5 2q-34 0 -110 -5 t-105 -5q-14 0 -28.5 9t-14.5 21q0 31 55 31l74 -6q5 0 30 2t35 2q1 19 5.5 120t5.5 131.5t3.5 116.5t2.5 131t-0.5 116.5t-4 131t-8.5 119.5q-25 15 -66.5 14t-64.5 -24q-8 -8 -12 -20t2 -23q10 -10 10.5 -28.5t-12.5 -22.5q-21 -4 -31 6q-14 15 -14.5 51.5t12.5 55.5 q45 60 154 57q2 0 113 -8t212 -8q34 0 94 4.5t74 3.5q25 0 25 -31v-162q0 -12 1 -36t1 -37q-2 -19 -15 -25t-28 6q-25 20 -29 80q0 81 -45 119q-24 20 -43 20q-57 2 -194 2q0 -70 2 -204.5t2 -200.5zM432 1241l-76 -104q-32 -41 -52 -58.5t-38 -17.5q-33 0 -41 28.5t19 40.5 q8 3 20.5 14.5t31 32t31.5 35.5t36 42.5t30 35.5q24 24 33 23t35 -27q22 -22 56.5 -65t53.5 -64q4 -5 27 -26.5t27 -28.5q12 -23 0 -35q-19 -17 -85 53l-10 10q-14 14 -50.5 56.5t-47.5 54.5z" />
<glyph unicode="&#xeb;" horiz-adv-x="763" d="M373 504q87 -9 139 -6q16 2 41 37q4 6 7.5 14.5t7 18t5.5 14.5q33 5 33 -29q0 -17 -12 -45t-9.5 -62.5t17.5 -60.5q6 -11 6 -29.5t-6 -27.5q-15 -15 -29 -5t-22 29q-2 2 -2 8q-18 56 -60.5 76t-97.5 2q-22 -7 -22 -35q-1 -13 -1 -40t-1 -41q-2 -38 -1 -112.5t-1 -111.5 v-45q11 0 40.5 -0.5t44.5 0t39 1.5t43.5 5t36.5 11q18 6 31 22q47 66 55 135q0 19 2 29q0 2 0.5 6.5t1 7t1 6t2 5.5t4 3.5t6 2t8.5 0.5q29 0 29 -33q1 -13 4.5 -54t3.5 -63q6 -119 4 -127q-3 -12 -16.5 -15t-45.5 -1q-43 2 -217 2q-15 0 -77.5 2t-79.5 2q-34 0 -110 -5 t-105 -5q-14 0 -28.5 9t-14.5 21q0 31 55 31l74 -6q5 0 30 2t35 2q1 19 5.5 120t5.5 131.5t3.5 116.5t2.5 131t-0.5 116.5t-4 131t-8.5 119.5q-25 15 -66.5 14t-64.5 -24q-8 -8 -12 -20t2 -23q10 -10 10.5 -28.5t-12.5 -22.5q-21 -4 -31 6q-14 15 -14.5 51.5t12.5 55.5 q45 60 154 57q2 0 113 -8t212 -8q34 0 94 4.5t74 3.5q25 0 25 -31v-162q0 -12 1 -36t1 -37q-2 -19 -15 -25t-28 6q-25 20 -29 80q0 81 -45 119q-24 20 -43 20q-57 2 -194 2q0 -70 2 -204.5t2 -200.5zM313 1137q-41 0 -66.5 21t-25.5 61q-1 34 32 61t73 25q27 -2 51 -26 t24 -50q0 -92 -88 -92zM580 1137q-42 0 -67.5 21t-25.5 61q-1 34 32 61t73 25q27 -2 51.5 -26t24.5 -50q0 -92 -88 -92z" />
<glyph unicode="&#xec;" horiz-adv-x="573" d="M231 922q-14 0 -59 1.5t-66 0.5q-27 0 -38 -37q-8 -26 -29 -21q-23 6 -23 33q-3 31 24 52t60 24q20 5 101.5 0.5t101.5 -4.5q50 0 126 10.5t95 7.5q25 -5 25 -24q0 -23 -29 -29q-16 -3 -43.5 -7t-38.5 -6t-27.5 -8.5t-23 -16.5t-11.5 -27t-5 -42q0 -112 -2 -180l-7 -467 v-88q0 -20 7 -28t26 -7q47 0 101 -4q34 0 34 -24q1 -17 -7.5 -26t-24.5 -9q-29 -1 -103.5 2.5t-93.5 3.5q-27 1 -77 -1t-77 -1q-1 0 -43 -6q-3 0 -12.5 -2.5t-15.5 -1.5q-19 5 -19 18q-1 4 2.5 11.5t8.5 9.5q38 13 65 18q39 3 67.5 23.5t28.5 54.5q2 119 2 520 q0 42 1.5 101.5t1.5 100t-3 75.5zM287 1247l114 -137q24 -34 5 -45q-20 -14 -60 -14q-6 0 -29 18q-2 2 -13 11.5t-14 12t-13.5 11.5t-14.5 12t-13.5 10.5t-15 11t-14.5 10t-15.5 10t-15 8t-16.5 8.5q-24 8 -18 40q5 30 62 45t71 -12z" />
<glyph unicode="&#xed;" horiz-adv-x="573" d="M231 922q-14 0 -59 1.5t-66 0.5q-27 0 -38 -37q-8 -26 -29 -21q-23 6 -23 33q-3 31 24 52t60 24q20 5 101.5 0.5t101.5 -4.5q50 0 126 10.5t95 7.5q25 -5 25 -24q0 -23 -29 -29q-16 -3 -43.5 -7t-38.5 -6t-27.5 -8.5t-23 -16.5t-11.5 -27t-5 -42q0 -112 -2 -180l-7 -467 v-88q0 -20 7 -28t26 -7q47 0 101 -4q34 0 34 -24q1 -17 -7.5 -26t-24.5 -9q-29 -1 -103.5 2.5t-93.5 3.5q-27 1 -77 -1t-77 -1q-1 0 -43 -6q-3 0 -12.5 -2.5t-15.5 -1.5q-19 5 -19 18q-1 4 2.5 11.5t8.5 9.5q38 13 65 18q39 3 67.5 23.5t28.5 54.5q2 119 2 520 q0 42 1.5 101.5t1.5 100t-3 75.5zM373 1188l-164 -76q-39 -14 -43 8q-8 22 0 62q1 4 5 7.5t11.5 7.5t10.5 7q29 20 38.5 26.5t32.5 23.5t38 31.5t28 31.5q16 21 45 8q28 -12 27.5 -71.5t-29.5 -65.5z" />
<glyph unicode="&#xee;" horiz-adv-x="573" d="M231 922q-14 0 -59 1.5t-66 0.5q-27 0 -38 -37q-8 -26 -29 -21q-23 6 -23 33q-3 31 24 52t60 24q20 5 101.5 0.5t101.5 -4.5q50 0 126 10.5t95 7.5q25 -5 25 -24q0 -23 -29 -29q-16 -3 -43.5 -7t-38.5 -6t-27.5 -8.5t-23 -16.5t-11.5 -27t-5 -42q0 -112 -2 -180l-7 -467 v-88q0 -20 7 -28t26 -7q47 0 101 -4q34 0 34 -24q1 -17 -7.5 -26t-24.5 -9q-29 -1 -103.5 2.5t-93.5 3.5q-27 1 -77 -1t-77 -1q-1 0 -43 -6q-3 0 -12.5 -2.5t-15.5 -1.5q-19 5 -19 18q-1 4 2.5 11.5t8.5 9.5q38 13 65 18q39 3 67.5 23.5t28.5 54.5q2 119 2 520 q0 42 1.5 101.5t1.5 100t-3 75.5zM295 1262l-76 -105q-32 -41 -52 -58.5t-38 -17.5q-33 0 -41.5 29t18.5 41q6 2 14 9t19.5 18.5t22 23t24.5 28t24 27.5t24.5 28.5t21.5 25.5q24 24 33 23t35 -27q22 -22 56.5 -65t53.5 -64q4 -4 26 -26.5t27 -29.5q12 -23 0 -35 q-12 -11 -28.5 0.5t-50.5 47.5q-10 11 -15 16q-14 14 -50.5 56.5t-47.5 54.5z" />
<glyph unicode="&#xef;" horiz-adv-x="573" d="M231 922q-14 0 -59 1.5t-66 0.5q-27 0 -38 -37q-8 -26 -29 -21q-23 6 -23 33q-3 31 24 52t60 24q20 5 101.5 0.5t101.5 -4.5q50 0 126 10.5t95 7.5q25 -5 25 -24q0 -23 -29 -29q-16 -3 -43.5 -7t-38.5 -6t-27.5 -8.5t-23 -16.5t-11.5 -27t-5 -42q0 -112 -2 -180l-7 -467 v-88q0 -20 7 -28t26 -7q47 0 101 -4q34 0 34 -24q1 -17 -7.5 -26t-24.5 -9q-29 -1 -103.5 2.5t-93.5 3.5q-27 1 -77 -1t-77 -1q-1 0 -43 -6q-3 0 -12.5 -2.5t-15.5 -1.5q-19 5 -19 18q-1 4 2.5 11.5t8.5 9.5q38 13 65 18q39 3 67.5 23.5t28.5 54.5q2 119 2 520 q0 42 1.5 101.5t1.5 100t-3 75.5zM156 1137q-42 0 -67.5 21t-25.5 61q-1 34 32 61t73 25q27 -2 51.5 -26t24.5 -50q0 -92 -88 -92zM422 1137q-41 0 -66.5 21t-25.5 61q-1 34 31.5 61t72.5 25q27 -2 51.5 -26t24.5 -50q0 -92 -88 -92z" />
<glyph unicode="&#xf0;" horiz-adv-x="876" d="M266 55q10 85 10 394l-45 2q-14 -1 -46.5 -4t-51.5 -3q-21 5 -33.5 15.5t-9.5 23.5q3 31 43 31q31 2 92 2h51q-4 342 -16 393q-95 -11 -194 -51q-5 -3 -14 -4t-17 3t-8 15q0 16 18 25q48 31 144.5 57.5t189.5 26.5q137 0 228 -31t141 -95.5t70 -148.5t20 -206 q0 -245 -135.5 -375.5t-376.5 -118.5q-62 3 -132 -2.5t-102 -5.5q-17 0 -34.5 9.5t-16.5 21.5q1 6 3.5 11t7 7.5t8.5 4.5t11 2.5t11 0.5h12h10h162zM430 446h-31v-348q0 -14 2 -32q12 3 44.5 7t43.5 7q49 17 85 41t58.5 57t36.5 64t20 77t7.5 80t1.5 88q0 202 -64 317.5 t-179 115.5q-40 0 -53 -7.5t-13 -40.5q5 -286 8 -344v-8h88q16 0 30.5 -2.5t28 -13t11.5 -27.5q-2 -27 -39 -31q0 -3 -43 -2z" />
<glyph unicode="&#xf1;" horiz-adv-x="980" d="M252 752q-6 -60 -6 -62q1 -80 0 -250t0 -250q0 -80 6 -100q0 -7 26.5 -15.5t51.5 -11.5q4 -1 38 -2t38 -2q39 -8 34 -39q-6 -34 -47 -28l-22.5 4.5t-26.5 3.5q-13 0 -62 3.5t-63 2.5q-7 -1 -64.5 -8.5t-86.5 -5.5q-39 4 -39 31q1 7 3 12t7 7.5t8.5 4t11 2.5t9.5 2 q86 16 102 27q14 61 14 92q0 72 -3 195t-3 147v313q0 5 1 15.5t1 15.5q-1 15 -4 23.5t-14.5 13.5t-17 6t-29.5 4q-3 0 -19 1.5t-29.5 3.5t-19.5 5q-7 3 -13.5 12t-6.5 15q0 11 12 20t24 9l189 -4q46 -1 68.5 -19t37.5 -63q45 -134 160 -396q98 -218 166 -354q4 29 4 86 l12 524q3 62 -2 111q-3 27 -34.5 37.5t-65.5 5.5q-25 -4 -33 -2q-34 11 -28 41q2 18 32 22q23 1 83.5 -8t92.5 -8q37 0 86 7t91 7q13 0 22 -10t8 -24q-2 -23 -34 -27q-3 0 -14 -1.5t-17 -0.5q-34 5 -62.5 -4t-36.5 -33q-16 -45 -16 -121q0 -121 -8 -346.5t-8 -327.5 q0 -38 -10.5 -53t-43.5 -12q-14 1 -33 1t-32 1q-25 2 -39 33q-8 19 -26.5 55.5t-26.5 54.5q-26 59 -97.5 202.5t-97.5 207.5q-33 83 -90 203q-2 -2 -8 -2zM735 1167q-10 -8 -37 -30t-46 -35t-38 -21q-54 -25 -135 13l-43 24q-41 20 -67.5 16.5t-61.5 -32.5q-12 -12 -24 -17 q-17 -5 -27 6.5t-4 28.5q8 19 18 27q59 56 140 41q39 -3 67 -25q84 -55 172 23q25 22 41.5 18.5t44.5 -37.5z" />
<glyph unicode="&#xf2;" d="M51 446q0 79 10.5 152.5t36 146t63.5 126.5t99 87t137 33q174 0 257 -126t83 -353q0 -487 -299 -539q-32 -4 -51 -4q-74 0 -133.5 30.5t-96.5 78.5t-61.5 112.5t-34.5 127.5t-10 128zM406 932q-86 -7 -120 -57t-48 -144q-26 -151 -23 -297q2 -154 11 -210 q29 -197 159 -197q44 0 77.5 22.5t54 64t34 86.5t19.5 105t8 104.5t2 98.5v18q0 55 -0.5 84t-3.5 79t-9.5 78t-19 64t-30.5 55t-46.5 32.5t-64.5 13.5zM414 1268l114 -138q24 -34 4 -45q-20 -14 -59 -14q-5 0 -29 19q-92 80 -145 104q-25 8 -18 41q5 30 62 45t71 -12z" />
<glyph unicode="&#xf3;" d="M51 446q0 79 10.5 152.5t36 146t63.5 126.5t99 87t137 33q174 0 257 -126t83 -353q0 -487 -299 -539q-32 -4 -51 -4q-74 0 -133.5 30.5t-96.5 78.5t-61.5 112.5t-34.5 127.5t-10 128zM406 932q-86 -7 -120 -57t-48 -144q-26 -151 -23 -297q2 -154 11 -210 q29 -197 159 -197q44 0 77.5 22.5t54 64t34 86.5t19.5 105t8 104.5t2 98.5v18q0 55 -0.5 84t-3.5 79t-9.5 78t-19 64t-30.5 55t-46.5 32.5t-64.5 13.5zM481 1188l-164 -76q-39 -14 -43 8q-8 22 0 62q1 4 5 7.5t11.5 7.5t10.5 7q29 20 38.5 26.5t32.5 23.5t38 31.5t28 31.5 q16 21 45 8q28 -12 27.5 -71.5t-29.5 -65.5z" />
<glyph unicode="&#xf4;" d="M51 446q0 79 10.5 152.5t36 146t63.5 126.5t99 87t137 33q174 0 257 -126t83 -353q0 -487 -299 -539q-32 -4 -51 -4q-74 0 -133.5 30.5t-96.5 78.5t-61.5 112.5t-34.5 127.5t-10 128zM406 932q-86 -7 -120 -57t-48 -144q-26 -151 -23 -297q2 -154 11 -210 q29 -197 159 -197q44 0 77.5 22.5t54 64t34 86.5t19.5 105t8 104.5t2 98.5v18q0 55 -0.5 84t-3.5 79t-9.5 78t-19 64t-30.5 55t-46.5 32.5t-64.5 13.5zM403 1241l-75 -104q-32 -41 -52 -58.5t-38 -17.5q-33 0 -41.5 28.5t18.5 40.5q6 2 14 9t19.5 18.5t22 23t24.5 28 t24 27.5t24.5 28.5t21.5 25.5q24 24 32.5 23t34.5 -27q22 -22 57.5 -65.5t53.5 -63.5q4 -5 26.5 -26.5t26.5 -28.5q12 -23 0 -35q-12 -11 -29.5 1t-52.5 49q-8 8 -12 13q-14 14 -51 56.5t-48 54.5z" />
<glyph unicode="&#xf5;" d="M51 446q0 79 10.5 152.5t36 146t63.5 126.5t99 87t137 33q174 0 257 -126t83 -353q0 -487 -299 -539q-32 -4 -51 -4q-74 0 -133.5 30.5t-96.5 78.5t-61.5 112.5t-34.5 127.5t-10 128zM406 932q-86 -7 -120 -57t-48 -144q-26 -151 -23 -297q2 -154 11 -210 q29 -197 159 -197q44 0 77.5 22.5t54 64t34 86.5t19.5 105t8 104.5t2 98.5v18q0 55 -0.5 84t-3.5 79t-9.5 78t-19 64t-30.5 55t-46.5 32.5t-64.5 13.5zM639 1157q-10 -8 -37 -30t-46 -35t-38 -21q-55 -25 -135 12l-43 25q-41 20 -67.5 16.5t-61.5 -32.5q-12 -12 -25 -17 q-17 -4 -26.5 7t-3.5 28q8 19 18 27q59 56 139 41q40 -4 68 -25q84 -55 172 23q25 22 41.5 18.5t44.5 -37.5z" />
<glyph unicode="&#xf6;" d="M51 446q0 79 10.5 152.5t36 146t63.5 126.5t99 87t137 33q174 0 257 -126t83 -353q0 -487 -299 -539q-32 -4 -51 -4q-74 0 -133.5 30.5t-96.5 78.5t-61.5 112.5t-34.5 127.5t-10 128zM406 932q-86 -7 -120 -57t-48 -144q-26 -151 -23 -297q2 -154 11 -210 q29 -197 159 -197q44 0 77.5 22.5t54 64t34 86.5t19.5 105t8 104.5t2 98.5v18q0 55 -0.5 84t-3.5 79t-9.5 78t-19 64t-30.5 55t-46.5 32.5t-64.5 13.5zM264 1137q-41 0 -66.5 21t-25.5 61q-1 34 31.5 61t72.5 25q27 -2 51.5 -26t24.5 -50q0 -92 -88 -92zM530 1137 q-41 0 -66.5 21t-25.5 61q-1 34 32 61t73 25q27 -2 51 -26t24 -50q0 -92 -88 -92z" />
<glyph unicode="&#xf7;" horiz-adv-x="530" d="M373 283l-199 4q-10 -1 -44.5 -3.5t-53.5 -2.5q-21 5 -33.5 15t-9.5 23q3 31 43 31q31 2 92 2q45 0 130.5 2.5t129.5 1.5q16 0 30.5 -2.5t28 -13t11.5 -27.5q-2 -26 -39 -30q0 -3 -43 -1zM264 55q-92 0 -92 82q-1 34 31.5 61t72.5 25q26 -2 49 -26t23 -50 q0 -50 -21.5 -73t-62.5 -19zM356 520q-3 -8 -7 -24.5t-7 -24.5q-24 -46 -66 -43q-46 3 -65 49q-4 11 -8 29q-12 62 26 80q25 12 57.5 7.5t47.5 -22.5q5 -6 9 -14.5t8 -21t5 -15.5z" />
<glyph unicode="&#xf8;" d="M113 -49q-21 0 -31 4t-10 14t4.5 20.5t15.5 30.5q5 10 21.5 38t25.5 44q-88 128 -88 344q0 79 10.5 152.5t36 146t63.5 126.5t99 87t137 33q112 0 189 -55l14 29q24 42 35 50.5t45 8.5q14 0 20 -0.5t11.5 -4t4 -10.5t-8.5 -20q-26 -53 -60 -115q90 -124 90 -362 q0 -487 -299 -539q-32 -4 -51 -4q-115 0 -197 72l-8 -21q-3 -9 -6.5 -27t-7 -24t-17 -12t-38.5 -6zM580 508q0 150 -11 229q-50 -88 -63 -110q-110 -181 -264 -480q39 -120 143 -120q44 0 77.5 22.5t54 64t34 86.5t19.5 105t8 104.5t2 98.5zM406 932q-86 -7 -120 -57 t-48 -144q-26 -151 -23 -297q0 -122 8 -192q32 63 124.5 247t113.5 224q6 13 78 139q-44 80 -133 80z" />
<glyph unicode="&#xf9;" horiz-adv-x="907" d="M535 934q3 20 51 20q16 0 51.5 -6t54.5 -6q18 0 65.5 4.5t65.5 3.5q37 -5 39 -6q8 -3 16 -10t7 -10q-2 -8 -8.5 -17t-12.5 -10q-16 -4 -47 -4q-47 0 -69 -12.5t-25 -51.5q-2 -12 -2 -38q1 -60 0 -181t0 -182q0 -70 -8 -168q-8 -91 -80.5 -177.5t-159.5 -86.5 q-42 0 -77 10t-60.5 25.5t-46 42.5t-34 51t-23.5 62.5t-15 65.5t-9 71.5t-5 69t-2 69t-2 61.5q-2 54 -2 156.5t-2 157.5q0 56 -45 53q-46 0 -82 -8q-34 -3 -43 30q-3 15 6.5 26.5t27.5 12.5q36 1 104.5 -6.5t100.5 -7.5q22 0 74 8t74 8q1 0 8 -1t10 -1.5t10 -1.5t11 -2.5 t8.5 -4t7 -6t2.5 -7.5q2 -15 -49 -29q-59 -23 -70 -32q-20 -17 -20 -70q-1 -107 0 -186.5t5 -156.5t11.5 -130.5t20 -99.5t30.5 -73t42.5 -42t56.5 -15q58 0 101.5 67.5t55.5 170.5q9 78 10.5 175.5t-1.5 198t-3 105.5q0 42 -12 59.5t-47 26.5q-8 2 -21 4.5t-19.5 4.5 t-13.5 5t-9.5 8t-1.5 13zM453 1247l114 -137q24 -34 4 -45q-20 -14 -59 -14q-6 0 -29 18q-2 2 -13 11.5t-14 12t-13.5 11.5t-14.5 12t-13.5 10.5t-15 11t-14.5 10t-15.5 10t-15 8t-16.5 8.5q-25 8 -19 40q5 30 62.5 45t71.5 -12z" />
<glyph unicode="&#xfa;" horiz-adv-x="907" d="M535 934q3 20 51 20q16 0 51.5 -6t54.5 -6q18 0 65.5 4.5t65.5 3.5q37 -5 39 -6q8 -3 16 -10t7 -10q-2 -8 -8.5 -17t-12.5 -10q-16 -4 -47 -4q-47 0 -69 -12.5t-25 -51.5q-2 -12 -2 -38q1 -60 0 -181t0 -182q0 -70 -8 -168q-8 -91 -80.5 -177.5t-159.5 -86.5 q-42 0 -77 10t-60.5 25.5t-46 42.5t-34 51t-23.5 62.5t-15 65.5t-9 71.5t-5 69t-2 69t-2 61.5q-2 54 -2 156.5t-2 157.5q0 56 -45 53q-46 0 -82 -8q-34 -3 -43 30q-3 15 6.5 26.5t27.5 12.5q36 1 104.5 -6.5t100.5 -7.5q22 0 74 8t74 8q1 0 8 -1t10 -1.5t10 -1.5t11 -2.5 t8.5 -4t7 -6t2.5 -7.5q2 -15 -49 -29q-59 -23 -70 -32q-20 -17 -20 -70q-1 -107 0 -186.5t5 -156.5t11.5 -130.5t20 -99.5t30.5 -73t42.5 -42t56.5 -15q58 0 101.5 67.5t55.5 170.5q9 78 10.5 175.5t-1.5 198t-3 105.5q0 42 -12 59.5t-47 26.5q-8 2 -21 4.5t-19.5 4.5 t-13.5 5t-9.5 8t-1.5 13zM541 1188l-164 -76q-39 -14 -43 8q-8 22 0 62q1 4 5 7t11 7.5t10 7.5q3 2 14.5 10t15 10.5t14.5 9.5t15.5 10.5t14 10.5t14.5 11.5t13 11.5t13.5 12.5t12 12.5t11.5 14q16 21 45 8q28 -12 27.5 -71.5t-29.5 -65.5z" />
<glyph unicode="&#xfb;" horiz-adv-x="907" d="M535 934q3 20 51 20q16 0 51.5 -6t54.5 -6q18 0 65.5 4.5t65.5 3.5q37 -5 39 -6q8 -3 16 -10t7 -10q-2 -8 -8.5 -17t-12.5 -10q-16 -4 -47 -4q-47 0 -69 -12.5t-25 -51.5q-2 -12 -2 -38q1 -60 0 -181t0 -182q0 -70 -8 -168q-8 -91 -80.5 -177.5t-159.5 -86.5 q-42 0 -77 10t-60.5 25.5t-46 42.5t-34 51t-23.5 62.5t-15 65.5t-9 71.5t-5 69t-2 69t-2 61.5q-2 54 -2 156.5t-2 157.5q0 56 -45 53q-46 0 -82 -8q-34 -3 -43 30q-3 15 6.5 26.5t27.5 12.5q36 1 104.5 -6.5t100.5 -7.5q22 0 74 8t74 8q1 0 8 -1t10 -1.5t10 -1.5t11 -2.5 t8.5 -4t7 -6t2.5 -7.5q2 -15 -49 -29q-59 -23 -70 -32q-20 -17 -20 -70q-1 -107 0 -186.5t5 -156.5t11.5 -130.5t20 -99.5t30.5 -73t42.5 -42t56.5 -15q58 0 101.5 67.5t55.5 170.5q9 78 10.5 175.5t-1.5 198t-3 105.5q0 42 -12 59.5t-47 26.5q-8 2 -21 4.5t-19.5 4.5 t-13.5 5t-9.5 8t-1.5 13zM463 1241l-76 -104q-32 -41 -52 -58.5t-38 -17.5q-33 0 -41.5 28.5t18.5 40.5q6 2 14 9t19.5 18.5t22 23t24.5 28t24 27.5t24.5 28.5t21.5 25.5q24 24 33 23t35 -27q22 -22 56.5 -65t53.5 -64q4 -5 26.5 -26.5t26.5 -28.5q12 -23 0 -35 q-12 -11 -29.5 1t-52.5 49q-8 8 -12 13q-14 14 -50.5 56.5t-47.5 54.5z" />
<glyph unicode="&#xfc;" horiz-adv-x="907" d="M535 934q3 20 51 20q16 0 51.5 -6t54.5 -6q18 0 65.5 4.5t65.5 3.5q37 -5 39 -6q8 -3 16 -10t7 -10q-2 -8 -8.5 -17t-12.5 -10q-16 -4 -47 -4q-47 0 -69 -12.5t-25 -51.5q-2 -12 -2 -38q1 -60 0 -181t0 -182q0 -70 -8 -168q-8 -91 -80.5 -177.5t-159.5 -86.5 q-42 0 -77 10t-60.5 25.5t-46 42.5t-34 51t-23.5 62.5t-15 65.5t-9 71.5t-5 69t-2 69t-2 61.5q-2 54 -2 156.5t-2 157.5q0 56 -45 53q-46 0 -82 -8q-34 -3 -43 30q-3 15 6.5 26.5t27.5 12.5q36 1 104.5 -6.5t100.5 -7.5q22 0 74 8t74 8q1 0 8 -1t10 -1.5t10 -1.5t11 -2.5 t8.5 -4t7 -6t2.5 -7.5q2 -15 -49 -29q-59 -23 -70 -32q-20 -17 -20 -70q-1 -107 0 -186.5t5 -156.5t11.5 -130.5t20 -99.5t30.5 -73t42.5 -42t56.5 -15q58 0 101.5 67.5t55.5 170.5q9 78 10.5 175.5t-1.5 198t-3 105.5q0 42 -12 59.5t-47 26.5q-8 2 -21 4.5t-19.5 4.5 t-13.5 5t-9.5 8t-1.5 13zM324 1137q-42 0 -67.5 21t-25.5 61q-1 34 32 61t73 25q27 -2 51.5 -26t24.5 -50q0 -92 -88 -92zM590 1137q-41 0 -66.5 21t-25.5 61q-1 34 31.5 61t72.5 25q27 -2 51.5 -26t24.5 -50q0 -92 -88 -92z" />
<glyph unicode="&#xfd;" horiz-adv-x="950" d="M195 8q0 11 10.5 18t22 9t27.5 3.5t19 2.5q7 1 50 6t59 8q34 6 31 41q-1 27 3 177.5t1 191.5q-5 67 -51 143q-111 195 -123 215q-23 39 -58.5 60t-95.5 24q-22 0 -46 6.5t-24 22.5q0 6 5.5 10.5t13.5 6t18 2.5t18 0.5t15 -1.5h8q26 0 84 -6.5t88 -5.5q34 0 115 12 q22 5 62 2.5t45 -22.5q3 -11 -5.5 -16t-19.5 -5q-19 1 -42.5 1t-42.5 -10.5t-17 -31.5q0 -16 4 -24l137 -258q3 -5 12 -10q20 38 78 145t90 172h-70q-26 0 -38 4q-4 1 -8.5 12.5t-4.5 16.5q0 12 13 16q15 6 28 6l142 -10q22 0 85 5t85 5q32 0 32 -20q0 -11 -5 -18 t-11.5 -10.5t-17.5 -5t-19 -1t-21 1t-18 0.5q-59 2 -78 -6.5t-39 -46.5q-22 -41 -91.5 -161.5t-100.5 -184.5q-2 -4 -2 -14.5t1 -30t1 -31.5q0 -30 -1 -162t-1 -162q0 -27 11 -36.5t42 -16.5q9 -1 40.5 -6.5t60 -10t40.5 -5.5l18 -3t13 -7t6 -17q0 -17 -16.5 -20t-44.5 2 q-128 14 -238 14q-51 0 -134.5 -8t-116.5 -5t-33 27zM561 1188l-164 -76q-39 -14 -43 8q-8 22 0 62q1 4 5 7.5t11.5 7.5t10.5 7q29 20 38.5 26.5t32.5 23.5t38 31.5t28 31.5q16 21 45 8q28 -12 27.5 -71.5t-29.5 -65.5z" />
<glyph unicode="&#xfe;" horiz-adv-x="923" d="M227 907q-31 10 -55.5 7t-56 0t-54.5 20q5 4 12 10t12 9.5t9 4.5q9 3 68 13l67 4l269 14q17 3 28 -2q19 -14 19 -24q-2 -9 -8 -18.5t-13 -10.5q-10 -3 -67 -8q-40 -5 -47 -8q-13 -6 -16.5 -16.5t-2 -28.5t1.5 -23q0 -126 23 -137q6 -4 24 -4q136 -13 185 -15 q53 -2 101.5 -45.5t55.5 -109.5q6 -57 -6 -117q-20 -84 -96 -98q-101 -22 -217 -45q-23 -4 -35 -29t-12.5 -54.5t0.5 -56.5q2 -8 2 -20q3 -37 17 -49t52 -11q34 0 48 -4q6 -2 13 -10t7 -14q0 -11 -18 -25q-8 -8 -23 -8q-86 -8 -131 -8q-27 -1 -57.5 -1t-66.5 0.5t-56 0.5 h-70q-36 0 -51 28q1 1 6.5 7.5t9 9t8.5 2.5q44 9 87 12q33 0 40 33q5 35 5 45q0 522 -2 702q0 16 -4 44t-5 34zM406 659q-3 -32 -4 -63.5t0 -67.5t2 -58.5t4 -66t4 -61.5q93 20 151 53q44 27 55 48t5 71q-2 14 -11 51q-11 36 -48 60.5t-72 17.5q-30 -3 -52 8q-5 2 -16.5 4 t-17.5 4z" />
<glyph unicode="&#xff;" horiz-adv-x="950" d="M195 8q0 11 10.5 18t22 9t27.5 3.5t19 2.5q7 1 50 6t59 8q34 6 31 41q-1 27 3 177.5t1 191.5q-5 67 -51 143q-111 195 -123 215q-23 39 -58.5 60t-95.5 24q-22 0 -46 6.5t-24 22.5q0 6 5.5 10.5t13.5 6t18 2.5t18 0.5t15 -1.5h8q26 0 84 -6.5t88 -5.5q34 0 115 12 q22 5 62 2.5t45 -22.5q3 -11 -5.5 -16t-19.5 -5q-19 1 -42.5 1t-42.5 -10.5t-17 -31.5q0 -16 4 -24l137 -258q3 -5 12 -10q20 38 78 145t90 172h-70q-26 0 -38 4q-4 1 -8.5 12.5t-4.5 16.5q0 12 13 16q15 6 28 6l142 -10q22 0 85 5t85 5q32 0 32 -20q0 -11 -5 -18 t-11.5 -10.5t-17.5 -5t-19 -1t-21 1t-18 0.5q-59 2 -78 -6.5t-39 -46.5q-22 -41 -91.5 -161.5t-100.5 -184.5q-2 -4 -2 -14.5t1 -30t1 -31.5q0 -30 -1 -162t-1 -162q0 -27 11 -36.5t42 -16.5q9 -1 40.5 -6.5t60 -10t40.5 -5.5l18 -3t13 -7t6 -17q0 -17 -16.5 -20t-44.5 2 q-128 14 -238 14q-51 0 -134.5 -8t-116.5 -5t-33 27zM344 1137q-41 0 -66.5 21t-25.5 61q-1 34 31.5 61t72.5 25q27 -2 51.5 -26t24.5 -50q0 -92 -88 -92zM610 1137q-41 0 -66.5 21t-25.5 61q-1 34 32 61t73 25q27 -2 51 -26t24 -50q0 -92 -88 -92z" />
<glyph unicode="&#x152;" horiz-adv-x="1083" d="M993 709q-3 9 -2 29.5t-2 29.5q-24 74 -31 88q-44 78 -127 66q-14 -2 -74 -4.5t-75 -4.5q-8 -36 -8.5 -110.5t-1.5 -83.5q0 -55 -4 -191q17 0 67 -1t64 -1q15 0 24 8.5t11 22.5l4 25q0 34 28 34q15 0 29.5 -16t11.5 -31q-15 -62 -4 -155q5 -36 -18 -39q-15 0 -41 22 q-3 2 -6 11.5t-4 11.5q-14 27 -64.5 38.5t-79.5 -1.5q-22 -7 -22 -33q0 -15 -1 -43t-1 -41q2 -76 2 -225q1 -7 -0.5 -36t-1.5 -32q38 -9 106.5 -7t101.5 11q56 18 81.5 92.5t23.5 122.5q-3 38 35 41q5 0 8 -1.5t4.5 -6t2 -7.5t1 -11t0.5 -13q4 -184 8 -276q-23 0 -70.5 -1 t-72.5 -1l-506 4q-81 0 -144.5 28t-103.5 74t-66.5 109.5t-37 130t-10.5 141.5q0 67 14.5 138.5t45.5 140.5t74.5 123.5t106 88t135.5 33.5q51 0 119 -14t90 -14q41 0 70 2t64 6t65 6q31 4 64 4.5t76.5 -1t64.5 -1.5q41 -3 41 -43l-13 -256q-38 -10 -51 19zM512 55 q15 47 20 423t-8 444q-12 -4 -28.5 -1t-44 9t-39.5 6q-44 0 -79 -18t-58 -44.5t-40.5 -69t-27 -79.5t-15 -88t-7.5 -83t-3 -75q1 -67 6 -121t19.5 -113.5t36.5 -99.5t61 -66t90 -26z" />
<glyph unicode="&#x153;" horiz-adv-x="960" d="M920 264q1 -13 4.5 -54t3.5 -63q6 -119 4 -127q-3 -12 -16.5 -15t-45.5 -1q-43 2 -217 2q-15 0 -77.5 2t-79.5 2q-22 0 -75.5 -10t-58.5 -10q-74 0 -133.5 29.5t-96.5 76t-61.5 109.5t-34 125t-9.5 127q0 148 48 269.5t137 193t202 71.5q18 0 123 -8t202 -8q34 0 94 4.5 t74 3.5q25 0 25 -31v-161q0 -13 1 -37t1 -37q-2 -19 -15 -25t-28 6q-25 20 -29 80q0 81 -45 119q-25 21 -43 21q-57 2 -194 2q0 -70 2 -205t2 -201q87 -9 139 -6q16 2 41 37q4 6 7.5 14.5t7 18t5.5 14.5q33 5 33 -29q0 -17 -12 -45t-9.5 -62.5t17.5 -60.5q6 -10 6 -29 t-6 -28q-15 -15 -29 -5t-22 29q-2 2 -2 9q-18 56 -60.5 76t-97.5 2q-22 -7 -22 -35q-1 -13 -1 -41t-1 -41q-2 -38 -1.5 -112t-1.5 -111v-46q11 0 40.5 -0.5t45 0t39.5 1.5t43.5 5t36.5 11q18 6 31 22q47 66 55 136q0 18 2 28q0 2 0.5 6.5t1 7t1 6t2 5.5t4 3.5t6 2t8.5 0.5 q29 0 29 -33zM432 59q1 18 5.5 120t5.5 132t3.5 116.5t2.5 131.5t-0.5 116.5t-4 131t-8.5 119.5q-18 16 -55 16q-86 -7 -120 -57t-48 -144q-26 -151 -23 -297q2 -154 11 -210q29 -197 159 -197q12 0 38 11t34 11z" />
<glyph unicode="&#x178;" horiz-adv-x="991" d="M215 8q0 11 10.5 18t22 9t28 3.5t19.5 2.5q7 1 49.5 6t58.5 8q34 6 31 41q-1 28 3 147.5t1 159.5q-7 91 -51 164q-14 24 -66 119.5t-77 136.5q-23 39 -58.5 60t-95.5 24q-22 0 -46 6.5t-24 22.5q0 6 5.5 10.5t13.5 6t18 2.5t18 0.5t15 -1.5h8q26 0 84 -6.5t88 -5.5 q55 0 136 12q22 5 61.5 2.5t44.5 -22.5q3 -11 -5.5 -16t-19.5 -5q-20 1 -48 1.5t-52 -10.5t-22 -32q0 -16 4 -24l157 -299q2 -5 13 -10q15 29 85 160t103 198h-90q-27 0 -39 4q-4 1 -8 12t-4 17q0 12 12 16q15 6 29 6l161 -10q22 0 85 5t85 5q33 0 33 -20q0 -11 -5 -18 t-11.5 -10.5t-17.5 -5t-19 -1t-21 1t-18 0.5q-59 2 -78 -6.5t-39 -46.5q-18 -34 -97.5 -176t-111.5 -207q-4 -8 -4 -80q0 -31 -1 -142t-1 -141q0 -27 11.5 -36.5t42.5 -16.5q9 -1 40.5 -6.5t60 -10t40.5 -5.5l18 -3t13 -7t6 -17q0 -17 -17 -20t-45 2q-128 14 -237 14 q-51 0 -134.5 -8t-117 -5t-33.5 27zM406 1139q-42 0 -67.5 21t-25.5 61q-1 34 32 61t73 25q27 -2 51.5 -26t24.5 -50q0 -92 -88 -92zM672 1139q-41 0 -66.5 21t-25.5 61q-1 34 31.5 61t72.5 25q27 -2 51.5 -26t24.5 -50q0 -92 -88 -92z" />
<glyph unicode="&#x2c6;" horiz-adv-x="454" d="M229 1241l-75 -104q-32 -41 -52.5 -58.5t-38.5 -17.5q-33 0 -41 28.5t19 40.5q8 3 20.5 14.5t31 32t31.5 35.5t36 42.5t30 35.5q24 24 33 23t35 -27q22 -22 57.5 -65.5t53.5 -63.5q4 -5 26.5 -26.5t26.5 -28.5q12 -23 0 -35q-12 -11 -29.5 1t-52.5 49q-8 8 -12 13 q-14 14 -51 56.5t-48 54.5z" />
<glyph unicode="&#x2dc;" horiz-adv-x="544" d="M514 782q-10 -8 -37 -30t-46 -35t-38 -21q-54 -25 -135 13l-43 24q-41 20 -67.5 16.5t-61.5 -32.5q-12 -12 -25 -17q-17 -4 -26.5 7t-3.5 28q8 19 18 27q59 56 139 41q40 -4 68 -25q84 -55 172 23q25 22 41.5 18.5t44.5 -37.5z" />
<glyph unicode="&#x2000;" horiz-adv-x="737" />
<glyph unicode="&#x2001;" horiz-adv-x="1475" />
<glyph unicode="&#x2002;" horiz-adv-x="737" />
<glyph unicode="&#x2003;" horiz-adv-x="1475" />
<glyph unicode="&#x2004;" horiz-adv-x="491" />
<glyph unicode="&#x2005;" horiz-adv-x="368" />
<glyph unicode="&#x2006;" horiz-adv-x="245" />
<glyph unicode="&#x2007;" horiz-adv-x="245" />
<glyph unicode="&#x2008;" horiz-adv-x="184" />
<glyph unicode="&#x2009;" horiz-adv-x="295" />
<glyph unicode="&#x200a;" horiz-adv-x="81" />
<glyph unicode="&#x2010;" horiz-adv-x="522" d="M369 242l-199 4q-10 -1 -44.5 -3.5t-53.5 -2.5q-21 5 -33.5 15.5t-9.5 23.5q3 30 43 30q31 2 92 2q45 0 130.5 2.5t129.5 1.5q16 0 30.5 -2.5t28 -13t11.5 -27.5q-2 -26 -39 -30q0 -3 -43 -2z" />
<glyph unicode="&#x2011;" horiz-adv-x="522" d="M369 242l-199 4q-10 -1 -44.5 -3.5t-53.5 -2.5q-21 5 -33.5 15.5t-9.5 23.5q3 30 43 30q31 2 92 2q45 0 130.5 2.5t129.5 1.5q16 0 30.5 -2.5t28 -13t11.5 -27.5q-2 -26 -39 -30q0 -3 -43 -2z" />
<glyph unicode="&#x2012;" horiz-adv-x="522" d="M369 242l-199 4q-10 -1 -44.5 -3.5t-53.5 -2.5q-21 5 -33.5 15.5t-9.5 23.5q3 30 43 30q31 2 92 2q45 0 130.5 2.5t129.5 1.5q16 0 30.5 -2.5t28 -13t11.5 -27.5q-2 -26 -39 -30q0 -3 -43 -2z" />
<glyph unicode="&#x2013;" horiz-adv-x="647" d="M492 242l-322 4q-10 -1 -44.5 -3.5t-53.5 -2.5q-21 5 -33.5 15.5t-9.5 23.5q3 30 43 30q31 2 92 2q39 0 188 2.5t195 1.5q16 0 30.5 -2.5t27.5 -13t11 -27.5q-2 -26 -38 -30q0 -3 -43 -2z" />
<glyph unicode="&#x2014;" horiz-adv-x="770" d="M614 242l-444 4q-10 -1 -44.5 -3.5t-53.5 -2.5q-21 5 -33.5 15.5t-9.5 23.5q3 30 43 30q31 2 92 2q33 0 246 2.5t260 1.5q16 0 30.5 -2.5t27.5 -13t11 -27.5q-2 -26 -39 -30q0 -3 -43 -2z" />
<glyph unicode="&#x2018;" horiz-adv-x="229" d="M96 883q46 3 75 -28t28 -72t-31 -66q-21 -16 -46 -18.5t-46 8t-35 38.5t-14 68q0 73 38.5 130.5t94.5 76.5q7 3 20 -1.5t19 -12.5q9 -16 -21 -33q-66 -34 -82 -90z" />
<glyph unicode="&#x2019;" horiz-adv-x="229" d="M133 838q-46 -3 -75 28t-28 72t31 66q21 16 46 18.5t46.5 -8t35.5 -39t14 -68.5q0 -73 -38.5 -130.5t-94.5 -76.5q-7 -3 -20 2t-19 13q-9 16 20 33q66 34 82 90z" />
<glyph unicode="&#x201a;" horiz-adv-x="229" d="M133 -2q-46 -3 -75 28t-28 72t31 66q21 16 46 18.5t46.5 -8t35.5 -38.5t14 -68q0 -73 -38.5 -130.5t-94.5 -76.5q-7 -3 -20 1.5t-19 12.5q-9 16 20 33q66 34 82 90z" />
<glyph unicode="&#x201c;" horiz-adv-x="442" d="M309 903q46 3 75 -28t28 -72t-31 -66q-21 -16 -46 -18.5t-46 8t-35 39t-14 68.5q0 73 38.5 130t94.5 76q7 3 20 -1.5t19 -12.5q9 -16 -21 -33q-66 -34 -82 -90zM96 903q46 3 75 -28t28 -72t-31 -66q-21 -16 -46 -18.5t-46 8t-35 39t-14 68.5q0 73 38.5 130t94.5 76 q7 3 20 -1.5t19 -12.5q9 -16 -21 -33q-66 -34 -82 -90z" />
<glyph unicode="&#x201d;" horiz-adv-x="442" d="M133 838q-46 -3 -75 28t-28 72t31 66q21 16 46 18.5t46.5 -8t35.5 -39t14 -68.5q0 -73 -38.5 -130.5t-94.5 -76.5q-7 -3 -20 2t-19 13q-9 16 20 33q66 34 82 90zM346 838q-46 -3 -75 28t-28 72t31 66q21 16 46 18.5t46.5 -8t35.5 -39t14 -68.5q0 -73 -38.5 -130.5 t-94.5 -76.5q-7 -3 -20 2t-19 13q-9 16 20 33q66 34 82 90z" />
<glyph unicode="&#x201e;" horiz-adv-x="442" d="M133 -2q-46 -3 -75 28t-28 72t31 66q21 16 46 18.5t46.5 -8t35.5 -38.5t14 -68q0 -73 -38.5 -130.5t-94.5 -76.5q-7 -3 -20 1.5t-19 12.5q-9 16 20 33q66 34 82 90zM346 -2q-46 -3 -75 28t-28 72t31 66q21 16 46 18.5t46.5 -8t35.5 -38.5t14 -68q0 -73 -38.5 -130.5 t-94.5 -76.5q-7 -3 -20 1.5t-19 12.5q-9 16 20 33q66 34 82 90z" />
<glyph unicode="&#x2022;" horiz-adv-x="239" d="M211 238q-81 0 -130.5 41t-49.5 120q-3 66 62 118.5t143 49.5q53 -3 101 -50t48 -99q0 -92 -46 -136t-128 -44z" />
<glyph unicode="&#x2026;" horiz-adv-x="718" d="M121 -8q-41 0 -66.5 21t-25.5 61q-1 34 31.5 61t72.5 25q27 -2 51.5 -26t24.5 -50q0 -92 -88 -92zM360 -8q-41 0 -66.5 21t-25.5 61q-1 34 32 61t73 25q27 -2 51.5 -26t24.5 -50q0 -92 -89 -92zM600 -8q-41 0 -66.5 21t-25.5 61q-1 34 31.5 61t72.5 25q27 -2 51.5 -26 t24.5 -50q0 -92 -88 -92z" />
<glyph unicode="&#x202f;" horiz-adv-x="295" />
<glyph unicode="&#x2039;" horiz-adv-x="356" d="M27 346q0 11 2 18.5t6 11.5t7.5 5.5t10.5 3.5q31 10 55.5 34.5t59 72t55.5 71.5q21 21 71 25q37 3 34 -11q-1 -4 -6 -10q-32 -33 -102.5 -116t-90.5 -101q55 -39 119.5 -111.5t64.5 -113.5q0 -36 -30 -29q-61 15 -78 62q-10 26 -42.5 68t-53.5 57q-22 17 -44.5 26.5 t-30 15t-7.5 21.5z" />
<glyph unicode="&#x203a;" horiz-adv-x="356" d="M330 342q0 -15 -4.5 -23.5t-9 -10.5t-13.5 -5q-31 -10 -55.5 -34.5t-59 -72t-55.5 -71.5q-21 -21 -72 -25q-35 -3 -32 11q1 4 6 10q32 33 102 116t90 101q-55 39 -119.5 111.5t-64.5 113.5q0 36 31 29q61 -15 78 -62q10 -26 42.5 -67.5t53.5 -56.5q18 -14 35.5 -23 t26.5 -12t14.5 -10t5.5 -19z" />
<glyph unicode="&#x205f;" horiz-adv-x="368" />
<glyph unicode="&#x20ac;" horiz-adv-x="770" d="M739 965q7 -95 4 -172q0 -39 -16 -109q-1 -7 -11 -13.5t-18 -8.5q-10 -1 -15 5.5t-9 18.5l-37 111q-24 87 -107 129q-18 9 -46 3t-44 -20q-112 -90 -133 -348h78q16 0 30.5 -2.5t28 -13t11.5 -27.5q-2 -27 -39 -31q0 -3 -43 -1l-43 1h-27v-28v-41h82q16 0 30.5 -2.5 t28 -13t11.5 -27.5q-2 -27 -39 -31q0 -3 -43 -2l-43 2h-23q11 -102 64 -223q10 -24 38.5 -51.5t53.5 -40.5q5 -4 27 -5t30 1q50 11 72.5 43.5t42.5 101.5q2 8 5.5 23.5t5.5 25t6 19.5t9.5 13.5t12.5 0.5q26 -11 37.5 -49t1.5 -66q-57 -164 -246 -164q-55 0 -106 25 t-88.5 65.5t-63.5 85.5t-39 89q-11 45 -18 108q-7 0 -21.5 -2t-21.5 -2h-35q-21 5 -33.5 15.5t-9.5 23.5q3 31 43 31q25 2 73 2v39v36q-6 0 -19 -2t-19 -2h-35q-21 5 -33.5 15.5t-9.5 23.5q3 31 43 31q27 2 82 2q22 171 94 293q55 91 151 129q71 28 153.5 -3.5t111.5 -98.5 q15 108 16 122q7 33 33 31q3 0 5 -0.5t4 -1.5t3 -2l2 -2t2 -3l1.5 -3t1.5 -4t1 -4.5t1 -5t1 -5.5q2 -12 2 -34z" />
<glyph unicode="&#x2122;" horiz-adv-x="1734" d="M952 752q-12 -15 -22 -56q-6 -23 -20.5 -85t-24.5 -95q-39 -130 -47 -184q-9 -48 -34 -138.5t-34 -138.5q-4 -15 -8 -53q-5 -12 -54 -11q-37 1 -34 11l10 35l37 123q18 56 20 86q0 18 13 61q11 38 33.5 108t31.5 103q45 177 86 283q5 16 14 45.5t13 42.5q3 11 19.5 16.5 t27.5 -2.5q12 -9 14 -18q5 -15 13.5 -47t13.5 -47l61 -207q32 -129 37 -148l78 -282q0 -2 1.5 -4.5t4.5 -7t4 -7.5q16 52 107 371q15 54 32.5 114.5t39.5 133t34 112.5l15 8q29 13 36 10.5t21 -30.5q9 -21 12 -41q11 -60 31 -133q34 -121 47 -174q23 -114 45 -176 q19 -62 31 -123q9 -37 29 -100.5t28 -92.5q3 -16 -9 -21t-42 -5q-18 0 -21 6q-2 9 -11 54t-15 69q-58 230 -70 276l-20 66l-68 260q-4 12 -4 18q-13 3 -16 -10q-18 -71 -39 -141q-40 -127 -60 -217q-4 -18 -10.5 -38.5t-16 -46t-14.5 -40.5q-6 -18 -6 -19l-30 -143 q-2 -7 -4.5 -15.5t-6.5 -19t-6 -16.5q-6 -22 -28 -31q-13 -6 -26.5 -2.5t-19.5 16.5q-5 10 -10.5 31.5t-7.5 26.5q-4 26 -8 37q-8 20 -70 215q-17 59 -33 106l-36 100l-23 91zM371 827q-18 -31 -11 -73q5 -35 5 -43q4 -398 4 -619q0 -17 -2 -48t-2 -46q-14 -14 -39 -10 q-11 2 -19 9t-8 17v70q4 33 2 47q-9 146 -6 299q1 29 0.5 83t0.5 98t5 83q1 29 1 39t-2 39t-3 39q0 4 -4 12q-2 1 -4.5 3.5t-3.5 2.5q-93 0 -138 -2q-20 0 -56 -3.5t-46 -4.5q-15 -1 -25 9t-10 24t7.5 22.5t19.5 8.5q16 2 57 2q19 0 51 -1t57 -1t46 2q7 0 18.5 1t14.5 1 q16 0 52 -1t54 -1q126 4 186 4q34 0 48 -4q9 -1 14.5 -9t3.5 -16q-4 -20 -18 -20q-10 0 -32 -2t-32 -2q-6 0 -21 1t-22 1q-17 -1 -143 -11z" />
<glyph unicode="&#x25fc;" horiz-adv-x="993" d="M0 993h993v-993h-993v993z" />
</font>
</defs>
</svg>
