<?xml version="1.0" standalone="no"?>
<!DOCTYPE svg PUBLIC "-//W3C//DTD SVG 1.1//EN" "http://www.w3.org/Graphics/SVG/1.1/DTD/svg11.dtd" >
<svg xmlns="http://www.w3.org/2000/svg">
<metadata></metadata>
<defs>
<font id="hms_gilbert_slabregular" horiz-adv-x="1339" >
<font-face units-per-em="2048" ascent="1536" descent="-512" />
<missing-glyph horiz-adv-x="634" />
<glyph horiz-adv-x="0" />
<glyph horiz-adv-x="682" />
<glyph unicode=" "  horiz-adv-x="634" />
<glyph unicode="&#x09;" horiz-adv-x="634" />
<glyph unicode="&#xa0;" horiz-adv-x="634" />
<glyph unicode="!" horiz-adv-x="362" d="M41 1143q18 12 25 12q91 4 139 0q19 -1 27.5 -15t5.5 -34q-30 -154 -41 -383q-3 -70 -14.5 -199t-14.5 -182q0 -17 -4 -25q-8 -21 -29.5 -23.5t-30.5 17.5q-17 35 -20 113l-6 190q-11 253 -12 260q-3 51 -13 147.5t-12 121.5zM158 184q-5 1 -14 1.5t-16.5 1.5t-12.5 3 t-11 7.5t-6 9.5q2 9 15 22q1 1 18 7q40 6 52.5 18t15.5 49l43 442q4 43 10 128.5t10 127.5q4 49 12 72q3 8 15.5 15t19.5 6q5 -1 8 -3t3.5 -6.5t0 -7.5t-2 -9.5t-1.5 -8.5q-18 -128 -35.5 -377t-33.5 -369q-4 -46 -8 -69q-6 -37 -18 -46.5t-50 -11.5h-14v-2zM233 49 q0 -32 -27 -54t-54 -22q-34 -1 -59 22.5t-25 53.5q0 34 27 54t63 20q75 0 75 -74zM266 51q15 15 23 -16q6 -26 0 -51q-24 -86 -107 -86q-58 0 -61 22q-3 23 45 23q64 -6 88 59q1 4 2.5 16t3.5 21t6 12z" />
<glyph unicode="&#x22;" horiz-adv-x="692" d="M254 1141q22 -9 10 -58q-24 -119 -37 -204q-3 -37 -30 -37q-37 -3 -82 4q-4 1 -9.5 9.5t-7.5 16.5q-8 33 -24.5 104.5t-26.5 108.5q-11 31 -0.5 48t47.5 20q10 1 31.5 3t33 2.5t29.5 0t34 -5t32 -12.5zM485 887q-3 -23 -14.5 -31t-38.5 -8q-41 0 -45 24q-10 31 -22 97 q-14 78 -27 137q-7 28 -0.5 41t33.5 14q87 4 123 0q45 -6 51 -19.5t-10 -58.5q-22 -77 -50 -196zM522 805l62 252q1 5 2.5 16.5t3 16.5t5 13t9.5 7t17 -2q24 -4 27.5 -14.5t-3.5 -38.5l-53 -207l-6 -25q-17 -56 -37 -70t-78 -10q-31 2 -63 25q-10 6 -12.5 10t2 7t11 4.5 t17.5 3.5zM145 758q-20 20 6 24q18 4 99 4l35 136q11 34 34 28q5 0 11 -8.5t6 -15.5q0 -31 -29 -138q-8 -28 -18.5 -39t-34.5 -12q-51 -3 -72 -2q-4 0 -9.5 3.5t-13.5 9.5t-14 10z" />
<glyph unicode="#" horiz-adv-x="1275" d="M924 883h188q10 -17 12 -33t-3.5 -42.5t-6.5 -31.5q-3 -18 -14.5 -23t-38.5 -5h-176q-18 -69 -49.5 -196t-44.5 -179q6 1 23 1.5t24 2.5q60 15 120 0q23 -8 28 -16t1 -33l-8 -47q-31 -15 -71.5 -17.5t-74 1t-75.5 -2.5q-19 -45 -33.5 -137t-30.5 -133l-100 -17 q-38 26 -16 84q13 35 34 102t29 91q-20 10 -42.5 12t-52.5 -0.5t-44 -1.5q-29 3 -68.5 1.5t-71.5 -13.5l-51 -260q-10 -7 -25.5 -9.5t-39 -3.5t-33.5 -2q-17 -3 -29.5 15.5t-7.5 38.5q2 14 5.5 28.5t9 33t8.5 28.5l32 131l-137 -14q-32 -4 -44.5 9t-6.5 44l4 24 q5 29 14.5 38.5t38.5 10.5l164 11q24 66 50 192.5t34 159.5h-110q-39 0 -70 8q-36 8 -21 45l3 4q4 6 12 24t15 28.5t16 15.5q8 5 19.5 6t29 -0.5t24.5 -1.5q86 0 103 2q29 3 32 35q3 19 35 201q9 53 64 53q35 0 49 -21t2 -55q-35 -105 -45 -197h299l43 158q6 25 14 86 q5 34 41 31h49q45 0 33 -43l-49 -164q-1 -5 -5 -24.5t-7 -32.5zM670 371q54 185 106 377q-58 -1 -104.5 0t-101.5 -1.5t-99 -9.5q-82 -289 -72 -366h271zM535 -94q11 15 22.5 22t23 7t25.5 -1q52 -7 96 -4q41 3 52 43q8 36 51 195q15 53 74 47q20 -2 120 -16q12 33 43 129 q9 26 27 22q21 -4 27 -16q10 -13 2 -33q-3 -11 -27 -72q-12 -41 -12 -43q-6 -23 -15 -31.5t-30 -9.5q-40 0 -94 7q-37 6 -50 -2t-22 -44l-41 -161q-9 -31 -19 -45q-15 -25 -32 -25q-5 0 -29 -2t-32 -2.5t-28.5 -1t-32.5 1t-28.5 4t-30.5 6.5q-8 2 -40 25zM1182 649 q-117 -8 -164 -10q-41 -3 -49 -37q-2 -16 -10 -43.5t-9 -32.5q-13 -44 -20 -61q-18 -43 -45 -31q-22 14 -11 55q28 89 46 160q6 29 14 36t37 7q37 2 112 2q37 1 50.5 13t21.5 47q8 37 21 82q8 35 36 28q29 -10 19 -45q-2 -4 -2 -14zM369 -55l39 239q3 24 22 35q52 24 111 12 q31 -4 28 -32q-3 -23 -32 -23q-13 -3 -25 0q-34 3 -43 -33q-8 -20 -10 -32q-25 -107 -29 -129q-11 -50 -35.5 -73t-75.5 -30q-20 -3 -112 -8q-14 -2 -23.5 5.5t-9.5 21.5q-1 9 5 14.5t11 7t15 2.5zM623 705q61 -6 73 -9q5 0 12 -7t7 -11q0 -16 -13 -19q-24 -12 -92 -12 q-32 0 -43 -7t-18 -36l-37 -162q-2 -10 -4.5 -15.5t-8.5 -9.5t-14 -3q-14 1 -19.5 12t-2.5 25q2 22 9.5 64.5t8.5 49.5q2 12 17 86q5 31 15 41t42 13h68zM639 1098q8 -4 13 -16.5t3 -22.5q-7 -57 -16 -98q-2 -7 -18 -39q-12 -21 -33 -15q-25 10 -19 35l9 29q10 43 18 88 q4 21 14.5 34.5t28.5 4.5zM1057 1098q14 -31 14.5 -51.5t-8.5 -53.5q-5 -19 -16 -49q-11 -29 -37 -29q-22 0 -15 29q9 43 35 141q2 12 4.5 19t6 10t7.5 -1t9 -15zM295 682q16 0 7 -31q-1 -3 -1 -4q-5 -16 -25 -20t-63 -4q-56 0 -59 36q-3 17 9.5 26t35.5 9q14 1 45 -5.5 t51 -6.5zM135 145q-10 -1 -19.5 -1.5t-22.5 1t-19 7t-9 16t7 27.5q4 8 14.5 12t19 4t26 -1t24.5 -1q17 0 22.5 -10.5t-0.5 -20.5q-14 -28 -43 -33z" />
<glyph unicode="$" horiz-adv-x="909" d="M457 1319q23 -18 20 -51q-2 -21 -6.5 -57.5t-5.5 -53.5q86 -4 149 -39t134 -104q6 -5 10.5 -11t8 -13l6 -12t4.5 -14.5t3 -13t1.5 -14.5t1 -13.5t1 -15.5t0.5 -14q0 -26 -4 -84q-1 -23 -12 -30.5t-35 -4.5q-36 4 -55 4q-35 -3 -35 29q-1 7 0.5 21t1.5 18t3 21t2.5 22 t-3.5 20q-20 43 -40 70t-52 47q-36 16 -82 25q1 -12 0 -37t0 -37l6 -268q1 -28 -0.5 -78.5t-1.5 -65.5q123 -65 188 -137t72 -168q9 -149 -116 -233q-55 -41 -148 -52q0 -34 1 -80t1 -53q0 -40 -11 -50t-54 -7q-23 0 -33 2q-21 4 -29 14t-6 31q7 113 8 148l-78 12 q-19 3 -38.5 9.5t-32.5 12.5t-34 19t-29 18.5t-31.5 23t-28.5 21.5q-29 21 -29 82t-6 115q-3 39 29 47q9 3 19.5 3.5t26 -0.5t21.5 -1q25 0 32.5 -5.5t4.5 -27.5q-10 -60 -10 -63q0 -54 15 -80t63 -49q51 -23 108 -29q3 252 0 381v33q-7 4 -75 42t-97 62q-65 54 -90.5 135.5 t-11.5 171.5q18 99 93.5 157.5t190.5 78.5v108q0 34 9.5 43.5t44.5 10.5zM563 -96q-6 0 -6 -133q0 -55 -31 -86q-23 8 -86 7t-88 17q9 18 25.5 28t28.5 12t34 3q6 0 19.5 -2t19.5 -2q31 3 31 31v115q0 24 8 31t43 20q74 24 119 69q100 105 100 193q0 56 -10 102.5t-22.5 77 t-39.5 63t-45 49.5t-55 48l-78 61q-22 7 -22 115v74q0 13 1 53t0.5 68t-5.5 55v4v2q0 8 14 2q40 -21 70 -61q3 -6 -2 -27q-21 0 -27 4h-2q2 -18 2 -51q0 -47 1 -111.5t1 -77.5l137 -118q142 -126 142 -328q0 -68 -45.5 -142t-110.5 -114q-3 -2 -30 -19.5t-47 -24.5t-44 -7z M225 745q48 -69 131 -120q4 62 4 92q5 136 5 327q-135 -23 -164 -120q-32 -96 24 -179zM602 248q-12 69 -125 162q0 -28 -4 -86q-6 -50 -2 -234q64 13 102.5 55.5t28.5 102.5zM330 795q1 -5 2 -13t2.5 -24t-0.5 -25t-8 -6q-59 29 -81 72t-12 106q5 31 25 56t49 34 q8 3 14 -10t6.5 -26.5t-1.5 -18.5q-27 -18 -27 -68q0 -46 31 -77zM662 745q17 0 51 -2.5t62 -2.5t52 5q0 150 -18 224q-2 8 1 7q11 -3 30 -45q26 -57 26 -120q0 -7 1 -24t1 -25q0 -37 -13 -50.5t-42 -13.5h-70q-41 0 -81 47zM293 139q-6 -8 -25.5 -1t-31.5 14 q-11 7 -16.5 11t-11 13t-5.5 21v57q-1 12 0.5 21.5t6 16.5t15 3t25.5 -19q4 -12 6 -42.5t10 -55t27 -39.5zM291 -55q12 0 20 -20q8 -24 -8 -25q-131 40 -162 77q-5 8 -14 26t-6 22q3 3 20 -7t39 -24.5t25 -16.5q7 -3 19 -10t17.5 -9.5t14.5 -6t17 -5t18 -1.5zM553 285 q0 -4 3 -30.5t3 -35.5q0 -51 -27 -65q-4 -1 -7 -2t-5 2.5t-3.5 6t-2.5 8.5t-1.5 9.5t-0.5 9.5v9.5v8v5.5v111q0 14 23 -9q18 -18 18 -28zM561 1182q-5 1 -12 3.5t-19 15t-12 28.5q0 11 1 33t1 34q31 2 39 -3.5t8 -28.5q0 -1 -6 -82z" />
<glyph unicode="%" horiz-adv-x="1476" d="M840 188q0 91 57 166.5t150 89.5q39 7 102 0q84 -7 137 -82.5t47 -164.5q-6 -111 -78.5 -177.5t-189.5 -54.5q-95 9 -157 67.5t-68 155.5zM41 870q0 91 57 166.5t150 89.5q39 7 102 0q84 -7 137.5 -82.5t47.5 -164.5q-6 -111 -79 -177.5t-190 -54.5q-95 9 -157 67.5 t-68 155.5zM315 -8q7 14 57.5 108.5t78.5 141.5q80 136 174 370q16 42 34 83t42.5 92t37.5 76.5t45.5 90.5t40.5 80q7 14 19 43.5t18 42.5q10 21 21 26t41 3h82q15 0 21 -5.5t2 -17t-8 -18.5t-13 -21q-97 -137 -195 -360q-21 -46 -66.5 -150t-70.5 -157q-20 -47 -63 -130 t-52 -102l-84 -178q-16 -37 -51 -35q-8 1 -64 -4q-40 0 -47 21zM510 -53q6 17 17.5 50t21.5 58t20 47q24 55 74.5 158t56.5 115q21 44 59.5 126.5t72 153.5t65.5 136q51 101 90 172q13 25 45 79q13 26 27 33q5 3 14 1t14 -7q11 -8 7 -25q-1 -5 -7.5 -12t-7.5 -8 q-18 -35 -67 -127.5t-74.5 -141.5t-63 -125t-67.5 -141l-145 -315l-39 -78q-6 -14 -18.5 -40.5t-21.5 -48.5t-14 -42q-10 -38 -35 -54.5t-65 -21.5q-17 -3 -107 -8q-17 -4 -24 0q-16 12 -19 25q-1 3 6 9.5t13 8.5q16 6 53 10zM408 891q-2 55 -35 101t-84 46q-63 0 -101 -38 t-41 -97q0 -71 35.5 -117.5t96.5 -46.5q52 0 90.5 45t38.5 107zM1206 209q-2 55 -35 101t-84 46q-63 0 -100.5 -38t-40.5 -97q0 -71 35 -117.5t96 -46.5q52 0 90.5 45t38.5 107zM928 -41l119 -37q158 -46 256 60q48 58 62 98t11 121q0 1 -2 17t-3.5 31t1.5 29t12 17 q14 5 24.5 -9t14.5 -27.5t7 -31.5q6 -20 4.5 -57.5t-7.5 -75.5t-28 -83t-56 -79q-41 -41 -107.5 -60.5t-131.5 -14.5q-14 1 -29.5 5t-25.5 7t-29 11t-24 10.5t-27.5 13.5t-24.5 12q-4 2 -8 7t-9 14t-7 12zM129 641l119 -37q158 -46 256 60q48 58 62.5 98.5t11.5 120.5 q0 1 -2 17t-3.5 31t1.5 29t12 17q11 3 19.5 -2.5t13.5 -19.5t7.5 -23.5t4.5 -22.5q4 -26 4 -58t-6.5 -73.5t-28 -85.5t-55.5 -78q-41 -41 -108 -60.5t-132 -14.5q-14 1 -29.5 5t-25.5 7t-29 11t-24 10.5t-27.5 13.5t-24.5 12q-4 2 -8 7t-9 14t-7 12zM311 961l-20 -7 q-34 -12 -41.5 -54t16.5 -69q1 -2 5 -6t5 -6q0 -3 1 -10.5t0.5 -12.5t-3.5 -8q-3 -4 -12.5 -5.5t-15.5 1.5q-41 18 -54.5 59.5t-2 82t35.5 63.5q30 24 78 10q5 -2 8 -3.5t4.5 -2.5t1.5 -4.5t-0.5 -6t-2.5 -9.5t-3 -12zM1110 279l-20 -7q-34 -12 -41.5 -53.5t16.5 -68.5 q1 -2 5 -6.5t5 -6.5q0 -3 1 -10.5t0.5 -12.5t-3.5 -8q-3 -4 -13 -5.5t-16 1.5q-41 18 -54 59.5t-2 82t36 63.5q30 24 78 10q5 -2 8 -3.5t4.5 -2.5t1.5 -4.5t-0.5 -6t-2.5 -9.5t-3 -12z" />
<glyph unicode="&#x26;" horiz-adv-x="1105" d="M647 500q-31 0 -47 2q-23 3 -34.5 18.5t-8.5 38.5l4 29q4 36 14 43.5t48 5.5q1 0 190 6q12 0 38 1t40 1q23 -1 31.5 -9.5t11.5 -31.5q8 -57 10 -88q0 -14 -8 -22t-23 -7l-43 7l-86 8q-53 -166 -86 -233q-17 -34 -36 -64q115 -99 215 -94l43 8q37 9 47.5 -8.5t1.5 -57.5 q-12 -57 -17 -65q-9 -13 -49 -14q-7 -1 -22 -1q-99 -3 -201 74q-29 20 -86 66q-49 -54 -132.5 -100t-152.5 -46q-103 0 -189 83t-89 188q0 48 11.5 89t38.5 79.5t48 63.5t62.5 67t60.5 63q-58 139 -64 270q-3 130 74 199.5t211 69.5q84 0 134.5 -64.5t47.5 -142.5 q-1 -36 -14 -72t-30 -63.5t-47 -61t-53 -55t-60 -55.5t-56 -52l195 -278q45 35 60 90t-3 115zM315 510q-42 -20 -133 -131q-43 -59 -43 -123q0 -71 55 -130.5t128 -59.5q41 0 101 45t95 88q-31 46 -99 152.5t-104 158.5zM602 53q241 -155 383 -135q13 55 25 123 q5 19 13.5 27.5t25.5 7.5q13 -10 14.5 -28.5t-2.5 -31.5q-4 -29 -27 -133q-8 -41 -51 -41q-166 -9 -307 92l-76 52q-39 -27 -69.5 -46t-72.5 -38t-79.5 -27t-82.5 -6.5t-89 16.5t-86.5 49.5t-61.5 64.5t-6 38q27 17 78 -35l4 -4q40 -40 101 -59q93 -27 179 4.5t187 109.5z M360 662q44 25 87 74t61 100q18 58 17.5 108t-18.5 83.5t-46 33.5q-51 0 -97 -27t-69 -84q-24 -53 -19 -106t25 -94.5t59 -87.5zM821 449h97q5 0 15 -1.5t15 -1.5q28 2 36 10.5t7 37.5q-5 90 -4 106q0 7 9 17t14 8q8 -1 30 -23q2 -1 2 -14l9 -78q2 -10 2 -35 q-3 -42 -19.5 -59.5t-58.5 -20.5q-17 -2 -103 -2q-8 -31 -20.5 -58t-34.5 -58.5t-32 -44.5t-40 -50q-29 22 -32.5 30t8.5 30q4 8 15 21t14 18q35 51 47 79t24 89zM336 156q-13 -23 -26.5 -29t-35.5 2q-58 21 -79 80q-18 54 3 111t68 92q21 14 45.5 5.5t40.5 -32.5 q81 -119 115 -160q-6 -23 -23 -27.5t-32 9.5q-22 19 -40 43t-39.5 60.5t-31.5 51.5q-65 -49 -59 -118q1 -19 12 -33.5t21 -21t32 -18t29 -15.5zM629 680l-25 33q10 14 28 36.5t31 41t21 36.5q46 90 8 158q-21 38 -47 100q-10 15 -2 23q3 3 10.5 4.5t10.5 -0.5q27 -21 53 -47 q5 -4 8 -15t4 -12q86 -156 -31 -288q-8 -10 -18.5 -21t-26 -25.5t-24.5 -23.5zM483 958q-7 -5 -11 -4.5t-13 4.5t-13 5q-33 3 -51 -29q-50 -87 -4 -146q0 -1 1 -2t1 -2q19 -30 0 -49q-9 -8 -24.5 -2t-24.5 23q-65 110 -8 200q46 72 113 60q26 -3 37 -21t-3 -37zM545 463h39 q29 3 38.5 -5t8.5 -36q0 -24 -10.5 -44.5t-22.5 -19.5q-8 0 -14.5 2.5t-10 5.5t-6 9.5t-3 10.5t-1.5 12.5t-2 11.5zM522 612v-65q-4 -18 -18 -25q-8 -5 -25 6q-8 9 -21.5 28.5t-15.5 21.5q20 25 36.5 33.5t43.5 0.5z" />
<glyph unicode="'" horiz-adv-x="481" d="M233 887q-3 -23 -14.5 -31t-38.5 -8q-41 0 -45 24q-10 31 -22 97q-14 78 -27 137q-7 28 -0.5 41t33.5 14q87 4 123 0q45 -6 51 -19.5t-10 -58.5q-22 -77 -50 -196zM270 805l62 252q1 5 2.5 16.5t3 16.5t5 13t9.5 7t17 -2q24 -4 27.5 -14.5t-3.5 -38.5l-53 -207l-6 -25 q-17 -56 -37 -70t-78 -10q-31 2 -63 25q-10 6 -12.5 10t2 7t11 4.5t17.5 3.5z" />
<glyph unicode="(" horiz-adv-x="620" d="M418 23q7 -8 25 -19t16 -19.5t-25 -27.5q-26 -23 -55.5 -21.5t-54.5 29.5q-46 48 -117 146q-141 185 -158 350q-24 224 47 442q51 164 226 318q25 22 53 8q7 -3 11.5 -7.5t7.5 -11.5t4 -10.5t3 -13t2 -10.5q0 -15 -16 -23q-99 -59 -137 -217q-35 -140 -41 -281 q-12 -177 41.5 -338.5t167.5 -293.5zM526 -18q-104 114 -155.5 196.5t-79 187t-33.5 261.5q-6 130 30.5 264t94.5 192q25 25 44.5 29.5t27.5 -18.5q3 -6 1 -16t-7 -13q-37 -29 -63 -70.5t-40 -81t-21 -96t-8.5 -96.5t-1.5 -103q0 -288 140 -481q45 -63 125 -162 q15 -15 -70 -100q-8 -8 -25.5 -22t-23.5 -19q-22 -19 -43 2q-11 16 10 37q18 18 49.5 54.5t48.5 54.5z" />
<glyph unicode=")" horiz-adv-x="595" d="M72 1217q4 5 12.5 7.5t18.5 4t14 2.5q22 7 43 -17q125 -143 166 -204q97 -142 114 -311q4 -44 4 -93q0 -102 -48.5 -243.5t-134 -265t-175.5 -156.5q-1 0 -5 -2t-5.5 -2.5t-5 -1.5t-5 -1h-4.5t-5 1t-4.5 3t-4.5 5q-12 25 8 45q9 11 35.5 35.5t36.5 39.5q167 260 149 586 q-6 158 -31.5 247t-105.5 210q-8 13 -18.5 26.5t-23 30t-19.5 25.5q-14 21 -6 29zM426 958q12 2 20 -2t10.5 -7.5t6.5 -12.5q72 -115 90 -311q11 -125 -36 -264t-122 -252t-174 -218q-39 -39 -90 -67q-10 -7 -25 -4.5t-22 16.5q-6 12 -2 23.5t16 17.5q93 44 187.5 171.5 t153.5 277t59 260.5q0 68 -15 139q-23 128 -53 199q-4 10 -4 34z" />
<glyph unicode="*" horiz-adv-x="585" d="M326 1085l73 11q37 5 53 -4.5t33 -47.5q-15 -23 -38.5 -33.5t-45.5 -11t-49.5 -5t-46.5 -15.5l23 -23q5 -5 31 -28.5t38 -38.5q13 -19 4 -49q-9 -23 -47 -19q-17 2 -31.5 12t-19.5 15t-19.5 27.5t-15.5 23.5l-32 51q-45 -45 -60 -57q-44 -34 -70 -49q-22 -12 -41.5 1 t-19.5 38q0 49 61 82l72 41q-80 34 -125 116q-21 35 2 58q26 26 58 2q14 -9 36 -31l25 -25q7 -7 20 -22.5t21 -24.5q1 9 2.5 19.5t2 13.5t-0.5 10q-2 71 70 129q26 26 47 13q25 -14 22 -45l-18 -80q-12 -48 -14 -54zM430 813q20 -20 22 -29t-10 -26q-41 -53 -114 -31 q-70 25 -105 88q-70 -51 -71 -51q-20 -13 -30 -9.5t-20 27.5l91 76q17 13 42 7t37 -27q20 -36 60 -52q52 -22 84 17q8 8 14 10zM537 1016q7 -22 6 -25q-8 -31 -53 -52.5t-72 -4.5q-19 12 -23 33q0 12 10.5 16.5t22.5 1.5q9 -5 28 -0.5t26.5 7t26.5 11.5t28 13zM432 1188 q-2 -4 -10 -23t-14 -28t-15.5 -11t-17.5 7q-21 17 -6 36q6 7 11.5 22.5t8.5 20.5q2 5 9.5 12.5t9.5 10.5q17 -22 18 -25t1 -6t-0.5 -7t-0.5 -7q4 0 6 -2z" />
<glyph unicode="+" horiz-adv-x="880" d="M311 573l-10 189q-4 24 -4 35q0 46 39 37q40 -6 70 8q14 9 26.5 -6.5t11.5 -40.5q-5 -78 -4 -93q0 -9 11 -127q94 -9 176 17q27 10 86 10q8 0 16.5 -5t9.5 -11q15 -54 17 -86q0 -13 -9 -20.5t-26 -6.5q-21 0 -64.5 -2t-66.5 -2h-131q-11 -162 12 -262q-12 -14 -30 -21.5 t-31 -9.5t-37 -3.5t-35 -2.5q-19 -3 -30 19t-5 47q7 34 8.5 70t-0.5 87.5t-2 71.5h-106q-14 0 -41 3t-41.5 3.5t-42.5 -4.5q-27 -7 -33 22q-4 36 -4 62q2 18 14.5 27.5t30.5 3.5q57 -13 154 -2q11 1 35 -2.5t36 -4.5zM838 367l-285 -11q0 -134 2 -202q0 -46 -16.5 -64 t-63.5 -18q-19 1 -58 1t-59 1q-9 0 -49 10q0 37 29 37h143q16 16 18.5 37t-1.5 39q-2 33 0 60t-0.5 61t-12.5 61q-4 12 3.5 19.5t21.5 7.5q123 8 180 10h111q-9 93 -10 108q29 9 38 6.5t9 -22.5v-141zM82 406q7 7 15.5 12.5t15 8t18 4t15.5 1.5h17h15q57 3 111 -41 q-17 -33 -66 -20q-47 10 -82 2q-14 -4 -27 2.5t-15.5 9.5t-16.5 21zM494 780q2 -1 7 -3t8.5 -4t4.5 -5q16 -65 27 -125q0 -21 -4 -27q-18 -18 -31 -18q-7 1 -15 10t-10 17q-1 22 -1 47t0.5 55.5t0.5 46.5z" />
<glyph unicode="," horiz-adv-x="428" d="M182 12q-77 15 -88 19q-53 24 -53 82q0 51 33.5 82.5t87.5 31.5q64 -3 100.5 -63.5t36.5 -138.5q0 -58 -44.5 -117.5t-104.5 -63.5q-29 -3 -58 19q-21 22 -16.5 34t33.5 23q35 13 47 29t26 63zM309 160q26 15 43 -15q40 -55 33 -147q-6 -82 -56.5 -148.5t-121.5 -76.5 q-56 -8 -86 39q-1 2 3 3q3 1 14 1q20 0 30 2q72 12 117.5 61.5t52.5 124.5q8 60 -21 127q-4 7 -8 29z" />
<glyph unicode="-" horiz-adv-x="860" d="M717 455q7 -68 -6.5 -83t-71.5 -12q-126 7 -215 7q-17 0 -209 -11q-18 -1 -56.5 -5t-56.5 -5q-32 0 -48.5 20.5t-8.5 49.5q4 23 14.5 30t34.5 7h107q19 0 59.5 -1t61.5 -1l350 6q7 0 22.5 -1t22.5 -1zM764 338q6 23 3 41t1 38t20 34q26 -6 29 -35q0 -12 1 -37t1 -37 q0 -31 -13.5 -45t-45.5 -14q-22 0 -67 3t-68 3l-219 -8l-152 -5q-16 0 -45 -3t-43 -3q-22 -4 -33 4q-6 4 -10 13t-2 14q0 6 8.5 14.5t13.5 6.5q48 -9 73 -8.5t72 5.5t72 5q80 2 242 2q84 0 127 2q17 3 35 10z" />
<glyph unicode="." horiz-adv-x="376" d="M236 92q-2 -44 -32 -73.5t-71 -26.5q-45 3 -70.5 37t-19.5 73q6 38 35.5 61.5t75.5 22.5q37 -2 60 -27.5t22 -66.5zM92 -61q0 16 15 20t42.5 4.5t43.5 7.5q50 23 63 72q2 6 6 70q2 35 11 35q3 0 8 -5q30 -30 30 -80q0 -64 -46.5 -112.5t-112.5 -48.5q-27 0 -43.5 10 t-16.5 27z" />
<glyph unicode="/" horiz-adv-x="862" d="M41 -8q12 23 60 113t75 137q80 136 174 370q20 51 48.5 113.5t44 93.5t59 116.5t49.5 98.5q7 14 19 43.5t18 42.5q10 21 20.5 26t40.5 3h82q15 0 21 -5.5t2 -17t-8 -18.5t-13 -21q-94 -133 -194 -360q-21 -45 -67 -149t-71 -158q-21 -47 -64.5 -133.5t-49.5 -98.5 l-84 -178q-16 -37 -51 -35q-8 1 -64 -4q-40 0 -47 21zM236 -53q6 17 17.5 50t21.5 58t20 47q24 55 74.5 158t56.5 115q21 44 59.5 126.5t72 153.5t65.5 136q51 101 90 172q13 25 45 79q13 27 26 33q5 3 14.5 1t14.5 -7q11 -7 6 -25q-1 -4 -3.5 -7.5t-6 -7t-4.5 -5.5 q-22 -42 -68 -129t-73.5 -139t-65 -127.5t-66.5 -139.5l-145 -315l-39 -78q-5 -12 -18 -40t-21.5 -49.5t-13.5 -41.5q-10 -38 -35 -54.5t-65 -21.5q-17 -3 -107 -8q-18 -5 -25 0q-15 11 -18 25q-1 3 5.5 9.5t12.5 8.5q15 6 54 10z" />
<glyph unicode="0" horiz-adv-x="1069" d="M477 -41q-91 6 -165.5 42t-123.5 91t-82.5 127.5t-48 149t-14.5 157.5q0 99 27 206.5t77.5 205.5t136 161.5t189.5 63.5q131 0 212.5 -60t139.5 -173q40 -84 53 -172t13 -203q0 -90 -28.5 -191t-79 -191.5t-131.5 -151t-175 -62.5zM766 555q0 93 -15.5 180t-46.5 163 t-86.5 121.5t-128.5 45.5q-71 0 -129 -32.5t-94.5 -83.5t-61 -117.5t-34.5 -130.5t-10 -126q0 -68 7 -133t28 -136.5t53.5 -124t88.5 -85t128 -28.5q68 3 121.5 36.5t86.5 82.5t54.5 114.5t30 127.5t8.5 126zM872 987q8 -1 15.5 -3t13 -6t9 -7t7.5 -9.5t5.5 -9t5 -10 t4.5 -8.5q56 -111 76 -194.5t20 -202.5q0 -91 -10.5 -169t-37 -161t-80 -156.5t-130.5 -128.5q-162 -112 -319 -76q-44 8 -81 28.5t-54 39t-17 27.5q0 7 2 10t6.5 1t9 -4.5t12.5 -7.5t15 -8q3 -1 15.5 -7t22 -10t25 -9t34.5 -7.5t40 -2.5q61 0 129 22q65 22 139.5 86.5 t106.5 120.5q105 175 98 407q-1 38 -5 76.5t-13.5 102t-11.5 80.5q-2 16 -6.5 32.5t-12 38.5t-10.5 31q-3 10 -9.5 28t-10 33.5t-3.5 32.5zM455 109q-54 0 -97.5 34.5t-70.5 86.5t-45 116t-25 119.5t-6 99.5q0 45 6 82q10 63 19.5 104t32 97t55.5 96q37 46 83 65.5t88.5 12 t80 -34.5t59.5 -69q4 -8 4 -15q0 -17 -4 -20q-7 -7 -21 2q-27 17 -43 33q-51 48 -118 22q-110 -41 -150 -162q-36 -119 -39 -160q-9 -121 24 -239t107 -193q17 -17 60 -34q18 -7 27.5 -17t2.5 -18t-30 -8z" />
<glyph unicode="1" horiz-adv-x="811" d="M84 713q-88 10 12 159q17 26 75 109.5t87 130.5q18 26 51 31q65 10 117 -6q35 -10 35 -52q-4 -86 -4 -127q0 -42 2 -125t2 -124q-4 -336 -4 -500q0 -24 4 -98l127 -7q76 0 76 -34q0 -53 -8 -66.5t-50 -13.5q-281 0 -416 2q-17 0 -24.5 0.5t-17.5 6t-13 17.5q-4 26 8 80 q1 4 14 8.5t23 4.5h144v876l-21 -18q-80 -104 -123 -164q-6 -8 -15.5 -21.5t-13.5 -19t-11.5 -14.5t-11.5 -13t-10 -9.5t-10.5 -7.5t-10.5 -3.5t-13 -1.5zM535 145q-18 0 -23.5 7.5t-5.5 23.5q0 7 2 47t2 60q0 411 -4 604v108q3 53 15 53q7 1 18 -12q6 -7 9.5 -15.5t5 -21 t2 -18t0 -22.5t-0.5 -19q-2 -23 -2 -72v-30q0 -14 -1 -80t0 -107t5 -82q9 -123 2 -268v-131q0 -13 -8 -19t-16 -6zM700 -59l13 120q3 18 12.5 21t32.5 -6q8 -70 10 -103q-1 -10 0.5 -13.5t-2 -13t-4 -12.5t-5.5 -12t-6.5 -12t-6.5 -11.5t-7 -11.5q-7 -10 -35 -10 q-46 -1 -137 -1t-137 -1q-15 0 -88.5 1t-77.5 1q-11 0 -34 8.5t-35 20.5q-8 8 6.5 15t25.5 7l420 4q10 0 29 4t26 5zM172 741q70 90 90 107q14 12 25 -10q6 -11 1 -25.5t-16 -26.5q-81 -105 -102 -129q-11 -14 -29 -2q-26 19 31 86z" />
<glyph unicode="2" horiz-adv-x="970" d="M276 113q60 1 203 -3.5t205 -3.5q0 7 6 136v11.5v10t0.5 7t1 5.5t2 3.5t3.5 3t5 1.5t7 1h10q36 4 55 4q14 0 24 -9t11 -24q0 -37 1 -109.5t1 -109.5q0 -20 -16.5 -35.5t-38.5 -15.5q-41 0 -123 1t-123 1q-14 1 -38.5 2.5t-44.5 2.5t-38 1l-295 4q-8 0 -19 5t-12 11 q0 1 -3 13t-3.5 18t-1.5 16t1 17.5t7 13.5q31 35 66 66q31 33 152.5 143.5t209.5 204.5t121 164q18 43 26.5 104t0 123.5t-36.5 95.5q-53 62 -147.5 81.5t-171.5 -19.5q-48 -25 -72.5 -64.5t-22.5 -75.5q0 -21 1 -52t1 -52q2 -45 -9 -60t-52 -12l-37 2q-32 3 -42 16t-7 46 q2 8 2 22q-16 104 39 209q21 40 59 70q42 33 93 55q125 61 280 21q120 -33 199 -127q37 -46 53 -109q28 -105 -2 -231q-26 -118 -94 -197q-46 -51 -152.5 -154.5t-152.5 -154.5q-7 -8 -17 -16t-23.5 -18t-19.5 -15l-35 -33q4 -8 4 -12zM909 -125q-297 -20 -778 6 q-24 0 -25 20q-2 21 20 29q7 2 15 2h248q26 0 109.5 -3t110 -2.5t110.5 3.5h151v133q0 25 -1 74t-1 72q0 29 9 53q1 6 9 12.5t13 6.5q6 0 14 -6.5t11 -12.5q4 -8 4 -29v-274q0 -25 -5.5 -54.5t-13.5 -29.5zM897 813q-5 -225 -199 -444q-25 -30 -56.5 -62t-72.5 -70.5 t-61 -58.5l-6 -6q-3 -1 -11 -5t-12 -5.5t-10 -3t-11 1t-9 8.5q-19 23 16 49q16 15 44 43t51.5 50.5t45.5 41.5q135 126 195 273q21 52 24 92q1 16 4 45t5 48t1 45t-6 48l-12 51q0 19 8 23q16 5 25 -4q38 -44 47 -160zM526 932q-29 36 -82 39q-37 2 -82 -14.5t-55 -43.5 q-9 -20 -12 -47v-204q0 -16 -4 -20.5t-36 -8.5t-110 -4q-7 0 -21.5 1t-21.5 1h-20q-31 7 -31 33q0 24 31 24q17 1 39 1t39 1h65q0 11 1.5 52.5t0.5 62.5q-3 85 27 147q18 36 64.5 57t84.5 23q32 3 72 -13t62 -40q10 -11 14.5 -21t-1 -18t-24.5 -8z" />
<glyph unicode="3" horiz-adv-x="972" d="M92 858q20 94 21 96q68 173 206 220q91 29 168 26q156 -4 241.5 -92t82.5 -238q0 -26 -6 -53q-28 -133 -156 -221q-2 -1 -8.5 -5t-11.5 -7q9 -7 23.5 -19.5t23 -19.5t21 -16.5t24.5 -16.5q119 -78 90 -242q-29 -174 -205 -272q-110 -59 -272 -35q-153 22 -264 96 q-23 15 -27 28.5t8 41.5q23 52 38.5 56t62.5 -29q126 -89 254 -86q107 0 194.5 66.5t87.5 166.5q0 50 -24 80q-16 23 -35.5 40.5t-42.5 28.5t-42.5 17.5t-48.5 9.5t-46 4t-49 1t-46 1q-31 0 -40 9t-11 38q-2 8 -2 25q-9 73 68 76q10 0 33 1t35.5 1.5t31.5 3t35 6.5 q51 12 86 43q83 69 104 146q32 101 -47 174q-134 128 -305 43q-69 -32 -96 -119q-7 -19 -25 -84q-7 -32 -35 -23q-11 3 -94 33zM813 1092q20 33 41 6q27 -37 41 -58.5t26.5 -58.5t8.5 -72q-11 -170 -96 -260l-25 -35q-22 -30 -21.5 -41t29.5 -32q40 -30 64.5 -66t33.5 -79.5 t11 -68t2 -67.5q0 -100 -71.5 -194.5t-175.5 -149.5t-200 -55q-16 0 -47 -0.5t-50 -1t-45.5 1.5t-47.5 6q-105 17 -174 70q-1 1 -10 7t-11 8.5t-6.5 8t-4 11t4.5 12.5q5 9 12 10.5t12 -1t14 -9t11 -7.5q81 -46 174 -61q28 -4 45 -4q52 0 154 4q46 5 57 10q13 8 59.5 35 t75 46.5t52.5 41.5q37 35 71 95t41 126q15 152 -90 238q-2 2 -8 5t-8 5q-44 34 -46 57.5t32 57.5q103 106 122 229q18 133 -45 211zM242 766q3 8 10 26.5t11.5 32.5t6.5 27q9 85 62.5 136.5t134.5 51.5q67 0 117 -45q11 -8 20 -21t12 -28t-12 -24q-14 7 -36.5 23t-28.5 20 q-48 34 -113 14q-41 -11 -59 -43q-37 -78 -54 -152q-10 -41 -22.5 -55t-48.5 -14q-44 -2 -133 37q-31 17 -23 43q3 11 19 14.5t28 -6.5q11 -9 25.5 -15t24.5 -9t30 -7t29 -6zM635 260q-8 0 -15.5 7t-9.5 14q-25 69 -118 90l-95 16q-28 5 -37 10q-6 3 -12 11t-6 14t8.5 13 t14.5 7q61 5 117.5 -5t104.5 -45.5t60 -92.5q5 -13 1 -26t-13 -13z" />
<glyph unicode="4" horiz-adv-x="1159" d="M1030 500q4 -59 2 -84q-3 -35 -49 -35l-205 6h-33q-8 -36 -8 -51q-2 -59 -2 -178q0 -27 9.5 -36.5t35.5 -8.5q14 1 57 4.5t66 3.5q34 2 45.5 -9t14.5 -46q1 -10 1 -21.5t-0.5 -27t-0.5 -25.5q-7 -1 -30.5 -3.5t-35.5 -2.5q-35 1 -104.5 5t-104.5 5q-32 2 -67.5 3t-78 1.5 t-65.5 1.5q-27 0 -39 -2q-22 -5 -28.5 0.5t-6.5 28.5v39q0 67 64 61q37 -4 111 -8q2 0 22 4l18 260q-5 1 -38.5 6t-51.5 6q-23 1 -94 1.5t-110 2.5q-93 2 -244 17q-26 3 -33 12t-4 35q7 49 29 76q22 31 114 137l201 242q20 24 72.5 84t79.5 94q21 24 38.5 34t45.5 3 q15 -3 32 -3t38 1.5t32 1.5q28 0 37.5 -12t3.5 -38q-15 -55 -19 -123.5t-1.5 -123.5t-0.5 -123l-6 -166q0 -29 8.5 -37t38.5 -8q32 0 97 1t96 1zM233 524q30 -6 59 -8.5t74.5 -3t55.5 -0.5h188q7 31 6.5 237t-8.5 234q-41 -31 -199 -224t-176 -235zM1012 -63q-8 58 -8 69 q0 31 10 64q0 3 6.5 6.5t11.5 3.5q4 0 10.5 -4.5t6.5 -7.5q1 -13 6.5 -52t5 -65t-9.5 -51t-45 -21l-129 17h-31q-45 -15 -101.5 -16t-103.5 5q-24 3 -50.5 3.5t-63.5 -0.5t-52 -1q-40 0 -53 41q39 17 41 17q17 2 49 -2q46 -1 137.5 -5.5t136.5 -5.5q36 0 110.5 2.5 t115.5 2.5zM784 322q30 11 67 15t58 3.5t71 -5t62 -5.5q20 26 22 83.5t13 82.5q22 -11 23 -15q9 -35 12 -71q2 -10 2.5 -31t1.5 -27q6 -34 -10.5 -54t-48.5 -17q-13 0 -40 4t-42 4q-43 2 -135 2l4 -60q0 -32 -2 -38q-4 -34 -37 -31q-21 5 -21 35v125zM774 668q15 183 17 223 q2 9 -3 33v141q0 3 5 10.5t6 11.5q11 30 37 23q21 -6 14 -39q-2 -7 -2 -49q-5 -132 -8 -148q-4 -30 -5.5 -68t-0.5 -68t0 -68q0 -33 -11 -86q0 -6 -7.5 -14.5t-10.5 -6.5q-8 2 -17 9t-10 14v82h-4zM82 350q170 -8 237 -10l191 -4h10q49 0 49 -29q-2 -14 -17.5 -24t-35.5 -9 q-65 3 -125 9l-121 8l-155 10q-25 1 -29 7.5t-4 41.5zM584 829q-10 -15 -11 -16l-180 -225q-11 -17 -16 -17q-26 -5 -35 2q-6 6 -6 35l4 8l190 232q9 12 22.5 11.5t22.5 -11.5q5 -8 9 -19z" />
<glyph unicode="5" horiz-adv-x="954" d="M227 725q55 10 128.5 11t154 -11t127.5 -39q92 -49 137.5 -137t40.5 -199q-9 -165 -119 -270t-280 -105q-126 0 -281 84q-43 19 -76 45q-29 22 -8 56q36 61 94 82q11 -9 35 -32t42.5 -37t37.5 -23q85 -40 170 -52q90 -10 158 41q60 44 78 105q30 123 12 198 q-8 42 -53 82.5t-93 59.5q-108 39 -190 32q-82 -8 -121 -24q-35 -16 -92 4q-31 10 -27 63v127q0 16 -1 47t-1 46q0 31 -1 95t-1 95q0 29 19.5 47.5t50.5 18.5q13 0 40 -3.5t42 -3.5q21 0 91 4t108 1q37 -2 105.5 2.5t100.5 3.5q6 0 19.5 1t19.5 1h17h14t11 0.5t9 0t6.5 -1 t5.5 -2t3.5 -3.5t2 -4.5t1 -6t0.5 -8.5q0 -15 -3 -48.5t-3 -45.5q-1 -26 -9.5 -30.5t-37.5 -2.5q-13 1 -37 3t-43.5 3t-36.5 0q-215 -4 -332 -10q-4 0 -14.5 1t-16.5 1q0 -27 -2 -121.5t-2 -140.5zM872 469q36 -22 39 -78q7 -91 -32 -201q-123 -313 -471 -313 q-124 0 -238 57l-70 35q-24 12 -26 15q-2 1 -7 5l-7.5 6t-6 6.5t-4.5 8t-1 8t3 9.5q4 7 10.5 8.5t11 0.5t13.5 -5.5t12 -5.5q117 -57 168 -78q68 -29 144 -29q112 0 208.5 45.5t147.5 128.5q51 82 72 150q18 66 18 149v9.5v14.5v16.5t1 16.5t3 13.5t5 8t7 -0.5zM784 944 l19 127q1 10 3 16.5t8 12t15 4.5q16 -1 23 -13t4 -28q-1 -6 -3.5 -34t-5 -39t-9.5 -31t-19 -35q-20 -29 -55 -29q-51 0 -154.5 -2t-154.5 -2t-76 2q-36 2 -46 -8t-9 -43q2 -28 -5.5 -48.5t-29.5 -15.5q-16 4 -19.5 17t-3.5 55q0 56 6 74t27 18h401q68 0 84 2zM170 518 q-2 9 25 27q93 47 204.5 35.5t190.5 -78.5q25 -21 39 -58.5t12 -74.5q0 -7 -4.5 -16t-9.5 -11q-21 -6 -27 20q-13 49 -48.5 86t-80.5 52q-130 45 -238 6q-15 -8 -37.5 -7t-25.5 19z" />
<glyph unicode="6" horiz-adv-x="968" d="M778 123q-55 -94 -128 -138t-191 -44q-89 6 -149 24t-107 72q-104 115 -134.5 236t-17.5 302q6 92 50 195t111 189.5t161 145t190 62.5q137 4 209 -53q28 -22 39.5 -45t9.5 -36t-8 -23q-18 -31 -60.5 -31t-68.5 27q-74 71 -164 49q-51 -12 -94 -37.5t-78 -64.5 t-60.5 -76.5t-54.5 -90.5q-13 -24 -20.5 -42t-10 -29t-7.5 -37l55 12q152 33 276 6q112 -25 176 -106q110 -139 115 -279q0 -116 -39 -188zM172 535q-6 -75 6.5 -157.5t43 -159t90.5 -126t139 -49.5q40 0 81 12q122 46 148 168q6 34 6 96q-4 113 -33 152q-93 142 -229 131 q-90 0 -225 -43q-24 -10 -27 -24zM928 252q4 -186 -115.5 -298t-316.5 -112q-117 0 -213 52q-13 7 -18.5 20.5t9.5 22.5q15 2 20.5 1.5t23.5 -7t24 -7.5q92 -32 178 -24q150 15 219 69q75 55 101 119t26 160q0 81 -7 121t-28 100q-3 6 -14 57q27 21 41 -4q0 -1 7 -13.5 t10 -18t10 -20t10.5 -25.5t9.5 -28t9.5 -34t7 -38t5 -44.5t1.5 -48.5zM416 166q11 -13 10 -28.5t-10.5 -21t-24.5 0.5q-49 27 -82 63q-52 54 -75.5 114t-32.5 163q-14 43 37 61q136 56 235 23q50 -13 109 -72q65 -69 65 -135q0 -30 -5 -45t-19 -4q-10 8 -17 14.5t-11.5 11 t-8 13t-5 13t-5.5 17.5t-7 21q-36 91 -104 114q-92 33 -209 -24q19 -81 25 -123q16 -90 106 -156zM752 932q31 -14 53 8l45 49q11 11 23.5 8t15 -14.5t-7.5 -24.5l-52 -55q-32 -34 -65 -32t-92 40q-71 49 -72 50q-29 16 -62 13.5t-57 -20.5q-29 -23 -106 -100 q-38 -38 -41 -92q-1 -17 -9.5 -22.5t-27.5 -2.5t-27 14.5t-2 26.5q33 94 92 150q16 15 89 69q37 30 86.5 32.5t89.5 -21.5q19 -10 60 -37.5t67 -38.5z" />
<glyph unicode="7" horiz-adv-x="1105" d="M819 1014h-258l-254 6q-16 -96 -16 -260q0 -18 -30.5 -24.5t-61.5 -2.5q-34 3 -31 43q0 14 2 43t2 45q1 33 1 99.5t1 99.5q0 53 20 67.5t76 8.5q51 -6 156 -6q225 -9 303 -9q21 0 193 11q44 3 58.5 -9t8.5 -45q-11 -69 -59 -133q-52 -69 -184 -246t-207 -274 q-10 -12 -63 -78t-81 -102q-12 -15 -32 -43l-25 -35l-127 -162q-17 -21 -54 -29t-61 3q-33 13 -12 43q8 11 26.5 33.5t26.5 33.5q110 139 168 217q26 34 71 98.5t60 84.5q164 214 195 256zM129 -104q-35 0 -47 22q-10 18 10 24q2 1 4 1q7 2 16 2t20.5 -1t17.5 -1 q85 -3 131 57q43 55 127.5 162t151 193.5t122.5 164.5q32 49 100 136t95 126q5 7 116 158q13 23 19 49q4 24 8 72q2 18 7 19.5t18 -8.5q12 -8 20 -13q-3 -49 -10 -98q-1 -10 -21 -39q-82 -117 -168 -234q-86 -114 -497 -645l-86 -104q-46 -53 -154 -43zM711 952 q-4 -12 -17 -17.5t-23.5 -6t-35.5 -0.5h-205q-37 0 -37 -13q0 -1 -6 -112q-1 -10 -1.5 -32.5t-2 -34.5t-4.5 -28t-10.5 -26.5t-18.5 -17.5q-14 -7 -51.5 -9.5t-69.5 0.5t-32 9q-24 24 7 33q27 7 122 10q4 20 4 32q5 59 14 195q3 43 53 43q27 0 81 -1t81 -1q43 0 84 2 q3 0 17 0.5t21 0t17 -2.5t13 -8t0 -15z" />
<glyph unicode="8" horiz-adv-x="888" d="M283 602q-79 79 -121.5 148t-42.5 157q0 95 89.5 165.5t190.5 70.5q62 0 114.5 -12t103 -49t71.5 -97q31 -89 -7 -178.5t-110 -151.5q-21 -19 -94 -80q68 -55 90 -69q86 -58 142 -166q24 -49 24 -96q0 -87 -54.5 -151.5t-134 -93.5t-167.5 -26q-73 0 -149.5 36 t-130.5 104t-54 147q0 167 240 342zM389 528q-109 -76 -141 -107q-66 -65 -66 -142q0 -101 63 -150t171 -49q53 -1 103 30.5t72 86t-13 127.5q-30 57 -75.5 104t-113.5 100zM223 891q0 -65 35.5 -112.5t93.5 -90.5q33 -24 45 -25t45 17q48 28 100 89t52 110 q0 61 -59.5 117.5t-128.5 56.5q-28 0 -58 -9q-52 -13 -89 -55t-36 -98zM737 1042q24 -15 38 -32.5t20 -41t7 -39t1 -44.5q0 -67 -17 -119q-21 -52 -65 -96q-23 -23 -111 -92q14 -12 55 -45t62 -52q58 -58 88.5 -116t30.5 -132q0 -96 -69 -183.5t-171 -137t-203 -49.5 q-93 0 -159 31q-37 18 -70 48t-33 44q3 4 6 6t5.5 3.5t5.5 1t4.5 -1t5 -2.5t4.5 -2.5t4 -3.5l4 -3q76 -65 230 -68q139 3 252 88.5t126 216.5q8 87 -63 180t-152 144q-28 19 -26 41t31 41q10 7 32.5 22t38 26.5t27.5 24.5q70 73 76 174q3 70 -21 138q-1 3 0 7t3 10.5t3 12.5 zM504 342q-22 -1 -38.5 11.5t-32 30t-30.5 24.5q-79 -51 -81 -52q-48 -36 -41 -114q3 -44 49 -54l84 -16q1 -9 -1 -15.5t-7.5 -10t-9 -5t-11.5 -2.5t-10 -2q-54 -11 -99.5 16.5t-54.5 79.5q-14 93 43 150q30 33 84 66q61 39 103 -19q3 -3 19.5 -23t23.5 -33.5t10 -31.5z M432 750q-15 -32 -26.5 -35t-34.5 16q-75 62 -103 123q-12 26 -10.5 46.5t18.5 43.5q37 54 96 65.5t109 -26.5q33 -25 17 -55q-62 21 -86 28q-32 8 -61.5 -8t-35.5 -45q-8 -24 7 -39q35 -39 110 -114z" />
<glyph unicode="9" horiz-adv-x="931" d="M604 545q-84 -13 -231 14q-84 15 -181.5 105.5t-97.5 183.5q0 145 94 245.5t238 100.5q133 0 216.5 -68t113.5 -176q34 -137 24 -243q-25 -210 -178 -451q-46 -71 -139 -150q-35 -29 -82 -55.5t-79.5 -40.5t-92.5 -37q-34 -12 -49 -4t-29 43q-25 67 -29 82q-1 6 3.5 15.5 t9.5 11.5q37 9 75 12q13 1 25.5 3t27 6.5t23 7.5t26 10.5t23.5 9.5q47 20 123 88q104 89 166 270v17zM662 674q0 15 -0.5 50.5t-1 53.5t-3 45.5t-8 51t-14.5 45.5q-33 86 -94.5 129t-147.5 36q-74 -7 -128 -71.5t-54 -143.5q0 -97 80.5 -155t183.5 -60q27 -1 55.5 1.5t72 9 t59.5 8.5zM829 438q-58 -125 -116 -213t-135 -163t-177 -125t-231 -82q-74 -15 -96 57q-7 29 -25 74q0 1 -2 5t-2.5 5.5t-1.5 5t-1 5v4.5t1 5t3 4.5t5 4.5q21 14 39 -17q7 -13 35 -80q71 -14 145 17q71 33 109.5 53t96 60t91.5 83q68 84 102.5 132t71.5 116t55.5 140.5 t28.5 168.5q16 154 -28 285l-25 84q31 14 45 -14q52 -86 60 -164q17 -151 8 -215q-20 -157 -56 -236zM195 584q16 0 22 -6q68 -80 285 -80q12 0 25.5 -7.5t13.5 -19.5q0 -31 -47 -31q-79 0 -163.5 25.5t-133.5 77.5q-9 9 -10.5 24t8.5 17zM588 915q9 -25 -5 -35t-34 11 q-23 50 -78 80q-28 13 -61 8.5t-54 -23.5q-18 -18 -23 -55.5t3 -62.5q9 -28 31 -47q16 -13 13 -30q-5 -23 -40 -1q-7 5 -16 12q-35 28 -46 80t9 92q32 73 112 82q66 6 116.5 -24t72.5 -87z" />
<glyph unicode=":" horiz-adv-x="376" d="M236 92q-2 -44 -32 -73.5t-71 -26.5q-45 3 -70.5 37t-19.5 73q6 38 35.5 61.5t75.5 22.5q37 -2 60 -27.5t22 -66.5zM78 618q0 31 29 63t59 32q100 3 100 -99q-2 -46 -29.5 -73.5t-76.5 -28.5q-35 -1 -58.5 30t-23.5 76zM92 -61q0 16 15 20t42.5 4.5t43.5 7.5q50 23 63 72 q2 6 6 70q2 35 11 35q3 0 8 -5q30 -30 30 -80q0 -64 -46.5 -112.5t-112.5 -48.5q-27 0 -43.5 10t-16.5 27zM152 463q8 32 38 35q51 1 79.5 41.5t23.5 97.5q0 4 10 37q23 -35 25 -39q23 -59 -14 -121t-101 -74q-31 -7 -61 23z" />
<glyph unicode=";" horiz-adv-x="407" d="M180 0q-48 0 -93.5 32.5t-45.5 80.5q0 51 33.5 82.5t87.5 31.5q117 -5 117 -182q0 -66 -42.5 -121t-107.5 -59q-35 -3 -49 17t29 38q36 13 51 31t20 49zM289 180q27 15 43 -14q40 -55 33 -148q-6 -82 -57 -148.5t-122 -76.5q-56 -8 -86 39q-1 2 3 3q3 1 14 1q20 0 30 2 q72 12 117 62t53 125q9 62 -20 127q-4 8 -8 28zM78 618q0 31 29 63t59 32q100 3 100 -99q-2 -46 -29.5 -73.5t-76.5 -28.5q-35 -1 -58.5 30t-23.5 76zM152 463q8 32 38 35q51 1 79.5 41.5t23.5 97.5q0 4 10 37q23 -35 25 -39q23 -59 -14 -121t-101 -74q-31 -7 -61 23z" />
<glyph unicode="&#x3c;" horiz-adv-x="647" d="M55 446q164 75 181 84q37 17 108 54.5t78 40.5l8 6q47 24 67 13t25 -64q3 -44 -33 -52q-52 -13 -106 -35.5t-118 -53.5t-101 -46q-2 -1 -4 -2.5t-5.5 -5t-7.5 -6.5q27 -17 46 -25l307 -110q2 -6 2 -15q1 -27 -1 -41.5t-10.5 -23t-25.5 -6.5t-45 14q-117 46 -330 121 q-34 12 -42.5 27.5t-2.5 50.5q4 42 10 75zM522 117l17 86q1 10 2.5 14.5t6 9t11.5 2.5q8 -2 18 -10.5t11 -15.5q1 -25 1.5 -46.5t-9.5 -43.5t-31 -37l-14 -13q-108 19 -244 71.5t-162 86.5q18 16 45 4q22 -7 62 -23t53 -20q107 -41 164 -57q11 -3 69 -8zM258 408 q54 30 72 36q22 10 65.5 26.5t55.5 21.5q38 13 79 36q12 6 17 31q4 50 4 74q0 15 5.5 22t18.5 4q16 -3 25 -22q4 -13 0 -39q0 -6 -1 -17t-1 -20t2 -16q6 -31 2 -38t-37 -26q-12 -7 -71 -26q-15 -6 -85.5 -31t-107.5 -41q-17 -6 -26 -0.5t-17 25.5z" />
<glyph unicode="=" horiz-adv-x="845" d="M266 672q15 0 45 -0.5t54.5 -0.5t46.5 1q3 0 229 18q23 2 33.5 -7t11.5 -34v-39q-3 -35 -39 -35q-61 0 -92 -2l-117 -6q-39 -1 -108 -4t-126 -5t-108 -3q-23 -1 -31 8t-8 33q0 6 1 17.5t1 17.5q3 29 11 35t39 6h157zM657 268q-15 1 -42.5 3t-49.5 3t-41 0 q-78 -2 -248 -10q-8 0 -24.5 -1t-24.5 -1q-12 -1 -51 -1.5t-61 -2.5q-36 -2 -46.5 6t-19.5 43q-11 51 -4.5 59.5t57.5 8.5h441q15 0 42 1t42 1q26 -1 32.5 -9.5t4.5 -35.5zM104 471q10 22 18.5 30t24.5 7q46 0 132 4q143 0 213 2q66 2 204 10q27 3 35.5 12.5t11.5 36.5 l11 89q4 29 28 24t21 -37q-10 -68 -10 -125q0 -20 -7 -29t-26 -10q-86 -8 -131 -8q-315 -8 -465 -10q-4 0 -60 4zM729 336q33 0 41 -7.5t4 -33.5q-2 -10 -5 -28t-6 -32t-7 -26q-9 -25 -16.5 -29t-37.5 -2q-82 7 -151 4q-47 -1 -141.5 -5t-141.5 -5q-51 0 -153 4 q-8 31 -3.5 39.5t27.5 7.5q20 -1 56 -4.5t66 -5.5t56 -2q23 -1 48 0t56 3t48 3q82 4 238 8q20 101 22 111z" />
<glyph unicode="&#x3e;" horiz-adv-x="688" d="M313 457q-17 14 -26 16q-136 50 -203 72q-33 9 -40.5 30.5t13.5 49.5l39 34q144 -64 180 -79q22 -8 105 -27q94 -24 119 -29q30 -8 40.5 -20.5t10.5 -42.5q2 -31 2 -92q3 -40 -37 -50l-82 -28q-194 -76 -303 -139q-1 0 -2 -1t-2 -1q-7 -1 -23.5 -5.5t-22 -5t-18.5 1.5 q-10 3 -14 11t-4 15t2 18.5t2 17.5q0 23 10 35.5t35 21.5q99 35 262 105l123 47q-24 16 -74 27.5t-73 23.5l22 -35q7 -26 -18 -29q-12 -3 -25 0q-44 7 -108 21q-41 6 -47 8q-37 13 -70 33q-4 1 -7.5 10.5t-0.5 11.5q13 13 26 13l191 -43q2 0 4 0.5l6 1.5zM160 125q3 2 13 10 t17 10q100 44 185 78q5 2 44 15t60 22q36 15 84 47q15 12 19 39q6 37 10 111q1 9 2.5 14t6.5 9t13 3q16 -3 27 -22q8 -10 4 -33q0 -9 -2 -28.5t-2 -28.5q3 -45 -18.5 -72.5t-65.5 -58.5q-28 -18 -84 -35t-74 -25l-139 -57q-44 -18 -61 -21q-5 -1 -39 9v14z" />
<glyph unicode="?" horiz-adv-x="747" d="M98 911q-93 40 -32 121q59 79 138.5 116t166.5 17q162 -40 207 -204q30 -109 -19 -216q-11 -23 -23.5 -43.5t-33 -44t-30.5 -34t-39 -39t-34 -33.5q-103 -103 -96 -211q2 -13 2 -22v-16t-3.5 -11t-5 -6t-9 -3t-10.5 -1.5t-14.5 0t-16.5 0.5q-25 0 -38 16t-15.5 32.5 t-2.5 43.5q0 87 56 153q68 84 143 150q100 87 103 207q0 73 -41.5 133.5t-114.5 66.5q-133 11 -182 -125q-15 -41 -30 -48q-11 -5 -26 1zM336 244q4 38 8 102q6 96 84 178q12 11 54.5 49t59.5 55.5t44.5 50t41.5 63.5t19 65q6 67 -4 127.5t-29 75.5q-42 35 -28 63 q7 10 25.5 -1.5t39.5 -36.5t33 -52q30 -77 20 -154.5t-45.5 -141.5t-87.5 -105q-73 -57 -122 -117q-56 -66 -50 -139q0 -5 0.5 -16.5t0.5 -18t-1 -15.5t-4.5 -17.5t-9.5 -16.5q-25 -36 -59 -33q-1 0 -14 -0.5t-19.5 0t-17 2.5t-15 7.5t-4.5 14.5q0 2 1.5 4t4.5 3t5.5 1.5 t6 1.5t5.5 1h57zM422 967q-13 -2 -19.5 -0.5t-20.5 10.5t-17 10q-78 31 -115 -33q-22 -39 -33 -77q-15 -67 -67 -56q-75 20 -87 52q-7 16 9 18q10 1 24 -6q35 -20 54 -25q21 50 45 96q33 71 82.5 86t117.5 -20q10 -5 20.5 -15t15 -21.5t-8.5 -18.5zM348 49q0 -32 -27.5 -54 t-54.5 -22q-34 -1 -59 22.5t-25 53.5q0 34 27 54t63 20t56 -19t20 -55zM381 51q15 15 22 -17q6 -26 0 -50q-24 -86 -106 -86q-58 0 -61 22q-3 23 45 23q64 -6 88 59q1 4 2.5 16t3.5 21t6 12z" />
<glyph unicode="@" horiz-adv-x="1406" d="M856 522q-6 -5 -10 -15t-6 -13q-25 -62 -87 -114t-122 -52q-47 0 -81.5 16t-54 40t-31 60.5t-15 69.5t-3.5 74q0 92 39.5 159t107.5 88t157 -16q8 -5 26.5 -13t26.5 -13q2 25 2 69q3 27 22 42.5t45 15.5q70 0 70 -54q0 -28 -1 -54.5t-2.5 -57t-2.5 -49.5q-7 -74 39 -195 q7 -22 25 -35.5t38 -13.5q63 0 101.5 64.5t38.5 129.5q0 119 -59 229.5t-162.5 180.5t-221.5 70q-83 0 -163 -35t-142.5 -94t-110 -134t-73 -159t-25.5 -164q0 -96 46.5 -199.5t120 -186t171.5 -136.5t193 -54q236 0 358 125q5 5 17.5 18.5t20.5 21.5t20 16t24 10 q27 6 36.5 -13t-3.5 -47q-91 -123 -207 -170t-281 -47q-134 0 -266.5 72t-206.5 197q-119 180 -119 366q0 130 41.5 251t116 215.5t188 151t246.5 56.5q148 0 264.5 -71t180 -196t63.5 -280q0 -95 -62 -177.5t-151 -82.5q-114 -3 -164 103q0 1 -4 12t-8 18zM567 104 q-3 -10 -10 -13.5t-17 0t-20 9t-20 14t-16.5 14t-10.5 9.5q-68 68 -126.5 166.5t-70.5 194.5q-2 14 -2 43q0 217 121 370q49 74 156 126.5t192 52.5q75 0 149.5 -38t123.5 -87q15 -11 16 -24t-12 -19q-8 -7 -19.5 -3.5t-19.5 11.5q-90 63 -126 80q-53 24 -110 24 q-164 0 -282 -127q-127 -150 -127 -362q0 -56 8 -103q18 -112 96 -196q25 -27 49.5 -51.5t38 -36.5t24 -23t14 -17.5t1.5 -13.5zM1176 1053q3 28 49 -17q33 -32 45 -57q28 -54 46.5 -127.5t18.5 -142.5v-43q0 -67 -5 -111.5t-20.5 -92.5t-49 -83.5t-86.5 -61.5 q-42 -28 -127 -32q-113 -7 -177 43q-17 -14 -45 -34t-34 -24q-50 -39 -91.5 -44t-97.5 22q-62 31 -28 39q25 5 59 -2q21 -1 34.5 -2t33 7t31.5 13.5t30 18t29 20.5t27 21t26 20q14 11 31 11t24 -11q51 -71 231 -25q88 24 130 140q21 79 24 159q0 72 -15 160t-32 119 q-7 12 -24.5 38t-27 44.5t-9.5 34.5zM256 88q178 -242 471 -254q121 -5 241.5 36t207.5 118l8 10q26 30 49 4q12 -19 -14 -41q-90 -86 -212 -135t-243 -49q-77 0 -153.5 14t-149 43t-132.5 79t-93 116q-36 76 -24 97q9 16 34 -22q5 -7 10 -16zM684 444q20 10 29 19 q51 46 84 143q5 13 0 33q-60 88 -135 98q-20 6 -40.5 -3t-31.5 -27q-53 -87 -31 -193q10 -49 45 -66.5t80 -3.5zM1081 506q0 -15 -16.5 -15.5t-36.5 13.5q-22 17 -36.5 68.5t-14.5 115.5q0 98 6.5 140t26.5 42q29 0 26 -73q-6 -62 -5 -132.5t18 -107.5q4 -10 18 -25.5 t14 -25.5zM664 649q-2 -1 -6.5 -3.5t-6 -3t-5 -3t-4.5 -3.5l-4 -4t-3.5 -5.5t-2 -6t-2 -8t-1 -10t-0.5 -12.5q0 -21 11.5 -40t22 -30.5t9.5 -15.5q-11 -19 -29 -13t-33 27q-21 34 -21 77.5t21 74.5q9 16 27.5 23.5t36.5 4.5q20 -4 35.5 -16t15.5 -23t-6.5 -13t-15.5 1 t-19.5 4t-19.5 -2z" />
<glyph unicode="A" horiz-adv-x="1916" d="M1788 94q0 -6 0.5 -23t0 -27.5t-1 -24t-3 -22.5t-6.5 -13q-36 -4 -109.5 -2.5t-228.5 6t-228 4.5q-21 26 -4 92q10 40 60 27q51 -15 155 0q-22 55 -28 67q-11 23 -34 54t-32 47q-16 36 -61 36q-40 0 -113 4t-100 5q-191 7 -316 0q-38 0 -108.5 -3t-87.5 -4 q-17 -35 -51.5 -93t-53.5 -95q50 -4 64 -4q88 0 133 2q39 0 45 -29q6 -33 -4 -88q-4 -8 -31 -8q-57 -2 -174 -2l-340 4q-7 0 -22.5 -3t-22.5 -3q-38 0 -43 31q-5 29 2 54t25 32q2 0 5.5 1t4.5 1l219 6q45 48 80 113l147 276q15 25 38.5 71.5t29.5 57.5l149 291 q21 39 58 113.5t51 101.5q7 11 16 14q13 7 41.5 10.5t63.5 -1.5t55 -21q25 -22 37 -45q9 -20 34 -77t40 -87q33 -73 99.5 -205t90.5 -184q28 -61 90.5 -178.5t89.5 -173.5q5 -12 16.5 -27.5t16.5 -28.5q15 -37 57 -37q123 7 168 7q4 0 12.5 -6t8.5 -13zM1253 434 q-57 101 -152 307t-159 314q-59 -91 -113.5 -192t-118 -227.5t-102.5 -199.5q29 -4 59.5 -6t51 -1.5t53.5 1t51 0.5h219q21 0 66 -1t76.5 -0.5t68.5 5.5zM1145 1085q23 -11 36 -26t25 -39q49 -89 131 -249t121 -234q34 -62 86.5 -183t83.5 -178q13 -29 -4 -35q-21 -7 -37 21 q-31 57 -78 158t-69 143q-44 83 -141 278t-154 297q-22 44 -9 49q3 1 9 -2zM961 225q-50 1 -287 -4q-6 0 -17.5 -1t-17.5 -1q-43 0 -57 -37l-7.5 -18t-12 -12t-21.5 -2q-10 3 -12 20.5t6 36.5l18 39q13 22 57 22h625q3 0 12.5 0.5t15 0.5t12.5 -2t10.5 -7t4.5 -14 q1 -12 -6 -18.5t-13.5 -7.5t-19.5 -1q-93 0 -182 3t-108 3zM117 -57q-16 14 17 17q5 1 11 1h201q24 0 71 -1t70 -1q86 -3 172 0q42 0 62 2q0 82 4 109q1 13 10 21.5t15 2.5q20 -20 26 -43q3 -53 0 -106q-3 -31 -35 -31q-260 0 -389 2q-48 0 -174 4q-37 4 -61 23zM1819 -53 q1 12 -2.5 44.5t-2.5 56.5t13 28q9 3 15.5 3t11 -1.5t8 -7t5 -9t3 -12t1.5 -13t1 -13.5q0 -9 1 -29t1 -29q3 -38 -7 -48.5t-48 -12.5q-33 0 -98.5 -1t-98.5 -1h-291q-35 4 -57 26q-6 6 -4 13.5t10 7.5q36 0 97 -1t83 -1q47 0 135.5 -2t116.5 -2q72 0 107 4zM961 932 q0 -4 -1 -9t-3 -10t-3 -8q-30 -76 -98 -202t-92 -177l-21 -47q-7 -20 -36 -20q-26 0 -19 26l45 80q69 119 150 295l39 78q0 1 3 5.5l5 7.5t5.5 6.5t6.5 3t6 -4.5q13 -13 13 -24z" />
<glyph unicode="B" horiz-adv-x="1247" d="M897 618q17 -14 29 -20q58 -14 90 -54.5t49 -103.5q28 -116 14 -196q-11 -49 -41 -92q-94 -120 -250 -148q-35 -6 -102 -6q-285 0 -385 2h-199q-10 62 -10 74q-1 24 13.5 37.5t39.5 11.5l179 -6q2 23 2 53v119q0 42 -1 127t-1 127q-5 153 -5 186q0 48 1.5 143.5 t1.5 143.5q0 3 -2 10.5t-3 11.5q-29 6 -64 6t-76 -3t-62 -3q-7 0 -17.5 -1t-15 -1h-12.5t-9.5 2t-6.5 5.5t-4 9t-2 14t1 20.5q1 11 -8 76h207q50 0 191.5 -1t191.5 -1q41 0 82 -6q24 -3 52 -7t61 -9.5l51 -8.5q55 -7 106 -65q69 -79 78 -178q7 -61 -15 -109t-67 -102 q-8 -10 -20 -19t-33.5 -21.5t-28.5 -17.5zM455 543q-11 -129 -11 -146q-2 -82 2 -245q0 -24 6.5 -30.5t30.5 -6.5q231 7 289 10q110 3 176 121q17 27 17 59q1 70 -46.5 135.5t-113.5 85.5q-46 15 -76 17q-28 1 -79.5 1t-113.5 -0.5t-81 -0.5zM446 655q76 0 91 -2 q84 -8 191.5 17.5t166.5 72.5q42 34 66 101q26 73 -37 123q-87 73 -176 73q-111 3 -295 -2q-1 0 -9 -4q-9 -50 -8.5 -196.5t10.5 -182.5zM1053 1063q56 -24 90.5 -70.5t34.5 -105.5q0 -41 -11 -91.5t-26 -76.5q-6 -10 -15.5 -20.5t-25 -25t-19.5 -18.5q-3 -5 -10.5 -10.5 t-9.5 -7.5q1 -3 1 -7t1 -5q29 -25 52.5 -61.5t33.5 -58t29.5 -77t23.5 -66.5q4 -10 4 -34q-9 -215 -176 -334q-68 -48 -186 -66q-85 -13 -193 -17t-264.5 -2.5t-193.5 1.5q-8 0 -48 10q8 37 56 37q32 0 95.5 -1t94.5 -1h260h43q118 8 198.5 34.5t168.5 98.5q8 6 20 23t13 18 q111 135 39 293q-16 41 -46 102q-24 49 -69 80q-19 14 -23.5 21.5t0 14.5t23.5 19q123 89 106 269q-1 10 -6.5 21.5t-10.5 19.5t-13.5 20.5t-12.5 18.5q-10 18 -39 47q-15 12 -4 11q5 0 15 -3zM891 338q-3 2 -9 5.5t-10 6t-8 6t-6 6.5q-4 7 -10.5 20.5t-11 21t-14 16.5 t-21.5 14q-32 11 -80.5 21t-101 13t-68.5 -15q-6 -8 -9.5 -17t-5 -23t-2 -19.5t0 -24.5t0.5 -21l-5 -162q0 -30 -22 -30q-12 0 -19.5 8.5t-7.5 21.5q0 39 4 121q0 95 2 142q0 37 50.5 52t103.5 11q12 -2 41.5 -5.5t42 -5t36 -7t38 -12.5t33.5 -19.5t36 -28.5q23 -22 28 -43 t-5 -53zM532 975q-8 -206 -10 -279h-39q-12 79 -8 201q4 40 4 64q0 57 51 57q12 0 55 -1t74.5 -2t69 -4t57.5 -7q82 -18 107 -86q1 -6 0.5 -10t-3 -12t-3.5 -11q-25 6 -29 10q-41 65 -131 72q-9 1 -89.5 3.5t-105.5 4.5zM281 989q0 -3 0.5 -10.5t0.5 -12.5t-0.5 -10.5t-3 -8 t-6.5 -1.5q-17 3 -67.5 2.5t-67.5 3.5q-10 2 -28 12.5t-19 18.5q-20 23 43 21q6 -1 35 -3q21 -3 38 -1t38.5 0t36.5 -11z" />
<glyph unicode="C" horiz-adv-x="1079" d="M793 367q-6 13 10.5 31t46.5 18h7q17 0 26 -0.5t21 -2.5t18 -7.5t8 -14.5q12 -75 14 -110q4 -22 -8 -41q-51 -75 -62 -86q-119 -143 -294 -164q-111 -16 -205 16q-83 35 -157.5 109.5t-115.5 163.5q-70 153 -57 364q10 152 105 328q32 57 96 96q12 6 38 22.5t42 24.5 q29 15 69 29l21 4q141 72 309 -14q11 -6 42 -19t50.5 -26t32.5 -33q2 -4 17 -24.5t18.5 -26.5t13.5 -24t13 -28.5t6 -27.5t2 -33q-1 -25 -0.5 -37.5t3 -38t3.5 -39.5q-53 -9 -119 0q-31 7 -31 39q2 1 1 62t-1 67q-53 33 -85 51.5t-87 36.5t-98 12q-49 -5 -113 -26 q-77 -23 -137 -111q-103 -140 -90 -332q9 -136 39 -210.5t119 -174.5q27 -34 71 -47q119 -45 205 -26q30 7 68 32t63 52q40 40 58 78.5t4 87.5zM729 926q0 -21 -5 -32.5t-17 -2.5q-90 72 -191 72q-55 0 -129.5 -56.5t-89.5 -109.5q-19 -76 -25 -144q-6 -64 2 -130t30.5 -132 t72 -116t119.5 -68q4 -1 24 -4t27.5 -5t21 -8t23.5 -16q14 -14 -16 -17h-6q-7 -1 -9 -1q-64 -4 -104 16q-46 23 -82 51q-79 62 -113 150t-39 217v67q2 76 37.5 153.5t105 135.5t154.5 64q35 3 54 -0.5t59 -18.5q96 -39 96 -65zM979 379q13 -13 25 -32.5t14 -27.5 q12 -47 10.5 -90.5t-27.5 -81.5q-67 -98 -131 -135q-169 -92 -284 -110q-64 -13 -146 14q-49 16 -75 61q2 1 9.5 -2t18.5 -7.5t17 -6.5q82 -16 208 -4q92 10 197 76q116 70 162 229q7 22 -2 84q-6 35 0 36q1 0 4 -3zM973 737q12 19 12.5 44.5t-2.5 45.5q-2 12 -3.5 44.5 t-4.5 48.5q-2 11 -35 88q71 -6 84 -68q8 -29 12 -125q1 -14 1 -30t-0.5 -37t-0.5 -35q-31 -27 -61 -29q-105 -8 -160 -10q-14 0 -21 0.5t-15.5 7t-8.5 18.5q0 27 43 27z" />
<glyph unicode="D" horiz-adv-x="1247" d="M233 1022h-149q-24 -2 -33 5.5t-10 31.5v86q0 11 25 14.5t45 -0.5q18 -3 38 -3.5t49 0.5t42 1q22 0 68 1t69 1h133q193 3 336 -108q123 -91 168 -177l12 -21t13.5 -25.5t9.5 -22.5q32 -109 41 -230q3 -42 -2.5 -74.5t-16.5 -71.5t-16 -71q-10 -70 -47.5 -127t-100.5 -118 q-9 -9 -18.5 -16.5t-23 -15t-21.5 -12t-25.5 -12t-23 -10t-27 -11t-23.5 -9.5q-32 -12 -69.5 -18.5t-64 -7.5t-71 -1.5t-65.5 -1.5q-171 -6 -174 -6q-65 0 -197 8h-22h-16t-8.5 3t-6 10t-2.5 22q-6 24 -6 28q-3 33 10.5 47.5t46.5 14.5h125q13 25 13 86q-5 211 -2 274 q1 25 -3 158v379zM362 113q15 2 44.5 4t44.5 4q110 13 190 20q71 7 131 43t98 90.5t59 120.5t21 135q0 88 -8 131t-41 119q-31 74 -115.5 144.5t-173.5 83.5q-139 20 -241 2q-21 -116 -25 -472.5t16 -424.5zM121 -84q-16 22 -12 24.5t31 0.5h7q38 0 110.5 -1.5t135 -1.5 t121.5 3q156 4 236 28q68 20 141.5 61.5t112.5 92.5q56 63 86 135.5t49 171.5q6 40 7 106t-10.5 141t-37.5 103q-15 16 -13 50q3 24 17 12q55 -55 73.5 -112.5t28.5 -178.5q0 -38 1 -52.5t-3 -44.5t-6.5 -41.5t-9 -43.5t-10.5 -50q-32 -167 -184.5 -290t-373.5 -140l-176 -8 q-22 0 -66 4t-65 4h-52.5t-54 1t-48.5 7.5t-35 18.5zM451 158h-35q-4 12 -4 14v21v729q6 35 10 41q4 14 27 14q11 -1 45.5 -3.5t64 -5.5t45.5 -7q100 -14 177 -99t104 -190q8 -38 9 -101q0 -29 -5 -24q-17 17 -27 39.5t-11 36.5l-1 14q-16 54 -38.5 99.5t-56 88.5t-81.5 69 t-105 30h-98q-1 -4 -4.5 -20.5t-3.5 -24.5q-4 -250 -4 -373q0 -9 0.5 -107.5t-0.5 -107.5q0 -35 -8 -133zM152 924q-10 0 -17.5 1.5t-14 5.5t-9 5.5t-8.5 8t-7 7.5q-20 20 20 25q19 2 40 0q12 -1 18.5 -2.5t13.5 -8t9 -18.5q3 -24 -45 -24z" />
<glyph unicode="E" horiz-adv-x="1300" d="M297 1032q-58 -4 -82 -4q-25 0 -73.5 -1t-71.5 -1q-14 0 -21.5 8t-5.5 21q5 55 8 67q12 45 68 35q41 -8 96 -8q262 -4 391 -4q1 0 406 6q16 0 18 2q17 14 37 15t44.5 -4.5t37.5 -4.5q12 1 21.5 -8t9.5 -23q-3 -108 -9 -225q-1 -31 -12 -42t-39 -13q-35 -3 -80 4 q-17 3 -22.5 14.5t2.5 26.5q14 27 13.5 72.5t2.5 76.5q-89 4 -188.5 4t-221.5 -2t-190 -2q-2 -37 -8.5 -100.5t-10 -105.5t-2 -99t10.5 -106l88 -1q88 0 88 1l293 6q28 0 36 -8.5t7 -36.5q-3 -22 0 -43q2 -25 -7.5 -35t-35.5 -10q-26 1 -107 4.5t-126 3.5q-68 2 -201 2 q-5 0 -33 -4q-11 -251 6 -399h572q0 20 0.5 51.5t0.5 56t-1 47.5q0 27 14.5 43.5t40.5 16.5q17 0 49 -4q26 -1 33.5 -11t7.5 -39q4 -172 4 -262q-38 -20 -78 -20q-11 1 -24 0t-28.5 -3t-23.5 -3q-19 -3 -34 0q-278 25 -539 16l-244 -6q-16 0 -88 10q-22 3 -26 31v82 q39 9 112 4.5t115 1.5v909zM1257 -74q-16 -30 -63 -30q-39 0 -116.5 -1t-116.5 -1q-250 0 -375 2q-29 1 -86 6t-84 6q-2 0 -244 6q-17 0 -49 8q1 22 11 30.5t28 8.5l246 -6q72 -5 86 -4q27 2 99 -5t101 1q35 3 50.5 3t52 -3t51.5 -4q16 0 46 2t46 2q25 -2 80 -10 q41 -5 53 -3q17 2 37 5.5t44.5 9t39.5 8.5q6 69 6 74q-2 58 -10 194q0 33 2 39t10 13t12 6q8 -3 15.5 -11t7.5 -14q2 -49 2.5 -139t1.5 -119q1 -13 7.5 -37.5t8.5 -36.5zM969 465v151l47 5v-164q-1 -18 -12.5 -23.5t-32.5 -7.5q-147 -9 -189 -8q-42 0 -119.5 6.5t-95.5 7.5 q-6 1 -51 -8v-211q0 -29 -2 -43q-4 -29 -27 -23q-31 8 -26 35q10 37 12 74.5t-2 97t-4 74.5q-3 37 29 43q43 10 73 8q46 -2 138.5 -9t138.5 -9q15 -1 123 4zM993 1001q-6 -26 -16.5 -35.5t-30.5 -7.5l-110 7h-25q-36 -10 -75 -13.5t-94.5 -4t-76.5 -1.5q-39 -3 -48.5 -13 t-8.5 -48q0 -63 4 -189q0 -34 -25 -34q-16 -1 -23 8.5t-9 25.5q0 13 4 37t4 35q0 56 -4 166q-2 31 8 43.5t39 13.5q15 1 61 4.5t72 3.5q33 1 69.5 1t81 -0.5t68.5 -0.5q16 0 49 2.5t49 2.5q7 1 37 -3zM1040 743q-3 33 5.5 43.5t35.5 6.5q20 -3 40.5 -0.5t46.5 8.5t42 8l9 80 v162q2 25 8 31.5t33 9.5v-265q0 -37 -11.5 -51t-48.5 -20q-16 -3 -160 -13zM82 961q17 9 32.5 14.5t35 7.5t29 2.5t34.5 0t33 -0.5t12 -5.5t4 -10.5q0 -13 -11.5 -21.5t-36 -11.5t-39.5 -3.5t-45 -0.5h-13q-12 0 -23.5 9.5t-11.5 19.5z" />
<glyph unicode="F" horiz-adv-x="1300" d="M297 1032q-58 -4 -82 -4q-25 0 -73.5 -1t-71.5 -1q-14 0 -21.5 8t-5.5 21q5 55 8 67q12 45 68 35q41 -8 96 -8q262 -4 391 -4q64 0 206 3t228 3q27 0 61.5 3.5t47.5 4.5q12 1 21.5 -8t9.5 -23q-3 -108 -9 -225q-1 -31 -12 -42t-39 -13q-35 -3 -80 4q-17 3 -22.5 14.5 t2.5 26.5q14 27 13.5 72.5t2.5 76.5q-89 4 -188.5 4t-221.5 -2t-190 -2q-2 -37 -8.5 -100.5t-10 -105.5t-2 -99t10.5 -106l88 -1q88 0 88 1l293 6q28 0 36 -8.5t7 -36.5q-3 -22 0 -43q2 -25 -7.5 -35t-35.5 -10q-26 1 -107 4.5t-126 3.5q-68 2 -201 2q-5 0 -33 -4 q0 -7 -2 -48.5t-2.5 -51t-1.5 -46t-1 -51v-45.5t1 -51.5t3 -47.5t5 -52q114 -1 114 -3l19 -1q6 0 30 1t40 0.5t35.5 -2t30 -7.5t10.5 -15q0 -2 2 -31t2 -47q-23 -11 -67.5 -14t-124.5 -0.5t-93 2.5q-36 0 -77 -1t-90 -2.5t-77 -2.5q-16 0 -88 10q-22 3 -26 31v82 q39 9 112 4.5t115 1.5v909zM969 465v151q5 1 12 -4.5t18 -19t17 -19.5v-116q-1 -18 -12.5 -23.5t-32.5 -7.5q-147 -9 -189 -8q-42 0 -119.5 6.5t-95.5 7.5q-6 1 -51 -8q0 -36 3 -107t3 -106q0 -29 -2 -43q-4 -29 -26 -23q-27 7 -27 35q0 24 0.5 74.5t0.5 94t-1 79.5 q-3 37 29 43q43 10 73 8q46 -2 138.5 -9t138.5 -9q15 -1 123 4zM993 1001q-6 -26 -16.5 -35.5t-30.5 -7.5l-110 7h-25q-36 -10 -75 -13.5t-94.5 -4t-76.5 -1.5q-39 -3 -48.5 -13t-8.5 -48q0 -63 4 -189q0 -34 -25 -34q-16 -1 -23 8.5t-9 25.5q0 13 4 37t4 35q0 56 -4 166 q-2 31 8 43.5t39 13.5q15 1 61 4.5t72 3.5q33 1 69.5 1t81 -0.5t68.5 -0.5q16 0 49 2.5t49 2.5q7 1 37 -3zM797 -76q-3 -6 -5.5 -9.5t-4.5 -5.5t-6 -2.5t-6 -1t-10 0t-13 0.5q-369 0 -580 8q-20 0 -49 29q-19 19 10 19q5 0 16 -1h13l246 -6q72 -5 86 -4q20 1 68 -1.5 t98 -1.5t92 11q0 25 -1 59t-1 43q0 6 8.5 13.5t13.5 5.5q8 -3 15.5 -11t7.5 -14q2 -37 2 -131zM1085 752q-51 51 -18 50q6 0 14 -1q55 -7 129 2l9 86v162q3 45 6 51q9 16 35 -10v-265q0 -37 -11.5 -51t-48.5 -20q-23 -4 -41 -5t-42.5 0t-31.5 1zM82 969q-11 11 17 17 q1 0 18 3q25 2 68.5 -1t58.5 -3q4 1 10 -2.5t8 -7.5q5 -14 -4 -23q-11 -11 -25 -14q-5 -2 -48 -1t-48 1q-24 0 -55 31z" />
<glyph unicode="G" horiz-adv-x="1280" d="M788 393l-149 -10q-5 0 -15 -2t-14 -2q-25 -1 -35 8.5t-12 34.5v14q2 57 18.5 72t71.5 6q21 -3 46 -3t40 0.5t47 3t41 3.5q53 3 107 0q119 -7 215 12q41 9 41 -28q0 -44 2 -64q3 -38 -8 -45.5t-54 -5.5l-135 8q-34 1 -42.5 -7t-6.5 -42q3 -32 0 -63q-7 -38 -33 -72 q-7 -8 -23.5 -27.5l-22 -26t-19.5 -21.5t-21.5 -22t-21.5 -19t-27 -20t-30.5 -18.5t-38.5 -21.5q-15 -7 -48.5 -18.5t-48.5 -14.5q-140 -26 -250 29q-15 8 -29 17t-31.5 21.5t-27 19.5t-30.5 24t-27 22q-9 6 -18 15.5t-20 21.5t-17 18q-103 105 -113 293q-1 14 -3 39t-3 45 t0 37q3 84 20 152q26 107 105 233q7 12 19 25t18.5 19.5t26 22.5t22.5 19q45 34 104 66q66 39 181 43q92 5 174 -31q117 -54 184 -156q45 -71 45 -176q0 -43 2 -63q2 -37 -13 -52t-52 -14q-10 1 -22.5 1t-22.5 1q-23 0 -31 8.5t-8 32.5q0 91 2 150q1 18 -14.5 44t-30.5 36 q-35 26 -48 35.5t-40 21.5t-56 16q-123 20 -207 -18q-22 -11 -24 -14l-38.5 -38.5t-42.5 -44t-33.5 -39.5t-35 -50t-22.5 -50q-21 -56 -31 -133q-26 -182 57 -325q72 -116 150 -160q153 -88 287 -8q47 26 71 43q78 65 49 192zM1223 369v120q38 10 41 -20q1 -14 3.5 -52 t2.5 -63q0 -26 -8 -34.5t-33 -10.5q-23 -1 -67.5 0.5t-59.5 1.5h-53q-8 -63 -11 -108q-3 -32 -28 -49q-17 -13 -31.5 -29t-33 -38.5t-27.5 -33.5q-40 -43 -111 -86q-116 -66 -240 -63q-109 0 -221.5 43.5t-165.5 126.5q-32 51 -43 92q-5 11 6 3q20 -15 35 -36 q39 -66 169 -126t208 -52q107 9 169.5 31.5t108 63t121.5 134.5q40 49 33 113v14q0 37 9.5 47t47.5 7q97 -7 179 4zM592 182q11 -4 -13 -7q-7 -1 -42 -5q-59 -4 -99 10q-42 15 -90 56q-29 24 -51 59q-46 71 -66 135.5t-20 159.5q0 109 47 213t135 166q51 31 78 35 q87 10 134.5 -4t123.5 -66q5 -3 5 -15.5t-5 -19.5q-4 -9 -14 -9.5t-19 7.5q-6 6 -12 11t-12.5 9t-11 7t-12.5 6.5t-11.5 5.5t-12.5 5t-12.5 4t-14 4.5l-13.5 4.5q-59 17 -133 -8q-43 -16 -95 -76q-42 -48 -66 -125t-24 -153q0 -123 62 -250q49 -99 149 -119q23 -4 35 -7.5 t18 -6t24 -11t38 -16.5zM909 1065q31 -5 54 -43q5 -9 15.5 -26.5t18.5 -31.5t13 -28q16 -47 12 -72q-5 -30 -6.5 -59.5t-0.5 -78t1 -60.5q0 -26 -7 -35t-32 -15q-19 -4 -36 -4t-38 2t-37 2q-12 0 -47 35q-8 8 10 11q9 1 33 1q16 0 21 1q8 0 44 -1t42 5v131l8 92q0 21 -10 41 q-9 18 -29 49.5t-27 42.5q0 1 -3.5 8t-4.5 10.5t0 10t6 12.5zM639 352q17 0 48 2t52 2q6 -2 12.5 -7t6.5 -9q1 -7 -2 -18t-6 -11q-37 -4 -119 -4q-4 0 -22.5 18t-18.5 25q0 2 11 2t22 -0.5t16 0.5z" />
<glyph unicode="H" horiz-adv-x="1683" d="M434 1030v-358q47 -18 208.5 -23.5t317 -1.5t226.5 12l4 37q4 156 4 236q0 26 -8 96l-152 10q-27 0 -39 6q-28 10 -20 37q2 11 4 34t4 34q1 21 9 26.5t32 2.5q172 -23 322 -9q66 6 196 2q6 0 12.5 -7t8.5 -13q6 -41 6 -78q1 -17 -8.5 -25t-26.5 -8l-131 -4 q-16 0 -46.5 -3t-35.5 -3l-6 -65l-6 -211v-86q0 -106 -4 -314q0 -71 4 -215l8 -28q30 4 86 8l121 12q24 3 35 -20q2 -6 2 -17q-1 -9 -2 -29t-3.5 -34.5t-7.5 -24.5q-2 -3 -8 -4.5t-16 -2t-18.5 -0.5t-21.5 0.5t-20 0.5h-237q-21 0 -61 2t-60 2q-14 0 -40 -1t-38 -1 q-23 -1 -32.5 6t-12.5 29l-4 41q-1 21 8 30t33 9q49 -2 149 -2q1 5 4 18.5t3 20.5l10 243q0 14 1 40t1 38q2 25 -4.5 33.5t-28.5 9.5q-32 2 -98.5 7t-106.5 7.5t-96.5 2.5t-103.5 -5q-17 -3 -37 -3t-45 1.5t-39 1.5h-183q-15 -66 -17 -220t11 -195q180 13 193 14q27 3 35 -3 t8 -32q0 -28 -4 -82q-3 -28 -35 -24q-148 15 -342 2q-31 -3 -64.5 -3.5t-81.5 0.5t-69 1q-1 10 -7 39.5t-7 46.5q-3 27 8 38t41 11q55 -2 176 -2q1 8 4.5 22t5.5 25.5t2 21.5q8 233 6 347q-1 68 -4 141.5t-7.5 160.5t-6.5 140q0 7 -2.5 22.5t-3.5 20.5q-1 0 -68 -1t-67 1 l-37 -1q-37 -1 -37 1q-23 1 -29.5 9.5t-3.5 33.5l6 39q3 29 11 37.5t36 9.5q26 0 80 -1t80 -1q27 0 58 1t69 2.5t59 2.5q31 2 100.5 4t78.5 2q26 2 36.5 -2t14 -12t10.5 -39q5 -25 2 -61q0 -15 -14 -23t-33 -6q-20 3 -70.5 6t-70.5 6h-62zM1616 1143q12 -25 17.5 -53t5 -47 t-2.5 -50t-2 -47q-36 -7 -104.5 -5.5t-106.5 -2.5q-12 -58 -8 -150q1 -48 0.5 -71.5t-3 -71t-3.5 -70.5q-3 -72 4 -161q7 -72 2 -125q-2 -18 -1.5 -50.5t-0.5 -52.5q0 -34 -20 -34q-16 0 -25 10t-10.5 21.5t-1.5 29.5q4 160 4 238q2 70 2 208q-6 234 -6 238t-1 20.5 t-0.5 23.5t6 17.5t17.5 16.5q31 16 74 16q26 1 137 -4q5 13 6.5 26.5t0.5 36.5t-1 29q0 58 2 64q5 14 19 0zM547 428l-10 -219q0 -12 -11.5 -27t-23.5 -12t-21.5 14.5t-9.5 26.5v170q2 24 -10 74q10 30 47 30q79 -3 321 -8l89 1q88 0 88 -1q88 0 137 -16q3 -43 -37 -43 q-45 0 -53 2q-26 7 -56 9t-69 1t-56 0q-14 0 -39 2t-38 2h-93q-61 0 -92 -2q-39 0 -63 -4zM1036 -53q-13 16 -10.5 18.5t22.5 1.5h13q154 0 307 -6q17 -1 46.5 -2.5t53.5 -2.5t45 -1q13 1 35.5 -0.5t28.5 -1.5q8 0 11 6t3 19.5v15.5q6 47 6 92q0 4 -3 9t-8 11t-7 9 q12 20 36 -3q27 -26 27 -63v-22q-2 -64 -26 -94.5t-80 -24.5q-50 6 -199 6q-82 4 -125 4h-100q-47 0 -76 29zM549 930v-189q0 -14 -2 -18q-12 -29 -31 -25q-27 7 -27 31q3 47 3 92q0 21 -1.5 56.5t-1.5 58.5v45q55 0 109 -4l82 -6q19 0 27.5 8t11.5 27q0 9 -2 42.5t-2 43.5 q0 5 -1 14.5t-1.5 14.5t0.5 11.5t5 7t11 -0.5q8 -3 20.5 -21.5t12.5 -25.5v-95q0 -35 -13 -51t-44 -16h-68q-9 1 -24 1t-35 -0.5t-29 -0.5zM709 -45v96q0 54 8 54q4 0 10 -11q3 -5 9.5 -16.5t10 -18.5t6.5 -16.5t3 -17.5t1 -25t1 -25q0 -37 -22 -52t-99 -15q-71 2 -193 10 q-10 0 -31.5 -2t-31.5 -2h-207q-15 0 -24 6q-16 4 -36 27q-7 8 -3 8h598zM252 979q6 -47 -31 -47h-112q-55 55 -17 53h6q10 -1 70.5 -2.5t83.5 -3.5zM1153 985q5 0 5.5 -13.5t-3.5 -17.5q-15 -12 -74.5 -13.5t-76.5 9.5q-9 6 -8.5 19t10.5 16q80 20 147 0z" />
<glyph unicode="I" horiz-adv-x="802" d="M434 1030v-358q-17 -487 6 -557q180 13 193 14q27 3 35 -3t8 -32q0 -28 -4 -82q-3 -28 -35 -24q-148 15 -342 2q-31 -3 -64.5 -3.5t-81.5 0.5t-69 1q-1 10 -7 39.5t-7 46.5q-3 27 8 38t41 11q55 -2 176 -2q1 8 4.5 22t5.5 25.5t2 21.5q8 233 6 347q-1 68 -4 141.5 t-7.5 160.5t-6.5 140q0 7 -2.5 22.5t-3.5 20.5q-1 0 -68 -1t-67 1l-37 -1q-37 -1 -37 1q-23 1 -29.5 9.5t-3.5 33.5l6 39q3 29 11 37.5t36 9.5q26 0 80 -1t80 -1q27 0 58 1t69 2.5t59 2.5q31 2 100.5 4t78.5 2q26 2 36.5 -2t14 -12t10.5 -39q5 -25 2 -61q0 -15 -14 -23 t-33 -6q-20 3 -70.5 6t-70.5 6h-62zM549 930v-701q0 -14 -2 -18q-12 -29 -31 -25q-27 7 -27 31q3 47 3 92q0 21 -1.5 312.5t-1.5 314.5v45q55 0 109 -4l82 -6q19 0 27.5 8t11.5 27q0 9 -2 42.5t-2 43.5q0 46 3.5 50t10.5 -3q11 -11 21 -30t10 -26q0 -20 1 -38.5t1 -47.5 q0 -35 -13 -51t-44 -16h-68q-9 1 -24 1t-35 -0.5t-29 -0.5zM709 -45v96q0 54 8 54q4 0 10 -11q3 -5 9.5 -16.5t10 -18.5t6.5 -16.5t3 -17.5t1 -25t1 -25q0 -37 -22 -52t-99 -15q-71 2 -193 10q-10 0 -31.5 -2t-31.5 -2h-207q-15 0 -24 6q-16 4 -36 27q-7 8 -3 8h598z M252 979q6 -47 -31 -47h-112q-45 35 -33 49q5 6 22 4q10 -1 70.5 -2.5t83.5 -3.5z" />
<glyph unicode="J" horiz-adv-x="872" d="M170 -219l-29 22q-47 39 -47.5 53.5t39.5 61.5q10 12 129 170q49 68 72 211q13 65 16 117q1 22 -4 139l-10 186l-17 281h-188q-4 0 -12.5 -1t-12.5 -1q-43 -4 -54 6t-11 53q1 54 10 62.5t62 7.5q35 0 104.5 -2t104.5 -2q36 0 108.5 2t108.5 2q11 0 33 -2t34 -2q20 0 61 2 t62 2q25 0 31.5 -7.5t3.5 -33.5q-1 -7 -1.5 -26.5t-4 -31t-13.5 -18.5h-260q-2 -39 -2 -114q0 -52 4 -162q0 -13 4 -94t3 -125q-7 -240 -70 -383q-30 -73 -107 -197q-19 -29 -96 -125q-6 -7 -14 -15t-19 -18.5t-18 -17.5zM600 961q4 -106 4 -164q3 -117 -2 -213 q-11 -388 -172 -625q-24 -35 -117 -162q-24 -29 -34 -33q-6 -4 -18.5 -4t-16.5 4q-5 5 -6.5 16t2.5 19q8 18 39 49q96 111 147 213q85 166 100 355q15 169 15 268q0 30 -4 85t-5 75q-4 79 0 117q2 27 8.5 34t32.5 6q29 -2 89 0t90 0q41 0 41 37q1 6 1 14.5t-0.5 17.5 t-0.5 13q0 16 5.5 27.5t18.5 3.5q12 -8 23 -35q2 -6 2 -43q-1 -26 -7 -41t-21 -21.5t-26 -7.5t-38 -1q-16 0 -46 -2t-45 -2h-59zM285 977q0 -39 -17 -39h-143q-36 36 -35 41q0 5 10 4q20 -1 58 -1.5t69 -1.5t58 -3z" />
<glyph unicode="K" horiz-adv-x="1511" d="M1004 1030q-32 4 -35 4h-156q-32 3 -39 39q-12 51 23 68q19 8 47 8q76 2 450 2q4 -1 20 -1.5t21 -2.5q7 -4 9 -16.5t0.5 -38.5t-1.5 -29q0 -19 -7.5 -25t-22.5 -6q-16 -1 -44.5 -1t-43.5 -1q-31 -1 -62.5 -15.5t-47 -26t-48.5 -38.5q-163 -129 -244 -200l-157 -134 q53 -61 55 -63q24 -24 70.5 -70t75.5 -75t68 -69.5t71 -76.5q21 -24 46 -47.5t58.5 -52.5t48.5 -43q13 -11 38.5 -19t45.5 -8q18 0 59.5 1t57.5 1q21 2 27.5 -5t5.5 -28q-1 -39 -19.5 -54t-60.5 -15h-381q-9 1 -25.5 1.5t-30.5 1.5t-26 3q-14 0 -23 14q-7 17 -9.5 26.5 t0.5 23.5t16 26h153q28 0 29 2q-13 15 -51 49t-50 47l-219 215q-9 9 -47 46t-57 57q-29 29 -53 8q-101 -83 -168 -143q-13 -10 -13 -31q-2 -44 -4 -138.5t-2 -101.5q27 0 75.5 -1t72.5 -1h41q21 -1 25.5 -7.5t4.5 -29.5q-1 -16 -1 -22t-2 -14t-3 -9.5t-7 -4t-10.5 -2.5 t-16 -1.5t-21.5 -3.5q-1 0 -53 -6q-262 -4 -367 6q-2 0 -9.5 1t-12 1.5t-9.5 3.5t-6 8q-14 51 12.5 67.5t86.5 14.5h86q-1 96 -0.5 269t1.5 413.5t1 266.5h-84q-14 0 -40 -2.5t-40 -2.5q-21 1 -28 10t-7 31q0 38 15 49.5t55 8.5q9 -3 49 -0.5t47 2.5q170 0 254 2q19 0 59 4 q22 3 31 -5t8 -28q-4 -45 -12 -65q-1 -7 -11 -14t-18 -7q-39 0 -121 4q-6 0 -30 4q-3 -90 -2.5 -260.5t-2.5 -259.5q3 0 11 -4q93 60 213 164q39 33 108.5 87t100.5 79zM819 614l2 -14q31 -37 135 -141q61 -65 176.5 -174.5t149.5 -143.5q7 -7 -11 -11q-36 -8 -65 8 q-7 4 -12 9q-46 49 -185.5 187t-207.5 217q-41 47 -44 61q-4 19 29 46q9 8 25 20q25 20 85 63t91 68q41 33 158 137q31 28 60.5 37.5t80.5 9.5q27 0 40.5 1.5t28 8t20 21t5.5 39.5q0 49 7 54q5 4 14 -5q29 -29 29 -45q-4 -90 -5 -94q-3 -27 -34 -27q-107 5 -129 4 q-34 0 -52 -16q-66 -56 -200 -163.5t-191 -156.5zM598 -39q8 16 13 91q3 43 12 43q4 -1 8 -5q20 -25 20 -76v-24q0 -49 -17 -69t-63 -17q-25 1 -72.5 1t-72.5 1l-209 10q-16 1 -35 0.5t-35 1.5q-21 0 -44 29q-18 22 -5 22q14 0 39 1t39 1q10 0 21.5 -1t25 -2.5t21.5 -2.5 q41 -3 117 -4.5t106 -3.5q72 -6 131 4zM1423 -45q2 18 2 82q0 13 4.5 24.5t16.5 -0.5q4 -4 13 -17t9 -17q0 -104 -10 -121q-6 -8 -49 -8q-118 4 -219 4q-16 1 -47.5 -2t-48.5 -2q-29 0 -67 3.5t-62 4.5q-35 0 -41 2q-11 2 -27 18q-11 12 -3 18.5t28 6.5q24 0 86.5 -1.5 t95.5 -0.5h250zM582 987q6 47 6 109q0 30 4 32q5 3 24 -12q12 -10 14.5 -17t2.5 -24q0 -18 -1 -47t-1 -45q0 -21 -14 -35t-37 -14t-65 -1t-62 -1q1 -20 -4 -193q0 -7 -11 -114q0 -5 -4.5 -12t-5.5 -9q-13 4 -19 12t-7 14.5t-1 18.5q3 128 9 289q0 29 12 40t43 9 q15 -1 56 0.5t61 -0.5zM575 412q-47 -38 -86 -74q-19 -19 -22 -41q-2 -21 -2.5 -59t-1.5 -50v-28q-4 -27 -23 -27q-31 0 -34 29q-3 68 0 135q0 31 22 53q38 38 96 82q17 13 25.5 10t25.5 -30zM213 1012l-4 -51q-57 0 -86 2q-9 0 -31 22q-12 12 0 19.5t31 7.5h90zM901 981 q-12 -12 -33 -12q-33 0 -43 26q-3 5 1 10t14 5q5 0 25 1t36 1t21 -2q7 -2 -17 -25z" />
<glyph unicode="L" horiz-adv-x="1200" d="M649 1139q3 -3 4 -12.5t1 -18t-0.5 -20.5t-0.5 -15q-2 -31 -10.5 -40t-38.5 -9q-70 0 -121.5 1t-56 1.5t-23.5 -0.5q-4 -25 -4 -72q-3 -93 -3.5 -188.5t0.5 -224t1 -179.5q0 -49 -2 -131.5t-2 -119.5h533q8 144 10 192q1 18 1 56.5t1 56.5q0 22 6 27.5t29 7.5 q48 0 66 -18.5t18 -67.5q-1 -23 -4.5 -91t-3.5 -104q-1 -25 1.5 -70t2.5 -63q0 -36 -11 -46t-47 -9q-41 0 -86.5 1t-101 2.5t-86.5 2.5q-59 2 -180 2q-154 0 -230 -2q-15 -1 -40.5 -2.5t-46.5 -2.5t-40 -1q-45 -3 -90 0q-12 0 -22.5 13t-10.5 30q0 39 5 51q1 9 9.5 17.5 t16.5 10.5q61 7 107 7q9 0 33 -1t38 -1q17 219 11 448q-3 70 -2 231.5t-3 231.5q-119 0 -172 -4q-37 -5 -49.5 6.5t-11.5 46.5v21q0 32 19 48.5t51 14.5q43 -4 115 -3.5t112 -0.5q9 0 26 -0.5t30.5 -0.5t25.5 1q24 0 81 -1t81 -1q7 0 18 0.5t16.5 0.5t12.5 -1t11.5 -3 t6.5 -5zM1092 -70q4 28 4 35l8 346q0 31 7 62t22 16q7 -7 12 -14.5t7.5 -12t3.5 -14.5t1 -13.5v-17v-18.5l-12 -350q-2 -42 -17 -59t-53 -17q-50 0 -150 3t-149 3q-55 0 -155 -3.5t-132 -4.5q-17 0 -53 3t-53 3q-18 0 -38 -1t-44.5 -2.5t-38.5 -2.5q-43 0 -80 2 q-13 2 -35 12.5t-32 20.5q-24 24 17 26q11 1 41 0h24q47 0 133 -4q18 0 53 2t53 2l352 -6q38 -1 82 -1t98 0.5t83 0.5q9 0 41 4zM682 991q0 7 3 36t3 44q0 43 27 45q14 0 18 -8t6 -29q0 -61 -3.5 -82t-16.5 -34q-20 -20 -51.5 -24.5t-147.5 -4.5q-15 -73 -12 -146 q1 -64 4.5 -186t3.5 -173t-4 -167q-1 -17 -0.5 -34.5t0.5 -33t-2 -18.5q-3 -7 -7 -8.5t-18 -1.5q-31 0 -34 6q-2 8 -1.5 23.5t1.5 45t0 44.5q-7 349 4 620v29q-2 37 10 48t49 7q71 -5 168 2zM78 950q-23 23 11 30q18 3 52 3q7 0 43 -1t43 -1q13 0 16.5 -11.5t0 -22.5 t-7.5 -11q-144 0 -158 14z" />
<glyph unicode="M" horiz-adv-x="1601" d="M408 901q-18 -55 -21.5 -126t0.5 -126q0 -76 1 -161.5t2.5 -189t2.5 -165.5l45 10q33 6 48 -4.5t18 -42.5q2 -6 2 -20q3 -42 -12.5 -60.5t-63.5 -15.5q-72 3 -295 -6q-41 0 -51 10q-5 6 -8 34.5t-2 49.5q1 32 12.5 41t42.5 6l127 -12v901q-20 12 -59.5 13t-72.5 -2.5 t-67 5.5q-1 6 -5 21t-5.5 23t-3 21.5t0.5 26t7 25.5q29 2 90 2q84 2 283 2q29 0 37 -6.5t16 -34.5l152 -506l106 -342q2 -4 10 -12q1 1 4 3t5 3.5t2 3.5q18 43 52.5 133.5t53.5 133.5l123 286l100 244q13 34 19 45q17 41 65 41q40 -2 114 -2.5t97 -1.5q11 0 35 4 q28 6 36.5 -2t8.5 -37q0 -5 -1 -16.5t-1 -16.5q1 -36 -12.5 -49.5t-50.5 -13.5q-17 0 -62.5 -1t-64.5 -1q-14 -106 -4 -225q13 -156 8 -220q-4 -39 -4 -83.5t2 -99.5t2 -85q0 -13 -1 -41t-1 -41v-96h92q28 2 45.5 -11.5t17.5 -39.5q0 -15 -10 -60q-5 -22 -41 -22 q-96 0 -155 2h-172q-29 0 -36 8.5t-3 44.5q0 55 11 65t67 11h12q5 0 17.5 1t23.5 1t20 -2q4 86 4 147q0 36 -3.5 107t-4.5 88v340q0 13 -2.5 38.5t-3.5 35.5l-23 -25l-12 -33q-29 -87 -121 -293q-15 -32 -36 -93t-29 -81q-17 -42 -58.5 -149t-64.5 -162q-10 -23 -42 -36 t-56 -5q-11 4 -18 13t-8.5 12.5t-6.5 19.5q-40 144 -62 211l-116 371q-6 19 -15.5 56.5t-15.5 55.5q-14 45 -57 160zM1495 973q4 0 6 19.5t3 55.5t1 44q2 26 7 28q8 2 30 -20q3 -3 5.5 -6t4 -5.5t2.5 -6.5l1.5 -6t1.5 -7.5t1 -7.5t0.5 -9t0.5 -10q2 -31 2 -92 q-3 -35 -33 -32h-146q-6 -10 -8.5 -22.5t-2.5 -21t0.5 -24t0.5 -21.5q1 -24 4.5 -100t3.5 -117q0 -44 -2 -132t-2 -132q-1 -17 -1 -38.5t0.5 -47.5t0.5 -39q-1 -4 -1 -12t-1 -13t-4 -8q-13 -16 -35 -16q-4 -1 -10 8t-6 17q-1 33 0.5 98.5t1.5 83.5q0 38 0.5 108t0.5 127 t-1 107q0 37 -4 107t-4 104q0 20 7 29t26 10h149zM827 -98q-8 0 -25 -0.5t-22 0t-16.5 2t-18 5t-16 9.5t-20.5 16q-15 17 -6.5 22t26.5 1q12 -2 41.5 -0.5t40.5 0.5q53 124 152.5 368t140.5 341q9 0 13.5 -20t2.5 -34q-1 -8 -0.5 -20t-0.5 -22t-5 -21q-34 -106 -80 -207 l-96 -227q-9 -21 -70 -183q-3 -10 -15 -20t-26 -10zM1059 -76q-22 22 20 28q15 2 31 1q106 -8 123 -8q97 -2 194 0q25 0 33.5 7.5t9.5 31.5q7 64 5 106q0 33 26 33q8 0 18.5 -10t10.5 -17q0 -116 -4 -149q-4 -39 -29 -54.5t-78 -13.5l-233 6l-68 4q-5 0 -9.5 1t-8 2 t-8.5 3.5t-7 4t-7 6t-6 5.5l-6.5 6.5zM551 -35q2 13 2 33t-1 44t-1 34q0 9 2.5 18t9.5 14t19 -8q18 -18 18 -51q0 -21 1 -49t1 -55q0 -47 -24 -47q-37 0 -111.5 1t-112.5 1t-164 4q-11 0 -28.5 6.5t-24.5 13.5q-26 24 -6 30q11 3 39 3t86 -1t86 -1q14 0 48.5 -1t55.5 -1 t51 3t54 9zM430 594q0 65 13 50q18 -20 34 -114q5 -29 6 -51q1 -32 5.5 -103.5t5.5 -125.5v-39q0 -4 -0.5 -7t-1.5 -5t-2 -3.5t-3.5 -3t-4 -2t-6 -1t-6.5 -0.5t-8 -0.5t-9 -0.5q-2 3 -7.5 7t-5.5 10q-6 73 -6 155q-4 156 -4 234zM84 969q-17 17 27 19q26 0 73 -5 q8 -31 3.5 -38.5t-31.5 -8.5q-53 -4 -72 33z" />
<glyph unicode="N" horiz-adv-x="1435" d="M371 993v-75l18 -371q0 -78 -2 -236t-2 -184q86 -21 145 -10q9 2 58 2q20 0 28 -31q2 -19 -1 -54.5t-3 -43.5q-20 -10 -24 -10q-48 0 -98 1t-109 2.5t-96 2.5h-162q-35 0 -47 11t-13 46q0 6 -1.5 25t-0.5 28q1 19 10.5 26t30.5 5l148 -6q10 23 12 152t-2 270.5t-8 290.5 t-4 182q-103 0 -152 2q-27 0 -38.5 10t-16.5 37v31q1 44 12.5 54.5t55.5 8.5q33 -1 98 -5t98 -5h123q108 -181 305 -556t217 -411q1 5 2.5 15t2.5 18t1 14q6 190 9 400q1 56 -2 180t-2 182q0 5 -1.5 20t-1.5 23q-56 -6 -122 -6q-55 4 -62 37q-7 21 -6 47t20 39q8 1 35.5 3.5 t42.5 2.5q188 -4 283 -4l55 1q56 0 56 -1q38 -5 43 -12q7 -7 4 -35q-6 -77 -7 -84h-202q-4 -35 -8 -117q-10 -161 -3 -387q1 -33 0 -71.5t-3 -86t-3 -71.5q-1 -13 0.5 -37.5t1.5 -32.5q0 -2 -6 -131q0 -3 -1 -9.5t-1 -10.5v-12.5v-13t-1 -11.5t-3.5 -12.5t-6.5 -10.5 t-11 -10q-30 -22 -84 -6q-51 9 -78 59q-24 43 -72.5 121.5t-58.5 95.5q-8 10 -15 25l-180 332q-22 41 -58.5 115t-49.5 100l-78 145q-1 -1 -5 4l-1.5 3t-1.5 1zM1126 -53l7 84l4 133q1 27 5 93.5t5 94t4 95.5t2 97t-2 99q-6 204 -6 207q0 86 6 109.5t31 23.5h151 q4 14 5 27.5t0 36t-1 28.5q0 29 16 48q5 7 9 3q33 -33 33 -98q0 -52 -17 -78q-4 -6 -8.5 -10t-8 -6t-10 -3t-10 -1h-13.5h-15q-14 0 -44 -1t-52 -1q-11 -135 -11 -148q0 -22 0.5 -124t0 -144.5t-2 -127t-5.5 -159.5t-11 -155q-4 -82 -4 -123q0 -32 -42 -46t-98 -14 q-26 0 -61 25q-34 24 -4 31q10 2 25 2h98q14 0 24 2zM657 -43l7 84q5 38 8 43q3 6 12.5 11t17.5 5q5 0 13 -8t8 -14q3 -83 -2 -146q-2 -14 -13.5 -24t-29.5 -10q-151 0 -227 -2q-11 0 -34 -2.5t-34 -2.5q-35 0 -85 2.5t-85 2.5q-15 0 -37.5 9t-34.5 25q-17 20 -12 20h3 q3 -1 5 -1q26 0 72 -1t74 -1h245q16 0 129 10zM502 147q-28 2 -37 9.5t-12 33.5l-4 111q-6 262 -5 289q1 18 -4 110q-2 12 2 54q36 -24 39 -62q2 -28 7 -78t8.5 -92.5t3.5 -79.5q0 -32 2.5 -119t1.5 -133q0 -7 -1 -21.5t-1 -21.5zM893 918q-20 0 -32 3t-16 5t-16 15.5 t-18 19.5q-7 7 -1 13.5t17 6.5h86q4 0 8.5 -9t4.5 -16q0 -19 -10 -28.5t-23 -9.5zM164 926q-14 0 -21 4q-19 8 -30 26q-10 19 14 19q9 0 30.5 1t30.5 1q18 0 24.5 -4t6.5 -17q0 -2 1 -9t0 -11.5t-5 -7.5q-4 -2 -51 -2z" />
<glyph unicode="O" d="M1180 604q2 -104 -62 -276q-62 -159 -208.5 -252t-325.5 -96q-136 -3 -230 36q-78 30 -149 105q-45 45 -96 145q-63 130 -66 242q-3 100 19 196.5t69 180.5t113.5 148t159.5 101t200 37q148 0 236 -38q80 -35 151 -103q69 -63 117 -137q68 -97 72 -289zM618 1034 q-141 6 -268 -67q-50 -26 -63 -43q-81 -99 -103 -183q-6 -26 -9 -51.5t-3.5 -39t0 -48t0.5 -49.5q0 -95 33.5 -181.5t89.5 -147t130 -96.5t153 -36q171 0 305 115q87 75 135 217q81 225 -17 391q-35 61 -86.5 102.5t-123.5 79.5q-79 43 -173 37zM1114 987q34 6 62 -26 q42 -53 51 -78q2 -5 10 -23t11 -25t9.5 -23t9.5 -25t8 -23.5t7.5 -25t5.5 -23.5t4 -25q23 -198 -49 -362q-28 -71 -29 -72q-81 -134 -116 -180q-69 -92 -211 -141.5t-279 -49.5q-106 0 -156 52q-20 20 -13 25q1 1 5 -1q13 -7 28.5 -12t27 -7.5t30.5 -3.5t27.5 -1h31h27.5 q184 -3 371 131q29 20 53.5 44.5t46.5 58t34.5 56t33.5 64.5q64 123 80 274q13 146 -39 266q-8 22 -30.5 61t-26.5 46zM272 588q0 -252 222 -379q51 -29 143 -60q11 -4 4 -4q-16 -2 -57 -2t-87.5 13.5t-97.5 46t-92 79.5t-67.5 121.5t-26.5 163.5q-3 143 66 254 q62 100 167 147t220 27q161 -30 254 -152.5t75 -291.5q-4 -26 -19 -6q-22 29 -24 82q-2 54 -27 107.5t-67.5 98t-107.5 73t-140 30.5q-55 0 -102 -8q-8 -1 -16.5 -4t-15 -5t-15 -7t-13.5 -8t-13.5 -9.5t-12 -9t-12.5 -10.5t-11.5 -10.5t-12 -11.5t-11.5 -11 q-103 -97 -103 -254z" />
<glyph unicode="P" horiz-adv-x="1263" d="M352 88q11 75 2 474t-20 448h-238q-39 -1 -47 10t0 49v8q6 46 15.5 54t56.5 8l313 -6q36 -1 109 -1.5t110 -1.5q137 -7 242 -20q118 -15 172 -121q44 -81 47 -192q0 -110 -54 -201t-157 -119q-30 -8 -64 -12t-74.5 -6.5t-62.5 -5.5q-42 -5 -119 -9t-104 -6 q-8 -56 -2 -171.5t2 -174.5h160q15 1 42 1.5t49.5 1.5t41.5 3q30 0 27 -32l-13 -66q-5 -23 -34 -23q-19 -1 -42.5 -1t-52.5 0.5t-43 0.5q-50 0 -150 2.5t-149 2.5q-21 0 -61 -3.5t-61 -3.5q-55 0 -111 9q-19 0 -31 20q-8 11 -8 25t3.5 31.5t2.5 27.5q0 1 6 4t14 5.5t13 2.5 q17 -1 46.5 -4t53.5 -5t45 -3h125zM473 561q13 0 63.5 -3t75.5 -3q78 0 123 2t104 10.5t96 30t54 55.5q24 48 26 122.5t-16 103.5q-35 64 -108.5 96.5t-161.5 32.5l-250 4zM1221 733q-23 -168 -132 -269.5t-268 -109.5q-56 -4 -176 -8h-59q0 -132 2 -166q0 -4 1 -14t0.5 -15 t-4.5 -11.5t-12 -10.5q-26 -16 -57 12q0 3 8.5 70t10.5 102q1 16 -1 27t-2 25q-1 30 7.5 36.5t40.5 4.5q57 -2 176 2q58 3 121 12q145 21 224 135.5t64 265.5q0 2 -3 16t-3.5 20.5t-0.5 17.5t2.5 17t8.5 9q27 -30 42.5 -79t9.5 -89zM848 -53v96q0 21 6 29q8 12 23 12 q13 -3 18 -18q12 -61 -2 -146q-8 -39 -62 -43q-27 -4 -77 -4q-115 2 -348 2q-32 1 -96 1t-95 1q-58 0 -102 8q-4 0 -8 3.5t-9 8.5t-8 7q16 22 21 24q14 4 43 4q36 0 102.5 -0.5t120 -0.5t100.5 1q21 0 86 3.5t117 3.5zM524 938q0 38 60 33q18 -3 38 -3.5t47 0.5t38 1 q41 -1 63 -3t55.5 -10t59.5 -22q10 -6 21.5 -15.5t16.5 -14t19.5 -20.5t15.5 -18q15 -18 19 -45q3 -18 -4.5 -33.5t-18.5 -15.5q-17 0 -22.5 10t-7.5 27q-6 36 -27.5 56.5t-58.5 33.5q-77 28 -211 21q-29 -1 -40 -14t-9 -42q0 -128 -3 -219q0 -10 -1 -16t-6.5 -11t-14.5 -4 q-13 0 -21 8.5t-8 22.5v109v184zM266 918q-11 0 -119 -5q-18 -4 -32 5q-10 5 -39 34q-7 7 25 9h14q107 4 161 2q12 0 19.5 -9.5t3.5 -21.5q-5 -14 -33 -14z" />
<glyph unicode="Q" horiz-adv-x="1353" d="M584 -20q-136 -3 -230 36q-78 30 -149 105q-45 45 -96 145q-63 130 -66 242q-3 100 19 196.5t69 180.5t113.5 148t159.5 101t200 37q148 0 236 -38q152 -65 268 -240q68 -97 72 -289q2 -104 -62 -276q-45 -117 -137.5 -199t-214.5 -121q7 -6 19.5 -18t23 -21.5 t18.5 -15.5q30 -26 82 -45.5t97 -26.5l153 -16q23 -3 31 -10.5t8 -26.5l2 -37q0 -30 -9.5 -39.5t-41.5 -9.5q-245 0 -361 76q-25 15 -53 38t-41.5 36t-47 48.5t-38.5 41.5q-4 0 -12 -1t-12 -1zM172 553q0 -95 33.5 -181.5t89.5 -147t130 -96.5t153 -36q171 0 305 115 q87 75 135 217q81 225 -17 391q-55 94 -162 156.5t-221 62.5q-151 0 -268 -67q-50 -26 -63 -43q-81 -99 -103 -183q-6 -26 -9 -51.5t-3.5 -39t0 -48t0.5 -49.5zM641 145q-16 -2 -57 -2t-87.5 13.5t-97.5 46t-92 79.5t-67.5 121.5t-26.5 163.5q-3 143 66 254q62 100 167 147 t220 27q161 -30 254 -152.5t75 -291.5q-4 -26 -19 -6q-22 29 -24 82q-2 54 -27 107.5t-67.5 98t-107.5 73t-140 30.5q-55 0 -102 -8q-65 -12 -121 -69t-85.5 -130t-29.5 -141q0 -252 222 -379q51 -29 143 -60q11 -4 4 -4zM571 -111q-28 -4 -51 2q-63 11 -86 42q-10 12 -1 13 q1 0 3 -1q25 -10 63 -15t63 -4h26q90 -78 135 -119q49 -45 109 -70t145 -46q30 -7 67 -10t61 -2.5t71 2.5t65 2l2 165q0 15 9 26.5t18 2.5q14 -14 21 -37.5t7.5 -41t-1 -51.5t-1.5 -46q0 -78 -102 -78q-115 0 -199.5 11.5t-163.5 48.5q-87 38 -147 98zM967 47 q103 78 188 244q64 123 80 274q3 62 -8 131q-11 65 3 60q16 -6 38 -79q34 -116 16 -212q-11 -66 -41 -137q-28 -71 -29 -72q-9 -15 -26.5 -46t-29 -49.5t-29 -43t-35.5 -41.5q-50 -44 -117.5 -78t-89.5 -25q-17 7 3 21q5 4 22 15q34 22 55 38z" />
<glyph unicode="R" horiz-adv-x="1445" d="M463 522v-401q117 -9 178 0q26 5 36.5 0t10.5 -25q0 -69 -15.5 -84.5t-84.5 -15.5q-35 0 -104.5 3t-104.5 3q-48 0 -136 -3.5t-116 -4.5q-7 0 -20.5 -1t-20.5 -1q-20 3 -28 11t-11 30q0 8 -2 26t-2 27q-3 41 41 35q143 -8 205 -10q33 -1 41 7.5t10 41.5q1 23 6.5 88.5 t5.5 111.5q0 49 -3 243.5t-1 289.5v129q-40 4 -49 4q-29 0 -84 -1t-84 -1q-17 -1 -25 7t-9.5 16t-2.5 30q0 55 9 64.5t63 9.5q194 4 289 8q171 6 329 -20q92 -14 213 -115q65 -56 62 -143q-2 -33 -19 -127q-21 -99 -125 -162q-20 -12 -44 -24t-55 -26t-48 -22q2 -13 33 -31 q130 -75 176 -204q68 -187 276 -176h84q6 -6 8.5 -21.5t2.5 -29.5t-1 -37t-1 -31q0 -19 -46 -19q-72 4 -104.5 7t-86 18t-99.5 43q-36 21 -63 50.5t-58 74.5q-18 24 -44.5 74t-33.5 61q-92 161 -164 182q-42 12 -184 41zM463 629q127 -16 272 0q91 9 139 67.5t48 153.5 q0 81 -54 121.5t-145 58.5q-159 28 -260 0q1 -38 -3.5 -199.5t3.5 -201.5zM504 174q7 184 20 289q31 3 56 -1.5t42.5 -12.5t38 -30t35 -41t41.5 -58q38 -54 62 -87q33 -41 63 -96q8 -15 18 -28t24 -27.5t22.5 -22.5t27.5 -25t25 -22q45 -38 139 -65q24 -6 63.5 -7.5t106.5 0 t84 1.5q7 24 9 77t8 74q9 0 27 -33t18 -57v-53q-12 -64 -76 -64h-62t-67.5 1t-58 4t-62 10t-51.5 18q-78 36 -128.5 73.5t-86.5 94.5q-98 151 -154 231q-8 12 -19 24.5t-19 20.5t-22 21.5t-20 19.5q-3 4 -7.5 6.5t-13.5 6t-14 6.5q0 -11 -6.5 -62t-1.5 -79q2 -17 2 -93 q0 -42 -63 -14zM764 92q22 -22 22 -125q0 -24 -18.5 -39.5t-42.5 -13.5q-140 8 -326 -6q-30 -2 -66.5 -2t-61.5 1t-69 3.5t-65 3.5q-12 0 -47 35q-17 17 24 21q12 1 29 1l168 -6l224 -4h190q8 39 8 141q0 8 16 1q8 -4 15 -11zM870 516q48 24 52 25q78 23 125 100 q37 59 52 156t-9 166q26 19 52 -28.5t32 -90.5q15 -95 -62 -217q-53 -85 -172 -131q-38 -17 -70 20zM881 825q-49 57 -88 88q-33 29 -72 37t-105 8q-41 0 -51 -22q-6 -16 -6 -53l-6 -164q0 -17 -2 -25q0 -12 -5.5 -19.5t-15.5 -6.5q-12 2 -24 22q-4 8 -4 19q0 16 4 120.5 t-2 120.5q0 51 31 54q115 7 181.5 -6t133.5 -74q20 -18 31.5 -46.5t-0.5 -52.5zM276 987q21 0 27.5 -4t9.5 -16q6 -25 -18 -25q-20 1 -65.5 0.5t-63.5 1.5q-29 0 -43 14q-9 8 -9 16.5t7 10.5q10 2 86 2h69z" />
<glyph unicode="S" horiz-adv-x="909" d="M442 1155q96 0 164.5 -35t141.5 -108q6 -5 10.5 -11t8 -13l6 -12t4.5 -14.5t3 -13t1.5 -14.5t1 -13.5t1 -15.5t0.5 -14q0 -26 -4 -84q-1 -23 -12 -30.5t-35 -4.5q-36 4 -55 4q-35 -3 -35 29q-1 7 0.5 21t1.5 18t3 21t2.5 22t-3.5 20q-20 43 -40 70t-52 47q-52 27 -111 27 q-92 0 -157.5 -33t-85.5 -96q-32 -96 24 -179q57 -81 166 -137q166 -76 251.5 -156.5t94.5 -191.5q9 -149 -116 -233q-33 -25 -85 -39.5t-98 -16.5q-17 -1 -41 1.5t-41 5t-46 7.5t-38 7q-19 3 -38.5 9.5t-32.5 12.5t-34 19t-29 18.5t-31.5 23t-28.5 21.5q-29 21 -29 82 t-6 115q-3 39 29 47q9 3 19.5 3.5t26 -0.5t21.5 -1q25 0 32.5 -5.5t4.5 -27.5q-10 -60 -10 -63q0 -54 15 -80t63 -49q79 -39 196 -31q74 5 123.5 50t38.5 112q-2 14 -8 28.5t-16.5 29.5t-19.5 27t-25.5 27.5t-26.5 25t-29.5 25t-27.5 21.5l-28 21l-24 18q-32 25 -108.5 67 t-108.5 68q-65 54 -90.5 135.5t-11.5 171.5q21 116 121 177t243 67zM303 -102q-45 6 -92 28t-70 49q-5 8 -14 26t-6 22q3 3 20 -7t39 -24.5t25 -16.5q48 -25 86 -32q56 -10 101.5 -13.5t100 -0.5t102.5 24t85 59q100 105 100 193q0 93 -22.5 159.5t-57.5 104.5t-92 76 q-29 18 -127 67.5t-153 87.5q-115 81 -95 203q6 37 37 65t70 36q105 22 163.5 0t84.5 -86q3 -6 -2 -27q-21 0 -27 4q-11 11 -27 35q-11 16 -52.5 27.5t-67.5 9.5q-113 -7 -113 -97q0 -29 12 -61t21 -41q37 -44 103 -80.5t142 -74t121 -76.5q142 -120 142 -328 q0 -68 -45.5 -142t-110.5 -114q-25 -15 -44 -24.5t-53 -20.5t-70.5 -15.5t-92 -3.5t-121.5 9zM662 743q17 0 51 -2.5t62 -2.5t52 5q0 150 -18 224q-2 8 1 7q11 -3 30 -45q26 -57 26 -120q0 -7 1 -24t1 -25q0 -37 -13 -50.5t-42 -13.5h-70q-41 0 -81 47zM293 137 q-6 -8 -25.5 -1t-31.5 14q-11 7 -16.5 11t-11 13t-5.5 21v57q-1 12 0.5 21.5t6 16.5t15 3t25.5 -19q4 -12 6 -42.5t10 -55t27 -39.5z" />
<glyph unicode="T" horiz-adv-x="1179" d="M182 -8q-1 11 -3 32t-2 29t1 27q1 27 13.5 35t39.5 2q48 -12 123.5 -11t126.5 0q4 28 4 37q0 32 5 125t2 144q-2 72 -2.5 86.5t2 87.5t2.5 88q0 14 -2.5 42t-2.5 42q0 132 -2 200q0 16 -12 78q-117 -6 -297 -10v-35v-100q0 -16 -16.5 -21.5t-34.5 -1.5q-14 1 -26.5 3 t-26.5 3q-38 3 -31 41q4 22 5 46.5t0 64t-1 45.5q0 13 -1.5 26.5t-2.5 20.5t-1 13.5t3.5 9t11.5 2.5q30 0 102 1t127.5 0.5t114.5 -3.5q137 -4 207 0q27 0 118 -1.5t147 -2t108 1.5h20q40 -6 46 -14t4 -50q0 -1 6 -166q3 -24 -8.5 -36.5t-34.5 -8.5q-13 1 -39 6.5t-31 6.5 q-29 6 -29 32q5 67 5 82q0 4 -1 13t-1 14q-43 11 -90 14.5t-117.5 2.5t-92.5 -1q-8 -23 -8 -86q2 -39 -1 -109.5t-3 -93.5q0 -1 6 -190q4 -66 4 -98q0 -46 -4.5 -151.5t-3.5 -160.5q0 -15 1.5 -23t10.5 -12t13.5 -4.5t25.5 -1.5q16 0 46.5 -2t44.5 -2q1 0 88 6q54 9 70 0 t16 -61v-29q0 -16 -4 -23t-10 -8t-25 -1q-5 0 -17.5 -1t-17.5 -1q-147 0 -221 2q-74 4 -226 8q-23 0 -70 -2t-71 -2q-22 0 -80 4zM662 983q36 6 43 6l137 -4q1 -1 4 -1t4 -1q33 -3 33 -35q0 -4 -1 -7t-3.5 -5t-4.5 -3t-6 -1h-7h-9h-10q-13 0 -53.5 -1.5t-63.5 -0.5 q-3 -77 -3 -157.5t1.5 -182.5t1.5 -166q0 -45 -1 -134.5t-1 -135.5q0 -6 -9 -9.5t-14 -1.5q-26 4 -28 13q-4 13 -4 57q0 46 2 138t2 138q1 16 -1.5 83.5t-2.5 74.5q3 104 -4 174q-2 23 -0.5 77.5t-1.5 84.5zM217 -68q-14 14 12 13q9 0 27 -3q10 -1 12 -1q78 0 125 2h117 q46 -3 133 0.5t127 1.5l178 -13q4 49 8 131q0 9 8 15.5t19 -2.5q4 -4 10.5 -10t8.5 -8t5 -7.5t4 -11.5t1 -16q0 -24 -0.5 -36.5t-1.5 -27.5t-2 -35q0 -25 -17 -32t-47 -5q-137 10 -166 11q-39 2 -110.5 -2.5t-98.5 -4.5q-36 0 -77 -1t-91 -2.5t-79 -2.5q-62 0 -105 47z M465 971q0 -23 -34.5 -30.5t-86.5 -5.5t-57 1v-96q0 -44 -28.5 -59.5t-84.5 -12.5h-17.5h-16.5t-13.5 1t-14.5 3t-13 6t-14.5 10t-14.5 15q-17 17 15 17q7 0 15 -1q14 -1 34.5 -1t46 0.5t36.5 0.5q3 20 1.5 54.5t0.5 52.5q2 6 0.5 28.5t1.5 28.5q2 4 11.5 4.5t23 -1 t14.5 -1.5q20 -2 88 0.5t88 -0.5zM1139 831q0 -31 -20.5 -42t-61.5 -13q-31 0 -99 33q-34 23 5 25h38h95q-1 15 -6 153q-4 53 0 78q0 24 10 36q3 4 6 1q13 -13 22 -41.5t7 -44.5q-2 -39 1 -100t3 -85z" />
<glyph unicode="U" horiz-adv-x="1533" d="M373 1044q0 -31 -0.5 -87t-0.5 -101.5t1 -85.5q1 -41 7.5 -132.5t6.5 -139.5q0 -84 41 -189q26 -66 77.5 -110.5t123.5 -61.5q64 -14 148 -2.5t141 45.5q54 32 88.5 133t45 192t11.5 179q0 21 1 44.5t2.5 52t2.5 44.5v176q0 5 -1.5 11.5t-4.5 15.5t-4 16h-66 q-10 0 -30 -1t-29 -1q-34 1 -49 24.5t-4 55.5q6 27 45 27h456q30 0 48 -2q-1 -13 -1.5 -31t-1 -27t-3.5 -18.5t-9 -13.5q-22 -15 -94 -8q-17 2 -36.5 2t-44.5 -1t-40 -1l-8 -54q-8 -235 -10 -350q-1 -15 0 -46t0 -46q-8 -82 -14.5 -126.5t-29.5 -107.5t-63 -116 q-64 -81 -123 -129.5t-139 -61.5q-178 -20 -301 56q-58 33 -100 67q-8 6 -15 14.5t-17.5 25t-12.5 18.5l-11 18q-24 28 -42 64t-26.5 60t-16 74.5t-9 65.5t-6.5 74q-5 84 -2 190q7 121 -21 299q-23 0 -72.5 1t-76.5 1q-31 0 -38 6t-3 33q4 26 8 39q6 18 21.5 28.5t33.5 8.5 q22 -1 87 -4.5t100 -3.5q34 0 103 1t104 1h22q5 0 14 0.5t13.5 0.5t10.5 -1.5t9.5 -5t5.5 -10.5q5 -12 5.5 -22.5t-1 -26t-1.5 -25.5q0 -9 -23 -15q-29 0 -63 3q-74 8 -119 -3zM1464 995q0 115 12 138q2 5 5 2q13 -13 22.5 -35t9.5 -37v-90q-31 -29 -98 -29h-106 q-2 -22 -8 -69.5t-7 -73.5q-13 -185 -16 -332q-2 -65 -31 -152q-54 -148 -143 -237q-61 -63 -149.5 -105.5t-168.5 -48.5q-84 -6 -151.5 22t-75.5 64q26 -16 57 -26q41 -9 132 -13q20 -1 44.5 3t39.5 8t46 13.5t40 12.5q15 4 30.5 11.5t25.5 13t27.5 19t23 17.5t26 21 t22.5 19q48 43 98 143t56 186q12 207 12 213q0 68 4 101q11 84 -2 184q-6 42 43 45zM424 993h184q1 10 5 104q2 28 6 28q1 0 2 -1q24 -24 28.5 -34.5t3.5 -36.5v-58q0 -6 0.5 -13.5t0.5 -10t-1 -7t-2.5 -6t-5 -4t-8 -3.5t-12.5 -3q-24 -4 -68 -8q-12 -1 -37 0t-39 0v-170 q0 -16 -2 -46t-2 -46q0 -205 41 -316.5t144 -154.5q13 -5 36.5 -9.5t37 -8.5t14.5 -11q0 -9 -29.5 -12.5t-52.5 2.5q-110 29 -162 102q-23 31 -37 63.5t-21 78t-9 70t-5 85.5q-2 31 -3 65.5t-1.5 75.5t-1.5 64q0 14 -2 45t-2 45v131zM55 979q-4 4 5.5 6.5t28.5 3t35 1 t36 0.5l20 -1q25 0 29 -5.5t4 -39.5q-12 -4 -45 -4q-74 0 -113 39zM918 987q-7 7 10 10q33 8 82 2q28 -4 28 -43q0 -21 -51 -16q-50 7 -69 47z" />
<glyph unicode="V" horiz-adv-x="1554" d="M705 90q72 137 86 182q65 186 75 213q9 26 30 77.5t30 76.5q13 33 33.5 96t25.5 76l76 219q-11 0 -53.5 -1t-73.5 -0.5t-53 3.5q-10 1 -13 13t-1 35t1 30q-2 15 8.5 26t28.5 11q75 4 154 0q23 0 68 -1t67 -1l199 -4q12 0 16.5 -0.5t13.5 -3.5t13 -11.5t4 -23.5 q0 -25 -2 -37.5t-13.5 -22.5t-33.5 -10q-17 0 -59 1t-60 1h-74l-65 -172q-49 -112 -54 -125q-47 -113 -116 -305q-36 -96 -154 -422q-10 -27 -18.5 -31.5t-38.5 -1.5q-50 3 -103 3q-19 0 -35 4q-32 84 -104.5 325.5t-112.5 360.5q-7 21 -18.5 65.5t-18.5 65.5 q-17 57 -65 194q-11 27 -41 27h-148q-5 0 -59 14q-1 16 -3.5 38t-2.5 38q2 10 16 29q25 0 149.5 -3t190.5 -1q56 0 162 4q18 0 26 -6.5t7 -24.5q-2 -9 1 -27.5t-3 -29.5q-16 -33 -53 -33h-119l14 -59l51 -183l68 -229l117 -369q3 -9 37 -90zM741 -115q-35 0 -79 22 q-36 18 -3 22q7 1 19 1q61 0 92 -2h59q11 45 25 86q5 16 68 172q177 452 249 641q52 139 62 154h176q35 0 44.5 9t12.5 44q5 63 11 71q5 6 12 -1q25 -25 22 -62q0 -17 -4 -45q-11 -63 -77 -63q-65 -3 -162 6q-23 -51 -58.5 -137.5t-52.5 -124.5q-50 -115 -113 -291 q-19 -48 -49.5 -138.5t-40.5 -117.5q-5 -15 -18 -55t-21 -63.5t-23.5 -55.5t-33.5 -55q-5 -8 -15.5 -14t-17.5 -5q-15 1 -42 1t-42 1zM483 981q117 0 144 2q0 9 -1 33q-3 103 12 103q4 0 9 -5q21 -21 29 -45t8 -65q0 -28 -12.5 -49t-34.5 -21q-19 0 -46 -1t-44 -1 q8 -27 39 -142.5t53 -175.5q16 -44 29.5 -96t27.5 -114t23 -97q3 -9 8.5 -33t9.5 -38q-3 -13 -10.5 -25t-13.5 -12q-5 0 -13.5 8t-9.5 14q-94 427 -205 705q-2 4 -4 12.5t-3.5 18.5t-0.5 17t6 7zM72 967q-13 13 19 14h18h6q105 4 149 -10q13 -38 -20 -41q-2 0 -92 4 q-59 12 -80 33zM893 961q-36 36 18 38q42 2 95 -14q0 -18 -12 -34t-27 -19q-14 -2 -36 5.5t-38 23.5z" />
<glyph unicode="W" horiz-adv-x="2109" d="M717 102q11 9 19 20.5t11 19t8 23t7 19.5l162 478q12 39 34 100q5 20 3 29l-87 213q-7 14 -26 18q-47 6 -113 6q-21 0 -26.5 5t-6.5 26q-3 40 10 54.5t52 14.5h362q23 0 35 2q19 2 26 -3.5t7 -22.5q0 -4 -1 -28.5t-1 -28.5q0 -7 -2 -12t-6.5 -7.5t-9 -4t-12.5 -2 t-14.5 -0.5t-16.5 0.5t-17 0.5q-18 0 -52 -1t-52 -1q-2 0 -4.5 -0.5t-6.5 -1.5l-8 -2q4 -13 10.5 -41.5t10.5 -42.5l80 -225q15 -41 49 -121.5t51 -128.5q12 -33 31 -100.5t30 -100.5q35 -99 62 -145q66 176 167 509.5t126 409.5q-15 0 -73 1t-71 1q-25 0 -36.5 7.5 t-12.5 25.5q-9 75 33 78q23 3 62 3t89.5 -1.5t71.5 -1.5h295q4 0 7 -1t5 -4t3 -5.5t1 -7.5v-9v-11.5v-12.5q0 -62 -22 -62h-184q-34 3 -43 -24q-8 -24 -23.5 -67t-28 -78.5t-22.5 -67.5q-35 -100 -84 -248q-17 -51 -49 -145t-39 -115q-10 -28 -53 -172q-9 -29 -33 -90 q-7 -6 -15 -10t-17.5 -6.5t-16 -4t-18.5 -2t-17.5 -0.5h-20h-18.5q-2 0 -12.5 1.5t-16.5 0.5q-24 -3 -35 8t-14 37q-2 23 -8 50t-10.5 45.5t-15.5 52t-15 44.5t-18.5 50.5t-16.5 44.5q-14 40 -38.5 117.5t-37.5 113.5q-1 4 -6 6.5t-8 12.5q-10 -24 -30 -60.5t-29 -60.5 q-14 -38 -95 -262l-59 -164q-7 -21 -20 -31t-39 -18q-6 -6 -53.5 -5t-53.5 1q-24 -3 -29.5 1.5t-11.5 32.5q-3 11 -7 23.5t-9 27t-8 23.5q-7 22 -19.5 66t-19.5 65q-5 12 -23 49l-117 283q-33 82 -77 214.5t-70 201.5q-16 40 -27 49.5t-51 9.5h-94q-19 1 -31 17.5t-12 31.5 q0 28 13 44t36 16h137q38 0 115.5 -1t116.5 -1q1 0 4.5 1t5.5 1q6 -1 20 3.5t24 3t15 -15.5q21 -71 -6 -102h-153q74 -213 114 -324.5t105.5 -282.5t128.5 -319zM1774 981h225q2 0 6.5 12t8 31.5t3.5 36.5q0 55 16 55q3 0 5 -2q12 -12 21 -37.5t9 -40.5q0 -42 -8.5 -66.5 t-16.5 -30t-22 -9.5q-14 -2 -215 -2q-26 -76 -28 -82q-73 -226 -123 -357q-28 -75 -74.5 -224.5t-62.5 -196.5q-7 -17 -25 -74q-19 -47 -40.5 -63t-66.5 -15q-45 3 -88 0q-8 0 -24 11.5t-27 23t-8 12.5q4 3 17.5 3t29.5 -1.5t19 -1.5q2 0 9.5 0.5t14 0.5t10.5 -1 q57 -2 81 13t42 65q92 260 119 352q17 60 49.5 146t46.5 137q6 23 20 65t17 52zM731 219q-17 -17 -38 37q-2 7 -7 20q-25 63 -57 177q-13 46 -58 165l-106 273q-3 9 -11.5 23.5t-11.5 19.5l-16 51q10 0 36 -2t49.5 -2t43.5 4q1 3 10.5 35t9.5 47q0 18 4 28t10.5 10.5 t14.5 -7.5q13 -13 18.5 -38t2.5 -48q-3 -43 -21 -72l-110 -6q36 -103 51 -129q46 -91 67 -162q6 -18 32.5 -102.5t45.5 -132.5q11 -27 27 -75.5t22 -64.5q2 -7 1 -13.5t-4.5 -19.5t-4.5 -16zM1112 932q2 -14 8 -36t8 -30q4 -18 41 -131q11 -36 35 -91.5t29 -68.5 q53 -149 96 -245q17 -42 -6 -62q-12 -12 -23.5 -8.5t-15.5 21.5q-14 54 -31.5 107t-43 122t-38.5 106q-40 107 -67 191q-7 18 -19.5 63t-25.5 72q-16 37 18 37q5 1 42 0.5t42 -0.5h56q1 9 1 42q1 89 14 89q3 0 7 -4q1 -1 6.5 -6t7.5 -7.5t6.5 -7.5t6.5 -9t5 -9.5t4 -11 t1 -11.5q-2 -29 -2 -65q0 -19 -16.5 -32t-49.5 -13q-13 0 -46.5 -1t-49.5 -1zM836 -92q-31 -3 -65 -4.5t-52 -3.5q-12 -2 -30.5 3t-26.5 13q-31 31 8 31h80q30 0 48.5 9t28.5 36q42 113 99 227q13 27 23.5 55.5t22.5 69.5t17 57q4 15 23 41l28 -14q-66 -226 -204 -520z M229 977q-2 -35 -41 -35q-65 0 -100 4q-5 0 -10.5 6.5t-5.5 12.5q-2 5 3 12.5t9 7.5q81 23 145 -8zM750 961q-36 36 18 38q41 2 94 -14q0 -18 -12 -34t-27 -19q-14 -2 -35.5 5.5t-37.5 23.5zM1446 961q-29 28 6 31q12 1 47 -1q40 -1 60 0q0 -20 -8.5 -38t-22.5 -21 q-15 -2 -40.5 5.5t-41.5 23.5z" />
<glyph unicode="X" horiz-adv-x="1351" d="M63 1157h463q43 0 51.5 -5t12.5 -36q4 -59 -6 -72q-5 -5 -10.5 -7.5t-17.5 -3.5l-13 -1h-131q43 -73 204 -356q43 63 101.5 182t83.5 162l-66 10q0 7 -3 43t-3 55q0 20 8.5 27.5t28.5 5.5q82 -8 123 -10q13 0 36 3t36 3q15 0 44 -3t44 -3q41 0 127 8q44 5 47 -41 q2 -25 -2 -78q0 -33 -37 -30q-109 12 -113 12q-36 0 -106 -8q-14 -3 -29 -23q-49 -76 -98 -164q-12 -19 -111 -196l-39 -68l64 -96q95 -157 125 -205l79 -129q11 -18 41 -14q31 2 121 2.5t111 1.5q14 0 11.5 -64.5t-11.5 -64.5q-11 0 -28 -2t-25 -2q-46 2 -188.5 5t-188.5 5 h-107q-1 9 -3.5 43t-2.5 51q0 12 27 23q9 2 50 2.5t50 1.5l-190 328q-72 -116 -170 -332q47 0 65 2q35 0 35 -33q-1 -17 0 -39t-0.5 -40.5t-5.5 -18.5q-71 0 -185 -4q-33 -1 -114 3t-125 1q-29 -2 -40 4.5t-11 30.5v16q0 30 1 41t10.5 21.5t27.5 12.5t55 1q47 -2 141 -2 l101 180l127 219q26 48 0 86l-60 94q-131 221 -176 301q-17 27 -31 33.5t-45 3.5q-47 -4 -137 -4q-18 -2 -30 7t-13 26q0 6 -0.5 22.5t-0.5 27t1.5 23t6.5 19t13 6.5zM1292 928l-282 -13q-3 -4 -21.5 -33t-27.5 -46q-76 -135 -138 -238q-23 -36 2 -70q60 -85 117 -196 q45 -84 92 -129q20 -20 -4 -37q-28 -21 -43 2l-88 145l-92 150q-1 2 -4 4t-4 4q-6 8 -20 25t-22.5 31t-11.5 28q-5 20 20 49t28 37q13 24 81.5 134t94.5 175q9 24 17.5 29t33.5 0q37 -8 57 -6q41 1 176 10q0 13 0.5 35.5t0.5 40t-1 33.5q-4 29 6 37q4 4 11 -3q26 -26 26 -73 zM1270 -49q4 18 4.5 28.5t-1 24t-1.5 25.5v49q0 11 3.5 15t6.5 3t6 -4q23 -23 23 -55q0 -84 -8 -115q-6 -26 -50 -22q-184 11 -297 4q-18 -4 -72 -1t-71 3q-58 0 -84 26q-15 15 12 22q13 3 33 3q78 0 148 -6q27 -2 77 -2q24 0 134 1t137 1zM631 8q0 -52 -5.5 -77.5t-8.5 -27 t-11 -1.5q-282 -8 -426 -8q-32 4 -57 26q-15 18 10 19q43 3 88.5 3.5t107 -0.5t85.5 -1q30 0 88 2t86 2q0 16 -2 55q-5 101 8 106q5 3 14 -6q23 -23 23 -92zM539 965q9 -17 49 -84q14 -18 34 -62t3 -49q-11 -5 -25 14q-9 13 -24.5 38.5t-20.5 33.5q-6 11 -26 47t-33 55 q-7 10 -10 19t0 16.5t16 7.5q85 0 121 5q0 99 15 99q4 0 9 -5q6 -6 9.5 -12.5t5.5 -11.5t3 -15t1 -14.5v-17.5v-17q0 -28 -29.5 -37.5t-97.5 -9.5zM645 313q-14 -25 -35.5 -69t-31.5 -62q-17 -23 -21 -26q-14 -9 -25 -2q-10 3 -10 24q0 14 10 27q30 62 68 121q2 4 5.5 6.5 t9 6t8.5 5.5zM188 936h-18h-17h-14.5t-14 1t-11.5 2.5t-10.5 3.5t-8.5 5t-8 7.5t-6 9.5q-3 6 1 9.5t14 4.5t17 1.5t17 0.5q98 0 125 -27q13 -17 -66 -18z" />
<glyph unicode="Y" horiz-adv-x="1386" d="M885 106q5 0 13.5 -7t10.5 -11q17 -43 -6 -80q-6 -10 -16 -14.5t-17 -5t-22.5 0.5t-20.5 1q-29 1 -86 0t-86 0q-17 1 -67 4.5t-78 3.5q-32 0 -95 -1t-93 -1q-21 0 -27 8q0 60 2 72q3 19 15.5 30.5t31.5 8.5q70 -6 141 -9q8 -1 17 -1t21 0.5t20 0.5q2 17 8 72.5t8 89.5 q2 20 3 60.5t3 60.5q4 56 -45 141q-126 228 -153 289q-12 26 -28 55.5t-36.5 66t-30.5 54.5q-5 8 -11.5 14t-12 9t-16 4.5t-14.5 2t-16.5 0t-15.5 -0.5q-16 0 -49 -2t-49 -2q-7 0 -37 6q-2 13 -4 43.5t-4 40.5q-2 18 4.5 26.5t24.5 8.5h92h102q32 1 91.5 -1.5t80.5 -2.5 q4 0 42.5 2t60.5 -3t22 -22q0 -5 -1 -17t-1 -18q0 -39 -7.5 -48t-37.5 -9h-135q32 -92 118 -244.5t117 -236.5q35 57 96 151.5t110 174.5t89 155q-22 1 -60 1t-83.5 -0.5t-58.5 -0.5q-6 7 -8.5 17t-3 16t0 20.5t0.5 18.5q0 26 7.5 36t31.5 13q13 2 84 2h346l42 1q42 0 44 -1 q12 0 12.5 -29.5t-7 -59.5t-15.5 -30h-153q-43 3 -68 -39q-32 -53 -102 -150.5t-101 -146.5q-32 -48 -67 -112q-52 -91 -58 -105q-19 -46 -22 -92q-5 -76 -13 -235q0 -5 1 -12t2 -16t2 -16h221zM756 152q-30 -13 -37 16q-2 12 -2 29q0 9 6 225q5 32 6 33l137 213 q36 56 110 163t85 123q18 25 45 27q25 0 56 1t70 2.5t60 2.5q1 8 3 24.5t3.5 32t1.5 29.5q0 57 6 58q5 0 18 -21q0 -1 1 -2q20 -35 18 -57q-6 -64 -6 -95q0 -14 -61 -14q-16 0 -65 -1.5t-76 -0.5q-21 3 -37 -16q-14 -17 -29 -36t-26.5 -34.5t-27.5 -38.5t-25 -36 t-25.5 -39.5t-23 -37t-24.5 -40.5t-23 -38t-25 -41.5t-23 -39.5l-74 -123q-4 -8 -4 -29l-10 -194q0 -9 -1 -24t-1 -21zM342 -51q11 0 61.5 -1.5t75.5 -0.5q38 1 143.5 0.5t143.5 1.5q82 4 125 4h6q44 1 53 11t11 54q0 4 0.5 27.5t3 36t8.5 6.5q11 -11 18.5 -36t7.5 -44 q0 -33 -2 -76q0 -26 -36 -26q-79 0 -240 1t-244 1h-88q-18 0 -44 24q-19 17 -3 17zM524 944q17 -51 59.5 -137.5t57.5 -132.5q-11 -7 -21 -21q-3 -4 -4 -5t-3 1.5t-5 9.5q-18 47 -61.5 128.5t-57.5 111.5l-14 31q-16 37 -14 43q2 8 16 10t61.5 1.5t65.5 0.5q0 9 -0.5 33 t-0.5 44t1 32q0 3 -1 8t-1 8.5t2 5.5q0 1 9 -12t18.5 -29.5t11.5 -21.5q3 -8 3.5 -18.5t-0.5 -25.5t-1 -20q0 -31 -9.5 -37t-49.5 -6q-48 0 -62 -2zM817 995q17 0 21 -6.5t-7 -34.5q-12 -23 -14 -24.5t-20 -3.5q-16 -1 -36 21t-22 36q0 9 15.5 11.5t37.5 1.5t25 -1z" />
<glyph unicode="Z" horiz-adv-x="1019" d="M844 1133q35 0 45 -9.5t4 -42.5q-10 -70 -76 -147q-72 -85 -108 -141q-17 -28 -59 -77t-50 -59l-61 -75q-102 -144 -207 -285q-20 -27 -59.5 -78.5t-59.5 -77.5q-5 -6 -13.5 -21t-11.5 -20q42 -8 90.5 -8.5t102 1.5t86.5 1q184 -4 276 -8q5 36 4.5 62.5t-3.5 80.5t-3 78 q0 11 22 18t48 5q45 -3 57 -15q19 -19 19 -51q2 -72 2 -217q0 -39 -29 -47q-22 -5 -46.5 -7t-40.5 -2t-47 0.5t-48 0.5l-578 10q-80 3 -45 74q6 14 39 61q53 74 144 197q16 21 59 76t65 86q59 80 158 223l101 133l131 182q-47 4 -95.5 5.5t-109.5 1.5t-88 1h-291l-6 -102 q-1 -7 -2 -18t-1.5 -15.5t-2.5 -11.5t-5 -10t-9 -6t-14.5 -4t-21.5 -1q-42 0 -53.5 19t-11.5 96q0 54 10 119q4 23 19 31q25 8 75 4q58 -4 170 -8q83 -5 187 -2q49 3 106.5 3t127.5 -1.5t108 -1.5zM174 -96q-17 0 -35.5 8t-28.5 18t-8 15q5 13 76 8q90 -4 115 -4 q47 0 110 -3t91 -3q250 -4 372 -2q37 0 46.5 9.5t9.5 47.5q0 29 3.5 85.5t2.5 92.5q0 1 -1 7q-14 102 9 79q11 -11 24 -52t15 -65v-69q0 -54 2 -68q3 -45 -24 -79t-72 -35q-144 -3 -289 -3t-250 5q-33 1 -85.5 4.5t-82.5 3.5zM961 1012q-6 -45 -29 -76q-7 -9 -30 -35 t-34 -43q-150 -195 -215 -285q-86 -116 -225 -307l-98 -127q-9 -12 -21.5 -11.5t-21.5 11.5q-12 19 4 35q23 21 44 43.5t44 53t35.5 47.5t40 57.5t34.5 50.5q51 77 99 139q147 178 192 246q19 28 56.5 76t52.5 69q23 32 26 107v49q0 17 20 -3q28 -30 28 -54q0 -29 -2 -43z M188 834l15 127q1 25 8.5 31.5t32.5 6.5q107 -4 164 -2q56 0 192 4q30 2 42.5 -4.5t8.5 -21.5q-2 -11 -8.5 -16t-12 -5.5t-16 1t-14.5 1.5q-96 -2 -291 -2q-40 0 -52.5 -12t-12.5 -53v-31q-4 -42 -19.5 -54.5t-58.5 -12.5q-30 0 -41 2q-11 0 -31 20q-3 3 -10 9q-14 12 -8 12 h112z" />
<glyph unicode="[" horiz-adv-x="563" d="M199 745l4 -700q123 9 174 14q26 3 33.5 -3t7.5 -31q0 -28 -4 -82q-2 -28 -35 -25q-51 4 -97 4.5t-107 -1t-97 -1.5q-50 0 -31 201q7 417 6 489q-10 385 -10 480t7 115q11 31 58 37q24 3 76 3q2 0 160 12q40 3 56.5 -9t23.5 -50q4 -20 4 -65q-1 -17 -14.5 -24.5 t-34.5 -4.5l-121 18h-59v-377zM313 1016q0 -52 -7 -430.5t-7 -448.5q0 -16 -10 -26q-15 -15 -23 -15q-10 2 -24 21q-11 7 -6 22q7 25 11.5 213.5t5.5 364.5l1 176q0 22 -1 65t-1 64v47l88 -4l82 -6q36 -3 39 35l14 86q1 3 1.5 11t2.5 13q6 9 23 21q20 -20 20 -27 q0 -19 -3.5 -53t-4.5 -45l-6 -33q-2 -34 -13.5 -45.5t-45.5 -11.5q-69 6 -70 6h-66zM451 -117h-308q-31 0 -45 -2q-10 -5 -14 -16q0 -10 14 -19q6 -4 23 -4q9 0 29 1t36 1l195 -8q21 -1 62 0.5t55 1.5q1 7 5 35.5t5 39.5t2 33t-0.5 40t-5.5 37q-27 23 -40 -29.5t-13 -110.5z " />
<glyph unicode="\" horiz-adv-x="962" d="M872 12q-92 -19 -122 -22q-31 0 -52 8q-9 5 -18 31q-4 9 -9 29.5t-9 29.5q-96 186 -250 471q-20 39 -63.5 116t-63.5 116l-148 270q-4 9 -19 29t-20 32q-7 17 2 26.5t29 6.5q10 -1 29.5 -4.5t35.5 -5.5t31 -2q30 0 49 -31q62 -119 144 -266l151 -279q23 -42 66.5 -128 t66.5 -128q21 -37 64 -110.5t63 -110.5q18 -30 43 -78zM805 -127q-12 1 -30.5 4t-34.5 5t-31 3q-40 3 -66 45q-15 20 -41 84q-75 174 -141 260q-13 17 -24.5 37t-25 46.5t-20.5 39.5l-63 115q-22 42 -79 154.5t-89 171.5q-14 25 -41 68t-37 61q-4 6 -19 41q-4 12 1 19.5 t18 14.5q19 7 31 -16l102 -209l127 -252q5 -10 20 -32t21 -35l100 -195q4 -8 17.5 -21.5t17.5 -19.5q64 -93 137 -264q23 -55 80 -61q19 -1 56.5 -1.5t56.5 -1.5q3 0 12 0.5t13 0t10.5 -2.5t10 -7t5.5 -13q3 -15 -11 -24t-42 -9h-41v-6z" />
<glyph unicode="]" horiz-adv-x="618" d="M457 743l4 -700v-32.5t-2 -26t-5.5 -23t-11.5 -15.5t-19.5 -13.5t-29 -7.5t-41 -6t-55.5 -1q-35 0 -106.5 -1t-108.5 -1q-12 60 -16 86q-2 28 9 38t40 9h178q12 68 12 70q7 417 6 489q-4 148 -20 459q0 17 -6 41h-133q-51 0 -74 2q-25 1 -31.5 9.5t-3.5 33.5l6 39 q3 28 11.5 36.5t35.5 8.5q27 1 80.5 0t79.5 0q74 0 166 6q28 1 33 -26q2 -9 2 -97v-377zM571 1077q0 -43 3.5 -509t3.5 -566q0 -26 -2.5 -65.5t-2.5 -67.5q0 -7 -0.5 -11t-3.5 -8.5t-10 -7t-18 -2.5q-18 0 -78.5 1t-81.5 1h-207q-16 0 -22 4q-15 10 -15 19q3 10 15 16 q14 2 45 2h319q0 2 1 6t1 7q0 28 2 38q2 130 0.5 343t-4.5 415l-4 201q0 25 -1 100t-1 137q0 49 18 45q19 -4 34 -48q9 -26 9 -50z" />
<glyph unicode="^" horiz-adv-x="690" d="M330 1477q-19 -25 -61.5 -77t-63.5 -79q-4 -4 -8.5 -16.5t-11 -19.5t-19.5 -7q-9 0 -28.5 -1.5t-31.5 -1.5t-28 3.5t-29 11.5q-2 1 -8 13l113 129q56 64 84 100q18 29 41 29h122q39 -57 120.5 -150.5t92.5 -107.5q-11 -36 -49 -33q-8 1 -25.5 0t-25.5 0q-38 5 -47 10 q-22 8 -10 39q3 7 -6 16q-3 5 -16.5 24t-19 26t-18 23t-21 25.5t-21 21.5t-25.5 22zM195 1235q7 12 25.5 38.5t25.5 41.5q9 17 23.5 30.5t35.5 27t31 22.5q21 16 37 -17q12 -20 69 -112q21 -34 62 -31q17 2 106 2q14 0 23 -6q16 -8 16 -21q-3 -13 -18 -20q-4 -2 -29 -2 q-13 -1 -55 -1.5t-64 -2.5q-58 -3 -84 51q-6 14 -15 28.5t-21.5 33.5t-18.5 30q-88 -114 -98 -125q-20 -20 -31 -20q-26 1 -73 7t-62 7q-13 2 -20.5 7t-6.5 16q2 18 33 18q37 -2 109 -2z" />
<glyph unicode="_" horiz-adv-x="962" d="M819 86q7 -68 -6.5 -82.5t-71.5 -11.5q-108 6 -215 6q-136 0 -311 -10q-19 -1 -56.5 -5.5t-56.5 -5.5q-32 0 -48.5 20.5t-8.5 49.5q4 23 14.5 30t34.5 7h107q19 0 59.5 -1t61.5 -1l452 6q7 0 22.5 -1t22.5 -1zM866 -31q3 10 3 52.5t22 60.5q26 -6 29 -35q0 -13 1 -37.5 t1 -36.5q0 -31 -14 -45t-46 -14q-22 0 -67 3t-68 3l-219 -8q-25 -1 -127 -2t-127 -2q-16 0 -45 -3t-43 -3q-22 -4 -33 4q-6 4 -10 12.5t-2 13.5q0 6 8.5 14.5t13.5 6.5q48 -9 73 -8.5t72 5.5t72 5q80 2 345 2q83 0 126 2q17 3 35 10z" />
<glyph unicode="`" horiz-adv-x="0" d="M424 1501q52 3 86 -47q56 -79 137 -201q15 -19 15 -36q2 -6 -2.5 -15t-10.5 -12q-51 -34 -86 -8q-2 1 -13 6t-15 10q-86 83 -166 166q-31 31 -21 84q16 59 76 53zM737 1083q-14 -2 -41.5 -6.5t-42.5 -5.5q-6 0 -14.5 7.5t-11.5 13.5q-3 9 14 26q27 18 54 9t42 -44z" />
<glyph unicode="a" horiz-adv-x="1548" d="M1229 102h172q11 0 17.5 -20t6.5 -41v-5.5v-5v-4.5t-0.5 -4t-1 -3.5t-1 -4t-2 -3.5t-3 -3.5l-3.5 -3.5t-5 -4q-12 -10 -51 -10h-420q-28 0 -37 0.5t-20 5.5t-13 16.5t0 32.5q0 7 -2 19t-2.5 19t4 13t15.5 6l161 -4l-69 213q-228 6 -238 6q-47 3 -96 0q-25 0 -82 -1 t-82 -1q-19 0 -28 -5.5t-13 -24.5q-7 -27 -25 -80.5t-24 -75.5q37 -2 133 -2q16 0 29 -11t16 -30q8 -42 -2 -80q-8 -10 -49 -10h-68h-120q-1 0 -95 -2.5t-96.5 -2t-73.5 2.5q-18 0 -19 57.5t19 57.5h203q82 227 131 385l107 319q16 48 94 293q9 30 23 40.5t45 12.5 q69 0 102 -2q40 -3 55 -45q52 -161 92 -268q18 -53 127 -348q122 -315 125 -328q2 -5 5.5 -15t4.5 -13.5t4.5 -10.5t5 -9t5 -6.5t7 -5.5t8.5 -3t10.5 -2.5t13.5 -0.5zM715 1018q-21 -56 -73 -175.5t-87.5 -216t-52.5 -184.5q52 2 209.5 -2t210.5 4q-35 102 -108 300.5 t-99 273.5zM1278 203q14 -34 -4 -41q-6 -2 -20 -0.5t-17 6.5q-13 15 -25 47q-10 25 -48.5 125t-59.5 147q-34 73 -84 230q-6 19 -19.5 52t-17.5 44l-86 223q-19 50 -2 39q25 -16 73 -97q23 -39 33 -65q5 -14 10.5 -29t11.5 -33t9 -28l70 -178q11 -28 31 -86t32 -86l56 -135z M954 -61q-19 19 20 22h23l459 4v82q-3 24 6 36q5 5 11 -1q32 -32 32 -57v-45q-1 -41 -14 -53.5t-53 -12.5q-100 0 -308 -4h-35h-32.5t-27 0.5t-26 2.5t-20 5t-20 8.5t-15.5 12.5zM100 -61q-19 19 20 22h23l459 4v82q-4 25 6 36q4 5 10 -1q33 -33 33 -57v-45 q-1 -41 -14 -53.5t-53 -12.5q-100 0 -308 -4h-35h-32.5t-27 0.5t-26 2.5t-20 5t-20 8.5t-15.5 12.5zM514 229l-6 -45q-1 -11 -15 -19.5t-24 -8.5q-21 0 -14 37q11 48 31.5 64.5t70.5 16.5q48 0 137.5 -3.5t118.5 -4.5q19 0 60 1t65 1q11 0 19 -13.5t8 -25.5h-121 q-38 0 -114.5 3.5t-115.5 3.5q-66 0 -100 -7zM592 530q5 20 16 51t15 44q6 27 20.5 77.5t20.5 73.5q9 36 23.5 59t29.5 23q11 0 16 -31t-2 -45q-13 -34 -22 -73l-56 -174q-3 -12 -13.5 -21.5t-23.5 -9.5q-14 0 -22 7t-2 19z" />
<glyph unicode="b" horiz-adv-x="1110" d="M266 1018h-203q-21 1 -23.5 51.5t13.5 65.5q13 13 28 16.5t50 3.5q276 -6 279 -6q55 -2 80.5 -3.5t78.5 -6t85 -12.5t73 -20.5t72 -32.5t55 -46q52 -57 64 -125.5t-9.5 -127t-66.5 -103.5q-18 -18 -55.5 -46t-49.5 -38q8 -8 19 -16.5t19.5 -14.5t22.5 -15t21 -14 q6 -5 24.5 -19t27 -21.5t21.5 -20t21.5 -25.5t14.5 -28q28 -79 10 -160q-34 -141 -195 -225q-68 -36 -135 -39q-25 -1 -56.5 -4t-57 -4.5t-56.5 -1.5q-106 -2 -311 2q-1 0 -49 6l-12 6q-14 9 -19.5 55t6.5 57q9 9 27 9q84 0 127 -6q35 -5 47 4.5t12 44.5q2 0 1 134l-1 134 q1 32 3 91.5t3 108.5t0 93q-2 59 -2 178v64q0 21 -4 57zM383 111q88 -6 129 -5q66 2 116 12t93.5 32t67.5 61t28 96q0 64 -45.5 115t-122.5 76q-110 35 -262 18q-9 -64 -2 -202t-2 -203zM391 649h68q6 0 9 -0.5t3.5 -1l1 -1t3.5 -0.5t9 1q65 0 99 6q60 12 118 67t58 118 q0 77 -65 123t-152 51q-76 6 -144 6q-10 0 -20 -2q3 -198 12 -367zM197 -127q-41 0 -71 29q-22 20 -4 25q1 1 3 1q7 2 24 2t37.5 -1t24.5 -1q77 1 118.5 0.5t95.5 0t118 3.5q120 6 227 51.5t174.5 123.5t67.5 169q0 96 -38.5 169t-117.5 110q-60 29 0 66q74 43 109 108 q42 94 8 176q-26 62 -7 61q18 -1 44 -42q30 -47 30 -93q0 -57 -11 -96t-48 -88q-5 -6 -14 -14t-11 -10q-22 -25 -22.5 -32.5t22.5 -29.5q43 -37 78 -115t35 -145q0 -100 -41 -179.5t-107.5 -128t-140.5 -75.5t-151 -33q-43 -4 -84.5 -6t-68.5 -2.5t-75.5 -0.5t-81.5 -1 q-61 -2 -122 -2zM494 410v-195q0 -4 2 -14t2 -15q1 -17 -7 -26.5t-22 -9.5q-28 3 -31 32q0 62 -4 148q0 14 -1 30t-2.5 35.5t-2.5 30.5q-3 31 5.5 41t37.5 10q84 0 135.5 -14t102.5 -49q48 -31 57 -92q4 -34 -23 -37q-13 -1 -19.5 7t-8.5 21q0 30 -37 52q-94 59 -184 45z M551 909l-62 2l-2 -163v-29q-10 -25 -20 -25q-12 -3 -20.5 4t-10.5 21v125q-2 25 -2 74q2 31 8 37t43 6q43 0 105 -9q40 -5 72 -25.5t40 -54.5q7 -19 4.5 -26.5t-9.5 -5.5t-15 10q-21 24 -47.5 37.5t-41.5 16t-42 5.5zM102 971l88 -2q14 -1 22.5 -11.5t6.5 -23.5 q0 -6 -8 -14t-16 -11q-14 -4 -45 -4q-2 0 -8 1t-8.5 1.5l-7.5 1.5t-7.5 2.5t-7 3.5t-8 4.5t-8 6t-9.5 8.5q-9 9 -4 22.5t20 14.5z" />
<glyph unicode="c" horiz-adv-x="985" d="M664 750q0 20 2 54t2 48q1 57 -27 91t-82 61q-131 63 -276 -39q-42 -31 -64 -80q-52 -117 -55 -277q0 -172 20 -256q44 -171 183 -233q36 -17 120 -16.5t129 14.5q37 13 50.5 32.5t15.5 59.5q1 12 1 37.5t1 38.5q1 30 13 40.5t42 8.5q27 -3 58 0q25 3 35 -5.5t12 -33.5 q0 -176 -127 -270q-100 -74 -244 -68q-177 6 -293 131q-37 37 -63.5 87.5t-40 96t-21.5 116.5t-10 118.5t-4 132.5q0 188 90 313q94 133 215 178q125 40 236 2t180 -131q16 -24 26 -34q40 -43 37 -109q-2 -21 6 -61q6 -38 -7.5 -53.5t-51.5 -14.5q-2 0 -10.5 -0.5t-17 -0.5 h-20.5t-22 1.5t-19 3.5t-14 6.5t-5 10.5zM449 969q14 0 26.5 -1.5t21 -2.5t19 -6t15 -6t15 -9t12 -9t13.5 -11t13 -11q12 -9 16 -24q5 -14 -5.5 -22.5t-23.5 -2.5q-7 2 -19 10.5t-17 10.5q-136 66 -218 -45q-21 -26 -33.5 -70t-15.5 -76t-6 -84q-6 -55 -2.5 -126.5 t27.5 -125.5q22 -53 73.5 -113.5t96.5 -78.5q18 -7 30 -19q13 -13 -17 -10q-10 1 -24 4q-123 25 -186 132.5t-57 244.5q0 5 1.5 43t2.5 54t4 53.5t7.5 61t11.5 54.5t17.5 56.5t24.5 46.5q51 78 177 82zM156 43q7 0 17 -5.5t18 -12t21 -17.5t19 -16q115 -89 261 -92h59 q181 0 289 168q45 72 45 176q0 61 9 71q7 7 21 2q5 0 12 -6t7 -10q0 -15 4 -43q11 -102 -41.5 -208t-144.5 -150q-73 -31 -122 -44.5t-104 -13.5q-152 0 -290 97q-68 49 -86 86q-9 18 6 18zM727 692h57q52 0 68 13.5t16 56.5q0 12 -2 40q-4 77 9 78q5 1 14 -8 q18 -18 18 -100q0 -50 -4.5 -76.5t-22.5 -41.5t-42.5 -18t-75.5 -3q-12 0 -35 1t-35 1q-28 4 -28 27q0 20 12 25t51 5z" />
<glyph unicode="d" horiz-adv-x="1126" d="M289 111v237l6 293v381q-24 6 -27 6q-74 0 -180 -4q-25 -2 -36.5 9.5t-8.5 35.5q4 25 2 37q-2 22 5.5 31.5t27.5 9.5q23 0 69 -1t68 -1q32 0 104.5 1.5t105 1t92 -5.5t99 -16t91 -33t100.5 -55q61 -39 102 -100.5t60.5 -138t27 -145.5t7.5 -152q0 -140 -84 -287 q-37 -62 -86 -106q-64 -64 -154 -99q-79 -28 -158 -28q-121 2 -440 -7q-23 0 -28.5 5.5t-6.5 31.5v25q-3 30 7 45.5t38 19.5q20 2 107 7q9 0 45 1t45 1zM426 104q69 0 101 2t80 16t91 44q85 60 132 161t47 199q0 99 -26.5 204.5t-86.5 176.5q-119 141 -338 127 q0 -96 -3 -285.5t-3 -348.5t6 -296zM975 918q-27 48 -8 47q18 -1 53 -43q94 -113 94 -394q0 -162 -43.5 -279t-157.5 -226q-71 -68 -170.5 -107.5t-195.5 -38.5q-44 0 -125 -1t-127 -1h-119q-2 0 -12 1t-14 1.5t-12.5 3t-15 6.5t-13.5 11q-9 9 16 17q36 11 108 11h259 q140 2 230 39.5t187 140.5q74 78 109 177.5t39 244.5q0 244 -82 390zM530 903q0 -37 3 -239t-1 -242q-1 -27 -1.5 -75.5t-1.5 -88.5t-3 -76q0 -37 -28 -37q-27 3 -27 39q0 47 2.5 282.5t-0.5 283.5v229q11 18 55.5 7t83.5 -30q176 -89 176 -286q0 -34 -16 -35q-14 -1 -21 25 q-2 8 -3 18q-6 74 -73.5 140.5t-144.5 84.5zM86 958q-23 23 24 24q16 1 53 -2q32 -2 42 -1q14 0 23 -8.5t8 -22.5q0 -13 -10 -20.5t-23 -7.5q-56 0 -74.5 5.5t-42.5 32.5z" />
<glyph unicode="e" horiz-adv-x="1052" d="M391 102h359v199q5 4 10.5 6.5t12.5 4t11.5 2.5t12.5 0.5t11.5 -0.5t13 -1.5t11.5 -2t13 -3t12 -2.5q26 -6 23 -43q-2 -17 -2 -104q0 -24 1 -73.5t1 -74.5q0 -33 -37 -33q-41 0 -123.5 -1t-124.5 -1q-20 0 -62 1t-63 1q-210 5 -248 5q-81 0 -96 -2q-29 -6 -80 8 q0 3 -3 35.5t-3 48.5q0 18 13 28.5t34 8.5q18 -1 52 -5.5t50 -5.5h74l4 901q-26 7 -86.5 9.5t-89.5 15.5v92q2 28 10 36t33 5q24 -2 75 -7t89.5 -7.5t73.5 -1.5q29 1 88 0t88 0q68 4 278 0q7 0 21.5 -3t17.5 -3q39 -8 39 -54v-256q-77 -24 -141 -4q-31 12 -27 64l11 119 q-62 12 -84 12q-41 1 -114.5 -0.5t-96.5 -1.5q-38 -2 -45.5 -8.5t-10.5 -44.5l-12 -316q-2 -11 2 -45h191q18 -1 59.5 1t73 -0.5t61.5 -12.5q0 -10 0.5 -28t0.5 -33t-1 -29q-3 -26 -13 -32.5t-40 -4.5q-106 2 -318 2q-6 0 -10 -2v-359zM911 -55q13 164 21 301q0 35 24 35 q20 0 25 -31q3 -20 0 -41l-14 -199q-1 -21 3 -64l3 -44q0 -8 -152 -8l-461 4q-24 1 -51.5 1t-60.5 -0.5t-51 -0.5q-24 0 -64 8q-25 8 -35 18q-14 17 -7.5 22t28.5 5q18 0 183 -2.5t187 0.5q44 2 128.5 -2.5t123.5 -3.5q55 2 170 2zM813 408l-2 71v43q0 22 5.5 30t19.5 -3 q18 -18 18 -51l-2 -113q0 -25 -113 -25q-35 0 -192 5q-7 0 -26.5 -1.5t-31.5 -1.5q0 -104 -2 -153v-39q-1 -9 -3 -15t-7.5 -11t-13.5 -3q-29 5 -31 17q-2 13 -2 29t1 36t1 29v117q0 21 9.5 30.5t20.5 11t38 1.5l280 -6q19 0 33 2zM492 887v-232q-38 -3 -46 5.5t-6 44.5 q2 63 2 194v23q0 34 7 40.5t40 6.5h11h215q0 -26 -16.5 -37.5t-55.5 -11.5t-113 4q-23 1 -29.5 -6t-8.5 -31zM950 780q5 29 7 81.5t1 97.5t0 90q6 58 21 43q4 -4 12.5 -12t11.5 -11t6 -9.5t3 -12.5q-6 -111 -6 -115q-1 -19 -1 -46t0.5 -58t0.5 -42q0 -35 -10.5 -43.5 t-53.5 -11.5h-96q-13 -2 -33 5t-31 18q-7 9 -8 14t6.5 7.5t14.5 3.5t16 1h139zM190 924q-38 1 -52 7.5t-11 18.5q3 9 9.5 14.5t11.5 6.5t17 1.5t15 0.5q19 4 33 -2q20 -10 20 -23q0 -5 -6.5 -12t-13.5 -8z" />
<glyph unicode="f" horiz-adv-x="1083" d="M768 1010q-194 14 -330 2q-5 -68 3 -193.5t8 -171.5q42 -4 122 -8l230 -2q28 -2 36 -10t5 -37q-3 -57 -13 -66.5t-65 -11.5l-127 4l-184 2q-3 -37 2.5 -104.5t5.5 -91.5l-6 -205q28 1 79.5 1t77.5 1h47q40 0 48 -8t8 -48v-53q0 -9 -1.5 -15t-3.5 -8.5t-5 -6t-5 -7.5 q-25 0 -122.5 8t-149.5 1q-22 -2 -81 -0.5t-83 0.5q-16 0 -49 -3.5t-49 -3.5q-51 -5 -64 -4q-24 4 -34 21q-24 44 -5 98q4 18 22.5 21.5t35.5 -0.5q31 0 89 -3.5t71 -3.5q32 -1 37.5 5t7.5 41q0 47 -4 145q-3 285 -3 569q0 16 1.5 46t1.5 44q2 18 -5 54h-159q-50 -5 -60.5 5 t-9.5 62q0 13 4 29q4 24 16 33.5t37 9.5q45 -4 138 -4q29 -1 83 -2.5t98 -2.5t83 -1q25 0 75 3t74 3q139 5 166 4q36 0 47 -13t11 -49q0 -64 4 -190q2 -14 2 -47q-3 -24 -13.5 -31t-35.5 -2l-46 2q-31 0 -40.5 9t-12.5 42q0 37 -4 107q0 17 -6 35zM891 471l-4 92 q0 3 -1 11.5t-1 13t4 9.5t12 7q12 3 27.5 -12t15.5 -29q3 -61 -2 -110q-3 -45 -57 -45q-23 0 -72 2t-72 2q-54 0 -176 -4q0 -20 0.5 -62t0.5 -66t-2 -58t-7 -62q-31 2 -39 8t-8 31l4 225q2 28 14 39t39 8q29 -2 130.5 -0.5t131.5 -7.5q4 -1 62 8zM760 -66q3 7 1.5 55 t-1.5 58q0 2 -0.5 11.5t0 13t4.5 8.5t12 6q14 3 24.5 -7.5t10.5 -27.5q0 -45 2 -80v-14v-11v-8.5t-0.5 -7.5t-1 -5.5t-1 -5.5t-2 -5.5t-3 -6l-4.5 -7.5q-14 -19 -45 -19l-441 4q-29 -1 -82.5 0.5t-70.5 1.5h-8.5h-10t-8 1t-7.5 3.5t-4.5 6.5t-2.5 10q-2 14 10 22.5t33 8.5 l180 -5q144 -4 215 -4q61 0 201 4zM475 965q56 6 96 6q58 3 113 0q13 0 21 -2q15 -2 24 -10.5t8 -22.5q0 -25 -35 -25l-120 9q-34 3 -45.5 -7t-8.5 -43l19 -145q4 -29 -15 -31q-6 0 -18.5 6t-15.5 7l-6 18q-19 149 -17 240zM803 772q0 4 2 5.5t7.5 2t11 0t17 -1t21.5 -0.5 h96v17l5 213q0 72 4.5 77t15.5 -10q27 -36 27 -108q0 -49 -1 -99t-1 -98q0 -22 -6.5 -31t-26.5 -12q-53 -5 -125 18q-47 13 -47 27zM201 956q5 -2 23 -5.5t28 -6.5q7 -3 14.5 -10.5t9.5 -13.5q-4 -20 -22 -31q-12 -8 -27 -4q-54 11 -61 14q-17 7 -25 27q-2 7 3 12.5t8.5 7 t13.5 4.5q3 1 14.5 2.5t20.5 3.5z" />
<glyph unicode="g" horiz-adv-x="1161" d="M778 295l-6 104q-15 -1 -174 -8q-10 -2 -45 6v99q0 32 39 32l74 -1q73 -1 73 1l234 7q9 0 71 -5q32 -4 29 -32q-1 -12 -12 -74q-6 -31 -41 -21q-41 8 -127 -4q-2 -18 -2.5 -26.5t-0.5 -14t0.5 -23t0.5 -42.5q0 -145 -109 -229t-268 -84q-129 3 -266 81q-132 79 -172 240 q-38 140 -35 279q2 105 33.5 203t88.5 178.5t148.5 129t204.5 48.5q148 0 283 -78q44 -27 66.5 -57.5t17.5 -77.5q-2 -17 2 -48.5t4 -46.5t-11 -24t-32 -11t-33 -2t-33 1q-24 1 -34 11.5t-13 35.5q-2 23 -2 67q0 25 -24 56q-51 67 -197 67q-91 0 -171.5 -65t-126.5 -159 t-50 -187q-5 -94 24 -228q15 -68 36.5 -115t66.5 -79q16 -10 46.5 -31t41.5 -27t34.5 -16t47 -13t57.5 -3q96 0 181 58.5t81 127.5zM256 -37q-38 32 -3 30q18 -1 44 -9q128 -66 256 -66q60 0 127.5 21t127.5 58t99 96.5t39 129.5q2 43 2 96q-2 24 6.5 32t32.5 5l113 -10v121 q0 23 4 35q2 8 13 15.5t18 6.5q7 0 15.5 -10t8.5 -18q2 -66 2 -168q-1 -23 -9 -30t-32 -7l-98 8l-6 -37q-12 -185 -144 -293t-331 -108q-92 0 -157 24t-128 78zM279 508q0 -83 43 -142t122 -118q14 -11 39.5 -16t39 -11t9.5 -24q-2 -14 -32 -19q-47 -5 -107 31 q-102 66 -137 146t-35 218q0 247 152 353q61 39 112.5 50t128.5 -5q40 -8 64.5 -32t19.5 -38q-10 -24 -45 -12l-26 12q-40 28 -88.5 24t-88.5 -22.5t-69 -46.5q-78 -72 -98 -197q-7 -39 -4 -151zM807 741l127 -10v152q0 21 4 57q0 28 35 25q8 -24 8 -41q6 -72 14 -205 q2 -27 -10.5 -39.5t-38.5 -9.5l-174 18q-19 3 -33 17q-12 11 -6 23.5t21 14.5q16 2 53 -2zM750 334q0 -40 -17 -43q-5 -4 -33.5 0t-33.5 4q-6 0 -25 9.5t-27 17.5q-18 18 -18 23q1 5 14 5q17 0 63 -3t60 -3h3q14 0 14 -10z" />
<glyph unicode="h" horiz-adv-x="1560" d="M434 1030v-358q47 -18 178 -23.5t255 -1.5t196 12l4 37q4 156 4 236q0 26 -8 96l-152 10q-27 0 -39 6q-28 10 -20 37q2 11 4 34t4 34q1 21 9 26.5t32 2.5q172 -23 322 -9q65 6 196 2q6 0 12.5 -7t8.5 -13q6 -41 6 -78q1 -17 -8.5 -25t-26.5 -8l-131 -4q-16 0 -46.5 -3 t-35.5 -3l-6 -65l-6 -211v-86q0 -106 -4 -314q0 -65 4 -209q0 -3 1 -6.5t3.5 -10t3.5 -11.5q30 4 86 8l121 12q24 3 35 -20q2 -6 2 -23q-1 -9 -2 -29t-3.5 -34.5t-7.5 -24.5q-2 -3 -8 -4.5t-16 -2t-18.5 -0.5t-21.5 0.5t-20 0.5h-237q-20 0 -60 2t-61 2q-14 0 -40 -1t-38 -1 q-23 -1 -32.5 6t-12.5 29l-4 41q-3 45 41 45q49 -2 150 -2q0 3 3 17.5t3 21.5l10 237q0 14 1 40t1 38q2 25 -4.5 33.5t-28.5 9.5q-47 3 -103 10t-75.5 7t-103.5 -5q-17 -3 -37 -3t-45 1.5t-39 1.5h-183q-15 -66 -17 -220t11 -195q180 13 193 14q27 3 35 -3t8 -32 q0 -28 -4 -82q-3 -28 -35 -24q-148 15 -342 2q-31 -3 -64.5 -3.5t-81.5 0.5t-69 1q-1 10 -7 39.5t-7 46.5q-3 27 8 38t41 11q55 -2 176 -2q1 8 4.5 22t5.5 25.5t2 21.5q8 233 6 347q-1 68 -4 141.5t-7.5 160.5t-6.5 140q0 7 -2.5 22.5t-3.5 20.5q-1 0 -68 -1t-67 1l-37 -1 q-37 -1 -37 1q-23 1 -29.5 9.5t-3.5 33.5l6 39q3 29 11 37.5t36 9.5q26 0 80 -1t80 -1q27 0 58 1t69 2.5t59 2.5q31 2 100.5 4t78.5 2q26 2 36.5 -2t14 -12t10.5 -39q5 -25 2 -61q0 -15 -14 -23t-33 -6q-20 3 -70.5 6t-70.5 6h-62zM1493 1143q12 -25 17.5 -53t5 -47 t-2.5 -50t-2 -47q-36 -7 -104.5 -5.5t-106.5 -2.5q-12 -58 -8 -150q1 -48 0.5 -71.5t-3 -71t-3.5 -70.5q-3 -72 4 -161q7 -72 2 -125q-2 -18 -1.5 -47t-0.5 -49q0 -35 -20 -35q-16 0 -25 10t-10.5 21.5t-1.5 29.5q4 160 4 232q2 70 2 208q-6 234 -6 238t-1 20.5t-0.5 23.5 t6 17.5t17.5 16.5q31 16 74 16q26 1 137 -4q4 10 6 22.5t2 21t-0.5 24.5t-0.5 24q0 58 1 61q3 19 19 3zM547 428l-10 -219q0 -12 -11.5 -27t-23.5 -12t-21.5 14.5t-9.5 26.5v170q2 24 -10 74q10 30 47 30q120 -5 280 -8h95q88 0 137 -16q3 -43 -37 -43q-45 0 -53 2 q-53 14 -228 14q-61 0 -92 -2q-39 0 -63 -4zM913 -53q-13 16 -10.5 18.5t22.5 1.5h13q154 0 307 -6q16 -1 46.5 -2.5t54.5 -2.5t45 -1q13 1 35 -0.5t28 -1.5q8 0 11 6t3 19.5v15.5q7 54 7 92q0 4 -3 10t-9 14.5t-7 10.5q11 19 36 -5q28 -28 28 -67v-22q-2 -63 -26.5 -94 t-80.5 -25q-49 6 -199 6q-82 4 -124 4h-101q-47 0 -76 29zM549 930v-189q0 -14 -2 -18q-12 -29 -31 -25q-27 7 -27 31q3 47 3 92q0 21 -1.5 56.5t-1.5 58.5v45q55 0 109 -4l82 -6q19 0 27.5 8t11.5 27q0 9 -2 42.5t-2 43.5q0 5 -1 14.5t-1.5 14.5t0.5 11.5t5 7t11 -0.5 q8 -3 20.5 -21.5t12.5 -25.5v-95q0 -35 -13 -51t-44 -16h-68q-9 1 -24 1t-35 -0.5t-29 -0.5zM709 -45v96q0 54 8 54q4 0 10 -11q3 -5 9.5 -16.5t10 -18.5t6.5 -16.5t3 -17.5t1 -25t1 -25q0 -37 -22 -52t-99 -15q-71 2 -193 10q-10 0 -31.5 -2t-31.5 -2h-207q-15 0 -24 6 q-16 4 -36 27q-7 8 -3 8h598zM252 979q6 -47 -31 -47h-112q-55 55 -17 53h6q10 -1 70.5 -2.5t83.5 -3.5zM1030 985q5 0 5.5 -13.5t-3.5 -17.5q-15 -12 -74.5 -13.5t-76.5 9.5q-9 6 -8.5 19t10.5 16q80 20 147 0z" />
<glyph unicode="i" horiz-adv-x="819" d="M113 121h159q9 195 13 308.5t3 280.5t-12 308h-88q-9 0 -37.5 1t-37.5 1q-48 -2 -59 9t-11 63q0 42 12.5 54.5t46.5 12.5q247 -11 293 -12q1 0 211 6q3 0 11 0.5t12 0t11 -1.5t12 -3.5t10 -7.5q7 -6 3 -58.5t-12 -58.5q-16 -8 -26 -8q-81 0 -199 4q-3 0 -10.5 -1 t-11.5 -1q-1 -6 -4.5 -29t-2.5 -35q16 -172 15 -276.5t-6.5 -278t-1.5 -280.5q86 4 143 4q27 2 78 2q34 0 37 -33q3 -37 0 -74q-1 -21 -11 -27.5t-35 -6.5q-69 0 -211 2t-227 2q-61 0 -110 8q-31 5 -27 41l10 53q12 34 60 31zM475 961q26 -1 80.5 -6t82 -6t77.5 5v78 q0 3 -1.5 15.5t-0.5 19.5q2 14 10.5 24.5t21.5 10.5q31 0 27 -39l-6 -141q-1 -21 -10 -28t-31 -5q-45 2 -156 2q-28 0 -36 -8.5t-11 -38.5q-4 -19 -1 -140.5t3 -140.5q0 -41 -3.5 -116t-4.5 -99q-2 -47 -2 -137q0 -32 -29 -45q-16 1 -20 10.5t-4 30.5v69q4 80 8 240 q2 62 2 391q0 14 4 54zM111 -76q-16 16 20 22q16 2 33 1q64 -3 144.5 -5t121.5 -3l289 4q4 45 4 96q-2 23 7 40t28 11q18 -4 18 -41q0 -27 -2 -66t-2 -67q0 -31 -35 -31q-50 3 -143 -1t-129 -3q-252 6 -262 6q-27 0 -53.5 12.5t-38.5 24.5zM207 922h-12q-13 1 -35.5 1 t-28.5 1t-20.5 10.5t-20.5 15.5q-3 3 -4 5.5t0 4l2 3t4 2.5l4.5 1.5t5.5 1.5l4 1q29 4 89 4q26 0 34.5 -5.5t8.5 -23.5q0 -5 -0.5 -8.5t-1 -5.5t-3 -4t-3.5 -2.5t-4.5 -1t-5 -0.5h-6.5h-7z" />
<glyph unicode="j" horiz-adv-x="854" d="M723 1153q5 -11 8.5 -21.5t4.5 -24.5t1.5 -21.5t0 -25.5t-0.5 -22q0 -28 -37 -24l-235 10q-8 -13 -8 -20q0 -112 4 -342v-19q0 -37 1.5 -102.5t1.5 -118.5t-3 -100q-4 -91 -12.5 -149t-31 -123.5t-67 -118t-114.5 -99.5q-34 -23 -51.5 -18t-34.5 43l-7 16q16 22 56.5 59 t56.5 58q86 112 86 377q0 1 -1 171t1 171q0 101 -4 301q0 14 -2 20h-223q-44 0 -53 8t-15 54q0 3 -1.5 14.5t-0.5 17.5q0 33 35 33q142 -6 342 -10q16 0 50 3t52 3l176 6q1 0 25 -6zM778 975q-1 23 1.5 65t2.5 56q0 8 5.5 16.5t11.5 9.5q9 3 16 -12q7 -9 12 -41v-133 q0 -21 -57 -21q-22 -1 -99 -0.5t-102 -1.5v-84q22 -211 15 -518q-8 -233 -66 -356q-34 -68 -92 -126t-125 -85q-35 -13 -43.5 2t16.5 39q42 42 107 100q32 26 57 71.5t35.5 76.5t28.5 90q20 72 22 158.5t-5.5 194t-6.5 159.5q0 41 -1 125t-1 123q0 82 29 86h18q24 0 82 2.5 t80 -0.5q22 -4 59 4zM211 977h57q14 -2 23 -9t6 -18q-2 -11 -9 -22.5t-16 -12.5q-33 -6 -82 -3.5t-81 12.5q-18 5 -26.5 15.5t-8.5 18.5q1 4 9.5 10.5t14.5 8.5q9 1 31.5 1t49.5 -0.5t32 -0.5z" />
<glyph unicode="k" horiz-adv-x="1464" d="M528 575l256 -245q21 -17 46.5 -40t43.5 -40.5t47.5 -47t45.5 -44.5q42 -41 79 -49t113 -5l166 2q1 -21 -0.5 -52t-1.5 -42q0 -10 -23 -22q-8 -4 -28 -4l-232 4l-200 6q-9 0 -27.5 -3t-26.5 -3q-35 0 -41 35l-4 18q-9 43 2 57.5t54 14.5h71q-13 17 -44.5 42t-37.5 31 q-53 52 -166 150.5t-161 144.5q-13 13 -39.5 36t-38.5 34q-6 -76 -6 -141q0 -18 2 -55t2 -56v-207q40 -5 153 4q3 0 23 4t31 4q30 3 30 -28v-25q-4 -44 -12.5 -51.5t-54.5 -9.5q-196 -4 -295 -4q-97 -4 -145 -2q-41 5 -46 18q-12 30 -12 78q0 9 8.5 13.5t20.5 2.5 q23 -2 65 -2.5t56 -1.5h41q1 2 3.5 4.5t3.5 4t1 3.5q4 250 4 375q0 35 -6 209t-6 314q0 8 -4 20h-183q-9 12 -11 29.5t-0.5 33t-0.5 33.5q-1 2 1.5 5t7 7t8.5 7t11 7.5t9 6.5q4 2 8.5 2t11 -1t9.5 -1l387 -6q37 0 43 2q33 11 67 -19l-6 -77q-3 -27 -29 -27q-61 -2 -190 -2 l-8 -401q49 32 98 68.5t103.5 81t90 74t99 84t88.5 75.5q-21 18 -88 12q-31 -1 -36 5.5t-5 43.5q0 6 -1 20t-1.5 22.5t3.5 18t13 13.5q29 10 74 10q14 1 39 -1.5t35 -2.5q170 -8 250 -10q19 0 55 3t55 3q46 1 64 -18t16 -66q0 -4 -1 -13.5t-1 -13.5q-30 -22 -86 -22 q-92 6 -188 0q-29 0 -52 -23q-99 -84 -401 -350q-4 -3 -68 -62zM668 580q22 -32 32 -41q45 -41 128.5 -114.5t115.5 -102.5q80 -74 160 -154q5 -5 -1.5 -9t-21 -7.5t-16.5 -4.5l-12 4t-12 6.5t-9.5 6.5t-9.5 9t-8 8.5t-9 10t-8 9.5q-4 4 -143 131q-175 157 -225 200 q-2 2 -9 7.5t-10.5 8.5t-8 8t-6.5 9.5t-1 9.5q5 13 285 236q18 15 60.5 53t66 55.5t66.5 34.5t89 17q2 0 191 6q1 11 4.5 45t5.5 51q0 27 6 33q18 18 35 18q6 -1 13 -11.5t7 -16.5q-3 -76 -12 -146q-3 -31 -41 -28h-184q-45 0 -97.5 -24t-79 -44t-77.5 -61q-2 -1 -20 -18 t-32 -28.5t-43 -35t-71.5 -56.5t-97.5 -75zM854 -96q-33 5 -49 26q-5 20 26 23q17 0 50 -2t49 -2q125 -2 377 -2q36 0 41.5 6.5t7.5 42.5q0 26 12 76q8 19 28 -1q19 -20 19 -44q-1 -11 -8 -84q-3 -34 -43 -41q-32 -4 -49 -4h-395zM156 -74q-23 23 8 25q11 1 41 -1 q27 -1 41 -1q125 -2 346 -2q36 0 41.5 6.5t7.5 42.5q0 26 12 76q8 19 27 -2q18 -21 18 -45q-2 -45 -6 -82q-3 -34 -43 -41q-32 -4 -49 -4h-364q-20 1 -25.5 1.5t-16.5 3t-18.5 8t-19.5 15.5zM424 745q0 97 -2 156q0 36 -2 43q-10 33 24 43q30 6 60 6q28 0 80.5 -3t64.5 -3 v70q0 3 -2.5 11t-1.5 11q4 22 14 27q10 6 17.5 -0.5t9.5 -18.5q2 -19 2.5 -44t1.5 -35q0 -35 -16 -45.5t-60 -10.5q-22 0 -74.5 1t-76.5 1v-102q-1 -16 0.5 -46t-0.5 -46q0 -29 -39 -15zM463 399q0 -30 4 -117t4 -102q5 -35 -22 -35q-14 -1 -20.5 7.5t-8.5 23.5l-6 117 l2 127q0 20 17 20q19 1 27 -23q3 -8 3 -18zM207 961q0 -29 -37 -29q-24 0 -76 33q-11 7 -9 14t15 8q43 7 75 2t32 -28z" />
<glyph unicode="l" horiz-adv-x="976" d="M588 1139q3 -3 4 -12.5t1 -18t-0.5 -20.5t-0.5 -15q-2 -31 -10.5 -40t-38.5 -9q-46 0 -80.5 0.5t-50 1t-26 1t-15 0.5t-9.5 -1q-4 -25 -4 -72q-3 -93 -3.5 -188.5t0.5 -224t1 -179.5q0 -49 -2 -131.5t-2 -119.5h350q11 181 11 192q1 18 1 56.5t1 56.5q0 22 6 27.5t29 7.5 q48 0 66 -18.5t18 -67.5q-1 -26 -5 -93t-4 -102q-1 -25 1.5 -70t2.5 -63q0 -36 -10.5 -46t-46.5 -9q-41 0 -86.5 1t-101 2.5t-86.5 2.5l-17 2h6q-145 0 -217 -2q-18 -1 -40 -3.5t-46 -2.5q-45 -3 -90 0q-12 0 -22.5 13t-10.5 30q0 39 5 51q1 9 9.5 17.5t16.5 10.5 q61 7 107 7q9 0 12.5 -1t17.5 -1q17 219 11 448q-3 70 -1.5 231.5t-2.5 231.5q-79 0 -132 -4q-37 -5 -49.5 6.5t-11.5 46.5v21q0 32 19 48.5t51 14.5q43 -4 94.5 -3.5t91.5 -0.5h82q23 0 70 -1t71 -1q6 0 17.5 0.5t17.5 0.5t13 -1t11.5 -3t6.5 -5zM621 991q0 7 3 36t3 44 q0 43 26 45q14 0 18.5 -8t6.5 -29q0 -60 -4 -81.5t-17 -34.5t-17.5 -16.5t-24.5 -7.5t-46.5 -4.5t-89.5 -0.5q-15 -73 -12 -146q1 -64 4.5 -186t3.5 -173t-4 -167q-1 -17 -0.5 -34.5t0.5 -33t-2 -18.5q-3 -7 -7 -8.5t-18 -1.5q-31 0 -34 6q-2 8 -1.5 23.5t1.5 45t0 44.5 q-7 349 4 620v29q-2 37 10 48t49 7q61 -4 148 2zM868 -70q4 28 4 35l9 346q0 32 6.5 62.5t21.5 15.5q6 -6 10.5 -11.5t7 -12.5t4.5 -10.5t2.5 -12.5t0.5 -12v-15v-16l-12 -350q-2 -42 -17 -59t-53 -17q-50 0 -150 3t-149 3q-48 0 -52 -3.5t-52 -4.5q-17 0 -53 3t-54 3 t-38 -1t-44.5 -2.5t-38.5 -2.5q-2 0 -39 2q-13 2 -35 12.5t-32 20.5q-24 24 17 26q11 1 41 0h24q6 0 92 -4q17 0 53 2t53 2q59 -1 85.5 -3t84.5 -3q38 -1 81.5 -1t97.5 0.5t83 0.5q9 0 41 4zM78 950q-23 23 11 30q18 3 52 3q7 0 22.5 -1t22.5 -1q13 0 16.5 -11.5t0 -22.5 t-7.5 -11q-103 0 -117 14z" />
<glyph unicode="m" horiz-adv-x="1591" d="M342 907q0 -42 -2 -136t-2 -136l6 -520l66 10q31 6 46.5 -5.5t18.5 -43.5q0 -3 1 -9.5t1 -9.5q2 -42 -13.5 -60t-62.5 -17q-61 2 -176.5 -2.5t-128.5 -4.5q-8 0 -24 3t-21 4q-1 13 -4.5 43.5t-3.5 46.5q1 31 12.5 40.5t42.5 6.5l129 -13v918q-8 0 -61.5 -2t-89.5 -1 t-43 7q-8 8 -13 45t5 74h114l254 4q29 0 38 -6.5t18 -34.5q49 -170 151 -506q51 -176 111 -358q0 -2 3.5 -6t4.5 -7q1 1 6 5t6 6q41 109 89.5 230t119.5 296.5t115 286.5q2 4 7.5 20.5t10.5 24.5q19 42 66 39q72 -2 231 -2q11 0 35 4q28 4 36.5 -5.5t6.5 -39.5v-35 q1 -34 -12.5 -45.5t-49.5 -9.5q-36 0 -129 -5q-5 -35 -5.5 -70.5t0.5 -86t1 -68.5q0 -89 4.5 -244t4.5 -243q0 -13 -1 -37t-1 -37v-94h112q60 0 60 -45q1 -16 -0.5 -34t-1.5 -28q0 -28 -35 -28q-148 0 -207 2l-176 4q-9 0 -37 4q0 8 1 23t1 22q0 58 13 69t77 13q12 0 66 -6 q14 43 14 149q0 30 -3 92t-3 93q-1 58 -1 171t-1 171v127q-51 -97 -56 -113q-31 -95 -120 -293q-14 -31 -35.5 -92t-30.5 -82l-123 -303q-9 -23 -41 -36t-57 -5q-6 2 -10.5 5.5t-7 6t-5.5 9t-3.5 8t-3.5 9.5l-3 9q-56 194 -61 211q-22 72 -67 209.5t-50 152.5 q-4 15 -13.5 53.5t-15.5 57.5q-29 88 -67 161q-27 51 -27 19zM1505 958q0 6 -0.5 58.5t0.5 52.5q2 21 7.5 31.5t19.5 5.5q10 -4 17 -12t10 -23t4 -23.5t2 -25.5q2 -31 2 -86q0 -33 -33 -33q-6 0 -19.5 1t-19.5 1h-127q-10 -20 -10.5 -44.5t2.5 -43.5q1 -25 2.5 -69 t2.5 -80.5t1 -69.5q0 -88 -4 -264v-117q0 -28 -4 -33q-16 -12 -37 -16q-3 0 -9.5 9.5t-6.5 15.5q0 28 1 87t1 89q4 226 2 342q0 11 -17 211q-2 20 5 28t28 8h180zM838 -74q-6 -14 -16 -22.5t-27.5 -12t-31.5 -4t-42 -0.5q-14 0 -24 11t-9 26q4 21 41 21h51q32 77 90 216 t105 252t90 212q5 19 20 12q14 -6 17 -27q4 -42 -12 -75q-6 -12 -89 -207q-4 -10 -42 -92.5t-56 -126.5q-13 -30 -33 -91.5t-32 -91.5zM979 -82q11 34 49 31q109 -8 166 -10h248q13 0 18 1.5t6.5 6t1 11.5t0.5 19q5 92 5 107q0 16 6.5 25t19.5 8q6 0 16.5 -9.5t10.5 -15.5 q4 -90 -4 -151q-4 -39 -28.5 -54.5t-76.5 -13.5l-272 8q-19 0 -55 1t-54 1q-43 0 -57 35zM514 -57l6 94q1 3 1.5 13.5t2.5 15.5q13 17 27 14q6 0 12 -9t6 -14q0 -13 2 -60.5t2 -92.5q0 -27 -26 -27q-37 0 -110.5 1t-110.5 1q-63 2 -191 2q-8 0 -24.5 6.5t-18.5 6.5 q8 46 49 43h170q14 0 48.5 -2t53.5 -2.5t48 2t53 8.5zM410 629q6 -6 9.5 -15t5.5 -21.5t3 -22t1.5 -24.5t0.5 -20q1 -31 4 -88.5t5 -104.5t3 -89q2 0 1 -20l-1 -21q0 -20 -5.5 -28.5t-22.5 -8.5q-12 0 -17 33l-6 145l-4 236q0 57 17 53q3 -1 6 -4zM53 954q-13 13 15 16 q10 1 26 1q72 0 88 -2q19 -41 6 -53.5t-59 2.5q-7 2 -20.5 4.5t-21.5 5t-18 9t-16 17.5z" />
<glyph unicode="n" horiz-adv-x="1445" d="M371 977v-66q0 -134 2 -377.5t2 -273.5v-149q59 -11 153 -11q30 0 66 -4q12 0 17.5 -0.5t10.5 -4t5 -11.5l-2 -88q0 -10 -19 -10l-321 6h-162q-36 0 -47.5 10t-12.5 45q0 4 -0.5 19.5t0.5 19.5q1 18 10 24.5t29 6.5q14 -1 158 -7q0 1 1 103.5t1 209t-1 233.5t-6 225 t-13 135h-146q-26 0 -38 10.5t-15 38.5q-2 8 -2 29q3 45 13 53t57 6l172 -4h145q82 -137 165.5 -289t197.5 -367.5t157 -295.5q1 9 -0.5 32t-1.5 27l6 391l9 344q0 17 -3 41q-13 0 -35.5 -1t-33.5 -1q-16 -2 -51 -2q-57 0 -64 37q-7 21 -5 47t22 39q15 0 39 2t36 2 q74 0 262 -4q21 0 64.5 1t67.5 1q16 0 22.5 -9t3.5 -38q-6 -84 -43 -84l-168 4l-4 -123q-8 -172 -8 -387q0 -163 -8 -291q0 -22 -2 -66.5t-2 -66.5q0 -102 -52 -102q-32 0 -61.5 18t-46.5 47q-36 65 -131 217q-10 21 -15 27q-25 47 -86.5 156.5t-93.5 169.5 q-21 39 -57.5 112.5t-50.5 100.5l-76 145q-6 0 -10 -2zM1110 -55l2 88l4 131q17 324 14 473v205q0 18 -1 56t-1 52q10 30 46 27q21 -1 44 -1t53 0.5t48 0.5l2 96q0 14 1 23.5t4 19t10.5 9t19.5 -12.5q26 -26 26 -82v-78q0 -23 -11.5 -29.5t-39.5 -4.5l-135 6 q-1 -19 -4.5 -70t-3.5 -78q-2 -87 -11.5 -353t-9.5 -353l-4 -121q0 -6 1 -18t1 -17q0 -25 -28 -25h-115q-35 0 -55 29q-3 4 -4.5 8t-0.5 6.5t2.5 4.5t5 3.5t6.5 2.5t7.5 1.5t8 1t8 1t6.5 0.5q44 0 77 -2h27zM659 -43q4 66 7 86q0 31 6 41q5 8 14 12.5t16 3.5q6 0 13.5 -8 t7.5 -14q3 -80 -2 -146q-2 -14 -13 -24t-28 -10l-229 -2q-161 0 -218 2q-36 0 -54.5 5.5t-39.5 24.5q-23 21 20 25h13h115q80 -4 241 -4q23 0 68 3.5t63 4.5zM479 152q-28 2 -37 9t-10 32q-4 37 -4 112q-1 31 -3 89t-3 104.5t0 87.5q1 18 -4 110q-1 9 0.5 26.5t1.5 27.5 q36 -24 39 -60q18 -189 18 -252q0 -27 3 -112.5t1 -132.5q0 -7 -1 -20.5t-1 -20.5zM895 932q-28 0 -44 7.5t-38 35.5q-5 6 0.5 12t15.5 6h86q5 0 9 -9.5t4 -16.5q0 -17 -10.5 -26t-22.5 -9zM188 928q-6 -5 -26.5 -5.5t-28.5 3.5q-28 21 -37 30q-2 4 -3.5 6.5t4 4.5t9 3 t9.5 2t8 1q8 2 17.5 3t20.5 1.5t17 1.5q15 2 25 -4.5t10 -18.5q2 -12 -25 -28z" />
<glyph unicode="o" horiz-adv-x="1097" d="M43 565q-13 102 11.5 208.5t78.5 195.5t146.5 145.5t205.5 56.5q136 0 243.5 -78.5t152.5 -213.5q51 -141 51 -314q0 -75 -13.5 -152t-45 -155t-78 -138t-119 -98t-160.5 -38q-91 0 -169.5 33t-134.5 89.5t-95.5 130.5t-57.5 158t-16 170zM483 1059q-62 2 -115 -30 t-87.5 -84t-58.5 -118.5t-35 -131t-11 -122.5q0 -134 35.5 -239.5t113.5 -171.5t189 -66q68 -2 123 49.5t84.5 128t45 153t13.5 134.5q0 71 -2 110t-15 100.5t-40 113.5q-36 70 -99 120.5t-141 53.5zM319 -53q15 30 24 33.5t32 -9.5q66 -37 139 -37q98 0 178.5 36.5 t134.5 97t92 143t56 169.5t22 181q3 68 -15.5 173t-60.5 206.5t-94 130.5q-3 2 -34 33q8 32 36 18q43 -21 70 -45q81 -73 123.5 -234.5t32.5 -289.5q-4 -73 -13.5 -139.5t-29 -135.5t-48 -126.5t-71 -109t-95.5 -87t-125.5 -56t-158.5 -20.5q-109 0 -195 68zM721 627 q-11 11 -18.5 21.5t-12 24.5t-5.5 19t-5 23q-8 49 -33 106.5t-70 105.5t-94 48q-54 0 -96.5 -45.5t-65 -112t-32.5 -131.5t-8 -115q2 -67 22.5 -139.5t67.5 -138t110 -80.5q20 -5 37 -21t14 -32q-1 -8 -6 -11.5t-13.5 -3t-15.5 1.5t-19 4.5t-17 4.5q-109 22 -178.5 140.5 t-67.5 274.5q0 63 13 134t41.5 145.5t84.5 123t131 48.5q40 0 78.5 -23t68.5 -61t52 -80.5t37 -87.5q5 -13 14 -72q6 -54 -5 -71q-4 -5 -9 0z" />
<glyph unicode="p" horiz-adv-x="1161" d="M332 88q11 75 1.5 474t-20.5 448h-217q-39 -1 -47 10t0 49v8q6 46 15.5 54t56.5 8l293 -6l137 -3q137 -7 242 -20q118 -15 172 -121q44 -81 47 -192q0 -105 -52.5 -178t-158.5 -101q-30 -8 -64 -12t-74.5 -6.5t-62.5 -5.5q-133 -14 -141 -15q-8 -55 -2 -192t2 -195h159 q85 4 107 6q30 0 27 -32l-13 -66q-5 -23 -34 -23q-5 -1 -56 -0.5t-55 0.5q-50 0 -150 2.5t-149 2.5q-21 0 -51 -3.5t-51 -3.5q-55 0 -111 9q-19 0 -31 20q-8 11 -8 25t3.5 31.5t2.5 27.5q0 1 6 4t14 5.5t13 2.5q18 -1 58.5 -6t66.5 -6h125zM453 602q13 0 63.5 -3t75.5 -3 q70 0 90 2t84 14q79 12 121 82q16 27 21 89.5t-11 95.5q-35 64 -108.5 96.5t-161.5 32.5l-168 4zM1118 733q-19 -146 -117 -229q-117 -100 -282 -109q-13 -1 -49.5 -5t-48.5 -4t-56 1q0 -173 2 -207q0 -4 1 -14t1 -15t-4 -11.5t-12 -10.5q-26 -16 -57 12q17 154 18 172 t-0.5 50.5t-1.5 42.5q-1 30 7 36t40 4q32 -1 36.5 -0.5t19.5 1.5t38 2q58 3 121 12q168 28 248 164q53 92 41 196q0 2 -3 16t-3.5 20.5t-0.5 17.5t2.5 17t8.5 9q27 -30 42 -78.5t9 -89.5zM801 -53v96q0 21 6 29q8 12 22 12q14 -4 19 -18q12 -61 -2 -146q-8 -39 -62 -43 q-27 -4 -77 -4q-115 2 -322 2q-32 1 -85.5 1t-84.5 1q-58 0 -102 8q-4 0 -8 3.5t-9 8.5t-8 7q16 22 21 24q14 4 43 4q6 0 152.5 -1t150.5 1q21 0 75.5 3.5t106.5 3.5zM504 938q0 33 59 33q46 0 69.5 -0.5t70 -9.5t79.5 -27q8 -5 15.5 -10t17 -14t13 -13t15.5 -16.5t13 -14.5 q14 -17 18 -45q3 -18 -4 -33.5t-18 -15.5q-26 0 -31 37q-6 37 -25.5 58t-54.5 34q-67 23 -135 19q-29 -1 -40 -14t-9 -42q0 -117 -2 -178q0 -15 -4.5 -23.5t-18.5 -7.5q-28 0 -28 31q-2 0 -1 34l1 34v184zM246 918q-15 0 -30 -1t-34 -2t-35 -2q-18 -4 -32 5q-10 5 -39 34 q-7 7 25 9h14q97 4 141 2q12 0 19.5 -9.5t3.5 -21.5q-5 -14 -33 -14z" />
<glyph unicode="q" horiz-adv-x="1087" d="M47 565q-13 102 11.5 208.5t78.5 195.5t146.5 145.5t205.5 56.5q136 0 243.5 -78.5t152.5 -213.5q51 -141 51 -314q0 -83 -17.5 -168.5t-53 -168t-98.5 -144.5t-146 -86l28 -25q37 -32 117.5 -66t114.5 -34q23 -1 31 -8.5t8 -26.5l-2 -47q0 -30 -10 -39.5t-42 -9.5 q-64 0 -114.5 14.5t-122.5 61.5q-27 16 -55 39t-46 41.5t-47 49t-43 44.5q-94 16 -171 71.5t-125.5 134.5t-73 174t-21.5 193zM487 1059q-62 2 -115 -30t-87.5 -84t-58.5 -118.5t-35 -131t-11 -122.5q0 -134 35.5 -239.5t113.5 -171.5t189 -66q68 -2 123 49.5t84.5 128 t45 153t13.5 134.5q0 71 -2 110t-15 100.5t-40 113.5q-36 70 -99 120.5t-141 53.5zM725 627q-11 11 -18.5 21.5t-12 24.5t-5.5 19t-5 23q-8 49 -33 106.5t-70 105.5t-94 48q-54 0 -96.5 -45.5t-65 -112t-32.5 -131.5t-8 -115q2 -67 22.5 -139.5t67.5 -138t110 -80.5 q20 -5 37.5 -21t14.5 -32q-1 -8 -6 -11.5t-14 -3t-16 1.5t-19 4.5t-17 4.5q-109 22 -178.5 140.5t-67.5 274.5q0 63 13 134t41.5 145.5t84.5 123t131 48.5q40 0 78.5 -23t68.5 -61t52 -80.5t37 -87.5q5 -13 14 -72q6 -54 -5 -71q-4 -5 -9 0zM397 -76q-31 0 -51 10 q-59 24 -76 58q-6 13 -1 13q2 1 5 -1q23 -15 59.5 -26.5t61.5 -15.5l25 -5q55 -70 143 -150q141 -128 395 -124l3 141q0 15 9 26t17 3q15 -15 21.5 -34.5t7.5 -32.5t-0.5 -43t-1.5 -42q0 -78 -103 -78q-106 0 -209 41.5t-178 116.5zM811 68q54 54 85.5 110t57.5 133 q16 45 22.5 87t10.5 103.5t6 84.5q3 62 -8 131q-12 71 0 65q16 -7 38 -94q24 -92 24 -176q0 -86 -25 -184q-35 -130 -113 -230q-39 -52 -100.5 -93t-83.5 -32q-17 6 10 29q6 5 19 16q37 30 57 50z" />
<glyph unicode="r" horiz-adv-x="1333" d="M381 522v-401q117 -9 178 0q26 5 36.5 0t10.5 -25q0 -69 -15.5 -84.5t-84.5 -15.5q-35 0 -104.5 3t-104.5 3q-26 0 -211 -10q-20 3 -28 11t-11 30q0 8 -2 26t-2 27q-3 41 41 35q32 -2 59.5 -5.5t63.5 -4.5q33 -1 41 7.5t10 41.5q1 23 6.5 88.5t5.5 111.5q0 49 -3 243.5 t-1 289.5v129q-40 4 -49 4q-29 0 -63 -1t-64 -1q-17 -1 -25 7t-9.5 16t-2.5 30q0 55 9 64.5t63 9.5q112 2 248 8q171 6 329 -20q92 -14 213 -115q65 -56 62 -143q-2 -33 -19 -127q-22 -100 -124 -162q-20 -12 -44.5 -24t-55 -25.5t-48.5 -22.5q2 -13 33 -31q39 -22 66 -57.5 t37.5 -61t31.5 -85.5q34 -94 93 -138t163 -38h84q7 -7 9 -25.5t0.5 -54t-1.5 -39.5q0 -19 -45 -19q-67 4 -98.5 7.5t-78 18t-93.5 42.5q-36 21 -63 50.5t-58 74.5q-18 24 -44.5 74t-33.5 61q-6 10 -28 61t-44.5 82t-50.5 39q-42 12 -184 41zM381 629q127 -16 272 0 q91 9 139 67.5t48 153.5q0 81 -54 121.5t-145 58.5q-159 28 -260 0q1 -38 -3.5 -199.5t3.5 -201.5zM428 174q1 25 1 128t7 161q33 0 60 -6.5t51 -24t40 -32t37.5 -48t32.5 -52.5t35 -64q8 -16 22.5 -48.5t24.5 -50.5q8 -15 18 -28t24 -27.5t22.5 -22.5t27.5 -25t25 -22 q45 -38 139 -65q24 -6 59 -7.5t95.5 0t79.5 1.5q7 24 8.5 77t7.5 74q9 0 27 -33t18 -57v-53q-12 -64 -76 -64h-60t-62 1t-52 4t-57 10t-49 18q-78 36 -128.5 73.5t-86.5 94.5q-25 38 -59.5 114t-63.5 117q-1 1 -9.5 13t-10 14.5t-9 12.5t-10.5 13.5t-10.5 11.5t-12.5 12 t-12 10t-14.5 10t-15.5 8q-1 -24 -8 -69.5t-7 -71.5q0 -17 1 -47t1 -46q0 -21 -10 -24t-41 10zM682 92q23 -23 23 -125q0 -24 -19 -39.5t-43 -13.5q-140 8 -326 -6q-53 -2 -65 -2t-47.5 3.5t-67.5 4.5q-12 0 -47 35q-17 17 24 21q12 1 29 1q27 -1 43 -3t43 -3l224 -4h190 q8 39 8 141q0 8 16 1q8 -4 15 -11zM788 516q48 24 52 25q78 23 125 100q37 59 52 156t-9 166q26 19 52 -28.5t32 -90.5q15 -95 -62 -217q-53 -85 -172 -131q-38 -17 -70 20zM799 825q-49 57 -88 88q-33 29 -72 37t-104 8q-42 0 -52 -22q-6 -16 -6 -53l-6 -164q0 -17 -2 -25 q0 -12 -5 -19.5t-15 -6.5q-13 3 -25 22q-4 8 -4 19q0 16 4 120.5t-2 120.5q0 51 31 54q115 7 181.5 -6t133.5 -74q20 -18 31.5 -46.5t-0.5 -52.5zM195 987q21 0 27 -3.5t9 -16.5q6 -25 -18 -25q-21 1 -45 0.5t-43 1.5q-29 0 -43 14q-8 8 -8 16.5t6 10.5q21 7 45 3t70 -1z " />
<glyph unicode="s" horiz-adv-x="868" d="M412 1155q95 0 157.5 -34t137.5 -109q6 -5 10.5 -11t8 -13l6 -12t4.5 -14.5t3 -13t1.5 -14.5t1 -13.5t1 -15.5t0.5 -14q0 -26 -4 -84q-1 -23 -12 -30.5t-35 -4.5q-36 4 -55 4q-35 -3 -35 29q-1 7 0.5 21t1.5 18t3 21t2.5 22t-3.5 20q-20 43 -40 70t-52 47q-52 27 -100 27 q-174 0 -215 -129q-10 -31 -10.5 -60t5.5 -52t21 -45t32.5 -39.5t43.5 -36t50 -32t56 -30.5q304 -138 322 -371q7 -118 -74.5 -200t-206.5 -87q-99 -4 -201.5 33t-158.5 92q-29 27 -29 82q0 113 -2 131q-3 39 29 47q9 3 19.5 3.5t26 -0.5t21.5 -1q25 0 32.5 -5t4.5 -27 q-10 -60 -10 -64q0 -54 15 -80t63 -49q113 -55 188 -45q131 18 131 152q0 83 -38.5 133.5t-133.5 95.5q-183 88 -266.5 194.5t-60.5 243.5q21 118 113.5 181t230.5 69zM303 -102q-45 6 -92 28t-70 49q-5 8 -14 26t-6 22q3 3 20 -7t39 -24.5t25 -16.5q48 -25 86 -32 q77 -14 131 -17t121 16.5t116 69.5q27 29 44 49.5t37 62.5t20 81q0 131 -39.5 212t-120.5 134q-23 15 -75.5 47t-100.5 62.5t-92 60.5q-59 41 -85 82t-16 100q13 82 80 98q73 20 142.5 -2t93.5 -81q3 -6 -2 -27q-21 0 -27 4q-8 8 -26 35q-11 16 -48 27.5t-63 9.5 q-53 -3 -68.5 -16t-15.5 -62q0 -28 14 -59t25 -42q38 -45 93 -79.5t124.5 -71.5t114.5 -70q86 -64 118.5 -146t32.5 -212q0 -68 -45 -142t-110 -114q-29 -18 -42.5 -25t-47.5 -19.5t-65.5 -16t-85.5 -3t-120 8.5zM621 743q17 0 51 -2.5t62 -2.5t52 5q0 150 -18 224q-2 8 1 7 q11 -3 30 -45q26 -57 26 -120q0 -7 1 -24t1 -25q0 -37 -13 -50.5t-42 -13.5h-70q-41 0 -81 47zM297 154q-8 -10 -57 12q-11 7 -16.5 11t-11 13t-5.5 21v57q-1 12 0.5 22t6 16.5t15 3t25.5 -18.5q4 -12 6 -42.5t10 -55t27 -39.5z" />
<glyph unicode="t" horiz-adv-x="1015" d="M182 -8q-4 67 -2 80q1 26 10 32.5t37 6.5q100 0 172 -5q4 28 4 37q0 32 5 125t2 144q-2 72 -2.5 86.5t2 87.5t2.5 88q0 14 -2 42t-2 42q0 132 -2 200q0 11 -13 78q-195 -10 -215 -10v-35v-100q0 -16 -16.5 -21.5t-34.5 -1.5q-14 1 -26.5 3t-26.5 3q-38 3 -31 41 q4 22 5 46.5t0 64t-1 45.5q0 13 -1.5 26.5t-2.5 20.5t-1 13.5t3.5 9t11.5 2.5q36 0 83.5 1t83.5 0.5t95 -3.5q137 -4 207 0q14 0 150.5 -2.5t140.5 0.5h21q40 -6 45.5 -13.5t3.5 -50.5q0 -1 6 -166q3 -24 -8.5 -36.5t-34.5 -8.5q-13 1 -39 6.5t-31 6.5q-28 6 -28 32 q4 54 4 82q0 4 -1 15t-1 16q-43 11 -71.5 13.5t-71 0t-74.5 -1.5q-9 -26 -9 -86q2 -39 -1 -109.5t-3 -93.5q0 -1 6 -190q5 -83 5 -98q0 -47 -5 -152t-4 -160q0 -27 9 -33.5t36 -7.5h7q16 0 46 -2t44 -2q16 0 46 1t44 1q9 0 16 -1.5t11.5 -2.5t7.5 -5t5 -6t2.5 -9t0.5 -9.5 v-11.5v-12v-29q0 -16 -4 -23t-10 -8t-25 -1q-5 0 -17.5 -1t-17.5 -1q-106 0 -180 2q-29 2 -52 3.5t-41 2.5t-51 2q-23 0 -70 -2t-71 -2q-22 0 -80 4zM580 983q24 4 43 4q7 0 35 -1t34 -1q16 -1 21.5 -9.5t5.5 -27.5q0 -4 -1 -7t-3.5 -5t-4.5 -3t-6 -1h-7h-9h-10h-35 q-3 -77 -3 -158t1.5 -183.5t1.5 -166.5q0 -45 -1 -134.5t-1 -135.5q0 -6 -9 -9.5t-14 -1.5q-26 4 -28 13q-4 13 -4 57q0 46 2 138t2 138q1 16 -1.5 83.5t-2.5 74.5q3 104 -4 174q-2 23 -0.5 77.5t-1.5 84.5zM217 -68q-14 14 12 13q9 0 27 -3q10 -1 12 -1q78 0 125 2h35 q46 -3 133 0.5t127 1.5q8 -3 68 -1.5t71 1.5q3 39 7 118q0 9 8 15.5t18 -2.5q4 -4 10.5 -10t8.5 -8t5 -7.5t4 -11.5t1 -16q0 -24 -0.5 -36.5t-1.5 -27.5t-2 -35q0 -25 -17 -32t-47 -5q-21 2 -57.5 6t-67.5 5q-39 2 -110.5 -2.5t-98.5 -4.5q-45 0 -87 -2.5t-78 -3.5 q-62 0 -105 47zM383 971q0 -18 -11 -26.5t-24 -9t-33 0.5t-28 0v-96q0 -44 -28.5 -59.5t-84.5 -12.5h-17.5h-16.5t-13.5 1t-14.5 3t-13 6t-14.5 10t-14.5 15q-17 17 15 17q7 0 15 -1q14 -1 34.5 -1t46 0.5t36.5 0.5q3 20 1.5 54.5t0.5 52.5q2 6 0.5 28.5t1.5 28.5 q2 4 11.5 4.5t23 -1t14.5 -1.5q20 -2 47.5 0.5t47.5 -0.5q2 0 4.5 -2t6.5 -6t7 -6zM975 831q0 -31 -20.5 -42t-61.5 -13q-30 0 -98 33q-34 23 5 25h38h94q-1 15 -6 153q-4 53 0 78q0 24 10 36q3 4 6 1q13 -13 22 -41.5t7 -44.5q-2 -39 1 -100t3 -85z" />
<glyph unicode="u" horiz-adv-x="1333" d="M453 1014l-84 8q0 -50 -1 -149.5t-1 -179t2 -142.5q3 -157 37 -264q22 -70 84.5 -129.5t130.5 -59.5q44 -3 94 37q67 52 88 137q15 54 24 197q2 24 2 51t-1 60t-1 51v164l-8 172q-2 20 -9.5 30t-25.5 11h-43q-31 1 -42 16t-11 47v17.5v15.5t0.5 12.5t1.5 11t3.5 8t6 7 t8.5 4.5t12 3.5t15.5 1.5t20.5 1q42 2 250 2l114 4q26 2 38.5 -5t19.5 -28l4 -18q3 -23 4.5 -35.5t-2 -23.5t-6.5 -15t-16.5 -7.5t-24 -3.5t-37.5 -1t-53 -2.5t-59.5 -4t-57.5 -3.5q0 -8 -1 -23.5t-1 -23.5l10 -445q0 -97 -7.5 -172.5t-28 -146.5t-54.5 -117t-89.5 -74 t-129.5 -28q-61 0 -111.5 15.5t-86.5 40.5t-64.5 64.5t-47 81t-32.5 97.5t-21.5 105t-13.5 112q-17 176 -4 514q0 2 -4 18q-24 1 -89 0.5t-89 1.5q-25 36 -25 94q0 34 37 31q159 -8 229 -10h215q10 0 11.5 -17.5t1.5 -93.5q0 -21 -29 -24q-14 -1 -53 2zM393 -33q11 12 25 14 t20.5 0t24.5 -8q25 -10 61 -28q41 -17 84 -17q92 0 191.5 44.5t140.5 123.5q54 112 57 215q1 107 -2.5 319.5t-3.5 303.5q0 15 13 24t34 9q74 -2 191 -2q17 38 6 98l-8 29q-6 24 18 28q14 3 31 -10q8 -8 8 -23q4 -57 8 -174q-48 -13 -114.5 -11.5t-116.5 -0.5q0 -8 -1 -23 t-1 -22q-6 -228 -6 -250q0 -40 3 -118.5t3 -118.5q0 -204 -70 -320q-48 -83 -153 -125q-128 -51 -230 -51q-117 0 -207 78q-2 1 -6 16zM430 885q0 61 5 71q7 13 30 13q5 0 42 0.5t42 -0.5q9 0 14.5 11.5t6.5 31.5t0.5 39.5t-2 43.5t-1.5 35q12 -1 19.5 -3.5t17 -9.5 t14.5 -23.5t5 -42.5q0 -136 -29 -136q-8 0 -47 -1t-51 -1q-4 -36 -4 -63l4 -279q0 -45 7.5 -96t23.5 -108t48.5 -100.5t75.5 -57.5q34 0 37 -16q2 -14 -21 -21q-14 -4 -32 -2q-51 4 -82 25q-30 23 -55 69t-37 90q-10 43 -16 93t-8.5 78t-6 98t-4.5 92q-1 24 1.5 89t2.5 81z M86 936q-7 13 -2 23t9.5 13.5t15.5 8.5q41 20 84 -4q7 -3 13.5 -14t4.5 -17t-12 -13t-17 -7q-18 0 -96 10z" />
<glyph unicode="v" horiz-adv-x="1314" d="M385 1022q12 -68 29 -145.5t30 -135t37 -152t35 -136.5t40 -151.5t36 -137.5l39 119l55 198q45 180 57 262q17 103 27 140q5 23 18 69.5t19 71.5l-53 -1q-52 -1 -52 1q-28 0 -36 8t-11 37q0 3 -1.5 15.5t-0.5 19.5q0 26 7 33t34 12q42 7 84.5 8t108 -2.5t84.5 -3.5 q9 -1 26.5 0.5t22.5 1.5q55 0 145 -4q15 -5 19 -16q2 -9 0.5 -35t-0.5 -37q1 -17 -8.5 -24t-26.5 -7h-133q-42 0 -52.5 -7t-23.5 -48q-18 -48 -59 -191q-22 -82 -60 -244.5t-53 -220.5l-37 -137l-39 -145q-9 -36 -18.5 -43.5t-46.5 -9.5q-14 0 -43 -2t-45 -2q-26 0 -34 8.5 t-13 36.5q-8 49 -35 186q-66 293 -70 309q-5 19 -16.5 73.5t-22 94t-22.5 70.5q-17 45 -37 130t-27 109q-6 19 -14.5 24.5t-28.5 4.5l-129 -6q-35 -3 -41 31q-11 69 0.5 85t79.5 19q37 1 79.5 0t94 -3t80.5 -3q16 0 50 1t52 1q22 2 30 -3.5t9 -25.5q2 -23 2 -65 q0 -35 -37 -35h-104zM1061 942h-29q-4 -14 -12.5 -51t-15.5 -62.5t-15 -48.5q-27 -70 -63 -220.5t-39 -160.5q-5 -19 -70 -295l-31 -153q-13 -60 -73 -66l-111 -12h-24q-35 3 -35 33q0 28 30 31q13 1 50.5 4.5t58.5 3.5q37 0 47 37q36 131 51 194l19 84q44 216 57 260 q44 168 86 305q8 28 16 80q4 39 30.5 61.5t66.5 22.5q82 0 123 2q10 1 16.5 1.5t11 3.5t7 4t4.5 7.5t2.5 9t1.5 13.5t2 17q2 23 2 67q0 25 24 4q24 -22 25 -39q0 -76 -10 -121q-1 -7 -16 -11.5t-27 -4.5h-160zM514 911q-2 -9 4 -37q15 -76 51 -222t47 -199q5 -22 5 -62 q-2 -8 -7.5 -16.5t-9.5 -9.5t-6.5 1t-6.5 7t-5 6q-3 4 -5 10t-4.5 13t-3.5 10q-18 83 -59 249.5t-61 258.5q-7 41 1.5 49.5t51.5 5.5q8 0 26.5 -1t26.5 -1l6 117q0 37 16 35q17 -2 30 -42q7 -23 7 -51q0 -69 -6 -87.5t-26 -26.5q-11 -4 -36 -4t-36 -3zM229 926 q-49 -25 -114 -4q-7 1 -13 12.5t-6 19.5q0 6 10.5 15t16.5 8q5 -1 23 -1.5t25.5 -2.5t20.5 -6.5t21.5 -14.5t15.5 -26z" />
<glyph unicode="w" horiz-adv-x="2021" d="M696 102q11 9 19 20.5t11 19t8 23t7 19.5l162 478q7 22 35 100q5 18 2 29l-86 213q-7 14 -27 18q-46 6 -112 6q-21 0 -26.5 5t-6.5 26q-3 40 9.5 54.5t51.5 14.5h363q23 0 35 2q19 2 26 -3.5t7 -22.5q0 -4 -1.5 -28.5t-1.5 -28.5q0 -7 -2 -12t-6.5 -7.5t-9 -4t-12.5 -2 t-14 -0.5t-16 0.5t-17 0.5q-18 0 -53 -1t-52 -1q-2 0 -4 -0.5l-6 -1.5l-8 -2q4 -14 10 -42t10 -42l80 -225q15 -41 49 -121.5t51 -128.5q12 -33 31.5 -100.5t30.5 -100.5q37 -103 61 -145q61 163 134 472.5t118 446.5q-15 0 -72.5 1t-70.5 1q-25 0 -36.5 7.5t-12.5 25.5 q-9 76 32 78q23 3 62 3t90 -1.5t72 -1.5h268q4 0 7 -1t5 -4t3 -5.5t1 -7.5v-9v-11.5v-12.5q0 -62 -22 -62h-158q-34 3 -43 -24q-8 -24 -23.5 -67t-28 -78.5t-22.5 -67.5q-14 -53 -38 -157t-46.5 -191.5t-46.5 -159.5q-10 -28 -53 -172q-9 -29 -33 -90q-7 -6 -15 -10 t-17.5 -6.5t-16 -4t-18.5 -2t-17.5 -0.5h-20h-18.5q-2 0 -12 1.5t-16 0.5q-24 -3 -35 8t-14 37q-2 23 -8 50t-10.5 45.5t-15.5 52t-15 44.5t-18.5 50.5t-16.5 44.5q-14 40 -38.5 117.5t-37.5 113.5q-1 5 -6 14.5t-8 18.5q-7 -16 -29 -62.5t-31 -72.5q-19 -52 -53.5 -148.5 t-40.5 -113.5l-59 -164q-7 -21 -20.5 -31t-39.5 -18q-6 -6 -53 -5t-53 1q-9 -1 -13.5 -1h-8.5t-6 3.5t-3.5 6t-4.5 11t-5 14.5q-35 88 -91 270t-92 267q-33 82 -77 214.5t-70 201.5q-16 40 -27 49.5t-51 9.5h-94q-19 1 -31 17.5t-12 31.5q0 28 13 44t36 16h137 q38 0 115.5 -1t116.5 -1q1 0 4.5 1t5.5 1q6 -1 20 3.5t24 3t15 -15.5q21 -71 -6 -102h-153q36 -103 98.5 -295.5t115.5 -341t113 -289.5zM1712 981h199q2 0 6.5 12t8 31.5t3.5 36.5q0 55 16 55q3 0 5 -2q12 -12 21 -37.5t9 -40.5q0 -42 -8.5 -66.5t-16.5 -30t-22 -9.5 q-14 -2 -188 -2q-1 -2 -13 -35t-16 -47q-29 -90 -60 -197.5t-51.5 -183t-55.5 -205.5t-52 -192q-3 -12 -7 -24.5t-9 -26.5t-8 -23q-19 -47 -40.5 -63t-66.5 -15q-45 3 -88 0q-8 0 -24 11.5t-27 23t-8 12.5q4 3 17 3t29 -1.5t19 -1.5q2 0 9.5 0.5t14.5 0.5t11 -1q57 -2 81 13 t42 65q47 132 111.5 387t99.5 365zM711 219q-17 -17 -38 37q-2 7 -7 20q-28 72 -58 177q-82 286 -143 438q-3 9 -11.5 23.5t-11.5 19.5l-16 51q10 0 36 -2t49.5 -2t43.5 4q1 3 10.5 35t9.5 47q0 18 4 28t10.5 10.5t14.5 -7.5q13 -13 18.5 -38t2.5 -48q-3 -43 -21 -72 l-110 -6q9 -25 26.5 -66t24.5 -63q15 -44 58 -186.5t67 -210.5l49 -140q2 -7 1 -13.5t-4.5 -19.5t-4.5 -16zM1092 932q2 -14 8 -36t8 -30q4 -18 41 -131q8 -27 18 -52.5t23.5 -56t21.5 -51.5q49 -139 97 -245q17 -42 -6 -62q-12 -12 -23.5 -8.5t-15.5 21.5q-14 54 -31.5 107 t-43 122t-38.5 106q-47 124 -68 191q-7 18 -19.5 63t-25.5 72q-16 37 19 37h84h55q1 8 1.5 51.5t5 65.5t16.5 10q36 -36 36 -62q-2 -29 -2 -65q0 -19 -16 -32t-49 -13q-13 0 -46.5 -1t-49.5 -1zM815 -92q-31 -3 -65 -4.5t-52 -3.5q-12 -2 -30.5 3t-26.5 13q-31 31 8 31h80 q30 0 49 9t29 36q45 121 98 227q13 27 23.5 55t23.5 71t17 56q5 17 22 41l29 -14q-64 -220 -205 -520zM229 977q-2 -35 -41 -35q-65 0 -100 4q-5 0 -10.5 6.5t-5.5 12.5q-2 5 3 12.5t9 7.5q81 23 145 -8zM729 961q-36 36 18 38q42 2 95 -14q0 -18 -12 -34t-27 -19 q-14 -2 -36 5.5t-38 23.5zM1384 961q-29 28 6 31q12 1 47 -1q40 -1 60 0q0 -20 -8.5 -38t-22.5 -21q-15 -2 -40.5 5.5t-41.5 23.5z" />
<glyph unicode="x" horiz-adv-x="1333" d="M53 1143h482q16 0 16 -62q0 -33 -8 -49q-3 -6 -10.5 -9t-22.5 -4l-16 -1q-10 -1 -26 -1t-36 0.5t-29 0.5l205 -354q43 63 102 182t83 160l-111 8q-4 70 -4 98q0 21 8 28t29 5q18 -2 49 -3.5t68 -2.5t49 -2q11 0 34.5 3t36.5 3q14 0 43 -3t45 -3q43 0 125 8 q25 3 35.5 -6.5t13.5 -32.5q2 -27 -2 -80q-2 -19 -10 -25.5t-28 -5.5q-9 1 -49 6.5t-62 6.5q-28 0 -107 -9q-16 -3 -28 -22q-28 -43 -101 -164l-110 -195q-6 -13 -19 -36.5t-18 -32.5l63 -96l123 -205q72 -115 80 -129q9 -15 43 -15l168 11q11 -16 4.5 -65.5t-4.5 -67.5 q-5 -1 -24.5 -4t-28.5 -3q-222 10 -273 11h-106q-1 15 -4.5 46.5t-3.5 47.5q1 6 10.5 13t17.5 9q9 2 31 2.5t29 1.5l-191 328q-69 -111 -170 -330h66q36 0 33 -32q0 -14 -2 -29.5t-5 -35.5t-4 -32q-150 0 -180 -2q-76 -2 -237 -14q-30 -2 -43 8.5t-9 40.5q7 59 13 70 q14 24 77 22h5h141l100 179q74 134 125 219q28 48 2 86q-15 21 -61 96q-35 58 -99.5 168t-76.5 131q-15 27 -29.5 33.5t-46.5 3.5q-45 -4 -137 -4q-33 0 -33 32q-4 70 10 99zM1290 1083l-6 -170l-283 -12q-1 -1 -20 -32t-29 -48l-139 -237q-20 -35 2 -70q69 -98 119 -195 q40 -78 90 -131q21 -18 -4 -36q-26 -22 -41 2q-12 18 -42.5 68.5t-47.5 76.5l-92 150q0 2 -6 8q-6 8 -20 25t-22.5 31t-11.5 28q-4 15 4.5 29.5t23 30.5t19.5 26q17 32 79.5 133.5t88.5 165.5q9 25 22.5 34t37.5 5q40 -9 57 -7q6 0 176 11q0 91 -2 108q0 13 0.5 17.5t5 10.5 t13.5 7q14 2 21.5 -6t6.5 -23zM621 -109q-16 -4 -25 -4l-428 -10h-21q-27 1 -31.5 10.5t9.5 32.5q31 2 129.5 9.5t151.5 9.5q26 2 163 2q6 11 8.5 24.5t3 32.5t1.5 29q1 8 -0.5 25.5t2 24.5t18.5 5q6 -1 10.5 -3t8 -4.5t5.5 -7.5t3 -8t1.5 -10.5t0.5 -10.5v-11.5v-10.5 q0 -22 -10 -125zM1030 -66h152q22 106 22 107q4 13 21 43q11 11 22 4q15 -10 15 -22q-15 -97 -29 -158q-9 -27 -49 -23q-21 1 -62 5t-73 6t-60 0q-35 -3 -97 1t-87 3h-10h-11t-9.5 1t-9.5 3.5t-6.5 7.5t-4.5 12q-3 12 13.5 22t39.5 7q25 -2 72.5 -8t72.5 -8q40 -3 78 -3z M537 946q7 -13 21 -40t20 -38l45 -73q17 -30 -2 -37q-7 -3 -18.5 2.5t-16.5 13.5q-15 17 -45 70l-60 106q-3 5 -9 12t-5 9.5t2 19.5q95 6 111 8q0 11 2 54t2 73q-3 7 4 7q16 0 30 -26q3 -5 5 -11q6 -19 7.5 -33t0 -35t-1.5 -31q0 -26 -7.5 -36t-35.5 -11q-26 0 -49 -4z M614 332l23 -33l-70 -129q-8 -19 -18 -27q-12 -12 -25 -4q-10 7 -10 25q0 10 8 26l68 121q5 7 24 21zM127 936q-7 20 0.5 32.5t22.5 12.5q6 0 18.5 0.5t19.5 0t17 -1t18 -3t15 -6.5q7 -3 13.5 -14t4.5 -17t-12 -13t-17 -7q-19 0 -55.5 7.5t-44.5 8.5zM702 928q-24 0 -26 23 q-2 22 16 30q9 4 21 -2q8 -5 13.5 -15t4.5 -16q-2 -6 -12 -13t-17 -7z" />
<glyph unicode="y" horiz-adv-x="1396" d="M61 1130q11 11 91 5l268 -9q4 0 133 7q34 3 45 -9.5t4 -46.5q-8 -25 -14 -63l-154 -8q1 -4 4 -16.5t6 -18.5l107 -187q7 -14 24.5 -39.5t24.5 -39.5q6 -10 18 -34t23.5 -45t22.5 -38l129 223q10 18 56.5 89t63.5 116q-10 0 -43.5 1t-59.5 1t-38 -2q-16 -3 -24 1.5 t-17 16.5q-9 17 -8.5 52.5t12.5 48.5q10 10 17 10q62 8 133 8q13 0 41 -3t41 -3q36 -1 78.5 -1t94 0.5t77.5 0.5q19 0 27 -6.5t11 -24.5q4 -37 2 -53q-2 -28 -11 -36.5t-38 -8.5l-63 -1q-63 -1 -64 1q-32 3 -47 -25q-24 -40 -71.5 -117.5t-71.5 -117.5q-112 -189 -135 -232 q-2 -3 -13 -21.5t-15.5 -31t-4.5 -24.5q-6 -144 -6 -293q-1 -9 8 -54h68q21 1 61.5 5.5t60.5 5.5q31 0 31 -9l-4 -84q-2 -25 -11 -34.5t-34 -10.5q-28 -1 -79.5 -2.5t-93.5 -2.5t-79 -1q-27 0 -83 3t-83 3q-9 1 -26 -0.5t-21 -1.5q-17 -1 -30.5 8.5t-16.5 24.5q-1 2 -1 7 t-1 7q-4 58 10.5 71t75.5 11h119q15 153 8 357q0 9 -4.5 19t-13.5 24.5t-11 17.5q-8 14 -22 40.5t-23.5 43t-23 38.5t-27.5 40q-16 21 -30.5 46.5t-31.5 58t-26 49.5q-72 112 -86 135q-18 30 -55 30q-41 3 -164 3q-19 0 -24 15.5t-5 53.5q0 45 12 57zM1303 1087q0 23 12 23 q14 -1 25 -29q5 -13 6 -28l4 -76q2 -43 -11.5 -59.5t-54.5 -16.5q-67 -3 -123 2q-29 3 -47 -8t-37 -37q-81 -119 -149 -262q-15 -36 -74 -121q-31 -45 -25 -104q5 -51 5 -185q2 -13 -4 -22.5t-19 -9.5q-15 0 -24 9.5t-9 24.5q-2 0 -1 46l1 47q-1 14 -1.5 59t-2.5 70 q-1 12 1 24t7 25t8.5 20t12 23t10.5 20q140 258 148 271q20 34 61 92t47 67q11 15 43 15q96 0 143 -2q33 0 38.5 4.5t6.5 36.5q0 13 1.5 39t1.5 42zM432 -63q9 3 17 2.5t29 -3t34 -2.5q25 0 213.5 -3t224.5 1q2 0 11 2.5t14 2.5l4 102q2 31 10 50.5t23 4.5q24 -24 24 -92 v-80q-3 -40 -55 -43l-201 -4q-92 4 -264 4q-10 0 -33.5 11t-40.5 25.5t-10 21.5zM637 965q4 74 4 112q0 2 0.5 6t1 6.5t1.5 6t2 5.5t3 4.5t5.5 4t7.5 2.5q6 0 10 -1t6.5 -2.5t4.5 -6.5t3 -6.5t2.5 -8.5t1.5 -8q2 -17 1.5 -46t0.5 -46v-59q0 -17 -96 -17q8 -18 31 -53 q8 -15 23.5 -40.5t21.5 -35.5q11 -21 8 -37q0 -6 -6 -14t-12 -8q-6 -2 -15 2t-12 10q-38 68 -90 166q-30 64 39 64h53zM141 969h62h13.5h12t10 -0.5t10 -2t8 -4t7.5 -7t6 -11.5l1 -1q7 -13 1 -14q-4 -1 -31 0q-38 1 -69 1h-33q-38 5 -53 20q-10 10 11.5 14.5t43.5 4.5z M791 991q59 0 56 -21q-1 -6 -7 -12q-7 -7 -16 -20t-15 -20t-10 -7q-39 27 -40 56q0 24 32 24z" />
<glyph unicode="z" horiz-adv-x="1011" d="M715 121v158q0 65 24 65q11 1 25.5 1t23.5 1q43 0 46 -39q2 -21 2 -131v-188q-30 0 -70 4h-98q-21 0 -64.5 1t-66.5 1q-78 -4 -115 -4q-102 -2 -305 -2q-43 0 -43 43q0 8 -0.5 35.5t0 40.5t3.5 35t9 40q9 29 35 66q109 143 133 172q33 41 100 117.5t97 113.5 q12 14 42.5 46t50.5 58t34 56q4 12 12 23.5t21 26t18 20.5l96 131q-17 12 -38 12.5t-38 -2.5q-49 -2 -139 -2.5t-119 -1.5l-184 -8q-17 -41 -8 -133q0 -15 4.5 -41t5.5 -37q2 -26 -8.5 -36t-38.5 -7l-58 6q-24 3 -32.5 12t-8.5 33q-1 19 1 52.5t2 45.5v180q0 35 6.5 41.5 t42.5 6.5l180 4q20 0 59 2t58 2q14 0 57 -1.5t66 -0.5q24 1 96 4.5t112 3.5q24 0 42.5 -2t30.5 -4.5t20 -9.5t12.5 -11t6.5 -16t2 -18t-0.5 -23t-0.5 -25q0 -14 -2.5 -27t-9 -27.5t-11 -23t-16.5 -24.5t-15.5 -21t-18.5 -23t-17 -20l-141 -174q-55 -74 -166 -211 q-37 -47 -113 -140t-113 -140q-53 -72 -61 -98q17 -5 45 -5q50 0 142 3.5t112 3.5q56 0 166 4q14 0 40.5 2.5t37.5 3.5zM420 276l-113 -143q-22 2 -29.5 3.5t-18.5 6.5t-7.5 15.5t18.5 27.5q105 130 209 242q26 27 64.5 83t56.5 77q37 42 113.5 137.5t120.5 144.5 q57 62 67 172v19q0 3 -0.5 10t0 10t1.5 8t5 8t11 5q11 3 20.5 -9t9.5 -32q3 -53 0 -103q-2 -33 -35 -69q-80 -95 -151 -187q-37 -46 -103 -133.5t-96 -124.5q-15 -19 -143 -168zM893 309q39 8 39 -28q3 -62 0 -125q0 -102 -6 -207q0 -30 -21.5 -50t-52.5 -22 q-228 -6 -229 -6q-99 0 -291 8q-41 1 -178 10q-5 0 -14 3.5t-11 3.5q-3 29 0.5 34.5t26.5 6.5h159q65 -1 192.5 -5.5t192.5 -5.5q23 0 48.5 1t57.5 2.5t50 2.5q23 0 23 29q1 25 1.5 104.5t2.5 124.5q0 12 10 119zM287 934l8 -215q2 -30 -9 -45.5t-38 -16.5q-25 0 -70.5 3 t-56.5 4q-31 3 -25 28q1 6 10 12.5t17 8.5h88q7 0 27 4q5 31 4 37q-1 40 -11 194q0 4 1 11t1 10q1 3 2.5 5.5t4.5 5.5t4 5q23 -3 46.5 -5t51 -1.5t44 1t50.5 2.5t45 3q32 2 88 1.5t88 -3.5q13 0 -10 -25l-4 -4q-20 -20 -29 -22h-71l-185 4q-6 -1 -32 0.5t-39 -2.5z" />
<glyph unicode="|" horiz-adv-x="311" d="M158 1153q23 -18 20 -51q0 -5 -4 -39.5t-4.5 -44.5t-2.5 -38.5t-1 -44.5t2.5 -38.5t5.5 -42.5q2 -11 0.5 -41t-0.5 -43l6 -268q1 -28 -0.5 -79.5t-1.5 -66.5v-106t-4 -133q-4 -15 -1 -107.5t3 -107.5q0 -40 -11.5 -50.5t-53.5 -7.5q-23 0 -33 2q-21 4 -29 14t-6 31 q16 169 10 371q-1 44 3.5 127t4.5 121q5 139 5 332q0 42 -1.5 125.5t-1.5 124.5q0 34 9.5 42.5t44.5 10.5zM223 1110q31 2 39 -4t8 -29q0 -1 -6 -82q-2 -55 -2 -161v-216v-262q0 -2 -6 -278q0 -92 4 -268q3 -52 -31 -86q-23 8 -86 7t-88 17q9 18 25.5 28t28.5 12t34 3 q6 0 19.5 -2t19.5 -2q31 3 31 31q0 111 2 166q0 58 2 173t2 173q0 56 -8 166v73q0 14 1 55t0.5 70t-5.5 56q-5 22 1.5 64.5t6.5 49.5l6 178q0 12 1 34t1 34z" />
<glyph unicode="~" horiz-adv-x="901" d="M565 1319q-121 10 -176 63q-1 1 -37 31q-37 22 -73 12t-56 -47l-22 -55q-9 -21 -20.5 -25t-33.5 7q-3 1 -12 6t-13 7t-11.5 6.5t-12 8t-9 8t-7.5 9.5q-6 12 -0.5 22.5t17.5 22.5t16 20q6 14 24 41q40 64 140 94q42 12 98 -10q51 -16 106 -55q43 -29 74.5 -24t77.5 48 q4 4 11.5 15.5t10.5 15.5q19 28 46 33t53 -14l8 -7q32 -26 32 -36.5t-32 -38.5q-34 -28 -57 -60q-40 -52 -134 -94l-9 -4h1zM41 1274q19 24 51 8l94 -41q55 68 78 92q26 26 43 29t51 -14q14 -7 38.5 -21.5t45 -24.5t39.5 -14q137 -39 221 45q12 12 33.5 35t39.5 42t34 36 q21 24 45 8q13 -36 -16 -65q-15 -14 -56 -54.5t-65 -60.5q-116 -89 -248 -41q-38 13 -135 61q-9 -1 -15.5 -7.5t-9.5 -12.5t-7.5 -17t-6.5 -16q-20 -42 -58.5 -56.5t-78.5 5.5q-72 38 -98 63q-10 10 -19 21z" />
<glyph unicode="&#xa2;" horiz-adv-x="985" d="M494 1317q23 -18 20 -51l-12 -117q78 -7 146.5 -47t113.5 -101q16 -24 26 -34q40 -43 37 -109q-2 -21 6 -61q6 -38 -7.5 -53.5t-51.5 -14.5q-2 0 -10.5 -0.5t-17 -0.5h-20.5t-22 1.5t-19 3.5t-14 6.5t-5 10.5q0 20 2 54t2 48q1 57 -27 91t-82 61q-21 10 -51 18l2 -4 q2 -11 0.5 -41t-0.5 -43l6 -268q1 -28 -0.5 -79.5t-1.5 -66.5v-106t-4 -133q-2 -27 -2 -179q61 0 108 15q37 13 50.5 32.5t15.5 59.5q1 12 1 37.5t1 38.5q1 30 13 40.5t42 8.5q27 -3 58 0q25 3 35 -5.5t12 -33.5q0 -176 -127 -270q-91 -68 -209 -68q4 -196 4 -219 q0 -40 -11.5 -50t-54.5 -7q-22 0 -32 2q-21 4 -29 14t-6 31q7 81 10 239q-126 28 -209 121q-37 37 -63.5 87.5t-40 96t-21.5 116.5t-10 118.5t-4 132.5q0 188 90 313q94 133 215 178q35 13 53 15v110q0 34 9.5 43.5t44.5 10.5zM367 119q7 -5 24 -8q0 258 -2 315 q-1 44 3.5 127t4.5 121q4 111 4 332v14q-64 -16 -118 -55q-42 -31 -64 -80q-52 -117 -55 -277q0 -172 20 -256q44 -171 183 -233zM549 -137q0 21 11.5 29.5t37.5 11.5q148 17 242 164q45 72 45 176q0 61 9 71q7 7 21 2q5 0 12 -6t7 -10q0 -15 4 -43q11 -102 -41.5 -208 t-144.5 -150q-117 -46 -158 -52v-8q0 -45 1 -104.5t1 -69.5q3 -52 -31 -86q-23 8 -86 7.5t-88 17.5q9 18 25.5 28t28.5 12t34 3q6 0 19.5 -2t19.5 -2q31 3 31 30v189zM356 952q20 7 30 -12q13 -26 -22 -54q-2 -1 -4 -3q-21 -15 -43 -43q-21 -26 -33.5 -70t-15.5 -76t-6 -84 q-6 -55 -2.5 -126.5t27.5 -125.5q18 -46 53 -86q29 -38 21 -71q-8 -23 -29 -8q-67 53 -100.5 140t-28.5 185q9 209 44 307.5t109 126.5zM543 934q0 11 19 10q28 -1 35 -27q1 -6 1 -12v-102v-262q0 -47 -3 -139.5t-3 -139.5q0 -31 3 -60.5t3 -31.5q0 -7 -12 -9.5t-23.5 -0.5 t-11.5 8q0 58 2 173t2 173q0 56 -8 166v74q0 14 1 54.5t0.5 69.5t-5.5 56zM727 692h57q52 0 68 13.5t16 56.5q0 12 -2 40q-4 77 9 78q5 1 14 -8q18 -18 18 -100q0 -50 -4.5 -76.5t-22.5 -41.5t-42.5 -18t-75.5 -3q-12 0 -35 1t-35 1q-28 4 -28 27q0 20 12 25t51 5zM301 -53 q16 -4 19 -25q4 -19 -13 -18q-7 0 -16 4q-87 38 -130 96q-25 34 -9 38q2 1 4 1q7 0 17 -5.5t18 -12t21 -17.5t19 -16q57 -40 70 -45zM600 1180q0 -25 -18 -15q-25 14 -25 62q0 11 1 33t1 34q31 2 39 -3.5t8 -28.5q0 -15 -3 -41.5t-3 -40.5z" />
<glyph unicode="&#xa3;" horiz-adv-x="798" d="M608 569l4 -34q3 -55 -49 -58q-1 0 -106 6h-37q15 -92 -31 -196q-11 -27 -26.5 -55.5t-37.5 -66t-32 -54.5q13 1 34.5 2.5t39.5 2.5t34 1q29 3 64 -4q26 -3 35 2.5t10 29.5q2 14 1.5 36t0.5 36q0 26 4 80h94q38 0 41 -37l6 -88q10 -113 11 -135q0 -1 -4 -35 q-46 -8 -70 -8q-118 -8 -178 -8q-36 0 -107.5 3t-107.5 3q-19 1 -78 -8q-30 -3 -41.5 5.5t-11.5 37.5q-1 9 0 26.5t0 26.5q0 47 36 76q71 55 117 155q10 22 18 48.5t16 59t13 50.5q-21 0 -56 1t-61.5 1t-50.5 -2q-38 -3 -45.5 3t-13.5 44q-3 17 -2 34t12 28h195 q-4 8 -14.5 36.5t-18.5 42.5q-15 23 -25.5 54t-14 50.5t-9.5 57.5q-23 135 6 213q28 71 89 118.5t132 41.5q67 -4 114.5 -17t86.5 -49q75 -72 65 -151q-1 -8 5 -94q0 -13 4 -45q-66 -24 -162 -13q-27 3 -27 35q-4 106 -4 158q0 63 -39 76q-48 14 -86 -21q-88 -85 -49 -207 q5 -14 98 -280q21 -1 65.5 -1.5t78.5 -3t65 -10.5zM702 -43v98q-6 189 -6 191q0 6 5 14t10 10q10 4 17 -2t9 -18q6 -24 6 -29q-6 -17 -4.5 -52.5t3.5 -52t7 -52t7 -52.5q6 -45 -16.5 -74t-67.5 -30q-191 -8 -289 -10q-36 0 -76.5 1t-90 2.5t-77.5 2.5q-12 1 -18 2.5t-12 7 t-5 14.5q3 25 37 25q114 -8 181 -10q95 -7 167 -4q40 1 117.5 9t95.5 9zM709 772q0 16 1 54t0.5 64t-3.5 50q-12 90 -39 131q-20 31 -2 41q17 9 37 -19q1 -2 2 -3q33 -50 49 -156q4 -30 4 -87.5v-70.5q0 -26 -25 -37q-52 -25 -104 -12q-39 10 -97 10q-33 0 -38 19 q-1 8 0 12.5t4 12.5t4 10zM502 395q-13 -133 -62 -215l-6 -12q-19 -23 -37 -14q-18 10 -6 39q32 75 43 98q17 31 25 106q3 35 13 43t44 6q45 -2 139 -2q-10 62 -12 70q-7 32 16 39q12 5 22 -4t11 -27q4 -57 -6 -82q-3 -5 -3.5 -11.5t0.5 -17.5t1 -16h-182zM444 1012 q-5 -2 -15 -7t-15 -6q-36 -12 -39 -61q-5 -67 41 -164q5 -11 16.5 -39.5t22.5 -48t28 -35.5q3 -3 3 -13t-3 -11q-20 -15 -30 -9q-30 26 -39 44q-72 133 -86 225q-19 104 45 151q28 19 39.5 15t31.5 -41zM211 434q-3 -5 -6.5 -15t-6 -14t-5.5 -4q-38 -11 -91 -14 q-5 0 -12.5 5t-7.5 9q-1 6 3 14t9 11q16 8 33 8q10 1 22 1t30.5 -0.5t31.5 -0.5z" />
<glyph unicode="&#xa4;" horiz-adv-x="964" d="M211 774q26 19 0 45l-55 55q-15 15 -17 19q-2 5 -8.5 15.5t-10.5 19t-5 16.5q-1 16 19.5 23.5t23.5 11.5q3 3 6.5 5.5t8 5.5l7.5 5l105 -98q18 -18 43 -8q135 56 286 -21l33 -14q10 10 28 29t32.5 34.5t27.5 30.5q15 18 25.5 20.5t34.5 -5.5l45 -17q45 -18 12 -51 q-17 -19 -80 -78q-9 -7 -35 -39q49 -109 49 -178.5t-49 -183.5l105 -150q-47 -50 -92 -35l-78 119q-55 -29 -58 -31q-66 -48 -172 -24q-115 24 -190 74q-55 -34 -88 -84q-9 -17 -16 -21.5t-15 0t-22 19.5l-2 4l-41 59q27 38 57 72q9 9 31 24.5t26 18.5q-36 64 -28 180 q3 19 14 45zM496 379q0 4 2 6q46 0 57 4q77 35 111 106.5t14 157.5q-22 92 -150 133q-112 37 -196 -47q-68 -65 -55 -182q2 -19 17.5 -47t18.5 -35q15 -45 68 -63q23 -9 113 -33zM768 150q33 23 104 73q39 23 48 2q11 -26 -17 -47q-14 -8 -38.5 -26.5t-37.5 -26.5 q-45 -29 -73 -24t-56 53q-11 21 -26 57h-23q-130 -64 -293 -2q-32 13 -108 33q-3 -5 -19.5 -26.5t-23.5 -33.5q-14 -22 -21.5 -25.5t-31.5 3.5q-21 8 -58.5 24.5t-52.5 22.5q1 3 1.5 13.5t2.5 15.5q10 29 41 14q8 -3 21.5 -14t20.5 -13.5t24 0.5q11 5 29.5 24.5t21.5 22.5 l39 29q32 29 63 -2q9 -9 18.5 -15.5t22.5 -12.5t20.5 -9.5t24.5 -7.5t22.5 -5.5t26 -5.5t23.5 -5q99 -17 164 22q47 26 78 -20q13 -15 34 -46.5t29 -41.5zM492 762q100 -20 147 -94q0 -1 6 -23q10 -28 -14 -37q-23 -5 -33 21q-24 63 -96 73q-78 11 -109 -45q-48 -81 0 -145 q21 -21 23 -25q3 -4 8 -30q-3 -1 -11.5 -3.5t-12.5 -3t-11 0.5q-60 29 -72 88q-22 92 50 174q7 8 14.5 14t17.5 10.5t16.5 7.5t19.5 6t18 4t20 3.5t19 3.5zM854 768q36 -67 39 -158q7 -86 -2 -141q-4 -26 -31 -70q-3 -5 -15 -7t-18 1q-9 5 -11 14.5t5 20.5q22 31 19 84 q0 15 0.5 42t0.5 48.5t-1 40.5q-3 51 -25 78q-8 9 -18 45q-4 20 6 33q21 21 61 53q31 25 60 -14q-23 -27 -70 -70zM211 774q-38 -9 -62.5 4.5t-52.5 57.5q15 35 45 12q1 -1 9.5 -6.5t11 -7.5t9 -7.5t9.5 -9t7 -9t6.5 -11.5t3.5 -13q0 -1 14 -10z" />
<glyph unicode="&#xa5;" horiz-adv-x="1359" d="M573 1133l4 -8l3 -6t0 -3q-1 -7 4.5 -21.5t6 -22.5t-10.5 -19q-28 -17 -78 -17q-13 -1 -27.5 0t-32 3t-28.5 3q-3 0 -10 -1t-11 -1l215 -442l217 426q-36 24 -73 12q-32 -8 -41.5 1t-8.5 44q3 40 12.5 50t47.5 10q60 0 179.5 -1t178.5 -1q12 0 34 1t34 1q41 0 35 -35 q-1 -9 -3.5 -19.5t-7 -23.5t-6.5 -21q-23 0 -62.5 -0.5t-70.5 -0.5t-59 1q-43 3 -62 -36q-102 -208 -153 -299q-38 -64 -64 -123q37 -7 57 -5.5t55 6.5t56 5q12 -79 2 -119q-157 -8 -237 -10v-76q127 -8 186 -10q33 -2 46.5 -13.5t12.5 -37.5q-1 -19 -24.5 -33.5 t-46.5 -11.5q-30 6 -33 6h-139v-189h121q23 0 29 -5.5t11 -29.5q3 -28 9 -59q-19 -20 -48 -21t-49 5q-8 0 -22 2t-22 2.5t-20 -1t-22 -7.5h-24h-225q-50 0 -60 32q-18 40 14 80q12 15 48 15q10 0 90 -11q4 0 12.5 1t13.5 1v181q-54 4 -71 4q-15 -1 -55 -5t-62 -4 q-27 -1 -39 9t-14 34q0 26 13 38t42 14l182 8v82h-229l-8 26q-8 36 2.5 52t48.5 20q55 7 151 14q-3 8 -18.5 54t-26.5 69q-8 17 -63.5 126t-83.5 167q-26 50 -80 47q-23 -2 -66 -2.5t-57 -1.5q-23 0 -34.5 10t-14.5 33v35q-3 29 29 33q36 4 57 4q25 0 72 1t85 1t72 -2 q73 -6 146 0q11 0 23 -2.5t26 -6.5t20 -5zM1006 1008h208q6 13 19.5 38.5t19.5 40.5q9 21 17 28t19 2.5t30 -23.5q-13 -71 -90 -127q-7 -6 -18 -9.5t-20 -4.5t-23.5 -2.5t-20.5 -2.5q-33 0 -60 6q-47 7 -75 -47q-76 -120 -103 -166q-9 -15 -22 -53q-23 -51 -51 -39 q-37 16 -5 68q106 171 117 190q29 48 58 101zM987 197h-211q-1 -5 -4 -23.5t-6 -26.5q-2 -6 -8 -12t-10 -6q-27 5 -27 14q-6 41 0 78q10 33 49 33q12 2 35 -2q65 -17 141 8q4 78 8 115q4 47 -26 57l30 121q3 7 7.5 15t11.5 17.5t10 14.5h12q2 -4 5 -10.5t5.5 -11t4 -10 t0.5 -9.5q-8 -59 -8.5 -173t-1.5 -128q0 -9 -2.5 -19t-7.5 -23t-7 -19zM887 -41q0 61 2 90q0 22 10 35q9 12 22 10t15 -16q8 -60 8 -137q0 -28 -31 -31q-37 -2 -106 -10q-76 -6 -107 -6t-107.5 3.5t-107.5 4.5l-82 6q-5 2 -10.5 8t-5.5 10q-1 4 3 12.5t9 10.5q6 2 39 2 q60 0 179 -1t178 -1q5 0 92 10zM651 725q-28 -23 -35.5 -22t-21.5 26q-13 24 -51 106.5t-68 122.5q-13 17 -8 29t27 14q56 6 70 5t46 -13l25 154q40 -6 43 -43q6 -79 -27 -141q-17 -33 -49 -23q-8 4 -25.5 4h-21.5zM106 979q1 3 3 8.5t3 7.5l3 6t4 5.5t5.5 3t7.5 1t9 -2.5 q8 -2 23 -1.5t24 -0.5q4 -1 20 -3.5t22.5 -4.5t14.5 -11.5t9 -25.5q1 -8 14 -23.5t15 -19.5l127 -242q11 -19 14 -35q1 -6 -2 -14t-8 -11q-5 -2 -13.5 0.5t-11.5 6.5q-6 7 -12.5 23t-9.5 20q-7 13 -50 96t-67 127q-11 22 -20 34.5t-27.5 23.5t-42.5 9q-7 -1 -15 2t-21 10.5 t-18 10.5zM440 188q-75 9 -86 11q-7 1 -16.5 9t-7.5 11q3 9 10.5 19.5t13.5 11.5q17 2 103 2q28 -4 28 -29q4 -32 -24 -35h-21z" />
<glyph unicode="&#xa8;" horiz-adv-x="757" d="M641 1419q-2 -44 -31.5 -73.5t-70.5 -26.5q-45 3 -70.5 37.5t-19.5 73.5q6 38 35 61t75 22q37 -2 60 -27.5t22 -66.5zM41 1415q0 31 29 62.5t59 31.5q100 3 100 -98q-2 -46 -29.5 -73.5t-76.5 -28.5q-35 -1 -58.5 30t-23.5 76zM498 1266q0 13 10 18t23.5 5t33 1.5 t33.5 7.5q51 23 64 72q2 7 6 70q1 35 10 35q3 0 8 -5q31 -31 31 -79q0 -64 -47 -113t-113 -49q-27 0 -43 10t-16 27zM115 1260q8 31 39 34q51 1 79 42t23 98q0 3 10 36q24 -37 25 -38q23 -59 -14 -121t-101 -74q-31 -7 -61 23z" />
<glyph unicode="&#xa9;" horiz-adv-x="561" d="M494 791q-10 -18 -16.5 -27t-18 -20t-25.5 -17q-33 -14 -51 12q-2 3 -4 9.5t-4 9.5q-28 41 -76 46.5t-86 -26.5q-54 -47 -54.5 -129t52.5 -131q29 -26 58.5 -24.5t54.5 32.5q23 28 28 35q8 12 12 16.5t15.5 9.5t23.5 -1q3 -1 9 -2.5t9 -2.5t8.5 -3t8 -3.5t7 -4t6.5 -5.5 t5 -7t4.5 -8.5t2.5 -10.5q4 -29 -8 -41q-90 -94 -195 -76q-11 2 -34 6t-36 7t-31.5 10t-33.5 16q-38 25 -62 90q-45 122 9 233q39 73 127 90q75 13 135 5q96 -13 160 -88zM307 705q-41 -21 -49.5 -39.5t4.5 -53.5q3 -8 8 -32q-13 -9 -25.5 -3.5t-17.5 11t-12 16.5 q-24 37 -0.5 91t66.5 63q37 6 65 -25q4 -4 10.5 -13t10.5 -13q28 -26 45.5 -27.5t48.5 20.5l8 7q9 11 21 11.5t20 -9.5q4 -6 1 -18.5t-9 -20.5q-34 -43 -81.5 -43t-84.5 41q-9 9 -29 37zM520 461q-3 -48 -66 -91.5t-137 -47.5q-62 -3 -141 47q-6 4 -20 28q29 16 69 -4 q25 -11 41.5 -16t40 -5t45.5 11q7 3 36 14.5t46 21.5t31 27q10 13 17 15t38 0z" />
<glyph unicode="&#xab;" horiz-adv-x="802" d="M285 156q-63 -36 -99 34q-9 19 -33.5 63.5t-37.5 70.5q-12 24 -24.5 51t-27 60t-22.5 52l154 224q19 28 51 63q13 15 51 20t57 -6q11 -6 12 -19.5t-8 -25.5q-80 -102 -145 -190q-8 -12 -15.5 -26.5t-15.5 -32.5t-14 -29l123 -295q3 -5 -6 -14zM592 156q-62 -36 -98 34 q-10 19 -34.5 63.5t-37.5 70.5q-12 24 -24.5 51t-27 60t-22.5 52l154 224q19 28 51 63q13 15 51.5 20t57.5 -6q11 -6 12 -19.5t-8 -25.5q-104 -134 -146 -190q-8 -12 -15.5 -26.5t-15.5 -32.5t-14 -29l123 -295q3 -5 -6 -14zM524 453l103 172q17 30 55 82q23 33 33 41 q5 5 15 7t18 -1q10 -3 12 -13t-4 -20q-25 -46 -45 -76l-119 -172q-17 -23 -6 -49l76 -164l55 -121q5 -12 -10 -43q-8 -15 -18 -24t-25.5 -13.5t-24 -6t-29.5 -3.5q-9 0 -28.5 -3t-28.5 -3q-8 0 -17 4t-10 8q-3 4 1 14t10 15q40 29 86 18q25 -4 36 4q13 9 -2 39l-94 226 q-5 14 -18.5 40.5t-20.5 41.5zM217 453l102 172q14 25 56 82q23 33 33 41q13 13 32 6q10 -3 12.5 -13t-3.5 -20q-18 -33 -46 -76l-118 -172q-17 -23 -6 -49l75 -164l56 -121q5 -11 -11 -43q-8 -15 -18 -24t-25 -13.5t-23.5 -6t-29.5 -3.5q-9 0 -28.5 -3t-28.5 -3q-8 0 -17 4 t-10 8q-3 4 0.5 14t9.5 15q40 29 86 18q26 -4 37 4q13 9 -2 39l-94 226q-6 14 -19 40.5t-20 41.5z" />
<glyph unicode="&#xad;" horiz-adv-x="860" d="M717 455q7 -68 -6.5 -83t-71.5 -12q-126 7 -215 7q-17 0 -209 -11q-18 -1 -56.5 -5t-56.5 -5q-32 0 -48.5 20.5t-8.5 49.5q4 23 14.5 30t34.5 7h107q19 0 59.5 -1t61.5 -1l350 6q7 0 22.5 -1t22.5 -1zM764 338q6 23 3 41t1 38t20 34q26 -6 29 -35q0 -12 1 -37t1 -37 q0 -31 -13.5 -45t-45.5 -14q-22 0 -67 3t-68 3l-219 -8l-152 -5q-16 0 -45 -3t-43 -3q-22 -4 -33 4q-6 4 -10 13t-2 14q0 6 8.5 14.5t13.5 6.5q48 -9 73 -8.5t72 5.5t72 5q80 2 242 2q84 0 127 2q17 3 35 10z" />
<glyph unicode="&#xae;" horiz-adv-x="614" d="M145 598l7 -98q3 -22 -2.5 -33t-24.5 -14q-24 -2 -74 14q-5 2 -8 13.5t0 15.5q7 9 11 18.5t4.5 21t0 18t-2.5 21t-3 19.5q-16 127 4 240q4 31 13 39t41 16q149 30 272 -47q57 -37 55.5 -102t-59.5 -97q-6 -3 -22.5 -13t-26.5 -14q18 -47 82 -96q3 -2 11.5 -7t12.5 -8 t7.5 -10t2.5 -16q-3 -12 -10 -17.5t-13.5 -6t-18 -0.5h-15.5q-16 0 -24 -2q-48 -3 -74 36q-20 31 -66 89q-27 34 -80 20zM563 397q-25 1 -92 -8.5t-104 -1.5q-9 1 -14.5 2.5t-10 6.5t-2.5 12q3 8 13 14.5t16 5.5q28 -6 75.5 5.5t63.5 12.5q3 0 6 2.5t7 6.5t7 6 q-49 58 -106 86q-22 9 -31 16q-15 15 -12 17q2 4 7 17.5t8 20t8.5 14t11.5 9.5q14 4 25 12t17 14t12 20.5t7.5 19t5 23.5t4.5 22l4 30q5 -2 13.5 -4t13.5 -4t8 -6q11 -11 11 -35q-1 -9 -3 -18.5t-5.5 -21t-4.5 -17.5q-4 -19 -17.5 -35t-26 -24t-36.5 -21q42 -32 45 -33 q44 -21 64 -63q19 -33 20.5 -45.5t-8.5 -57.5zM145 684q20 -9 43.5 -10t37 2t42 12.5t35.5 11.5q13 2 22.5 14.5t6.5 30.5q-1 2 -4 15t-5 18t-8 12t-14 9q-36 7 -52.5 10t-47 2.5t-56.5 -8.5v-119zM242 356q-121 9 -158 13q-24 3 -14 32q40 6 125 17l-7 102q22 13 36.5 8 t15.5 -28q2 -22 2 -144zM293 737q-18 -6 -31 -6q-37 0 -49 -12q-21 -18 -41 10q-8 9 -4 26t14 21q5 3 10 5t11.5 2.5t10 0.5t11 -1t10.5 -1.5t12 -3t11 -2.5q33 -7 35 -39z" />
<glyph unicode="&#xaf;" horiz-adv-x="860" d="M717 1438q7 -68 -6.5 -83t-71.5 -12q-126 7 -215 7q-17 0 -209 -11q-18 -1 -56.5 -5t-56.5 -5q-32 0 -48.5 20.5t-8.5 49.5q4 23 14.5 30t34.5 7h107q19 0 59.5 -1t61.5 -1l350 6q7 0 22.5 -1t22.5 -1zM764 1321q6 23 3 41t1 38t20 34q26 -6 29 -35q0 -13 1 -37t1 -37 q0 -31 -13.5 -45t-45.5 -14q-22 0 -67 3t-68 3l-219 -8l-152 -4q-16 0 -45 -3.5t-43 -3.5q-22 -4 -33 4q-6 4 -10 13t-2 14q0 6 8.5 14.5t13.5 6.5q48 -9 73 -8.5t72 5.5t72 5q80 2 242 2q84 0 127 2q17 3 35 10z" />
<glyph unicode="&#xb4;" horiz-adv-x="520" d="M76 1196l184 260q38 55 98 55q35 2 52 -22t2 -55t-58 -78q-13 -16 -28 -31.5t-36.5 -36t-29.5 -28.5l-80 -80q-28 -26 -50.5 -22.5t-53.5 38.5zM479 1393q-3 -17 -11.5 -34t-16 -26.5t-23 -26.5t-20.5 -24q-35 -45 -113 -127q-68 -71 -150 -104q-19 -7 -53 -11 q-26 -3 -35 21l-8 22q-1 3 -3.5 11.5t-3 12.5t0.5 9q9 12 21 12t22 -10q17 -15 33.5 -17t29.5 4.5t29 20.5q99 79 144 138q27 37 104 127q12 15 19.5 15.5t33.5 -13.5z" />
<glyph unicode="&#xb5;" horiz-adv-x="866" d="M477 532q-6 3 -17 6.5t-16 6t-6 6.5q-13 25 -16 65q-3 36 53 39q21 0 61 -2t60 -2q28 -4 39 -4q33 3 41 -1.5t20 -33.5l6 -20q-15 -18 -54 -27t-54 -20q0 -9 0.5 -26t0.5 -31t-1 -27q-1 -9 -4.5 -33.5t-3.5 -38.5q2 -47 12.5 -76.5t46.5 -46.5l49 -24q20 -10 25 -15 q7 -10 -2.5 -57t-20.5 -53q-21 -13 -45 4q-22 15 -63.5 40t-48.5 29q-44 -78 -118.5 -107t-166.5 3q0 -6 -1 -18.5t-1 -18.5q0 -13 3 -54.5t1 -62.5q-2 -39 -25 -94q-13 -27 -39.5 -41.5t-52.5 -11.5q-30 6 -52 30.5t-28 57.5q-25 138 37 250q35 62 35 176v227l-80 15 q-16 44 -4.5 66t55.5 26q24 3 50 3.5t62 -0.5t50 -1q10 0 30 1t30 1q38 0 41 -39q3 -20 -6.5 -38t-24.5 -19q-7 -2 -43 -2q-24 -2 -33.5 -11t-9.5 -32q4 -142 10 -213q6 -58 57.5 -80t100.5 12q58 43 61 104l6 138q0 11 -1 23.5t-2.5 28t-2.5 23.5zM373 -39q0 -11 -2 -27 t-2 -22q8 -131 -117 -215q-46 -32 -133 -21q-37 3 -31 54q2 0 7 1t7 1q68 -20 123 11.5t78.5 90t9.5 115.5q-2 11 -4 32t-4 33q10 0 25.5 0.5t27 0.5t21.5 -1q90 -7 129 58q9 15 33.5 38.5t29.5 28.5l91 -106q-17 -4 -31.5 -0.5t-31.5 13.5t-26 13q-68 -109 -200 -98z M735 545q2 8 2.5 29t5.5 35.5t19 25.5q2 -1 6.5 -2t5.5 -2q11 -16 14 -65t-8 -60q-17 -15 -55 -23q-7 -1 -11 -0.5t-11.5 3l-10.5 3.5q-21 -45 -11.5 -100t44.5 -82q12 -11 68 -35q43 -21 28 -63l-47 -113q-15 -33 -39 -14q5 22 12 45.5t15.5 52t13.5 45.5q-36 18 -39 19 q-39 11 -63 37.5t-47 70.5q-2 4 -2 15l8 116q0 17 6 25.5t23 11.5q10 2 21 5.5t26.5 10t25.5 9.5zM455 465q-14 -16 -32.5 -20.5t-33 -2t-31.5 -2.5q-13 -43 -8 -101.5t25 -96.5q-40 -24 -58 8q-14 20 -18 53v98v17.5t-0.5 17.5t-4.5 17t-13 16q-8 6 -4 17.5t16 11.5 q34 0 131 -9q9 -2 31 -24zM100 479q-28 -28 -45 -4q-3 4 -1.5 16t5.5 13q27 16 41 -25z" />
<glyph unicode="&#xb6;" horiz-adv-x="1376" d="M561 709l-211 12q-102 3 -182 37q-96 41 -119 143q-23 90 37 168q38 53 98 59q35 4 101.5 4.5t76.5 0.5q21 0 61.5 1t59.5 1l117 6l229 6q21 1 65 1t67 1q19 1 58 5t58 5t41.5 1t52 -0.5t46.5 -0.5q6 -99 6 -104q0 -29 -43 -29q-33 -2 -99 -2l-41 -4v-43q6 -98 9 -199 q0 -14 -3.5 -42t-3.5 -42q0 -176 -4 -528v-180q-52 -13 -71 -15q-7 -1 -16.5 3.5t-12.5 9.5q-14 28 -14 51l14 450q1 15 -0.5 42t-1.5 36q0 39 4 117l8 176q0 4 -6 127q0 31 -35 31l-137 -13q-26 -4 -78 -8q-8 -94 -8 -133q0 -65 2 -192.5t2 -190.5q0 -29 -3.5 -81.5 t-4.5 -69.5q-1 -25 -1 -54t0.5 -64.5t0.5 -55.5q0 -80 -2 -121q0 -24 -6.5 -31t-30.5 -10q-27 0 -39 -2q-30 -3 -43 9t-12 42q1 24 5 72.5t5 72.5l4 269v256zM1110 973h172q7 33 4.5 59.5t1 58.5t17.5 54q28 -2 28 -31q2 -59 2 -176q0 -3 -8 -14h-166q-17 -149 -10 -252 q1 -30 -1.5 -88.5t-2.5 -81.5q0 -7 5 -45t-1 -45q-6 -6 -2 -43.5t4 -42.5q0 -26 -1 -55.5t-2.5 -65t-2.5 -55.5q0 -14 -0.5 -40.5t-0.5 -43t1 -39t4 -41.5q7 -52 -35 -101q-4 -5 -12 -8.5t-13.5 -5t-17 -3.5t-14.5 -3q-26 -5 -56.5 -3t-52.5 19q-4 3 -16 27q19 14 27 14 q65 -10 155 17q0 3 0.5 8.5t0.5 10.5t-1 9q-10 40 -14.5 89.5t-4.5 73.5t3.5 94t3.5 79q0 6 -1 19.5t-1 19.5q1 38 -2 103t-2.5 120t8.5 103q1 7 -0.5 21t-1.5 18q-13 115 6 266zM909 930l-112 -19q-1 -9 -11 -84q-19 -228 -8 -428q0 -8 -1 -24.5t-1 -24.5l-12 -346v-72 q-5 -22 -12 -24q-95 -42 -203 -17q-5 35 31 39q62 9 129 15q1 9 7 37t7 43q1 33 1 94.5t1 112t4 94.5q6 17 2 160.5t-4 160.5q0 33 2 69.5t5.5 80.5t4.5 69q0 13 -1 40.5t-1 41.5q-1 20 7.5 28.5t27.5 6.5l90 -12q14 -1 22 -3.5t15.5 -12t9.5 -25.5zM184 690q5 0 12.5 1 t12 1t8.5 -2q13 -8 27 -13t34 -6.5t27 -2.5t35 -0.5t29 0.5q108 0 145 -11q9 -2 25 -12q-17 -38 -60 -35q-104 3 -209 15q-67 8 -86 65z" />
<glyph unicode="&#xb8;" horiz-adv-x="565" d="M248 31q17 -10 47 -24t50.5 -27.5t35.5 -32.5q32 -40 38.5 -81t-2.5 -68.5t-30 -67.5q-20 -37 -54 -56t-85 -32q-18 -5 -36.5 -6t-41 2.5t-33 6t-37.5 9.5q-24 8 -47 35q-6 6 -8.5 17.5t0.5 17.5q5 9 33 14q3 0 6.5 -1t8 -2.5l7.5 -2.5q56 -18 110 12.5t81 81.5 q17 38 -2.5 76t-71.5 35h-14q-46 0 -65.5 25.5t-6.5 70.5q11 40 53 131q12 24 40 37t55 8q24 -3 33.5 -20.5t0.5 -41.5l-14 -24q-32 -55 -51 -92zM41 -367l82 -30q45 -15 57 -15q138 -6 228 78q40 37 54 103.5t-9 124.5q-15 43 -84 112q-3 4 -13.5 12t-13.5 11 q-21 21 -22 30.5t16 34.5q5 6 13 20.5t13 20.5q4 4 13 7t12 1q16 -12 12 -26q-1 -7 -22 -58q47 -25 100 -100q68 -91 35 -209q-51 -183 -240 -213q-5 -1 -21 -4t-22.5 -4t-20.5 -3t-23 -1.5t-21 2t-23 4.5q-49 15 -84 53q-4 4 -6 10.5t-4.5 18t-5.5 20.5zM154 -82 q44 -15 84 -33q4 -2 6.5 -7t5 -13t4.5 -12q-3 -1 -15 -7.5t-18 -5.5q-17 2 -47 10t-35 9q-27 8 -22 30q6 29 37 29z" />
<glyph unicode="&#xbb;" horiz-adv-x="800" d="M541 463l-111 221q-4 8 -17 23t-18 24q-7 13 -0.5 24t21.5 9q4 -1 15.5 -2t16 -1.5t14 -3t15 -6t12 -10t11.5 -14.5q44 -65 90 -129l45 -61q4 -6 12.5 -16t11.5 -15q5 -9 12 -23q17 -31 15 -41.5t-30 -39.5l-5 -5q-9 -9 -44 -47t-50 -54t-39.5 -46t-42.5 -55 q-5 -7 -11 -12.5t-10.5 -9t-12.5 -6.5l-12 -4.5t-13.5 -3.5t-12.5 -2.5t-14.5 -1.5t-13.5 -1q-13 -1 -18 10.5t3 23.5l86 131zM233 463l-110 221q-4 8 -17 23t-18 24q-7 13 -0.5 24t21.5 9q4 -1 15.5 -2t16 -1.5t14 -3t15 -6t12 -10t11.5 -14.5q43 -65 90 -129l45 -61 q4 -6 12.5 -16t11.5 -15q5 -9 12 -23q17 -31 15 -41.5t-30 -39.5l-5 -5q-9 -9 -44 -47t-50 -54t-39.5 -46t-42.5 -55q-5 -7 -11 -12.5t-10.5 -9t-12.5 -6.5l-12 -4.5t-13.5 -3.5t-12.5 -2.5t-14.5 -1.5t-13.5 -1q-13 -1 -18 10.5t3 23.5l86 131zM424 434q23 -19 26 -34 t-12 -35q-11 -20 -39 -52q-52 -55 -120 -133q-18 -19 -70 -94q-2 -2 -6.5 -7.5t-8 -9t-6.5 -3.5q-19 2 -48.5 -4.5t-48 -9t-48.5 10.5q-1 10 0.5 17t4 11t9 6.5t10 3t11.5 1t10 0.5q8 1 18 -0.5t24.5 -5t25.5 -4.5q31 57 74.5 112.5t104.5 124.5t89 105zM731 434 q23 -19 26 -34t-12 -35q-13 -23 -38 -52q-63 -66 -121 -133q-18 -19 -70 -94q-2 -2 -6 -7.5t-7.5 -9t-6.5 -3.5q-19 2 -49 -4.5t-48.5 -9t-48.5 10.5q-1 10 0.5 17t4 11t9 6.5t10 3t11.5 1t10 0.5q8 1 18 -0.5t24.5 -5t25.5 -4.5q31 57 74.5 112.5t104.5 124.5t89 105z" />
<glyph unicode="&#xbd;" horiz-adv-x="2254" d="M1561 92q60 1 202.5 -3t204.5 -3q0 6 6 135v11.5v10t0.5 7t1 5.5t2 3.5t3.5 3t5 1.5t7 1h10q36 4 55 4q14 0 24 -8.5t11 -23.5q0 -37 1 -110t1 -110q0 -20 -16.5 -35.5t-38.5 -15.5q-41 0 -123 1t-123 1q-14 1 -38.5 2.5t-44.5 2.5t-38 1l-295 4q-8 0 -18.5 5.5 t-11.5 11.5q0 1 -3 13t-3.5 18t-1.5 16t1 17.5t7 13.5q30 35 65 65q76 76 162.5 153t133 117t87 83.5t51 78t-1.5 74.5q-22 63 -71.5 97t-108 33.5t-119.5 -25.5q-48 -24 -72 -64t-22 -76q0 -20 1 -52t1 -52q2 -45 -9 -60t-52 -12l-37 2q-32 3 -42 16t-7 46q2 8 2 22 q-16 104 39 209q21 40 59 70q43 34 92 55q124 61 281 20q125 -32 177 -86.5t52 -148.5q0 -37 -17.5 -78.5t-42 -76t-66.5 -79t-74 -73.5t-82.5 -74.5t-75.5 -69.5l-60 -49l-35 -33q5 -10 5 -12zM84 795q-88 10 12 159q17 26 75 109.5t87 130.5q18 26 51 31q65 10 117 -6 q35 -10 35 -52q-4 -86 -4 -127q0 -42 2 -125t2 -124q-1 -45 -1.5 -70t-1 -30.5t-1 -13.5t-0.5 -30v-69q0 -25 4 -99l127 -6q76 0 76 -35q0 -53 -8 -66.5t-50 -13.5q-281 0 -416 2q-16 0 -24 1t-18 6.5t-13 17.5q-4 26 8 80q1 4 14 8t23 4h144v590l-21 -18 q-80 -104 -123 -164q-6 -8 -15.5 -21.5t-13.5 -19t-11.5 -14.5t-11.5 -13t-10 -9.5t-10.5 -7.5t-10.5 -3.5t-13 -1.5zM647 -8q12 23 60 113t75 137q80 136 174 370q25 65 67.5 149.5t98 189t76.5 145.5q7 14 19 43.5t18 42.5q10 21 20 25.5t41 2.5h82q15 0 21 -5t1.5 -17 t-7.5 -18t-13 -21q-58 -82 -125 -203t-110 -219q-21 -46 -66.5 -150t-70.5 -157q-20 -47 -63 -130t-52 -102l-84 -178q-16 -37 -51 -35q-8 1 -64 -4q-40 0 -47 21zM842 -53q6 17 17.5 50t21.5 58t20 47q24 55 74.5 158t56.5 115q21 44 59.5 126.5t72 153.5t65.5 136 q16 32 68 122.5t63 110.5q17 32 45 80q13 26 27 33q5 3 14 0.5t14 -7.5q10 -7 6 -24l-14 -21q-2 -3 -132.5 -244.5t-180.5 -351.5l-146 -315l-39 -78q-5 -12 -18 -40t-21.5 -49.5t-13.5 -41.5q-10 -38 -35 -54.5t-65 -21.5q-17 -3 -107 -8q-17 -4 -24 0q-16 12 -19 25 q-1 3 6 9.5t13 8.5q16 6 53 10zM2193 -145q-297 -20 -778 6q-24 0 -25 20q-2 21 20 29q7 2 15 2h248q26 0 109.5 -3t110 -2.5t110.5 3.5q22 1 46 1t55 -0.5t50 -0.5v133q0 25 -1 73.5t-1 71.5q0 30 9 54q1 6 9 12t13 6q6 0 14 -6t11 -12q4 -8 4 -29q0 -1 1 -137t-1 -137 q0 -25 -5.5 -54.5t-13.5 -29.5zM1790 625q-29 36 -82 39q-37 2 -82 -14.5t-55 -43.5q-9 -20 -12 -47v-205q0 -13 -1 -16.5t-14.5 -8.5t-44 -6t-90.5 -1q-7 0 -21.5 1t-21.5 1h-20q-31 7 -31 32t31 25q16 1 38.5 1t38.5 1h66q0 11 1.5 52.5t0.5 62.5q-3 85 27 147 q18 36 64.5 57t84.5 23q32 3 71.5 -13t61.5 -40q10 -11 15 -21t-0.5 -18t-24.5 -8zM700 309l13 121q3 18 12.5 20.5t32.5 -6.5q8 -71 10 -102q-1 -10 0.5 -13.5t-2 -13t-4 -12.5t-5.5 -12t-6.5 -12t-6.5 -11.5t-7 -11.5q-7 -10 -35 -10q-46 -1 -137 -1t-137 -1 q-15 0 -88.5 1t-77.5 1q-12 0 -34.5 8t-34.5 20q-8 8 6.5 15.5t25.5 7.5l420 4q10 0 29.5 3.5t25.5 4.5zM2093 686q16 -40 18.5 -76.5t-2.5 -62t-24.5 -56.5t-33.5 -47t-45 -48.5t-44 -47.5q-25 -30 -56 -61.5t-72 -70.5t-60 -58l-7 -6q-3 -1 -10.5 -5t-12 -6t-10.5 -3 t-11 1t-9 8q-19 23 17 50q149 131 187 169q178 176 149 282q-2 10 -7 20q0 18 8 22q16 5 25 -4zM535 514q-18 0 -23.5 7.5t-5.5 23.5q0 7 2 46.5t2 59.5q0 125 -4 318v108q3 53 15 53q7 1 18 -12q6 -7 9.5 -15.5t5 -21t2 -18t0 -22.5t-0.5 -19q-2 -20 -2 -61l4 -23 q9 -123 2 -268v-131q0 -13 -8 -19t-16 -6zM172 823q70 90 90 107q14 12 25 -10q6 -11 1 -25.5t-16 -26.5q-81 -105 -102 -129q-11 -14 -29 -2q-26 19 31 86z" />
<glyph unicode="&#xc0;" horiz-adv-x="1916" d="M1788 94q0 -6 0.5 -23t0 -27.5t-1 -24t-3 -22.5t-6.5 -13q-36 -4 -109.5 -2.5t-228.5 6t-228 4.5q-21 26 -4 92q10 40 60 27q51 -15 155 0q-22 55 -28 67q-11 23 -34 54t-32 47q-16 36 -61 36q-40 0 -113 4t-100 5q-191 7 -316 0q-38 0 -108.5 -3t-87.5 -4 q-17 -35 -51.5 -93t-53.5 -95q50 -4 64 -4q88 0 133 2q39 0 45 -29q6 -33 -4 -88q-4 -8 -31 -8q-57 -2 -174 -2l-340 4q-7 0 -22.5 -3t-22.5 -3q-38 0 -43 31q-5 29 2 54t25 32q2 0 5.5 1t4.5 1l219 6q45 48 80 113l147 276q15 25 38.5 71.5t29.5 57.5l149 291 q21 39 58 113.5t51 101.5q7 11 16 14q13 7 41.5 10.5t63.5 -1.5t55 -21q25 -22 37 -45q9 -20 34 -77t40 -87q33 -73 99.5 -205t90.5 -184q28 -61 90.5 -178.5t89.5 -173.5q5 -12 16.5 -27.5t16.5 -28.5q15 -37 57 -37q123 7 168 7q4 0 12.5 -6t8.5 -13zM1253 434 q-57 101 -152 307t-159 314q-59 -91 -113.5 -192t-118 -227.5t-102.5 -199.5q29 -4 59.5 -6t51 -1.5t53.5 1t51 0.5h219q21 0 66 -1t76.5 -0.5t68.5 5.5zM1145 1085q23 -11 36 -26t25 -39q49 -89 131 -249t121 -234q34 -62 86.5 -183t83.5 -178q13 -29 -4 -35q-21 -7 -37 21 q-31 57 -78 158t-69 143q-44 83 -141 278t-154 297q-22 44 -9 49q3 1 9 -2zM961 225q-50 1 -287 -4q-6 0 -17.5 -1t-17.5 -1q-43 0 -57 -37l-7.5 -18t-12 -12t-21.5 -2q-10 3 -12 20.5t6 36.5l18 39q13 22 57 22h625q3 0 12.5 0.5t15 0.5t12.5 -2t10.5 -7t4.5 -14 q1 -12 -6 -18.5t-13.5 -7.5t-19.5 -1q-93 0 -182 3t-108 3zM117 -57q-16 14 17 17q5 1 11 1h201q24 0 71 -1t70 -1q86 -3 172 0q42 0 62 2q0 82 4 109q1 13 10 21.5t15 2.5q20 -20 26 -43q3 -53 0 -106q-3 -31 -35 -31q-260 0 -389 2q-48 0 -174 4q-37 4 -61 23zM1819 -53 q1 12 -2.5 44.5t-2.5 56.5t13 28q9 3 15.5 3t11 -1.5t8 -7t5 -9t3 -12t1.5 -13t1 -13.5q0 -9 1 -29t1 -29q3 -38 -7 -48.5t-48 -12.5q-33 0 -98.5 -1t-98.5 -1h-291q-35 4 -57 26q-6 6 -4 13.5t10 7.5q36 0 97 -1t83 -1q47 0 135.5 -2t116.5 -2q72 0 107 4zM961 932 q0 -4 -1 -9t-3 -10t-3 -8q-30 -76 -98 -202t-92 -177l-21 -47q-7 -20 -36 -20q-26 0 -19 26l45 80q69 119 150 295l39 78q0 1 3 5.5l5 7.5t5.5 6.5t6.5 3t6 -4.5q13 -13 13 -24zM842 1706q52 3 86 -47q56 -79 137 -201q14 -18 14 -37q2 -6 -2 -14.5t-10 -11.5 q-16 -11 -28 -16t-27.5 -4.5t-30.5 11.5q-3 2 -10 5t-11.5 5.5t-7.5 6.5q-86 83 -166 166q-30 30 -20 84q16 59 76 53zM1155 1288q-14 -2 -41.5 -6.5t-42.5 -5.5q-6 0 -15 7t-12 13q-3 9 15 27q27 18 54 9t42 -44z" />
<glyph unicode="&#xc1;" horiz-adv-x="1916" d="M1788 94q0 -6 0.5 -23t0 -27.5t-1 -24t-3 -22.5t-6.5 -13q-36 -4 -109.5 -2.5t-228.5 6t-228 4.5q-21 26 -4 92q10 40 60 27q51 -15 155 0q-22 55 -28 67q-11 23 -34 54t-32 47q-16 36 -61 36q-40 0 -113 4t-100 5q-191 7 -316 0q-38 0 -108.5 -3t-87.5 -4 q-17 -35 -51.5 -93t-53.5 -95q50 -4 64 -4q88 0 133 2q39 0 45 -29q6 -33 -4 -88q-4 -8 -31 -8q-57 -2 -174 -2l-340 4q-7 0 -22.5 -3t-22.5 -3q-38 0 -43 31q-5 29 2 54t25 32q2 0 5.5 1t4.5 1l219 6q45 48 80 113l147 276q15 25 38.5 71.5t29.5 57.5l149 291 q21 39 58 113.5t51 101.5q7 11 16 14q13 7 41.5 10.5t63.5 -1.5t55 -21q25 -22 37 -45q9 -20 34 -77t40 -87q33 -73 99.5 -205t90.5 -184q28 -61 90.5 -178.5t89.5 -173.5q5 -12 16.5 -27.5t16.5 -28.5q15 -37 57 -37q123 7 168 7q4 0 12.5 -6t8.5 -13zM1253 434 q-57 101 -152 307t-159 314q-59 -91 -113.5 -192t-118 -227.5t-102.5 -199.5q29 -4 59.5 -6t51 -1.5t53.5 1t51 0.5h219q21 0 66 -1t76.5 -0.5t68.5 5.5zM1145 1085q23 -11 36 -26t25 -39q49 -89 131 -249t121 -234q34 -62 86.5 -183t83.5 -178q13 -29 -4 -35q-21 -7 -37 21 q-31 57 -78 158t-69 143q-44 83 -141 278t-154 297q-22 44 -9 49q3 1 9 -2zM961 225q-50 1 -287 -4q-6 0 -17.5 -1t-17.5 -1q-43 0 -57 -37l-7.5 -18t-12 -12t-21.5 -2q-10 3 -12 20.5t6 36.5l18 39q13 22 57 22h625q3 0 12.5 0.5t15 0.5t12.5 -2t10.5 -7t4.5 -14 q1 -12 -6 -18.5t-13.5 -7.5t-19.5 -1q-93 0 -182 3t-108 3zM117 -57q-16 14 17 17q5 1 11 1h201q24 0 71 -1t70 -1q86 -3 172 0q42 0 62 2q0 82 4 109q1 13 10 21.5t15 2.5q20 -20 26 -43q3 -53 0 -106q-3 -31 -35 -31q-260 0 -389 2q-48 0 -174 4q-37 4 -61 23zM1819 -53 q1 12 -2.5 44.5t-2.5 56.5t13 28q9 3 15.5 3t11 -1.5t8 -7t5 -9t3 -12t1.5 -13t1 -13.5q0 -9 1 -29t1 -29q3 -38 -7 -48.5t-48 -12.5q-33 0 -98.5 -1t-98.5 -1h-291q-35 4 -57 26q-6 6 -4 13.5t10 7.5q36 0 97 -1t83 -1q47 0 135.5 -2t116.5 -2q72 0 107 4zM961 932 q0 -4 -1 -9t-3 -10t-3 -8q-30 -76 -98 -202t-92 -177l-21 -47q-7 -20 -36 -20q-26 0 -19 26l45 80q69 119 150 295l39 78q0 1 3 5.5l5 7.5t5.5 6.5t6.5 3t6 -4.5q13 -13 13 -24zM774 1401l184 260q38 55 99 55q35 1 51.5 -23t1.5 -55q-15 -32 -57 -77q-13 -16 -28.5 -31.5 t-37 -36.5t-29.5 -29l-79 -80q-28 -26 -51 -22t-54 39zM1178 1597q-4 -22 -13.5 -39t-33 -42.5t-25.5 -28.5q-35 -45 -113 -127q-70 -73 -149 -105q-16 -6 -53 -10q-26 -3 -35 21l-8 22q-1 3 -4 11.5t-3.5 12.5t0.5 9q9 11 21 11t22 -9q41 -37 93 8q98 79 143 137 q27 37 104 127q12 15 20 15.5t34 -13.5z" />
<glyph unicode="&#xc2;" horiz-adv-x="1916" d="M1788 94q0 -6 0.5 -23t0 -27.5t-1 -24t-3 -22.5t-6.5 -13q-36 -4 -109.5 -2.5t-228.5 6t-228 4.5q-21 26 -4 92q10 40 60 27q51 -15 155 0q-22 55 -28 67q-11 23 -34 54t-32 47q-16 36 -61 36q-40 0 -113 4t-100 5q-191 7 -316 0q-38 0 -108.5 -3t-87.5 -4 q-17 -35 -51.5 -93t-53.5 -95q50 -4 64 -4q88 0 133 2q39 0 45 -29q6 -33 -4 -88q-4 -8 -31 -8q-57 -2 -174 -2l-340 4q-7 0 -22.5 -3t-22.5 -3q-38 0 -43 31q-5 29 2 54t25 32q2 0 5.5 1t4.5 1l219 6q45 48 80 113l147 276q15 25 38.5 71.5t29.5 57.5l149 291 q21 39 58 113.5t51 101.5q7 11 16 14q13 7 41.5 10.5t63.5 -1.5t55 -21q25 -22 37 -45q9 -20 34 -77t40 -87q33 -73 99.5 -205t90.5 -184q28 -61 90.5 -178.5t89.5 -173.5q5 -12 16.5 -27.5t16.5 -28.5q15 -37 57 -37q123 7 168 7q4 0 12.5 -6t8.5 -13zM1253 434 q-57 101 -152 307t-159 314q-59 -91 -113.5 -192t-118 -227.5t-102.5 -199.5q29 -4 59.5 -6t51 -1.5t53.5 1t51 0.5h219q21 0 66 -1t76.5 -0.5t68.5 5.5zM1145 1085q23 -11 36 -26t25 -39q49 -89 131 -249t121 -234q34 -62 86.5 -183t83.5 -178q13 -29 -4 -35q-21 -7 -37 21 q-31 57 -78 158t-69 143q-44 83 -141 278t-154 297q-22 44 -9 49q3 1 9 -2zM961 225q-50 1 -287 -4q-6 0 -17.5 -1t-17.5 -1q-43 0 -57 -37l-7.5 -18t-12 -12t-21.5 -2q-10 3 -12 20.5t6 36.5l18 39q13 22 57 22h625q3 0 12.5 0.5t15 0.5t12.5 -2t10.5 -7t4.5 -14 q1 -12 -6 -18.5t-13.5 -7.5t-19.5 -1q-93 0 -182 3t-108 3zM117 -57q-16 14 17 17q5 1 11 1h201q24 0 71 -1t70 -1q86 -3 172 0q42 0 62 2q0 82 4 109q1 13 10 21.5t15 2.5q20 -20 26 -43q3 -53 0 -106q-3 -31 -35 -31q-260 0 -389 2q-48 0 -174 4q-37 4 -61 23zM1819 -53 q1 12 -2.5 44.5t-2.5 56.5t13 28q9 3 15.5 3t11 -1.5t8 -7t5 -9t3 -12t1.5 -13t1 -13.5q0 -9 1 -29t1 -29q3 -38 -7 -48.5t-48 -12.5q-33 0 -98.5 -1t-98.5 -1h-291q-35 4 -57 26q-6 6 -4 13.5t10 7.5q36 0 97 -1t83 -1q47 0 135.5 -2t116.5 -2q72 0 107 4zM961 932 q0 -4 -1 -9t-3 -10t-3 -8q-30 -76 -98 -202t-92 -177l-21 -47q-7 -20 -36 -20q-26 0 -19 26l45 80q69 119 150 295l39 78q0 1 3 5.5l5 7.5t5.5 6.5t6.5 3t6 -4.5q13 -13 13 -24zM942 1559q-19 -25 -61.5 -77t-63.5 -79q-4 -4 -8.5 -16.5t-11 -19.5t-19.5 -7q-10 0 -29 -1.5 t-30.5 -1.5t-27.5 3.5t-29 11.5q-4 2 -9 12l113 129q50 57 84 101q18 28 41 28h123q39 -57 120.5 -150.5t92.5 -107.5q-11 -35 -49 -32q-8 1 -26 0t-26 0q-38 5 -47 10q-22 8 -10 39q3 7 -6 16q-3 5 -16.5 24t-19 26t-18 23t-21 25.5t-21 21.5t-25.5 22zM807 1317 q7 12 25.5 38.5t25.5 41.5q9 17 23.5 30.5t35.5 27t31 22.5q21 16 37 -17q14 -23 40 -64t30 -48q21 -34 61 -31q17 2 107 2q13 0 22 -6q17 -9 17 -21q-3 -12 -19 -20q-4 -2 -29 -2q-13 -1 -54.5 -1.5t-63.5 -2.5q-58 -3 -84 51q-6 14 -15 28.5t-21.5 33.5t-19.5 30 q-88 -114 -98 -125q-20 -20 -31 -20q-26 1 -73 7t-62 7q-13 2 -20 6.5t-6 15.5q2 19 32 19q37 -2 109 -2z" />
<glyph unicode="&#xc3;" horiz-adv-x="1916" d="M1788 94q0 -6 0.5 -23t0 -27.5t-1 -24t-3 -22.5t-6.5 -13q-36 -4 -109.5 -2.5t-228.5 6t-228 4.5q-21 26 -4 92q10 40 60 27q51 -15 155 0q-22 55 -28 67q-11 23 -34 54t-32 47q-16 36 -61 36q-40 0 -113 4t-100 5q-191 7 -316 0q-38 0 -108.5 -3t-87.5 -4 q-17 -35 -51.5 -93t-53.5 -95q50 -4 64 -4q88 0 133 2q39 0 45 -29q6 -33 -4 -88q-4 -8 -31 -8q-57 -2 -174 -2l-340 4q-7 0 -22.5 -3t-22.5 -3q-38 0 -43 31q-5 29 2 54t25 32q2 0 5.5 1t4.5 1l219 6q45 48 80 113l147 276q15 25 38.5 71.5t29.5 57.5l149 291 q21 39 58 113.5t51 101.5q7 11 16 14q13 7 41.5 10.5t63.5 -1.5t55 -21q25 -22 37 -45q9 -20 34 -77t40 -87q33 -73 99.5 -205t90.5 -184q28 -61 90.5 -178.5t89.5 -173.5q5 -12 16.5 -27.5t16.5 -28.5q15 -37 57 -37q123 7 168 7q4 0 12.5 -6t8.5 -13zM1253 434 q-57 101 -152 307t-159 314q-59 -91 -113.5 -192t-118 -227.5t-102.5 -199.5q29 -4 59.5 -6t51 -1.5t53.5 1t51 0.5h219q21 0 66 -1t76.5 -0.5t68.5 5.5zM1145 1085q23 -11 36 -26t25 -39q49 -89 131 -249t121 -234q34 -62 86.5 -183t83.5 -178q13 -29 -4 -35q-21 -7 -37 21 q-31 57 -78 158t-69 143q-44 83 -141 278t-154 297q-22 44 -9 49q3 1 9 -2zM961 225q-50 1 -287 -4q-6 0 -17.5 -1t-17.5 -1q-43 0 -57 -37l-7.5 -18t-12 -12t-21.5 -2q-10 3 -12 20.5t6 36.5l18 39q13 22 57 22h625q3 0 12.5 0.5t15 0.5t12.5 -2t10.5 -7t4.5 -14 q1 -12 -6 -18.5t-13.5 -7.5t-19.5 -1q-93 0 -182 3t-108 3zM117 -57q-16 14 17 17q5 1 11 1h201q24 0 71 -1t70 -1q86 -3 172 0q42 0 62 2q0 82 4 109q1 13 10 21.5t15 2.5q20 -20 26 -43q3 -53 0 -106q-3 -31 -35 -31q-260 0 -389 2q-48 0 -174 4q-37 4 -61 23zM1819 -53 q1 12 -2.5 44.5t-2.5 56.5t13 28q9 3 15.5 3t11 -1.5t8 -7t5 -9t3 -12t1.5 -13t1 -13.5q0 -9 1 -29t1 -29q3 -38 -7 -48.5t-48 -12.5q-33 0 -98.5 -1t-98.5 -1h-291q-35 4 -57 26q-6 6 -4 13.5t10 7.5q36 0 97 -1t83 -1q47 0 135.5 -2t116.5 -2q72 0 107 4zM961 932 q0 -4 -1 -9t-3 -10t-3 -8q-30 -76 -98 -202t-92 -177l-21 -47q-7 -20 -36 -20q-26 0 -19 26l45 80q69 119 150 295l39 78q0 1 3 5.5l5 7.5t5.5 6.5t6.5 3t6 -4.5q13 -13 13 -24zM1071 1362q-121 10 -176 63q-1 1 -37 31q-37 22 -73 12t-56 -47l-22 -55q-9 -21 -20.5 -25 t-33.5 7q-3 1 -12 6t-13 7t-11.5 6.5t-12 8t-9 8t-7.5 9.5q-6 12 -0.5 22.5t17.5 22.5t16 20q6 14 24 41q40 64 139 94q43 12 99 -10q51 -16 106 -55q43 -29 74.5 -24t77.5 48q4 4 11.5 15.5t10.5 15.5q19 28 46 33t53 -14l8 -7q32 -26 32 -36.5t-32 -38.5q-37 -29 -58 -60 q-41 -52 -133 -94l-9 -4h1zM547 1317q19 24 51 8l94 -41q56 68 78 92q26 26 43 29t51 -14q14 -7 38.5 -21.5t45 -24.5t39.5 -14q137 -39 221 45q12 12 33.5 35t39.5 42t34 36q21 24 45 8q13 -35 -17 -65q-16 -14 -56 -54.5t-64 -60.5q-116 -89 -248 -41q-38 13 -135 61 q-9 -1 -15.5 -7.5t-9.5 -12.5t-7.5 -17t-6.5 -16q-20 -42 -58.5 -56.5t-78.5 5.5q-72 38 -98 63q-10 10 -19 21z" />
<glyph unicode="&#xc4;" horiz-adv-x="1916" d="M1788 94q0 -6 0.5 -23t0 -27.5t-1 -24t-3 -22.5t-6.5 -13q-36 -4 -109.5 -2.5t-228.5 6t-228 4.5q-21 26 -4 92q10 40 60 27q51 -15 155 0q-22 55 -28 67q-11 23 -34 54t-32 47q-16 36 -61 36q-40 0 -113 4t-100 5q-191 7 -316 0q-38 0 -108.5 -3t-87.5 -4 q-17 -35 -51.5 -93t-53.5 -95q50 -4 64 -4q88 0 133 2q39 0 45 -29q6 -33 -4 -88q-4 -8 -31 -8q-57 -2 -174 -2l-340 4q-7 0 -22.5 -3t-22.5 -3q-38 0 -43 31q-5 29 2 54t25 32q2 0 5.5 1t4.5 1l219 6q45 48 80 113l147 276q15 25 38.5 71.5t29.5 57.5l149 291 q21 39 58 113.5t51 101.5q7 11 16 14q13 7 41.5 10.5t63.5 -1.5t55 -21q25 -22 37 -45q9 -20 34 -77t40 -87q33 -73 99.5 -205t90.5 -184q28 -61 90.5 -178.5t89.5 -173.5q5 -12 16.5 -27.5t16.5 -28.5q15 -37 57 -37q123 7 168 7q4 0 12.5 -6t8.5 -13zM1253 434 q-57 101 -152 307t-159 314q-59 -91 -113.5 -192t-118 -227.5t-102.5 -199.5q29 -4 59.5 -6t51 -1.5t53.5 1t51 0.5h219q21 0 66 -1t76.5 -0.5t68.5 5.5zM1145 1085q23 -11 36 -26t25 -39q49 -89 131 -249t121 -234q34 -62 86.5 -183t83.5 -178q13 -29 -4 -35q-21 -7 -37 21 q-31 57 -78 158t-69 143q-44 83 -141 278t-154 297q-22 44 -9 49q3 1 9 -2zM961 225q-50 1 -287 -4q-6 0 -17.5 -1t-17.5 -1q-43 0 -57 -37l-7.5 -18t-12 -12t-21.5 -2q-10 3 -12 20.5t6 36.5l18 39q13 22 57 22h625q3 0 12.5 0.5t15 0.5t12.5 -2t10.5 -7t4.5 -14 q1 -12 -6 -18.5t-13.5 -7.5t-19.5 -1q-93 0 -182 3t-108 3zM117 -57q-16 14 17 17q5 1 11 1h201q24 0 71 -1t70 -1q86 -3 172 0q42 0 62 2q0 82 4 109q1 13 10 21.5t15 2.5q20 -20 26 -43q3 -53 0 -106q-3 -31 -35 -31q-260 0 -389 2q-48 0 -174 4q-37 4 -61 23zM1819 -53 q1 12 -2.5 44.5t-2.5 56.5t13 28q9 3 15.5 3t11 -1.5t8 -7t5 -9t3 -12t1.5 -13t1 -13.5q0 -9 1 -29t1 -29q3 -38 -7 -48.5t-48 -12.5q-33 0 -98.5 -1t-98.5 -1h-291q-35 4 -57 26q-6 6 -4 13.5t10 7.5q36 0 97 -1t83 -1q47 0 135.5 -2t116.5 -2q72 0 107 4zM961 932 q0 -4 -1 -9t-3 -10t-3 -8q-30 -76 -98 -202t-92 -177l-21 -47q-7 -20 -36 -20q-26 0 -19 26l45 80q69 119 150 295l39 78q0 1 3 5.5l5 7.5t5.5 6.5t6.5 3t6 -4.5q13 -13 13 -24zM1202 1501q-2 -44 -31.5 -73.5t-70.5 -26.5q-45 3 -70.5 37t-19.5 73q6 38 35 61.5t75 22.5 q37 -2 60 -27.5t22 -66.5zM602 1497q0 31 29 62.5t59 31.5q101 3 101 -98q-2 -46 -30 -73.5t-77 -28.5q-35 -1 -58.5 30t-23.5 76zM1059 1348q0 13 10 18t23.5 5t33 1.5t33.5 7.5q51 23 64 72q2 7 6 70q1 35 10 35q3 0 8 -5q31 -31 31 -79q0 -64 -47 -113t-113 -49 q-27 0 -43 10t-16 27zM676 1341q8 32 39 35q51 1 79 42t23 98q0 3 10 36q23 -35 25 -39q23 -59 -14 -120.5t-101 -73.5q-32 -7 -61 22z" />
<glyph unicode="&#xc5;" horiz-adv-x="1916" d="M1788 94q0 -6 0.5 -23t0 -27.5t-1 -24t-3 -22.5t-6.5 -13q-36 -4 -109.5 -2.5t-228.5 6t-228 4.5q-21 26 -4 92q10 40 60 27q51 -15 155 0q-22 55 -28 67q-11 23 -34 54t-32 47q-16 36 -61 36q-40 0 -113 4t-100 5q-191 7 -316 0q-38 0 -108.5 -3t-87.5 -4 q-17 -35 -51.5 -93t-53.5 -95q50 -4 64 -4q88 0 133 2q39 0 45 -29q6 -33 -4 -88q-4 -8 -31 -8q-57 -2 -174 -2l-340 4q-7 0 -22.5 -3t-22.5 -3q-38 0 -43 31q-5 29 2 54t25 32q2 0 5.5 1t4.5 1l219 6q45 48 80 113l147 276q15 25 38.5 71.5t29.5 57.5l149 291 q21 39 58 113.5t51 101.5q7 11 16 14q13 7 41.5 10.5t63.5 -1.5t55 -21q25 -22 37 -45q9 -20 34 -77t40 -87q33 -73 99.5 -205t90.5 -184q28 -61 90.5 -178.5t89.5 -173.5q5 -12 16.5 -27.5t16.5 -28.5q15 -37 57 -37q123 7 168 7q4 0 12.5 -6t8.5 -13zM1253 434 q-57 101 -152 307t-159 314q-59 -91 -113.5 -192t-118 -227.5t-102.5 -199.5q29 -4 59.5 -6t51 -1.5t53.5 1t51 0.5h219q21 0 66 -1t76.5 -0.5t68.5 5.5zM1145 1085q23 -11 36 -26t25 -39q49 -89 131 -249t121 -234q34 -62 86.5 -183t83.5 -178q13 -29 -4 -35q-21 -7 -37 21 q-31 57 -78 158t-69 143q-44 83 -141 278t-154 297q-22 44 -9 49q3 1 9 -2zM961 225q-50 1 -287 -4q-6 0 -17.5 -1t-17.5 -1q-43 0 -57 -37l-7.5 -18t-12 -12t-21.5 -2q-10 3 -12 20.5t6 36.5l18 39q13 22 57 22h625q3 0 12.5 0.5t15 0.5t12.5 -2t10.5 -7t4.5 -14 q1 -12 -6 -18.5t-13.5 -7.5t-19.5 -1q-93 0 -182 3t-108 3zM117 -57q-16 14 17 17q5 1 11 1h201q24 0 71 -1t70 -1q86 -3 172 0q42 0 62 2q0 82 4 109q1 13 10 21.5t15 2.5q20 -20 26 -43q3 -53 0 -106q-3 -31 -35 -31q-260 0 -389 2q-48 0 -174 4q-37 4 -61 23zM1819 -53 q1 12 -2.5 44.5t-2.5 56.5t13 28q9 3 15.5 3t11 -1.5t8 -7t5 -9t3 -12t1.5 -13t1 -13.5q0 -9 1 -29t1 -29q3 -38 -7 -48.5t-48 -12.5q-33 0 -98.5 -1t-98.5 -1h-291q-35 4 -57 26q-6 6 -4 13.5t10 7.5q36 0 97 -1t83 -1q47 0 135.5 -2t116.5 -2q72 0 107 4zM961 932 q0 -4 -1 -9t-3 -10t-3 -8q-30 -76 -98 -202t-92 -177l-21 -47q-7 -20 -36 -20q-26 0 -19 26l45 80q69 119 150 295l39 78q0 1 3 5.5l5 7.5t5.5 6.5t6.5 3t6 -4.5q13 -13 13 -24zM905 1341q-70 0 -112.5 38t-42.5 104q0 65 48.5 106t119.5 41q53 0 103 -41t50 -98 q4 -59 -50.5 -104.5t-115.5 -45.5zM829 1481q-1 -32 22.5 -56t57.5 -24t56 25t22 63q0 31 -22 54.5t-54 23.5t-56.5 -23t-25.5 -63zM1110 1575q23 0 40 -35.5t17 -71.5q0 -90 -55 -151.5t-166 -61.5q-32 0 -59.5 11.5t-28.5 33.5q-1 11 11 14t24 -1q31 -7 74 -10 q51 0 91.5 38t51 88t-5.5 99q-1 2 -4 9.5t-4.5 12.5t-2 11.5t3.5 10t13 3.5zM918 1532q18 0 27.5 -12t0.5 -29q-8 -14 -29.5 -26.5t-31.5 -8.5q-29 9 -17 43q6 14 21 23.5t29 9.5z" />
<glyph unicode="&#xc6;" horiz-adv-x="1714" d="M393 113h99q32 -2 39 -7.5t18 -37.5q14 -43 0.5 -61.5t-57.5 -18.5q-210 8 -320 10q-13 0 -37 -4.5t-35 -5.5h-59v73q3 53 57 50q8 -1 44 -4t55 -7q27 -7 43 21l18 45l68 145l100 228q78 175 94 209q73 150 121 266q21 52 45 102q9 17 27 21q41 7 85.5 7.5t94.5 -1 t84 -0.5q29 1 40.5 0.5t66 -1.5t118.5 -1l346 8q8 -24 8 -27q-1 -20 -4.5 -81t-3.5 -95l6 -117q0 -33 -7.5 -38.5t-41.5 2.5q-47 9 -54.5 18.5t-6.5 60.5q0 11 2 40t2 44t-1.5 38t-6.5 42q-34 10 -80 10.5t-80 -2.5q-33 -1 -95 3t-71 4h-162q-17 -60 -11.5 -227t1.5 -222 h500l6 -84q0 -17 -15.5 -31t-33.5 -14q-98 8 -146 8q-1 0 -235 -6q-10 -1 -21 -1t-25.5 0.5t-23.5 0.5q1 -43 0 -120t0 -139t6 -118q73 1 498 11v59q-4 74 -8 113q0 29 20 34q40 12 86 23q7 -51 6 -64q-8 -90 15 -254q3 -29 -3 -34.5t-36 -5.5q-166 0 -332 -3 q-33 -1 -190 -16h-15q-39 0 -116.5 1t-116.5 1q-4 0 -13 -4.5t-12 -5.5q-30 -6 -35 -4q-10 3 -10 28q-1 14 -1 40.5t-1 39.5q0 31 27 37q20 6 67 10h37q8 70 -0.5 193t-5.5 172l-6 4t-4 3l-2 2t-2 1l-226 -6q-25 0 -34 -27l-142 -317q-2 -2 -3.5 -8.5t-2.5 -7.5zM731 -98 q5 21 18 25.5t37 2.5q10 0 58.5 -2.5t58.5 0.5q42 6 156 2t155 -2q316 10 371 11l21 6v133l6 166q0 10 0.5 15.5t5.5 10.5t14 6q13 0 25 -10.5t12 -23.5v-209q0 -9 1.5 -36t0.5 -42l-8 -55q-10 -1 -75.5 -8.5t-98.5 -8.5q-168 -2 -504 -2h-201h-6h-6h-5.5t-6.5 0.5t-5.5 1.5 t-5.5 2l-5 2.5t-5 3.5t-4 5zM805 590q5 41 7.5 82.5t1 93t-2.5 79.5t-5 92.5t-5 82.5q-102 -172 -195 -426q78 -4 101 -4h98zM1051 156q-42 -19 -50 18l-6 37l-12 158q-1 39 11.5 53t49.5 16q64 1 183.5 6.5t140.5 6.5h78q29 1 37.5 10t11.5 37q1 6 0.5 22.5t1.5 22.5 q2 7 7 14.5t9 7.5q8 0 18.5 -6t10.5 -10q4 -74 -4 -111q-7 -37 -70 -41q-19 -2 -54.5 -2.5t-47.5 -1.5q-89 -2 -324 -10zM1393 1012q5 -35 0.5 -45t-27.5 -11h-188l-138 -6v-231q0 -23 -2 -35q0 -13 -6.5 -20.5t-19.5 -6.5q-30 3 -27 33l6 184q0 13 -2.5 47t-1.5 52 q0 22 9 31t28 6q33 -10 122.5 -3t121.5 5q18 -2 38.5 -2t46.5 1t40 1zM573 -43v94v8v8.5t1 7t3 6.5t5.5 4.5t9.5 2.5q14 1 22.5 -8t8.5 -23q6 -123 6 -125q0 -30 -33 -30h-475h-4.5h-5h-4.5t-4 0.5t-3.5 1.5t-3.5 2l-2.5 2.5t-2.5 4t-1 5.5q-5 23 27 27q24 4 39 4 q243 0 366 2q9 0 26.5 2.5zM1460 723q18 17 40.5 23.5t51.5 7.5t43 4v110q3 102 9 201q0 4 3 8t8 9.5t7 7.5q27 -21 29 -27q4 -4 2.5 -24t-0.5 -25l6 -232q0 -6 1.5 -21.5t0.5 -23.5q-2 -8 -7.5 -18.5t-11.5 -11.5q-39 -7 -56 -10t-49 -2t-58 10q-2 0 -19 14zM469 147 q-1 23 6 45.5t20.5 50.5t18.5 42q18 53 18 55q5 32 24 53t52 45q15 7 31 4l98 -14q34 -3 31 -35q-1 -7 -4 -11t-8 -5.5t-8 -2t-11 0t-10 0.5q-26 1 -109 10q-8 -17 -27 -57.5t-28 -61.5q-27 -59 -45 -104q-14 -37 -49 -15zM700 621q-18 0 -26 11.5t-2 26.5q9 31 30 78 q22 50 39 80q3 6 12.5 10t14.5 2q6 -1 12 -9.5t6 -14.5q-4 -31 -14 -49q-16 -39 -53 -115q-3 -4 -10 -10.5t-9 -9.5z" />
<glyph unicode="&#xc7;" horiz-adv-x="1079" d="M520 -104q17 -10 47 -24t50.5 -27.5t35.5 -32.5q32 -40 38.5 -81t-2.5 -69t-30 -68q-20 -37 -54 -56t-85 -32q-8 -2 -16.5 -3.5t-18 -1.5t-15.5 -0.5t-17 1t-15.5 2t-17 3.5t-15.5 3.5t-17 4.5t-15 4q-24 8 -47 35q-6 6 -9 17t0 17q5 10 33 15q3 0 6.5 -1t8.5 -2.5 t8 -2.5q56 -17 109 13t81 81q17 38 -2.5 75.5t-71.5 34.5h-14q-46 0 -65.5 26t-6.5 71q8 31 35 92q-23 4 -63 16q-83 35 -157.5 109.5t-115.5 163.5q-70 153 -57 364q10 152 105 328q32 57 96 96q12 6 38 22.5t42 24.5q29 15 69 29l21 4q141 72 309 -14q11 -6 42 -19 t50.5 -26t32.5 -33q2 -4 17 -24.5t18.5 -26.5t13.5 -24t13 -28.5t6 -27.5t2 -33q-1 -25 -0.5 -37.5t3 -38t3.5 -39.5q-53 -9 -119 0q-31 7 -31 39q2 1 1 62t-1 67q-53 33 -85 51.5t-87 36.5t-98 12q-49 -5 -113 -26q-77 -23 -137 -111q-103 -140 -90 -332q9 -136 39 -210.5 t119 -174.5q27 -34 71 -47q119 -45 205 -26q30 7 68 32t63 52q40 40 58 78.5t4 87.5q-6 13 10.5 31t46.5 18h7q17 0 26 -0.5t21 -2.5t18 -7.5t8 -14.5q12 -75 14 -110q4 -22 -8 -41q-51 -75 -62 -86q-119 -143 -294 -164h-9v-2q-32 -54 -51 -92zM668 -78q-2 0 -6 -1t-5 -1 q45 -26 93 -96q67 -90 34 -209q-51 -183 -239 -213q-5 -1 -21 -4t-22.5 -4t-20.5 -3t-23 -1.5t-21 2t-23 4.5q-49 15 -84 53q-4 5 -6 10.5t-5 18t-6 20.5l82 -30q45 -15 58 -15q137 -6 227 78q40 37 54 103t-9 124q-16 45 -84 113q-3 4 -13.5 12t-13.5 11q-12 12 -22 32 q-4 13 4.5 21t21.5 10q97 14 197 76q116 70 162 229q7 22 -2 84q-6 35 0 36q1 0 4 -3q13 -13 25 -32.5t14 -27.5q12 -47 10.5 -90.5t-27.5 -81.5q-67 -98 -131 -135q-132 -70 -202 -90zM729 926q0 -21 -5 -32.5t-17 -2.5q-90 72 -191 72q-55 0 -129.5 -56.5t-89.5 -109.5 q-19 -76 -25 -144q-6 -64 2 -130t30.5 -132t72 -116t119.5 -68q4 -1 24 -4t27.5 -5t21 -8t23.5 -16q14 -14 -16 -17h-6q-7 -1 -9 -1q-64 -4 -104 16q-46 23 -82 51q-79 62 -113 150t-39 217v67q2 76 37.5 153.5t105 135.5t154.5 64q35 3 54 -0.5t59 -18.5q96 -39 96 -65z M973 737q12 19 12.5 44.5t-2.5 45.5q-2 12 -3.5 44.5t-4.5 48.5q-2 11 -35 88q71 -6 84 -68q8 -29 12 -125q1 -14 1 -30t-0.5 -37t-0.5 -35q-31 -27 -61 -29q-105 -8 -160 -10q-14 0 -21 0.5t-15.5 7t-8.5 18.5q0 27 43 27zM426 -217q44 -15 84 -33q4 -2 6.5 -7t5 -13.5 t4.5 -12.5q-4 -1 -10.5 -5t-12 -6t-9.5 -1q-17 2 -47 10t-35 9q-28 8 -23 30q6 29 37 29z" />
<glyph unicode="&#xc8;" horiz-adv-x="1300" d="M297 1032q-58 -4 -82 -4q-25 0 -73.5 -1t-71.5 -1q-14 0 -21.5 8t-5.5 21q5 55 8 67q12 45 68 35q41 -8 96 -8q262 -4 391 -4q1 0 406 6q16 0 18 2q17 14 37 15t44.5 -4.5t37.5 -4.5q12 1 21.5 -8t9.5 -23q-3 -108 -9 -225q-1 -31 -12 -42t-39 -13q-35 -3 -80 4 q-17 3 -22.5 14.5t2.5 26.5q14 27 13.5 72.5t2.5 76.5q-89 4 -188.5 4t-221.5 -2t-190 -2q-2 -37 -8.5 -100.5t-10 -105.5t-2 -99t10.5 -106l88 -1q88 0 88 1l293 6q28 0 36 -8.5t7 -36.5q-3 -22 0 -43q2 -25 -7.5 -35t-35.5 -10q-26 1 -107 4.5t-126 3.5q-68 2 -201 2 q-5 0 -33 -4q-11 -251 6 -399h572q0 20 0.5 51.5t0.5 56t-1 47.5q0 27 14.5 43.5t40.5 16.5q17 0 49 -4q26 -1 33.5 -11t7.5 -39q4 -172 4 -262q-38 -20 -78 -20q-11 1 -24 0t-28.5 -3t-23.5 -3q-19 -3 -34 0q-278 25 -539 16l-244 -6q-16 0 -88 10q-22 3 -26 31v82 q39 9 112 4.5t115 1.5v909zM1257 -74q-16 -30 -63 -30q-39 0 -116.5 -1t-116.5 -1q-250 0 -375 2q-29 1 -86 6t-84 6q-2 0 -244 6q-17 0 -49 8q1 22 11 30.5t28 8.5l246 -6q72 -5 86 -4q27 2 99 -5t101 1q35 3 50.5 3t52 -3t51.5 -4q16 0 46 2t46 2q25 -2 80 -10 q41 -5 53 -3q17 2 37 5.5t44.5 9t39.5 8.5q6 69 6 74q-2 58 -10 194q0 33 2 39t10 13t12 6q8 -3 15.5 -11t7.5 -14q2 -49 2.5 -139t1.5 -119q1 -13 7.5 -37.5t8.5 -36.5zM969 465v151l47 5v-164q-1 -18 -12.5 -23.5t-32.5 -7.5q-147 -9 -189 -8q-42 0 -119.5 6.5t-95.5 7.5 q-6 1 -51 -8v-211q0 -29 -2 -43q-4 -29 -27 -23q-31 8 -26 35q10 37 12 74.5t-2 97t-4 74.5q-3 37 29 43q43 10 73 8q46 -2 138.5 -9t138.5 -9q15 -1 123 4zM993 1001q-6 -26 -16.5 -35.5t-30.5 -7.5l-110 7h-25q-36 -10 -75 -13.5t-94.5 -4t-76.5 -1.5q-39 -3 -48.5 -13 t-8.5 -48q0 -63 4 -189q0 -34 -25 -34q-16 -1 -23 8.5t-9 25.5q0 13 4 37t4 35q0 56 -4 166q-2 31 8 43.5t39 13.5q15 1 61 4.5t72 3.5q33 1 69.5 1t81 -0.5t68.5 -0.5q16 0 49 2.5t49 2.5q7 1 37 -3zM1040 743q-3 33 5.5 43.5t35.5 6.5q20 -3 40.5 -0.5t46.5 8.5t42 8l9 80 v162q2 25 8 31.5t33 9.5v-265q0 -37 -11.5 -51t-48.5 -20q-16 -3 -160 -13zM82 961q17 9 32.5 14.5t35 7.5t29 2.5t34.5 0t33 -0.5t12 -5.5t4 -10.5q0 -13 -11.5 -21.5t-36 -11.5t-39.5 -3.5t-45 -0.5h-13q-12 0 -23.5 9.5t-11.5 19.5zM535 1706q52 3 86 -47 q56 -79 137 -201q14 -18 14 -37q2 -6 -2 -14.5t-10 -11.5q-16 -11 -28 -16t-27.5 -4.5t-30.5 11.5q-3 2 -10 5t-11.5 5.5t-7.5 6.5q-86 83 -166 166q-30 30 -20 84q16 59 76 53zM848 1288q-14 -2 -41.5 -6.5t-42.5 -5.5q-6 0 -15 7t-12 13q-3 9 15 27q27 18 54 9t42 -44z " />
<glyph unicode="&#xc9;" horiz-adv-x="1300" d="M297 1032q-58 -4 -82 -4q-25 0 -73.5 -1t-71.5 -1q-14 0 -21.5 8t-5.5 21q5 55 8 67q12 45 68 35q41 -8 96 -8q262 -4 391 -4q1 0 406 6q16 0 18 2q17 14 37 15t44.5 -4.5t37.5 -4.5q12 1 21.5 -8t9.5 -23q-3 -108 -9 -225q-1 -31 -12 -42t-39 -13q-35 -3 -80 4 q-17 3 -22.5 14.5t2.5 26.5q14 27 13.5 72.5t2.5 76.5q-89 4 -188.5 4t-221.5 -2t-190 -2q-2 -37 -8.5 -100.5t-10 -105.5t-2 -99t10.5 -106l88 -1q88 0 88 1l293 6q28 0 36 -8.5t7 -36.5q-3 -22 0 -43q2 -25 -7.5 -35t-35.5 -10q-26 1 -107 4.5t-126 3.5q-68 2 -201 2 q-5 0 -33 -4q-11 -251 6 -399h572q0 20 0.5 51.5t0.5 56t-1 47.5q0 27 14.5 43.5t40.5 16.5q17 0 49 -4q26 -1 33.5 -11t7.5 -39q4 -172 4 -262q-38 -20 -78 -20q-11 1 -24 0t-28.5 -3t-23.5 -3q-19 -3 -34 0q-278 25 -539 16l-244 -6q-16 0 -88 10q-22 3 -26 31v82 q39 9 112 4.5t115 1.5v909zM1257 -74q-16 -30 -63 -30q-39 0 -116.5 -1t-116.5 -1q-250 0 -375 2q-29 1 -86 6t-84 6q-2 0 -244 6q-17 0 -49 8q1 22 11 30.5t28 8.5l246 -6q72 -5 86 -4q27 2 99 -5t101 1q35 3 50.5 3t52 -3t51.5 -4q16 0 46 2t46 2q25 -2 80 -10 q41 -5 53 -3q17 2 37 5.5t44.5 9t39.5 8.5q6 69 6 74q-2 58 -10 194q0 33 2 39t10 13t12 6q8 -3 15.5 -11t7.5 -14q2 -49 2.5 -139t1.5 -119q1 -13 7.5 -37.5t8.5 -36.5zM969 465v151l47 5v-164q-1 -18 -12.5 -23.5t-32.5 -7.5q-147 -9 -189 -8q-42 0 -119.5 6.5t-95.5 7.5 q-6 1 -51 -8v-211q0 -29 -2 -43q-4 -29 -27 -23q-31 8 -26 35q10 37 12 74.5t-2 97t-4 74.5q-3 37 29 43q43 10 73 8q46 -2 138.5 -9t138.5 -9q15 -1 123 4zM993 1001q-6 -26 -16.5 -35.5t-30.5 -7.5l-110 7h-25q-36 -10 -75 -13.5t-94.5 -4t-76.5 -1.5q-39 -3 -48.5 -13 t-8.5 -48q0 -63 4 -189q0 -34 -25 -34q-16 -1 -23 8.5t-9 25.5q0 13 4 37t4 35q0 56 -4 166q-2 31 8 43.5t39 13.5q15 1 61 4.5t72 3.5q33 1 69.5 1t81 -0.5t68.5 -0.5q16 0 49 2.5t49 2.5q7 1 37 -3zM1040 743q-3 33 5.5 43.5t35.5 6.5q20 -3 40.5 -0.5t46.5 8.5t42 8l9 80 v162q2 25 8 31.5t33 9.5v-265q0 -37 -11.5 -51t-48.5 -20q-16 -3 -160 -13zM82 961q17 9 32.5 14.5t35 7.5t29 2.5t34.5 0t33 -0.5t12 -5.5t4 -10.5q0 -13 -11.5 -21.5t-36 -11.5t-39.5 -3.5t-45 -0.5h-13q-12 0 -23.5 9.5t-11.5 19.5zM467 1401l184 260q38 55 99 55 q35 1 51.5 -23t1.5 -55q-14 -29 -58 -77q-14 -17 -94 -97l-80 -80q-28 -26 -50.5 -22t-53.5 39zM870 1597q-3 -17 -11.5 -34t-16 -26.5t-22.5 -26t-21 -23.5q-35 -45 -113 -127q-70 -73 -149 -105q-15 -6 -54 -10q-25 -3 -34 21l-9 22q-1 3 -3.5 11.5t-3 12.5t0.5 9 q9 11 21.5 11t21.5 -9q17 -15 33.5 -17t29.5 4.5t29 20.5q101 81 144 137q27 37 104 127q12 15 19.5 15.5t33.5 -13.5z" />
<glyph unicode="&#xca;" horiz-adv-x="1300" d="M297 1032q-58 -4 -82 -4q-25 0 -73.5 -1t-71.5 -1q-14 0 -21.5 8t-5.5 21q5 55 8 67q12 45 68 35q41 -8 96 -8q262 -4 391 -4q1 0 406 6q16 0 18 2q17 14 37 15t44.5 -4.5t37.5 -4.5q12 1 21.5 -8t9.5 -23q-3 -108 -9 -225q-1 -31 -12 -42t-39 -13q-35 -3 -80 4 q-17 3 -22.5 14.5t2.5 26.5q14 27 13.5 72.5t2.5 76.5q-89 4 -188.5 4t-221.5 -2t-190 -2q-2 -37 -8.5 -100.5t-10 -105.5t-2 -99t10.5 -106l88 -1q88 0 88 1l293 6q28 0 36 -8.5t7 -36.5q-3 -22 0 -43q2 -25 -7.5 -35t-35.5 -10q-26 1 -107 4.5t-126 3.5q-68 2 -201 2 q-5 0 -33 -4q-11 -251 6 -399h572q0 20 0.5 51.5t0.5 56t-1 47.5q0 27 14.5 43.5t40.5 16.5q17 0 49 -4q26 -1 33.5 -11t7.5 -39q4 -172 4 -262q-38 -20 -78 -20q-11 1 -24 0t-28.5 -3t-23.5 -3q-19 -3 -34 0q-278 25 -539 16l-244 -6q-16 0 -88 10q-22 3 -26 31v82 q39 9 112 4.5t115 1.5v909zM1257 -74q-16 -30 -63 -30q-39 0 -116.5 -1t-116.5 -1q-250 0 -375 2q-29 1 -86 6t-84 6q-2 0 -244 6q-17 0 -49 8q1 22 11 30.5t28 8.5l246 -6q72 -5 86 -4q27 2 99 -5t101 1q35 3 50.5 3t52 -3t51.5 -4q16 0 46 2t46 2q25 -2 80 -10 q41 -5 53 -3q17 2 37 5.5t44.5 9t39.5 8.5q6 69 6 74q-2 58 -10 194q0 33 2 39t10 13t12 6q8 -3 15.5 -11t7.5 -14q2 -49 2.5 -139t1.5 -119q1 -13 7.5 -37.5t8.5 -36.5zM969 465v151l47 5v-164q-1 -18 -12.5 -23.5t-32.5 -7.5q-147 -9 -189 -8q-42 0 -119.5 6.5t-95.5 7.5 q-6 1 -51 -8v-211q0 -29 -2 -43q-4 -29 -27 -23q-31 8 -26 35q10 37 12 74.5t-2 97t-4 74.5q-3 37 29 43q43 10 73 8q46 -2 138.5 -9t138.5 -9q15 -1 123 4zM993 1001q-6 -26 -16.5 -35.5t-30.5 -7.5l-110 7h-25q-36 -10 -75 -13.5t-94.5 -4t-76.5 -1.5q-39 -3 -48.5 -13 t-8.5 -48q0 -63 4 -189q0 -34 -25 -34q-16 -1 -23 8.5t-9 25.5q0 13 4 37t4 35q0 56 -4 166q-2 31 8 43.5t39 13.5q15 1 61 4.5t72 3.5q33 1 69.5 1t81 -0.5t68.5 -0.5q16 0 49 2.5t49 2.5q7 1 37 -3zM1040 743q-3 33 5.5 43.5t35.5 6.5q20 -3 40.5 -0.5t46.5 8.5t42 8l9 80 v162q2 25 8 31.5t33 9.5v-265q0 -37 -11.5 -51t-48.5 -20q-16 -3 -160 -13zM82 961q17 9 32.5 14.5t35 7.5t29 2.5t34.5 0t33 -0.5t12 -5.5t4 -10.5q0 -13 -11.5 -21.5t-36 -11.5t-39.5 -3.5t-45 -0.5h-13q-12 0 -23.5 9.5t-11.5 19.5zM635 1661q-19 -25 -61.5 -77 t-63.5 -79q-4 -4 -8.5 -16.5t-11 -19.5t-19.5 -7q-9 0 -29 -1t-31.5 -1t-27.5 3.5t-29 11.5q-3 1 -8 12l113 129q56 64 84 100q18 29 41 29h123q39 -57 120.5 -150.5t92.5 -107.5q-11 -36 -50 -33q-8 1 -25.5 0t-25.5 0q-38 5 -47 10q-22 8 -10 39q4 7 -6 17 q-3 4 -14.5 20.5t-16 22.5l-15 20t-17 21.5t-17 18.5t-20.5 20t-21 18zM500 1419q7 12 25.5 38.5t25.5 41.5q9 17 23.5 30.5t35.5 27t31 22.5q21 16 37 -16q4 -8 70 -113q21 -34 61 -31q18 2 106 2q14 0 23 -6q16 -8 16 -20q-3 -14 -18 -21q-4 -2 -29 -2q-13 -1 -55 -1.5 t-64 -2.5q-57 -3 -83 51q-6 14 -15 28.5t-21.5 33.5t-19.5 30q-88 -114 -98 -125q-20 -20 -31 -20q-26 1 -73 7t-62 7q-13 2 -20.5 7t-6.5 16q2 18 33 18q37 -2 109 -2z" />
<glyph unicode="&#xcb;" horiz-adv-x="1300" d="M297 1032q-58 -4 -82 -4q-25 0 -73.5 -1t-71.5 -1q-14 0 -21.5 8t-5.5 21q5 55 8 67q12 45 68 35q41 -8 96 -8q262 -4 391 -4q1 0 406 6q16 0 18 2q17 14 37 15t44.5 -4.5t37.5 -4.5q12 1 21.5 -8t9.5 -23q-3 -108 -9 -225q-1 -31 -12 -42t-39 -13q-35 -3 -80 4 q-17 3 -22.5 14.5t2.5 26.5q14 27 13.5 72.5t2.5 76.5q-89 4 -188.5 4t-221.5 -2t-190 -2q-2 -37 -8.5 -100.5t-10 -105.5t-2 -99t10.5 -106l88 -1q88 0 88 1l293 6q28 0 36 -8.5t7 -36.5q-3 -22 0 -43q2 -25 -7.5 -35t-35.5 -10q-26 1 -107 4.5t-126 3.5q-68 2 -201 2 q-5 0 -33 -4q-11 -251 6 -399h572q0 20 0.5 51.5t0.5 56t-1 47.5q0 27 14.5 43.5t40.5 16.5q17 0 49 -4q26 -1 33.5 -11t7.5 -39q4 -172 4 -262q-38 -20 -78 -20q-11 1 -24 0t-28.5 -3t-23.5 -3q-19 -3 -34 0q-278 25 -539 16l-244 -6q-16 0 -88 10q-22 3 -26 31v82 q39 9 112 4.5t115 1.5v909zM1257 -74q-16 -30 -63 -30q-39 0 -116.5 -1t-116.5 -1q-250 0 -375 2q-29 1 -86 6t-84 6q-2 0 -244 6q-17 0 -49 8q1 22 11 30.5t28 8.5l246 -6q72 -5 86 -4q27 2 99 -5t101 1q35 3 50.5 3t52 -3t51.5 -4q16 0 46 2t46 2q25 -2 80 -10 q41 -5 53 -3q17 2 37 5.5t44.5 9t39.5 8.5q6 69 6 74q-2 58 -10 194q0 33 2 39t10 13t12 6q8 -3 15.5 -11t7.5 -14q2 -49 2.5 -139t1.5 -119q1 -13 7.5 -37.5t8.5 -36.5zM969 465v151l47 5v-164q-1 -18 -12.5 -23.5t-32.5 -7.5q-147 -9 -189 -8q-42 0 -119.5 6.5t-95.5 7.5 q-6 1 -51 -8v-211q0 -29 -2 -43q-4 -29 -27 -23q-31 8 -26 35q10 37 12 74.5t-2 97t-4 74.5q-3 37 29 43q43 10 73 8q46 -2 138.5 -9t138.5 -9q15 -1 123 4zM993 1001q-6 -26 -16.5 -35.5t-30.5 -7.5l-110 7h-25q-36 -10 -75 -13.5t-94.5 -4t-76.5 -1.5q-39 -3 -48.5 -13 t-8.5 -48q0 -63 4 -189q0 -34 -25 -34q-16 -1 -23 8.5t-9 25.5q0 13 4 37t4 35q0 56 -4 166q-2 31 8 43.5t39 13.5q15 1 61 4.5t72 3.5q33 1 69.5 1t81 -0.5t68.5 -0.5q16 0 49 2.5t49 2.5q7 1 37 -3zM1040 743q-3 33 5.5 43.5t35.5 6.5q20 -3 40.5 -0.5t46.5 8.5t42 8l9 80 v162q2 25 8 31.5t33 9.5v-265q0 -37 -11.5 -51t-48.5 -20q-16 -3 -160 -13zM82 961q17 9 32.5 14.5t35 7.5t29 2.5t34.5 0t33 -0.5t12 -5.5t4 -10.5q0 -13 -11.5 -21.5t-36 -11.5t-39.5 -3.5t-45 -0.5h-13q-12 0 -23.5 9.5t-11.5 19.5zM911 1501q-2 -44 -31.5 -73.5 t-70.5 -26.5q-45 3 -70.5 37t-19.5 73q6 38 35 61.5t75 22.5q37 -2 60 -27.5t22 -66.5zM311 1497q0 31 29 62.5t59 31.5q101 3 101 -98q-2 -46 -30 -73.5t-77 -28.5q-35 -1 -58.5 30t-23.5 76zM768 1348q0 13 10 18t23.5 5t33 1.5t33.5 7.5q51 23 64 72q2 7 6 70q1 35 10 35 q3 0 8 -5q31 -31 31 -79q0 -64 -47 -113t-113 -49q-27 0 -43 10t-16 27zM385 1341q8 32 39 35q51 1 79 42t23 98q0 4 1.5 8l4.5 12t5 16q21 -31 24 -39q23 -59 -14 -120.5t-101 -73.5q-32 -7 -61 22z" />
<glyph unicode="&#xcc;" horiz-adv-x="802" d="M434 1030v-358q-17 -487 6 -557q180 13 193 14q27 3 35 -3t8 -32q0 -28 -4 -82q-3 -28 -35 -24q-148 15 -342 2q-31 -3 -64.5 -3.5t-81.5 0.5t-69 1q-1 10 -7 39.5t-7 46.5q-3 27 8 38t41 11q55 -2 176 -2q1 8 4.5 22t5.5 25.5t2 21.5q8 233 6 347q-1 68 -4 141.5 t-7.5 160.5t-6.5 140q0 7 -2.5 22.5t-3.5 20.5q-1 0 -68 -1t-67 1l-37 -1q-37 -1 -37 1q-23 1 -29.5 9.5t-3.5 33.5l6 39q3 29 11 37.5t36 9.5q26 0 80 -1t80 -1q27 0 58 1t69 2.5t59 2.5q31 2 100.5 4t78.5 2q26 2 36.5 -2t14 -12t10.5 -39q5 -25 2 -61q0 -15 -14 -23 t-33 -6q-20 3 -70.5 6t-70.5 6h-62zM549 930v-701q0 -14 -2 -18q-12 -29 -31 -25q-27 7 -27 31q3 47 3 92q0 21 -1.5 312.5t-1.5 314.5v45q55 0 109 -4l82 -6q19 0 27.5 8t11.5 27q0 9 -2 42.5t-2 43.5q0 46 3.5 50t10.5 -3q11 -11 21 -30t10 -26q0 -20 1 -38.5t1 -47.5 q0 -35 -13 -51t-44 -16h-68q-9 1 -24 1t-35 -0.5t-29 -0.5zM709 -45v96q0 54 8 54q4 0 10 -11q3 -5 9.5 -16.5t10 -18.5t6.5 -16.5t3 -17.5t1 -25t1 -25q0 -37 -22 -52t-99 -15q-71 2 -193 10q-10 0 -31.5 -2t-31.5 -2h-207q-15 0 -24 6q-16 4 -36 27q-7 8 -3 8h598z M252 979q6 -47 -31 -47h-112q-45 35 -33 49q5 6 22 4q10 -1 70.5 -2.5t83.5 -3.5zM287 1686q51 3 86 -48q66 -92 137 -200q14 -18 14 -37q2 -6 -2 -15t-10 -12q-51 -34 -86 -8q-4 2 -10.5 4.5t-11 5t-7.5 6.5q-86 83 -166 166q-30 30 -20 84q16 60 76 54zM600 1268 q-15 -2 -42 -7t-42 -6q-6 0 -15 7.5t-12 13.5q-3 9 15 27q27 18 54 9t42 -44z" />
<glyph unicode="&#xcd;" horiz-adv-x="802" d="M434 1030v-358q-17 -487 6 -557q180 13 193 14q27 3 35 -3t8 -32q0 -28 -4 -82q-3 -28 -35 -24q-148 15 -342 2q-31 -3 -64.5 -3.5t-81.5 0.5t-69 1q-1 10 -7 39.5t-7 46.5q-3 27 8 38t41 11q55 -2 176 -2q1 8 4.5 22t5.5 25.5t2 21.5q8 233 6 347q-1 68 -4 141.5 t-7.5 160.5t-6.5 140q0 7 -2.5 22.5t-3.5 20.5q-1 0 -68 -1t-67 1l-37 -1q-37 -1 -37 1q-23 1 -29.5 9.5t-3.5 33.5l6 39q3 29 11 37.5t36 9.5q26 0 80 -1t80 -1q27 0 58 1t69 2.5t59 2.5q31 2 100.5 4t78.5 2q26 2 36.5 -2t14 -12t10.5 -39q5 -25 2 -61q0 -15 -14 -23 t-33 -6q-20 3 -70.5 6t-70.5 6h-62zM549 930v-701q0 -14 -2 -18q-12 -29 -31 -25q-27 7 -27 31q3 47 3 92q0 21 -1.5 312.5t-1.5 314.5v45q55 0 109 -4l82 -6q19 0 27.5 8t11.5 27q0 9 -2 42.5t-2 43.5q0 46 3.5 50t10.5 -3q11 -11 21 -30t10 -26q0 -20 1 -38.5t1 -47.5 q0 -35 -13 -51t-44 -16h-68q-9 1 -24 1t-35 -0.5t-29 -0.5zM709 -45v96q0 54 8 54q4 0 10 -11q3 -5 9.5 -16.5t10 -18.5t6.5 -16.5t3 -17.5t1 -25t1 -25q0 -37 -22 -52t-99 -15q-71 2 -193 10q-10 0 -31.5 -2t-31.5 -2h-207q-15 0 -24 6q-16 4 -36 27q-7 8 -3 8h598z M252 979q6 -47 -31 -47h-112q-45 35 -33 49q5 6 22 4q10 -1 70.5 -2.5t83.5 -3.5zM217 1401l184 260q38 55 99 55q35 1 51.5 -23t1.5 -55q-15 -32 -57 -77q-13 -16 -28.5 -31.5t-37 -36.5t-29.5 -29l-79 -80q-28 -26 -51 -22t-54 39zM621 1597q-4 -22 -13.5 -39t-33 -42.5 t-25.5 -28.5q-35 -45 -113 -127q-70 -73 -149 -105q-15 -6 -54 -10q-25 -3 -34 21l-9 22q-1 3 -3.5 11.5t-3 12.5t0.5 9q9 11 21.5 11t21.5 -9q17 -15 33.5 -17t29.5 4.5t29 20.5q101 81 144 137q27 37 104 127q12 15 20 15.5t34 -13.5z" />
<glyph unicode="&#xce;" horiz-adv-x="802" d="M434 1030v-358q-17 -487 6 -557q180 13 193 14q27 3 35 -3t8 -32q0 -28 -4 -82q-3 -28 -35 -24q-148 15 -342 2q-31 -3 -64.5 -3.5t-81.5 0.5t-69 1q-1 10 -7 39.5t-7 46.5q-3 27 8 38t41 11q55 -2 176 -2q1 8 4.5 22t5.5 25.5t2 21.5q8 233 6 347q-1 68 -4 141.5 t-7.5 160.5t-6.5 140q0 7 -2.5 22.5t-3.5 20.5q-1 0 -68 -1t-67 1l-37 -1q-37 -1 -37 1q-23 1 -29.5 9.5t-3.5 33.5l6 39q3 29 11 37.5t36 9.5q26 0 80 -1t80 -1q27 0 58 1t69 2.5t59 2.5q31 2 100.5 4t78.5 2q26 2 36.5 -2t14 -12t10.5 -39q5 -25 2 -61q0 -15 -14 -23 t-33 -6q-20 3 -70.5 6t-70.5 6h-62zM549 930v-701q0 -14 -2 -18q-12 -29 -31 -25q-27 7 -27 31q3 47 3 92q0 21 -1.5 312.5t-1.5 314.5v45q55 0 109 -4l82 -6q19 0 27.5 8t11.5 27q0 9 -2 42.5t-2 43.5q0 46 3.5 50t10.5 -3q11 -11 21 -30t10 -26q0 -20 1 -38.5t1 -47.5 q0 -35 -13 -51t-44 -16h-68q-9 1 -24 1t-35 -0.5t-29 -0.5zM709 -45v96q0 54 8 54q4 0 10 -11q3 -5 9.5 -16.5t10 -18.5t6.5 -16.5t3 -17.5t1 -25t1 -25q0 -37 -22 -52t-99 -15q-71 2 -193 10q-10 0 -31.5 -2t-31.5 -2h-207q-15 0 -24 6q-16 4 -36 27q-7 8 -3 8h598z M252 979q6 -47 -31 -47h-112q-45 35 -33 49q5 6 22 4q10 -1 70.5 -2.5t83.5 -3.5zM385 1579q-19 -25 -61.5 -77t-63.5 -79q-4 -4 -8.5 -16.5t-11 -19.5t-19.5 -7q-9 0 -29 -1t-31.5 -1t-27.5 3.5t-29 11.5q-3 1 -8 12l113 129q56 64 84 100q18 29 41 29h123 q39 -57 120.5 -150.5t92.5 -107.5q-11 -36 -49 -33q-8 1 -26 0t-26 0q-38 5 -47 10q-22 8 -10 39q4 7 -6 17q-3 4 -14.5 20.5t-16 22.5l-15 20t-17 21.5t-17 18.5t-20.5 20t-21 18zM250 1337q7 12 25.5 38.5t25.5 41.5q9 17 23.5 30.5t35.5 27t31 22.5q21 16 37 -16 q5 -8 70 -113q21 -34 61 -31q18 2 107 2q13 0 22 -6q17 -9 17 -20q-3 -13 -19 -21q-4 -2 -29 -2q-13 -1 -54.5 -1.5t-63.5 -2.5q-58 -3 -84 51q-6 14 -15 29t-21.5 34t-19.5 30q-88 -114 -98 -125q-21 -21 -31 -21q-26 1 -73 7t-62 7q-13 2 -20 7t-6 16q2 18 32 18 q37 -2 109 -2z" />
<glyph unicode="&#xcf;" horiz-adv-x="802" d="M434 1030v-358q-17 -487 6 -557q180 13 193 14q27 3 35 -3t8 -32q0 -28 -4 -82q-3 -28 -35 -24q-148 15 -342 2q-31 -3 -64.5 -3.5t-81.5 0.5t-69 1q-1 10 -7 39.5t-7 46.5q-3 27 8 38t41 11q55 -2 176 -2q1 8 4.5 22t5.5 25.5t2 21.5q8 233 6 347q-1 68 -4 141.5 t-7.5 160.5t-6.5 140q0 7 -2.5 22.5t-3.5 20.5q-1 0 -68 -1t-67 1l-37 -1q-37 -1 -37 1q-23 1 -29.5 9.5t-3.5 33.5l6 39q3 29 11 37.5t36 9.5q26 0 80 -1t80 -1q27 0 58 1t69 2.5t59 2.5q31 2 100.5 4t78.5 2q26 2 36.5 -2t14 -12t10.5 -39q5 -25 2 -61q0 -15 -14 -23 t-33 -6q-20 3 -70.5 6t-70.5 6h-62zM549 930v-701q0 -14 -2 -18q-12 -29 -31 -25q-27 7 -27 31q3 47 3 92q0 21 -1.5 312.5t-1.5 314.5v45q55 0 109 -4l82 -6q19 0 27.5 8t11.5 27q0 9 -2 42.5t-2 43.5q0 46 3.5 50t10.5 -3q11 -11 21 -30t10 -26q0 -20 1 -38.5t1 -47.5 q0 -35 -13 -51t-44 -16h-68q-9 1 -24 1t-35 -0.5t-29 -0.5zM709 -45v96q0 54 8 54q4 0 10 -11q3 -5 9.5 -16.5t10 -18.5t6.5 -16.5t3 -17.5t1 -25t1 -25q0 -37 -22 -52t-99 -15q-71 2 -193 10q-10 0 -31.5 -2t-31.5 -2h-207q-15 0 -24 6q-16 4 -36 27q-7 8 -3 8h598z M252 979q6 -47 -31 -47h-112q-45 35 -33 49q5 6 22 4q10 -1 70.5 -2.5t83.5 -3.5zM664 1460q-2 -44 -32 -73.5t-71 -26.5q-45 3 -70.5 37t-19.5 73q6 38 35.5 61.5t75.5 22.5q37 -2 60 -27.5t22 -66.5zM63 1456q0 31 29.5 62.5t59.5 31.5q100 3 100 -98q-2 -46 -30 -73.5 t-77 -28.5q-35 -1 -58.5 30t-23.5 76zM520 1307q0 16 15 20t42.5 4.5t43.5 7.5q50 23 63 72q2 6 6 70q2 35 11 35q3 0 8 -5q30 -30 30 -79q0 -64 -46.5 -113t-112.5 -49q-27 0 -43.5 10t-16.5 27zM137 1300q8 32 39 35q51 1 79.5 42t23.5 98q0 3 10 36q22 -33 24 -38 q23 -59 -13.5 -121t-100.5 -74q-33 -7 -62 22z" />
<glyph unicode="&#xd0;" horiz-adv-x="1247" d="M233 1022h-149q-24 -2 -33 5.5t-10 31.5v86q0 11 25 14.5t45 -0.5q18 -3 38 -3.5t49 0.5t42 1q22 0 68 1t69 1h133q193 3 336 -108q123 -91 168 -177l12 -21t13.5 -25.5t9.5 -22.5q32 -109 41 -230q3 -42 -2.5 -74.5t-16.5 -71.5t-16 -71q-10 -70 -47.5 -127t-100.5 -118 q-9 -9 -18.5 -16.5t-23 -15t-21.5 -12t-25.5 -12t-23 -10t-27 -11t-23.5 -9.5q-32 -12 -69.5 -18.5t-64 -7.5t-71 -1.5t-65.5 -1.5q-171 -6 -174 -6q-65 0 -197 8h-22h-16t-8.5 3t-6 10t-2.5 22q-6 24 -6 28q-3 33 10.5 47.5t46.5 14.5h125q13 25 13 86q-5 211 -2 274v47 l-78 -4q-18 -1 -56.5 -5t-56.5 -5q-32 0 -48.5 20.5t-8.5 49.5q4 23 14.5 30t34.5 7q16 -1 33 -1t38.5 0.5t34.5 0.5q14 0 44 -1t46 -1v20v379zM537 627q7 -68 -6.5 -83t-71.5 -12q-23 1 -34 2.5t-12 2.5t-11 1.5t-35 0.5h-21q-4 -365 16 -426q15 2 44.5 4t44.5 4 q110 13 190 20q71 7 131 43t98 90.5t59 120.5t21 135q0 88 -8 131t-41 119q-31 74 -115.5 144.5t-173.5 83.5q-139 20 -241 2q-20 -108 -23 -385l144 4q7 0 22.5 -1t22.5 -1zM121 -84q-16 22 -12 24.5t31 0.5h7q38 0 110.5 -1.5t135 -1.5t121.5 3q156 4 236 28 q68 20 141.5 61.5t112.5 92.5q56 63 86 135.5t49 171.5q6 40 7 106t-10.5 141t-37.5 103q-15 16 -13 50q3 24 17 12q55 -55 73.5 -112.5t28.5 -178.5q0 -38 1 -52.5t-3 -44.5t-6.5 -41.5t-9 -43.5t-10.5 -50q-32 -167 -184.5 -290t-373.5 -140l-176 -8q-22 0 -66 4t-65 4 h-52.5t-54 1t-48.5 7.5t-35 18.5zM461 678q0 -4 -12.5 -6.5t-24.5 -0.5t-12 9v242q6 35 10 41q4 14 27 14q11 -1 45.5 -3.5t64 -5.5t45.5 -7q100 -14 177 -99t104 -190q8 -38 9 -101q0 -29 -5 -24q-17 17 -27 39.5t-11 36.5l-1 14q-16 54 -38.5 99.5t-56 88.5t-81.5 69 t-105 30h-98q-1 -4 -4.5 -20.5t-3.5 -24.5q-2 -68 -2 -201zM412 455q0 43 10 43q84 0 127 2q17 3 35 10q6 23 3 41t1 38t20 34q26 -6 29 -35q0 -12 1 -37t1 -37q0 -31 -13.5 -45t-45.5 -14q-4 0 -121 6v-2v-168q0 -35 -8 -133h-35q-4 12 -4 14v21v262zM190 487 q12 0 12 -16.5t-5 -21.5q-16 0 -45 -3.5t-43 -3.5q-22 -4 -33 4q-6 4 -10.5 13t-2.5 14q0 6 9 14.5t14 6.5q24 -7 104 -7zM152 924q-10 0 -17.5 1.5t-14 5.5t-9 5.5t-8.5 8t-7 7.5q-20 20 20 25q19 2 40 0q12 -1 18.5 -2.5t13.5 -8t9 -18.5q3 -24 -45 -24z" />
</font>
</defs>
</svg>
