<?xml version="1.0" standalone="no"?>
<!DOCTYPE svg PUBLIC "-//W3C//DTD SVG 1.1//EN" "http://www.w3.org/Graphics/SVG/1.1/DTD/svg11.dtd" >
<svg xmlns="http://www.w3.org/2000/svg">
<metadata></metadata>
<defs>
<font id="hms_gilbert_sansregular" horiz-adv-x="843" >
<font-face units-per-em="2048" ascent="1536" descent="-512" />
<missing-glyph horiz-adv-x="409" />
<glyph horiz-adv-x="0" />
<glyph horiz-adv-x="682" />
<glyph unicode=" "  horiz-adv-x="409" />
<glyph unicode="&#x09;" horiz-adv-x="409" />
<glyph unicode="&#xa0;" horiz-adv-x="409" />
<glyph unicode="!" horiz-adv-x="184" d="M117 930q24 -1 33.5 -12t7.5 -35q-16 -176 -17 -201q-8 -91 -20 -283q-5 -61 -8 -77q-1 -6 -8.5 -14.5t-10.5 -8.5q-5 1 -7 3.5t-3 8t-2 8.5q-4 7 -5 16t-1.5 20.5t-1.5 15.5l-23 499v19q1 28 14 34.5t52 6.5zM154 45q0 -25 -21.5 -44t-48.5 -19q-25 0 -44.5 24.5 t-19.5 56.5q2 22 26 41.5t48 18.5q25 0 43 -23.5t17 -54.5z" />
<glyph unicode="&#x22;" horiz-adv-x="456" d="M129 750q-7 3 -20.5 7.5t-16.5 6.5q-69 42 -35 100q15 27 42.5 35.5t54.5 -8.5q10 -7 20 -24t12 -29q12 -69 -14 -125.5t-80 -89.5q-14 -9 -21 1t1 21q6 14 25.5 37.5t25.5 36.5q2 3 4 10.5t3 13.5t-1 7zM328 750q-6 3 -20 6.5t-17 5.5q-31 19 -38.5 46t9.5 56 q14 22 37 31t45 0q51 -23 51 -98q0 -118 -100 -179q-14 -9 -21.5 1.5t0.5 21.5q6 13 26 37.5t26 38.5q2 3 3 11t1 15t-2 7z" />
<glyph unicode="#" horiz-adv-x="786" d="M137 217q-50 -4 -59 -4q-23 -1 -41.5 9t-13.5 22q9 25 16 30.5t33 8.5q42 4 63 2q33 0 41 32l51 218q-11 7 -47 7.5t-51 20.5q6 41 49 51q28 7 76 7q3 0 5 1t4 3.5t3.5 5t3.5 7.5t3.5 8.5t4 10.5t3.5 11q29 86 65 178q12 32 47 18q0 -45 -26 -123t-31 -108q12 -8 14 -8 q61 -2 176 2q37 0 43 39q4 28 18.5 80.5t18.5 72.5q7 25 24.5 39.5t31.5 13.5t22 -6q2 -6 2 -14.5t-3 -25t-6 -28.5t-6.5 -26.5t-4.5 -17.5t-33 -119h78q26 -1 40.5 -11.5t12.5 -25.5q-1 -15 -19.5 -25t-42.5 -10q-14 1 -29.5 1t-35.5 -0.5t-33 -0.5l-65 -266h82 q50 0 53 -23q0 -14 -14 -27t-35 -16q-20 -2 -64 -2q-23 0 -35 -8.5t-16 -30.5q-6 -29 -20 -82t-17 -65q-4 -18 -20 -45q-2 -3 -9 -6t-10 -2q-22 11 -22 16q0 10 12 64l33 147q-68 26 -242 6q-17 -32 -43.5 -116t-40.5 -111q-5 -6 -19.5 -6.5t-26.5 4t-11 12.5q52 172 63 211 zM532 551q-42 3 -120 -1.5t-105 -4.5q-29 -89 -76 -252h238q22 51 41.5 133t21.5 125z" />
<glyph unicode="$" horiz-adv-x="593" d="M250 141q4 208 8 312q-11 5 -29 14.5t-22 11.5q-54 26 -78 47q-45 38 -59 92q-12 50 8 119q29 87 129 146q15 10 59 14q0 5 1 14.5t1 14.5l4 39q3 12 12.5 17.5t20.5 2.5q8 -2 17 -9t10 -13l6 -68q21 -2 61 -18q70 -29 123 -66q19 -13 19.5 -27t-23.5 -26q-5 -4 -20 0 q-5 0 -17 8q-65 50 -145 68q-1 -16 -2.5 -44.5t-2.5 -52t-1 -43.5q-6 -105 -6 -205l59 -32q61 -33 104 -76q36 -34 58 -105q18 -50 -4 -122t-64 -105q-17 -11 -20 -12q-43 -17 -97 -33q-8 -2 -23.5 -4t-17.5 -2v-6v-29q-3 -20 -12 -29.5t-24 -7.5q-18 0 -25.5 9t-7.5 30 q-2 12 -2 37h-2q-29 0 -60 9.5t-51 19t-55 28.5q-13 7 -18 14t-21 36q22 26 29 32q9 12 24 4q13 -8 34.5 -24.5t27.5 -20.5q42 -31 94 -37v5v73zM352 401l-9 4.5t-10.5 6.5t-8.5 6v-47l-5 -312q23 0 56 11q71 20 100 98q9 23 7.5 55.5t-13.5 55.5q-42 79 -117 122zM209 547 q20 -12 49 -27l4 96q0 74 4 222q-32 -3 -57 -19q-49 -30 -70 -90q-18 -44 -8 -89t45 -69q4 -3 15 -12t18 -12z" />
<glyph unicode="%" horiz-adv-x="659" d="M23 766q-3 61 42 105t107 44q133 0 139 -149q1 -53 -48 -98t-105 -45q-61 1 -98 41t-37 102zM96 782q-6 -30 18.5 -62t49.5 -30q34 2 60.5 24t27.5 54q1 31 -25.5 58.5t-58.5 29.5q-32 1 -51 -19t-21 -55zM612 844q-2 -7 -12 -23q-352 -546 -491 -792q-25 -41 -58 -27 q-25 6 -16 31q1 3 5 9t5 9q72 138 224.5 375.5t209.5 339.5q11 23 64 108q18 30 51 23q11 0 16.5 -16.5t1.5 -36.5zM348 131q-3 61 42.5 105.5t107.5 44.5q133 0 139 -150q1 -53 -48.5 -98t-105.5 -45q-61 1 -98 41t-37 102zM422 147q-6 -30 18 -62t49 -30q35 2 61.5 24 t27.5 54q1 31 -25.5 58.5t-58.5 29.5q-32 1 -51 -19t-21 -55z" />
<glyph unicode="&#x26;" horiz-adv-x="710" d="M172 485q-6 12 -22.5 39.5t-22.5 40.5q-49 71 -41.5 167t70.5 159q37 37 88 48t97 -1t82.5 -44t47.5 -75q30 -134 -45 -221q-21 -24 -64.5 -62.5t-64.5 -60.5q29 -33 101 -118t114 -130q59 91 29 207q-1 4 -4 11t-5 12.5t-2 9.5q-3 32 25 45q14 6 27.5 0.5t19.5 -18.5 q21 -61 23 -91q6 -101 -35 -194q-4 -11 -10.5 -19.5t-9.5 -12t-1.5 -9t9.5 -14.5q40 -37 98 -105q20 -25 8 -39q-9 -12 -25.5 -15.5t-27.5 5.5q-18 12 -51 45q-10 8 -32.5 34t-33.5 36q-6 -4 -27 -20t-32 -23.5t-29 -20t-33.5 -21.5t-30.5 -16q-55 -27 -120 -26t-115 30 q-89 45 -104 181q-8 76 22.5 135.5t93.5 120.5zM461 166q-41 46 -113 129.5t-86 99.5q-28 32 -55 8q-41 -37 -60.5 -58.5t-35.5 -51.5t-15 -61.5t15 -73.5q17 -50 73.5 -76.5t112.5 -15.5q81 17 164 100zM248 526q6 5 21.5 18.5t22.5 20t20.5 19t21 20.5t17.5 20t18 23 t14 23q35 61 6 143q-13 37 -44.5 52.5t-65.5 10t-58 -25.5q-70 -54 -59 -164q12 -86 86 -160z" />
<glyph unicode="'" horiz-adv-x="251" d="M129 750q-7 3 -20.5 7.5t-16.5 6.5q-69 42 -35 100q15 27 42.5 35.5t54.5 -8.5q10 -7 20 -24t12 -29q12 -69 -14 -125.5t-80 -89.5q-14 -9 -21 1t1 21q6 14 25.5 37.5t25.5 36.5q2 3 4 10.5t3 13.5t-1 7z" />
<glyph unicode="(" horiz-adv-x="342" d="M317 895q9 -15 -17 -37q-2 -1 -3 -2q-60 -42 -68 -49q-36 -32 -51 -57q-105 -171 -76 -388q6 -45 11.5 -75t17 -70t27.5 -67t43 -54t63 -43q19 -8 25 -22q5 -6 5.5 -17.5t-3.5 -17.5q-11 -14 -35 -14q-12 0 -31 14q-53 48 -84.5 81.5t-62.5 86.5t-39 108q-22 144 -16 205 q11 177 69 279q43 75 135 141q72 43 90 -2z" />
<glyph unicode=")" horiz-adv-x="333" d="M311 508q9 -187 -67 -352q-41 -87 -133 -140q-22 -12 -66 -8q-7 0 -15 8.5t-10 16.5q0 4 3.5 9.5t8.5 11.5t7 9l4 3q45 14 79 41.5t55 66.5t34.5 78.5t19 91t7.5 88t2 84.5q0 106 -38 198t-118 130q-39 22 -41 24q-12 10 -9.5 25t17.5 18q17 3 66 -8q83 -20 141.5 -139 t52.5 -256z" />
<glyph unicode="*" horiz-adv-x="348" d="M209 635l16 16t16.5 17.5t16.5 16.5t16.5 12t16.5 5t16 -4q12 -9 13 -26t-9 -31q-7 -9 -19 -18t-16 -13q-6 -6 -20.5 -18.5t-24.5 -22.5q8 -8 22 -14t19 -10q4 -3 15 -10.5t16 -12.5q20 -27 -2 -49q-20 -20 -45 -4q-5 3 -22 22.5t-27 26.5q-1 -9 0 -38.5t0 -35.5 q-2 -20 -12 -32t-25 -11q-25 0 -33 37q-1 6 1 41t1 45q-9 -7 -30.5 -31.5t-28.5 -29.5q-19 -14 -41 2q-18 15 2 39q10 14 35.5 35.5t36.5 35.5q-9 8 -34.5 27t-39.5 31q-6 8 -11.5 21.5t-4.5 19.5q6 14 20.5 15.5t26.5 -5.5q9 -4 18.5 -10.5t22.5 -15.5t22 -15l4 45 q10 35 15 41q11 15 27 12t22 -20q2 -8 3.5 -38t4.5 -48z" />
<glyph unicode="+" horiz-adv-x="434" d="M233 309v-94q4 -19 -2 -41t-22 -22q-20 2 -23 32q-3 18 0 61.5t0 63.5q-67 0 -90 2q-3 0 -18.5 -1t-26 -0.5t-14.5 3.5q-17 9 -17 23q0 13 7.5 16.5t31.5 3.5q9 0 28 -1t28 -1q52 0 75 2q0 9 -2 39t-2.5 47t1 38t6.5 32q8 21 20 23q11 1 16 -7t7 -22q2 -17 -1 -43.5 t-2 -40.5q1 -10 1 -21t-0.5 -17t0 -10.5t2 -6.5t4.5 -2q9 0 57 -2.5t57 -2.5q4 -1 14 -1.5t17 -1.5t12 -5q2 -2 7.5 -4.5t7.5 -4.5t2 -7q0 -12 -5.5 -18.5t-17 -8t-22 -1.5t-28.5 1.5t-28 1.5q-9 -1 -38 -1t-42 -1z" />
<glyph unicode="," horiz-adv-x="243" d="M127 -2q-7 3 -20 7.5t-17 6.5q-32 19 -41.5 45t6.5 56q15 27 42.5 35t54.5 -9q10 -7 20 -24t12 -29q12 -69 -14 -125.5t-80 -89.5q-14 -9 -21 1.5t1 21.5q6 14 25.5 37t25.5 36q2 3 4 10.5t3 13.5t-1 7z" />
<glyph unicode="-" horiz-adv-x="466" d="M113 401q-35 4 -50 13q-34 21 3 37q19 8 47 8l209 4q23 0 41.5 -8.5t17.5 -26.5q0 -8 -3.5 -12t-8.5 -4.5t-11.5 -1t-13.5 -0.5q-92 -9 -231 -9z" />
<glyph unicode="." horiz-adv-x="217" d="M174 45q0 -25 -21.5 -44t-48.5 -19q-25 0 -44 24.5t-19 56.5q2 22 26 41.5t48 18.5q25 0 42.5 -23.5t16.5 -54.5z" />
<glyph unicode="/" horiz-adv-x="442" d="M385 879l-8 -25q-35 -84 -73 -193t-55.5 -166t-60.5 -198q-21 -66 -90 -248q-2 -5 -4.5 -16t-4.5 -14t-8.5 -6t-17.5 -1q-26 3 -20 29l6 18q33 106 103 318q101 311 131 401q5 17 45 119q12 31 45 31q8 1 11 -10q1 -6 1 -39z" />
<glyph unicode="0" horiz-adv-x="628" d="M588 385q-3 -24 -8 -53.5t-13 -68t-12 -60.5q-13 -73 -67.5 -132t-104.5 -67q-114 -18 -178 29q-58 41 -105 133q-21 44 -33.5 100t-16 93t-7.5 104q-8 185 51 295q63 113 174 139q77 20 154.5 -18.5t114.5 -114.5q40 -78 43 -182zM510 604q-21 149 -121 221 q-56 38 -115 15q-63 -25 -99 -76.5t-46 -116.5q-19 -133 -10 -262q8 -114 71 -233q22 -40 70 -66.5t84 -17.5q99 23 125 92q30 76 39 147q13 196 2 297z" />
<glyph unicode="1" horiz-adv-x="329" d="M172 795q-45 -110 -57 -136q-20 -36 -33 -49q-14 -11 -25.5 -5t-13.5 22q-4 22 8 39q80 169 90 188q24 51 80 45q27 -6 25 -31q-4 -234 -4 -352v-338q3 -75 0 -149q-3 -19 -10.5 -27.5t-26.5 -7.5q-19 2 -27.5 10.5t-7.5 30.5q0 13 2 37t2 37l6 503q0 26 1 90t1 91 q-6 0 -10 2z" />
<glyph unicode="2" horiz-adv-x="548" d="M119 59q93 7 233 7q65 3 127 -3q2 0 8 -0.5t7.5 -1t5.5 -1.5t5 -2.5t2 -5t1 -7.5q0 -39 -27 -41q-23 -2 -139 -2l-102 -2q-101 -1 -101 2q-25 0 -71 12q-39 14 -19 52q13 25 22 41.5t20.5 33t17.5 24.5t24.5 30.5t28.5 35.5q8 10 41 50.5t45 56t39.5 51.5t42.5 59 t34 54.5t33 60.5q25 59 35 103q9 79 -33.5 130t-103.5 54q-52 3 -102 -34.5t-76 -78.5q-3 -4 -7.5 -15t-10 -19t-11.5 -11t-17.5 0.5t-17.5 9.5q-4 6 -5.5 17.5t1.5 17.5q84 151 219 164q106 12 174.5 -52t59.5 -163q-9 -57 -27 -108t-53.5 -107t-55 -83.5t-73.5 -93.5 t-66 -81q-39 -48 -60.5 -80.5t-29.5 -42.5q-5 -5 -18 -31z" />
<glyph unicode="3" horiz-adv-x="653" d="M473 463l21 -14q67 -41 96.5 -108t20.5 -131.5t-48 -121t-98 -80.5q-56 -23 -124 -26t-128 12t-107 50t-63 85q-5 19 7.5 31t31.5 8q24 -10 39 -29q91 -108 250 -94q53 2 92.5 31t57 70.5t17 89t-21.5 86.5q-60 107 -154 112q-3 0 -8 1t-8 1q-12 3 -19 5.5t-14 10 t-6 19.5q0 34 39 37q54 -9 97.5 13t65 60.5t21.5 88t-26 92.5q-24 44 -72 61q-125 55 -223 -51q-11 -6 -23 -27q-3 -2 -9 -8.5t-9 -8.5t-9 -2t-12 5q-27 21 -14 51q20 32 33 43q72 75 165.5 84.5t170.5 -47.5q40 -27 66 -74t32.5 -100.5t-19 -110t-83.5 -96.5 q-3 -3 -11.5 -8.5t-13.5 -9.5z" />
<glyph unicode="4" horiz-adv-x="632" d="M84 377q20 34 97.5 169.5t119.5 203.5q27 43 72 110q2 3 8.5 11.5t9.5 12t9 9.5t11 9t13 6t16 3q37 6 43 -26q9 -40 9 -58q0 -83 -3.5 -246t-3.5 -192q0 -27 4 -67q7 0 34 -1.5t30 -1.5q1 0 7.5 -0.5t7.5 -1t6 -1.5t6.5 -2.5l4 -4t4 -6t1.5 -8.5q3 -14 -1.5 -19 t-21.5 -12q-6 -3 -39 -5.5t-39 -4.5q-1 -24 -0.5 -91.5t-1.5 -90.5q0 -43 -4 -54q-3 -9 -11.5 -15.5t-16.5 -6.5q-19 0 -29 16q-3 8 -8 58v182q-82 4 -115 4h-225q-24 -1 -32.5 9.5t-3 29.5t15.5 38t26 44zM424 829q-24 -38 -80 -134t-80 -134q-65 -106 -129 -246h289v514z " />
<glyph unicode="5" horiz-adv-x="565" d="M162 817q-5 -203 -8 -270q21 -2 135 -2q68 0 121.5 -32t79.5 -83t33 -115.5t-17 -128.5q-16 -48 -50 -86t-74.5 -60.5t-84 -33.5t-83.5 -8t-69 18q-3 1 -16 8t-20.5 11t-20.5 11.5t-20.5 13.5t-15 13.5t-9.5 14.5q-4 28 4 41q13 23 33 6q38 -20 76 -47q32 -25 79.5 -28 t83.5 16q22 11 58 35q45 32 62 89t7 117q-11 75 -65.5 122.5t-138.5 47.5q-19 3 -58 -1t-53 -3q-27 0 -38.5 10t-8.5 37l8 289q0 13 4 33q1 22 9.5 28.5t31.5 6.5q71 0 215 -4q12 0 33 0.5t32 0.5t25.5 -1t24 -3.5t16.5 -7.5q8 -3 14 -12t5 -16q0 -15 -21 -19q-21 -8 -57 -8 q-80 2 -250 2q-6 0 -12 -2z" />
<glyph unicode="6" horiz-adv-x="608" d="M152 510q16 2 53.5 8t67.5 9t69 3q117 0 175 -82t46 -219q-9 -108 -76.5 -177t-171.5 -66q-89 3 -147 41q-48 33 -78 86.5t-39.5 114t-6.5 119.5t17 112q37 123 113.5 222t181.5 159q27 16 95 39q35 12 43 -21q7 -33 -25 -43q-10 -4 -30.5 -11.5t-28.5 -10.5 q-6 -3 -25.5 -13t-27 -14t-23.5 -13t-25 -16.5t-20.5 -18t-20.5 -22.5q-90 -104 -116 -186zM502 254q6 63 -19.5 115.5t-64.5 74.5q-73 40 -176 23q-57 -9 -91.5 -48t-35.5 -97q-3 -64 20 -140q31 -80 88 -112q43 -21 88 -24.5t88 20.5q97 66 103 188z" />
<glyph unicode="7" horiz-adv-x="665" d="M586 823q-23 0 -59 0.5t-63.5 0.5t-51.5 -1q-106 0 -314 -4q-34 3 -43 13q-5 6 -8 14q-7 20 -1 28.5t26 8.5h61q142 0 432 -4q101 0 101 -17t-33 -76q-25 -44 -95.5 -170t-99.5 -176.5t-80 -137.5t-87 -145t-70 -106q-16 -34 -36 -49t-35 -13t-28 3q-18 20 4 51l187 287 q114 176 256 434q35 56 37 59z" />
<glyph unicode="8" horiz-adv-x="630" d="M416 489l53 -40q77 -60 104.5 -133.5t-2.5 -163.5q-21 -57 -65.5 -96t-96.5 -54t-107 -12.5t-101 24.5q-81 38 -127.5 109.5t-24.5 161.5q17 70 70 117.5t131 89.5q-3 2 -98 90q-41 42 -46.5 105t25.5 112q51 82 136 104t171 -22q125 -69 125 -197q0 -59 -45 -109.5 t-102 -85.5zM508 209q14 77 -47 158q-9 12 -21.5 23t-19.5 15.5t-28 17t-25 15.5q-53 27 -101 -8q-76 -55 -104 -86q-36 -36 -39 -99.5t27 -105.5q39 -56 139 -80q93 -13 149.5 29.5t69.5 120.5zM244 825q-48 -27 -63 -91.5t22 -104.5q16 -18 56.5 -51.5t49.5 -42.5 q13 -12 30.5 -12t29.5 9q39 23 71.5 58.5t46.5 75.5q14 36 -6 81t-55 70q-82 59 -182 8z" />
<glyph unicode="9" horiz-adv-x="641" d="M475 365l-84 -15q-109 -22 -196 21q-66 31 -105 83t-46 109.5t9 116t53 106.5q36 53 74 76q91 55 182 39t162 -96q50 -58 66 -146q7 -57 8 -103.5t-12.5 -95.5t-29 -89t-43 -83.5t-54.5 -79.5t-62 -77q-40 -46 -97 -88t-103 -57q-2 -1 -13.5 -6.5t-17.5 -6.5 q-29 -6 -45 29q-5 6 -1 11.5t6.5 7.5t11 5t12.5 5q98 48 169 113t134 167q4 8 11 26.5t11 27.5zM307 401q110 0 180 56q27 22 29 37q14 89 -3.5 169.5t-59.5 118.5q-92 76 -179 55t-135 -124q-59 -128 15 -232q28 -36 69.5 -58t83.5 -22z" />
<glyph unicode=":" horiz-adv-x="217" d="M174 66q0 -25 -22 -44.5t-48 -19.5q-25 0 -44 25t-19 57q2 22 25.5 41t48.5 18q25 0 42.5 -23t16.5 -54zM174 537q0 -25 -22 -44.5t-48 -19.5q-25 0 -44 25t-19 57q2 22 25.5 41t48.5 18q25 0 42.5 -23t16.5 -54z" />
<glyph unicode=";" horiz-adv-x="217" d="M174 537q0 -25 -22 -44.5t-48 -19.5q-25 0 -44 25t-19 57q2 22 25.5 41t48.5 18q25 0 42.5 -23t16.5 -54zM127 -2q-7 3 -20 7.5t-17 6.5q-32 19 -41.5 45t6.5 56q15 27 42.5 35t54.5 -9q10 -7 20 -24t12 -29q12 -69 -14 -125.5t-80 -89.5q-14 -9 -21 1.5t1 21.5 q6 14 25.5 37t25.5 36q2 3 4 10.5t3 13.5t-1 7z" />
<glyph unicode="&#x3c;" horiz-adv-x="380" d="M82 358q39 -25 114 -75.5t101 -67.5l39 -29q10 -8 12 -18.5t-8 -20.5q-14 -14 -37 -14q-9 2 -35 17l-213 151q-65 48 -2 102q28 24 83 63.5t71 51.5q12 8 32.5 25t24.5 20q40 28 74 15q9 -4 13.5 -7t3.5 -7.5t-4 -8t-11 -10.5q-12 -9 -36 -25.5t-36 -25.5 q-13 -10 -81 -58t-105 -78z" />
<glyph unicode="=" horiz-adv-x="425" d="M113 401q-35 4 -50 13q-34 21 3 37q19 8 47 8l209 4q23 0 41.5 -8.5t17.5 -26.5q0 -8 -3.5 -12t-8.5 -4.5t-11.5 -1t-13.5 -0.5q-92 -9 -231 -9zM70 229q-36 0 -39 17q-3 30 37 37h14l250 4q58 3 61 -29q1 -5 -1 -8t-7.5 -5t-10.5 -2.5t-16 -1t-18 -1.5q-20 -2 -64 -2 q-34 -1 -101.5 -5t-104.5 -4z" />
<glyph unicode="&#x3e;" horiz-adv-x="380" d="M291 362q-39 24 -111 76t-100 70l-39 29q-25 21 -8 36q15 15 37 15q8 -1 34 -17l213 -151q66 -48 2 -103q-28 -24 -82.5 -63t-70.5 -51q-12 -8 -32.5 -25t-24.5 -20q-40 -28 -74 -15q-9 4 -13.5 7t-3.5 7.5t4 8t11 10.5q11 9 35 25.5t36 25.5q16 12 83.5 59t103.5 76z " />
<glyph unicode="?" horiz-adv-x="499" d="M399 872q41 -24 64 -85.5t12 -108.5q-16 -67 -74 -119q-8 -7 -47.5 -41t-60.5 -55q-45 -48 -49 -144q0 -26 -6 -47q-8 -16 -27 -20q-15 0 -23 20q-12 18 -12 41q0 80 47 147t139 150q73 67 33 164q-16 39 -68 61t-100 17q-43 -4 -79 -34t-54 -73l-6 -14 q-12 -21 -21.5 -27t-23.5 1q-14 9 -19.5 30t3.5 35q86 141 215 141q94 0 157 -39zM268 29q0 -23 -15 -37t-38 -12q-21 0 -40 19.5t-21 41.5q0 22 18.5 38t44.5 15q22 0 36.5 -18.5t14.5 -46.5z" />
<glyph unicode="@" horiz-adv-x="860" d="M530 352q-83 -59 -100 -69q-67 -44 -162 6q-22 11 -37 45q-45 85 -4 184q20 46 74 76.5t105 23.5q10 -2 20.5 -6.5t23.5 -11.5t21 -10q5 -3 29 -27q1 2 8.5 20t13.5 25q18 23 33 23q8 -1 17 -11t12 -20q0 -1 6 -53q0 -10 -0.5 -28t-0.5 -32.5t1 -27.5q4 -40 8 -58 q13 -51 59 -59q55 -10 80 33q31 48 33 82q1 37 -8 170q-5 91 -100 168q-11 9 -22.5 15t-29.5 10.5t-24.5 6t-31.5 4.5t-26 3q-94 14 -194 -19q-94 -32 -168 -137q-90 -135 -66 -336q23 -187 172 -266q180 -98 357 22q3 2 10 7.5t9.5 7t10.5 6t11 4.5t11.5 2.5t12.5 -0.5 q24 -3 31 -16.5t-6 -30.5q-27 -39 -62 -53q-147 -66 -258 -64q-104 3 -172 43q-24 14 -47.5 37t-37 40t-36.5 48q-12 17 -22.5 37t-17 34.5t-14 41t-10 36t-9.5 42t-8 38.5q-5 18 0 54q19 181 67 270q52 96 162 154l63 34q62 32 123 29q11 -1 39.5 3t42.5 1q23 -4 48 -11.5 t55.5 -17t46.5 -14.5q4 -1 7.5 -3.5t7 -6t5.5 -4.5q103 -50 127 -193q18 -127 21 -174q0 -50 -21 -84q-32 -49 -84 -94q-46 -34 -97 -24.5t-91 53.5q-15 20 -17 22zM293 428q0 -15 2 -25q6 -54 57 -69q45 -17 84 22q31 31 45 90q9 46 -20.5 78.5t-75.5 26.5 q-43 -5 -67 -36.5t-25 -86.5z" />
<glyph unicode="A" d="M375 893q55 18 74 -25q23 -52 34 -94q14 -53 64 -151q47 -97 55 -117q5 -12 16.5 -39t19.5 -48.5t13 -41.5q6 -19 15 -39.5t21.5 -46.5t17.5 -39q12 -25 75 -174q12 -21 21 -45q10 -30 -17 -33q-49 -5 -65 43q-48 132 -80 195q-28 1 -109.5 0.5t-109.5 1.5 q-56 1 -73.5 0.5t-74.5 -4.5t-73 -5q-24 -43 -62 -149q-2 -6 -7.5 -19.5t-11.5 -27.5t-7 -17q-6 -20 -13 -22q-3 -2 -6 -2q-2 0 -8.5 -1.5t-10 -1.5h-9t-10 2t-7.5 5q-4 5 -4.5 11t0.5 10t4 10.5t4 9.5l146 358q6 19 22 68t25 74q14 42 39 100q62 150 92 254zM403 778 q-78 -190 -94 -235q-7 -21 -26 -73t-32.5 -93t-21.5 -76q19 -4 77 -1.5t75 1.5q30 -1 66 -1t79.5 0.5t65.5 0.5q8 0 8 8q-7 19 -22.5 65t-22.5 64q-12 29 -40 87.5t-40 86.5l-35 93z" />
<glyph unicode="B" horiz-adv-x="647" d="M410 453q45 -18 47 -19q59 -26 63 -28q108 -56 105 -168q-4 -55 -11 -78q-31 -78 -116 -121q-114 -54 -248 -45q-58 4 -117 0h-35q-19 0 -24.5 7.5t-5.5 29.5q4 89 2 133q-11 198 -7 313q3 51 -2 230v122q5 39 22 54.5t54 9.5q28 -3 89.5 -3.5t82.5 -2.5q51 -3 123 -13 q62 -9 90 -67q46 -90 23 -184q-20 -77 -72 -113l-39 -31q-4 -3 -11.5 -12t-12.5 -14zM127 393q-3 -43 6 -171t17 -161q32 -8 47 -8q95 -4 145 0q122 7 180 92q23 37 27.5 66.5t-4 54t-33.5 64.5q-8 14 -21.5 26t-21.5 17t-30.5 16.5t-26.5 13.5l-21 5q-97 6 -229 -2 q-4 -1 -35 -13zM135 850q-1 -7 -3.5 -21.5t-2.5 -21.5q-1 -12 -1 -34t-1 -39.5t-4 -33.5q-3 -31 0 -59q10 -44 6 -106q0 -5 -0.5 -16.5t-0.5 -18t1.5 -16t5.5 -17.5q114 -7 215 22q61 19 105 95q26 43 26 133q3 58 -45 86q-61 39 -127 45q-25 2 -174 2z" />
<glyph unicode="C" horiz-adv-x="813" d="M41 467q9 64 8 74q-3 18 1 36.5t12.5 42t11.5 33.5q1 5 6 15.5t6 15.5q11 61 61 102q91 74 127 91q57 29 121 38q94 14 219 -34q44 -15 107 -78q3 -3 14 -25q13 -22 -6 -35q-15 -19 -35 -8q-17 7 -30 17q-41 27 -56 39q-32 28 -90 45q-88 32 -147 2q-46 -2 -97 -43 q-1 -1 -43 -31q-37 -29 -51 -66q-10 -22 -33 -53q-17 -22 -24 -63q-20 -125 2 -228q13 -69 59 -149q21 -35 41 -55q116 -113 256 -89q84 14 146 76l84 74q25 20 49 2q9 -6 11 -17.5t-5 -19.5q-11 -11 -34.5 -41t-39.5 -43q-38 -29 -53 -37q-83 -42 -154 -61q-32 -8 -96 -4 q-64 6 -125 37q-5 2 -31 22q-13 11 -42 41t-48 43q-7 3 -10 10q-16 37 -53 109q-20 42 -27 104z" />
<glyph unicode="D" horiz-adv-x="749" d="M115 891q13 5 42 6.5t80.5 0.5t55.5 -1q34 0 147 -23q79 -19 152 -79q50 -41 72 -109q33 -110 38 -141q14 -103 -12 -217q-12 -55 -61 -146q-29 -51 -51 -69q-35 -30 -57.5 -47t-58 -35t-71.5 -25q-12 -3 -76 -8h-63q-88 0 -111 -6q-25 -4 -65 16q-13 6 -13 31v102 q5 30 5 39v121q4 82 4 123q0 125 -2 186q0 60 -0.5 73.5t3.5 72.5t5 73q2 12 10 27q20 31 27 35zM143 66l11 -7q56 -2 76.5 -2t81 5t73.5 6q4 0 8 4q71 22 109 55q44 44 65 78q55 77 64 162q18 133 -6 219q-4 16 -29 94q-21 52 -63.5 88t-90.5 49q-53 15 -168 27 q-12 2 -31 2t-42 -1t-31 -1q-15 -1 -21.5 -8t-9.5 -23q-6 -30 -6 -59q0 -16 2 -50.5t2 -52.5q0 -13 -2.5 -47.5t-1.5 -52.5q0 -153 4 -197q4 -20 2.5 -92t-0.5 -92q0 -37 2 -55q0 -35 2 -49z" />
<glyph unicode="E" horiz-adv-x="608" d="M135 813q-14 -114 -8 -233l6 -131q0 -5 4 -17q83 -4 125 -2.5t124.5 7.5t123.5 7q19 -31 16 -69q-50 -10 -61 -10q-50 0 -285 -5q-7 0 -20.5 -1t-20.5 -1q-9 -17 -5 -73.5t3 -71.5q-1 -31 -0.5 -47t3 -47t3.5 -47q14 -9 15 -9q150 -7 268 9q18 2 106 2q31 -3 31 -27 q3 -37 -28 -43q-20 -4 -62 -4l-197 -4q-17 0 -45 -4q-2 0 -7 -1t-7 -1q-46 8 -111 4q-23 0 -30 29v24q-4 230 -4 348v113l-9 307v62q15 15 36 17.5t36 -1.5q122 -7 211 -2q13 1 27 1t32 -0.5t29 -0.5q36 0 43 2q13 4 36 2.5t36 1.5q7 1 12.5 -4.5t5.5 -13.5q-4 -28 -4 -43 q-15 -15 -39 -11q-46 8 -170 4q-5 -1 -16 0t-16 0q-104 -4 -156 -8q-7 0 -31 -8z" />
<glyph unicode="F" horiz-adv-x="585" d="M152 -6q-15 -1 -70 -10q-8 16 -10 24t-2 25q2 94 2 284q0 133 -2 201q0 30 -3.5 87t-3.5 69q-1 19 2 63.5t1 67.5q0 8 -1.5 26t-1.5 27q3 29 31 29q97 0 144 -2q90 -2 229 16q19 3 39 0q13 0 26 -10q15 -7 11 -31q0 -16 -21 -16q-28 -4 -43 -4q-27 4 -101.5 0.5 t-101.5 -2.5q-19 1 -129 -4q-14 -21 -14 -64q-1 -14 4 -82q4 -44 2 -63q-8 -89 0 -131q2 -6 2 -39q0 -16 4 -52q7 0 20 -1t19 -1q16 -1 28 0t27.5 -0.5t28.5 -5.5h15q30 8 88 11.5t82 7.5q26 4 36 -8q17 -23 3 -48q-42 -12 -107 -12l-92 6q-2 0 -7 -1t-7 -1l-99 -6 q-11 0 -35 -4q-4 -14 -5 -27.5t0 -34.5t1 -26q3 -82 17 -152q14 -60 -6 -106z" />
<glyph unicode="G" horiz-adv-x="868" d="M754 352h-58h-28q-25 -6 -50 0q-34 8 -77 -2q-30 18 -15 51q12 26 45 23q4 -2 11 -2h116q21 2 68 10q4 0 12.5 1t12.5 1q19 0 22 -16q14 -41 12 -72q-8 -40 -6 -63q5 -52 -37 -123q-57 -98 -159 -131q-74 -23 -115 -27q-47 -7 -103.5 4t-101.5 31q-96 33 -149 88 q-67 75 -93 145q-10 26 -14 62q0 17 -4 49q-2 4 -2 14q3 17 7 53t9.5 63.5t16.5 51.5q7 14 18.5 42.5t18.5 41.5q50 113 135 176q100 71 207 60q61 -6 120 -9q36 -2 86 -32q35 -18 89 -76q6 -7 17.5 -19.5t21 -22.5t16.5 -19q18 -24 -8 -43q-8 -6 -17 -6.5t-14 6.5 q-16 24 -57 53t-48 35q-52 47 -135 63q-101 18 -172 -12q-22 -7 -51 -29q-94 -59 -145 -166q-36 -77 -39 -155q-3 -118 41 -215q56 -128 184 -152q66 -13 90 -21t37 -6q108 13 195 54q25 12 34 24q47 61 60 117q15 61 -4 100z" />
<glyph unicode="H" horiz-adv-x="784" d="M156 412q11 0 33.5 0.5t40.5 0.5t32 -1q20 0 50 2t42 2q113 0 154 -4q21 -1 60.5 0.5t52.5 1.5q4 20 4 22q8 90 8 342q0 11 -2 35.5t-2 36.5q0 30 4 33q4 4 20 6h17q14 2 20 -2.5t6 -20.5v-43q0 -176 -2 -264q0 -21 -1 -62t-1 -61l4 -334q0 -39 4 -71q2 -17 -2 -25 t-18 -8h-22t-11.5 3t-10 8.5t-5.5 17.5q-7 107 -4 256v61q-98 4 -140 4q-16 0 -66 0.5t-79 0.5t-68.5 -2t-64.5 -5l-53 -6q1 -32 0 -98t0 -95l4 -77q0 -5 0.5 -17.5t0 -17t-2 -13t-5 -11.5t-11 -6t-17.5 -3q-27 0 -37 10q-4 4 -4 27v373q0 14 1 29t2.5 34t2.5 29v35 q-4 17 -1.5 71.5t1.5 73.5v141q0 6 0.5 18.5t0.5 20t3.5 17.5t9.5 18q7 5 26 6t24 -6q14 -23 4 -125q-6 -40 -6 -78q3 -3 2 -121l-2 -118q0 -13 4 -41z" />
<glyph unicode="I" horiz-adv-x="284" d="M178 27q0 -29 -35 -29q-4 0 -10 -0.5t-8.5 -0.5t-7 2t-8.5 7q-5 15 -4 36.5t3 66t1 65.5q-8 152 -5 328q0 224 2 266l5 88q2 22 15.5 31t35.5 2q2 -1 16 -10q6 -68 0 -136q-6 -59 -6 -176v-256q-1 -55 2.5 -148t3.5 -136z" />
<glyph unicode="J" horiz-adv-x="559" d="M485 881q7 -7 7 -93q0 -48 3.5 -170.5t1.5 -208.5t-12 -153q-12 -93 -30 -135q-22 -53 -64.5 -88.5t-99.5 -38.5q-55 -3 -107 12q-12 3 -23.5 9t-24.5 18.5t-19 18t-21 23.5t-16 19q-9 10 -39 68q-4 11 7 25t24.5 22t17.5 4q5 -6 14 -25q30 -52 76 -90q43 -37 96 -37 q44 -1 74.5 22.5t42.5 68.5q33 118 33 350l-8 147q0 13 -1 37t-1 37q0 25 -3 69.5t-3 65.5q-3 41 39 35q2 0 8 -1t9.5 -1.5t9 -3t9.5 -6.5z" />
<glyph unicode="K" horiz-adv-x="618" d="M276 475q10 -15 11 -16q15 -23 82 -146l106 -170l82 -127q15 -22 -16 -22q-8 0 -54 4q-6 0 -25.5 28.5t-33.5 53.5l-80 131q-10 18 -28.5 53.5t-28.5 52.5q-25 45 -68 95q-18 -18 -20 -21l-41 -51q-29 -29 -29 -74q0 -30 -4 -88q0 -37 3 -80t3 -57q0 -47 -18 -47 q-14 -4 -45 2q-3 1 -4.5 13.5t-2 34t-0.5 41t0.5 42.5t0.5 29l6 284q0 68 -2 101q0 18 -2 52t-2 50q-3 80 -3 158q-1 12 -1 25.5t0.5 30t0.5 24.5q0 13 27.5 17t40.5 -9q4 -4 4 -27q-6 -123 -6 -127q0 -78 4 -117q2 -12 0.5 -40.5t-0.5 -40.5v-78q0 -43 2 -49q27 26 31 34 q13 18 46.5 61.5t57 76t43.5 63.5q24 39 88 123q19 26 84 109q15 18 60 18q27 0 31 -8.5t-17 -34.5q-49 -54 -119 -145l-100 -134q-7 -9 -20 -29.5t-15 -23.5z" />
<glyph unicode="L" horiz-adv-x="520" d="M45 868q0 14 14.5 18t29.5 1t20 -8q3 -6 5 -14t2 -13.5t-0.5 -14.5t-0.5 -12l-6 -211q0 -39 2 -57q0 -25 1 -74t1 -73v-338q8 -2 30 -2q45 -2 144 -2h69q18 0 48 1t42 1q33 0 33 -31v-19q0 -9 -6 -15.5t-14 -8.5q-15 0 -39 4q-34 3 -68 0h-51h-125q-22 -3 -92 2 q-32 3 -35 35q-2 23 -2 63q0 39 -1 104t-1 85v135q0 150 -2 180q-1 1 -0.5 39t0.5 39q0 12 1 32.5t1 30.5v123z" />
<glyph unicode="M" horiz-adv-x="1083" d="M301 752q-12 -15 -22 -56q-6 -22 -21 -84.5t-25 -95.5q-39 -130 -47 -184q-9 -48 -33.5 -138.5t-33.5 -138.5q-4 -15 -8 -53q-5 -12 -54 -11q-37 1 -34 11l10 35l37 123q18 56 20 86q0 21 12 61q10 38 33.5 108t32.5 103q45 177 86 283q5 16 14 45.5t13 42.5 q3 11 19.5 16.5t27.5 -2.5q12 -9 14 -18q5 -15 13.5 -47t13.5 -47l61 -207q32 -129 37 -148l78 -282q0 -2 1.5 -4.5t4.5 -7t4 -7.5q16 52 107 371q15 54 32.5 114.5t39.5 133t34 112.5l14 8q29 13 36.5 10.5t21.5 -30.5q9 -21 12 -41q11 -60 31 -133q34 -121 47 -174 q23 -114 45 -176q19 -62 31 -123q9 -37 29 -100.5t28 -92.5q3 -16 -9 -21t-42 -5q-18 0 -21 6q-2 9 -11 54t-15 69q-58 230 -70 276l-21 66l-67 260q-4 12 -4 18q-14 3 -17 -10q-24 -94 -38 -141q-40 -127 -60 -217q-4 -18 -10.5 -38.5t-16 -46t-14.5 -40.5q-6 -18 -6 -19 l-31 -143q-3 -12 -16 -51q-6 -21 -29 -31q-32 -14 -45 14q-5 10 -10.5 31.5t-7.5 26.5q-4 26 -8 37q-8 20 -70 215q-17 59 -33 106l-37 100l-22 91z" />
<glyph unicode="N" horiz-adv-x="722" d="M137 823h-12q-2 -27 -2 -90v-92v-88q0 -12 2 -38t2 -40q0 -11 -2 -35t-2 -37q1 -12 2.5 -32.5t2.5 -37t1 -32.5l4 -192q0 -6 1 -19.5t1 -19.5q0 -42 -2 -56q-1 -3 -2 -5t-2.5 -3.5t-4 -2.5t-4 -2t-5 -1h-5h-6h-6.5q-22 0 -28 18q-4 9 -4 62q0 18 2 57t2.5 60t-2.5 49 q-5 56 -5 133q0 56 -1 170t-1 172q0 17 1 51t1 45q0 35 29 53q18 13 40.5 18.5t33.5 -5.5q27 -29 54.5 -73t40.5 -70t40 -83q56 -124 109 -206q5 -9 15.5 -27.5t16.5 -30t14 -28.5t13 -31q1 -4 7.5 -16t8.5 -19q14 -25 38 -72.5t34 -66.5q4 -8 14.5 -28t18.5 -34q4 11 4 39 v33v35q-8 176 -10 264q0 20 1.5 85t0.5 101t1.5 108.5t2.5 90.5q0 22 35 31q25 6 31 3t6 -22q0 -28 -2.5 -71.5t-2.5 -61.5q0 -13 -1 -41.5t-1 -50.5q0 -14 -1 -45t-1 -47q0 -15 1 -46t1 -46q0 -74 -2 -111q-1 -20 -1 -44.5t0.5 -59t0.5 -56.5q0 -24 -1 -71t-1 -74 q0 -6 -4 -18q-3 -24 -24 -29q-34 -4 -48 16l-10 23q-80 144 -104 192q-11 23 -43 83t-47 93q-14 27 -46.5 84t-45.5 84q-4 8 -30.5 59.5t-41.5 76.5q-7 14 -33 54t-37 64z" />
<glyph unicode="O" horiz-adv-x="888" d="M412 -14q-105 7 -176 51q-44 27 -62 55q-1 2 -35 47q-8 10 -26 41q-21 38 -39 78q-10 26 -11 29q-35 145 -14 256q12 57 27 84q4 7 38 68t58 89q44 51 86 70q63 31 111 39.5t114 3.5q59 -4 122 -26.5t108 -53.5l12 -8q9 -5 17 -11.5t15 -15.5t12 -14.5t10.5 -18t8.5 -17 t8.5 -19.5t6.5 -17.5t6.5 -20t5.5 -18.5q27 -93 27 -168q0 -8 4 -24q4 -63 -8 -103q-17 -65 -27 -118q-3 -15 -11 -31t-21 -34t-21 -28.5t-26 -30.5t-21 -24q-47 -54 -135 -83.5t-164 -26.5zM662 135q102 94 114 234q1 9 1 25.5t1 30.5t4 26q3 15 -2 59q-1 24 -6.5 49.5 t-15 57t-13.5 47.5q0 6 -8 18q-23 52 -84 106q-32 27 -110 46q-159 30 -275 -27q-20 -9 -39.5 -29t-29.5 -35t-27 -43q-44 -78 -57 -182q-11 -86 -4 -143q6 -56 22 -96q6 -11 14.5 -33t10.5 -25q45 -92 121 -145q21 -17 34 -19q73 -18 154 -18l49 10q58 13 146 86z" />
<glyph unicode="P" horiz-adv-x="595" d="M123 0h-55q0 3 -3.5 22.5t-3.5 28.5l5 144q0 22 -1.5 67t-1.5 68l7 67v25q-1 5 -4 26t-3 33v117q0 74 7 117q4 27 0 80q0 36 26 86q78 17 169 12.5t165 -29.5q49 -17 94 -76q2 -2 4 -6t4 -6q2 -3 8.5 -10.5t9.5 -12t7.5 -11.5t6.5 -14t3 -15q13 -90 -4 -135 q-10 -34 -45 -86l-18 -23q-31 -45 -90.5 -72.5t-112.5 -27.5q-65 4 -129 0q-22 0 -29.5 -6.5t-7.5 -26.5q-1 -32 -3.5 -96.5t-3 -96.5t0.5 -96q1 -8 -0.5 -24t-1.5 -23zM131 424q89 -22 229 14q18 4 25 15l78 67q7 10 10 23q27 74 19 129q-5 30 -5 35q0 23 -16 45 q-19 36 -65 53l-58 26q-47 17 -82 15q-52 0 -98 -8q-28 -3 -35 -35q-2 -12 -2 -35q0 -74 -2 -113q0 -7 -1 -26t-1 -27q4 -58 4 -88v-90z" />
<glyph unicode="Q" horiz-adv-x="907" d="M45 436q0 77 8 103q11 46 35 92q7 15 25.5 47t27.5 51q44 84 142 121l102 35q14 5 42.5 5.5t41.5 4.5q28 6 82 -10q59 -14 72 -21q55 -28 112 -92q66 -72 96 -145q18 -41 29 -115q20 -131 -39 -272q-27 -71 -84 -125q-42 -42 -98 -74l6 -6l76 -115q3 -4 17.5 -22 t21.5 -29q9 -12 5.5 -23t-17.5 -14q-4 -2 -15 -2q-16 0 -22 2q-32 31 -72.5 96t-58.5 86q-8 -4 -13 -4q-6 -4 -22 -8q-112 -16 -160 -12q-22 3 -43 8q-18 4 -25 8q-118 58 -172 119q-3 3 -10 11.5t-10 12t-9.5 11t-9.5 12l-8 12t-7.5 14t-5.5 14t-5 15.5q0 2 -12 25 q-1 4 -7 15.5t-6 17.5q0 15 -8 64t-2 77v10zM793 430v45q-3 119 -72 205l-12 14q-31 51 -43 66q-9 14 -36.5 28t-31.5 17q-30 21 -74 24q-12 2 -38 0.5t-37.5 -2.5t-37.5 -5t-38 -5q-67 -12 -117 -65q-12 -13 -39 -37q-55 -55 -78 -107q-7 -16 -14.5 -48t-11.5 -44 q-21 -80 6 -209q20 -108 119 -184q45 -36 100 -51q19 -5 42.5 -7.5t40 -3.5t45 -1.5t40.5 -0.5q14 -2 35 2q-11 24 -43 68t-43 72l28 26q27 -4 54 -39q38 -58 69 -92l2 -6l2 2l23 12q61 29 106 109q54 94 54 217z" />
<glyph unicode="R" horiz-adv-x="606" d="M324 336q2 -3 15 -23.5t21 -31.5l82 -127q54 -80 95 -121q14 -10 8 -25q-1 -9 -11.5 -14t-19.5 -2q-59 12 -92 59q-62 95 -96 154l-54 92q-17 29 -33.5 37t-50.5 2q-3 0 -12.5 -1t-14.5 -1.5t-12.5 -4.5t-13.5 -10v-137q0 -84 -2 -121q0 -33 -2 -49q-1 -13 -11 -18t-22 0 q-4 1 -7.5 2.5t-8 3.5t-8.5 4q0 5 -1 16t-1 17v90q-9 326 -9 446q1 49 -0.5 141t-1.5 120q0 33 2 51q30 10 37 10q160 0 191 -2q16 0 42.5 -9.5t37.5 -11.5q36 -7 86 -36q53 -36 90 -103q10 -18 14 -65q19 -163 -69 -244q-67 -60 -134 -70q-24 -4 -34 -18zM139 383h35 q138 31 158 35q45 12 82 41q51 36 62 51.5t26 71.5q2 57 -29 141q-8 24 -35 47q-79 60 -139 64q-9 0 -25 4.5t-22 5.5q-45 5 -53 4q-16 -1 -44.5 -6t-33.5 -6q-8 -24 -8 -33q0 -14 -0.5 -40.5t-0.5 -48t1 -40.5l18 -221q1 -6 1 -19.5t1.5 -26t5.5 -24.5z" />
<glyph unicode="S" horiz-adv-x="593" d="M41 109q22 26 29 32q9 12 24 4q13 -8 34.5 -24.5t27.5 -20.5q50 -37 133 -41q37 -3 86 11q71 20 100 98q9 23 7.5 55.5t-13.5 55.5q-42 79 -117 122q-20 12 -145 78q-54 26 -78 47q-45 38 -59 92q-12 50 8 119q29 87 129 146q20 12 72 16q65 3 120 -22q70 -29 123 -66 q19 -13 19.5 -27t-23.5 -26q-5 -4 -20 0q-5 0 -17 8q-84 65 -184 74q-47 3 -88 -21q-49 -30 -70 -90q-18 -44 -8 -89t45 -69q4 -3 15 -12t18 -12q21 -12 82 -41.5t92 -48.5q61 -33 104 -76q36 -34 58 -105q18 -50 -4 -122t-64 -105q-17 -11 -20 -12q-43 -17 -97 -33 q-17 -4 -55 -8q-6 0 -18.5 1t-18.5 1q-16 4 -22 4q-29 0 -60 9.5t-51 19t-55 28.5q-13 7 -18 14t-21 36z" />
<glyph unicode="T" horiz-adv-x="651" d="M371 827q-18 -31 -11 -73q5 -35 5 -43q4 -398 4 -619q0 -17 -2 -48t-2 -46q-14 -14 -39 -10q-11 2 -19 9t-8 17v70q4 33 2 47q-9 146 -6 299q1 29 0.5 83t0.5 98t5 83q1 29 1 39t-2 39t-3 39q0 4 -4 12q-2 1 -4.5 3.5t-3.5 2.5q-93 0 -138 -2q-20 0 -56 -3.5t-46 -4.5 q-15 -1 -25 9t-10 24t7.5 22.5t19.5 8.5q16 2 57 2q19 0 51 -1t57 -1t46 2q7 0 18.5 1t14.5 1q16 0 52 -1t54 -1q126 4 186 4q34 0 48 -4q9 -1 14.5 -9t3.5 -16q-4 -20 -18 -20q-10 0 -32 -2t-32 -2q-6 0 -21 1t-22 1q-17 -1 -143 -11z" />
<glyph unicode="U" horiz-adv-x="669" d="M145 883q2 -5 2 -37q0 -111 -2 -168l-4 -109q-6 -91 -2 -207q1 -16 17 -161q6 -50 60 -103t106 -53q24 -2 90 12q64 15 100 99q16 40 24.5 96.5t9 93.5t-1 107t-1.5 86t-1.5 67.5t-0.5 79.5q4 94 -2 141q-4 30 -2 47q4 32 57 17q10 -3 10 -17q2 -13 2 -67v-156 q0 -31 1 -92t1 -110t-2 -87q0 -82 -17.5 -160t-49.5 -120q-45 -58 -121 -82q-80 -19 -137 -6q-70 15 -122 64.5t-69 117.5q-14 60 -14 135q-4 184 -4 330q0 109 -9 217q-3 29 23 29q58 0 59 -4z" />
<glyph unicode="V" horiz-adv-x="718" d="M20 870q40 0 52 -6q10 -6 12 -16q30 -92 57 -166q9 -23 29 -88.5t35 -99.5q22 -49 55 -158q8 -22 24.5 -73t24.5 -73q13 -34 56 -118q37 69 79 188q6 17 18.5 58t18.5 59q4 16 14.5 45.5t14.5 42.5q10 31 31.5 98.5t33.5 102.5q6 17 64 200q12 21 39 15q13 -3 22 -15 q8 -17 -8 -45q-17 -34 -30 -72t-28.5 -88.5t-23.5 -74.5q-9 -23 -30 -86.5t-35 -96.5q-12 -30 -31 -94l-61 -186q-7 -22 -26 -61.5t-26 -59.5q-8 -11 -38 -11t-37 13q-34 56 -74 174t-43 125q-40 93 -84 229q-24 80 -102 302q-4 10 -6 21.5t3 14.5z" />
<glyph unicode="W" horiz-adv-x="1046" d="M29 887q21 0 28.5 -4t16.5 -21q15 -31 22 -78q5 -20 10 -58.5t7 -47.5q18 -88 32 -143q3 -12 10 -42t12 -55t7 -43q2 -31 27 -100q6 -19 19.5 -74t25.5 -101t18 -57q24 40 37 91q7 22 31 108t41 131q18 49 46.5 150t39.5 135q22 72 45 160q3 13 12.5 26t20.5 17 q16 4 20 0t10 -29q22 -90 27 -117q23 -98 29 -133l22 -110q0 -7 4 -19q33 -138 47 -250q13 -64 45 -168l9 17l86 307q18 68 54 195.5t50 177.5q5 19 13.5 55t13.5 53q3 24 24 27q23 5 33 -5.5t4 -33.5q-7 -33 -39 -146q-5 -16 -23 -76.5t-26 -93.5q-8 -27 -25.5 -90 t-25.5 -90q-7 -27 -47 -159l-41 -150q-11 -36 -37 -43q-60 -14 -68 20q-5 18 -19.5 72t-21.5 84q-34 164 -45 201q-10 35 -24.5 114t-18.5 97q-13 53 -35 121q-8 -4 -8 -7q-19 -79 -67 -213q-7 -17 -14 -40.5t-15.5 -54t-11.5 -42.5q-7 -25 -24.5 -79t-24.5 -83 q-10 -45 -33.5 -103t-40.5 -83q-9 -13 -31.5 -14t-34.5 10q-17 15 -32 53q-26 93 -43 176q-21 98 -25 109q-3 9 -6 28t-4 25l-47 201l-37 178l-8 39l-7 47q-3 12 1 21.5t10 9.5z" />
<glyph unicode="X" horiz-adv-x="813" d="M86 90q112 128 162 197l57 71q10 13 60 86q-54 76 -160 232q-14 21 -66 93t-76 112q4 8 9.5 10.5t13.5 2t10 -0.5q19 2 31.5 -3t19.5 -13t19 -26l6 -9q70 -115 121 -180q24 -30 108 -152q1 -3 6 -10t7 -11q120 157 129 168q20 26 58.5 73.5t51.5 64.5q24 35 64 75 q13 15 22.5 19t26.5 2q25 0 37 -12q1 -1 1.5 -2.5t-0.5 -3.5t-2.5 -3.5l-3.5 -3.5l-3.5 -3.5l-3.5 -3.5l-3 -3q-36 -36 -51 -57l-69 -86l-74 -90q-100 -118 -107 -127q-3 -3 -13 -15.5t-14.5 -19.5t-4.5 -12q25 -44 32 -52q28 -37 82 -104.5t72 -91.5q31 -44 64 -99 q24 -34 40 -61q9 -12 14 -28.5t-3 -18.5q-31 -12 -56 0q-9 4 -47 57l-45 66q-72 106 -76 112l-77 113q-25 35 -41 53q-24 -33 -82 -104t-82 -105q-33 -45 -94.5 -119.5t-71.5 -74.5h-51q-40 0 53 98z" />
<glyph unicode="Y" horiz-adv-x="733" d="M379 424q22 11 49 59q12 22 77 136t97 174q34 70 53 94q15 3 34 1.5t32 -14.5l-10 -22q-4 -7 -12.5 -17.5t-14 -20.5t-8.5 -21q-2 -8 -25 -48q-63 -97 -84 -139q-15 -29 -33.5 -58t-42.5 -63.5t-36 -52.5q0 -1 -29 -65q-8 -20 -9.5 -57t-4.5 -50q8 -10 5 -72t-3 -73 q4 -66 4 -99q0 -21 -5.5 -29.5t-25.5 -11.5q-18 -3 -25 3t-12 26q-2 6 -2 21q-4 86 -4 131q3 94 -6 186q-4 24 -12 37q-102 174 -121 201q-14 20 -30.5 41.5t-37 47.5t-31.5 40q-10 11 -47 69q-9 14 -41 72q-6 9 -2 18.5t15 12.5l24 4q20 7 31 -11l68 -102l22 -31 q7 -12 94 -143q14 -20 38.5 -68t37.5 -69q16 -29 33 -37z" />
<glyph unicode="Z" horiz-adv-x="684" d="M526 811q-8 3 -22.5 3t-16.5 1q-25 2 -92 2q-42 0 -127 -1t-127 -1q-14 0 -42.5 -2t-45.5 -2q-13 2 -17.5 33.5t17.5 34.5q24 3 59 3.5t87.5 -0.5t70.5 -1q160 4 240 4q56 0 111 -6q7 0 10.5 -2.5t3.5 -7.5t-1.5 -10t-5 -12t-6 -11.5t-6.5 -10t-4 -6.5q-31 -44 -143 -237 q-15 -25 -113 -181l-73 -116q-12 -18 -52 -80t-60.5 -96.5t-23.5 -47.5q7 0 62 -0.5t90.5 -0.5t89 2.5t92.5 7.5q49 4 148 0q14 -3 14.5 -35.5t-12.5 -40.5q-275 0 -330 2q-70 2 -184 2q-13 0 -20.5 5t-9 15.5t-1.5 19t2 24t2 22.5q6 86 170 301q62 88 88 129 q108 184 148 240q3 5 13 25.5t17 31.5z" />
<glyph unicode="[" horiz-adv-x="266" d="M233 14q-1 -4 -3 -7.5t-5 -5.5t-5.5 -3.5t-7 -2.5t-7.5 -2t-9 -1h-8.5h-9h-8.5h-70q-43 0 -50.5 9t-10.5 56q-6 72 -10 215q-6 146 -9 295q0 45 5 275q0 33 22 43q66 29 164 8q9 -2 19.5 -9t13.5 -14q1 -6 0 -9.5t-4.5 -5t-7 -2.5t-9.5 -1.5t-10 -1.5q-22 -5 -63 -4.5 t-62 -1.5v-361q0 -109 4 -331q0 -58 2 -72q5 -21 13 -24t61 -3q28 0 40.5 -1.5t21 -10t3.5 -27.5z" />
<glyph unicode="\" horiz-adv-x="442" d="M340 39l-10 24q-10 34 -22 71.5t-22 66.5t-26.5 72.5t-24.5 65.5t-28 72l-26 65t-29 71.5t-27 66.5q-28 70 -86 250q-2 6 -6.5 15t-6 13t1.5 10t13 11q24 15 35 -8q2 -3 3 -6t1.5 -6.5t1.5 -5.5q43 -104 121 -312l153 -393q19 -54 39 -121q9 -30 -14 -53q-9 -9 -37 26 q-3 3 -4 5z" />
<glyph unicode="]" horiz-adv-x="264" d="M29 883q1 4 3 7.5t5 5.5t5.5 3.5t7 2.5t7.5 2t9 1h8.5h9h8.5h70q43 0 50.5 -9t10.5 -56q6 -73 10 -215q6 -146 9 -295q0 -91 -4 -275q0 -33 -23 -43q-66 -29 -164 -8q-9 2 -19.5 9t-13.5 14q-1 6 0 9.5t4.5 5t7 2.5t9.5 1.5t10 1.5q22 5 63 4.5t62 1.5v361q0 109 -4 331 q0 58 -2 72q-5 21 -13 24t-61 3q-28 0 -40.5 1.5t-21 10t-3.5 27.5z" />
<glyph unicode="^" horiz-adv-x="403" d="M190 836l-40 -66q-50 -77 -66 -104q-2 -3 -5 -8.5t-5 -8.5t-5.5 -6.5t-7.5 -5.5q-22 -9 -36 2q-5 5 -5 35q0 3 4 9.5t5 8.5q6 9 37 59.5t49 75.5q32 49 72 49.5t75 -45.5l103 -139q32 -43 6 -59q-21 -18 -49 20l-101 140l-12 17q-12 18 -19 26z" />
<glyph unicode="_" horiz-adv-x="432" d="M68 -10q-3 0 -25.5 -0.5t-24.5 4.5q-35 21 2 37q19 8 48 8q42 1 155.5 0t155.5 0q25 0 42.5 -6.5t16.5 -24.5q0 -8 -3 -12t-8.5 -4.5t-12 -1t-13.5 -0.5q-18 -2 -74.5 -2t-140 1t-118.5 1z" />
<glyph unicode="`" horiz-adv-x="284" d="M55 799q-36 29 -12 42q23 14 57 0q10 -4 17 -10l96 -73q24 -16 27 -33q4 -9 1 -20.5t-10 -16.5q-3 -7 -32 -2q-2 0 -17 10q-13 10 -40 31t-48.5 38t-38.5 34z" />
<glyph unicode="a" d="M375 891q53 17 76 -33q28 -63 34 -86q18 -67 62 -154q6 -12 18 -35t21 -42t16 -37q5 -13 16 -38.5t19.5 -47t13.5 -41.5q6 -19 15 -39.5t21.5 -46.5t17.5 -39q12 -25 75 -174q12 -21 21 -45q4 -13 -3 -23t-22 -12q-1 0 -4 1t-4 1q-12 0 -18.5 0.5t-12.5 2.5t-8 3t-5 6.5 t-3.5 8.5t-3 14t-4.5 18q-20 79 -74 185q-28 1 -109.5 0.5t-109.5 1.5q-32 2 -69.5 -0.5t-82.5 -7t-69 -5.5q-4 -7 -15.5 -27t-16.5 -29t-14 -26.5t-14 -29.5t-10 -28.5t-8 -31.5q-2 -11 -12 -37q-6 -20 -13 -22q-3 -2 -6 -2q-2 0 -8.5 -1.5t-9.5 -1.5h-8.5t-9.5 2t-7 5 q-4 5 -4.5 11t0.5 10t4 10.5t4 9.5l146 358q5 16 21.5 65t25.5 75q14 42 39 100q62 150 92 254zM403 776q-78 -190 -94 -235q-8 -24 -26.5 -73t-32 -89.5t-21.5 -75.5q20 -2 150 -8q37 -1 110.5 4.5t102.5 5.5q1 0 1.5 1t2 3t4.5 4l-45 125q-13 29 -42.5 85.5t-41.5 84.5 q-6 17 -13.5 48.5t-13.5 48.5q-3 6 -18.5 31.5t-22.5 39.5z" />
<glyph unicode="b" horiz-adv-x="647" d="M88 881h72q35 -2 102 -2q128 -4 201 -66q27 -23 39 -59q22 -67 16 -136q-4 -34 -35 -90q-9 -15 -31 -37.5t-30 -33.5q25 -17 31 -19q60 -23 94.5 -73t36.5 -115q2 -41 -19 -119q-14 -48 -69 -80q-73 -46 -162 -49q-68 -4 -205 -4q-26 0 -47 20t-21 45q0 6 1 17.5t1 17.5 q-1 17 0.5 62.5t-0.5 62.5q-1 5 5 49q0 4 1 14t1 15q-3 1 -2 61l2 60q0 80 4 119q5 69 10 317q0 3 4 23zM141 381q0 -9 -1 -22t-1 -17q0 -9 -1.5 -24.5t-1.5 -28.5t3 -25q-6 -40 -6 -57t3.5 -59t4.5 -56q0 -5 4.5 -13t4.5 -9q50 -3 127.5 -1t115.5 9q49 7 70 31 q43 45 43 127q0 71 -27 118q-23 45 -67 45l-54 9q-27 0 -39 -2l-100 -15zM145 453q127 10 150 14q43 7 74.5 30.5t46.5 53.5q33 64 26 111q-9 47 -24 98q-4 18 -19 26q-56 38 -118 41q-10 3 -61.5 0.5t-61.5 -2.5l-21 -6q0 -235 2 -352q0 -5 6 -14z" />
<glyph unicode="c" horiz-adv-x="745" d="M698 766q-5 -13 -15 -21.5t-17.5 -11t-24.5 -8.5q-12 8 -14 14q-17 35 -66 64q-123 75 -246 6q-7 -4 -21 -12.5t-23 -13.5t-20 -13.5t-20 -17.5q-22 -19 -40.5 -49.5t-27 -51.5t-22.5 -59q-25 -61 -22 -109q0 -10 -2 -16q-16 -57 8 -168q2 -7 3.5 -22t5 -25.5t11.5 -18.5 q6 -23 22 -45.5t39 -48.5t32 -39q2 -5 16 -10q90 -53 172 -31q6 2 14 2q107 7 205 113l10 12q5 6 15 8.5t16 -1.5q19 -11 19 -27q0 -22 -15 -37q-8 -7 -25.5 -23t-27.5 -25t-25.5 -21t-29.5 -21q-65 -40 -123 -43q-93 -5 -201 24q-21 6 -42 22.5t-30 26t-30 33.5 q-4 5 -16.5 18.5t-21 25t-12.5 24.5t-19 34t-19 34q-14 37 -25 104q-2 7 -2 47q-6 65 14 135q27 95 39 127q7 21 8 23q84 134 174 184q40 22 93 29q74 10 127 -2q3 -1 31.5 -5.5t43.5 -11.5l66 -32q49 -21 61 -70z" />
<glyph unicode="d" horiz-adv-x="747" d="M135 891q11 0 68 3t86 3q34 0 147 -23q79 -19 152 -79q49 -40 71 -109q35 -117 39 -141q18 -131 -12 -217q-24 -76 -61 -146q-22 -39 -52 -63q-3 -2 -18 -15.5t-19 -16.5t-18 -14.5t-20.5 -15.5t-19.5 -13t-22 -13t-21 -10t-24 -9.5t-24 -5.5q-12 -3 -76 -8q-44 -4 -63 0 q-8 2 -30.5 -1.5t-33.5 1.5q-3 1 -6.5 0t-8 -3t-7.5 -3q-26 -4 -66 16q-12 6 -12 31v102q4 24 4 39v121q4 82 4 123q0 125 -2 186q0 60 -0.5 73.5t3.5 72.5t5 73q2 8 11 27zM164 66q2 -2 4.5 -3.5t3.5 -2.5t2 -1q38 -4 108 3t99 6q4 0 8 4q71 22 109 55q44 44 65 78 q55 77 64 162q18 133 -6 219q-4 16 -29 94q-27 71 -109 123q-3 2 -45 14q-15 2 -76 12t-94 13q-13 2 -78 2q-14 -1 -20.5 -8t-9.5 -23q-6 -30 -6 -59q0 -16 2 -50.5t2 -52.5q0 -13 -2.5 -47.5t-1.5 -52.5q0 -153 4 -197q4 -20 2.5 -92t-0.5 -92q0 -37 2 -55q0 -35 2 -49z " />
<glyph unicode="e" horiz-adv-x="612" d="M150 815q-5 -93 -5 -135v-57q0 -27 1 -83t1 -85q5 -20 5 -31h41q55 0 165 4q37 2 107 2q7 0 24 1.5t25 0t12 -7.5q6 -9 5.5 -26.5t-5.5 -22.5q-8 -8 -18 -8q-35 -3 -70.5 -3.5t-83 0.5t-65.5 1q-78 0 -137 -5q-5 -25 -5 -26q-3 -99 7 -176q2 -14 2 -90q19 -21 55 -17 q36 0 106 4l119 4q20 2 64 2l67 -4q12 -6 6 -31.5t-18 -27.5q-20 -2 -59 -2q-10 0 -31 1t-33 1h-39q-25 0 -98 -3t-111 -3q-35 0 -50 5t-42 26q-4 218 -8 331q0 28 -1 83.5t-1 82.5q0 16 1.5 69.5t0.5 82.5t4 176q0 19 5 26t24 11q36 8 53 8q26 -3 113 2q17 0 53 -1t53 -1 q21 0 64 1t65 1q29 0 41 -16l-4 -41q-6 -17 -31 -17q-7 0 -52.5 1.5t-68.5 0.5q-25 -2 -143 -2q-85 0 -110 -6z" />
<glyph unicode="f" horiz-adv-x="636" d="M555 410l8 -41q-20 -17 -51 -17q-10 0 -35 -1t-42.5 -0.5t-33.5 3.5q-37 3 -48 3.5t-46.5 -2.5t-46.5 -3h-43t-53 -4q-9 -8 -5.5 -48t3.5 -46q-3 -20 2 -88q2 -31 -2 -92q0 -10 3.5 -27.5t4.5 -28t-4 -28.5q-10 -3 -29.5 3t-27.5 -1q-7 0 -15 12q0 1 -1 4t-1 4 q3 39 -2 115.5t-2 114.5q3 17 0.5 98t-2.5 98v131q-2 74 -2 219v97q3 1 9.5 2.5t11 2.5t8.5 1h211q12 0 35 3t28 3q28 0 33 -2q19 -5 72 0q56 7 88 -4l16 -43q-8 -8 -12 -8q-55 -11 -92 -13q-206 0 -306 -2h-30q-8 -42 -5.5 -203t11.5 -196q36 -12 59 -10q8 0 35.5 -1t46 0 t35.5 5q4 2 29 2h112q56 0 76 -12z" />
<glyph unicode="g" horiz-adv-x="776" d="M735 721q-24 -18 -43 -37q-2 2 -11.5 7.5t-14.5 10.5q-8 10 -22.5 32t-22.5 32q-70 89 -177 72q-11 -2 -38.5 -9t-43.5 -8q-10 -2 -19.5 -4.5t-20.5 -7.5t-16.5 -7t-18.5 -10.5t-15.5 -10t-17.5 -12.5l-16 -11q-1 -2 -5.5 -5.5t-5.5 -4.5q-64 -82 -98 -179q-4 -16 -4 -24 q-1 -13 -4.5 -41.5t-5 -49.5t-0.5 -40q4 -107 32 -178q17 -45 50 -74q7 -6 28.5 -28t34.5 -32q87 -66 193 -45q18 4 39 11t32.5 11.5t37.5 16.5t32 15q45 21 76 77q10 20 10 41q0 15 -3.5 43t-4.5 39q-71 14 -209 -10q-10 15 -11.5 23.5t1.5 40.5q35 16 108 12q21 0 62 -1 t61 -1q28 -6 29 -6q22 -9 22 -35v-146q0 -40 -35 -67q-65 -62 -135 -96q-55 -30 -121 -33q-61 0 -127 16q-101 21 -163 107q-43 57 -64 108q-4 11 -12.5 30t-14 34.5t-8.5 31.5q-15 71 -12 170q0 17 2 25q24 85 72 182q7 17 45 64q24 33 55 69q41 46 121 60q75 10 174 0 q91 -8 162 -82q40 -40 61 -86z" />
<glyph unicode="h" horiz-adv-x="763" d="M154 416q11 0 33.5 0.5t40.5 0.5t32 -1q22 0 68 -4h24q77 7 133 2h113q4 20 4 22q8 90 8 342q0 45 -6 68q-5 20 -0.5 30t23.5 13h16q25 3 32 -4.5t3 -30.5q0 -5 -2 -15.5t-2 -15.5q0 -176 -2 -264q0 -21 -1 -62t-1 -61l4 -334q0 -7 1 -15t2.5 -17.5t2.5 -14.5 q4 -39 -12 -57q-25 -10 -54 0l-4 27q-9 129 -6 258v61q-98 4 -139 4h-258q-5 0 -53 -6q1 -32 0 -101t0 -98l4 -77v-12.5t0.5 -12t0 -11t-1 -10t-2 -9t-4 -7t-6.5 -4.5t-9.5 -2.5t-12.5 0.5q-9 2 -16 5t-21 5q0 4 -2 13.5t-2 13.5v373q0 14 1 29t2.5 34t2.5 29v35 q-4 17 -1.5 71.5t1.5 73.5v141q0 6 0.5 18.5t0.5 20t3.5 17.5t9.5 18h50q12 -47 4 -125q-6 -40 -6 -78q1 -25 0 -44.5t0.5 -44t5.5 -44.5q-6 -26 -6 -106q0 -9 4 -37z" />
<glyph unicode="i" horiz-adv-x="292" d="M190 6q-5 -6 -11.5 -8.5t-11 -2.5t-13 0.5t-11.5 0.5q-5 5 -16.5 15t-17.5 16v22q8 41 4 125q-11 207 -9 328q0 225 2 266l7 88q2 22 15.5 31t35.5 2q2 -1 16 -10q6 -68 0 -136q-6 -59 -6 -176v-256q-2 -84 16 -305z" />
<glyph unicode="j" horiz-adv-x="552" d="M475 881q0 -6 3 -41t3 -52q0 -25 -1.5 -105.5t-0.5 -123.5t6.5 -122.5t6.5 -98.5q0 -35 -7 -82q-1 -8 -4 -32.5t-4.5 -37t-6.5 -31.5t-11 -34q-22 -53 -64.5 -88.5t-99.5 -38.5q-55 -3 -107 12q-15 4 -26 12q-64 55 -82 76q-9 10 -39 68q4 9 10 17t10 11.5t15 12t14 10.5 q12 -16 14 -20q30 -52 80 -93q46 -39 97 -39q45 -2 76 22.5t40 68.5q19 93 19 149q-2 1 -1 100.5t1 100.5l-8 147q0 13 -1 37t-1 37q0 6 -2.5 32t-0.5 40q2 11 -1 33t-3 30q-3 41 39 35q5 -1 17 -5.5t20 -6.5z" />
<glyph unicode="k" horiz-adv-x="643" d="M301 475q1 -2 4.5 -8t5.5 -8q15 -23 82 -146l107 -170l82 -127l-17 -22q-13 0 -59 4q-1 2 -22 33.5t-31 48.5l-80 131q-10 18 -29 53.5t-29 52.5q-26 48 -67 95q-3 -3 -8 -7.5t-8 -7.5t-5 -6l-41 -51q-28 -28 -28 -74q0 -30 -4 -88v-31l6 -106q0 -11 -2.5 -16.5 t-16.5 -30.5q-6 -6 -23 0t-26 4q0 16 -3.5 43.5t-4.5 42.5t4 43q2 8 2 29l6 284q0 68 -2 101q0 18 -2 52t-2 50q-2 53 -2 158q-4 54 -4 80q8 10 17.5 13t16 2.5t19.5 -3.5t19 -4q4 -16 4 -27q-6 -123 -6 -127q0 -78 4 -117q2 -12 0.5 -40.5t-0.5 -40.5q4 -52 -2 -78 q-8 -26 12 -41q16 16 22 26q15 20 47 61.5t56.5 75t44.5 64.5q24 39 88 123q19 26 84 109q21 25 47 16q7 -2 21 -2.5t18 -1.5q2 -3 3 -6.5t1.5 -5.5t-0.5 -5l-1.5 -4.5t-2 -4.5t-2.5 -3.5t-3.5 -3.5t-2.5 -4q-40 -37 -123 -145l-100 -134q-7 -9 -20 -29.5t-15 -23.5z" />
<glyph unicode="l" horiz-adv-x="509" d="M86 883q7 5 14 7.5t14.5 1t11.5 -2.5t13 -5t11 -5q3 -6 5 -14t2 -13.5t-0.5 -14.5t-0.5 -12l-9 -211q0 -11 3.5 -32.5t3.5 -24.5v-147q0 -24 -0.5 -72t-0.5 -78t1 -71.5t4 -75.5v-37q2 0 10 -3t12 -3l109 -7q3 0 9 2.5t9 2.5h49q46 -9 93 0q3 0 9 1t9 1q13 0 22 -8.5 t11 -22.5v-19q0 -9 -6.5 -15.5t-14.5 -8.5q-27 0 -39 4q-40 7 -67 0q-23 -8 -39 -2q-32 8 -117 4q-22 -1 -29.5 -1t-28 2t-28.5 3q-32 3 -35 35q-2 23 -2 63q-9 138 -6 185q2 18 0.5 67.5t3.5 67.5q-6 34 -6.5 98.5t-1.5 81.5q-2 1 -1 39t1 39q0 12 1 32.5t1 30.5v138z" />
<glyph unicode="m" horiz-adv-x="870" d="M414 451q2 3 11 18t13 23q21 47 86 137q73 117 88 141l72 104q5 8 21 13h57q33 -20 33 -64q0 -12 0.5 -32.5t0.5 -36.5t-1 -31q-7 -116 4 -186v-39q1 -20 1 -105t3 -131q3 -28 4 -60t1 -70.5t1 -59.5q0 -31 -2 -45q-3 -32 -37 -29q-29 3 -29 33q2 44 0.5 144t1.5 144 q1 6 -0.5 18t-1.5 15q0 147 -4 221q-1 34 2 102.5t2 102.5q0 38 -6 51q-2 -1 -9 -4t-9 -6q-1 -1 -25 -31l-186 -301q-25 -41 -43 -86q-19 -54 -70 -51q-14 20 -28 45.5t-23 44.5t-22.5 50.5t-20.5 46.5q-68 148 -119 251q-5 9 -18 26.5t-17 23.5q-12 -32 -12 -109v-53 l8 -215q0 -33 1 -98.5t1 -98.5q1 -25 -2 -114.5t2 -114.5q0 -2 -2.5 -8.5t-3.5 -10.5l-51 7q-10 27 -10 81q-7 133 0 220q6 92 -13 258v39q2 23 7 127v86q0 12 4 40q5 16 88 21q29 3 47 -35q16 -31 44.5 -96t45.5 -96q8 -17 43 -99q12 -33 61 -112q0 -1 1.5 -1.5l4.5 -1.5 t5 -3z" />
<glyph unicode="n" horiz-adv-x="681" d="M137 823q-10 -7 -10 -8q-6 -81 -6 -82q2 -31 2 -92v-88q0 -12 2 -38t2 -40q0 -11 -2 -35t-2 -37q1 -12 2.5 -32.5t2.5 -37t1 -32.5l4 -192q0 -33 2 -39q2 -12 2.5 -14t-2 -14.5t-2.5 -14.5q-3 -12 -15 -18t-24 -1l-8 4l-25 21q1 5 4 22t3 25q0 14 -2.5 42t-2.5 42 q0 10 3.5 38.5t1.5 43.5q-5 56 -5 133q0 56 -1 170t-1 172q0 9 2.5 48t-0.5 48q-5 32 29 53q38 27 74 13q3 -7 16 -30t19 -36q15 -30 39.5 -85.5t33.5 -74.5l54 -116q44 -85 47 -90q35 -66 53 -117l8 -16t8 -19q14 -25 38 -72.5t34 -66.5q4 -8 14.5 -28t18.5 -34q4 11 4 39 v33v35l-12 264q0 24 2.5 87.5t1.5 98.5q-1 19 4.5 94.5t-2.5 94.5q-6 19 14 35l12 6l27 8q21 -9 21 -27q0 -19 -1.5 -56.5t-1.5 -55.5q0 -5 -4 -21q-2 -14 0 -44.5t0 -47.5q-2 -14 -2 -92q0 -15 1 -46t1 -46q0 -39 -4 -113q0 -9 1 -81.5t-5 -80.5q6 -22 0.5 -70.5t3.5 -70.5 q1 -3 -4 -18q-3 -24 -24 -29q-29 -4 -43 16l-11 23q-100 180 -106 192q-79 161 -86 176l-78 168q-10 19 -30 64.5t-33 68.5q-12 23 -58 121z" />
<glyph unicode="o" horiz-adv-x="907" d="M45 440q1 9 1.5 30.5t1.5 36.5t5 30q8 31 35 92q7 15 25.5 47t27.5 51q44 84 142 121q20 8 55 19.5t47 15.5q15 5 43.5 5.5t42.5 4.5q28 6 82 -10q60 -16 70 -21q55 -28 112 -92q66 -73 99 -145q14 -37 26 -115q20 -132 -39 -274q-28 -74 -82 -125q-66 -66 -170 -105 q-8 -4 -24 -8q-112 -16 -160 -12q-22 3 -43 8q-18 4 -23 8q-117 58 -174 119q-1 1 -11.5 12.5t-12 14t-9.5 12.5t-10.5 15t-7.5 14t-7.5 17t-4.5 17q-1 5 -7 14t-7 11l-11 33q0 10 -9 65t-3 84v10zM793 434v39q0 118 -72 205l-10 14q-25 41 -45 66q-9 14 -36.5 28t-31.5 17 q-30 21 -74 24q-11 2 -38 0.5t-37.5 -2.5t-37 -5t-36.5 -5q-65 -11 -119 -65l-37 -37q-56 -53 -80 -107q-7 -16 -14.5 -48t-11.5 -44q-22 -81 6 -211q20 -108 119 -184q45 -36 100 -51q19 -5 42.5 -7.5t40 -3.5t45 -1.5t40.5 -0.5q49 -2 104 33l23 12q59 28 108 109 q52 96 52 225z" />
<glyph unicode="p" horiz-adv-x="542" d="M125 -10q-4 0 -13.5 -1.5t-13.5 -0.5q-19 0 -25.5 6.5t-6.5 25.5v285q0 31 -1.5 95t-1.5 96q-3 116 0 229q0 105 15 160q38 17 78 14q9 -1 19.5 -1t23.5 0.5t20 0.5q103 -4 168 -25q58 -21 82 -73q48 -92 23 -203q-6 -30 -15 -57q-21 -65 -92 -113q-73 -48 -158 -63 q-12 -3 -28 -3q-6 -1 -18 -1t-21.5 -1t-16.5 -4q-1 -3 -3.5 -6t-2.5 -4q1 -18 1.5 -73t2.5 -85q4 -64 -16 -198zM133 426q11 2 64 2q76 0 127 31l34 20q18 10 37 39.5t25 54.5q14 41 5 121t-38 109q-38 38 -70 43q-67 6 -137 6q-25 1 -35 -8.5t-10 -34.5q-2 -18 -2 -59v-324 z" />
<glyph unicode="q" horiz-adv-x="868" d="M684 -176q-31 31 -73.5 98t-59.5 88q-94 -24 -137 -22q-104 7 -178 51q-44 27 -60 55q-5 8 -17.5 23.5t-17.5 23.5q-17 21 -26 41q-21 38 -39 78q-4 7 -13 29q-32 149 -12 256q7 47 27 84q9 15 27.5 50.5t34.5 60.5t34 46q42 49 86 64q101 39 162 33q23 -2 74 2 q87 2 198 -72l11 -8q37 -22 55.5 -57t34.5 -89q26 -89 26 -167q0 -4 2 -12.5t2 -12.5q4 -67 -6 -102q-8 -25 -26 -119q-4 -15 -9 -23q-11 -14 -29 -39.5t-33.5 -47t-31.5 -38.5q-6 -9 -15.5 -18t-16 -14t-21 -15t-19.5 -14q0 -7 3 -10q64 -101 75 -115q3 -4 17.5 -22 t21.5 -29q9 -12 5.5 -23t-17.5 -14q-6 -2 -14 -2q-17 0 -25 2zM580 88q15 5 16 6q9 6 18 15q14 18 27 28q94 87 107 236q2 12 2.5 39.5t3.5 42.5q4 20 4 57q-2 23 -7 49t-13 56.5t-11 48.5l-8 18q-24 48 -86 100q-39 33 -90 45q-23 4 -48 6t-60 2t-48 1q-45 0 -117 -35 q-52 -23 -96 -101q-46 -76 -59 -182q-10 -78 -2 -143q6 -56 22 -96q1 -3 10 -25t15 -33q40 -88 119 -145q27 -18 34 -19q77 -18 154 -18q3 0 51 10q-11 25 -44.5 69.5t-43.5 72.5q5 6 15.5 14.5t13.5 11.5q28 -4 51 -39q57 -78 70 -92z" />
<glyph unicode="r" horiz-adv-x="595" d="M279 377q12 -15 64.5 -83t74 -96.5t59 -81t64.5 -96.5q6 -12 -9 -22q-13 -8 -27.5 -10.5t-23.5 4.5q-8 9 -67 94q-29 40 -131 184q-20 30 -41 54l-12 14q-13 14 -19 18q-14 8 -66 4q-1 -42 -1 -165.5t-5 -188.5q-4 -1 -14 -5t-15 -5.5t-13.5 -0.5t-16.5 7v115 q-2 157 -10 446q-5 23 -6 47.5t0.5 59.5t1.5 49q0 33 18 125q3 11 20 39q93 21 252 -6q73 -10 131 -86q21 -27 25 -64q9 -83 6 -113q-5 -78 -67 -153q-59 -73 -172 -84zM143 438q20 -4 29 -4q67 -9 129.5 12t101.5 62q23 24 35.5 66t14.5 79q6 101 -86 154q-37 20 -99 24 q-9 0 -26.5 2.5t-26.5 2.5q-17 0 -57 -9q-8 -3 -17 -16q-6 -15 -6 -35q-4 -86 -2 -131q0 -26 4.5 -88t3.5 -94q0 -3 1 -12t1 -13z" />
<glyph unicode="s" horiz-adv-x="550" d="M133 109q54 -40 129 -64q30 -9 70.5 2t62.5 33q33 33 45 98q10 39 -28 101q-65 91 -127 131q-115 74 -150 108q-5 5 -15 14.5t-15.5 15t-13 14.5t-13.5 18q-18 26 -23 72.5t9.5 99t48.5 84.5q41 41 116 55q67 11 111 -4q15 -4 32.5 -11.5t30 -13.5t32.5 -16l30 -15 q21 -12 18 -43q0 -6 -4 -18q-2 -8 -3.5 -13t-4 -8t-4 -4t-5.5 0.5t-6.5 3t-9.5 6t-12 7.5q-49 30 -117 63q-23 12 -61 11.5t-59 -13.5q-34 -20 -53 -55.5t-19 -75.5q0 -84 104 -155q18 -12 54 -40t53 -40q81 -57 135 -131q38 -53 35 -115q0 -65 -10 -86q-41 -88 -101 -121 q-70 -38 -143 -24q-72 14 -191 75q-18 9 -20.5 20.5t8.5 30.5q25 45 84 3z" />
<glyph unicode="t" horiz-adv-x="589" d="M340 827q-17 -30 -10 -73q4 -28 4 -43q4 -398 4 -619q0 -17 -2 -49t-2 -47q-14 -14 -39 -10q-11 2 -19 10t-8 18q0 12 1 35t1 35q4 33 2 47q-11 169 -8 299q1 29 0.5 83t0.5 98t5 83q1 29 1 39t-2 39t-3 39q0 4 -4 12q-2 1 -4.5 3.5t-3.5 2.5q-51 0 -96 -2 q-20 0 -56.5 -3.5t-46.5 -4.5q-15 -1 -25 9t-10 24q0 31 25 31q18 2 55 -0.5t54 0.5q11 2 31.5 1.5t31.5 0.5h139q126 4 146 4q33 0 47 -4q9 -1 14.5 -9t3.5 -16q-4 -20 -18 -20q-5 0 -31 -4t-33 0q-6 2 -43 2q-26 -1 -53.5 -5t-48.5 -6z" />
<glyph unicode="u" horiz-adv-x="669" d="M145 874q0 -8 1 -20t1 -16q-5 -19 -2 -85t2 -85l-6 -107q-5 -84 -2 -186q1 -35 17 -174q7 -59 80 -113q14 -10 28 -16q5 -3 14 -8.5t14.5 -9t14 -6.5t15.5 -3q24 -2 90 12q64 15 100 99q14 32 20.5 70.5t7.5 64t1 71.5l6 89q0 8 1 22t1 25t-2 20q-8 49 -4 148 q3 70 -6 141q-3 19 0 39q5 36 55 24q10 -3 10 -16q1 -5 3.5 -14.5t2.5 -13.5t-2 -17q-1 -3 -1 -6.5t0.5 -8.5t0.5 -8v-155q0 -9 -3 -67t1 -66q6 -45 2 -136q0 -22 -2 -64t-2 -62q0 -31 -12 -58q-7 -14 -10 -26q-5 -41 -41 -70q-10 -8 -26 -23.5t-29.5 -27t-28.5 -17.5 q-10 -5 -37 -14q-2 0 -13 -2t-16 -4q-46 -25 -108 0q-61 21 -99 51q-71 50 -92 131q-15 65 -12 135q1 58 -0.5 172.5t-1.5 147.5q0 63 -13 219q-3 29 23 29q34 4 59 -5z" />
<glyph unicode="v" horiz-adv-x="722" d="M14 870q27 14 54 0q14 -9 16 -18q30 -93 57 -166q9 -23 29 -88.5t35 -99.5q22 -49 55 -158q8 -23 22.5 -68t22.5 -67q32 -83 57 -133q11 11 17 20q36 63 74 168q6 17 16 53.5t16 53.5q4 16 14.5 45.5t14.5 42.5q10 29 31.5 96.5t34.5 103.5q47 140 57 183l6 18 q11 20 39 14q10 -2 25 -10q5 -21 -11 -49q-17 -34 -30 -72t-28.5 -89t-23.5 -75q-8 -22 -29.5 -85.5t-35.5 -96.5q-12 -30 -31 -94q-10 -33 -33 -98t-30 -84q-8 -24 -25.5 -69.5t-21.5 -55.5q-34 -2 -84 4q-18 32 -23 43q-9 23 -20 59q-20 82 -72 209q-39 90 -84 230 q-22 73 -102 301q-6 16 -9 32z" />
<glyph unicode="w" horiz-adv-x="1044" d="M14 883q36 11 52 -21q15 -31 22 -78q5 -20 9.5 -57t6.5 -49q14 -69 33 -143q1 -4 12 -49.5t13 -69.5q2 -35 26 -101q32 -102 35 -141q0 -9 7 -30t12 -27q14 -20 14 -45q0 -1 1.5 -2.5t4 -3t4.5 -3.5q29 74 33 91q7 22 31 108t41 131q19 52 50 150.5t36 113.5 q22 73 45 160q6 26 26 33q20 4 37.5 -38t26.5 -97q23 -98 29 -133l22 -111q0 -6 4 -18q38 -161 47 -230q5 -25 16.5 -71.5t14.5 -57.5q3 -18 12 -39q11 16 11 17l88 315q7 27 20 74t23.5 87t17.5 75q5 19 18.5 58t18.5 58t13.5 55.5t13.5 53.5q3 23 24 26q23 5 33 -5t4 -33 q-7 -33 -39 -146q-5 -16 -23 -76.5t-26 -93.5q-8 -26 -22.5 -79.5t-22.5 -80.5q-7 -27 -47 -159q-31 -107 -41 -158q-9 -31 -31 -41q-4 -2 -12 -10q-22 -14 -41 -8t-23 30q-6 29 -20.5 83t-20.5 79q-34 164 -45 201q-8 27 -15 58.5t-15.5 72t-12.5 59.5q-18 73 -39 119 q-8 -4 -8 -6q-10 -63 -63 -211q-24 -57 -41 -117q-7 -25 -24.5 -79t-24.5 -83q-6 -28 -52 -163q-1 -6 -10 -23l-18 -4q-5 -1 -18.5 -4.5t-18 -3t-15.5 5.5q-28 24 -40 55q-51 180 -54 197q-22 103 -24 108q-4 9 -7 29.5t-4 24.5l-43 180l-36 178l-9 39l-6 47q0 7 4 27z" />
<glyph unicode="x" horiz-adv-x="811" d="M20 2q34 53 64 88q112 128 162 197l57 71q12 16 34 48.5t25 37.5l-149 213q-13 19 -65 91.5t-76 113.5q4 8 9.5 10.5t13 2t9.5 -0.5q21 2 35 -5.5t20 -14.5t23 -33q65 -107 121 -178q39 -50 98 -135l11 -21q18 24 56 80.5t56 79.5q16 21 33.5 43.5l38.5 49.5t33 42 q38 55 61 78q22 24 62 21q23 0 36 -13q1 -1 1.5 -2.5t-0.5 -3.5t-2 -3.5t-3 -3.5t-3.5 -3t-3.5 -3l-3 -3q-33 -33 -51 -58l-70 -86l-73 -90q-46 -55 -95 -116q-2 -2 -12 -13.5t-14.5 -20.5t-5.5 -20q13 -23 32 -45q28 -37 82 -104.5t72 -91.5q23 -33 63 -99q31 -44 41 -61 q20 -28 11 -47q-14 -5 -27.5 -4.5t-28.5 -1.5l-47 63l-45 66q-72 106 -76 112l-77 113q-25 35 -41 53q-24 -33 -82 -104t-82 -105q-48 -67 -154 -182q-2 -1 -2.5 -8.5t-7.5 -7.5q-3 0 -22.5 4t-24.5 0q-1 -1 -17 10z" />
<glyph unicode="y" horiz-adv-x="669" d="M264 -6q-2 6 -2 12q2 42 -0.5 121.5t-1.5 114.5l4 59q5 31 -8 70q-17 41 -61 124t-58 115q-12 28 -39 81t-30 59q-47 96 -52 110q-12 23 9 35q42 5 63 -41q9 -21 39.5 -81t44.5 -95q12 -28 47.5 -79.5t46.5 -74.5l41 -67q4 3 49 61q4 6 25 36t28 41.5t22.5 35t26.5 43 t21 39.5q50 85 94 155q51 29 82 -2q3 -31 -20 -51q-14 -15 -35.5 -49t-36.5 -49q-6 -7 -16 -22.5t-15 -20.5q-47 -60 -124 -176l-72 -111q-14 -23 -14 -76q4 -54 8 -166q0 -42 4 -120q0 -24 -21 -29q-2 0 -12 -3t-16 -3q-4 0 -11 2t-10 2z" />
<glyph unicode="z" horiz-adv-x="684" d="M524 807q-25 11 -30 12q-25 2 -93 2q-42 0 -130 -1t-130 -1q-4 0 -16.5 0.5t-18.5 0t-16.5 -1.5t-19 -3.5t-17.5 -7.5q-13 41 -9 56q2 10 9 20q2 0 5.5 2t4.5 2q35 0 104 -1t103 -1q160 4 246 4q56 0 111 -6q4 0 8.5 -4.5t5.5 -4.5q0 -19 -23 -51q-100 -142 -143 -217 q-16 -27 -35.5 -57.5t-42 -66.5t-35.5 -56q-10 -15 -35 -58t-40 -65q-86 -125 -111 -170q-22 -35 -24 -61q17 1 58.5 1.5t72.5 1.5t57 5q16 2 45 -2q40 -5 96 2q49 4 148 0q13 -25 13.5 -39.5t-11.5 -36.5q-275 0 -330 2q-105 4 -143 -2h-21q-27 3 -36.5 12.5t-10.5 36.5 q0 32 7 58.5t13 38t19 30.5q25 35 69.5 114t69.5 112q22 31 86 133q28 51 54 79q15 18 26 44q6 15 15.5 30.5t26.5 38t20 27.5z" />
<glyph unicode="{" horiz-adv-x="344" d="M109 354q57 -32 63 -102q1 -28 1.5 -42.5t-3.5 -42t-7 -41.5t-9 -41.5t-9 -41.5q-13 -71 29 -113q12 -12 47 -2q14 6 22.5 2.5t10.5 -12.5q1 -10 -3.5 -23t-10.5 -16q-31 -14 -69.5 -4t-49.5 31q-22 37 -25 71q-3 30 1 60.5t12.5 72t11.5 58.5q11 53 1.5 81.5t-50.5 55.5 q-23 15 -29.5 51.5t20.5 55.5q21 13 33 28t14.5 34t1.5 34.5t-6 40.5q-5 30 -20 190q-3 66 59 105q74 41 142 6q22 -11 10 -35q-10 -26 -33 -12q-45 27 -96 2q-27 -14 -35 -66q-4 -30 8 -83t13 -62q14 -102 12 -137q-3 -55 -49 -92z" />
<glyph unicode="|" horiz-adv-x="172" d="M43 168l12 475l6 309l5 39q3 12 12 18t20 3q7 -1 16 -9t11 -14q6 -41 6 -78l-8 -190q-6 -164 -6 -324l-4 -379v-28q-3 -20 -12.5 -29.5t-24.5 -7.5q-18 0 -25.5 9t-7.5 30v102v74z" />
<glyph unicode="}" horiz-adv-x="344" d="M236 379q-58 32 -64 102q-1 28 -1.5 42.5t3.5 42t7 41.5t9 41.5t9 41.5q13 71 -29 113q-12 12 -47 2q-14 -6 -22.5 -2.5t-10.5 12.5q-1 10 3.5 23t10.5 16q31 14 69.5 4t49.5 -31q22 -37 25 -71q3 -30 -1 -60.5t-12.5 -72t-11.5 -58.5q-11 -53 -1.5 -81.5t50.5 -55.5 q23 -15 29.5 -51t-20.5 -55q-28 -16 -39.5 -40t-10.5 -44t7 -54q5 -30 20 -190q3 -66 -59 -105q-74 -41 -142 -6q-22 11 -10 35q10 26 33 12q45 -27 96 -2q27 14 35 66q4 30 -8 83t-13 62q-14 102 -12 137q3 56 49 93z" />
<glyph unicode="~" horiz-adv-x="563" d="M385 711q-66 -3 -115 32q-6 3 -14.5 12t-11.5 11q-42 33 -82.5 28.5t-67.5 -49.5q-23 -38 -51 -40q-12 -1 -16.5 6.5t-3 19.5t5 22.5t6.5 16.5q43 78 123 90q65 11 125 -39q22 -17 39 -26q26 -15 45 -15.5t33.5 8.5t41.5 33q8 7 17 20.5t14 18.5q29 26 55 0q5 -4 7 -8 t1 -9.5t-2 -8.5t-5 -10.5t-5 -10.5q-66 -99 -139 -102z" />
<glyph unicode="&#xa1;" horiz-adv-x="184" d="M63 -18q-24 1 -33 12t-7 35q13 144 16 200q8 91 20 283q4 56 9 78q1 6 8 14t10 8q5 -1 7 -3.5t3 -8t2 -8.5q4 -7 5 -15.5t1.5 -20t1.5 -15.5l23 -500v-18q-1 -28 -14 -34.5t-52 -6.5zM27 866q0 25 21.5 44.5t47.5 19.5q25 0 44.5 -25t19.5 -57q-2 -22 -26 -41.5 t-48 -18.5q-25 0 -42.5 23.5t-16.5 54.5z" />
<glyph unicode="&#xa2;" horiz-adv-x="475" d="M276 512q23 -13 67 -31.5t60 -27.5q42 -37 13 -66q-21 -14 -66 21l-16 12q-17 12 -29.5 17.5t-25.5 6.5v-374q51 -6 92 30q3 2 12.5 12.5t15.5 12.5q4 3 9.5 3.5t13 -0.5t10.5 -1q0 -2 1 -11t0.5 -15t-3.5 -9q-31 -27 -92 -72q-5 -3 -23 -7.5t-26 -8.5v-49 q0 -15 -7.5 -25t-19.5 -10q-3 0 -5.5 1t-4 1.5t-4 3.5t-3.5 4t-3.5 5.5t-3.5 5.5q-3 4 -4.5 20t-1.5 29l-1 14q-3 4 -13 7.5t-33.5 11t-41.5 14.5q-76 28 -94 131q-8 44 -8 102q0 136 141 215q22 10 31 21.5t8 32.5q0 14 2 18q2 2 7 9t9.5 10.5t8.5 3.5q9 0 22 -21 q3 -9 3.5 -26t2.5 -21zM223 76l-4 368q-24 -5 -53 -34q-96 -102 -47 -246q25 -73 104 -88z" />
<glyph unicode="&#xa3;" horiz-adv-x="659" d="M252 287q-5 -26 -43 -103.5t-51 -113.5q32 -9 39 -9q23 0 78 -2t85 -2.5t75.5 1.5t84.5 8q8 2 53 2q32 0 35 -27q3 -35 -28 -41q-10 -4 -35 -4q-63 0 -188.5 -1t-188.5 -1q-65 0 -81.5 21t3.5 83q6 21 16 43.5t23.5 49.5t20.5 42l20 54l-92 4l-35 4q-15 5 -19 16.5 t5 26.5q3 5 6 8.5t8 5.5t7.5 3.5t9.5 2t9 0.5h10.5h10.5q10 0 30 -1t30 -1q23 0 29.5 9.5t-1.5 29.5q-25 66 -61 150q-31 67 -31 123q0 95 51 161t139 91q89 24 181.5 -10t138.5 -91q16 -20 18 -31q4 -20 -6 -30q-11 -11 -30 -2q-38 19 -54 37q-55 63 -166 67 q-29 0 -42.5 -0.5t-36 -6t-39.5 -17.5q-52 -33 -73 -88.5t-3 -116.5q13 -45 43 -123q30 -75 43 -115q10 -35 35 -35q90 0 125 -2q37 0 53 -6q1 0 4.5 -1.5t4 -2t3 -2.5t3 -4t1 -6t0.5 -10q0 -16 -10 -23.5t-22 -8.5t-39 -1q-66 0 -156 -4z" />
<glyph unicode="&#xa4;" horiz-adv-x="436" d="M365 860q29 -28 30 -40.5t-24 -37.5q-14 -9 -29 -32q-5 -7 -5.5 -15t1.5 -14.5t5.5 -15t4.5 -13.5q15 -47 -12 -119q30 -25 45 -43q12 -8 8 -20q0 -17 -10 -27q-2 -2 -10.5 1.5t-12.5 7.5l-53 38q-15 10 -27 2q-46 -27 -116 -6q-3 1 -11 3.5t-12 3t-10 -0.5 q-18 -9 -45 -32q-2 -2 -14 -19q-48 28 -9 64q17 15 18.5 28t-9.5 31q-36 62 6 129q11 20 13 26.5t-1 11.5t-18 15q-14 9 -21 25q-11 21 -2 27q5 5 14 7t15 -1q7 -4 14.5 -10.5t15.5 -14.5t13 -12q15 -10 20 -8q61 22 146 -11q18 -6 28 9q6 10 14.5 20.5t22 24t17.5 18.5z M303 670q0 37 -30 64t-72 26q-46 0 -70.5 -26.5t-26.5 -76.5q0 -37 29 -56.5t78 -22.5q41 -2 68.5 23t23.5 69z" />
<glyph unicode="&#xa5;" horiz-adv-x="733" d="M258 360q-34 4 -49 13q-35 21 2 37q19 8 47 8h45q-64 114 -98 162q-14 20 -30.5 41.5t-37 47.5t-31.5 40q-10 11 -47 69q-9 14 -41 72q-6 9 -2 18.5t15 12.5l24 4q20 7 31 -11l68 -102l22 -31q7 -12 94 -143q14 -20 38.5 -68t37.5 -69q16 -29 33 -37q22 11 49 59 q12 22 77 136t97 174q34 70 53 94q15 3 34 1.5t32 -14.5l-10 -22q-4 -7 -12.5 -17.5t-14 -20.5t-8.5 -21q-2 -8 -25 -48q-63 -97 -84 -139q-15 -29 -33.5 -58t-42.5 -63.5t-36 -52.5l-6 -12q7 0 23 1t24 1q23 0 41.5 -8.5t17.5 -26.5q0 -8 -3.5 -12t-8.5 -4.5t-11.5 -1 t-13.5 -0.5l-94 -7q-4 -11 -5 -23t-1.5 -29.5t-1.5 -24.5q44 0 69 2q59 3 62 -29q1 -5 -1 -8t-7.5 -5t-10.5 -2.5t-16 -1t-18 -1.5q-20 -2 -64 -2h-14q2 -22 -0.5 -63.5t-1.5 -59.5q4 -66 4 -99q0 -21 -5.5 -29.5t-25.5 -11.5q-18 -3 -25 3t-12 26q-2 6 -2 21q-4 86 -4 131 q0 9 0.5 25t0.5 28.5t-1 23.5q-82 -4 -121 -4q-36 0 -39 17q-3 30 37 37h15q19 0 54 1t52 1q0 17 -4 57l-4 18h-76z" />
<glyph unicode="&#xa6;" horiz-adv-x="143" d="M102 743q-4 -36 -12 -49q-21 -35 -37 2q-8 19 -8 47l-4 209q0 23 8.5 42t26.5 18q8 0 12 -3t4.5 -8.5t1 -12t0.5 -13.5q8 -82 8 -232zM102 27q-5 -37 -12 -50q-21 -34 -37 3q-8 19 -8 47l-4 209q0 23 8.5 41.5t26.5 17.5q8 0 12 -3.5t4.5 -8.5t1 -11.5t0.5 -13.5 q8 -82 8 -231z" />
<glyph unicode="&#xa7;" horiz-adv-x="503" d="M178 653q-7 6 -36 29t-45.5 38.5t-30.5 33.5q-26 37 -37.5 68.5t-4.5 68.5t37 74q62 75 181 57q75 -13 139 -47q11 -5 23.5 -14t19.5 -15t21.5 -20.5t19.5 -18.5q8 -11 8 -33q1 -12 -8.5 -17t-20.5 3q-1 1 -59 53q-97 87 -233 58q-34 -7 -56.5 -43.5t-19.5 -77.5 q2 -26 15 -49t25.5 -35t37.5 -33q18 -16 40 -31.5t49 -33.5t42 -29q65 -39 67 -41q73 -55 107 -137q16 -35 3.5 -90t-50.5 -72q-8 -4 -23.5 -15.5t-23.5 -15.5l-54 -24l13 -17q10 -11 30.5 -31.5t33 -33.5t28.5 -32t28 -36q68 -107 13 -198q-14 -26 -74 -70 q-11 -7 -33.5 -15.5t-25.5 -9.5q-60 -27 -150 6q-60 23 -111 46q-26 13 -20 43q9 28 31 10q84 -62 180 -62q107 3 162 74q14 18 18 54t-8 55q-57 101 -117 147q-16 13 -66.5 60t-82.5 67q-17 11 -33 27t-25.5 28t-25 34t-23.5 32q-20 27 -15.5 67.5t28.5 65.5q14 15 86 82 q5 5 16 11zM418 410q-24 56 -31 67q-8 13 -19 25.5t-26.5 28l-22.5 22.5q-23 23 -40 35q-29 21 -50 30q-10 7 -26 -4q-8 -5 -23.5 -18t-23.5 -18q-46 -29 -53.5 -85t30.5 -94q41 -39 117 -100q6 -5 17.5 -7t19.5 1q12 3 25 7.5t28.5 11.5t24.5 10q21 8 37 32.5t16 55.5z" />
<glyph unicode="&#xa8;" horiz-adv-x="462" d="M442 797q0 -31 -20 -50.5t-51 -19.5t-50.5 17.5t-19.5 46.5q-1 30 19.5 53.5t48.5 25.5q25 2 49 -22.5t24 -50.5zM160 795q0 -29 -20 -50.5t-46 -21.5q-28 0 -50.5 25t-20.5 53q1 23 25.5 42t51.5 19q22 -2 41 -23t19 -44z" />
<glyph unicode="&#xa9;" horiz-adv-x="827" d="M528 8q-93 -24 -137 -22q-105 7 -176 51q-42 26 -61 55q-1 2 -35 47q-11 14 -27 41q-21 38 -39 78q-8 21 -10 29q-35 145 -14 256q12 60 26 84q11 18 29 51t34 59t34 47q44 51 86 70q63 31 111 39.5t114 3.5q105 -8 209 -80l12 -8q9 -5 17 -11.5t15 -15.5t12 -14.5 t10.5 -18t8.5 -17t8.5 -19.5t6.5 -17.5t6.5 -20t5.5 -18.5q27 -93 27 -168q0 -8 4 -24q4 -63 -8 -103q-17 -65 -27 -118q-4 -18 -8 -23q-9 -12 -41 -57t-51 -68q-9 -11 -20 -21t-28.5 -22.5t-23.5 -17.5q0 -2 -29 -13t-41 -14zM573 92q15 10 19 14l29 29q93 86 106 236 q1 9 1 25.5t1 30.5t4 26q5 27 2 57q-1 19 -4.5 40.5t-6.5 36t-9.5 40.5t-9.5 37q0 4 -9 18q-23 52 -84 106q-40 34 -90 46q-158 30 -274 -27q-20 -9 -39.5 -29t-29.5 -35t-27 -43q-45 -80 -58 -182q-11 -86 -4 -143q6 -52 23 -96q6 -10 14 -31.5t10 -26.5q45 -92 121 -145 q21 -17 35 -19q73 -18 153 -18l50 10q16 4 44 21t33 22zM233 444q4 105 78 166q28 24 65 33t81 -3.5t78 -51.5q7 -6 10 -17q1 -1 3.5 -7t3.5 -8.5t2 -7.5t1 -8t-2 -7t-6 -7q-3 -2 -5.5 -3t-5 -1h-5t-5.5 1.5t-4.5 2t-4.5 3t-4.5 3.5t-4.5 4t-4 3q-52 48 -101 41 q-51 -6 -81 -48.5t-23 -97.5q3 -23 10 -53q11 -42 40 -64.5t65.5 -18.5t68.5 34q6 5 16.5 18.5t16.5 18.5q15 15 29 8q11 -3 16 -27q3 -9 -6 -22q-38 -66 -108 -87.5t-132 19.5q-47 35 -64.5 71.5t-17.5 112.5z" />
<glyph unicode="&#xab;" horiz-adv-x="471" d="M279 700q-122 -162 -142 -192q-17 -25 -22 -36t-2 -25.5t18 -34.5q18 -26 59 -72t58 -72q12 -16 12 -28q1 -12 -6 -17.5t-18.5 -1.5t-22.5 17q-6 7 -64.5 73t-85.5 101q-12 16 -11.5 34t7 32.5t21.5 37.5q6 10 22 34.5t23.5 35.5t21.5 31.5t25 33t26 28.5t31 30 q16 15 42 6q15 -5 8 -15zM430 231q-6 -2 -16.5 -10t-16.5 -8q-5 1 -9.5 4.5t-9.5 10t-7 8.5q-12 13 -51.5 54t-68 75t-48.5 67q-16 30 2 51q39 57 151 211q10 17 33 21q16 8 23 -2q4 -4 4.5 -14.5t-2.5 -16.5q-13 -21 -68 -94q-9 -13 -37 -48.5t-39 -56.5q-18 -28 2 -55 q16 -21 57.5 -70.5t59.5 -74.5q3 -5 18.5 -22t22.5 -30z" />
<glyph unicode="&#xad;" horiz-adv-x="466" d="M113 401q-35 4 -50 13q-34 21 3 37q19 8 47 8l209 4q23 0 41.5 -8.5t17.5 -26.5q0 -8 -3.5 -12t-8.5 -4.5t-11.5 -1t-13.5 -0.5q-92 -9 -231 -9z" />
<glyph unicode="&#xae;" horiz-adv-x="827" d="M528 8q-93 -24 -137 -22q-105 7 -176 51q-42 26 -61 55q-1 2 -35 47q-11 14 -27 41q-21 38 -39 78q-8 21 -10 29q-35 145 -14 256q12 60 26 84q11 18 29 51t34 59t34 47q44 51 86 70q63 31 111 39.5t114 3.5q105 -8 209 -80l12 -8q9 -5 17 -11.5t15 -15.5t12 -14.5 t10.5 -18t8.5 -17t8.5 -19.5t6.5 -17.5t6.5 -20t5.5 -18.5q27 -93 27 -168q0 -8 4 -24q4 -63 -8 -103q-17 -65 -27 -118q-4 -18 -8 -23q-9 -12 -41 -57t-51 -68q-9 -11 -20 -21t-28.5 -22.5t-23.5 -17.5q0 -2 -29 -13t-41 -14zM573 92q15 10 19 14l29 29q93 86 106 236 q1 9 1 25.5t1 30.5t4 26q5 27 2 57q-1 19 -4.5 40.5t-6.5 36t-9.5 40.5t-9.5 37q0 4 -9 18q-23 52 -84 106q-40 34 -90 46q-158 30 -274 -27q-20 -9 -39.5 -29t-29.5 -35t-27 -43q-45 -80 -58 -182q-11 -86 -4 -143q6 -52 23 -96q6 -10 14 -31.5t10 -26.5q45 -92 121 -145 q21 -17 35 -19q73 -18 153 -18l50 10q16 4 44 21t33 22zM334 385q0 -59 -2 -88q0 -35 -21 -41q-12 -3 -27 9.5t-18 27.5q-4 53 -2 80q7 106 17 174q6 57 41 83.5t94 18.5q46 -7 71 -16q33 -9 52 -38.5t17.5 -65t-24.5 -60.5q-9 -9 -32 -27.5t-35 -29.5l47 -76l18 -23 q19 -36 -6 -51q-12 -8 -27.5 -4.5t-25.5 16.5q-6 9 -17 28.5t-16 27.5l-10 20q-20 38 -32.5 42.5t-61.5 -7.5zM332 446q37 4 39 5q46 11 51 14q33 21 49 39q12 15 9.5 38.5t-19.5 30.5q-57 21 -88 11q-39 -12 -39 -49q-2 -29 -2 -89z" />
<glyph unicode="&#xaf;" horiz-adv-x="417" d="M106 729q-36 4 -49 12q-35 21 2 37q19 8 47 8l209 5q23 0 42 -8.5t18 -26.5q0 -8 -4 -12.5t-7.5 -5t-12.5 -1t-13 -0.5q-82 -8 -232 -8z" />
<glyph unicode="&#xb1;" horiz-adv-x="434" d="M233 309v-94q4 -19 -2 -41t-22 -22q-20 2 -23 32q-3 18 0 61.5t0 63.5q-67 0 -90 2q-3 0 -18.5 -1t-26 -0.5t-14.5 3.5q-17 9 -17 23q0 13 7.5 16.5t31.5 3.5q9 0 28 -1t28 -1q52 0 75 2q0 9 -2 39t-2.5 47t1 38t6.5 32q8 21 20 23q11 1 16 -7t7 -22q2 -17 -1 -43.5 t-2 -40.5q1 -10 1 -21t-0.5 -17t0 -10.5t2 -6.5t4.5 -2q9 0 57 -2.5t57 -2.5q4 -1 14 -1.5t17 -1.5t12 -5q2 -2 7.5 -4.5t7.5 -4.5t2 -7q0 -12 -5.5 -18.5t-17 -8t-22 -1.5t-28.5 1.5t-28 1.5q-9 -1 -38 -1t-42 -1zM113 49q-37 5 -50 12q-34 21 3 37q19 8 47 8l209 5 q23 0 41.5 -8.5t17.5 -26.5q0 -8 -4 -12.5t-7.5 -5t-12.5 -1t-13 -0.5q-82 -8 -231 -8z" />
<glyph unicode="&#xb2;" horiz-adv-x="309" d="M109 537q90 0 133 2q13 0 19.5 -9t4.5 -20q-8 -24 -33 -21q-20 1 -122 -4h-31q-26 0 -34 10t1 33q8 23 43 58q3 3 17 17.5t18.5 19.5t15.5 17.5t16 20t12.5 19.5t11.5 23.5t7 23.5q7 18 1 38.5t-23 29.5q-16 8 -31 0q-8 -3 -21.5 -12.5t-21.5 -12.5t-19.5 -3.5t-13.5 3.5 q-22 30 0 49q66 53 142 33q5 -1 20 -21q26 -26 28 -75.5t-20 -79.5q-27 -42 -53 -72q-8 -10 -18 -20t-24.5 -23.5t-24.5 -23.5z" />
<glyph unicode="&#xb3;" horiz-adv-x="288" d="M63 764q0 26 8.5 37.5t30.5 17.5q8 3 19 10q54 26 100 -14q15 -14 20.5 -39.5t-1.5 -48.5q-2 -2 -2 -6q1 -10 -14 -26t-7 -31q2 -3 12.5 -24.5t14.5 -33.5q10 -41 -16.5 -77t-69.5 -44q-17 -1 -26 -1.5t-24 5.5t-22 10t-21 12.5t-22 12.5q-1 2 -1 10t1 11q1 1 4.5 6 t5.5 7t7.5 4t11.5 -3q22 -14 53 -24q39 -13 65 28q6 12 4 36.5t-12 33.5q-9 5 -41 10q-31 7 -41 29q-7 22 17 26q10 2 30 2t37.5 20t14.5 40q-2 15 -17.5 23.5t-34.5 4.5z" />
<glyph unicode="&#xb4;" horiz-adv-x="284" d="M195 836q37 28 45 0q6 -26 -16 -55q-6 -8 -13 -13l-96 -76q-20 -16 -39 -16q-9 -1 -19.5 4.5t-13.5 11.5q-5 5 6 33q1 3 3 5t5.5 4.5t5.5 4.5q11 8 58.5 44t73.5 53z" />
<glyph unicode="&#xb5;" horiz-adv-x="669" d="M150 -117q-5 -6 -11.5 -8.5t-11 -2.5t-13.5 0.5t-12 0.5q-5 5 -16.5 15t-17.5 16v22q8 41 4 125q-11 207 -9 328q0 205 3 266l6 88v8l-9 109q-3 29 23 29q34 4 59 -5q0 -8 1 -20t1 -16q-5 -19 -2 -85t2 -85l-6 -107q-5 -84 -2 -186q1 -35 17 -174q7 -59 80 -113 q14 -10 28 -16q5 -3 14 -8.5t14.5 -9t14 -6.5t15.5 -3q24 -2 90 12q64 15 100 99q14 32 20.5 70.5t7.5 64t1 71.5l6 89q0 8 1 22t1 25t-2 20q-8 49 -4 148q3 70 -6 141q-3 19 0 39q5 36 55 24q10 -3 10 -16q1 -5 3.5 -14.5t2.5 -13.5t-2 -17q-1 -3 -1 -6.5t0.5 -8.5t0.5 -8 v-155q0 -9 -3 -67t1 -66q6 -45 2 -136q0 -22 -2 -64t-2 -62q0 -31 -12 -58q-7 -14 -10 -26q-5 -41 -41 -70q-10 -8 -26 -23.5t-29.5 -27t-28.5 -17.5q-10 -5 -37 -14q-2 0 -13 -2t-16 -4q-46 -25 -108 0q-61 21 -99 51q-27 18 -49 43q2 -35 17 -205z" />
<glyph unicode="&#xb6;" horiz-adv-x="0" d="M463 831v-202v-115q0 -26 -1 -80t-1 -80q0 -128 2 -194v-117q0 -7 -14 -35q-2 -2 -7.5 -2.5t-7.5 0.5q-30 30 -26 57q8 58 8 91q0 2 6 292q0 8 -6 56q-80 -12 -156 24q-38 15 -67 41q-24 21 -33 65t3 90.5t42 70.5q78 59 196 69l152 15q7 1 31.5 -0.5t31.5 2.5 q18 5 51.5 -2.5t49.5 -4.5l65 5q21 2 25 -23q3 -11 -4 -17t-17 -6q-52 -10 -96 -10q-15 -2 -20 -7.5t-4 -18.5q8 -192 8 -287q1 -45 -4 -275q-6 -200 -6 -202q0 -6 -6 -14.5t-11 -10.5q-10 -2 -29 12q-4 4 -4 21q0 45 4 131v238q5 230 5 276q0 20 -5 123q0 18 -20 18 q-50 -4 -76 -2q-12 0 -33.5 4t-25.5 4z" />
<glyph unicode="&#xb8;" horiz-adv-x="319" d="M51 -227q2 -1 13 -5t16 -8q47 -35 92 -22q23 6 39.5 23t15.5 34q-1 23 -21.5 41.5t-45.5 20.5h-41q-22 0 -30 11.5t-1 31.5q4 11 18.5 48t22.5 56q11 22 27 33q5 3 15 1t13 -7q7 -19 4 -39q-5 -16 -17 -43t-15 -33q0 -6 -2 -10q31 -3 49 -8q41 -8 59 -50q26 -56 4 -106 q-19 -42 -56 -59.5t-79 -4.5q-38 11 -59 23q-46 22 -21 72z" />
<glyph unicode="&#xb9;" horiz-adv-x="225" d="M113 795l-27 -23q-24 -24 -39 -6q-2 3 -3.5 5.5t-1.5 5v4.5t1.5 4.5t2 4t3 4.5t3.5 4l4 4l3 3q8 10 18 20t23 22.5t19 18.5q19 19 35 13q30 -13 28 -33q-1 -11 -4.5 -46.5t-3.5 -54.5q-1 -31 4 -194q0 -19 -10 -27t-35 -8q-26 0 -22 33q6 65 6 129q2 33 2 96q0 2 -2.5 9 t-3.5 12z" />
<glyph unicode="&#xba;" horiz-adv-x="313" d="M41 631q24 103 31 127q15 45 88 53q70 8 100 -74q5 -12 8 -23.5t3 -25.5v-22.5t-2.5 -24.5t-3.5 -21.5t-5.5 -24.5t-5.5 -22q-9 -33 -39 -51t-68 -18q-41 0 -65 24q-11 11 -24.5 46t-16.5 57zM229 678q-9 34 -14 47q-14 27 -41 33.5t-41 -6.5q-37 -23 -44 -83t24 -91 q37 -37 61 -11q55 59 55 111z" />
<glyph unicode="&#xbb;" horiz-adv-x="471" d="M188 233q114 152 142 193q17 25 22 36t2 25.5t-18 34.5q-18 26 -59 72.5t-58 71.5q-12 16 -12 28q-1 12 6 17.5t18.5 1.5t22.5 -17q16 -18 47 -53t56.5 -65t45.5 -56q12 -16 12 -34t-6.5 -32.5t-21.5 -37.5q-6 -10 -22 -34.5t-23.5 -35.5t-21.5 -31.5t-25 -33t-26 -28.5 t-31 -30q-16 -15 -42 -7q-15 5 -8 15zM37 702q6 3 17 11t16 8q5 -1 9.5 -4.5t9.5 -10t7 -8.5q12 -13 51.5 -54t68 -75t48.5 -67q16 -30 -2 -51q-39 -57 -151 -211q-10 -17 -33 -21q-16 -8 -23 2q-4 4 -4.5 14.5t2.5 16.5q13 21 68 94q9 13 37 48.5t39 56.5q18 28 -2 55 q-16 21 -57.5 70.5t-59.5 74.5q-3 6 -18.5 22t-22.5 29z" />
<glyph unicode="&#xbc;" horiz-adv-x="698" d="M537 88q-86 4 -123 4h-15q-23 3 -27.5 10t3.5 29q1 3 24 37l129 147q11 15 23 21q19 11 31 8q10 -3 10 -27q1 -24 1 -50.5t-0.5 -59.5t-0.5 -51q3 0 11.5 1t12.5 1h12.5t11 -1.5t11 -6t4.5 -11.5q5 -15 -4 -26.5t-26 -12.5q-3 -1 -12.5 -1.5t-12.5 -2.5q-14 -7 -14 -20 q0 -15 8 -43q2 -13 -3.5 -22.5t-17.5 -10.5q-9 -3 -22 -1.5t-14 5.5q-5 23 -5 57q0 2 5 27zM608 903q8 -11 9 -22t-1 -16.5t-9.5 -17t-8.5 -13.5q-13 -22 -39.5 -61.5t-34.5 -51.5q-10 -16 -27.5 -47.5t-23.5 -42.5q-10 -19 -30 -54t-29 -51q-10 -18 -29 -54.5t-29 -55.5 q-124 -202 -127 -207q-32 -55 -51 -92q-47 -82 -59 -107q-3 -6 -7 -9.5t-9.5 -5.5t-9.5 -3t-11.5 -1.5t-9.5 -0.5q-10 0 -12.5 8t3.5 18q63 95 80 125q15 25 40.5 71t35.5 64q16 26 47 77.5t47 78.5l93 160q69 127 114 203q27 50 60 94q3 4 28 14zM113 795l-27 -23 q-24 -24 -39 -6q-2 3 -3.5 5.5t-1.5 5v4.5t1.5 4.5t2 4t3 4.5t3.5 4l4 4l3 3q8 10 18 20t23 22.5t19 18.5q19 19 35 13q30 -13 28 -33q-1 -11 -4.5 -46.5t-3.5 -54.5q-1 -31 4 -194q0 -19 -10 -27t-35 -8q-26 0 -22 33q6 65 6 129q2 33 2 96q0 2 -2.5 9t-3.5 12zM446 152 l84 -7q4 0 9.5 6t5.5 9v108z" />
<glyph unicode="&#xbd;" horiz-adv-x="659" d="M608 903q8 -11 9 -22t-1 -16.5t-9.5 -17t-8.5 -13.5q-13 -22 -39.5 -61.5t-34.5 -51.5q-10 -16 -27.5 -47.5t-23.5 -42.5q-10 -19 -30 -54t-29 -51q-10 -18 -29 -54.5t-29 -55.5q-124 -202 -127 -207q-32 -55 -51 -92q-47 -82 -59 -107q-3 -6 -7 -9.5t-9.5 -5.5t-9.5 -3 t-11.5 -1.5t-9.5 -0.5q-10 0 -12.5 8t3.5 18q63 95 80 125q15 25 40.5 71t35.5 64q16 26 47 77.5t47 78.5l93 160q69 127 114 203q27 50 60 94q3 4 28 14zM455 45q90 0 133 2q13 0 19.5 -9t4.5 -20q-7 -22 -32 -20q-20 1 -123 -4h-31q-26 0 -34 10t1 33q7 21 43 57 q3 3 17 17.5t18.5 19.5t16 18t16 20.5t12 19.5t12 23.5t7.5 23.5q6 19 0 38.5t-23 28.5q-16 8 -31 0q-8 -3 -21.5 -12t-21.5 -12t-19 -3.5t-13 3.5q-22 30 0 49q65 52 141 32q6 -2 20 -20q26 -26 28 -76t-20 -80q-24 -38 -53 -71q-8 -10 -18 -20.5t-25 -24.5t-24 -23z M113 795l-27 -23q-24 -24 -39 -6q-2 3 -3.5 5.5t-1.5 5v4.5t1.5 4.5t2 4t3 4.5t3.5 4l4 4l3 3q8 10 18 20t23 22.5t19 18.5q19 19 35 13q30 -13 28 -33q-1 -11 -4.5 -46.5t-3.5 -54.5q-1 -31 4 -194q0 -19 -10 -27t-35 -8q-26 0 -22 33q6 65 6 129q2 33 2 96q0 2 -2.5 9 t-3.5 12z" />
<glyph unicode="&#xbe;" horiz-adv-x="720" d="M559 88q-86 4 -123 4h-14q-23 3 -27.5 10t2.5 29q4 8 14.5 22t10.5 15l129 147q12 16 22 21q19 11 31 8q10 -3 10 -27q1 -24 1 -50.5t-0.5 -59.5t-0.5 -51q3 0 12 1t13 1h12.5t11 -1.5t11 -6t4.5 -11.5q4 -15 -5 -26t-26 -13q-3 -1 -12 -1.5t-12 -2.5q-15 -8 -15 -20 q0 -15 8 -43q4 -30 -20 -33q-9 -3 -22.5 -1.5t-14.5 5.5q-4 18 -4 57q0 7 4 27zM631 903q8 -11 9 -22t-1 -16.5t-9.5 -17t-8.5 -13.5q-13 -22 -39.5 -61.5t-34.5 -51.5q-10 -16 -27.5 -47.5t-23.5 -42.5q-10 -19 -30.5 -53.5t-29.5 -51.5q-10 -19 -28.5 -55t-28.5 -55 q-124 -202 -127 -207q-32 -55 -51 -92q-53 -94 -60 -107q-3 -6 -7 -9.5t-9.5 -5.5t-9.5 -3t-11.5 -1.5t-9.5 -0.5q-10 0 -12 8t4 18q63 95 80 125q15 25 40.5 71t35.5 64q15 26 46.5 77.5t47.5 78.5l92 160q58 106 115 203q30 55 59 94q3 4 7.5 6t12 4.5t9.5 3.5zM63 797 q0 26 8.5 37.5t30.5 17.5q8 3 19 10q54 26 100 -14q15 -14 20.5 -39.5t-1.5 -48.5q-2 -2 -2 -6q1 -9 -14 -26t-7 -32q2 -4 12.5 -24.5t14.5 -32.5q10 -41 -16.5 -77t-69.5 -44q-17 -1 -26 -1.5t-24 5.5t-22 10t-21 12.5t-22 12.5q-1 1 -1 9.5t1 11.5q1 1 4.5 6t5.5 7t7.5 4 t11.5 -3q25 -16 53 -25q39 -12 65 29q6 12 4 36.5t-12 33.5q-9 5 -41 10q-31 7 -41 29q-7 23 17 26q10 2 30 2t37.5 20t14.5 40q-2 15 -17.5 23.5t-34.5 4.5zM469 152l84 -7q4 0 9 6t5 9v108z" />
<glyph unicode="&#xbf;" horiz-adv-x="499" d="M104 16q-41 24 -63.5 85.5t-11.5 109.5q16 68 73 119q11 10 50 43t59 53q45 48 49 143q0 26 6 47q9 17 27 21q6 0 12.5 -6.5t9.5 -14.5q13 -20 13 -41q0 -80 -47 -146t-140 -150q-72 -66 -32 -164q16 -39 67.5 -61t99.5 -17q43 4 79.5 34t54.5 72l6 15q12 21 21.5 27 t23.5 -1q14 -9 19.5 -30t-3.5 -35q-87 -142 -215 -142q-95 0 -158 39zM236 860q0 23 15 37t38 12q21 0 40 -19.5t21 -41.5q0 -22 -18.5 -38t-44.5 -15q-22 0 -36.5 18.5t-14.5 46.5z" />
<glyph unicode="&#xc0;" d="M375 893q55 18 74 -25q23 -52 34 -94q14 -53 64 -151q47 -97 55 -117q5 -12 16.5 -39t19.5 -48.5t13 -41.5q6 -19 15 -39.5t21.5 -46.5t17.5 -39q12 -25 75 -174q12 -21 21 -45q10 -30 -17 -33q-49 -5 -65 43q-48 132 -80 195q-28 1 -109.5 0.5t-109.5 1.5 q-56 1 -73.5 0.5t-74.5 -4.5t-73 -5q-24 -43 -62 -149q-2 -6 -7.5 -19.5t-11.5 -27.5t-7 -17q-6 -20 -13 -22q-3 -2 -6 -2q-2 0 -8.5 -1.5t-10 -1.5h-9t-10 2t-7.5 5q-4 5 -4.5 11t0.5 10t4 10.5t4 9.5l146 358q6 19 22 68t25 74q14 42 39 100q62 150 92 254zM403 778 q-78 -190 -94 -235q-7 -21 -26 -73t-32.5 -93t-21.5 -76q19 -4 77 -1.5t75 1.5q30 -1 66 -1t79.5 0.5t65.5 0.5q8 0 8 8q-7 19 -22.5 65t-22.5 64q-12 29 -40 87.5t-40 86.5l-35 93zM356 1135q-36 29 -12 42q23 14 57 0q10 -4 17 -10l96 -73q24 -16 27 -33q4 -9 0.5 -20.5 t-9.5 -16.5q-3 -7 -32 -2q-2 0 -17 10q-13 10 -40 31t-48.5 38t-38.5 34z" />
<glyph unicode="&#xc1;" d="M375 893q55 18 74 -25q23 -52 34 -94q14 -53 64 -151q47 -97 55 -117q5 -12 16.5 -39t19.5 -48.5t13 -41.5q6 -19 15 -39.5t21.5 -46.5t17.5 -39q12 -25 75 -174q12 -21 21 -45q10 -30 -17 -33q-49 -5 -65 43q-48 132 -80 195q-28 1 -109.5 0.5t-109.5 1.5 q-56 1 -73.5 0.5t-74.5 -4.5t-73 -5q-24 -43 -62 -149q-2 -6 -7.5 -19.5t-11.5 -27.5t-7 -17q-6 -20 -13 -22q-3 -2 -6 -2q-2 0 -8.5 -1.5t-10 -1.5h-9t-10 2t-7.5 5q-4 5 -4.5 11t0.5 10t4 10.5t4 9.5l146 358q6 19 22 68t25 74q14 42 39 100q62 150 92 254zM403 778 q-78 -190 -94 -235q-7 -21 -26 -73t-32.5 -93t-21.5 -76q19 -4 77 -1.5t75 1.5q30 -1 66 -1t79.5 0.5t65.5 0.5q8 0 8 8q-7 19 -22.5 65t-22.5 64q-12 29 -40 87.5t-40 86.5l-35 93zM469 1184q37 28 45 0q6 -26 -16 -55q-6 -8 -13 -13l-96 -76q-20 -16 -39 -16 q-9 -1 -19.5 4.5t-13.5 11.5q-4 4 7 33q1 3 3 5t5.5 4.5t5.5 4.5q13 9 59 44.5t72 52.5z" />
<glyph unicode="&#xc2;" d="M375 893q55 18 74 -25q23 -52 34 -94q14 -53 64 -151q47 -97 55 -117q5 -12 16.5 -39t19.5 -48.5t13 -41.5q6 -19 15 -39.5t21.5 -46.5t17.5 -39q12 -25 75 -174q12 -21 21 -45q10 -30 -17 -33q-49 -5 -65 43q-48 132 -80 195q-28 1 -109.5 0.5t-109.5 1.5 q-56 1 -73.5 0.5t-74.5 -4.5t-73 -5q-24 -43 -62 -149q-2 -6 -7.5 -19.5t-11.5 -27.5t-7 -17q-6 -20 -13 -22q-3 -2 -6 -2q-2 0 -8.5 -1.5t-10 -1.5h-9t-10 2t-7.5 5q-4 5 -4.5 11t0.5 10t4 10.5t4 9.5l146 358q6 19 22 68t25 74q14 42 39 100q62 150 92 254zM403 778 q-78 -190 -94 -235q-7 -21 -26 -73t-32.5 -93t-21.5 -76q19 -4 77 -1.5t75 1.5q30 -1 66 -1t79.5 0.5t65.5 0.5q8 0 8 8q-7 19 -22.5 65t-22.5 64q-12 29 -40 87.5t-40 86.5l-35 93zM410 1221l-41 -66q-50 -77 -66 -104q-2 -3 -5 -8.5t-4.5 -8.5t-5 -6.5t-7.5 -5.5 q-22 -9 -37 2q-4 4 -4 35q0 3 3.5 9.5t4.5 8.5q6 9 37 59.5t49 75.5q32 49 72 50t75 -45l103 -140q32 -43 6 -59q-21 -18 -49 20l-101 140q-1 1 -12 18t-18 25z" />
<glyph unicode="&#xc3;" d="M375 893q55 18 74 -25q23 -52 34 -94q14 -53 64 -151q47 -97 55 -117q5 -12 16.5 -39t19.5 -48.5t13 -41.5q6 -19 15 -39.5t21.5 -46.5t17.5 -39q12 -25 75 -174q12 -21 21 -45q10 -30 -17 -33q-49 -5 -65 43q-48 132 -80 195q-28 1 -109.5 0.5t-109.5 1.5 q-56 1 -73.5 0.5t-74.5 -4.5t-73 -5q-24 -43 -62 -149q-2 -6 -7.5 -19.5t-11.5 -27.5t-7 -17q-6 -20 -13 -22q-3 -2 -6 -2q-2 0 -8.5 -1.5t-10 -1.5h-9t-10 2t-7.5 5q-4 5 -4.5 11t0.5 10t4 10.5t4 9.5l146 358q6 19 22 68t25 74q14 42 39 100q62 150 92 254zM403 778 q-78 -190 -94 -235q-7 -21 -26 -73t-32.5 -93t-21.5 -76q19 -4 77 -1.5t75 1.5q30 -1 66 -1t79.5 0.5t65.5 0.5q8 0 8 8q-7 19 -22.5 65t-22.5 64q-12 29 -40 87.5t-40 86.5l-35 93zM528 1018q-52 -2 -118 45q-6 3 -15.5 11.5t-11.5 10.5q-42 33 -81 27t-66 -51 q-2 -3 -6 -10.5t-6.5 -11t-7 -9.5t-8.5 -9t-10 -6t-12 -3q-12 -1 -16.5 6.5t-3 19.5t5 22.5t6.5 16.5q43 78 123 90q65 11 125 -39q38 -31 41 -32q42 -21 66 -15.5t61 39.5q8 6 17 20t14 19q29 26 47 8q5 -4 7 -8t1 -9.5t-2 -8.5t-5 -10.5t-5 -10.5q-66 -99 -140 -102z" />
<glyph unicode="&#xc4;" d="M375 893q55 18 74 -25q23 -52 34 -94q14 -53 64 -151q47 -97 55 -117q5 -12 16.5 -39t19.5 -48.5t13 -41.5q6 -19 15 -39.5t21.5 -46.5t17.5 -39q12 -25 75 -174q12 -21 21 -45q10 -30 -17 -33q-49 -5 -65 43q-48 132 -80 195q-28 1 -109.5 0.5t-109.5 1.5 q-56 1 -73.5 0.5t-74.5 -4.5t-73 -5q-24 -43 -62 -149q-2 -6 -7.5 -19.5t-11.5 -27.5t-7 -17q-6 -20 -13 -22q-3 -2 -6 -2q-2 0 -8.5 -1.5t-10 -1.5h-9t-10 2t-7.5 5q-4 5 -4.5 11t0.5 10t4 10.5t4 9.5l146 358q6 19 22 68t25 74q14 42 39 100q62 150 92 254zM403 778 q-78 -190 -94 -235q-7 -21 -26 -73t-32.5 -93t-21.5 -76q19 -4 77 -1.5t75 1.5q30 -1 66 -1t79.5 0.5t65.5 0.5q8 0 8 8q-7 19 -22.5 65t-22.5 64q-12 29 -40 87.5t-40 86.5l-35 93zM623 1098q0 -31 -20.5 -50.5t-51.5 -19.5t-50.5 17.5t-19.5 46.5q-1 30 19.5 53.5 t48.5 25.5q25 2 49.5 -22.5t24.5 -50.5zM340 1096q0 -29 -20 -50.5t-46 -21.5q-28 0 -50.5 25t-20.5 53q1 23 26 42t52 19q22 -2 40.5 -23t18.5 -44z" />
<glyph unicode="&#xc5;" d="M375 893q55 18 74 -25q23 -52 34 -94q14 -53 64 -151q47 -97 55 -117q5 -12 16.5 -39t19.5 -48.5t13 -41.5q6 -19 15 -39.5t21.5 -46.5t17.5 -39q12 -25 75 -174q12 -21 21 -45q10 -30 -17 -33q-49 -5 -65 43q-48 132 -80 195q-28 1 -109.5 0.5t-109.5 1.5 q-56 1 -73.5 0.5t-74.5 -4.5t-73 -5q-24 -43 -62 -149q-2 -6 -7.5 -19.5t-11.5 -27.5t-7 -17q-6 -20 -13 -22q-3 -2 -6 -2q-2 0 -8.5 -1.5t-10 -1.5h-9t-10 2t-7.5 5q-4 5 -4.5 11t0.5 10t4 10.5t4 9.5l146 358q6 19 22 68t25 74q14 42 39 100q62 150 92 254zM403 778 q-78 -190 -94 -235q-7 -21 -26 -73t-32.5 -93t-21.5 -76q19 -4 77 -1.5t75 1.5q30 -1 66 -1t79.5 0.5t65.5 0.5q8 0 8 8q-7 19 -22.5 65t-22.5 64q-12 29 -40 87.5t-40 86.5l-35 93zM276 1157q-3 61 42.5 105.5t107.5 44.5q133 0 139 -150q1 -53 -48 -98t-105 -45 q-61 1 -98.5 41t-37.5 102zM336 1169q-3 -38 21 -68.5t61 -29.5q36 2 62 26t26 62q0 37 -25 61.5t-59 26.5q-33 2 -58 -20.5t-28 -57.5z" />
<glyph unicode="&#xc6;" horiz-adv-x="1165" d="M698 813q-4 -74 -4 -135v-57q0 -27 1 -113t1 -115q4 -16 4 -31h41q28 0 166 5q37 2 107 2q7 0 19.5 1t19 1t13 -2t9.5 -7q6 -9 5.5 -26.5t-5.5 -22.5q-8 -8 -18 -8q-35 -3 -70.5 -3.5t-83 0.5t-65.5 1q-91 0 -138 -4q-4 -20 -4 -27q-2 -57 6 -116q3 -22 3 -90 q19 -21 55 -17q36 0 106 4l119 4q20 2 64 2l67 -4q12 -6 6 -31.5t-18 -27.5q-20 -2 -60 -2q-10 0 -30.5 1t-32.5 1h-39q-25 0 -98 -3t-111 -3q-35 0 -50 4.5t-42 25.5l-6 279h-170q-40 0 -109 -6.5t-86 -7.5q-114 -153 -143 -232q-4 -13 -18 -37q-9 -22 -23 -24 q-2 0 -8.5 -1.5t-9.5 -1.5h-8t-8.5 2t-6.5 5q-3 5 -3 11t2 10t6 11t5 9l203 358q11 21 34 68.5t36 71.5q17 38 55 100q83 149 102 190q29 65 74 60q30 -5 115 0q16 2 45 2q43 0 117 4h102q22 0 65 1t64 1q29 0 41 -16l-4 -41q-6 -17 -31 -17q-7 0 -52.5 1.5t-68.5 0.5 q-24 -2 -143 -2q-86 0 -111 -6zM475 352q4 0 31.5 1.5t65 3.5t61.5 3q0 26 -1 79t-1 79q0 16 1.5 69.5t0.5 82.5q-2 45 2 135q-68 4 -84 2q-23 -6 -158 -268q-13 -26 -44 -80.5t-50 -98.5q20 -2 150 -8h26z" />
<glyph unicode="&#xc7;" horiz-adv-x="813" d="M301 -227q2 -1 13 -5t16 -8q47 -35 92 -22q23 6 39.5 23t15.5 34q-1 23 -21.5 41.5t-45.5 20.5h-41q-22 0 -30 11.5t-1 31.5l35 92q-51 5 -109 35q-5 2 -31 22q-13 11 -42 41t-48 43q-7 3 -10 10q-16 37 -53 109q-20 42 -27 104l-12 111q9 64 8 74q-3 18 1 36.5t12.5 42 t11.5 33.5q1 5 6 15.5t6 15.5q11 61 61 102q91 74 127 91q57 29 121 38q94 14 219 -34q44 -15 107 -78q3 -3 14 -25q13 -22 -6 -35q-15 -19 -35 -8q-17 7 -30 17q-41 27 -56 39q-32 28 -90 45q-88 32 -147 2q-46 -2 -97 -43q-1 -1 -43 -31q-37 -29 -51 -66q-10 -22 -33 -53 q-17 -22 -24 -63q-20 -125 2 -228q13 -69 59 -149q21 -35 41 -55q116 -113 256 -89q84 14 146 76l84 74q25 20 49 2q9 -6 11 -17.5t-5 -19.5q-11 -11 -34.5 -41t-39.5 -43q-38 -29 -53 -37q-83 -42 -154 -61q-24 -6 -49 -6q-4 -13 -15 -36t-15 -36q0 -4 -3 -10q32 -4 50 -8 q41 -8 59 -50q26 -56 4 -106q-19 -42 -56 -59.5t-79 -4.5q-38 11 -59 23q-46 22 -21 72z" />
<glyph unicode="&#xc8;" horiz-adv-x="608" d="M135 813q-14 -114 -8 -233l6 -131q0 -5 4 -17q83 -4 125 -2.5t124.5 7.5t123.5 7q19 -31 16 -69q-50 -10 -61 -10q-50 0 -285 -5q-7 0 -20.5 -1t-20.5 -1q-9 -17 -5 -73.5t3 -71.5q-1 -31 -0.5 -47t3 -47t3.5 -47q14 -9 15 -9q150 -7 268 9q18 2 106 2q31 -3 31 -27 q3 -37 -28 -43q-20 -4 -62 -4l-197 -4q-17 0 -45 -4q-2 0 -7 -1t-7 -1q-46 8 -111 4q-23 0 -30 29v24q-4 230 -4 348v113l-9 307v62q15 15 36 17.5t36 -1.5q122 -7 211 -2q13 1 27 1t32 -0.5t29 -0.5q36 0 43 2q13 4 36 2.5t36 1.5q7 1 12.5 -4.5t5.5 -13.5q-4 -28 -4 -43 q-15 -15 -39 -11q-46 8 -170 4q-5 -1 -16 0t-16 0q-104 -4 -156 -8q-7 0 -31 -8zM238 1139q-36 29 -12 43q23 13 57 -2q9 -3 16 -9l96 -73q24 -16 27 -33q4 -9 1 -20.5t-9 -16.5q-3 -7 -33 -2q-1 0 -16 10q-13 10 -40 31t-48.5 38t-38.5 34z" />
<glyph unicode="&#xc9;" horiz-adv-x="608" d="M135 813q-14 -114 -8 -233l6 -131q0 -5 4 -17q83 -4 125 -2.5t124.5 7.5t123.5 7q19 -31 16 -69q-50 -10 -61 -10q-50 0 -285 -5q-7 0 -20.5 -1t-20.5 -1q-9 -17 -5 -73.5t3 -71.5q-1 -31 -0.5 -47t3 -47t3.5 -47q14 -9 15 -9q150 -7 268 9q18 2 106 2q31 -3 31 -27 q3 -37 -28 -43q-20 -4 -62 -4l-197 -4q-17 0 -45 -4q-2 0 -7 -1t-7 -1q-46 8 -111 4q-23 0 -30 29v24q-4 230 -4 348v113l-9 307v62q15 15 36 17.5t36 -1.5q122 -7 211 -2q13 1 27 1t32 -0.5t29 -0.5q36 0 43 2q13 4 36 2.5t36 1.5q7 1 12.5 -4.5t5.5 -13.5q-4 -28 -4 -43 q-15 -15 -39 -11q-46 8 -170 4q-5 -1 -16 0t-16 0q-104 -4 -156 -8q-7 0 -31 -8zM352 1184q37 28 45 0q7 -26 -15 -55q-6 -8 -13 -13l-97 -76q-20 -16 -39 -16q-9 -1 -19 4.5t-13 11.5q-5 5 6 33q1 3 3 5t5.5 4.5t5.5 4.5q13 9 59 44.5t72 52.5z" />
<glyph unicode="&#xca;" horiz-adv-x="608" d="M135 813q-14 -114 -8 -233l6 -131q0 -5 4 -17q83 -4 125 -2.5t124.5 7.5t123.5 7q19 -31 16 -69q-50 -10 -61 -10q-50 0 -285 -5q-7 0 -20.5 -1t-20.5 -1q-9 -17 -5 -73.5t3 -71.5q-1 -31 -0.5 -47t3 -47t3.5 -47q14 -9 15 -9q150 -7 268 9q18 2 106 2q31 -3 31 -27 q3 -37 -28 -43q-20 -4 -62 -4l-197 -4q-17 0 -45 -4q-2 0 -7 -1t-7 -1q-46 8 -111 4q-23 0 -30 29v24q-4 230 -4 348v113l-9 307v62q15 15 36 17.5t36 -1.5q122 -7 211 -2q13 1 27 1t32 -0.5t29 -0.5q36 0 43 2q13 4 36 2.5t36 1.5q7 1 12.5 -4.5t5.5 -13.5q-4 -28 -4 -43 q-15 -15 -39 -11q-46 8 -170 4q-5 -1 -16 0t-16 0q-104 -4 -156 -8q-7 0 -31 -8zM291 1217l-41 -66q-50 -77 -66 -104q-2 -3 -5 -8.5t-4.5 -8.5t-5 -6.5t-7.5 -5.5q-22 -9 -37 2q-4 4 -4 35q0 3 3.5 9.5t4.5 8.5q6 9 37 59.5t49 75.5q32 49 72 49.5t75 -45.5l103 -139 q32 -43 6 -59q-21 -18 -49 20l-100 140l-12 18q-12 17 -19 25z" />
<glyph unicode="&#xcb;" horiz-adv-x="608" d="M135 813q-14 -114 -8 -233l6 -131q0 -5 4 -17q83 -4 125 -2.5t124.5 7.5t123.5 7q19 -31 16 -69q-50 -10 -61 -10q-50 0 -285 -5q-7 0 -20.5 -1t-20.5 -1q-9 -17 -5 -73.5t3 -71.5q-1 -31 -0.5 -47t3 -47t3.5 -47q14 -9 15 -9q150 -7 268 9q18 2 106 2q31 -3 31 -27 q3 -37 -28 -43q-20 -4 -62 -4l-197 -4q-17 0 -45 -4q-2 0 -7 -1t-7 -1q-46 8 -111 4q-23 0 -30 29v24q-4 230 -4 348v113l-9 307v62q15 15 36 17.5t36 -1.5q122 -7 211 -2q13 1 27 1t32 -0.5t29 -0.5q36 0 43 2q13 4 36 2.5t36 1.5q7 1 12.5 -4.5t5.5 -13.5q-4 -28 -4 -43 q-15 -15 -39 -11q-46 8 -170 4q-5 -1 -16 0t-16 0q-104 -4 -156 -8q-7 0 -31 -8zM514 1094q0 -31 -20.5 -50.5t-51.5 -19.5t-50 17t-19 46q-1 31 19 54.5t48 25.5q25 2 49.5 -22.5t24.5 -50.5zM231 1092q0 -29 -19.5 -50.5t-45.5 -21.5q-28 0 -51 25t-21 53q1 23 26 42 t52 19q22 -2 40.5 -23t18.5 -44z" />
<glyph unicode="&#xcc;" horiz-adv-x="284" d="M178 27q0 -29 -35 -29q-4 0 -10 -0.5t-8.5 -0.5t-7 2t-8.5 7q-5 15 -4 36.5t3 66t1 65.5q-8 152 -5 328q0 224 2 266l5 88q2 22 15.5 31t35.5 2q2 -1 16 -10q6 -68 0 -136q-6 -59 -6 -176v-256q-1 -55 2.5 -148t3.5 -136zM76 1139q-36 29 -12 43q23 13 57 -2q9 -3 16 -9 l96 -73q24 -16 27 -33q4 -9 1 -20.5t-9 -16.5q-3 -7 -33 -2q-1 0 -16 10q-13 10 -40 31t-48.5 38t-38.5 34z" />
<glyph unicode="&#xcd;" horiz-adv-x="284" d="M178 27q0 -29 -35 -29q-4 0 -10 -0.5t-8.5 -0.5t-7 2t-8.5 7q-5 15 -4 36.5t3 66t1 65.5q-8 152 -5 328q0 224 2 266l5 88q2 22 15.5 31t35.5 2q2 -1 16 -10q6 -68 0 -136q-6 -59 -6 -176v-256q-1 -55 2.5 -148t3.5 -136zM190 1184q37 28 45 0q7 -26 -15 -55 q-6 -8 -13 -13l-96 -76q-20 -16 -39 -16q-9 -1 -19.5 4.5t-13.5 11.5q-5 5 6 33q1 3 3 5t5.5 4.5t5.5 4.5q13 9 59 44.5t72 52.5z" />
<glyph unicode="&#xce;" horiz-adv-x="284" d="M178 27q0 -29 -35 -29q-4 0 -10 -0.5t-8.5 -0.5t-7 2t-8.5 7q-5 15 -4 36.5t3 66t1 65.5q-8 152 -5 328q0 224 2 266l5 88q2 22 15.5 31t35.5 2q2 -1 16 -10q6 -68 0 -136q-6 -59 -6 -176v-256q-1 -55 2.5 -148t3.5 -136zM131 1225l-41 -66q-43 -65 -65 -104 q-2 -3 -5 -8.5t-5 -8.5t-5.5 -6.5t-7.5 -5.5q-22 -9 -37 2q-4 4 -4 35q0 3 3.5 9.5t4.5 8.5q7 11 37.5 61t48.5 75q32 49 72.5 49.5t75.5 -45.5l102 -140q32 -43 6 -59q-21 -18 -49 20l-100 140l-12 18q-12 17 -19 25z" />
<glyph unicode="&#xcf;" horiz-adv-x="284" d="M178 27q0 -29 -35 -29q-4 0 -10 -0.5t-8.5 -0.5t-7 2t-8.5 7q-5 15 -4 36.5t3 66t1 65.5q-8 152 -5 328q0 224 2 266l5 88q2 22 15.5 31t35.5 2q2 -1 16 -10q6 -68 0 -136q-6 -59 -6 -176v-256q-1 -55 2.5 -148t3.5 -136zM354 1081q0 -31 -20 -50t-51 -19t-50.5 17 t-19.5 46q-1 30 19.5 54t48.5 26q25 1 49 -23.5t24 -50.5zM72 1079q0 -29 -20 -50t-46 -21q-28 0 -51 24.5t-21 52.5q1 23 26 42.5t52 19.5q22 -2 41 -23.5t19 -44.5z" />
<glyph unicode="&#xd0;" horiz-adv-x="749" d="M8 401q-34 4 -49 13q-35 21 2 37q19 8 47 8q13 0 34 1t30 1q0 100 -2 149q0 60 -0.5 73.5t3.5 72.5t5 73q2 12 10 27q20 31 27 35q13 5 42 6.5t80.5 0.5t55.5 -1q34 0 147 -23q79 -19 152 -79q50 -41 72 -109q33 -110 38 -141q14 -103 -12 -217q-12 -55 -61 -146 q-29 -51 -51 -69q-35 -30 -57.5 -47t-58 -35t-71.5 -25q-12 -3 -76 -8h-63q-88 0 -111 -6q-25 -4 -65 16q-13 6 -13 31v102q5 30 5 39v121l4 100h-64zM143 66l11 -7q56 -2 76.5 -2t81 5t73.5 6q4 0 8 4q71 22 109 55q44 44 65 78q55 77 64 162q18 133 -6 219q-4 16 -29 94 q-21 52 -63.5 88t-90.5 49q-53 15 -168 27q-12 2 -31 2t-42 -1t-31 -1q-15 -1 -21.5 -8t-9.5 -23q-6 -30 -6 -59q0 -16 2 -50.5t2 -52.5q0 -13 -2.5 -47.5t-1.5 -52.5v-90q51 0 84 2q23 0 41.5 -8.5t17.5 -26.5q0 -8 -3 -12t-8 -4.5t-11.5 -1t-13.5 -0.5l-107 -7l4 -49 q4 -20 2.5 -92t-0.5 -92q0 -37 2 -55q0 -35 2 -49z" />
<glyph unicode="&#xd1;" horiz-adv-x="722" d="M137 823h-12q-2 -27 -2 -90v-92v-88q0 -12 2 -38t2 -40q0 -11 -2 -35t-2 -37q1 -12 2.5 -32.5t2.5 -37t1 -32.5l4 -192q0 -6 1 -19.5t1 -19.5q0 -42 -2 -56q-1 -3 -2 -5t-2.5 -3.5t-4 -2.5t-4 -2t-5 -1h-5h-6h-6.5q-22 0 -28 18q-4 9 -4 62q0 18 2 57t2.5 60t-2.5 49 q-5 56 -5 133q0 56 -1 170t-1 172q0 17 1 51t1 45q0 35 29 53q18 13 40.5 18.5t33.5 -5.5q27 -29 54.5 -73t40.5 -70t40 -83q56 -124 109 -206q5 -9 15.5 -27.5t16.5 -30t14 -28.5t13 -31q1 -4 7.5 -16t8.5 -19q14 -25 38 -72.5t34 -66.5q4 -8 14.5 -28t18.5 -34q4 11 4 39 v33v35q-8 176 -10 264q0 20 1.5 85t0.5 101t1.5 108.5t2.5 90.5q0 22 35 31q25 6 31 3t6 -22q0 -28 -2.5 -71.5t-2.5 -61.5q0 -13 -1 -41.5t-1 -50.5q0 -14 -1 -45t-1 -47q0 -15 1 -46t1 -46q0 -74 -2 -111q-1 -20 -1 -44.5t0.5 -59t0.5 -56.5q0 -24 -1 -71t-1 -74 q0 -6 -4 -18q-3 -24 -24 -29q-34 -4 -48 16l-10 23q-80 144 -104 192q-11 23 -43 83t-47 93q-14 27 -46.5 84t-45.5 84q-4 8 -30.5 59.5t-41.5 76.5q-7 14 -33 54t-37 64zM469 1018q-53 -2 -119 45q-6 3 -14.5 11.5t-11.5 10.5q-42 33 -81.5 27t-66.5 -51q-2 -3 -7 -12.5 t-8 -13.5t-8.5 -10.5t-11.5 -9t-14 -3.5q-12 -1 -16.5 6.5t-3 19.5t5 22.5t6.5 16.5q43 78 123 90q65 11 125 -39q38 -31 41 -32q42 -21 66 -15.5t61 39.5q8 6 16.5 20t13.5 19q29 26 47 8q5 -4 7 -8t1 -9.5t-2 -8.5t-5 -10.5t-5 -10.5q-66 -99 -139 -102z" />
<glyph unicode="&#xd2;" horiz-adv-x="888" d="M412 -14q-105 7 -176 51q-44 27 -62 55q-1 2 -35 47q-8 10 -26 41q-21 38 -39 78q-10 26 -11 29q-35 145 -14 256q12 57 27 84q4 7 38 68t58 89q44 51 86 70q63 31 111 39.5t114 3.5q59 -4 122 -26.5t108 -53.5l12 -8q9 -5 17 -11.5t15 -15.5t12 -14.5t10.5 -18t8.5 -17 t8.5 -19.5t6.5 -17.5t6.5 -20t5.5 -18.5q27 -93 27 -168q0 -8 4 -24q4 -63 -8 -103q-17 -65 -27 -118q-3 -15 -11 -31t-21 -34t-21 -28.5t-26 -30.5t-21 -24q-47 -54 -135 -83.5t-164 -26.5zM662 135q102 94 114 234q1 9 1 25.5t1 30.5t4 26q3 15 -2 59q-1 24 -6.5 49.5 t-15 57t-13.5 47.5q0 6 -8 18q-23 52 -84 106q-32 27 -110 46q-159 30 -275 -27q-20 -9 -39.5 -29t-29.5 -35t-27 -43q-44 -78 -57 -182q-11 -86 -4 -143q6 -56 22 -96q6 -11 14.5 -33t10.5 -25q45 -92 121 -145q21 -17 34 -19q73 -18 154 -18l49 10q58 13 146 86zM379 1139 q-36 29 -12 43q23 13 57 -2q9 -3 16 -9l97 -73q22 -15 26 -33q4 -9 1 -20.5t-9 -16.5q-3 -7 -33 -2q-1 0 -16 10q-13 10 -40 31t-48.5 38t-38.5 34z" />
<glyph unicode="&#xd3;" horiz-adv-x="888" d="M412 -14q-105 7 -176 51q-44 27 -62 55q-1 2 -35 47q-8 10 -26 41q-21 38 -39 78q-10 26 -11 29q-35 145 -14 256q12 57 27 84q4 7 38 68t58 89q44 51 86 70q63 31 111 39.5t114 3.5q59 -4 122 -26.5t108 -53.5l12 -8q9 -5 17 -11.5t15 -15.5t12 -14.5t10.5 -18t8.5 -17 t8.5 -19.5t6.5 -17.5t6.5 -20t5.5 -18.5q27 -93 27 -168q0 -8 4 -24q4 -63 -8 -103q-17 -65 -27 -118q-3 -15 -11 -31t-21 -34t-21 -28.5t-26 -30.5t-21 -24q-47 -54 -135 -83.5t-164 -26.5zM662 135q102 94 114 234q1 9 1 25.5t1 30.5t4 26q3 15 -2 59q-1 24 -6.5 49.5 t-15 57t-13.5 47.5q0 6 -8 18q-23 52 -84 106q-32 27 -110 46q-159 30 -275 -27q-20 -9 -39.5 -29t-29.5 -35t-27 -43q-44 -78 -57 -182q-11 -86 -4 -143q6 -56 22 -96q6 -11 14.5 -33t10.5 -25q45 -92 121 -145q21 -17 34 -19q73 -18 154 -18l49 10q58 13 146 86zM492 1178 q37 28 45 0q6 -26 -16 -55q-6 -8 -13 -13l-96 -76q-20 -16 -39 -16q-9 -1 -19.5 4.5t-13.5 11.5q-5 5 6 33q1 3 3 5t5.5 4.5t5.5 4.5q11 8 58.5 44t73.5 53z" />
<glyph unicode="&#xd4;" horiz-adv-x="888" d="M412 -14q-105 7 -176 51q-44 27 -62 55q-1 2 -35 47q-8 10 -26 41q-21 38 -39 78q-10 26 -11 29q-35 145 -14 256q12 57 27 84q4 7 38 68t58 89q44 51 86 70q63 31 111 39.5t114 3.5q59 -4 122 -26.5t108 -53.5l12 -8q9 -5 17 -11.5t15 -15.5t12 -14.5t10.5 -18t8.5 -17 t8.5 -19.5t6.5 -17.5t6.5 -20t5.5 -18.5q27 -93 27 -168q0 -8 4 -24q4 -63 -8 -103q-17 -65 -27 -118q-3 -15 -11 -31t-21 -34t-21 -28.5t-26 -30.5t-21 -24q-47 -54 -135 -83.5t-164 -26.5zM662 135q102 94 114 234q1 9 1 25.5t1 30.5t4 26q3 15 -2 59q-1 24 -6.5 49.5 t-15 57t-13.5 47.5q0 6 -8 18q-23 52 -84 106q-32 27 -110 46q-159 30 -275 -27q-20 -9 -39.5 -29t-29.5 -35t-27 -43q-44 -78 -57 -182q-11 -86 -4 -143q6 -56 22 -96q6 -11 14.5 -33t10.5 -25q45 -92 121 -145q21 -17 34 -19q73 -18 154 -18l49 10q58 13 146 86zM432 1223 l-41 -66q-43 -65 -65 -104q-2 -3 -5 -8.5t-5 -8.5t-5.5 -6.5t-7.5 -5.5q-22 -9 -37 2q-4 4 -4 35q0 3 3.5 9.5t4.5 8.5q6 9 37 59.5t49 75.5q32 49 72.5 50t75.5 -45l102 -140q32 -43 6 -59q-21 -18 -49 20l-100 140l-12 18q-12 17 -19 25z" />
<glyph unicode="&#xd5;" horiz-adv-x="888" d="M412 -14q-105 7 -176 51q-44 27 -62 55q-1 2 -35 47q-8 10 -26 41q-21 38 -39 78q-10 26 -11 29q-35 145 -14 256q12 57 27 84q4 7 38 68t58 89q44 51 86 70q63 31 111 39.5t114 3.5q59 -4 122 -26.5t108 -53.5l12 -8q9 -5 17 -11.5t15 -15.5t12 -14.5t10.5 -18t8.5 -17 t8.5 -19.5t6.5 -17.5t6.5 -20t5.5 -18.5q27 -93 27 -168q0 -8 4 -24q4 -63 -8 -103q-17 -65 -27 -118q-3 -15 -11 -31t-21 -34t-21 -28.5t-26 -30.5t-21 -24q-47 -54 -135 -83.5t-164 -26.5zM662 135q102 94 114 234q1 9 1 25.5t1 30.5t4 26q3 15 -2 59q-1 24 -6.5 49.5 t-15 57t-13.5 47.5q0 6 -8 18q-23 52 -84 106q-32 27 -110 46q-159 30 -275 -27q-20 -9 -39.5 -29t-29.5 -35t-27 -43q-44 -78 -57 -182q-11 -86 -4 -143q6 -56 22 -96q6 -11 14.5 -33t10.5 -25q45 -92 121 -145q21 -17 34 -19q73 -18 154 -18l49 10q58 13 146 86zM551 1028 q-53 -2 -119 45q-6 3 -14.5 12t-11.5 11q-42 33 -81.5 26.5t-66.5 -51.5q-2 -3 -7 -12.5t-8 -13.5t-8.5 -10.5t-11.5 -9t-14 -3.5q-12 -1 -16.5 6.5t-3 19.5t5 22.5t6.5 16.5q44 79 123 91q65 11 125 -39l17 -15q16 -14 23 -18q42 -21 66 -15.5t61 39.5q8 6 17 20t14 19 q16 14 24.5 16.5t22.5 -7.5q5 -4 7 -8t1 -10t-2 -9t-5 -11l-5 -10q-66 -99 -139 -102z" />
<glyph unicode="&#xd6;" horiz-adv-x="888" d="M412 -14q-105 7 -176 51q-44 27 -62 55q-1 2 -35 47q-8 10 -26 41q-21 38 -39 78q-10 26 -11 29q-35 145 -14 256q12 57 27 84q4 7 38 68t58 89q44 51 86 70q63 31 111 39.5t114 3.5q59 -4 122 -26.5t108 -53.5l12 -8q9 -5 17 -11.5t15 -15.5t12 -14.5t10.5 -18t8.5 -17 t8.5 -19.5t6.5 -17.5t6.5 -20t5.5 -18.5q27 -93 27 -168q0 -8 4 -24q4 -63 -8 -103q-17 -65 -27 -118q-3 -15 -11 -31t-21 -34t-21 -28.5t-26 -30.5t-21 -24q-47 -54 -135 -83.5t-164 -26.5zM662 135q102 94 114 234q1 9 1 25.5t1 30.5t4 26q3 15 -2 59q-1 24 -6.5 49.5 t-15 57t-13.5 47.5q0 6 -8 18q-23 52 -84 106q-32 27 -110 46q-159 30 -275 -27q-20 -9 -39.5 -29t-29.5 -35t-27 -43q-44 -78 -57 -182q-11 -86 -4 -143q6 -56 22 -96q6 -11 14.5 -33t10.5 -25q45 -92 121 -145q21 -17 34 -19q73 -18 154 -18l49 10q58 13 146 86zM655 1096 q0 -31 -20 -50.5t-51 -19.5t-50.5 17.5t-19.5 46.5q-1 30 19.5 53.5t48.5 25.5q25 1 49 -23t24 -50zM373 1094q0 -29 -20 -50.5t-46 -21.5q-28 0 -50.5 25t-20.5 53q1 23 25.5 42t51.5 19q22 -2 41 -23t19 -44z" />
<glyph unicode="&#xd7;" horiz-adv-x="434" d="M254 332q11 -12 34 -35.5t31 -32.5q16 -10 27.5 -30.5t1.5 -30.5q-14 -12 -39 6q-15 11 -44 43.5t-46 44.5q-47 -47 -63 -61q-3 -3 -10.5 -11t-12.5 -13t-11.5 -10.5t-10.5 -6.5q-17 -6 -27 4q-8 11 -6 18t18 25l41 37l53 55q-7 6 -30 26t-35 31t-26 26.5t-17 26.5 q-11 19 -2 31q11 15 37 -4q13 -9 28.5 -29.5t28.5 -29.5q8 -7 16 -15.5t11 -12.5t7.5 -8t5.5 -3t5 2l84 78q2 2 9.5 9t13.5 10.5t12 4.5q2 0 8 2.5t9 2t7 -4.5q8 -8 9 -16.5t-6 -18t-14.5 -16.5t-21 -18.5t-20.5 -18.5l-26 -26t-29 -31z" />
<glyph unicode="&#xd8;" horiz-adv-x="888" d="M657 961l-8 -25q-25 -62 -28 -72q44 -15 92 -47l12 -8q9 -5 17 -11.5t15 -15.5t12 -14.5t10.5 -18t8.5 -17t8.5 -19.5t6.5 -17.5t6.5 -20t5.5 -18.5q27 -93 27 -168q0 -8 4 -24q4 -63 -8 -103q-17 -65 -27 -118q-3 -15 -11 -31t-21 -34t-21 -28.5t-26 -30.5t-21 -24 q-47 -54 -135 -83.5t-164 -26.5q-50 3 -86 14q-20 -49 -23 -61q-2 -5 -4.5 -16t-4.5 -14t-8.5 -6t-17.5 -1q-26 3 -20 28q0 1 6 19q2 8 5 18t7.5 24.5t7.5 24.5q-26 13 -38 21q-44 27 -62 55q-1 2 -35 47q-8 10 -26 41q-21 38 -39 78q-10 26 -11 29q-35 145 -14 256 q12 57 27 84q4 7 38 68t58 89q44 51 86 70q63 31 111 39.5t114 3.5q45 -4 80 -14q9 31 37 96q12 31 45 31q8 1 11 -10q1 -6 1 -39zM279 76q8 -8 12 -10l133 393q59 184 121 372l-2 3q-159 30 -275 -27q-20 -9 -39.5 -29t-29.5 -35t-27 -43q-44 -78 -57 -182q-11 -86 -4 -143 q6 -56 22 -96q6 -11 14.5 -33t10.5 -25q45 -92 121 -145zM662 135q102 94 114 234q1 9 1 25.5t1 30.5t4 26q3 15 -2 59q-1 24 -6.5 49.5t-15 57t-13.5 47.5q0 6 -8 18q-23 52 -84 106q-26 19 -51 27q-35 -94 -141 -436q-4 -13 -117 -330q49 -10 123 -10l49 10q58 13 146 86z " />
<glyph unicode="&#xd9;" horiz-adv-x="669" d="M145 883q2 -5 2 -37q0 -111 -2 -168l-4 -109q-6 -91 -2 -207q1 -16 17 -161q6 -50 60 -103t106 -53q24 -2 90 12q64 15 100 99q16 40 24.5 96.5t9 93.5t-1 107t-1.5 86t-1.5 67.5t-0.5 79.5q4 94 -2 141q-4 30 -2 47q4 32 57 17q10 -3 10 -17q2 -13 2 -67v-156 q0 -31 1 -92t1 -110t-2 -87q0 -82 -17.5 -160t-49.5 -120q-45 -58 -121 -82q-80 -19 -137 -6q-70 15 -122 64.5t-69 117.5q-14 60 -14 135q-4 184 -4 330q0 109 -9 217q-3 29 23 29q58 0 59 -4zM268 1133q-36 29 -12 42q23 14 57 0q10 -4 17 -10l96 -73q24 -16 27 -33 q4 -9 0.5 -20.5t-9.5 -16.5q-3 -7 -32 -2q-2 0 -17 10q-13 10 -40 31t-48.5 38t-38.5 34z" />
<glyph unicode="&#xda;" horiz-adv-x="669" d="M145 883q2 -5 2 -37q0 -111 -2 -168l-4 -109q-6 -91 -2 -207q1 -16 17 -161q6 -50 60 -103t106 -53q24 -2 90 12q64 15 100 99q16 40 24.5 96.5t9 93.5t-1 107t-1.5 86t-1.5 67.5t-0.5 79.5q4 94 -2 141q-4 30 -2 47q4 32 57 17q10 -3 10 -17q2 -13 2 -67v-156 q0 -31 1 -92t1 -110t-2 -87q0 -82 -17.5 -160t-49.5 -120q-45 -58 -121 -82q-80 -19 -137 -6q-70 15 -122 64.5t-69 117.5q-14 60 -14 135q-4 184 -4 330q0 109 -9 217q-3 29 23 29q58 0 59 -4zM383 1159q38 28 45 0q6 -26 -17 -55q-5 -7 -12 -12l-96 -76q-21 -17 -39 -17 q-8 -1 -19 4.5t-14 12.5q-4 4 7 33q1 3 3 5t5.5 4.5t5.5 4.5q10 7 57.5 43t73.5 53z" />
<glyph unicode="&#xdb;" horiz-adv-x="669" d="M145 883q2 -5 2 -37q0 -111 -2 -168l-4 -109q-6 -91 -2 -207q1 -16 17 -161q6 -50 60 -103t106 -53q24 -2 90 12q64 15 100 99q16 40 24.5 96.5t9 93.5t-1 107t-1.5 86t-1.5 67.5t-0.5 79.5q4 94 -2 141q-4 30 -2 47q4 32 57 17q10 -3 10 -17q2 -13 2 -67v-156 q0 -31 1 -92t1 -110t-2 -87q0 -82 -17.5 -160t-49.5 -120q-45 -58 -121 -82q-80 -19 -137 -6q-70 15 -122 64.5t-69 117.5q-14 60 -14 135q-4 184 -4 330q0 109 -9 217q-3 29 23 29q58 0 59 -4zM322 1221l-41 -66q-50 -77 -66 -104q-2 -3 -5 -8.5t-4.5 -8.5t-5 -6.5 t-7.5 -5.5q-22 -9 -37 2q-4 4 -4 35q0 3 3.5 9.5t4.5 8.5q6 9 37 59.5t49 75.5q32 49 72 50t75 -45l103 -140q32 -43 6 -59q-21 -18 -49 20l-101 140q-1 1 -12 18t-18 25z" />
<glyph unicode="&#xdc;" horiz-adv-x="669" d="M145 883q2 -5 2 -37q0 -111 -2 -168l-4 -109q-6 -91 -2 -207q1 -16 17 -161q6 -50 60 -103t106 -53q24 -2 90 12q64 15 100 99q16 40 24.5 96.5t9 93.5t-1 107t-1.5 86t-1.5 67.5t-0.5 79.5q4 94 -2 141q-4 30 -2 47q4 32 57 17q10 -3 10 -17q2 -13 2 -67v-156 q0 -31 1 -92t1 -110t-2 -87q0 -82 -17.5 -160t-49.5 -120q-45 -58 -121 -82q-80 -19 -137 -6q-70 15 -122 64.5t-69 117.5q-14 60 -14 135q-4 184 -4 330q0 109 -9 217q-3 29 23 29q58 0 59 -4zM545 1087q0 -30 -20.5 -49.5t-51.5 -19.5t-50.5 17t-19.5 46q-1 30 19.5 54 t48.5 26q25 1 49.5 -23.5t24.5 -50.5zM262 1085q0 -29 -19.5 -50t-45.5 -21q-28 0 -51 25t-21 53q1 23 26 42t52 19q22 -1 40.5 -23t18.5 -45z" />
<glyph unicode="&#xdd;" horiz-adv-x="733" d="M379 424q22 11 49 59q12 22 77 136t97 174q34 70 53 94q15 3 34 1.5t32 -14.5l-10 -22q-4 -7 -12.5 -17.5t-14 -20.5t-8.5 -21q-2 -8 -25 -48q-63 -97 -84 -139q-15 -29 -33.5 -58t-42.5 -63.5t-36 -52.5q0 -1 -29 -65q-8 -20 -9.5 -57t-4.5 -50q8 -10 5 -72t-3 -73 q4 -66 4 -99q0 -21 -5.5 -29.5t-25.5 -11.5q-18 -3 -25 3t-12 26q-2 6 -2 21q-4 86 -4 131q3 94 -6 186q-4 24 -12 37q-102 174 -121 201q-14 20 -30.5 41.5t-37 47.5t-31.5 40q-10 11 -47 69q-9 14 -41 72q-6 9 -2 18.5t15 12.5l24 4q20 7 31 -11l68 -102l22 -31 q7 -12 94 -143q14 -20 38.5 -68t37.5 -69q16 -29 33 -37zM430 1174q37 28 45 0q6 -26 -16 -55q-6 -8 -13 -13l-96 -76q-20 -16 -39 -16q-9 -1 -19 4.5t-13 11.5q-5 5 6 33q1 3 3 5t5.5 4.5t5.5 4.5q13 9 59 44.5t72 52.5z" />
<glyph unicode="&#xde;" horiz-adv-x="538" d="M98 197l-4 -129q-5 -34 -10 -48q-9 -27 -33 -22q-31 5 -31 37q0 21 3.5 115.5t3.5 144.5q0 164 -2 244v161q0 1 6 148q1 26 16 35.5t37 1.5q6 -3 9 -8t3.5 -8.5t0 -12.5t-0.5 -12v-137q0 -7 1 -22t1 -23q7 0 46 -3.5t57 -3.5q130 0 194 -24q94 -37 115 -139 q18 -101 -14 -168q-49 -106 -164 -115q-47 -3 -189 -8q-28 -4 -45 -4zM102 262q28 2 101 6t110 8q76 11 121 93q19 46 12.5 92t-40 82t-78.5 39q-54 4 -162 8q-52 5 -70 -15v-278q0 -8 6 -35z" />
<glyph unicode="&#xdf;" horiz-adv-x="622" d="M86 365q-1 -50 0 -149.5t0 -149.5q0 -27 -2 -39q-3 -35 -29 -35q-32 0 -32 35q-3 167 -3 333v97l7 147q1 91 60 163t146 100t168 3q73 -23 102.5 -88t-1.5 -129q-5 -13 -14 -25.5t-23 -30t-19 -24.5q-9 -11 -33.5 -40t-37.5 -46q-15 -19 -14 -33.5t18 -31.5 q24 -22 67 -56t73.5 -63t55.5 -63q47 -68 13 -150q-8 -21 -13.5 -32.5t-17.5 -26.5t-27 -23q-143 -80 -307 17q-26 15 -34 34.5t6 34.5q21 21 98 -31q70 -38 113 -38q48 0 83 31t35 77q0 30 -10.5 58t-36 56.5t-41.5 44t-54 46t-46 37.5q-23 19 -33 37q-38 55 10 106 q67 69 103 131t18 121q-10 33 -52 49t-83 8q-83 -18 -132 -64t-67 -134q-7 -34 -10.5 -72.5t-4 -59t0 -71t0.5 -61.5z" />
<glyph unicode="&#xe0;" d="M375 891q53 17 76 -33q28 -63 34 -86q18 -67 62 -154q6 -12 18 -35t21 -42t16 -37q5 -13 16 -38.5t19.5 -47t13.5 -41.5q6 -19 15 -39.5t21.5 -46.5t17.5 -39q12 -25 75 -174q12 -21 21 -45q4 -13 -3 -23t-22 -12q-1 0 -4 1t-4 1q-12 0 -18.5 0.5t-12.5 2.5t-8 3t-5 6.5 t-3.5 8.5t-3 14t-4.5 18q-20 79 -74 185q-28 1 -109.5 0.5t-109.5 1.5q-32 2 -69.5 -0.5t-82.5 -7t-69 -5.5q-4 -7 -15.5 -27t-16.5 -29t-14 -26.5t-14 -29.5t-10 -28.5t-8 -31.5q-2 -11 -12 -37q-6 -20 -13 -22q-3 -2 -6 -2q-2 0 -8.5 -1.5t-9.5 -1.5h-8.5t-9.5 2t-7 5 q-4 5 -4.5 11t0.5 10t4 10.5t4 9.5l146 358q5 16 21.5 65t25.5 75q14 42 39 100q62 150 92 254zM403 776q-78 -190 -94 -235q-8 -24 -26.5 -73t-32 -89.5t-21.5 -75.5q20 -2 150 -8q37 -1 110.5 4.5t102.5 5.5q1 0 1.5 1t2 3t4.5 4l-45 125q-13 29 -42.5 85.5t-41.5 84.5 q-6 17 -13.5 48.5t-13.5 48.5q-3 6 -18.5 31.5t-22.5 39.5zM336 1139q-36 29 -12 43q23 13 57 -2q9 -3 16 -9l97 -73q22 -15 26 -33q4 -9 1 -20.5t-9 -16.5q-3 -7 -33 -2q-1 0 -16 10q-13 10 -40 31t-48.5 38t-38.5 34z" />
<glyph unicode="&#xe1;" d="M375 891q53 17 76 -33q28 -63 34 -86q18 -67 62 -154q6 -12 18 -35t21 -42t16 -37q5 -13 16 -38.5t19.5 -47t13.5 -41.5q6 -19 15 -39.5t21.5 -46.5t17.5 -39q12 -25 75 -174q12 -21 21 -45q4 -13 -3 -23t-22 -12q-1 0 -4 1t-4 1q-12 0 -18.5 0.5t-12.5 2.5t-8 3t-5 6.5 t-3.5 8.5t-3 14t-4.5 18q-20 79 -74 185q-28 1 -109.5 0.5t-109.5 1.5q-32 2 -69.5 -0.5t-82.5 -7t-69 -5.5q-4 -7 -15.5 -27t-16.5 -29t-14 -26.5t-14 -29.5t-10 -28.5t-8 -31.5q-2 -11 -12 -37q-6 -20 -13 -22q-3 -2 -6 -2q-2 0 -8.5 -1.5t-9.5 -1.5h-8.5t-9.5 2t-7 5 q-4 5 -4.5 11t0.5 10t4 10.5t4 9.5l146 358q5 16 21.5 65t25.5 75q14 42 39 100q62 150 92 254zM403 776q-78 -190 -94 -235q-8 -24 -26.5 -73t-32 -89.5t-21.5 -75.5q20 -2 150 -8q37 -1 110.5 4.5t102.5 5.5q1 0 1.5 1t2 3t4.5 4l-45 125q-13 29 -42.5 85.5t-41.5 84.5 q-6 17 -13.5 48.5t-13.5 48.5q-3 6 -18.5 31.5t-22.5 39.5zM469 1171q38 28 45 0q6 -26 -17 -55q-5 -7 -12 -12l-96 -76q-20 -16 -39 -16q-9 -1 -19.5 4.5t-13.5 11.5q-4 4 7 33q1 3 3 5t5.5 4.5t5.5 4.5q10 7 57.5 43t73.5 53z" />
<glyph unicode="&#xe2;" d="M375 891q53 17 76 -33q28 -63 34 -86q18 -67 62 -154q6 -12 18 -35t21 -42t16 -37q5 -13 16 -38.5t19.5 -47t13.5 -41.5q6 -19 15 -39.5t21.5 -46.5t17.5 -39q12 -25 75 -174q12 -21 21 -45q4 -13 -3 -23t-22 -12q-1 0 -4 1t-4 1q-12 0 -18.5 0.5t-12.5 2.5t-8 3t-5 6.5 t-3.5 8.5t-3 14t-4.5 18q-20 79 -74 185q-28 1 -109.5 0.5t-109.5 1.5q-32 2 -69.5 -0.5t-82.5 -7t-69 -5.5q-4 -7 -15.5 -27t-16.5 -29t-14 -26.5t-14 -29.5t-10 -28.5t-8 -31.5q-2 -11 -12 -37q-6 -20 -13 -22q-3 -2 -6 -2q-2 0 -8.5 -1.5t-9.5 -1.5h-8.5t-9.5 2t-7 5 q-4 5 -4.5 11t0.5 10t4 10.5t4 9.5l146 358q5 16 21.5 65t25.5 75q14 42 39 100q62 150 92 254zM403 776q-78 -190 -94 -235q-8 -24 -26.5 -73t-32 -89.5t-21.5 -75.5q20 -2 150 -8q37 -1 110.5 4.5t102.5 5.5q1 0 1.5 1t2 3t4.5 4l-45 125q-13 29 -42.5 85.5t-41.5 84.5 q-6 17 -13.5 48.5t-13.5 48.5q-3 6 -18.5 31.5t-22.5 39.5zM389 1219l-41 -66q-43 -65 -65 -104q-2 -3 -5 -8.5t-5 -8.5t-5.5 -6.5t-7.5 -5.5q-22 -9 -37 2q-4 4 -4 35q0 3 3.5 9.5t4.5 8.5q6 9 37 59.5t49 75.5q32 49 72.5 49.5t75.5 -45.5l102 -139q32 -43 6 -59 q-21 -18 -49 20l-100 140l-12 18q-12 17 -19 25z" />
<glyph unicode="&#xe3;" d="M375 891q53 17 76 -33q28 -63 34 -86q18 -67 62 -154q6 -12 18 -35t21 -42t16 -37q5 -13 16 -38.5t19.5 -47t13.5 -41.5q6 -19 15 -39.5t21.5 -46.5t17.5 -39q12 -25 75 -174q12 -21 21 -45q4 -13 -3 -23t-22 -12q-1 0 -4 1t-4 1q-12 0 -18.5 0.5t-12.5 2.5t-8 3t-5 6.5 t-3.5 8.5t-3 14t-4.5 18q-20 79 -74 185q-28 1 -109.5 0.5t-109.5 1.5q-32 2 -69.5 -0.5t-82.5 -7t-69 -5.5q-4 -7 -15.5 -27t-16.5 -29t-14 -26.5t-14 -29.5t-10 -28.5t-8 -31.5q-2 -11 -12 -37q-6 -20 -13 -22q-3 -2 -6 -2q-2 0 -8.5 -1.5t-9.5 -1.5h-8.5t-9.5 2t-7 5 q-4 5 -4.5 11t0.5 10t4 10.5t4 9.5l146 358q5 16 21.5 65t25.5 75q14 42 39 100q62 150 92 254zM403 776q-78 -190 -94 -235q-8 -24 -26.5 -73t-32 -89.5t-21.5 -75.5q20 -2 150 -8q37 -1 110.5 4.5t102.5 5.5q1 0 1.5 1t2 3t4.5 4l-45 125q-13 29 -42.5 85.5t-41.5 84.5 q-6 17 -13.5 48.5t-13.5 48.5q-3 6 -18.5 31.5t-22.5 39.5zM512 1018q-53 -2 -119 45q-6 3 -14.5 11.5t-11.5 10.5q-42 33 -81.5 27t-66.5 -51q-2 -3 -7 -12.5t-8 -13.5t-8.5 -10.5t-11.5 -9t-14 -3.5q-12 -1 -16.5 6.5t-3 19.5t5 22.5t6.5 16.5q43 78 123 90q65 11 125 -39 q38 -31 41 -32q42 -21 66 -15.5t61 39.5q8 6 16.5 20t13.5 19q29 26 47 8q5 -4 7 -8t1 -9.5t-2 -8.5t-5 -10.5t-5 -10.5q-66 -99 -139 -102z" />
<glyph unicode="&#xe4;" d="M375 891q53 17 76 -33q28 -63 34 -86q18 -67 62 -154q6 -12 18 -35t21 -42t16 -37q5 -13 16 -38.5t19.5 -47t13.5 -41.5q6 -19 15 -39.5t21.5 -46.5t17.5 -39q12 -25 75 -174q12 -21 21 -45q4 -13 -3 -23t-22 -12q-1 0 -4 1t-4 1q-12 0 -18.5 0.5t-12.5 2.5t-8 3t-5 6.5 t-3.5 8.5t-3 14t-4.5 18q-20 79 -74 185q-28 1 -109.5 0.5t-109.5 1.5q-32 2 -69.5 -0.5t-82.5 -7t-69 -5.5q-4 -7 -15.5 -27t-16.5 -29t-14 -26.5t-14 -29.5t-10 -28.5t-8 -31.5q-2 -11 -12 -37q-6 -20 -13 -22q-3 -2 -6 -2q-2 0 -8.5 -1.5t-9.5 -1.5h-8.5t-9.5 2t-7 5 q-4 5 -4.5 11t0.5 10t4 10.5t4 9.5l146 358q5 16 21.5 65t25.5 75q14 42 39 100q62 150 92 254zM403 776q-78 -190 -94 -235q-8 -24 -26.5 -73t-32 -89.5t-21.5 -75.5q20 -2 150 -8q37 -1 110.5 4.5t102.5 5.5q1 0 1.5 1t2 3t4.5 4l-45 125q-13 29 -42.5 85.5t-41.5 84.5 q-6 17 -13.5 48.5t-13.5 48.5q-3 6 -18.5 31.5t-22.5 39.5zM616 1092q0 -31 -20 -50.5t-51 -19.5t-50.5 17t-19.5 46q-1 30 19.5 54t48.5 26q25 1 49 -23t24 -50zM334 1090q0 -29 -20 -50.5t-46 -21.5q-28 0 -50.5 25t-20.5 53q1 23 25.5 42t51.5 19q22 -2 41 -23t19 -44z " />
<glyph unicode="&#xe5;" d="M375 891q53 17 76 -33q28 -63 34 -86q18 -67 62 -154q6 -12 18 -35t21 -42t16 -37q5 -13 16 -38.5t19.5 -47t13.5 -41.5q6 -19 15 -39.5t21.5 -46.5t17.5 -39q12 -25 75 -174q12 -21 21 -45q4 -13 -3 -23t-22 -12q-1 0 -4 1t-4 1q-12 0 -18.5 0.5t-12.5 2.5t-8 3t-5 6.5 t-3.5 8.5t-3 14t-4.5 18q-20 79 -74 185q-28 1 -109.5 0.5t-109.5 1.5q-32 2 -69.5 -0.5t-82.5 -7t-69 -5.5q-4 -7 -15.5 -27t-16.5 -29t-14 -26.5t-14 -29.5t-10 -28.5t-8 -31.5q-2 -11 -12 -37q-6 -20 -13 -22q-3 -2 -6 -2q-2 0 -8.5 -1.5t-9.5 -1.5h-8.5t-9.5 2t-7 5 q-4 5 -4.5 11t0.5 10t4 10.5t4 9.5l146 358q5 16 21.5 65t25.5 75q14 42 39 100q62 150 92 254zM403 776q-78 -190 -94 -235q-8 -24 -26.5 -73t-32 -89.5t-21.5 -75.5q20 -2 150 -8q37 -1 110.5 4.5t102.5 5.5q1 0 1.5 1t2 3t4.5 4l-45 125q-13 29 -42.5 85.5t-41.5 84.5 q-6 17 -13.5 48.5t-13.5 48.5q-3 6 -18.5 31.5t-22.5 39.5zM262 1159q-3 61 42.5 105.5t107.5 44.5q133 0 139 -150q1 -53 -48.5 -98t-105.5 -45q-61 1 -98 41t-37 102zM322 1171q-3 -38 20.5 -68.5t60.5 -29.5q36 2 62.5 26t26.5 62q0 37 -25 61.5t-59 26.5 q-33 2 -58 -20.5t-28 -57.5z" />
<glyph unicode="&#xe6;" horiz-adv-x="1165" d="M698 813q-4 -74 -4 -135v-57q0 -27 1 -113t1 -115q4 -16 4 -31h41q28 0 166 5q37 2 107 2q7 0 19.5 1t19 1t13 -2t9.5 -7q6 -9 5.5 -26.5t-5.5 -22.5q-8 -8 -18 -8q-35 -3 -70.5 -3.5t-83 0.5t-65.5 1q-91 0 -138 -4q-4 -20 -4 -27q-2 -57 6 -116q3 -22 3 -90 q19 -21 55 -17q36 0 106 4l119 4q20 2 64 2l67 -4q12 -6 6 -31.5t-18 -27.5q-20 -2 -60 -2q-10 0 -30.5 1t-32.5 1h-39q-25 0 -98 -3t-111 -3q-35 0 -50 4.5t-42 25.5l-6 279h-170q-40 0 -109 -6.5t-86 -7.5q-114 -153 -143 -232q-4 -13 -18 -37q-9 -22 -23 -24 q-2 0 -8.5 -1.5t-9.5 -1.5h-8t-8.5 2t-6.5 5q-3 5 -3 11t2 10t6 11t5 9l203 358q11 21 34 68.5t36 71.5q17 38 55 100q83 149 102 190q29 65 74 60q30 -5 115 0q16 2 45 2q43 0 117 4h102q22 0 65 1t64 1q29 0 41 -16l-4 -41q-6 -17 -31 -17q-7 0 -52.5 1.5t-68.5 0.5 q-24 -2 -143 -2q-86 0 -111 -6zM475 352q4 0 31.5 1.5t65 3.5t61.5 3q0 26 -1 79t-1 79q0 16 1.5 69.5t0.5 82.5q-2 45 2 135q-68 4 -84 2q-23 -6 -158 -268q-13 -26 -44 -80.5t-50 -98.5q20 -2 150 -8h26z" />
<glyph unicode="&#xe7;" horiz-adv-x="745" d="M266 -227q2 -1 13 -5t16 -8q47 -35 92 -22q23 6 39.5 23t15.5 34q-1 23 -21.5 41.5t-45.5 20.5h-41q-22 0 -30 11.5t-1 31.5l39 100q-23 3 -84 20q-21 6 -42 22.5t-30 26t-30 33.5q-4 5 -16.5 18.5t-21 25t-12.5 24.5t-19 34t-19 34q-14 37 -25 104q-2 7 -2 47 q-6 65 14 135q27 95 39 127q7 21 8 23q84 134 174 184q40 22 93 29q74 10 127 -2q3 -1 31.5 -5.5t43.5 -11.5l66 -32q49 -21 61 -70q-5 -13 -15 -21.5t-17.5 -11t-24.5 -8.5q-12 8 -14 14q-17 35 -66 64q-123 75 -246 6q-7 -4 -21 -12.5t-23 -13.5t-20 -13.5t-20 -17.5 q-22 -19 -40.5 -49.5t-27 -51.5t-22.5 -59q-54 -128 -16 -293q2 -7 3.5 -22t5 -25.5t11.5 -18.5q6 -23 22 -45.5t39 -48.5t32 -39q2 -5 16 -10q90 -53 172 -31q6 2 14 2q107 7 205 113l10 12q5 6 15 8.5t16 -1.5q19 -11 19 -27q0 -22 -15 -37q-8 -7 -25.5 -23t-27.5 -25 t-25.5 -21t-29.5 -21q-65 -40 -123 -43h-56v-4q-5 -16 -17 -43t-15 -33q0 -6 -2 -10q31 -3 49 -8q41 -8 59 -50q26 -56 4 -106q-19 -42 -56 -59.5t-79 -4.5q-38 11 -59 23q-46 22 -21 72z" />
<glyph unicode="&#xe8;" horiz-adv-x="612" d="M150 815q-5 -93 -5 -135v-57q0 -27 1 -83t1 -85q5 -20 5 -31h41q55 0 165 4q37 2 107 2q7 0 24 1.5t25 0t12 -7.5q6 -9 5.5 -26.5t-5.5 -22.5q-8 -8 -18 -8q-35 -3 -70.5 -3.5t-83 0.5t-65.5 1q-78 0 -137 -5q-5 -25 -5 -26q-3 -99 7 -176q2 -14 2 -90q19 -21 55 -17 q36 0 106 4l119 4q20 2 64 2l67 -4q12 -6 6 -31.5t-18 -27.5q-20 -2 -59 -2q-10 0 -31 1t-33 1h-39q-25 0 -98 -3t-111 -3q-35 0 -50 5t-42 26q-4 218 -8 331q0 28 -1 83.5t-1 82.5q0 16 1.5 69.5t0.5 82.5t4 176q0 19 5 26t24 11q36 8 53 8q26 -3 113 2q17 0 53 -1t53 -1 q21 0 64 1t65 1q29 0 41 -16l-4 -41q-6 -17 -31 -17q-7 0 -52.5 1.5t-68.5 0.5q-25 -2 -143 -2q-85 0 -110 -6zM256 1135q-36 29 -12 43q23 13 57 -2q9 -3 16 -9l97 -73q22 -15 26 -33q4 -9 1 -20.5t-9 -16.5q-3 -7 -33 -2q-1 0 -16 10q-13 10 -40 31t-48.5 38t-38.5 34z " />
<glyph unicode="&#xe9;" horiz-adv-x="612" d="M150 815q-5 -93 -5 -135v-57q0 -27 1 -83t1 -85q5 -20 5 -31h41q55 0 165 4q37 2 107 2q7 0 24 1.5t25 0t12 -7.5q6 -9 5.5 -26.5t-5.5 -22.5q-8 -8 -18 -8q-35 -3 -70.5 -3.5t-83 0.5t-65.5 1q-78 0 -137 -5q-5 -25 -5 -26q-3 -99 7 -176q2 -14 2 -90q19 -21 55 -17 q36 0 106 4l119 4q20 2 64 2l67 -4q12 -6 6 -31.5t-18 -27.5q-20 -2 -59 -2q-10 0 -31 1t-33 1h-39q-25 0 -98 -3t-111 -3q-35 0 -50 5t-42 26q-4 218 -8 331q0 28 -1 83.5t-1 82.5q0 16 1.5 69.5t0.5 82.5t4 176q0 19 5 26t24 11q36 8 53 8q26 -3 113 2q17 0 53 -1t53 -1 q21 0 64 1t65 1q29 0 41 -16l-4 -41q-6 -17 -31 -17q-7 0 -52.5 1.5t-68.5 0.5q-25 -2 -143 -2q-85 0 -110 -6zM354 1176q37 28 45 0q7 -26 -15 -55q-6 -8 -13 -13l-97 -76q-20 -16 -38 -16q-9 -1 -19.5 4.5t-13.5 11.5q-5 5 6 33q1 3 3 5t5.5 4.5t5.5 4.5q13 9 59 44.5 t72 52.5z" />
<glyph unicode="&#xea;" horiz-adv-x="612" d="M150 815q-5 -93 -5 -135v-57q0 -27 1 -83t1 -85q5 -20 5 -31h41q55 0 165 4q37 2 107 2q7 0 24 1.5t25 0t12 -7.5q6 -9 5.5 -26.5t-5.5 -22.5q-8 -8 -18 -8q-35 -3 -70.5 -3.5t-83 0.5t-65.5 1q-78 0 -137 -5q-5 -25 -5 -26q-3 -99 7 -176q2 -14 2 -90q19 -21 55 -17 q36 0 106 4l119 4q20 2 64 2l67 -4q12 -6 6 -31.5t-18 -27.5q-20 -2 -59 -2q-10 0 -31 1t-33 1h-39q-25 0 -98 -3t-111 -3q-35 0 -50 5t-42 26q-4 218 -8 331q0 28 -1 83.5t-1 82.5q0 16 1.5 69.5t0.5 82.5t4 176q0 19 5 26t24 11q36 8 53 8q26 -3 113 2q17 0 53 -1t53 -1 q21 0 64 1t65 1q29 0 41 -16l-4 -41q-6 -17 -31 -17q-7 0 -52.5 1.5t-68.5 0.5q-25 -2 -143 -2q-85 0 -110 -6zM301 1223l-41 -66q-43 -65 -65 -104q-2 -3 -5 -8.5t-5 -8.5t-5.5 -6.5t-7.5 -5.5q-22 -9 -37 2q-4 4 -4 35q0 3 3.5 9.5t4.5 8.5q6 9 37 59.5t49 75.5 q32 49 72.5 50t75.5 -45l102 -140q32 -43 6 -59q-21 -18 -49 20l-100 140l-12 18q-12 17 -19 25z" />
<glyph unicode="&#xeb;" horiz-adv-x="612" d="M150 815q-5 -93 -5 -135v-57q0 -27 1 -83t1 -85q5 -20 5 -31h41q55 0 165 4q37 2 107 2q7 0 24 1.5t25 0t12 -7.5q6 -9 5.5 -26.5t-5.5 -22.5q-8 -8 -18 -8q-35 -3 -70.5 -3.5t-83 0.5t-65.5 1q-78 0 -137 -5q-5 -25 -5 -26q-3 -99 7 -176q2 -14 2 -90q19 -21 55 -17 q36 0 106 4l119 4q20 2 64 2l67 -4q12 -6 6 -31.5t-18 -27.5q-20 -2 -59 -2q-10 0 -31 1t-33 1h-39q-25 0 -98 -3t-111 -3q-35 0 -50 5t-42 26q-4 218 -8 331q0 28 -1 83.5t-1 82.5q0 16 1.5 69.5t0.5 82.5t4 176q0 19 5 26t24 11q36 8 53 8q26 -3 113 2q17 0 53 -1t53 -1 q21 0 64 1t65 1q29 0 41 -16l-4 -41q-6 -17 -31 -17q-7 0 -52.5 1.5t-68.5 0.5q-25 -2 -143 -2q-85 0 -110 -6zM537 1087q0 -30 -20.5 -49.5t-51.5 -19.5t-50.5 17t-19.5 46q-1 30 19.5 54t48.5 26q25 1 49.5 -23.5t24.5 -50.5zM254 1085q0 -29 -20 -50t-46 -21 q-28 0 -50.5 25t-20.5 53q1 23 26 42t52 19q22 -1 40.5 -23t18.5 -45z" />
<glyph unicode="&#xec;" horiz-adv-x="258" d="M176 6q-5 -6 -11.5 -8.5t-11 -2.5t-13 0.5t-11.5 0.5q-5 5 -17 15t-18 16v22q8 41 4 125q-10 194 -8 328q0 92 -6 121v10q7 20 8.5 42.5t0 50.5t-0.5 42l6 88q2 22 16 31t36 2q2 -1 16 -10q6 -68 0 -136q-6 -59 -6 -176v-256q-2 -84 16 -305zM63 1135q-36 29 -12 42 q23 14 57 0q10 -4 17 -10l96 -73q24 -16 27 -33q4 -9 1 -20.5t-9 -16.5q-3 -7 -33 -2q-2 0 -17 10q-13 10 -40 31t-48.5 38t-38.5 34z" />
<glyph unicode="&#xed;" horiz-adv-x="258" d="M176 6q-5 -6 -11.5 -8.5t-11 -2.5t-13 0.5t-11.5 0.5q-5 5 -17 15t-18 16v22q8 41 4 125q-10 194 -8 328q0 92 -6 121v10q7 20 8.5 42.5t0 50.5t-0.5 42l6 88q2 22 16 31t36 2q2 -1 16 -10q6 -68 0 -136q-6 -59 -6 -176v-256q-2 -84 16 -305zM178 1174q37 28 45 0 q7 -26 -15 -55q-6 -8 -13 -13l-97 -76q-20 -16 -39 -16q-9 -1 -19 4.5t-13 11.5q-5 5 6 33q1 3 3 5t5.5 4.5t5.5 4.5q13 9 59 44.5t72 52.5z" />
<glyph unicode="&#xee;" horiz-adv-x="258" d="M176 6q-5 -6 -11.5 -8.5t-11 -2.5t-13 0.5t-11.5 0.5q-5 5 -17 15t-18 16v22q8 41 4 125q-10 194 -8 328q0 92 -6 121v10q7 20 8.5 42.5t0 50.5t-0.5 42l6 88q2 22 16 31t36 2q2 -1 16 -10q6 -68 0 -136q-6 -59 -6 -176v-256q-2 -84 16 -305zM121 1233l-41 -66 q-50 -77 -66 -104q-2 -3 -5 -8.5t-4.5 -8.5t-5 -6.5t-7.5 -5.5q-22 -9 -37 2q-4 4 -4 35q0 3 3.5 10l4.5 9q6 9 37 59.5t49 75.5q32 49 72.5 49.5t75.5 -45.5l102 -139q32 -44 6 -60q-21 -18 -49 21l-100 139l-12 18q-12 17 -19 25z" />
<glyph unicode="&#xef;" horiz-adv-x="258" d="M176 6q-5 -6 -11.5 -8.5t-11 -2.5t-13 0.5t-11.5 0.5q-5 5 -17 15t-18 16v22q8 41 4 125q-10 194 -8 328q0 92 -6 121v10q7 20 8.5 42.5t0 50.5t-0.5 42l6 88q2 22 16 31t36 2q2 -1 16 -10q6 -68 0 -136q-6 -59 -6 -176v-256q-2 -84 16 -305zM340 1092q0 -31 -20.5 -50.5 t-51.5 -19.5t-50 17t-19 46q-1 31 19 54.5t48 25.5q25 2 49.5 -22.5t24.5 -50.5zM57 1090q0 -29 -19.5 -50.5t-45.5 -21.5q-28 0 -51 25t-21 53q1 23 26 42t52 19q22 -2 40.5 -23t18.5 -44z" />
<glyph unicode="&#xf0;" horiz-adv-x="641" d="M264 713q-30 -21 -45 -25q-20 -4 -25.5 3t1.5 24q8 19 28 39l47 47q-45 33 -120 73q-4 2 -12.5 5t-11 5t-6.5 7.5t1 11.5q16 35 45 29q2 0 31 -12q55 -18 122 -72l54 53q15 15 32.5 22t32.5 -5q6 -6 6 -11.5t-2 -8.5t-8 -9.5t-8 -9.5l-64 -70q4 -4 11.5 -11t13.5 -13 t10 -11q35 -41 62 -77t54.5 -79.5t43 -83.5t29 -89t12.5 -95.5t-8 -103.5q-16 -88 -66 -146q-71 -80 -162 -96t-182 39q-38 23 -74 76q-37 48 -53 106.5t-9 116.5t46 110t105 83q86 42 196 20l84 -14q-4 9 -10.5 27t-11.5 26q-58 95 -138 168zM307 504q-42 0 -83.5 -22 t-69.5 -58q-74 -103 -15 -231q48 -103 135 -124.5t179 54.5q42 38 59.5 119t3.5 170q-2 15 -29 37q-68 55 -180 55z" />
<glyph unicode="&#xf1;" horiz-adv-x="681" d="M137 823q-10 -7 -10 -8q-6 -81 -6 -82q2 -31 2 -92v-88q0 -12 2 -38t2 -40q0 -11 -2 -35t-2 -37q1 -12 2.5 -32.5t2.5 -37t1 -32.5l4 -192q0 -33 2 -39q2 -12 2.5 -14t-2 -14.5t-2.5 -14.5q-3 -12 -15 -18t-24 -1l-8 4l-25 21q1 5 4 22t3 25q0 14 -2.5 42t-2.5 42 q0 10 3.5 38.5t1.5 43.5q-5 56 -5 133q0 56 -1 170t-1 172q0 9 2.5 48t-0.5 48q-5 32 29 53q38 27 74 13q3 -7 16 -30t19 -36q15 -30 39.5 -85.5t33.5 -74.5l54 -116q44 -85 47 -90q35 -66 53 -117l8 -16t8 -19q14 -25 38 -72.5t34 -66.5q4 -8 14.5 -28t18.5 -34q4 11 4 39 v33v35l-12 264q0 24 2.5 87.5t1.5 98.5q-1 19 4.5 94.5t-2.5 94.5q-6 19 14 35l12 6l27 8q21 -9 21 -27q0 -19 -1.5 -56.5t-1.5 -55.5q0 -5 -4 -21q-2 -14 0 -44.5t0 -47.5q-2 -14 -2 -92q0 -15 1 -46t1 -46q0 -39 -4 -113q0 -9 1 -81.5t-5 -80.5q6 -22 0.5 -70.5t3.5 -70.5 q1 -3 -4 -18q-3 -24 -24 -29q-29 -4 -43 16l-11 23q-100 180 -106 192q-79 161 -86 176l-78 168q-10 19 -30 64.5t-33 68.5q-12 23 -58 121zM451 1020q-53 -2 -119 45q-6 3 -15.5 11.5t-11.5 10.5q-42 33 -81 27t-66 -51q-2 -3 -7 -12.5t-8 -13.5t-8.5 -10.5t-11.5 -9 t-14 -3.5q-15 -2 -18.5 12t0.5 29t9 24q43 78 123 90q65 11 125 -39q38 -31 41 -32q42 -21 66 -15.5t61 39.5q8 7 17 20.5t14 18.5q29 26 47 8q5 -4 7 -8t1 -9.5t-2 -8.5t-5 -10.5t-5 -10.5q-66 -99 -139 -102z" />
<glyph unicode="&#xf2;" horiz-adv-x="907" d="M45 440q1 9 1.5 30.5t1.5 36.5t5 30q8 31 35 92q7 15 25.5 47t27.5 51q44 84 142 121q20 8 55 19.5t47 15.5q15 5 43.5 5.5t42.5 4.5q28 6 82 -10q60 -16 70 -21q55 -28 112 -92q66 -73 99 -145q14 -37 26 -115q20 -132 -39 -274q-28 -74 -82 -125q-66 -66 -170 -105 q-8 -4 -24 -8q-112 -16 -160 -12q-22 3 -43 8q-18 4 -23 8q-117 58 -174 119q-1 1 -11.5 12.5t-12 14t-9.5 12.5t-10.5 15t-7.5 14t-7.5 17t-4.5 17q-1 5 -7 14t-7 11l-11 33q0 10 -9 65t-3 84v10zM793 434v39q0 118 -72 205l-10 14q-25 41 -45 66q-9 14 -36.5 28t-31.5 17 q-30 21 -74 24q-11 2 -38 0.5t-37.5 -2.5t-37 -5t-36.5 -5q-65 -11 -119 -65l-37 -37q-56 -53 -80 -107q-7 -16 -14.5 -48t-11.5 -44q-22 -81 6 -211q20 -108 119 -184q45 -36 100 -51q19 -5 42.5 -7.5t40 -3.5t45 -1.5t40.5 -0.5q49 -2 104 33l23 12q59 28 108 109 q52 96 52 225zM387 1133q-36 29 -12 42q23 14 57 0q10 -4 17 -10l96 -73q22 -15 26 -33q4 -9 1 -20.5t-9 -16.5q-3 -7 -33 -2q-1 0 -16 10q-13 10 -40 31t-48.5 38t-38.5 34z" />
<glyph unicode="&#xf3;" horiz-adv-x="907" d="M45 440q1 9 1.5 30.5t1.5 36.5t5 30q8 31 35 92q7 15 25.5 47t27.5 51q44 84 142 121q20 8 55 19.5t47 15.5q15 5 43.5 5.5t42.5 4.5q28 6 82 -10q60 -16 70 -21q55 -28 112 -92q66 -73 99 -145q14 -37 26 -115q20 -132 -39 -274q-28 -74 -82 -125q-66 -66 -170 -105 q-8 -4 -24 -8q-112 -16 -160 -12q-22 3 -43 8q-18 4 -23 8q-117 58 -174 119q-1 1 -11.5 12.5t-12 14t-9.5 12.5t-10.5 15t-7.5 14t-7.5 17t-4.5 17q-1 5 -7 14t-7 11l-11 33q0 10 -9 65t-3 84v10zM793 434v39q0 118 -72 205l-10 14q-25 41 -45 66q-9 14 -36.5 28t-31.5 17 q-30 21 -74 24q-11 2 -38 0.5t-37.5 -2.5t-37 -5t-36.5 -5q-65 -11 -119 -65l-37 -37q-56 -53 -80 -107q-7 -16 -14.5 -48t-11.5 -44q-22 -81 6 -211q20 -108 119 -184q45 -36 100 -51q19 -5 42.5 -7.5t40 -3.5t45 -1.5t40.5 -0.5q49 -2 104 33l23 12q59 28 108 109 q52 96 52 225zM502 1174q37 28 45 0q6 -26 -16 -55q-6 -8 -13 -13l-96 -76q-20 -16 -39 -16q-9 -1 -19.5 4.5t-13.5 11.5q-5 5 6 33q1 3 7 7.5t8 6.5q13 9 59 44.5t72 52.5z" />
<glyph unicode="&#xf4;" horiz-adv-x="907" d="M45 440q1 9 1.5 30.5t1.5 36.5t5 30q8 31 35 92q7 15 25.5 47t27.5 51q44 84 142 121q20 8 55 19.5t47 15.5q15 5 43.5 5.5t42.5 4.5q28 6 82 -10q60 -16 70 -21q55 -28 112 -92q66 -73 99 -145q14 -37 26 -115q20 -132 -39 -274q-28 -74 -82 -125q-66 -66 -170 -105 q-8 -4 -24 -8q-112 -16 -160 -12q-22 3 -43 8q-18 4 -23 8q-117 58 -174 119q-1 1 -11.5 12.5t-12 14t-9.5 12.5t-10.5 15t-7.5 14t-7.5 17t-4.5 17q-1 5 -7 14t-7 11l-11 33q0 10 -9 65t-3 84v10zM793 434v39q0 118 -72 205l-10 14q-25 41 -45 66q-9 14 -36.5 28t-31.5 17 q-30 21 -74 24q-11 2 -38 0.5t-37.5 -2.5t-37 -5t-36.5 -5q-65 -11 -119 -65l-37 -37q-56 -53 -80 -107q-7 -16 -14.5 -48t-11.5 -44q-22 -81 6 -211q20 -108 119 -184q45 -36 100 -51q19 -5 42.5 -7.5t40 -3.5t45 -1.5t40.5 -0.5q49 -2 104 33l23 12q59 28 108 109 q52 96 52 225zM440 1221l-41 -66q-43 -65 -65 -104q-2 -3 -5 -8.5t-5 -8.5t-5.5 -6.5t-7.5 -5.5q-22 -9 -37 2q-4 4 -4 35q0 3 4 9.5t5 8.5q6 9 37 59.5t49 75.5q32 49 72 50t75 -45l102 -140q32 -43 7 -59q-22 -19 -50 20l-100 140l-12 18q-12 17 -19 25z" />
<glyph unicode="&#xf5;" horiz-adv-x="907" d="M45 440q1 9 1.5 30.5t1.5 36.5t5 30q8 31 35 92q7 15 25.5 47t27.5 51q44 84 142 121q20 8 55 19.5t47 15.5q15 5 43.5 5.5t42.5 4.5q28 6 82 -10q60 -16 70 -21q55 -28 112 -92q66 -73 99 -145q14 -37 26 -115q20 -132 -39 -274q-28 -74 -82 -125q-66 -66 -170 -105 q-8 -4 -24 -8q-112 -16 -160 -12q-22 3 -43 8q-18 4 -23 8q-117 58 -174 119q-1 1 -11.5 12.5t-12 14t-9.5 12.5t-10.5 15t-7.5 14t-7.5 17t-4.5 17q-1 5 -7 14t-7 11l-11 33q0 10 -9 65t-3 84v10zM793 434v39q0 118 -72 205l-10 14q-25 41 -45 66q-9 14 -36.5 28t-31.5 17 q-30 21 -74 24q-11 2 -38 0.5t-37.5 -2.5t-37 -5t-36.5 -5q-65 -11 -119 -65l-37 -37q-56 -53 -80 -107q-7 -16 -14.5 -48t-11.5 -44q-22 -81 6 -211q20 -108 119 -184q45 -36 100 -51q19 -5 42.5 -7.5t40 -3.5t45 -1.5t40.5 -0.5q49 -2 104 33l23 12q59 28 108 109 q52 96 52 225zM561 1014q-53 -2 -119 45q-6 3 -14.5 11.5t-11.5 10.5q-42 33 -81.5 27t-66.5 -51q-2 -3 -7 -12.5t-8 -13.5t-8.5 -10.5t-11.5 -9t-14 -3.5q-12 -1 -16.5 6.5t-3 19.5t5 22.5t6.5 16.5q43 78 123 90q65 11 125 -39q38 -31 41 -32q42 -21 66 -15.5t61 39.5 q8 6 16.5 20t13.5 19q30 26 48 8q5 -4 6.5 -8t0.5 -9.5t-2 -9t-5 -10.5t-5 -10q-66 -99 -139 -102z" />
<glyph unicode="&#xf6;" horiz-adv-x="907" d="M45 440q1 9 1.5 30.5t1.5 36.5t5 30q8 31 35 92q7 15 25.5 47t27.5 51q44 84 142 121q20 8 55 19.5t47 15.5q15 5 43.5 5.5t42.5 4.5q28 6 82 -10q60 -16 70 -21q55 -28 112 -92q66 -73 99 -145q14 -37 26 -115q20 -132 -39 -274q-28 -74 -82 -125q-66 -66 -170 -105 q-8 -4 -24 -8q-112 -16 -160 -12q-22 3 -43 8q-18 4 -23 8q-117 58 -174 119q-1 1 -11.5 12.5t-12 14t-9.5 12.5t-10.5 15t-7.5 14t-7.5 17t-4.5 17q-1 5 -7 14t-7 11l-11 33q0 10 -9 65t-3 84v10zM793 434v39q0 118 -72 205l-10 14q-25 41 -45 66q-9 14 -36.5 28t-31.5 17 q-30 21 -74 24q-11 2 -38 0.5t-37.5 -2.5t-37 -5t-36.5 -5q-65 -11 -119 -65l-37 -37q-56 -53 -80 -107q-7 -16 -14.5 -48t-11.5 -44q-22 -81 6 -211q20 -108 119 -184q45 -36 100 -51q19 -5 42.5 -7.5t40 -3.5t45 -1.5t40.5 -0.5q49 -2 104 33l23 12q59 28 108 109 q52 96 52 225zM686 1096q0 -31 -20.5 -50.5t-51.5 -19.5t-50 17.5t-19 46.5q-1 30 19 53.5t48 25.5q25 2 49.5 -22.5t24.5 -50.5zM403 1094q0 -29 -19.5 -50.5t-45.5 -21.5q-28 0 -51 25t-21 53q1 23 26 42t52 19q22 -2 40.5 -23t18.5 -44z" />
<glyph unicode="&#xf7;" horiz-adv-x="581" d="M352 188q0 -25 -21.5 -44t-47.5 -19q-25 0 -44.5 25t-19.5 57q2 22 25.5 41t48.5 18q25 0 42.5 -23.5t16.5 -54.5zM352 659q0 -25 -21.5 -44t-47.5 -19q-25 0 -44.5 25t-19.5 57q2 22 25.5 41t48.5 18q25 0 42.5 -23.5t16.5 -54.5zM86 401q-34 4 -49 13q-35 21 2 37 q19 8 47 8q42 1 207 2t207 2q23 0 41.5 -8.5t17.5 -26.5q0 -8 -3.5 -12t-8.5 -4.5t-11.5 -1t-13.5 -0.5q-29 -3 -189 -6t-247 -3z" />
<glyph unicode="&#xf8;" horiz-adv-x="907" d="M618 918l-8 -25l-10 -23q14 -4 23 -8q55 -28 112 -92q66 -73 99 -145q14 -37 26 -115q20 -132 -39 -274q-28 -74 -82 -125q-66 -66 -170 -105q-8 -4 -24 -8q-112 -16 -160 -12q-22 3 -43 8q-18 4 -23 8l-14 6q-5 -7 -8 -20q-2 -5 -4.5 -16t-4.5 -14t-8.5 -6t-17.5 -1 q-26 3 -20 29q0 3 1 6t2.5 6.5t2.5 5.5l10 35q-76 46 -113 88q-1 1 -11.5 12.5t-12 14t-9.5 12.5t-10.5 15t-7.5 14t-7.5 17t-4.5 17q-1 5 -7 14t-7 11l-11 33q0 10 -9 65t-3 84v10q1 9 1.5 30.5t1.5 36.5t5 30q8 31 35 92q7 15 25.5 47t27.5 51q44 84 142 121q20 8 55 19.5 t47 15.5q15 5 43.5 5.5t42.5 4.5q28 5 70 -6l20 49q12 31 45 31q8 1 11 -10q1 -6 1 -39zM793 434v39q0 118 -72 205l-10 14q-25 41 -45 66q-9 14 -36.5 28t-31.5 17l-20 10q-79 -207 -191 -577q-19 -59 -59 -166q4 -2 10 -2q19 -5 42.5 -7.5t40 -3.5t45 -1.5t40.5 -0.5 q49 -2 104 33l23 12q59 28 108 109q52 96 52 225zM238 119q24 -20 38 -27l74 223q108 333 131 402l39 110q-39 2 -145 -12q-65 -11 -119 -65l-37 -37q-56 -53 -80 -107q-7 -16 -14.5 -48t-11.5 -44q-22 -81 6 -211q20 -108 119 -184z" />
<glyph unicode="&#xf9;" horiz-adv-x="669" d="M145 874q0 -8 1 -20t1 -16q-5 -19 -2 -85t2 -85l-6 -107q-5 -84 -2 -186q1 -35 17 -174q7 -59 80 -113q14 -10 28 -16q5 -3 14 -8.5t14.5 -9t14 -6.5t15.5 -3q24 -2 90 12q64 15 100 99q14 32 20.5 70.5t7.5 64t1 71.5l6 89q0 8 1 22t1 25t-2 20q-8 49 -4 148 q3 70 -6 141q-3 19 0 39q5 36 55 24q10 -3 10 -16q1 -5 3.5 -14.5t2.5 -13.5t-2 -17q-1 -3 -1 -6.5t0.5 -8.5t0.5 -8v-155q0 -9 -3 -67t1 -66q6 -45 2 -136q0 -22 -2 -64t-2 -62q0 -31 -12 -58q-7 -14 -10 -26q-5 -41 -41 -70q-10 -8 -26 -23.5t-29.5 -27t-28.5 -17.5 q-10 -5 -37 -14q-2 0 -13 -2t-16 -4q-46 -25 -108 0q-61 21 -99 51q-71 50 -92 131q-15 65 -12 135q1 58 -0.5 172.5t-1.5 147.5q0 63 -13 219q-3 29 23 29q34 4 59 -5zM289 1137q-36 29 -12 43q23 13 57 -2q9 -3 16 -9l96 -73q24 -16 27 -33q4 -9 1 -20.5t-9 -16.5 q-3 -7 -33 -2q-1 0 -16 10q-13 10 -40 31t-48.5 38t-38.5 34z" />
<glyph unicode="&#xfa;" horiz-adv-x="669" d="M145 874q0 -8 1 -20t1 -16q-5 -19 -2 -85t2 -85l-6 -107q-5 -84 -2 -186q1 -35 17 -174q7 -59 80 -113q14 -10 28 -16q5 -3 14 -8.5t14.5 -9t14 -6.5t15.5 -3q24 -2 90 12q64 15 100 99q14 32 20.5 70.5t7.5 64t1 71.5l6 89q0 8 1 22t1 25t-2 20q-8 49 -4 148 q3 70 -6 141q-3 19 0 39q5 36 55 24q10 -3 10 -16q1 -5 3.5 -14.5t2.5 -13.5t-2 -17q-1 -3 -1 -6.5t0.5 -8.5t0.5 -8v-155q0 -9 -3 -67t1 -66q6 -45 2 -136q0 -22 -2 -64t-2 -62q0 -31 -12 -58q-7 -14 -10 -26q-5 -41 -41 -70q-10 -8 -26 -23.5t-29.5 -27t-28.5 -17.5 q-10 -5 -37 -14q-2 0 -13 -2t-16 -4q-46 -25 -108 0q-61 21 -99 51q-71 50 -92 131q-15 65 -12 135q1 58 -0.5 172.5t-1.5 147.5q0 63 -13 219q-3 29 23 29q34 4 59 -5zM401 1171q38 28 45 0q7 -26 -16 -55q-5 -7 -12 -12l-96 -76q-20 -16 -39 -16q-9 -1 -19.5 4.5 t-13.5 11.5q-5 5 6 33q1 3 3 5t5.5 4.5t5.5 4.5q10 7 57.5 43t73.5 53z" />
<glyph unicode="&#xfb;" horiz-adv-x="669" d="M145 874q0 -8 1 -20t1 -16q-5 -19 -2 -85t2 -85l-6 -107q-5 -84 -2 -186q1 -35 17 -174q7 -59 80 -113q14 -10 28 -16q5 -3 14 -8.5t14.5 -9t14 -6.5t15.5 -3q24 -2 90 12q64 15 100 99q14 32 20.5 70.5t7.5 64t1 71.5l6 89q0 8 1 22t1 25t-2 20q-8 49 -4 148 q3 70 -6 141q-3 19 0 39q5 36 55 24q10 -3 10 -16q1 -5 3.5 -14.5t2.5 -13.5t-2 -17q-1 -3 -1 -6.5t0.5 -8.5t0.5 -8v-155q0 -9 -3 -67t1 -66q6 -45 2 -136q0 -22 -2 -64t-2 -62q0 -31 -12 -58q-7 -14 -10 -26q-5 -41 -41 -70q-10 -8 -26 -23.5t-29.5 -27t-28.5 -17.5 q-10 -5 -37 -14q-2 0 -13 -2t-16 -4q-46 -25 -108 0q-61 21 -99 51q-71 50 -92 131q-15 65 -12 135q1 58 -0.5 172.5t-1.5 147.5q0 63 -13 219q-3 29 23 29q34 4 59 -5zM338 1223l-41 -66q-50 -77 -66 -104q-2 -3 -5 -8.5t-4.5 -8.5t-5 -6.5t-7.5 -5.5q-22 -9 -37 2 q-4 4 -4 35q0 3 3.5 9.5t4.5 8.5q6 9 37 59.5t49 75.5q32 49 72.5 50t75.5 -45l102 -140q32 -43 6 -59q-21 -18 -49 20l-100 140l-12 18q-12 17 -19 25z" />
<glyph unicode="&#xfc;" horiz-adv-x="669" d="M145 874q0 -8 1 -20t1 -16q-5 -19 -2 -85t2 -85l-6 -107q-5 -84 -2 -186q1 -35 17 -174q7 -59 80 -113q14 -10 28 -16q5 -3 14 -8.5t14.5 -9t14 -6.5t15.5 -3q24 -2 90 12q64 15 100 99q14 32 20.5 70.5t7.5 64t1 71.5l6 89q0 8 1 22t1 25t-2 20q-8 49 -4 148 q3 70 -6 141q-3 19 0 39q5 36 55 24q10 -3 10 -16q1 -5 3.5 -14.5t2.5 -13.5t-2 -17q-1 -3 -1 -6.5t0.5 -8.5t0.5 -8v-155q0 -9 -3 -67t1 -66q6 -45 2 -136q0 -22 -2 -64t-2 -62q0 -31 -12 -58q-7 -14 -10 -26q-5 -41 -41 -70q-10 -8 -26 -23.5t-29.5 -27t-28.5 -17.5 q-10 -5 -37 -14q-2 0 -13 -2t-16 -4q-46 -25 -108 0q-61 21 -99 51q-71 50 -92 131q-15 65 -12 135q1 58 -0.5 172.5t-1.5 147.5q0 63 -13 219q-3 29 23 29q34 4 59 -5zM545 1092q0 -31 -20.5 -50.5t-51.5 -19.5t-50.5 17t-19.5 46q-1 30 19.5 54t48.5 26q25 2 49.5 -22.5 t24.5 -50.5zM262 1090q0 -29 -19.5 -50.5t-45.5 -21.5q-28 0 -51 25t-21 53q1 23 26 42t52 19q22 -2 40.5 -23t18.5 -44z" />
<glyph unicode="&#xfd;" horiz-adv-x="669" d="M264 -6q-2 6 -2 12q2 42 -0.5 121.5t-1.5 114.5l4 59q5 31 -8 70q-17 41 -61 124t-58 115q-12 28 -39 81t-30 59q-47 96 -52 110q-12 23 9 35q42 5 63 -41q9 -21 39.5 -81t44.5 -95q12 -28 47.5 -79.5t46.5 -74.5l41 -67q4 3 49 61q4 6 25 36t28 41.5t22.5 35t26.5 43 t21 39.5q50 85 94 155q51 29 82 -2q3 -31 -20 -51q-14 -15 -35.5 -49t-36.5 -49q-6 -7 -16 -22.5t-15 -20.5q-47 -60 -124 -176l-72 -111q-14 -23 -14 -76q4 -54 8 -166q0 -42 4 -120q0 -24 -21 -29q-2 0 -12 -3t-16 -3q-4 0 -11 2t-10 2zM350 1167q38 28 45 0 q7 -26 -16 -55q-5 -7 -12 -12l-97 -76q-20 -16 -39 -16q-9 -1 -19 4.5t-13 11.5q-5 5 6 33q1 3 3 5t5.5 4.5t5.5 4.5q10 7 57.5 43t73.5 53z" />
<glyph unicode="&#xfe;" horiz-adv-x="538" d="M98 197l-4 -129q-5 -34 -10 -48q-9 -27 -33 -22q-31 5 -31 37q0 21 3.5 115.5t3.5 144.5q0 164 -2 244v161q0 1 6 148q1 26 16 35.5t37 1.5q6 -3 9 -8t3.5 -8.5t0 -12.5t-0.5 -12v-137q0 -7 1 -22t1 -23q7 0 46 -3.5t57 -3.5q130 0 194 -24q94 -37 115 -139 q18 -101 -14 -168q-49 -106 -164 -115q-47 -3 -189 -8q-28 -4 -45 -4zM102 262q28 2 101 6t110 8q76 11 121 93q19 46 12.5 92t-40 82t-78.5 39q-54 4 -162 8q-52 5 -70 -15v-278q0 -8 6 -35z" />
<glyph unicode="&#xff;" horiz-adv-x="669" d="M264 -6q-2 6 -2 12q2 42 -0.5 121.5t-1.5 114.5l4 59q5 31 -8 70q-17 41 -61 124t-58 115q-12 28 -39 81t-30 59q-47 96 -52 110q-12 23 9 35q42 5 63 -41q9 -21 39.5 -81t44.5 -95q12 -28 47.5 -79.5t46.5 -74.5l41 -67q4 3 49 61q4 6 25 36t28 41.5t22.5 35t26.5 43 t21 39.5q50 85 94 155q51 29 82 -2q3 -31 -20 -51q-14 -15 -35.5 -49t-36.5 -49q-6 -7 -16 -22.5t-15 -20.5q-47 -60 -124 -176l-72 -111q-14 -23 -14 -76q4 -54 8 -166q0 -42 4 -120q0 -24 -21 -29q-2 0 -12 -3t-16 -3q-4 0 -11 2t-10 2zM518 1092q0 -31 -20.5 -50.5 t-51.5 -19.5t-50 17t-19 46q-1 31 19 54.5t48 25.5q25 2 49.5 -22.5t24.5 -50.5zM236 1090q0 -29 -20 -50.5t-46 -21.5q-28 0 -51 25t-21 53q1 23 26 42t52 19q22 -2 41 -23t19 -44z" />
<glyph unicode="&#x152;" horiz-adv-x="1320" d="M848 813q-14 -114 -8 -233l4 -113l2 -2v-25l4 -8q83 -4 125 -2.5t124.5 7.5t123.5 7q19 -31 16 -69q-50 -10 -61 -10q-50 0 -285 -5q-7 0 -20.5 -1t-20.5 -1q-9 -17 -5 -73.5t3 -71.5q-1 -31 -0.5 -47t3 -47t3.5 -47l14 -9q150 -7 269 9q17 2 106 2q31 -3 31 -27 q3 -37 -29 -43q-20 -4 -61 -4l-197 -4q-17 0 -45 -4q-2 0 -7 -1t-7 -1q-46 8 -111 4q-24 0 -31 29v24l-4 139q-14 -20 -42.5 -54t-30.5 -36q-47 -54 -135 -83.5t-164 -26.5q-105 7 -176 51q-44 27 -62 55q-1 2 -35 47q-8 10 -26 41q-21 38 -39 78q-10 26 -11 29 q-35 145 -14 256q12 57 27 84q4 7 38 68t58 89q44 51 86 70q63 31 111 39.5t114 3.5q59 -4 122 -26.5t108 -53.5l12 -8q33 -20 51 -55v61v62q15 15 36 17.5t36 -1.5q122 -7 211 -2h88q36 0 43 2q13 4 36 2.5t36 1.5q7 1 12.5 -4.5t5.5 -13.5q-4 -28 -4 -43q-15 -15 -39 -11 q-46 8 -170 4q-5 -1 -16.5 0t-16.5 0q-102 -4 -155 -8q-7 0 -31 -8zM662 135q102 94 114 234q1 9 1 25.5t1 30.5t4 26q0 2 1 6.5t1 7.5v10q-4 24 -4 35q-1 24 -6.5 49.5t-15 57t-13.5 47.5q0 6 -8 18q-23 52 -84 106q-32 27 -110 46q-159 30 -275 -27q-20 -9 -39.5 -29 t-29.5 -35t-27 -43q-44 -78 -57 -182q-11 -86 -4 -143q6 -56 22 -96q6 -11 14.5 -33t10.5 -25q45 -92 121 -145q21 -17 34 -19q73 -18 154 -18l49 10q58 13 146 86z" />
<glyph unicode="&#x153;" horiz-adv-x="1329" d="M866 813q0 -19 -4.5 -52.5t-6 -52t4.5 -51.5q2 -6 2 -34q0 -25 1 -74t1 -74v-24q4 -16 4 -27h41q25 5 55.5 7t55.5 1t55 0q72 4 107 14q22 6 29 5.5t32 -9.5q4 -8 4.5 -17.5t0 -16t-2 -17t-2.5 -16.5q-16 -8 -18 -8q-74 -6 -152 -9q-10 -1 -67 4q-53 7 -136 0 q0 -2 -3 -12t-3 -16q-4 -105 6 -176q2 -15 2 -90q19 -21 56 -17q36 0 106 4l119 4q3 0 26.5 3.5t37.5 3.5l67 -9q11 -33 -12 -59q-10 0 -30 -1t-30 -1t-30.5 1t-32.5 1q-3 0 -15 1.5t-18 0.5q-58 -8 -215 -8q-35 0 -50 5t-42 26l-4 178q-23 -50 -66 -90q-66 -66 -170 -105 q-8 -4 -24 -8q-112 -16 -160 -12q-22 3 -43 8q-18 4 -23 8q-117 58 -174 119q-1 1 -11.5 12.5t-12 14t-9.5 12.5t-10.5 15t-7.5 14t-7.5 17t-4.5 17q-1 5 -7 14t-7 11l-11 33q0 10 -9 65t-3 84v10q1 9 1.5 30.5t1.5 36.5t5 30q8 31 35 92q7 15 25.5 47t27.5 51 q44 84 142 121q20 8 55 19.5t47 15.5q15 5 43.5 5.5t42.5 4.5q28 6 82 -10q60 -16 70 -21q55 -28 112 -92q44 -51 64 -84q0 24 1 50.5t2.5 59.5t2.5 52q0 19 5 26t24 11q36 8 53 8q26 -3 112 2q17 0 53 -1t54 -1q22 0 65 1t64 1q29 0 41 -16l-4 -41q-3 -9 -12 -14.5 t-19 -2.5q-14 4 -31.5 5.5t-29 1t-31.5 -2.5t-29 -2q-85 -7 -143 -2q-67 7 -111 -8zM793 434v39q0 118 -72 205l-10 14q-25 41 -45 66q-9 14 -36.5 28t-31.5 17q-30 21 -74 24q-11 2 -38 0.5t-37.5 -2.5t-37 -5t-36.5 -5q-65 -11 -119 -65l-37 -37q-56 -53 -80 -107 q-7 -16 -14.5 -48t-11.5 -44q-22 -81 6 -211q20 -108 119 -184q45 -36 100 -51q19 -5 42.5 -7.5t40 -3.5t45 -1.5t40.5 -0.5q49 -2 104 33l23 12q59 28 108 109q52 96 52 225z" />
<glyph unicode="&#x178;" horiz-adv-x="733" d="M379 424q22 11 49 59q12 22 77 136t97 174q34 70 53 94q15 3 34 1.5t32 -14.5l-10 -22q-4 -7 -12.5 -17.5t-14 -20.5t-8.5 -21q-2 -8 -25 -48q-63 -97 -84 -139q-15 -29 -33.5 -58t-42.5 -63.5t-36 -52.5q0 -1 -29 -65q-8 -20 -9.5 -57t-4.5 -50q8 -10 5 -72t-3 -73 q4 -66 4 -99q0 -21 -5.5 -29.5t-25.5 -11.5q-18 -3 -25 3t-12 26q-2 6 -2 21q-4 86 -4 131q3 94 -6 186q-4 24 -12 37q-102 174 -121 201q-14 20 -30.5 41.5t-37 47.5t-31.5 40q-10 11 -47 69q-9 14 -41 72q-6 9 -2 18.5t15 12.5l24 4q20 7 31 -11l68 -102l22 -31 q7 -12 94 -143q14 -20 38.5 -68t37.5 -69q16 -29 33 -37zM594 1096q0 -31 -20.5 -50.5t-51.5 -19.5t-50 17.5t-19 46.5q-1 30 19 53.5t48 25.5q25 2 49.5 -22.5t24.5 -50.5zM311 1094q0 -29 -19.5 -50.5t-45.5 -21.5q-28 0 -51 25t-21 53q1 23 26 42t52 19q22 -2 40.5 -23 t18.5 -44z" />
<glyph unicode="&#x2c6;" horiz-adv-x="403" d="M190 836l-40 -66q-50 -77 -66 -104q-2 -3 -5 -8.5t-5 -8.5t-5.5 -6.5t-7.5 -5.5q-22 -9 -36 2q-5 5 -5 35q0 3 4 9.5t5 8.5q6 9 37 59.5t49 75.5q32 49 72 49.5t75 -45.5l103 -139q32 -43 6 -59q-21 -18 -49 20l-101 140l-12 17q-12 18 -19 26z" />
<glyph unicode="&#x2dc;" horiz-adv-x="563" d="M385 711q-53 -2 -119 45q-6 3 -14.5 11.5t-11.5 10.5q-42 33 -81.5 27t-66.5 -51q-2 -3 -7 -12.5t-8 -13.5t-8.5 -10.5t-11.5 -9t-14 -3.5q-12 -1 -16.5 6.5t-3 19.5t5 22.5t6.5 16.5q43 78 123 90q65 11 125 -39q3 -2 11.5 -10t16.5 -14t13 -9q42 -21 65.5 -15t61.5 40 q8 6 16.5 20t13.5 19q29 26 47 8q5 -4 7 -8t1 -9.5t-2 -8.5t-5 -10.5t-5 -10.5q-66 -99 -139 -102z" />
<glyph unicode="&#x2000;" horiz-adv-x="682" />
<glyph unicode="&#x2001;" horiz-adv-x="1365" />
<glyph unicode="&#x2002;" horiz-adv-x="682" />
<glyph unicode="&#x2003;" horiz-adv-x="1365" />
<glyph unicode="&#x2004;" horiz-adv-x="455" />
<glyph unicode="&#x2005;" horiz-adv-x="341" />
<glyph unicode="&#x2006;" horiz-adv-x="227" />
<glyph unicode="&#x2007;" horiz-adv-x="227" />
<glyph unicode="&#x2008;" horiz-adv-x="170" />
<glyph unicode="&#x2009;" horiz-adv-x="273" />
<glyph unicode="&#x200a;" horiz-adv-x="75" />
<glyph unicode="&#x2010;" horiz-adv-x="466" d="M113 401q-35 4 -50 13q-34 21 3 37q19 8 47 8l209 4q23 0 41.5 -8.5t17.5 -26.5q0 -8 -3.5 -12t-8.5 -4.5t-11.5 -1t-13.5 -0.5q-92 -9 -231 -9z" />
<glyph unicode="&#x2011;" horiz-adv-x="466" d="M113 401q-35 4 -50 13q-34 21 3 37q19 8 47 8l209 4q23 0 41.5 -8.5t17.5 -26.5q0 -8 -3.5 -12t-8.5 -4.5t-11.5 -1t-13.5 -0.5q-92 -9 -231 -9z" />
<glyph unicode="&#x2012;" horiz-adv-x="466" d="M113 401q-35 4 -50 13q-34 21 3 37q19 8 47 8l209 4q23 0 41.5 -8.5t17.5 -26.5q0 -8 -3.5 -12t-8.5 -4.5t-11.5 -1t-13.5 -0.5q-92 -9 -231 -9z" />
<glyph unicode="&#x2013;" horiz-adv-x="657" d="M113 401q-35 4 -50 13q-34 21 3 37q19 8 47 8q42 1 217 2t217 2q23 0 41.5 -8.5t17.5 -26.5q0 -8 -3 -12t-8.5 -4.5t-12 -1t-13.5 -0.5q-29 -3 -198.5 -6t-257.5 -3z" />
<glyph unicode="&#x2014;" horiz-adv-x="874" d="M113 401q-35 4 -50 13q-34 21 3 37q19 8 47 8q42 1 319.5 2t319.5 2q23 0 41.5 -8.5t17.5 -26.5q0 -8 -3.5 -12t-8.5 -4.5t-11.5 -1t-13.5 -0.5q-27 -3 -292.5 -6t-368.5 -3z" />
<glyph unicode="&#x2018;" horiz-adv-x="274" d="M119 770q6 -3 19.5 -7.5t17.5 -6.5q32 -19 41 -45t-7 -56q-15 -27 -42 -35t-54 9q-11 8 -21.5 24.5t-11.5 28.5q-12 69 14.5 125.5t80.5 89.5q14 9 21 -1.5t-1 -21.5q-6 -14 -25.5 -37t-25.5 -36q-2 -3 -4 -10.5t-3 -13.5t1 -7z" />
<glyph unicode="&#x2019;" horiz-adv-x="241" d="M129 750q-7 3 -20.5 7.5t-16.5 6.5q-69 42 -35 100q15 27 42.5 35.5t54.5 -8.5q10 -7 20 -24t12 -29q12 -69 -14 -125.5t-80 -89.5q-14 -9 -21 1t1 21q6 14 25.5 37.5t25.5 36.5q2 3 4 10.5t3 13.5t-1 7z" />
<glyph unicode="&#x201a;" horiz-adv-x="243" d="M129 -4q-7 3 -20.5 7.5t-16.5 6.5q-32 19 -41.5 45t6.5 56q15 27 42.5 35t54.5 -9q10 -7 20 -24t12 -29q12 -69 -14 -125.5t-80 -89.5q-14 -9 -21 1t1 21q6 13 25.5 37t25.5 37q2 3 4 10.5t3 13.5t-1 7z" />
<glyph unicode="&#x201c;" horiz-adv-x="456" d="M301 770q7 -3 20.5 -7.5t16.5 -6.5q32 -19 41.5 -45t-6.5 -56q-15 -27 -42.5 -35t-54.5 9q-10 7 -20 24t-12 29q-12 69 14 125.5t80 89.5q14 9 21 -1.5t-1 -21.5q-6 -14 -25.5 -37t-25.5 -36q-2 -3 -4 -10.5t-3 -13.5t1 -7zM102 770q6 -3 19.5 -6.5t17.5 -5.5 q31 -19 38.5 -46.5t-9.5 -56.5q-14 -22 -37 -30.5t-45 0.5q-51 23 -51 98q0 117 100 178q14 9 21.5 -1t-0.5 -21q-6 -13 -26 -38t-26 -38q-2 -3 -3 -11t-1 -15t2 -7z" />
<glyph unicode="&#x201d;" horiz-adv-x="456" d="M129 750q-7 3 -20.5 7.5t-16.5 6.5q-69 42 -35 100q15 27 42.5 35.5t54.5 -8.5q10 -7 20 -24t12 -29q12 -69 -14 -125.5t-80 -89.5q-14 -9 -21 1t1 21q6 14 25.5 37.5t25.5 36.5q2 3 4 10.5t3 13.5t-1 7zM328 750q-6 3 -20 6.5t-17 5.5q-31 19 -38.5 46t9.5 56 q14 22 37 31t45 0q51 -23 51 -98q0 -118 -100 -179q-14 -9 -21.5 1.5t0.5 21.5q6 13 26 37.5t26 38.5q2 3 3 11t1 15t-2 7z" />
<glyph unicode="&#x201e;" horiz-adv-x="456" d="M129 -4q-7 3 -20.5 7.5t-16.5 6.5q-32 19 -41.5 45t6.5 56q15 27 42.5 35t54.5 -9q10 -7 20 -24t12 -29q12 -69 -14 -125.5t-80 -89.5q-14 -9 -21 1t1 21q6 13 25.5 37t25.5 37q2 3 4 10.5t3 13.5t-1 7zM328 -4q-6 3 -20 6.5t-17 5.5q-31 19 -38.5 46.5t9.5 56.5 q14 22 37 30.5t45 -0.5q51 -23 51 -98q0 -117 -100 -178q-14 -9 -21.5 1t0.5 21q6 14 26 38.5t26 37.5q2 3 3 11t1 15t-2 7z" />
<glyph unicode="&#x2022;" horiz-adv-x="0" d="M332 264q-53 -7 -80.5 26t-32.5 87q-4 38 2 53q13 29 41.5 51.5t65.5 27.5t73 -22q39 -30 53 -73t-3 -88q-7 -23 -34.5 -41.5t-54.5 -20.5h-30z" />
<glyph unicode="&#x2026;" horiz-adv-x="651" d="M174 45q0 -25 -21.5 -44t-48.5 -19q-25 0 -44 24.5t-19 56.5q2 22 26 41.5t48 18.5q25 0 42.5 -23.5t16.5 -54.5zM391 45q0 -25 -21.5 -44t-47.5 -19q-25 0 -44.5 24.5t-19.5 56.5q2 22 26 41.5t48 18.5q25 0 42.5 -23.5t16.5 -54.5zM608 45q0 -25 -21.5 -44t-47.5 -19 q-25 0 -44.5 24.5t-19.5 56.5q2 22 26 41.5t48 18.5q25 0 42.5 -23.5t16.5 -54.5z" />
<glyph unicode="&#x202f;" horiz-adv-x="273" />
<glyph unicode="&#x2039;" horiz-adv-x="317" d="M287 231q-6 -2 -16.5 -10t-16.5 -8q-5 1 -9.5 4.5t-10 10t-7.5 8.5q-12 13 -51.5 54t-68 75t-48.5 67q-16 30 2 51q25 36 152 211q10 17 33 21q16 8 22 -2q4 -4 4.5 -14.5t-2.5 -16.5q-17 -28 -67 -94q-9 -13 -37 -48.5t-39 -56.5q-18 -28 2 -55q16 -21 57.5 -70.5 t59.5 -74.5q3 -5 18.5 -22t22.5 -30z" />
<glyph unicode="&#x203a;" horiz-adv-x="317" d="M41 702q6 3 17 11t16 8q5 -1 9.5 -4.5t9.5 -10t7 -8.5q12 -13 51.5 -54t68 -75t48.5 -67q16 -30 -2 -51q-39 -57 -151 -211q-10 -17 -33 -21q-16 -8 -23 2q-4 4 -4.5 14.5t2.5 16.5q13 21 68 94q9 13 37 48.5t39 56.5q18 28 -2 55q-16 21 -57.5 70.5t-59.5 74.5 q-3 6 -18.5 22t-22.5 29z" />
<glyph unicode="&#x205f;" horiz-adv-x="341" />
<glyph unicode="&#x20ac;" horiz-adv-x="745" d="M10 442q-34 4 -49 13q-35 21 2 37q19 8 47 8h39l6 24q27 95 39 127q7 21 8 23q84 134 174 184q40 22 93 29q74 10 127 -2q3 -1 31.5 -5.5t43.5 -11.5l66 -32q49 -21 61 -70q-5 -13 -15 -21.5t-17.5 -11t-24.5 -8.5q-12 8 -14 14q-17 35 -66 64q-123 75 -246 6 q-7 -4 -21 -12.5t-23 -13.5t-20 -13.5t-20 -17.5q-22 -19 -40.5 -49.5t-27 -51.5t-22.5 -59q-19 -46 -22 -90q59 0 100 2q23 0 42 -8.5t18 -26.5q0 -8 -3.5 -12t-8.5 -4.5t-11.5 -1t-13.5 -0.5q-40 -6 -131 -9q-4 -25 0 -75q77 0 118 2q59 3 62 -29q1 -5 -1 -8t-7.5 -5 t-10.5 -2.5t-16 -1t-18 -1.5q-30 -3 -64 -3q-9 0 -27 -1t-26 -1q0 -6 4 -18q2 -7 3.5 -22t5 -25.5t11.5 -18.5q6 -23 22 -45.5t39 -48.5t32 -39q2 -5 16 -10q90 -53 172 -31q6 2 14 2q107 7 205 113l10 12q5 6 15 8.5t16 -1.5q19 -11 19 -27q0 -22 -15 -37q-8 -7 -25.5 -23 t-27.5 -25t-25.5 -21t-29.5 -21q-65 -40 -123 -43q-93 -5 -201 24q-21 6 -42 22.5t-30 26t-30 33.5q-4 5 -16.5 18.5t-21 25t-12.5 24.5t-19 34t-19 34q-9 20 -21 75q-27 -2 -80 -2q-36 0 -39 17q-3 30 37 37h15q10 0 30.5 1t30.5 1v22q-2 18 -2 53h-29z" />
<glyph unicode="&#x2122;" horiz-adv-x="1734" d="M952 752q-12 -15 -22 -56q-6 -23 -20.5 -85t-24.5 -95q-39 -130 -47 -184q-9 -48 -34 -138.5t-34 -138.5q-4 -15 -8 -53q-5 -12 -54 -11q-37 1 -34 11l10 35l37 123q18 56 20 86q0 18 13 61q11 38 33.5 108t31.5 103q45 177 86 283q5 16 14 45.5t13 42.5q3 11 19.5 16.5 t27.5 -2.5q12 -9 14 -18q5 -15 13.5 -47t13.5 -47l61 -207q32 -129 37 -148l78 -282q0 -2 1.5 -4.5t4.5 -7t4 -7.5q16 52 107 371q15 54 32.5 114.5t39.5 133t34 112.5l15 8q29 13 36 10.5t21 -30.5q9 -21 12 -41q11 -60 31 -133q34 -121 47 -174q23 -114 45 -176 q19 -62 31 -123q9 -37 29 -100.5t28 -92.5q3 -16 -9 -21t-42 -5q-18 0 -21 6q-2 9 -11 54t-15 69q-58 230 -70 276l-20 66l-68 260q-4 12 -4 18q-13 3 -16 -10q-18 -71 -39 -141q-40 -127 -60 -217q-4 -18 -10.5 -38.5t-16 -46t-14.5 -40.5q-6 -18 -6 -19l-30 -143 q-2 -7 -4.5 -15.5t-6.5 -19t-6 -16.5q-6 -22 -28 -31q-13 -6 -26.5 -2.5t-19.5 16.5q-5 10 -10.5 31.5t-7.5 26.5q-4 26 -8 37q-8 20 -70 215q-17 59 -33 106l-36 100l-23 91zM371 827q-18 -31 -11 -73q5 -35 5 -43q4 -398 4 -619q0 -17 -2 -48t-2 -46q-14 -14 -39 -10 q-11 2 -19 9t-8 17v70q4 33 2 47q-9 146 -6 299q1 29 0.5 83t0.5 98t5 83q1 29 1 39t-2 39t-3 39q0 4 -4 12q-2 1 -4.5 3.5t-3.5 2.5q-93 0 -138 -2q-20 0 -56 -3.5t-46 -4.5q-15 -1 -25 9t-10 24t7.5 22.5t19.5 8.5q16 2 57 2q19 0 51 -1t57 -1t46 2q7 0 18.5 1t14.5 1 q16 0 52 -1t54 -1q126 4 186 4q34 0 48 -4q9 -1 14.5 -9t3.5 -16q-4 -20 -18 -20q-10 0 -32 -2t-32 -2q-6 0 -21 1t-22 1q-17 -1 -143 -11z" />
<glyph unicode="&#x25fc;" horiz-adv-x="880" d="M0 881h881v-881h-881v881z" />
<glyph unicode="&#xfb01;" horiz-adv-x="929" d="M473 410l8 -41q-20 -17 -51 -17q-10 0 -35 -1t-42.5 -0.5t-33.5 3.5q-22 7 -30.5 3t-28.5 -5h-43t-53 -4q-9 -8 -5.5 -48t3.5 -46q-3 -20 2 -88q2 -31 -2 -92q0 -10 3.5 -27.5t4.5 -28t-4 -28.5q-10 -3 -29.5 3t-27.5 -1q-7 0 -15 12q0 1 -1 4t-1 4q3 39 -2 115.5 t-2 114.5q3 17 0.5 98t-2.5 98v131q-2 74 -2 219v97q3 1 9.5 2.5t11 2.5t8.5 1h211q34 0 123 -1.5t151 -0.5t115 6q56 7 88 -4l16 -43q-8 -8 -12 -8q-55 -11 -92 -13q-427 0 -527 -2h-30q-8 -42 -5.5 -203t11.5 -196q61 -5 89 -5.5t68.5 0.5t77.5 1q56 0 76 -12zM827 6 q-5 -6 -11.5 -8.5t-11 -2.5t-13 0.5t-11.5 0.5q-5 5 -17 15t-18 16v22q9 45 5 125q-12 259 -7 371l7 88q2 22 15.5 31t35.5 2q3 -1 5.5 -2.5t5.5 -4.5t5 -4q6 -67 0 -135q-6 -54 -6 -209q-2 -84 16 -305z" />
<glyph unicode="&#xfb02;" horiz-adv-x="1146" d="M473 410l8 -41q-20 -17 -51 -17q-10 0 -35 -1t-42.5 -0.5t-33.5 3.5q-22 7 -30.5 3t-28.5 -5h-43t-53 -4q-9 -8 -5.5 -48t3.5 -46q-3 -20 2 -88q2 -31 -2 -92q0 -10 3.5 -27.5t4.5 -28t-4 -28.5q-10 -3 -29.5 3t-27.5 -1q-7 0 -15 12q0 1 -1 4t-1 4q3 39 -2 115.5 t-2 114.5q3 17 0.5 98t-2.5 98v131q-2 74 -2 219v97q3 1 9.5 2.5t11 2.5t8.5 1h211q34 0 123 -1.5t151 -0.5t115 6q56 7 88 -4l16 -43q-8 -8 -12 -8q-55 -11 -92 -13q-427 0 -527 -2h-30q-8 -42 -5.5 -203t11.5 -196q61 -5 89 -5.5t68.5 0.5t77.5 1q56 0 76 -12zM723 678 q7 5 13.5 7.5t14 1t11.5 -2.5t12.5 -5t11.5 -5q7 -13 7 -53q-5 -37 -1.5 -277.5t3.5 -267.5q2 0 10.5 -3t11.5 -3l109 -7q3 0 9 2.5t9 2.5h49q46 -9 92 0q3 0 9.5 1t9.5 1q13 0 22 -8.5t11 -22.5v-19q0 -9 -6.5 -15.5t-14.5 -8.5q-27 0 -39 4q-40 7 -67 0q-22 -8 -39 -2 q-32 8 -117 4q-22 -1 -29.5 -1t-28 2t-28.5 3q-32 3 -35 35q-2 23 -2 63q-8 211 -8 437v137z" />
</font>
</defs>
</svg>
