<?xml version="1.0" standalone="no"?>
<!DOCTYPE svg PUBLIC "-//W3C//DTD SVG 1.1//EN" "http://www.w3.org/Graphics/SVG/1.1/DTD/svg11.dtd" >
<svg xmlns="http://www.w3.org/2000/svg">
<metadata></metadata>
<defs>
<font id="hms_gilbert_catchwordsregular" horiz-adv-x="2525" >
<font-face units-per-em="2048" ascent="1536" descent="-512" />
<missing-glyph horiz-adv-x="317" />
<glyph horiz-adv-x="0" />
<glyph horiz-adv-x="682" />
<glyph unicode=" "  horiz-adv-x="317" />
<glyph unicode="&#x09;" horiz-adv-x="317" />
<glyph unicode="&#xa0;" horiz-adv-x="317" />
<glyph unicode="!" horiz-adv-x="1798" d="M1126 416q-54 -269 -129 -269q-32 0 -53 34.5t-29 74.5q-4 -6 -22 -38t-29 -48.5t-31.5 -33.5t-41.5 -17q-14 -1 -25.5 2.5t-21 12.5t-17 18.5t-14 24.5t-10.5 26t-8.5 28.5t-6.5 26.5t-4.5 25t-3.5 20q-33 5 -41 -33q-10 -47 -36.5 -113.5t-72 -128t-88.5 -61.5 q-26 0 -48 25t-29 53q-13 -40 -40.5 -73t-64.5 -33q-48 0 -82 37.5t-49 96t-21 107.5t-6 94q0 108 33.5 199.5t93.5 97.5q34 6 58 -21t24 -63q0 -45 -18.5 -71.5t-48.5 -14.5q-21 -59 -21 -133q2 -75 20 -152t44 -77q24 0 41 37.5t14 50.5q-12 58 -12 156q0 73 18 133.5 t45 60.5q45 0 41 -162q-1 -20 -3.5 -43.5t-5.5 -43t-6 -36.5t-5 -28l-2 -10q5 -21 19.5 -37.5t33.5 -16.5q31 0 62.5 61t41.5 103l-20 19q-36 36 -45 116q-4 27 0 71.5t20.5 86t42.5 41.5q32 0 51.5 -52t21 -105.5t-0.5 -84.5q13 -3 26 2t13 13q2 31 42 87t66 56 q13 0 24 -13t11 -24q0 -15 -16.5 -51t-16.5 -68q0 -33 15.5 -54t32.5 -21q31 0 50 27.5t11 56.5q-17 56 -19 130.5t3 131.5l-41 10q-52 12 -49 -4q3 -19 -11.5 -32t-34.5 -13q-32 0 -57.5 25.5t-25.5 62.5q0 32 21 55.5t54 20.5q48 -3 148 -39q3 14 11 61t15 70q7 19 23 31 q19 15 31.5 9t15.5 -32q8 -51 8 -158q66 -12 123 -12q0 5 -0.5 22.5l-1 35t-0.5 39.5t1 41t3.5 35t7 24.5t11.5 7.5q32 -6 44.5 -21.5t14.5 -48.5l4 -60t6 -71q9 0 36 1t30 1q8 1 6 -5q-1 -4 -6 -9q-7 -7 -62 -23q1 -14 3 -52.5t5 -68t7 -55.5q110 215 159 215q9 0 15.5 -3 t10.5 -10.5t6.5 -13t3.5 -17t1 -16.5v-17v-13q0 -164 9.5 -247t35.5 -83q15 0 41 26.5t61 86.5t62 137q39 114 41 121q0 2 1 9q3 31 10 31q2 0 5 -3q9 -9 11 -19t-2 -27.5t-4 -19.5q-9 -45 -21 -91t-34.5 -108t-47.5 -108t-61 -79t-74 -33q-37 0 -59 33t-27 86.5t-4.5 104 t4 102.5t2.5 65q-47 -51 -69 -100.5t-29 -129.5q-1 -6 -2.5 -36t-3.5 -44t-8 -35.5t-15 -35.5q-16 -27 -45 -31q-13 0 -22.5 10.5t-15.5 29.5t-10 39.5t-6 47.5t-3 45.5t-1.5 40.5t-0.5 27q-2 0 -5 1t-4 1zM1016 285q44 54 76 167.5t22 186.5q-15 -2 -61.5 -6t-61.5 -6 q0 -23 -4.5 -85t-6 -102t6.5 -86t29 -69zM580 336q0 48 -5 101t-14 48q-20 -11 -11 -74t30 -75z" />
<glyph unicode="&#x22;" horiz-adv-x="851" d="M223 422q68 14 84 14q18 -2 27 -8.5t16 -26.5q11 -32 -4 -49q-22 -24 -45.5 -25.5t-46.5 9t-29 10.5q-13 -24 -17 -47.5t-1.5 -38.5t8.5 -24q21 15 68 39t112 56t97 48q1 1 3 13.5t6 28t9 21.5q6 8 9.5 12.5t10.5 12t12 10.5t11 5.5t11.5 0.5t10.5 -8q3 -3 3 -67 q71 35 121.5 56.5t50.5 10.5q-5 -35 -15.5 -52.5t-42.5 -35.5q-47 -23 -114 -45q-4 -85 0 -125q6 -47 40 -47q64 0 99 43q4 5 22 33q2 4 4 -4q4 -23 -6.5 -59t-40 -67.5t-69.5 -31.5q-41 0 -90 45q-57 -102 -152 -102q-108 -3 -191 66.5t-83 172.5q0 26 12.5 58.5t30.5 50.5 q4 4 -2 10q-45 45 -48 123q-5 75 34 142.5t106 104t139 27.5q81 -6 132.5 -63.5t29.5 -143.5q-14 -54 -40 -80t-54 -26q-40 0 -50 6q-3 3 -4 6.5t1 7.5t4.5 7.5t6 8t5.5 7.5q4 6 22.5 29.5t26.5 38.5q29 49 -5 81.5t-83 32.5q-83 0 -129 -57t-43 -129q0 -38 20 -86zM487 319 q-16 -6 -73.5 -28.5t-98 -38.5t-57.5 -25q-17 -8 -17.5 -18t11.5 -21q12 -15 46.5 -25.5t63.5 -8.5q59 0 92 52.5t33 112.5z" />
<glyph unicode="#" horiz-adv-x="1185" d="M473 635l242 55q27 113 39 160q7 23 21.5 79.5t27.5 105.5t34 109.5t43.5 103.5t54 73t66.5 31q61 0 45 -166q-17 -168 -88 -355q-24 -64 -49 -110q-3 -5 -16 -37q4 0 37 1t57.5 0.5t36.5 -3.5q59 -9 49 -53q-16 -41 -39 -43q-25 0 -75.5 1t-73.5 1q-30 0 -31 -2 q-34 -67 -50.5 -103t-36 -95.5t-24.5 -108.5q-12 -109 -12 -113q-2 -22 4 -34t29 -15q40 29 84 104q17 30 141 236q19 32 58 49q36 15 36 -8q0 -7 -11 -32t-19 -38q-140 -222 -242 -401q-32 -55 -57.5 -71.5t-67.5 -16.5q-33 0 -39 45q-4 53 -4 157q0 8 4 66 q-11 -10 -27.5 -23t-28 -23t-20.5 -20q-50 -50 -139 -96.5t-145 -46.5q-113 0 -103 104q2 15 9 43t10 41q-34 2 -56 20t-31 49.5t-11.5 56.5t-2.5 61q0 60 20.5 154.5t55.5 202.5t87.5 216.5t111.5 196.5t132 143t144 55q44 0 78.5 -27t34.5 -75q0 -122 -74 -275t-184 -288 q-5 -5 -16.5 -19t-18.5 -22zM684 530l6 56q-32 -1 -80.5 -4.5t-89.5 -7t-80 -6t-63 -1.5t-27 6q-8 12 10.5 39t75.5 95q102 120 194.5 283t92.5 237q0 54 -39 51q-88 0 -178.5 -102.5t-153.5 -244.5t-103 -287t-40 -236q0 -78 49 -78q37 0 45 14q29 40 45 60t45.5 51.5 t60 49t64.5 23.5q99 19 166 2zM578 395q-9 -8 -18.5 -15t-21.5 -14t-20 -12t-22.5 -12.5t-21 -11t-23 -11t-21.5 -9.5t-24.5 -11t-22.5 -10q-18 -6 -33 -21q-43 -63 -53 -145q-3 -41 41 -41q135 0 307 207q6 6 10 26q15 134 21 166q-11 -15 -25 -27.5t-36.5 -29.5t-36.5 -29 zM991 1251q-2 0 -5.5 1t-4.5 1q-19 -19 -33 -47q-75 -163 -153 -512q-1 -3 0 -4.5t3 -1.5h5h4h5.5h5.5h5t4.5 0.5t4.5 0.5t4.5 1t4 2t4 2.5t3 3.5t2.5 4q75 136 108 284t33 265zM539 457q-17 13 -37 8t-43 -25.5t-39.5 -39.5t-26.5 -35q18 -2 58.5 15.5t70 41t17.5 35.5z M768 510q11 11 25 40t14 36q0 8 -27 4q-12 -40 -12 -80z" />
<glyph unicode="$" horiz-adv-x="894" d="M475 438l51 15q52 14 127 -21q18 -9 22.5 -31t-3.5 -43l-29 -84q-22 -68 -88 -149q-8 -8 -44 -47.5t-54 -61.5q-17 -24 -17 -49q-3 -24 -5 -52t-4 -61.5t-3 -52.5v-10l-16 -18q-1 1 -9 8t-8 12l-6 125v29l-33 -19l-106 -59q-50 -23 -96 20q-40 40 -48 84q-5 27 0 38.5 t29 29.5q10 6 20 14.5t23 20.5t17 16l28 31l10 -6l-36 -109q-10 -24 -13 -43q0 -15 13 -24q10 -3 24 6q9 7 24 22t23 21q40 34 82 63q47 37 47 86q-1 42 0.5 119.5t1.5 103.5q-25 9 -69 -14q-34 -17 -69 -15.5t-60 21.5q-29 26 -37 61.5t10 73.5q15 35 68 113 q6 10 32.5 47.5t36.5 59.5q35 67 90 114q25 20 25 56q0 25 1 77t1 78q0 61 35 105q10 15 39 35q3 0 8 -5l-8 -251q143 51 151 53q28 8 47 8q45 2 70 -22t21 -66q-19 -195 -179 -283q-12 -6 -16 -6q-2 -1 -4 -1h-3.5t-3.5 0.5t-3 0.5q-18 28 -11 58.5t37 54.5q8 6 24.5 19 t26 21t22 20t21.5 24q21 28 46 106q2 3 -4.5 11.5t-12.5 9.5q-12 2 -33 -6q-110 -58 -184 -127q-24 -18 -27 -56q-4 -84 -16 -268q0 -3 4 -31zM446 154q32 20 56 44t43.5 58t28 53t26.5 62l-16 20q-30 21 -88 6q-11 -4 -17.5 -11t-8 -12t-3 -17t-2.5 -15q0 -2 -5.5 -28 t-6.5 -40q-3 -29 -7 -120zM416 430v221l-13 4q-85 -110 -102 -135q-35 -54 -10 -106q40 -5 66 -2t59 18z" />
<glyph unicode="%" horiz-adv-x="1753" d="M215 801q-7 -3 -18.5 -9t-17 -9t-12.5 -7.5t-11 -9.5q-6 -7 -12.5 -27t-8.5 -24q-54 45 -14 100q49 71 147 68q52 -3 94 16q14 9 23 6q39 -5 45 -12q4 -8 2 -22t-8 -23q-18 -24 -17.5 -42.5t13.5 -47.5q48 -105 166 -275q7 -10 22.5 -33.5t28 -40t25.5 -30.5 q16 -16 32 -38t26 -38t27 -43.5t25 -40.5q102 30 115 1q5 -10 -4 -27q-6 -7 -17.5 -12.5t-29 -11t-21.5 -7.5q-35 -14 -84 -31t-78 -29q-3 -1 -13 -7q-44 -23 -46 -5q0 14 12 22.5t31 15.5t25 11l69 49q-37 11 -69 35t-51 47t-44.5 56.5t-42.5 50.5l-180 -53q0 -7 -1 -25.5 t-1 -28.5q0 -32 4 -90q3 -45 41 -61q35 -13 37 -39t-29 -49q-9 -6 -19.5 -9.5t-24.5 -6t-23 -5.5q-39 -14 -64 -21.5t-47 -12t-34.5 -2t-16.5 11.5q-11 25 6.5 37.5t118.5 56.5q-12 34 -25 103t-24 104q-24 0 -34.5 -4.5t-10 -10t4 -15.5t3.5 -15q-46 -12 -60 20 q-9 22 -3 45t24 33q8 4 37 10.5t41 11.5q2 23 2.5 47t-0.5 51.5t-1.5 48t-3.5 53t-4 48t-5 52t-5.5 46.5t-6 49t-5.5 44zM1354 422q-12 6 -23.5 9t-25.5 2.5t-23 -1t-26 -5.5t-23 -6.5t-25.5 -9t-23.5 -8.5q-45 -14 -70 -12.5t-61 17.5q18 21 59 26t49 8q24 11 113 37 q-8 45 -18.5 142t-26 169.5t-45.5 135.5q-41 5 -49 8q-17 8 -17 25t17 24q22 8 22 31q0 13 9 20t20 4q23 -1 30 -0.5t28 6.5t28 7q113 23 184 -80q82 -124 82 -242q0 -63 -25 -117q-36 -76 -124 -131q-7 -5 -12.5 -13.5t-12.5 -24t-10 -21.5zM1102 573q-10 25 -38 91.5 t-42 101.5q-11 28 -23 60.5t-25.5 71.5t-21.5 60q-9 -1 -22.5 -4.5t-24 -6.5t-21.5 -2.5t-18 7.5q-5 5 4 12t19 9q27 8 37.5 18t17.5 39q-6 16 0.5 26.5t18 9t18.5 -14.5q6 -13 18 -14.5t27 5t43 21.5q13 9 16 -4q0 -9 1 -13.5t-4 -11t-7.5 -9t-9 -7.5t-8.5 -6 q-54 -38 -29 -103q18 -46 49 -132t37 -101q51 -134 53 -139q7 -14 7 -19q-12 -31 -15 -33q-7 -4 -17.5 -3.5t-17.5 3.5q-24 15 -53 21q-26 6 -49 29q-121 116 -150 149q-19 22 -37.5 46t-45.5 61.5t-35 48.5q-23 34 -60 47q103 -217 172 -477l54 14l8 -6q-10 -11 -31.5 -37 t-32.5 -39q-29 -10 -67 -20q-22 -5 -27 0t-7 14t1 14q5 8 12.5 16t17.5 18.5t15 16.5l-207 465q-33 -15 -55 -22q-23 -6 -32.5 3t-6.5 32q0 45 35 53q2 0 92 12q5 1 13.5 1t15.5 1t12 4q38 22 68 17.5t57 -37.5q20 -23 63.5 -74t69 -81.5t61 -75t62.5 -83.5q12 -16 41 -45 q1 0 2 1t2 1zM1237 973q53 -99 76.5 -204t36.5 -243q60 12 75 56q24 72 27 127q5 109 -88 233q-11 17 -70 31q-6 2 -14 2t-20.5 -1t-22.5 -1zM317 807l-51 -8q36 -87 50 -178t22 -215q32 -5 86 13.5t63 20.5q-19 41 -59.5 113t-68.5 133t-42 121zM1651 217q-93 0 -111 2 q-157 20 -233 53q-27 11 -33 19q-12 20 -8 39q2 4 7 7t12.5 6t10.5 5h11q78 -19 117 -29t101.5 -31.5t110.5 -47.5l13 -13q2 0 2 -10zM1159 -80q-4 2 -12.5 4t-11.5 4q-93 67 -119 199q-1 5 0.5 13.5t1.5 11.5q3 26 29 26q31 4 34 -18q4 -24 16.5 -47.5t30 -49t25.5 -40.5 q9 -19 18 -80q0 -3 -2 -6.5t-5.5 -8.5t-4.5 -8zM459 1343q19 -22 58.5 -59.5t67.5 -71t46 -71.5q-31 -4 -33 -4q-94 32 -123 47q-40 22 -45 69t29 90zM1184 244q5 -2 12 -3t11 -2t7 -3l228 -160q2 -1 2 -19q-73 9 -125.5 25.5t-95.5 54.5q-29 26 -37.5 49.5t-1.5 57.5z M799 1401q2 -5 10.5 -20t9.5 -23q8 -99 10 -158q0 -40 -30 -45q-28 -5 -47 29q-30 49 -16.5 113.5t63.5 103.5zM1040 1401q0 -5 1 -12.5t1 -12t-2 -8.5q-48 -133 -73 -190q-2 -6 -7 -12t-8.5 -9.5t-12.5 -11t-11 -8.5q-3 -3 -11 -3.5t-12 1.5q-9 9 -4 22q67 183 70 191 q12 28 24.5 37.5t44.5 15.5z" />
<glyph unicode="&#x26;" horiz-adv-x="1052" d="M395 164q44 0 146 172q-2 2 -19 10q-37 15 -12 33q7 6 24 13t29 13t12 9q0 118 19 252t53 231q23 65 43.5 92.5t42.5 22.5q9 -5 33 -33q6 -6 2 -18q-4 -17 -16.5 -66.5t-16.5 -67.5t-14 -61t-14 -64.5t-10.5 -58.5t-9.5 -62t-5 -56t-2 -60q13 8 108.5 78t149.5 92 q5 2 8.5 -1.5t3 -9t-5.5 -8.5q-178 -137 -217 -170q-54 -46 -51 -110q0 -112 6 -139q5 -17 24 -14.5t40 14.5t32 24q9 9 8 -8q0 -44 -34 -118q-31 -70 -66 -87q-32 -15 -58.5 -2t-35.5 47q-26 108 -17 221q0 13 -2 23q-7 -11 -44.5 -75t-65 -105.5t-68 -81t-71.5 -39.5 q-42 0 -64 39q-29 53 -10 147q3 15 20 64l-22 -4q-59 -24 -92 -2t-44 68.5t-7.5 97.5t18.5 86q24 59 68.5 130t102 139.5t127 114.5t130.5 46t41 -80q-37 -161 -172 -326q-13 -17 -31.5 -22t-31 -1.5t-21.5 9.5q85 77 133 160q80 139 80 202q-34 -8 -63 -27.5t-45 -37 t-40 -47.5q-62 -81 -131 -234q-30 -65 -24 -133q4 -39 28 -41q30 -4 50 12q31 31 57 78q17 29 42 51.5t48 22.5q19 0 36 -14t17 -31t-14.5 -37.5t-28.5 -32.5q-70 -63 -98 -168q-6 -17 -3 -39t15 -22z" />
<glyph unicode="'" horiz-adv-x="1318" d="M498 932q-13 89 -13 133q0 53 37 53q14 0 27 -13t23 -40t18 -51.5t15 -64t10.5 -60t8.5 -56.5t5 -38q2 -8 2 -25q0 -37 -11.5 -55.5t-41.5 -18.5q-23 0 -33 23q-27 60 -101.5 133.5t-111.5 73.5q-29 0 -50.5 -24.5t-21.5 -61.5q0 -39 21.5 -72t70 -78.5t60.5 -58.5 q99 -112 131 -158q69 -103 69 -194q0 -62 -26.5 -119t-84 -97t-134.5 -40q-110 0 -187.5 58.5t-77.5 151.5q0 31 23 84.5t55 95.5t53 42q18 0 29.5 -9t11.5 -22q0 -11 -17 -40t-17 -44q0 -71 67.5 -135t138.5 -64q31 0 49.5 15.5t18.5 40.5q0 58 -127 225q-32 41 -99 118.5 t-98 118.5q-30 35 -30 99q0 55 19 108t59 90t92 37q16 0 39.5 -6.5t39.5 -13.5t46.5 -21.5t42.5 -19.5zM971 961q0 -13 -1 -36t-1 -32q0 -110 30 -356q2 -13 4.5 -41.5t4 -42t5.5 -38.5t8 -38t11 -33t15 -31t20.5 -25t27.5 -21.5t35 -14t44 -8.5q43 -3 43 -45 q0 -29 -31.5 -44.5t-65.5 -15.5q-14 0 -43 3t-43 3q-158 0 -239 -51q-13 -8 -27 -8q-9 0 -19 7.5t-10 19.5q0 20 18 33.5t43.5 24t51 25.5t43.5 47.5t18 80.5q0 95 -11 211t-22.5 193.5t-33.5 209.5l-15 25q-20 -20 -30 -83t-10 -108v-24q0 -34 -14 -64.5t-40 -30.5 q-17 0 -26 17.5t-9 34.5q0 23 6.5 69.5t6.5 71.5q0 33 -11.5 103t-11.5 104q0 14 13 26.5t30 12.5q13 0 53.5 -17.5t63.5 -17.5q84 0 201 37q9 4 29 27.5t36 23.5q13 0 24 -20t11 -48q0 -17 -4 -49t-4 -47q0 -83 33 -211q0 -2 3 -10t3 -12q0 -10 -10 -18.5t-20 -11.5l-11 -3 q-14 0 -30 32.5t-29.5 73.5t-43.5 83t-69 57z" />
<glyph unicode="(" horiz-adv-x="1808" d="M1247 1407q-59 0 -105 -40.5t-65 -111.5q-12 -6 -20 -6q-18 0 -37 13t-19 28q0 44 42.5 85t89.5 62t73 21q46 0 76.5 -38.5t30.5 -98.5q0 -84 -56 -173.5t-138 -154t-163 -90.5q-90 -28 -120 -35q-28 -8 -35 -15t-8 -34q-5 -93 -5 -110q0 -97 32 -274t32 -265 q0 -114 -38.5 -230t-108.5 -198q-49 -50 -80.5 -79.5t-77 -58t-78.5 -28.5q-42 0 -75 30.5t-51.5 78t-28 98t-9.5 96.5q0 75 47 119q89 83 137 184q32 70 80 99q1 -3 2.5 -6.5t2.5 -5.5t1 -3q-5 -21 -21 -98.5t-25 -112t-31 -90.5t-49 -96q-35 -53 -35 -98q0 -43 30 -93.5 t60 -50.5q31 0 92.5 59.5t75.5 114.5q37 142 37 305q0 87 -27 258t-27 257q0 36 11 108t10 107q-15 6 -33 6q-14 0 -42.5 -7t-41.5 -8q-369 -37 -369 -137q0 -24 23 -39.5t49 -15.5q44 3 115 40t102 46q-11 -48 -101 -88.5t-161 -40.5q-52 0 -83.5 48t-31.5 91q0 73 57 125 t140 70q78 17 279.5 78.5t314.5 76.5q112 13 193.5 69t152.5 167q16 26 16 53q0 18 -8 37zM932 862q76 -9 129 -227q19 6 62.5 24t77 28.5t56.5 10.5q43 0 43 -49q0 -37 -44 -152.5t-44 -158.5v-57q2 0 5.5 -1t5.5 -1q19 0 32 10t26 28t22 25q53 45 53 119q0 12 -3 39t-3 41 q0 15 10 41t10 39q2 56 31 130t67 126.5t64 52.5q34 0 58 -17t35.5 -45.5t16.5 -56.5t5 -59q0 -25 -2.5 -48t-10 -46.5t-13 -40t-20.5 -41.5l-22.5 -37.5t-29 -40.5t-29.5 -38.5t-35 -43.5t-35 -43q-8 -8 -8 -23q0 -34 25.5 -78.5t54.5 -44.5q28 0 70 42t55 75q17 41 57 59 q0 -6 1 -17t1 -17q0 -57 -61.5 -127t-126.5 -70q-88 0 -132 135q-13 -9 -39.5 -29t-42.5 -31.5t-36.5 -21.5t-34.5 -10q-45 0 -60.5 30t-15.5 81q0 72 33 180q18 61 18 80q0 20 -4 30q-38 -18 -70 -59t-51.5 -83t-36.5 -105.5t-24 -101t-16.5 -96t-10.5 -65.5 q-2 -14 -34 -14q-27 0 -30 13t5 47q12 70 12 104q0 109 -8.5 310t-9.5 270q0 4 1 12.5t1 13.5zM1423 502q6 8 26.5 35.5t26.5 36t22.5 32.5t22 35t16 32.5t14 37t7 36t3.5 41.5q0 10 -4 31t-5 31q-56 -32 -94.5 -120.5t-38.5 -176.5q0 -35 4 -51z" />
<glyph unicode=")" horiz-adv-x="1619" d="M606 954q-46 0 -134.5 -1t-139.5 -1q-37 0 -75 -33t-38 -65q0 -28 25 -48.5t57 -10.5q18 5 36.5 14.5t30.5 17t23 13.5t18.5 5t12.5 -9q9 -16 -1.5 -31t-42.5 -26.5t-79 -14.5q-70 -5 -133.5 45t-63.5 127q0 52 49 87.5t108.5 48.5t121.5 13q680 0 680 267q0 30 -14 44.5 t-35 14.5q-26 0 -41.5 -17t-23 -34t-13.5 -17q-19 0 -35 10.5t-12 30.5q8 38 64 63.5t100 25.5q40 0 67 -36.5t27 -76.5q0 -114 -71.5 -210.5t-178.5 -133.5q-6 -2 -70.5 -19t-96.5 -32.5t-36 -36.5q-17 -98 -8.5 -218.5t-1.5 -238.5q-6 -60 -27.5 -129.5t-60 -142.5 t-88 -132t-119 -97t-145.5 -38q-35 0 -63.5 31.5t-28.5 69.5q0 83 71 134.5t168 51.5q19 0 37 -12q-8 -25 -34 -42.5t-67 -34t-55 -24.5q-65 -36 -65 -81q0 -21 14 -37.5t35 -16.5q72 17 128 59.5t90 94.5t58 122.5t34.5 129.5t17.5 129q10 90 15.5 246.5t8.5 201.5z M1071 637q-58 -31 -105.5 -86t-72.5 -103.5t-62 -126t-61 -118.5q-29 8 -29 33q0 10 2 16q44 170 74 356v21q0 21 9.5 65t9.5 66q0 20 -5.5 62.5t-5.5 64.5t23 22q18 0 31 -25.5t20.5 -68t11.5 -78.5t6.5 -77t2.5 -44q47 30 55 41q11 19 41.5 34.5t50.5 15.5q51 0 51 -70 q0 -47 -6.5 -97t-15 -91t-9.5 -48q-7 -73 27 -73q39 1 71 32t32 64q0 1 -2 6.5t-5.5 16t-6.5 24.5t-5 38t-2 52q0 44 23 115t61 128.5t72 57.5q24 0 45.5 -37.5t21.5 -76.5q0 -133 -84 -269q-8 -11 -8 -33q0 -35 14.5 -57t40.5 -22q27 0 48 18t31 36.5t23.5 52t18.5 42.5 q5 0 8 -2t4 -6.5t1.5 -7.5t0 -9t-0.5 -8q0 -51 -64 -139q-18 -26 -50.5 -41.5t-64.5 -15.5q-30 0 -100 57q-3 -2 -31 -24.5t-45 -35t-42.5 -25.5t-41.5 -13q-40 0 -64 26.5t-24 57.5q0 48 21 104t42 101.5t21 70.5q0 21 -2 31zM1307 532q75 103 75 226q0 33 -2 49 q-32 -21 -54.5 -88.5t-22.5 -136.5q0 -22 4 -50z" />
<glyph unicode="*" horiz-adv-x="897" d="M483 315q-62 -62 -133 -111.5t-123 -49.5q-51 0 -84.5 39t-33.5 86q0 33 32 106q-39 31 -39 90q0 82 45.5 179.5t115.5 179.5t162.5 138t178.5 58q7 0 21.5 1t21.5 1q46 0 77.5 -36t31.5 -81q0 -29 -19.5 -63.5t-49.5 -74t-42 -64.5q-15 -30 -24.5 -60t-21.5 -82t-15 -63 q46 8 73 8q35 0 65 -16.5t30 -53.5q0 -16 -25 -16q-17 0 -51 2t-51 2q-55 0 -65.5 -18t-10.5 -93v-22q0 -5 -1 -36t0 -44t7.5 -33t19.5 -32q34 13 68.5 54.5t56 83t41.5 74.5t29 33q11 0 18 -6t7 -12q0 -3 -13 -35q-19 -46 -52 -108t-85 -125.5t-90 -63.5q-74 0 -74 217 q0 5 1 21t1 26zM166 438l12 -4q40 58 99 90.5t145 59.5q2 0 6 1t6 1q17 0 26 -9.5t9 -21.5t-16 -22t-54 -27t-67 -35q-61 -37 -92 -82.5t-31 -83.5q0 -27 14.5 -43t40.5 -16q41 0 118.5 53.5t88.5 95.5q-20 -6 -41 -17.5t-33.5 -22t-36 -30t-34.5 -28.5q-15 0 -15 22 q0 35 43 79.5t115 78.5q11 5 19.5 19t13.5 35t8 39.5t6.5 44.5t5.5 38q-16 -3 -82 -30q-39 -15 -39 0q0 41 35.5 69.5t100.5 42.5q41 137 92 137q9 0 26 -10q39 56 39 72q0 31 -37 31q-75 -9 -145.5 -48.5t-124 -95.5t-99.5 -124.5t-75.5 -133.5t-46.5 -125z" />
<glyph unicode="+" horiz-adv-x="954" d="M539 918q15 0 17.5 -23t-2.5 -94.5t-5 -124.5q64 33 131 33q80 0 126 -33t46 -82q0 -54 -38 -108t-82.5 -78t-63.5 -5q-9 9 7 27t40.5 37.5t46 47t20.5 50.5q0 33 -19 55.5t-52 22.5q-51 0 -109 -20t-59 -56q-2 -58 -13.5 -209.5t-11.5 -230.5q19 8 55 35t56 53 q10 13 22 39.5t19.5 41.5t11.5 11q8 -8 8.5 -29.5t-8.5 -52t-27.5 -61.5t-53.5 -61.5t-81 -49.5q-8 -3 -8 -53v-23v-24q0 -48 -9 -48q-1 0 -3 1q-62 37 -48 114q1 9 -1 9q-19 -12 -90 -29.5t-130 -13.5q-46 4 -86.5 25.5t-40.5 58.5q0 66 56 125q-58 40 -58 104q0 46 37 101 t89.5 100t99 77t75.5 46q56 26 56 36v31q0 60 28 144t52 84zM315 78q34 0 75.5 9.5t60.5 21.5v190q-60 -15 -139 -73.5t-79 -108.5q0 -19 27 -29t55 -10zM150 262q0 -10 13.5 -22.5t20.5 -12.5q-2 0 15 21t49 52t63 52q34 23 70 39t54 21.5t18 7.5q0 16 1 63.5t1 71.5 q-305 -214 -305 -293z" />
<glyph unicode="," horiz-adv-x="526" d="M307 -94l-18 31q-7 -16 -19 -49.5t-21 -56t-20.5 -47t-24 -37.5t-24.5 -13q-28 0 -28 24q0 12 3 37t3 37q0 50 -8.5 150.5t-8.5 150.5q0 7 -0.5 25.5t0 26.5l1.5 24t3.5 26t8 24.5t12.5 27.5q65 114 65 229q0 48 -8 166q-11 3 -46 8.5t-55 13.5t-20 23q0 6 3.5 10.5 t11.5 8t15.5 6.5t20 5.5t21 4t22.5 3.5l21 3q-6 102 -6 436q0 19 -52.5 82.5t-52.5 73.5t9 22q33 50 51 112.5t32 160t19 121.5q1 13 7 23.5t14.5 6t13.5 -31.5q1 -5 13 -69t21 -108.5t24 -96.5t28 -70q14 -17 14 -37q0 -18 -35.5 -85.5t-35.5 -101.5q0 -101 3 -237.5 t3 -202.5q137 0 137 -16q0 -3 -4 -7q-50 -50 -129 -57q0 -26 2 -74t2 -71q0 -94 16 -115q8 -14 27.5 -47.5t29 -51t22 -45.5t17.5 -54t5 -54q0 -51 -4.5 -153.5t-4.5 -153.5q0 -20 4.5 -57.5t4.5 -55.5q0 -30 -25 -33q-9 0 -18.5 12.5t-19 37t-15.5 44t-15 51t-12 40.5z" />
<glyph unicode="-" d="M262 489q-14 4 -40.5 11t-44 12.5t-36.5 13t-29 18t-10 23.5q0 8 18 17.5t30 9.5q25 0 51.5 -2.5t64 -7.5t51.5 -6q8 -1 65.5 -7.5t72.5 -8.5t62 -9t71.5 -13t60.5 -16t66 -22q65 -26 153.5 -32t216 -0.5t164.5 5.5q-2 9 -12 51.5t-10 61.5q0 40 27 77t65 37q13 0 24 -9 t11 -25q0 -14 -32 -45t-32 -48q0 -40 29.5 -69t66.5 -31q66 -3 222 -6t223 -6q5 0 6.5 14.5t3.5 32.5t17 32.5t43 14.5q10 0 16 -2q53 -19 116 -35t107.5 -24.5t119.5 -21t112 -19.5q24 -4 37.5 -16.5t13.5 -26.5q0 -15 -19.5 -27t-42.5 -12h-39q-253 0 -409 -62 q-15 -6 -29 -6q-18 0 -27.5 13.5t-12.5 29.5t-7 53l-434 17q5 -16 13 -33.5t12 -29.5t4 -27q0 -60 -30.5 -100t-74.5 -40q-24 0 -53 18.5t-29 47.5q0 14 19 14q7 0 23 -7t28 -7q21 0 34 15.5t13 41.5q0 36 -23 74.5t-51 38.5h-92q-66 0 -200.5 -1t-196.5 -1 q-43 0 -126 -18.5t-126 -18.5q-48 0 -146.5 3t-146.5 3q-17 0 -49 -2t-47 -2q-21 0 -35 11t-14 26q0 22 38.5 34.5t76.5 18t38 12.5z" />
<glyph unicode="." horiz-adv-x="1132" d="M176 909l41 4q43 -5 55 -8q37 -6 56.5 -35t9.5 -65q-11 -41 8 -60l19 -19t22 -20.5t21.5 -12t29.5 -5.5q27 0 45 33q5 10 13 31.5t10 27.5q8 19 6 36t-16 36q-28 32 -32 77.5t19 67.5q58 55 140 33q72 -22 87 -79t-36 -111q-28 -28 -31 -60q-10 -73 19 -135 q16 -39 59 -18q29 16 51 50t16 71q-6 25 -2 53q10 54 46 76t90 10q15 -3 36 -13q67 -23 70 -86q2 -44 -53 -88q-8 -8 -23 -12q-122 -41 -131 -180q-4 -65 -16 -203q-1 -25 -11.5 -37t-35.5 -18q-42 -6 -47 -6q-25 0 -74 -1t-72 -1q-65 0 -133 6q-29 0 -35 28q-15 62 -16 76 q-15 120 -64 230q-4 8 -11 25.5t-11.5 28t-13.5 24t-21 22.5q-32 25 -55 29q-79 14 -96 84q-22 94 67 114z" />
<glyph unicode="/" horiz-adv-x="1101" d="M524 666q46 15 59 30t13 52q0 30 -1 92t-1 94q0 20 31.5 48t54.5 28q20 0 20 -33q0 -57 -1 -171t-1 -171q0 -31 6.5 -93t6.5 -91q0 -19 -37 -44.5t-60 -25.5q-16 0 -16 29q0 37 2 112t2 113q-45 -21 -59.5 -36.5t-14.5 -47.5q0 -27 7.5 -83t7.5 -81q0 -22 -33.5 -62 t-48.5 -40q-11 0 -25 14.5t-14 26.5q0 348 6 508q1 19 10 35t17 23t28.5 21.5t26.5 18.5h2q25 0 25 -39q0 -44 -6 -125t-7 -102zM897 897l49 14q17 -14 17 -24q0 -12 -17 -27t-34 -37.5t-17 -52.5v-43q0 -69 -2 -104q0 -17 12 -17q14 0 39.5 20.5t36.5 20.5q18 0 18 -12 q0 -23 -71.5 -83.5t-104.5 -76.5q-6 -2 -14 -2q-27 0 -27 35v20q0 300 -12 447v20q0 22 7.5 41t25.5 37t31.5 28.5t43 31t42.5 30.5q3 1 7.5 4.5t8.5 6t8 2.5q6 0 13.5 -8t7.5 -17q0 -13 -12.5 -26t-27.5 -23.5t-27.5 -29.5t-12.5 -42q0 -35 12 -133zM193 647h-5 q-14 0 -35.5 -14.5t-33.5 -14.5q-17 0 -17 15q0 17 37.5 46.5t104.5 71t71 44.5q24 24 39 24q10 0 18.5 -5.5t8.5 -12.5q0 -13 -19 -29t-38 -40.5t-19 -57.5q8 -79 8 -176q0 -30 -1 -91t-1 -92q0 -16 5.5 -45t5.5 -37q0 -23 -45.5 -64.5t-69.5 -41.5q-12 0 -22.5 17.5 t-10.5 41.5q0 35 10.5 110.5t10.5 113.5q0 22 -1 65t-1 64q0 25 4 79q0 5 -2 14.5t-2 14.5z" />
<glyph unicode="0" horiz-adv-x="1277" d="M745 502h7q-2 -26 -6.5 -96.5t-8.5 -108.5q-11 -87 -82 -217q-20 -37 -54.5 -45t-72.5 14q-10 6 -18.5 14.5t-14 14.5t-12.5 18.5t-9.5 17.5t-9.5 21t-9 19q-54 108 -54 270q0 5 0.5 41t1 45.5t2.5 40.5t5.5 45.5t9 39.5t14.5 44.5t21 38.5q71 113 163 164q20 10 31 7.5 t23 -22.5q50 -65 63 -151q6 -34 10 -107v-108zM231 664l-86 -136q-32 15 -39 32.5t5 51.5q29 71 86 131q53 56 45 123v21q0 33 26 33q30 3 37 -31q1 -7 -0.5 -21t-1.5 -18q0 -26 -4.5 -139t-3.5 -174q2 -55 13 -162.5t14 -155.5q2 -36 2 -219q3 -34 -27 -49q-27 -11 -59 14 q-34 32 -31 84q4 194 10 289q2 61 14 170l9 98q4 32 4 53q-3 0 -13 5zM645 688v146q-32 -14 -33 -15q-85 -78 -90 -162q-6 -62 -10 -190q0 -17 10 -125q2 -20 29 -207q3 -10 5.5 -16.5t12 -12t23.5 -4.5q35 101 45 125q21 55 18 125q-2 107 -10 336zM1147 840l29 -230 q-39 -11 -46 27q-4 28 -4 43q-3 39 -41 27q-3 -10 -3 -20t2 -20.5t4.5 -19t7 -20.5t6.5 -19q-15 -24 -47 -10q-27 9 -27 41l-8 119q0 3 -2.5 10t-3.5 12l-72 -24l6 -111q0 -2 1.5 -7.5t2 -8.5t-1.5 -6q-1 -1 -6 -7.5t-7.5 -9l-7 -7t-8.5 -6.5t-8 -3q-12 -3 -18 8t-6 27v104 q-9 6 -10 6q-14 -6 -30 -4.5t-20 19.5q-2 11 3.5 18.5t13 10.5t18.5 5q10 3 45.5 15.5t55.5 17.5q12 1 18.5 0.5t19 -3t19.5 -3.5q3 4 5 19.5t10.5 23t29.5 4.5l14 -96q15 -6 23.5 -1.5t7.5 23.5q0 7 -1 20t-1 19q2 11 7 13.5t30 3.5z" />
<glyph unicode="1" horiz-adv-x="772" d="M231 -12q-19 158 -26 252q-1 35 -1 47.5t2 48.5t3 49q0 32 10 161t10 167q-6 -13 -29 -77.5t-44.5 -114.5t-32.5 -50q-14 0 -17.5 12.5t-3.5 46.5q0 32 15.5 69t51 107.5t62.5 139.5q9 22 17.5 47t13 38.5t10.5 25.5t11.5 17t13.5 5q16 0 16 -33q0 -8 -2.5 -105 t-1.5 -147q0 -3 -6 -309q-2 -96 -10 -283q0 -21 -4 -71.5t-4 -69.5q0 -29 -19 -29q-7 0 -13 3t-9 6t-5.5 10.5t-3.5 11.5t-2.5 13.5t-1.5 11.5zM532 768q22 7 57 30.5t52 30.5q13 5 21 1t8 -11q0 -11 -6.5 -20.5t-18 -19.5t-14.5 -13q-8 -12 -8 -27q2 -66 10 -217 q-6 -9 -19 -11t-22 5q-11 8 -17 37q-1 9 1 41.5t2 40.5q-4 -32 -35 -81.5t-58 -68.5q-50 -34 -84 0q-8 8 12.5 28t41.5 28q55 24 55 108q-37 -41 -70 -41q-19 0 -33 17.5t-14 40.5q0 41 24.5 87t51.5 46q32 0 63 -31zM494 752q-31 0 -42.5 -30.5t15.5 -49.5q32 23 61.5 22 t46.5 -28q-1 4 -6 25t-8 30q-37 -19 -67 31z" />
<glyph unicode="2" horiz-adv-x="1150" d="M276 190q81 -73 112 -88q16 -8 28 -8q21 0 42 16.5t21 43.5q0 16 -28 79h16q70 0 70 -69q0 -54 -55 -105t-113 -51q-22 0 -37.5 6t-36.5 19.5t-41 21.5q-13 8 -29 8q-14 0 -24.5 -14.5t-17 -31.5t-18 -31.5t-26.5 -14.5q-20 0 -28.5 38.5t-8.5 76.5q0 37 36 96t101 143 t85 115q38 56 53 80t43 74.5t39.5 93t11.5 84.5q0 4 0.5 15t0 17t-1 15.5t-3.5 15t-7 12t-11 9t-17 2.5q-51 0 -129 -97.5t-92 -146.5q-2 -6 -2 -18q0 -27 10.5 -42t22.5 -15q11 0 52 38.5t66 38.5t25 -26q0 -30 -66 -70.5t-90 -40.5q-54 0 -90.5 66t-36.5 131q0 40 13 77.5 t26.5 58.5t42.5 58t39 52q16 16 72.5 27.5t95.5 11.5q154 0 154 -230q0 -72 -29.5 -150.5t-64 -131.5t-92 -134.5t-83.5 -124.5zM842 723v117q0 29 10 37t47 8q42 0 77.5 -21t53.5 -63q2 -9 7.5 -28.5t8.5 -35.5t3 -30q0 -47 -39 -106.5t-95 -59.5q-15 0 -26.5 11.5 t-19.5 37.5t-12 42.5t-9 51.5t-6 39zM707 692q-11 -22 -11 -47q0 -7 1 -20.5t1 -20.5q0 -31 -9.5 -56.5t-31.5 -25.5q-25 0 -37 29t-12 61q0 217 72 217q9 0 17 -5.5t15 -17t11 -21t10 -25t8 -21.5q13 13 13 56.5t6 77.5t33 34q32 0 32 -241q0 -14 1 -40t1 -38 q0 -31 -22 -31q-19 0 -34.5 21t-23.5 46.5t-18.5 46.5t-21.5 21zM903 827l12 -198q91 0 91 88q0 21 -8.5 40t-15 27t-28.5 33q-4 4 -12 5.5t-20 2.5t-19 2z" />
<glyph unicode="3" horiz-adv-x="1026" d="M383 502q78 -42 78 -223q0 -108 -70 -199.5t-178 -132.5q-23 -10 -43 -10q-30 0 -49 19.5t-19 47.5q0 35 43 115t64 80q11 0 41 -23q-4 -9 -44.5 -76t-47.5 -108q12 -12 22 -12t23 10q71 40 117.5 102.5t46.5 136.5q0 39 -18.5 91.5t-43.5 52.5q-13 0 -40 -21.5 t-32 -21.5q-7 0 -14.5 2t-15.5 11.5t-8 25.5q0 34 32 69t62 45q42 15 72 50t45 80t21.5 87t6.5 84q0 95 -24 95q-51 0 -105.5 -44.5t-89.5 -108.5t-35 -120q0 -24 21 -24q23 0 65.5 30.5t63.5 30.5q9 0 15.5 -5t6.5 -11q0 -35 -72 -68t-96 -33q-26 0 -44 17.5t-25.5 44.5 t-10 48t-2.5 40q0 76 32.5 146t95.5 116.5t143 46.5q24 0 43 -4t31 -9.5t20.5 -18t12.5 -20.5t6 -27t2 -28.5t-0.5 -33t-0.5 -33.5q0 -84 -25.5 -155.5t-78.5 -153.5zM748 627l-19 252q21 12 43 12q71 0 111.5 -37t40.5 -90q0 -68 -35.5 -127t-93.5 -59q-19 0 -32.5 13 t-14.5 36zM612 643q4 -46 4 -51q0 -13 -5.5 -26t-14.5 -13q-51 0 -51 102v18v19.5t-0.5 17t-2 19t-4 17.5t-6.5 18t-4 12q0 20 65 51t83 31q15 0 27 -12t12 -27q0 -18 -30 -59.5t-32 -69.5l95 -106q-14 -11 -25 -11q-13 0 -29.5 10t-42.5 30.5t-39 29.5zM807 645 q65 40 65 109q0 73 -53 73q-6 0 -26 -4q10 -131 14 -178zM641 772h-16q-23 0 -23 -20q0 -4 4 -8.5t11.5 -12t11.5 -12.5q11 47 12 53z" />
<glyph unicode="4" horiz-adv-x="870" d="M199 416q5 0 12.5 -1t11.5 -1q33 0 45.5 12t18.5 47q6 39 21 122t24 147.5t12 123.5q2 25 18 53.5t33 28.5q8 0 16.5 -11t8.5 -17q-14 -57 -15.5 -169.5t-13.5 -166.5q-6 -27 -10 -79.5t-6 -64.5q34 -7 41 -12.5t18 -30.5q-1 -1 -2 -3q-1 -3 -2 -3q-23 -5 -39 -14.5 t-25 -28t-12.5 -29.5t-7.5 -38t-6 -35q-5 -24 -15 -76t-19.5 -93.5t-22.5 -80.5q-37 23 -37 70q6 133 18 260h-10q-21 0 -40 -7.5t-40 -21t-33 -18.5q-9 5 -15.5 11.5t-10.5 16t-6.5 17t-3.5 20t-1 18v18.5v15q0 49 8 109t16 100t25 113.5t23 99.5q1 5 4 20.5t4.5 23.5 t5.5 21.5t8.5 21t11.5 14t15 8.5q21 0 21 -33q-1 -24 -1 -68t-1 -79.5t-4 -67.5q-5 -42 -21 -129t-20 -133zM741 877q4 -44 13.5 -120.5t13.5 -109.5q-19 1 -30.5 9.5t-14 17.5t-5.5 24.5t-5 22.5q-21 -1 -29 -9t-8 -26q0 -12 1 -27t2.5 -33.5t2.5 -29.5q-66 18 -66 76 q0 16 5 119q-34 -11 -46 -22t-12 -34q0 -18 6 -59t6 -62q0 -10 -6 -28q-15 3 -25 12.5t-14.5 25.5t-6 29.5t-3 35.5t-2.5 32l-41 -10q-20 33 -20 47q0 20 20 28t54.5 13.5t52.5 13.5q13 6 38 24.5t35 24.5l7 -82l47 4q3 10 3 29.5t5 35t22 28.5z" />
<glyph unicode="5" horiz-adv-x="876" d="M242 70q82 67 126 143.5t44 175.5q0 51 -22 107.5t-54 56.5q-27 0 -58 -20t-56.5 -40t-39.5 -20q-13 0 -21.5 11.5t-8.5 25.5q0 28 14 88t14 88q0 62 -24 117q-11 22 -11 26q0 20 19.5 36t40.5 16q14 0 27.5 -5.5t36.5 -20.5t30 -19q6 4 30 24.5t44 31.5t39 11 q13 0 29 -10t16 -25q0 -16 -29 -31t-63.5 -25.5t-63.5 -29t-29 -41.5q0 -17 -3.5 -52t-4.5 -52q5 0 16 -1t15 -1q6 0 19 1t18 1q40 0 71 -42t44.5 -99t13.5 -115q-3 -74 -34.5 -161t-87.5 -153.5t-116 -66.5q-37 0 -62.5 18.5t-37.5 49t-16.5 57t-4.5 53.5q0 71 19.5 115 t71.5 78q3 2 8 5.5t8.5 6t9 4.5t10.5 2q18 0 32.5 -18.5t14.5 -36.5q0 -39 -31.5 -122t-31.5 -103q0 -26 29 -39zM745 489l-32 60q-21 -8 -28 -21.5t-7 -35.5v-33q0 -25 -6 -25q-23 0 -33 45t-10 96q0 40 16 76q-43 -9 -54 -22.5t-11 -48.5q0 -25 4.5 -69.5t5.5 -61.5h-15 q-26 0 -34.5 21.5t-9.5 60.5t-7 57l-51 -6q-8 11 -8 22q0 49 172 82l18 57q13 -17 16.5 -50t7 -56t17.5 -23q17 0 17 27q0 14 -2 44t-2 46q0 14 8 25.5t18 11.5q9 0 16 -5t11 -15.5t6.5 -20.5t3 -26.5t1 -27t0 -27.5t-0.5 -23q0 -2 0.5 -26.5t0 -37t-3 -32t-8.5 -29 t-16 -9.5z" />
<glyph unicode="6" horiz-adv-x="890" d="M451 772q-46 -22 -80 -60.5t-58 -99.5t-37.5 -112.5t-31.5 -137.5q0 -1 -1 -2t-1 -2q0 -2 1 -5t1 -5q11 8 38 31.5t49.5 38t39.5 14.5q60 0 73 -104q7 -56 -23 -148.5t-92.5 -170t-131.5 -77.5q-36 0 -65.5 48t-29.5 92q0 35 4 68.5t12 76.5t11 62q9 60 14.5 93.5 t17.5 90.5t24 93t33 84t45.5 81.5t60.5 67.5t79 59q20 12 43 12q22 0 45 -33.5t23 -64.5q0 -14 -7.5 -25.5t-17.5 -11.5q-8 0 -13.5 5t-13.5 21t-11 21zM633 659l31 78q30 -21 30 -47q0 -6 -2 -19.5t-2 -19.5q0 -28 21 -28q12 0 18 13.5t8 29.5t9 29.5t20 13.5q7 0 14.5 -9 t7.5 -14q-3 -136 -24 -242q-22 21 -25.5 62.5t-9.5 52.5q-37 0 -43 -12.5t-6 -83.5q-16 -4 -23 -4q-21 0 -26.5 16.5t-5.5 61.5q0 14 1 39.5t1 37.5q-21 9 -33 9q-19 0 -26.5 -44.5t-15 -88.5t-26.5 -44q-21 0 -22.5 36t-1.5 72t-19 36q-5 0 -14.5 -2t-13.5 -2q-23 0 -23 26 q12 5 45 23t60.5 29.5t46.5 11.5q8 0 25.5 -8t23.5 -9zM223 31q77 28 128.5 106t51.5 156q0 45 -16 76q-30 -15 -52 -33t-47 -43t-38 -37q-57 -50 -57 -160q0 -42 30 -65z" />
<glyph unicode="7" horiz-adv-x="931" d="M362 700q-15 -7 -54.5 -34.5t-49.5 -32.5q-4 -2 -27.5 -16t-41.5 -22.5t-29 -8.5q-18 0 -35 11t-21 28q-9 37 31 43q35 4 55 14q68 42 168 109q15 11 37 51q20 33 47 22q42 -17 35 -47q-8 -35 -24 -74q-2 -6 -9.5 -17t-9.5 -17q-59 -247 -78 -342q-14 -60 -31.5 -175 t-21.5 -135q-2 -10 -24 -84q-3 -6 -11.5 -13.5t-11.5 -6.5q-25 10 -25 22q-9 96 -6 127q6 74 25 160q10 45 32 128.5t29 113.5q2 9 15.5 54.5t24.5 88t11 53.5zM674 659l31 78q30 -21 30 -47q0 -6 -2 -19.5t-2 -19.5q0 -28 21 -28q12 0 18 13.5t8 29.5t9 29.5t20 13.5 q7 0 14.5 -9t7.5 -14q-3 -136 -24 -242q-22 21 -25.5 62.5t-9.5 52.5q-36 0 -42.5 -12.5t-6.5 -83.5q-16 -4 -23 -4q-21 0 -26.5 16.5t-5.5 61.5q0 14 1 39.5t1 37.5q-21 9 -33 9q-19 0 -26.5 -44.5t-15 -88.5t-26.5 -44q-21 0 -22.5 36t-1.5 72t-19 36q-5 0 -14.5 -2 t-13.5 -2q-23 0 -23 26q12 5 45 23t60.5 29.5t46.5 11.5q8 0 25.5 -8t23.5 -9z" />
<glyph unicode="8" horiz-adv-x="987" d="M375 508q35 -38 53 -61.5t41.5 -64t34 -87.5t10.5 -105q0 -69 -58.5 -145t-115.5 -76q-124 0 -181 62.5t-57 156.5q0 124 148 318q-41 53 -56.5 76.5t-27.5 61t-12 85.5q0 64 59 125t121 61q57 0 96 -58t39 -118q0 -21 -4.5 -42t-17 -49t-19.5 -42.5t-27.5 -51.5 t-25.5 -46zM295 453q-92 -135 -92 -228q0 -68 42.5 -126t110.5 -58q31 0 71 52t40 97q0 29 -21.5 64.5t-57.5 78.5t-48 62q-5 8 -45 58zM334 571q6 9 24 34.5t25 37t18 31.5t15 36.5t4 34.5q0 105 -68 105q-45 0 -74.5 -31t-29.5 -69q0 -34 14 -68t27.5 -53t44.5 -58z M881 510q-20 9 -32.5 24.5t-16.5 28t-9 33t-8 29.5q-7 -1 -12 -3t-8.5 -3.5t-6 -6.5t-4 -7t-2 -8.5t-0.5 -8.5v-10v-9q0 -5 2 -15t2 -15q0 -19 -14 -33q-16 3 -26 20t-13 47t-4 53.5t0.5 61.5t1.5 49q0 33 33 45q4 0 14 -21.5t18 -42.5l7 -22q7 4 9.5 9t3 13.5t1.5 12.5 q0 4 -1 12t-1 11q0 41 25 41q48 0 43 -232v-4q0 -7 -1 -23t-1 -26zM573 684q-9 0 -18 -1t-12 -1q-27 0 -27 23q4 30 51 48.5t92 18.5q6 0 15 -1t17.5 -3t14.5 -4.5t5 -5.5q0 -12 -8.5 -21t-17.5 -13t-28.5 -11.5t-27.5 -10.5q8 -71 8 -182q0 -4 -3.5 -9.5t-8.5 -12t-7 -9.5 q-10 6 -17.5 14t-12.5 14.5t-8.5 17t-5 16t-2.5 19t-1 18v20.5v19q0 9 1 28t1 29z" />
<glyph unicode="9" horiz-adv-x="1032" d="M182 205q2 -19 -4 -45.5t-12 -47t-3.5 -47t17.5 -49.5q56 33 84 93q61 119 88 292q2 16 5.5 32.5t9.5 39.5t10 39q-54 -35 -88 -35q-86 0 -131 45.5t-45 126.5q0 50 35 117.5t89.5 118.5t102.5 51q38 0 60 -13t34 -46q48 -119 45 -269q-6 -251 -110 -446 q-57 -114 -154 -168q-40 -23 -70 -9t-39 58q-9 53 9 91.5t67 70.5zM381 856q-64 -14 -113 -88t-49 -160q-3 -35 30 -62t64 -18t51.5 37t20.5 62q0 4 1 13.5t1 14.5q0 31 1 93t1 92zM801 768v-55l57 18v70q1 7 10 15.5t15 8.5q19 0 35 -20q8 -8 8 -27q4 -126 4 -186 q0 -7 -12 -39q-15 12 -24.5 28t-13 29t-7.5 35t-7 33l-63 -16l-8 -82q-12 -1 -19 2.5t-9 8.5t-3 13q-4 120 -8 174q0 15 2 19q12 16 22 16q9 3 19 -16q2 -4 2 -29zM745 776l-14 -8q-57 -21 -64 -28q-7 -8 -7 -43q0 -15 -1 -27l-4 -80q0 -13 -7.5 -21t-18.5 -4q-15 3 -21 27 q-2 0 -1 37l1 37v51l-30 -4q-29 -4 -29 18q-1 7 3.5 17.5t10.5 13.5q81 43 152 43q16 0 22.5 -5.5t7.5 -23.5z" />
<glyph unicode=":" horiz-adv-x="1294" d="M205 799q-12 -6 -27 -14t-23 -12.5t-10 -4.5q-43 0 -43 16q0 26 27 47.5t64.5 32t69.5 16t50 5.5q20 0 38 -15t34 -45.5t26.5 -54.5t25.5 -65t20 -54q7 -17 21.5 -58t24 -66t25 -54t31.5 -45q0 46 -10 291q0 72 -41 115q-11 11 -30.5 14t-30.5 8t-11 25q0 28 100.5 52.5 t131.5 24.5q13 0 22.5 -8.5t9.5 -21.5q0 -7 -4.5 -13.5t-9 -9.5t-13 -8.5t-11.5 -7.5q-58 -38 -58 -187v-47q0 -10 -1 -31.5t-1 -31.5q0 -56 13.5 -166t13.5 -166q0 -43 -21 -64.5t-69 -21.5q-11 0 -23.5 9t-25.5 28.5t-24 38t-25 48t-22 48t-21 49.5t-17 41 q-10 21 -29.5 80t-38.5 100t-39 54q0 -70 2.5 -207t2.5 -203v-29q0 -20 14 -39.5t31 -19.5q13 0 35 12.5t30 12.5q10 0 18.5 -11t8.5 -22q0 -8 -9.5 -16.5t-26 -16.5t-34.5 -16t-40.5 -15.5t-38 -12.5t-32 -9.5t-18.5 -5.5q-16 -4 -27 -4q-13 0 -26.5 13t-13.5 25q0 11 7 18 t17 7q18 1 28.5 6.5t14.5 17.5t5 20t1 25v7v203q0 13 0.5 74t0 85.5t-2 72.5t-5.5 85t-11 72zM1190 766v-39q0 -92 -91 -179t-188 -87q-98 0 -152 68t-54 196q0 114 69.5 198.5t194.5 84.5q100 0 160.5 -70t60.5 -172zM889 545q3 0 10 -1t10 -1q166 0 166 219 q0 182 -114 182q-61 0 -80.5 -12t-36.5 -58q-10 -31 -10 -114q0 -133 55 -215zM829 356q240 81 308 105q4 2 16 2q39 0 39 -35q0 -49 -37 -49q-4 0 -14 2t-15 2q-9 0 -18.5 -2t-16 -4t-17.5 -6t-17 -6q-97 -33 -256 -76q-1 0 -3 -1t-3 -1q-24 0 -33.5 26t-9.5 56q0 5 4 11.5 t12 15.5t12 14q4 -4 49 -54z" />
<glyph unicode=";" horiz-adv-x="1419" d="M506 500q-99 -17 -129 -33q-35 -18 -35 -45q0 -18 -1 -51t-1 -49q0 -9 1 -26.5t1 -25.5q0 -54 -43 -100q-102 18 -102 215q-56 14 -75.5 26.5t-19.5 37.5q0 18 18 29.5t39.5 18t41 27t22.5 54.5q13 185 31 320.5t55 260.5q31 -3 47 -16.5t29 -42.5q18 -44 93.5 -205.5 t105.5 -255.5q18 -36 43 -103t39 -98q49 -108 61 -166q-23 3 -44 11t-36 16t-32 25.5t-26 27.5t-24 35.5t-20 34.5t-20 40t-19 38zM1149 287q-34 18 -47 42.5t-17 57.5q-13 102 -55.5 314t-54.5 323q-3 28 -36.5 66t-33.5 59q0 24 18.5 37.5t45.5 13.5q31 0 89 -46.5 t101 -96.5q82 -100 109 -147q49 -86 49 -173q0 -82 -29.5 -141t-87.5 -117q-51 -51 -51 -104q0 -7 3 -22.5t3 -22.5q0 -6 -2.5 -22t-3.5 -21zM848 690q-66 298 -66 473q0 3 -0.5 16t0 19.5t1.5 16t4.5 15.5t9.5 9q19 -88 41.5 -187t50.5 -217.5t43 -185.5q29 -125 31 -131 q4 -13 20 -46.5t16 -55.5q0 -12 -7.5 -20.5t-18.5 -10.5q-10 0 -22 5.5t-15 12.5q-9 21 -38 47.5t-36 34.5q-36 45 -90.5 133t-73.5 115q1 -10 9.5 -82t12.5 -99t14.5 -77t23.5 -86q10 -20 10 -27q0 -6 -5 -15t-9 -9q-30 0 -55 102.5t-31 192.5q-12 159 -56 241 q-69 122 -69 177q0 20 14.5 31.5t38.5 11.5q30 0 44 -27.5t21.5 -69.5t16.5 -57q46 -78 170 -250zM1057 1006l88 -486q10 22 32 63t32 68t10 54q0 26 -20.5 83.5t-24.5 75.5q-11 46 -45 95t-60 49q-2 0 -6 -1t-6 -1zM352 580l119 26q-10 68 -50.5 195.5t-51.5 179.5 q-8 34 -35 47q0 -275 18 -448z" />
<glyph unicode="&#x3c;" horiz-adv-x="1323" d="M909 461q-2 2 -14.5 8t-20.5 14t-8 19q0 23 23 33q63 29 115.5 94.5t52.5 124.5q0 20 -0.5 29.5t-8.5 18t-13 10.5t-27 10.5t-37 15.5q-119 37 -119 159q0 129 41.5 209t132.5 119q9 6 21 6q13 0 22.5 -9.5t9.5 -23.5q0 -19 -18 -28q-36 -18 -77.5 -74.5t-41.5 -73.5 q-10 -58 -10 -100q0 -55 25.5 -84t86.5 -39q101 -20 101 -141q0 -58 -38.5 -127t-94 -117.5t-103.5 -52.5zM397 782q-4 -29 -17 -120t-19.5 -153.5t-6.5 -117.5q0 -9 1 -29t1 -30q0 -59 -45 -86q-33 12 -38.5 19t-8.5 40q-14 165 -69 385q-11 -29 -11 -33q0 -15 3 -44t3 -42 q0 -24 -2 -69.5t-2 -67.5q0 -44 6 -126t7 -95q0 -70 -33 -70q-9 0 -26 14t-17 23q0 2 1 5.5t1 4.5q0 112 -11.5 334.5t-11.5 331.5q0 37 19.5 56.5t42.5 19.5q12 0 21 -7t14 -22t7.5 -27.5t5.5 -33.5t5 -31q2 -8 9 -47.5t14 -75.5t16 -76t18 -64t15 -24q19 76 39.5 229 t38.5 230q6 23 9.5 34.5t14 25.5t23.5 14q14 0 23.5 -7.5t15 -22t8.5 -30.5t3.5 -39t0.5 -40.5t-1 -41.5t-1 -36q0 -19 -2 -55.5t-2 -53.5q0 -68 14 -198.5t14 -196.5q0 -19 -9.5 -32t-22.5 -13q-16 0 -24.5 15t-8.5 34q0 20 3 59t3 58q0 49 -11 187t-20 138zM676 659 q-22 -22 -33 -35t-21 -33t-10 -40q0 -27 7.5 -82t7.5 -80q-1 -12 -3 -19t-9 -13t-19 -7q-14 0 -23 12t-12 37t-3.5 44t0.5 52t1 42q0 82 1 239.5t1 233.5q0 18 -6 50t-6 48q0 30 52.5 56t94.5 26q46 0 75.5 -32t29.5 -79q0 -8 -1 -24.5t-1 -24.5q0 -12 1 -36.5t1 -37.5 q0 -103 -72 -194q-12 -20 -12 -37q0 -6 2 -8q26 -106 61 -211q2 -9 13.5 -34t11.5 -40q0 -9 -10.5 -19t-26.5 -10q-15 0 -26.5 15.5t-21 46t-16 59t-14.5 70.5t-14 65zM616 727q7 0 11 -2q14 28 39 74.5t36.5 70.5t22 61.5t10.5 74.5q0 22 -1 36.5t-5.5 33.5t-15 28.5 t-27.5 9.5q-53 0 -53 -72q-1 -14 -10 -109t-9 -145q0 -10 1 -30.5t1 -30.5zM487 68q-28 0 -28 20q0 8 6 18t19.5 21t26.5 21t35.5 22.5t38 21.5t42.5 23t41 20.5t40.5 19.5t34.5 17q41 20 119.5 55.5t112.5 51.5q12 4 16 4q10 0 20.5 -10t10.5 -21q0 -17 -31 -37.5t-58 -32 t-54 -20.5q-62 -22 -126.5 -54t-143 -75t-122.5 -65zM240 1137q30 21 100.5 59t103.5 64q66 51 141 96t113 45q12 0 21.5 -8.5t9.5 -22.5q0 -16 -38.5 -39t-82.5 -41l-43 -18q-22 -13 -82.5 -52t-103.5 -64t-86 -44q-16 -8 -23 -8q-19 0 -30 33zM297 1235q-4 2 -11.5 6.5 t-11 7t-7 6.5t-3.5 9q0 15 8.5 27.5t16 18t27 16t24.5 13.5q11 6 33.5 23.5t40.5 29t28 11.5q8 0 22.5 -8t14.5 -15q0 -17 -26.5 -41t-71 -53.5t-51.5 -34.5q-6 -4 -33 -16zM780 129q0 38 83.5 77.5t121.5 39.5q31 0 31 -21q0 -20 -87 -64t-116 -44q-18 0 -33 12zM1137 516 q28 31 45 31q15 0 27 -13.5t12 -27.5t-8.5 -24.5t-24.5 -10.5q-19 0 -28.5 9t-22.5 36z" />
<glyph unicode="=" horiz-adv-x="1073" d="M424 782q-5 -36 -18 -121.5t-20 -149t-7 -118.5q0 -10 2 -30.5t2 -30.5q0 -59 -45 -86q-9 3 -14 4.5t-10 4.5t-7.5 4t-5.5 4t-3.5 4.5t-2 6.5t-1.5 8t-1 10.5t-2 12.5q-24 192 -72 385q-8 -32 -8 -33q0 -13 3 -39t3 -40q0 -23 -2 -71t-2 -73q0 -38 5 -114.5t5 -114.5 q0 -62 -30 -62q-9 0 -26 14t-17 23q0 2 1 5.5t1 4.5q0 112 -11.5 334.5t-11.5 331.5q0 37 19 56.5t42 19.5q10 0 17.5 -6t12.5 -14t9 -22t6 -24.5t4.5 -28t4.5 -26.5t9 -48t14 -75.5t15.5 -76t17.5 -63.5t15 -24q19 78 39 232t37 227l4 12t4 13t4 12t5.5 12t6 9.5t7 8.5 t8.5 5t10 2q14 0 23.5 -7t15 -20t8.5 -27.5t3.5 -35t0.5 -36t-1 -37t-1 -32.5q0 -22 -3 -66t-3 -65q0 -47 13 -135.5t14 -130.5l4 -129q0 -19 -10 -32t-25 -13q-30 0 -30 49q0 19 2 59.5t2 61.5q0 51 -10 186t-19 135zM598 358q-2 1 -12.5 6t-16 8.5t-11 10.5t-5.5 16 q0 24 22 33q64 29 116 95t52 124q0 20 -0.5 29.5t-8.5 18t-13 10.5t-27 10.5t-37 15.5q-118 37 -118 160q0 129 41.5 209t132.5 119q9 6 20 6q13 0 24 -10t11 -23q0 -18 -18 -29q-38 -18 -77.5 -71t-43.5 -76q-11 -64 -11 -100q0 -55 26 -84t87 -39q100 -20 100 -142 q0 -87 -81 -189t-152 -108zM268 47q-28 0 -28 21q0 8 6 18t19.5 21t26.5 21t35.5 22.5t38 21.5t42.5 23t41 20.5t40.5 19.5t34.5 17q38 18 115 53t115 53q12 4 18 4q11 0 21 -9t10 -21q0 -40 -144 -90q-63 -23 -126 -54t-144 -76t-121 -65zM102 1014q30 21 100.5 59 t104.5 64q182 141 254 141q12 0 21.5 -8.5t9.5 -22.5q0 -16 -38.5 -39t-81.5 -41l-44 -18q-19 -12 -65 -40.5t-71.5 -44t-64 -37.5t-71.5 -38q-16 -8 -23 -8q-20 0 -31 33zM160 1112q-4 2 -11.5 6.5t-11 7t-7 6.5t-3.5 9q0 50 149 124h1l2 1l24 14q11 0 25 -8t14 -15 q0 -17 -26.5 -41t-71 -53.5t-51.5 -34.5q-5 -4 -17.5 -9.5t-15.5 -6.5zM561 109q0 39 83 77.5t122 38.5q31 0 31 -20q0 -21 -88.5 -65t-114.5 -44q-17 0 -33 13zM887 516q28 31 45 31q15 0 27 -13.5t12 -27.5t-8.5 -24.5t-24.5 -10.5q-20 0 -29.5 9.5t-21.5 35.5z" />
<glyph unicode="&#x3e;" horiz-adv-x="1091" d="M424 782q-5 -36 -18 -121.5t-20 -149t-7 -118.5q0 -10 2 -30.5t2 -30.5q0 -59 -45 -86q-9 3 -14 4.5t-10 4.5t-7.5 4t-5.5 4t-3.5 4.5t-2 6.5t-1.5 8t-1 10.5t-2 12.5q-21 163 -72 385q-8 -32 -8 -33q0 -14 2 -39.5t2 -37.5q0 -24 -2 -73t-2 -73q0 -35 6.5 -112t5.5 -117 q0 -62 -30 -62q-9 0 -26 14t-17 23q0 2 1 5.5t1 4.5q-14 509 -25 662q0 37 18.5 58.5t44.5 21.5q11 0 19.5 -7t14 -22.5t8 -26.5t7 -34.5t5.5 -30.5q52 -249 59 -287q17 0 31.5 83.5t24.5 183t31 183t50 83.5q14 0 23.5 -7t15 -20t8.5 -27.5t3.5 -35t0.5 -36t-1 -37 t-1 -32.5q0 -22 -3 -66t-3 -65q0 -45 13.5 -133.5t13.5 -132.5q0 -21 1 -64t1 -65q0 -20 -9 -32.5t-24 -12.5q-33 0 -33 55q7 68 7 117t-10 184t-19 135zM702 659q-32 -32 -47.5 -55.5t-15.5 -52.5q0 -27 6 -82t6 -80q0 -37 -28 -39q-10 0 -17.5 6.5t-11.5 20t-6.5 27 t-3.5 34t-1 34.5t0.5 35.5t0.5 29.5q0 82 2 239.5t2 233.5q-1 16 -7 50t-6 50q0 30 53 55t95 25q44 0 74 -33.5t30 -79.5q0 -8 -1 -24t-1 -23q0 -13 1 -37t1 -35q0 -102 -71 -196q-13 -22 -13 -37q0 -6 2 -8q13 -54 44 -149t38 -117q2 -6 2 -17t-9 -21t-25 -10 q-15 0 -27.5 15.5t-22 47t-16 59t-14.5 71t-13 63.5zM641 727q8 0 12 -2q9 18 38 72t38 75t20 60.5t11 77.5q0 23 -1 36t-5 31.5t-15 27.5t-28 9q-14 0 -24.5 -12t-18 -33.5t-13 -47.5t-8.5 -58.5t-4.5 -61.5t-2 -60.5t-0.5 -52t0.5 -40.5t0.5 -21zM268 47q-28 0 -28 21 q0 11 9.5 23.5t31 27.5t40 27.5t52 30t51.5 27t54 27t44 21.5q35 17 113 51.5t119 54.5q12 4 18 4q10 0 19.5 -8.5t9.5 -21.5q0 -26 -49 -51t-95 -39q-62 -22 -126.5 -54.5t-140.5 -75t-122 -65.5zM102 1014q33 28 104 64.5t99 58.5q68 53 141.5 97t114.5 44q11 0 20 -8.5 t9 -22.5q0 -8 -8.5 -17t-23 -18t-31 -18t-34 -17t-31.5 -14t-24 -10l-10 -4q-210 -128 -272 -160q-16 -8 -23 -8q-20 0 -31 33zM160 1112q-4 2 -11.5 6.5t-11 7t-7 6.5t-3.5 9q0 17 8 29.5t16.5 18t27 15t24.5 13.5q11 6 33.5 23.5t40 29t26.5 10.5q11 0 25 -8t14 -17 q0 -17 -27 -41t-73 -53.5t-49 -32.5q-5 -4 -17.5 -9.5t-15.5 -6.5zM559 109q0 38 83.5 77t123.5 39q29 0 29 -18q0 -21 -84 -66t-119 -45q-14 0 -33 13zM905 516q28 31 45 31q15 0 27 -14t12 -29q0 -13 -9.5 -23t-25.5 -10q-19 0 -28 9.5t-21 35.5z" />
<glyph unicode="?" horiz-adv-x="1462" d="M842 324q-121 -66 -164 -82l-8 -2q-31 0 -31 32q0 14 17 31t42.5 32t50 27.5t45 22t21.5 10.5q-2 26 -17.5 158.5t-15.5 204.5q0 41 7 100.5t23.5 138.5t54.5 133t91 54q14 0 25 -5.5t19 -16.5t13.5 -23t8.5 -30t5 -32.5t2.5 -34t1 -31.5t0 -30t-0.5 -23 q0 -96 -26.5 -269t-30.5 -210q139 68 368 234q35 0 -2 -33q-111 -100 -364 -277q-33 -23 -33 -49q0 -12 6 -30q3 -11 20.5 -70.5t24.5 -81t22 -66.5t29.5 -79t30.5 -68q1 -2 1 -7t1 -7q-12 -6 -20 -6q-19 0 -48 40t-51.5 84.5t-46.5 96t-26 55.5q-33 -59 -70.5 -111 t-87 -104.5t-108 -83.5t-117.5 -31q-41 0 -72.5 21.5t-49 55t-26 68.5t-8.5 68q0 25 10.5 68t12.5 55q-11 -3 -44.5 -15.5t-54 -18t-39.5 -5.5q-62 0 -96.5 56t-34.5 137q0 67 54 176.5t133 211.5t178 176.5t178 74.5q20 0 32.5 -15t12.5 -36q0 -40 -35 -110t-87.5 -145 t-94 -129.5t-74.5 -93.5q-12 15 -12 27q0 28 47.5 104.5t85.5 118.5q53 58 84 160q-38 0 -132 -103t-175.5 -240t-81.5 -216q0 -96 55 -96q52 0 117 58t102 118q70 111 115 104q15 -2 35 -12.5t20 -20.5q0 -31 -92 -161q-4 -6 -19.5 -27.5t-20.5 -29.5t-18.5 -28t-19 -31 t-15.5 -30t-14.5 -33.5t-10 -33.5t-7.5 -37.5t-2 -38.5q0 -49 24.5 -78t63.5 -29q56 0 128 62t125 142.5t69 141.5q3 14 -8 48zM958 1032q-29 -36 -49 -115.5t-20 -166.5q0 -169 29 -269q19 67 31 219t12 269q0 29 -3 63z" />
<glyph unicode="@" horiz-adv-x="1824" d="M512 236q-14 -9 -38.5 -24.5t-42 -27.5t-35.5 -25.5t-28 -25.5t-10 -22q0 -33 45 -33q76 0 137 53t96.5 135t54 172t18.5 174q0 6 1 24t0.5 29t-3 24t-10.5 19.5t-21 6.5t-35 -4.5t-29 -5.5q-31 -5 -350 -68q-35 -6 -51 -24.5t-16 -55.5q11 -8 24 -8q10 0 32 6t32 6 q6 0 22 -4q-6 -33 -33 -53.5t-57 -20.5q-35 0 -74 44t-39 83q0 14 5 27t15.5 24t21 20.5t29 18.5t31 15t35 14t33 11.5t33 10.5t27.5 9q61 23 176.5 54t165.5 48q258 88 399 178q17 10 29 30.5t12 39.5q0 26 -22 57q-3 -1 -17.5 -6t-21 -7.5t-20 -8t-20.5 -9.5t-17 -11 t-14.5 -14t-8.5 -15.5t-4 -18.5q0 -17 8 -33q-25 0 -44.5 22t-27.5 44t-8 33q0 22 41.5 55t87.5 33q14 0 43 -9.5t41 -9.5q41 0 63.5 -25.5t22.5 -68.5q0 -81 -65 -156.5t-134 -113.5q-95 -53 -200 -98q-33 -15 -33 -54q0 -38 4 -114t4 -115q0 -59 -15 -124t-45.5 -127 t-72.5 -111.5t-101 -80t-126 -30.5q-56 0 -92.5 34.5t-36.5 82.5q0 137 170 137q29 0 59 -12zM991 348q-1 -7 -9 -47.5t-10.5 -51t-10.5 -44t-14.5 -49t-16.5 -40.5t-23 -44t-28 -37q-17 14 -17 28q0 30 22.5 107.5t22.5 105.5q0 11 -6.5 15t-15 3.5t-19 1t-16.5 7.5 q-10 10 0 24t26.5 45.5t16.5 73.5q0 14 -1.5 58.5t-1 75t3 66.5t11.5 55.5t25 19.5q8 0 16 -14t13.5 -39t10.5 -51.5t8.5 -60.5t5.5 -57t4.5 -49.5t2.5 -29.5h15q113 0 120 59q5 41 31 277q7 57 53 78q37 -176 37 -328q0 -19 10.5 -27.5t20.5 -11t10 -6.5q0 -11 -22 -40 t-23 -44q-18 -198 -57 -309q-5 10 -15.5 30.5t-16 32.5t-10.5 30.5t-5 35.5q0 30 -5 106t-10 76q-26 0 -68.5 -15.5t-64.5 -15.5zM1642 1010q9 0 16 -2t13.5 -7.5t10 -9t10 -12.5t8.5 -12q-5 -24 -11.5 -43t-17 -34t-18 -26t-24.5 -20.5t-27 -15t-34 -12.5t-37.5 -10.5 t-46 -11t-50.5 -12.5q-15 -4 -24.5 -13.5t-13 -27t-4.5 -29.5t-1 -36q0 -14 14 -133q39 5 45 8q68 24 188 24q10 0 20.5 -3t17.5 -6.5t20 -10.5t20 -10q-21 -18 -76 -34t-71 -24q-20 -9 -71.5 -21t-74.5 -24v-227q11 4 32.5 12.5t36.5 12.5t30 4q24 0 77 -3t80 -3h17 q14 0 26 -5q-73 -52 -161 -88t-164 -36q-64 0 -64 38q0 12 6 21q11 21 16.5 33t8 30t2.5 25v39q0 47 -14.5 140t-14.5 140q0 35 1.5 63.5t6.5 65.5t15.5 65t26.5 53.5t42 40t60 16.5q164 7 164 73q0 7 -10.5 20.5t-10.5 20.5t10 17z" />
<glyph unicode="A" horiz-adv-x="3244" d="M2949 1350l-164 -164l82 -62l144 -143q13 -13 34 -18.5t36.5 -6t27.5 -9.5t12 -29q0 -13 -14.5 -31t-14.5 -29q0 -41 -61 -41q-80 0 -205 -41h-102q-82 -40 -82 -184q-16 -32 -34.5 -47t-47.5 -15q-29 -21 -63 -35.5t-58.5 -20t-64.5 -13t-60 -12.5q-37 -18 -111 -43 t-160.5 -51t-96.5 -29l-697 -185l-20 -20q0 -61 -21 -82q0 -23 -26 -40.5t-64.5 -25.5t-73 -12t-61.5 -4q-41 -20 -123 -20h-102q-43 -21 -123 -21h-328q-81 0 -102 21h-62q-13 0 -20 0.5t-14 5.5t-7 14q0 61 21 61q36 18 66.5 48.5t58 67t39.5 48.5l123 144q6 4 11.5 9.5 t14 15t15.5 16.5l-62 61l-164 143q-10 0 -30.5 10.5t-30.5 10.5q-22 0 -35.5 13t-13.5 28q0 14 14 32t14 29q0 12 5 20t11.5 12t19.5 6t21.5 2.5t24.5 0.5q53 0 151 20.5t136 20.5q38 19 55 56.5t25 76t22 52.5q0 18 10.5 28.5t27.5 18t24 14.5q29 21 63 35.5t58.5 20.5 t64.5 13.5t60 12.5q166 62 491 143q201 39 307 82q34 0 104 27t101 35q20 20 62 20q2 -5 12 6t19.5 37.5t9.5 58.5q0 23 26 40.5t64.5 25.5t73 12t61.5 4q43 21 123 21h102q82 0 123 20h348q62 0 82 -20h61q10 0 15 -1t12.5 -4t10.5 -12t3 -24q9 0 9 -8q0 -10 -9.5 -21.5 t-19.5 -11.5q-36 -18 -62.5 -49.5t-52.5 -71.5t-49 -63zM2048 428q125 41 164 41q36 14 94 30.5t102.5 29t88 30.5t67 43.5t23.5 59.5q0 11 -7 32v164q-19 19 -29.5 105.5t-10.5 140.5v61q0 21 -5.5 55.5t-5.5 51.5q0 20 11 57v82h-21q-225 0 -348 -20l-184 -41 q-41 0 -62 -21q-55 -11 -122 -42t-103 -40q-60 0 -144 -41l-204 -41l-328 -102q-14 -3 -50.5 -10t-60.5 -11.5t-61 -13.5t-62 -17.5t-54 -22t-46.5 -28t-29 -34.5t-11.5 -43q0 -111 27 -189v-102q20 -61 20 -143v-62q0 -21 4.5 -60.5t4.5 -56.5q0 -26 -9 -47v-82h21 q219 0 348 21l205 41l471 123q44 15 110.5 34t113.5 34.5t83 33.5zM2826 1329l205 225q-10 0 -30.5 10.5t-30.5 10.5h-205q-51 0 -153.5 -10.5t-153.5 -10.5h-62q19 -19 42.5 -28.5t38.5 -11t42 -1.5q47 -15 64.5 -36t17.5 -66v-184q0 -185 20 -287q21 -43 21 -123h20 q43 21 123 21q51 0 99 20.5t65 20.5q42 0 62 20q-9 0 -14 5.5t-6 10.5l-1 5l-225 204q-12 12 -36.5 25.5t-35 29t-10.5 48.5v4v4t0.5 3.5t1 3l2 2t3.5 2t5.5 1t7.5 0.5q22 0 40.5 8.5t27.5 16t28.5 29t26.5 28.5zM246 653v-20l225 -205q16 -16 21.5 -18.5t19.5 -1.5 q41 0 41 -68q0 -30 -21 -35q-39 0 -80 -34.5t-73 -79.5t-80.5 -102.5t-93.5 -90.5q14 -14 30.5 -17.5t51.5 -3.5h205q38 0 135 10.5t151 10.5h62q-33 17 -70.5 29.5t-59 18.5t-40.5 16.5t-27 28.5t-8 50v185q0 179 -21 286q-20 41 -20 123h-21q-41 -20 -122 -20 q-21 0 -52 -10.5t-51 -10.5q-10 0 -30.5 -10t-30.5 -10q-41 0 -41 -21zM1546 555q-18 124 -18 150q0 15 33 22t82 12.5t71 16.5q4 2 12 2q4 0 14 -1t15 -1q1 -8 6.5 -53t5.5 -68q0 -21 -32.5 -34t-32.5 -34q0 -32 33 -32q38 0 113 20t81 53q0 7 -2.5 12.5t-8.5 9.5t-11.5 6 t-16.5 3.5t-17.5 2.5t-20 1.5t-19.5 1.5q-19 117 -39 379q53 16 53 45t-35 33q-34 0 -95.5 -24t-61.5 -60q0 -7 16 -12t27 -5q12 -1 21 -8t14 -21.5t8.5 -25.5t4.5 -32t1 -28v-26q0 -51 -234 -72q0 79 3 152q0 8 22.5 24t22.5 31q0 25 -43 25q-66 0 -109 -15t-43 -42 q0 -9 4 -15.5t13 -9.5t16 -4t21 -2t20 -2q6 -44 12.5 -125.5t9.5 -106.5q1 -12 8 -63.5t7 -77.5q0 -17 -14.5 -29t-32 -17.5t-32 -15.5t-14.5 -24q0 -7 11.5 -19t23.5 -12q37 0 121 35.5t84 50.5q0 18 -8 27.5t-19 9.5q-8 0 -27 -3.5t-24 -4.5zM2050 1114l8 -180 q-4 -2 -17 -7t-20 -8.5t-16 -9.5t-13.5 -14t-4.5 -18q0 -12 8.5 -19.5t21.5 -7.5q16 0 51 14q13 -89 13 -119q0 -56 -56 -77q-22 -8 -22 -33q0 -14 10 -23.5t23 -9.5q14 0 53 19.5t55 23.5q27 8 69 17t72 15.5t60 15.5t45.5 20t15.5 24q0 6 -6 25t-6 33v10q0 18 -10.5 30.5 t-24.5 12.5q-12 0 -19 -4.5t-10 -16t-3.5 -18t0 -24t0.5 -21.5q-81 -32 -183 -45q-10 133 -10 151t18 27.5t39.5 12t39.5 13t18 29.5q0 13 -10 21t-21 8t-26.5 -3t-35 -8t-30.5 -7q-5 71 -15 176l160 37q0 -4 1 -12l1.5 -12t1.5 -11t2 -10.5t2.5 -8.5t4 -7.5l5.5 -5.5 t6.5 -4t8.5 -1q41 0 41 33q-1 9 -1 28t-1 32t-4 27t-10 21.5t-19 7.5q-14 0 -32.5 -4t-31.5 -8t-35.5 -12t-29.5 -10q-5 -2 -28 -8.5t-42.5 -12.5t-48 -15.5t-50.5 -18.5t-42 -18.5t-31.5 -19.5t-11.5 -18q0 -11 12 -19t23 -8t23 4t34 14.5t31 14.5zM1020 858 q24 -211 24 -369q0 -20 -19 -28.5t-41 -7.5t-41 -6.5t-19 -26.5q0 -9 11.5 -24t29.5 -15q3 0 8 1t8 1q1 0 39 5.5t70 12t71.5 16.5t62.5 23t23 27q0 15 -11 26t-26 11q-12 0 -37 -10.5t-38 -10.5q-18 0 -25.5 11t-7.5 38v338q15 3 46.5 10l49.5 11q0 -60 29 -60 q22 0 36.5 30t14.5 61q0 73 -33 73q-11 0 -28 -10q-21 -15 -54.5 -25t-85 -20.5t-69.5 -15.5q-20 -6 -69.5 -12.5t-77 -16t-27.5 -27.5q0 -12 7 -40.5t7 -43.5v-16q0 -38 35 -41q41 0 41 47q0 11 -4 47q30 10 100 37zM1167 121q-44 0 -172 -14t-155 -27q15 -15 20.5 -18 t20.5 -3q10 0 30.5 -10t30.5 -10q50 -16 92 -16q133 0 133 98zM2089 1432q30 0 155.5 14t151.5 27q-8 0 -38 13.5t-73.5 27.5t-82.5 14q-121 0 -121 -66q0 -14 8 -30z" />
<glyph unicode="B" horiz-adv-x="1357" d="M416 860l26 52t23.5 43t26 39t27 28.5t32.5 23t37.5 12t46.5 5.5q53 0 89 -29.5t36 -83.5q0 -137 -240 -172q-29 -5 -36 -10.5t-7 -26.5q0 -85 37 -252t37 -249q0 -43 -10 -83t-31 -76.5t-60.5 -58.5t-91.5 -22q-83 0 -140.5 56.5t-57.5 150.5q0 74 35 128t96 54 q25 0 41 -14.5t16 -38.5q-53 -6 -90 -39.5t-37 -75.5q0 -77 42.5 -124t105.5 -50q64 0 103.5 57.5t39.5 137.5t-52 242t-52 243q0 29 2 43q-61 14 -101 14q-53 0 -99 -28.5t-46 -85.5q0 -20 14 -33.5t33 -13.5q18 0 47.5 24.5t36.5 24.5q10 0 17 -9t7 -18q0 -34 -40 -54 t-66 -20q-47 0 -79 31.5t-32 81.5q0 72 53.5 125t114.5 53q47 -2 146 -2zM485 860q10 -2 31 -2q64 0 117 22.5t53 67.5q0 33 -16.5 45.5t-48.5 12.5q-99 -13 -136 -146zM848 410q-29 0 -79 -114t-50 -196q0 -8 2 -24.5t2 -24.5q0 -51 -25 -51q-19 0 -31 16t-12 43 q0 10 2 51.5t2 51.5q0 63 -16 193.5t-16 195.5q0 29 4.5 61.5t14 66t27.5 55.5t42 22q27 0 58.5 -57t31.5 -111q0 -62 -32.5 -118.5t-82.5 -94.5q10 -99 19 -99q19 44 39.5 82.5t58 78.5t72.5 40q26 0 38.5 -35.5t12.5 -74.5q0 -21 -7.5 -85t-7.5 -85q0 -26 6 -36.5 t23 -10.5t70 34q-47 68 -47 160q0 101 38 175.5t99 74.5q34 0 49.5 -46.5t15.5 -94.5q0 -29 -3 -55.5t-10 -50t-13 -41.5t-16 -37.5t-15 -28.5t-14.5 -24.5t-10.5 -16.5q-3 -4 3 -21q21 -47 59 -47q29 0 54.5 55t29.5 101q0 5 7 2q15 -7 15 -56q0 -59 -35 -108t-69 -49 q-27 0 -62 19.5t-55 47.5q-4 -3 -18.5 -12t-21 -13t-19 -11t-20 -10t-17 -6t-16.5 -3q-26 0 -50 31.5t-24 62.5q0 42 13 100t13 78q0 50 -26 50zM1055 233q29 29 51 97.5t22 113.5q0 21 -1 33.5t-3.5 28.5t-10 23.5t-19.5 7.5q-24 0 -42 -55.5t-18 -102.5q0 -96 21 -146z M686 422q31 20 51.5 69t20.5 97q0 89 -35 119q-45 -68 -45 -166q0 -41 8 -119z" />
<glyph unicode="C" horiz-adv-x="1507" d="M895 481q-30 10 -39 20t-4 27q5 15 29 33t39 17q19 -1 42.5 0t43.5 -1t20 -8q0 -12 -12 -24q-3 -3 -14 -5t-15 -3q-26 -6 -31.5 -13.5t-5.5 -36.5l4 -73q3 -2 12.5 -9t15 -12.5t7.5 -11.5q2 -5 0 -13t-6.5 -18t-5.5 -14q-6 -30 -6 -33q3 -21 6.5 -44t8 -52.5t7.5 -48.5 q6 1 17 2.5t19.5 3.5t14.5 6q5 2 11 13.5t11 18.5t9 3q19 -22 7.5 -49.5t-40.5 -36.5q-62 -21 -120 -39q-32 -12 -39 8q-2 8 2 21t10 16q7 3 12.5 7t9.5 7.5t6.5 10t4 9.5t2 12t0.5 10.5v12.5v11l-6 84q-21 -12 -45.5 -16t-42 -2.5t-46 5.5t-43.5 5q-2 -28 6 -70t11.5 -67.5 t-6.5 -67.5q24 -12 47 -4q18 6 27.5 29.5t13.5 23.5q20 0 25.5 -16.5t-3.5 -37.5t-28 -32q-34 -18 -80 -21q-8 -1 -31 -1.5t-38.5 -4t-29.5 -12.5q-14 -7 -32 0q-15 5 -18 18.5t9 24.5q13 9 29 16q33 11 39 19t6 43q0 41 -4 127q0 2 -12 31l-39 -15q-36 -8 -45 19 q-7 27 26 39q10 4 62 18l-21 135l-43 -29q-15 -9 -30 -6t-21 15q-6 15 -1 28t18 17q57 22 112 30q4 1 17 2t18 2.5t14 5t14.5 10t8.5 17.5q2 5 10 9t12 2q12 -3 21 -21q8 -22 -4.5 -45t-38.5 -33q-30 -10 -35.5 -18t-3.5 -39q1 -12 3 -31q4 -41 12.5 -49t59.5 -16 q7 -1 11 -2q1 0 16 -3.5t23 -3.5q24 0 38 14t13 38q0 34 -8 112zM545 723q9 32 47 17q33 -14 47 -45q3 -8 4 -15q6 -37 -12.5 -66t-55.5 -39q-36 -12 -139 -36q-1 -67 17.5 -200t17.5 -200q51 -25 67.5 -19t45.5 60q36 -17 40.5 -35.5t-20.5 -46.5q-50 -56 -119 -32 q-49 18 -79 18q-61 4 -68 -45q-3 -14 -16 -20t-27 -1q-14 6 -18.5 18.5t2.5 22.5q21 37 40 54q13 11 52 24q29 11 36.5 20t4.5 36q-4 43 -13.5 124.5t-11.5 98.5l-14 88q-3 28 -12.5 38.5t-36.5 14.5l-54 12q-37 8 -57 6q-43 -6 -43 -55q0 -21 8.5 -31t32.5 -16 q2 -1 9.5 -0.5t8.5 -1.5q16 -8 19 -20q0 -11 -12 -19q-29 -20 -65.5 -10.5t-53.5 41.5q-18 36 -12.5 69t24.5 57t45 34q45 18 107 4q31 -5 75 -19q72 -20 193 15q29 7 32.5 32t-20.5 47q-2 2 -7.5 6.5t-7.5 7.5t-1 7zM1065 713l-29 -33q-1 -1 -4.5 -10t-7.5 -11 q-20 -15 -29 -10q-6 2 -10.5 11t-3.5 16q0 15 12 35q32 35 74.5 51t83.5 0q17 -7 37 -10t33.5 -3.5t38.5 0.5t36 1q17 0 29 10.5t17 22.5t11.5 21t14.5 7q33 -7 35.5 -30t-21.5 -40q-68 -51 -141 -43q-35 5 -48.5 4t-41.5 -14l29 -164q15 0 52 7.5t59 7t22 -16.5 q0 -13 -7.5 -20.5t-14.5 -9.5t-21 -3q-28 -3 -64 -10q-28 -5 -28 -43q2 -35 2 -104l71 -33q53 -17 78 29l6 12q16 12 23 10q6 -2 11 -8t5 -12q0 -24 -10 -37q-25 -38 -66 -49t-84 8q-67 31 -106 4q-27 -19 -43 2q-12 12 -8 29q3 28 35 28q4 0 12.5 3t15.5 4q8 61 10 96 q0 21 -10 28q-32 21 -2 56q17 24 10 59q-7 40 -11 56t-17.5 45.5t-34.5 50.5z" />
<glyph unicode="D" horiz-adv-x="1837" d="M934 360q10 26 36.5 80t36 87t9.5 75q0 14 -4 45t-4 45v31q0 10 -4 76l-240 -94v-308q4 -2 12 -2q16 0 40.5 12t27.5 13q14 -21 14 -31q0 -18 -36 -37.5t-87 -44.5t-73 -47q-10 -10 -21 -14h-4h-5h-5t-4.5 0.5t-4 1t-4 1t-3.5 2t-3 3t-1.5 3.5t-0.5 5q0 14 22.5 49 t22.5 60v22q6 46 6 94q0 31 -2 93t-2 92q0 38 5.5 114.5t5.5 114.5v24.5v36.5t-0.5 38.5t-2 41t-4 32.5t-6.5 25.5t-10 8.5q-3 1 -18 3t-21 7.5t-6 18.5q0 23 99.5 59.5t123.5 36.5q11 0 21 -6t10 -15q0 -6 -3.5 -14t-6.5 -10q-16 -5 -29 -16.5t-21 -24.5t-14 -33t-9 -35 t-4 -39.5t-1.5 -36.5t0 -36t0.5 -29q0 -25 1 -76t1 -78v-28q20 8 59 20.5t65.5 22.5t55 22.5t43 27t14.5 30.5q0 31 -6 91t-6 89q0 13 4 71q-3 2 -17.5 13.5t-22.5 18t-19.5 17.5t-17 21t-5.5 19q0 14 31 25.5t85.5 23t70.5 16.5q11 3 35.5 19.5t40.5 15.5q5 0 9.5 -10 t4.5 -17q0 -24 -27 -43q-34 -26 -45.5 -60t-11.5 -83q2 -58 2.5 -192t5 -235t16.5 -196q5 0 15 0.5t13.5 0t8.5 -2.5t7 -8t2 -16q0 -18 -16.5 -27.5t-39 -12t-50 -11t-44.5 -23.5q-6 -6 -13.5 -10t-12.5 -6t-15.5 -3.5l-14 -2t-17.5 -1t-17 -0.5zM1663 834q41 -20 56.5 -39 t15.5 -50q0 -15 -3 -48.5t-3 -51.5v-51q0 -29 -5 -38t-24 -9q-2 0 -13 1t-16 1q-22 0 -58.5 -10t-62 -19t-74.5 -29t-61 -24q-14 -5 -57.5 -10t-65.5 -19q-1 0 -2 -1t-2 -1q-5 0 -15.5 7.5t-10.5 11.5q0 9 3.5 16.5t13.5 12.5l16 8t21.5 7.5t20.5 6.5l6 39q0 25 -1 76t-1 77 q0 49 4.5 148.5t4.5 148.5q0 35 -3.5 105.5t-3.5 105.5q-1 44 -17.5 61.5t-59.5 22.5q0 2 -1 5t-1 5q0 51 186 89q37 7 113.5 44.5t117.5 39.5q25 0 35 -8.5t10 -32.5q0 -14 1.5 -59t1 -75t-3 -65.5t-11.5 -54.5t-24 -19q-12 0 -32.5 50t-36 100.5t-13.5 48.5q-19 -8 -41 -8 q-5 0 -14.5 1t-14.5 1q-37 0 -56.5 -16t-23 -39.5t-4.5 -51t0 -51.5l-12 -205q0 -5 1 -16.5t1 -16.5q40 10 61 20t30 27t10.5 33t4.5 48.5t11 62.5q3 16 26 16q33 0 33 -26q0 -6 -1 -18t-1 -17q0 -45 2 -136.5t2 -136.5q0 -8 -10 -38q-25 24 -45.5 54.5t-32.5 46t-25 15.5 q-14 0 -25 -3.5t-18.5 -8t-12 -15t-7 -17.5t-3.5 -22.5t-1.5 -24t0 -28t0.5 -28.5q0 -34 4.5 -98.5t5.5 -88.5q0 -5 -2.5 -17t-3.5 -21q71 22 108 39.5t59 53t28 62.5t16 101q4 28 6 43zM266 1010q-21 -16 -37 -36.5t-25 -38.5t-16 -45t-9.5 -43.5t-6.5 -47.5t-6 -45 q-7 -31 -27 -31q-33 0 -33 31q0 15 5.5 43t5.5 41q0 26 -7.5 76t-7.5 75q0 30 16.5 43t38 13t47 7.5t38.5 26.5q5 8 22 8q20 -4 31 -4q17 0 37 3.5t34.5 7t37.5 12t33 12.5t36 15.5t31 13.5q15 6 26 6q16 0 29.5 -11.5t13.5 -27.5q0 -20 -14 -70t-14 -77q0 -13 2 -36t2 -34 q0 -2 0.5 -9t0 -12t-1 -12.5t-2 -12.5t-4.5 -10t-8 -7.5t-12 -2.5q-16 0 -24 15.5t-10 39t-6 51t-10 51t-24 39t-47 15.5q-12 -136 -12 -196q0 -94 8 -269t9 -235q0 -3 -1.5 -9.5t-1.5 -10.5q2 -18 7 -24.5t20 -6.5t45.5 10t46.5 10q20 0 33 -20q-25 -40 -86.5 -69.5 t-131 -53t-93.5 -39.5q-25 -18 -47 -18q-18 0 -30.5 14t-12.5 33q0 16 18 29.5t43 13.5q20 0 35 7.5t24 24.5t14.5 32t7 43t2 43.5t0 48t-0.5 42.5q0 13 0.5 106.5t-0.5 127t-3.5 105.5t-9.5 125.5t-18 103.5zM983 1507q-41 27 -41 56q0 19 14.5 37t24.5 18q21 0 61.5 -39 t67.5 -39q42 0 84.5 10.5t94.5 29.5t79 26q42 11 78.5 55.5t36.5 87.5q0 50 -43.5 82.5t-89.5 32.5q-39 0 -82 -26.5t-43 -68.5q0 -16 14.5 -25t32.5 -12t32.5 -13t14.5 -27q0 -20 -17 -33.5t-42 -13.5q-46 0 -75.5 43t-29.5 84q0 71 59.5 113t124.5 42q32 0 67.5 -11 t69.5 -32.5t56 -60.5t22 -88q0 -37 -16.5 -68.5t-39.5 -51.5t-61.5 -39t-68 -29.5t-75 -25t-66.5 -22.5q-3 -2 -21.5 -11.5t-29.5 -14.5q5 -11 13 -23.5t11.5 -20t3.5 -14.5q0 -14 -16 -26.5t-29 -12.5q-20 0 -54 30t-56 30q-33 0 -103.5 -20.5t-111.5 -37.5 q-62 -27 -183 -47q-51 -10 -151.5 -38.5t-151.5 -37.5q-6 -2 -16 -2q-15 0 -34.5 4t-46.5 11.5t-34 9.5q-12 -9 -12 -16q0 -6 7 -18.5t7 -18.5q0 -9 -9.5 -16t-19.5 -7q-17 0 -28.5 22.5t-11.5 45.5q0 34 24.5 56t56.5 22q16 0 50.5 -8.5t52.5 -8.5q43 0 83.5 8t105 27 t79.5 23q166 41 381 118zM942 211q-7 1 -20 1.5t-19 1t-16 2t-14.5 4t-9.5 7t-7 10.5t-2 15q0 31 53 31q64 0 111 -82q111 29 324 108.5t237 87.5q26 11 47 11q6 0 14.5 -7.5t8.5 -13.5q0 -32 -55 -57t-130 -44.5t-90 -27.5q-66 -32 -127 -43q-69 -12 -155 -52t-86 -69 q0 -9 3 -19.5t8 -24t7 -19.5q0 -15 -25 -15q-32 0 -49.5 24.5t-21.5 76.5q-20 4 -35 4q-195 -16 -250 -25q-242 -38 -242 -147q0 -27 32.5 -73t55.5 -46q27 0 61 25t34 49q0 15 -20.5 39t-20.5 32q0 11 9 21t21 10q28 0 54 -29.5t26 -60.5q0 -61 -49.5 -104t-105.5 -43 q-63 0 -112.5 60.5t-49.5 121.5q0 38 14.5 69t43 53t57.5 37.5t70.5 27.5t69.5 18.5t66 13.5q8 1 11 2q30 6 96.5 5.5t114.5 5.5t63 28z" />
<glyph unicode="E" horiz-adv-x="1923" d="M1055 657v68q-18 -7 -63 -22t-72.5 -25.5t-51.5 -29.5t-24 -40v-119l57 7q6 -18 6 -31q0 -17 -49.5 -44t-93.5 -42q-24 -9 -115 -23q-6 0 -16.5 6.5t-11.5 12.5q0 19 17 30.5t38 15.5t38 18t17 40q0 46 -3.5 160.5t-2.5 185.5q-53 -16 -61 -16q-14 0 -24.5 7.5 t-10.5 21.5q0 15 14.5 33t30.5 18q57 1 145.5 46.5t132.5 51.5q25 0 25 -26q0 -14 -14.5 -25.5t-28.5 -15.5q-63 -26 -80.5 -43t-17.5 -58q0 -35 8 -117q20 9 95 43t118 54q0 4 -2 34t-4 42.5t-10 32.5t-21 30q-19 16 -19 29q0 31 99 62.5t121 31.5h6q12 0 20 -6t8 -15 q0 -19 -16.5 -37t-34.5 -18q-13 0 -24 8l14 -420l94 29q23 -26 23 -39q0 -12 -28 -22t-83 -22t-67 -15q-16 -5 -42 -17t-46 -21t-27 -9q-13 0 -27 12t-14 20q0 14 18 21q11 3 19.5 7.5t14.5 12.5t10.5 13.5t7.5 18t4.5 17t2.5 20.5t1 19v20.5v18.5zM1788 1020q-26 10 -33 36 t-12 51.5t-29 33.5l-149 -43v-195q23 3 37.5 22.5t20 41t16.5 39.5t28 18q20 0 23 -36t-3 -87.5t-6 -60.5v-15q0 -7 -9.5 -19.5t-16.5 -12.5q-21 0 -32.5 17t-33.5 17q-9 0 -14 -3.5t-7 -10.5t-2 -12.5t0.5 -16t0.5 -14.5v-16.5v-19.5t0.5 -19t2 -19.5t4 -15t7 -11 t10.5 -3.5q43 0 72 23.5t42.5 57t23.5 66.5t22.5 56.5t30.5 23.5q11 0 18 -10.5t9 -32t2.5 -38t-0.5 -43.5t-1 -34q0 -34 -94 -77t-192 -70t-127 -27q-30 0 -35 23q0 14 11.5 21t25.5 8.5t26.5 11.5t14.5 30q8 91 10 138q-12 -2 -27.5 -5.5t-24.5 -5.5t-14 -2 q-9 0 -18.5 8.5t-9.5 20.5q0 6 2.5 11.5t9 9.5t12 7t16.5 6t16.5 4t18.5 3.5t17 3.5q4 58 4 84q0 68 -18 121q-13 -8 -30.5 -20t-28.5 -18.5t-17 -6.5q-15 0 -43 28q31 31 87.5 59.5t104.5 28.5q37 0 156.5 53.5t130.5 53.5q9 0 15 -12t8 -37t2.5 -42.5t0 -50.5t-0.5 -38 q0 -31 -31 -37zM279 659q-54 -14 -74.5 -28t-20.5 -41q0 -7 5.5 -32.5t5.5 -37.5q0 -17 -10.5 -30t-34.5 -13q-23 0 -34.5 19t-11.5 43v30q0 11 -1 32t-1 32q0 19 16 33.5t35 21.5t50.5 17t46.5 16q41 17 121 52.5t121 53.5q21 9 34 9q33 0 33 -45q0 -152 -55 -152 q-21 0 -30 14t-9 31l10 64q-7 -2 -23 -6t-21.5 -6t-14.5 -7t-12 -12t-3 -17q0 -27 11 -327l8 -13q10 3 30.5 10t36.5 12t25 5t19 -7t10 -22q0 -25 -188 -86q-13 -4 -19 -6q-26 -8 -51 -21t-56.5 -33t-50.5 -30q-6 -2 -14 -2q-12 0 -21.5 8.5t-9.5 22.5q0 17 24.5 34 t54.5 29.5t54.5 33t24.5 44.5q0 57 -4.5 159t-5.5 148zM1468 1268q35 15 96 35t76 20q9 0 17 -6.5t8 -18.5q0 -23 -92 -59.5t-181.5 -62t-99.5 -25.5q-40 -3 -81.5 -16t-93 -35t-77.5 -31q-98 -32 -471 -143q-12 -4 -32 -15.5t-29 -15.5q-206 -86 -281 -115q-12 -6 -24 -6 t-21.5 8.5t-9.5 20.5q0 20 68.5 51t164.5 66.5t123 48.5q95 48 291 102.5t254 75.5q94 34 226.5 69t168.5 52zM270 94q-2 2 -6.5 5t-8 6t-6.5 7.5t-3 8.5q0 17 12 29t31 12q29 1 59 9t67 22t56 20q90 26 224.5 57.5t195.5 48.5q176 45 422 121q31 9 105.5 33t111.5 35 q161 49 235 65h4q13 0 22 -8t9 -22q0 -22 -77 -47.5t-185.5 -50t-124.5 -29.5q-42 -13 -158 -53.5t-180 -59.5q-91 -26 -355 -88t-401 -109q-10 -4 -49 -12z" />
<glyph unicode="F" horiz-adv-x="1343" d="M602 487q19 0 30 4.5t17 4.5t11.5 -5t5.5 -14q0 -27 -81.5 -71t-107.5 -44q-43 0 -43 21q0 7 4 14t7.5 11t10.5 10t9 8q49 42 49 133q0 22 -1 63.5t-1 61.5q0 64 5 192t5 193q-61 23 -61 43q3 24 80 63t98 39q51 0 51 -28q0 -10 -10 -17q-80 -47 -80 -241q0 -38 6 -76 q12 6 46 20t51 23t33 27t16 39v110q0 5 1 23.5t0 28t-3 24t-9 24.5t-18 17q-16 10 -16 20q0 13 62.5 41.5t78.5 28.5q11 0 22 -9.5t11 -19.5q0 -6 -25 -39.5t-25 -62.5q0 -118 19 -576q6 -1 18.5 -3.5t17 -4t11.5 -5t9.5 -8.5t2.5 -13q0 -22 -74 -58.5t-92 -36.5 q-16 0 -26 12.5t-10 24.5q0 5 4 21q39 108 39 295q0 8 -1 26t-1 27q-43 -9 -95.5 -38.5t-52.5 -53.5q0 -37 -3 -112.5t-3 -113.5q0 -7 3.5 -21.5t4.5 -21.5zM1130 1313q-46 -23 -60.5 -42t-14.5 -57v-25.5v-38.5v-43t1 -45t2.5 -38.5t4 -28.5t6.5 -10q20 0 29.5 18.5t11 41 t13.5 41t36 18.5q8 -1 14.5 -7.5t9.5 -19t5 -26t2.5 -32t0.5 -32.5t-0.5 -33.5t-0.5 -29.5q0 -66 -37 -66q-12 0 -21 11t-13.5 24t-13 24t-20.5 11q-20 0 -20 -29q4 -164 4 -246q28 9 46 19t28 18.5t14.5 27t5 31t0.5 43.5v15q0 14 10.5 27.5t24.5 13.5q27 0 27 -23 q0 -6 -1 -19t-1 -18q0 -21 9 -59.5t9 -56.5q0 -30 -26.5 -42t-73.5 -20.5t-72 -23.5q-5 -3 -18 -10.5t-21 -11.5t-19.5 -9.5t-20.5 -8t-17 -1.5q-31 0 -31 20q0 21 6.5 59.5t7.5 55.5q10 155 11 194q-5 0 -14 -1t-13 -1q-11 0 -25 6.5t-14 14.5q0 17 11.5 27t25.5 14 t25.5 14.5t11.5 28.5q0 64 -1.5 103t-11.5 94.5t-30 80.5q-6 7 -10 5t-6.5 2t-2.5 22q0 12 26.5 27t85 39t83.5 36q6 3 19.5 10t22 11t20 8t20.5 4q15 0 24 -10t9 -27q0 -107 -8.5 -161.5t-38.5 -59.5q-11 0 -28.5 71t-17.5 81zM215 930q-6 -12 -16.5 -45t-21 -50.5 t-25.5 -17.5q-39 0 -39 41q2 8 2 25q0 10 -6.5 29t-6.5 28q0 16 15 32t40.5 29.5t49 23t51.5 20t37 14.5q4 2 45.5 28.5t65.5 26.5q21 0 29.5 -9.5t8.5 -33.5q0 -48 -11 -90.5t-38 -42.5q-20 0 -29 18t-16 60q-3 -2 -11 -8t-10.5 -9t-2.5 -6q-2 -56 -7 -171.5t-7.5 -206 t-2.5 -171.5q0 -32 0.5 -43t6.5 -17.5t13.5 -5.5t28 -3.5t43.5 -14.5q-27 -27 -61 -46.5t-83 -40t-67 -29.5q-16 -8 -24 -8q-10 0 -17.5 10t-7.5 20q0 19 19 27q17 7 30 21.5t21.5 29.5t14.5 40.5t8.5 43t4 49.5t2 47t0 49t-0.5 43q0 314 -25 314zM195 1124q-3 2 -10.5 6.5 t-11.5 7.5t-7.5 7.5t-3.5 9.5q0 6 3.5 14t12 17.5t15 17t20 19.5t19.5 17.5t20.5 17.5t17.5 14q36 31 92.5 52.5t109 31.5t119.5 27.5t114 39.5q175 80 262 129q1 0 14.5 10.5t24.5 10.5q10 0 17 -7t7 -16q0 -47 -81 -108t-165 -96q-178 -77 -278 -101q-14 -3 -54.5 -11 t-61 -13.5t-52 -15t-53 -22.5t-37.5 -30q-5 -5 -13 -9.5t-21.5 -11t-18.5 -8.5zM1233 522q0 -16 -49 -72.5t-94 -99.5q-23 -22 -39 -32t-23.5 -13t-35 -5t-46.5 -5q-28 -4 -99 -13t-109.5 -14t-101.5 -17t-103.5 -25t-86 -34.5t-77.5 -48.5q-30 -26 -56 -26q-11 0 -18.5 7.5 t-7.5 16.5q0 24 26 50.5t66 49t70.5 37.5t56.5 25q68 24 192 49t166 37q224 72 326 139q28 19 35 19q8 0 8 -25z" />
<glyph unicode="G" horiz-adv-x="1163" d="M893 1063q-37 -10 -42 -16q-5 -7 -5 -23q0 -38 10 -238q0 -2 8 -14q2 1 10 3t11 3t9.5 3.5t9 4.5t7 6t6.5 8.5t3.5 11t1.5 13.5q0 6 7.5 14.5t12.5 8.5q23 0 35 -30.5t12 -61.5v-4q0 -78 -31 -78q-11 0 -20 8t-13.5 15.5t-11.5 21.5q-31 -18 -39 -26.5t-8 -24.5 q0 -28 6.5 -101.5t6.5 -103.5q36 2 53 22t19 48t2.5 56t11 47t36.5 19q12 0 21.5 -9.5t9.5 -22.5q0 -8 -2 -24.5t-2 -23.5q0 -19 5 -54t5 -52q0 -28 -29 -42t-71.5 -19.5t-48.5 -8.5q-17 -7 -55.5 -27t-70 -34t-48.5 -14q-12 0 -20.5 10t-8.5 24q0 11 15 18.5t33 12.5 t33 17.5t15 31.5q0 11 1 33.5t1 34.5q0 220 -14 409q-2 23 -18 52.5t-29 29.5q-11 0 -38 -18t-44 -18q-37 0 -37 30q0 20 75 56.5t128 44.5q11 1 69 29t91 28q26 0 26 -31q0 -16 -2 -46t-2 -44q0 -18 6 -50.5t6 -47.5q0 -29 -32 -29q-27 0 -39 18.5t-12 42.5t-5.5 54 t-19.5 47zM377 270q7 5 17.5 13.5t15.5 12t12 8t12 6t10 1.5q11 0 20 -10.5t9 -24.5q0 -41 -101 -90t-145 -49q-23 0 -41 21q3 21 17 32t36.5 21.5t34.5 21.5q0 12 3.5 93.5t3.5 126.5q0 63 -9 220.5t-18 157.5q-28 0 -56 -35.5t-53 -35.5q-21 0 -32 14.5t-11 32.5 q0 48 36 78t83 41t107.5 32.5t95.5 51.5q18 16 74 16q20 0 20 -27q0 -33 -15 -70.5t-36 -37.5q-11 0 -32 7t-29 7q-10 0 -17.5 -4t-11.5 -14t-7 -18.5t-4 -27t-1 -30v-35.5v-10q0 -228 6 -459q0 -10 6 -37zM606 627q-2 -1 -10 -3t-11 -2.5t-10 -2.5t-10 -3.5t-8 -4.5 t-7.5 -5.5t-5.5 -6t-4 -8t-1 -9.5q0 -98 16 -136q8 -20 8 -26q0 -20 -22.5 -36.5t-46.5 -16.5q-22 0 -38 13t-16 32q0 10 4 14q21 33 21 76q0 9 0.5 41.5t0 49t-2 46t-5 47t-10 36t-16.5 28.5q-10 8 -10 20q0 14 35.5 43t62.5 29q33 0 33 -27q0 -11 -13.5 -37.5t-13.5 -40.5 t3.5 -40.5t7.5 -26.5q15 0 27.5 4.5t28.5 13.5t23 12l-12 123q0 17 13.5 38.5t29.5 21.5q14 0 23 -10.5t12 -33t3.5 -33t0.5 -34.5v-63q4 -151 21 -209q4 -20 4 -27q0 -19 -15 -31t-43 -12q-13 0 -26 6t-13 17q0 7 11.5 37t11.5 47q3 41 -31 90zM805 190q-41 0 -97.5 -18.5 t-139 -54t-109.5 -45.5q-23 -9 -29 -9q-9 2 -20 7.5t-11 9.5q0 21 29.5 41.5t74.5 39t46 19.5q37 12 153 60t185 63q11 2 45.5 15.5t48.5 13.5q20 0 50 -29t30 -51q0 -80 -119 -80q-3 -3 -31.5 1.5t-62 10.5t-43.5 6zM791 1198q-91 -69 -243 -115.5t-263 -46.5 q-32 0 -73.5 19t-41.5 39q0 38 36.5 74t67.5 36q14 0 43.5 -26.5t53.5 -26.5q13 0 53 -0.5t56.5 -0.5t52.5 3t62.5 9t65 17.5t78.5 28.5q12 6 25 6q14 0 27 -16z" />
<glyph unicode="H" horiz-adv-x="2228" d="M907 1130q-14 -57 -14 -122q0 -24 2 -53.5t5.5 -66t4.5 -57.5q26 24 78.5 53.5t73.5 47.5q15 13 50 31.5t56 35t21 35.5q0 119 -23 166q-12 0 -28 -4q-22 0 -37 12t-15 29q0 7 2 12.5t4.5 9.5t8.5 7t9.5 5t11.5 3.5t11.5 2t12 2t10.5 1.5q34 0 69 15.5t76.5 40.5t65.5 36 q12 6 24 6q10 0 19.5 -8t9.5 -22q0 -15 -13 -27.5t-28 -20.5t-28 -22.5t-13 -32.5q0 -25 -1 -73t-1 -72q0 -106 19 -355q11 7 29.5 19.5t30.5 20.5t25.5 16t23 12t16.5 4t13.5 -7t6.5 -13q0 -13 -81 -88.5t-103 -81.5q-17 -5 -54 -17.5t-65 -19t-55 -6.5q-41 0 -41 30 q0 10 8 19.5t22 9.5q70 7 70 86q0 10 -1 32t-1 32q0 13 1 41t1 43q0 13 -4 53q-279 -127 -295 -178q-6 -18 -6 -54q0 -90 24 -143q37 22 64 41q7 -8 15.5 -13t13 -6.5t7.5 -5.5t3 -12q0 -27 -144 -110q-51 -29 -112.5 -56.5t-83.5 -27.5q-37 0 -37 30q0 16 14 31.5t33 15.5 q42 0 62 34.5t20 80.5q0 31 -4 92t-4 92v127q0 68 -14 197q-7 -8 -18 -21.5t-16 -19t-12 -10t-14 -4.5q-12 0 -23.5 12t-11.5 25q0 33 29 59t60.5 37.5t83.5 27t67 21.5q47 15 104 61q23 -18 23 -59q0 -10 -3.5 -16t-14 -12t-20.5 -9.5t-33 -11.5t-42 -15zM2001 1100 q8 19 15 66t13.5 74t16.5 17q27 -6 43 -22t16 -37q0 -5 -1 -16.5t-1 -16.5q0 -22 11.5 -61t11.5 -51q0 -16 -35 -29.5t-86.5 -31.5t-77.5 -40q-144 -122 -250 -141q-73 -14 -108 -49q-27 -27 -49 -27q-10 0 -20.5 10t-10.5 21t58.5 62t92.5 63q23 10 23 51q-8 300 -25 432 q-10 -3 -24 -7t-20.5 -6t-17 -3.5t-20.5 -1.5q-45 0 -45 37q0 8 8 17.5t15 10.5q39 7 79 24.5t88 44t75 38.5q10 4 227 110q30 15 41 15q14 0 27 -8q-1 -16 -6 -64t-5 -76q0 -29 12.5 -85t12.5 -83q0 -8 -7.5 -15t-21.5 -7t-25 24.5t-19.5 54.5t-34 54.5t-64.5 24.5 q-33 0 -84 -19.5t-51 -36.5q0 -8 -1.5 -42.5t-1.5 -58.5t3.5 -49.5t11.5 -33.5q4 3 22 12.5t23.5 13t17.5 13t16 17t8.5 20t4.5 26.5q0 54 27 54q24 0 24 -37q0 -9 -1 -29t-1 -29q0 -34 -4 -89.5t-4 -84.5q0 -11 -12 -20.5t-19 -9.5t-12 14.5t-8.5 32.5t-14.5 32.5t-30 14.5 q-17 0 -28 -11t-11 -26q3 -32 22 -174q14 8 66 32t83 46t42 49zM258 838q-22 -8 -37 -23t-23 -38.5t-12 -40.5t-7 -45.5t-5 -37.5q-21 -6 -35 -6q-19 0 -28 44.5t-9 105.5q0 17 18 33.5t50.5 32t65 28.5t73.5 28.5t64 26.5q23 10 68.5 37.5t81 47.5t48.5 20t22 -10t9 -21 q0 -9 -4 -21q-25 -80 -25 -153q0 -9 2.5 -28.5t2.5 -29.5q0 -12 -7 -17t-14 -5q-17 0 -32 21t-24.5 46.5t-22 46.5t-25.5 21q-8 0 -14.5 -5.5t-6.5 -14.5q0 -4 1 -13.5t1 -13.5q0 -30 -11 -88t-11 -88v-14q0 -9 -1 -26.5t-1 -25.5q0 -71 16 -84l27 -174q14 3 43.5 16 t42.5 13q8 0 16 -8t8 -19q0 -9 -8 -19.5t-23.5 -21.5t-31.5 -20.5t-38.5 -21t-37.5 -18.5t-36 -16t-26 -12q-15 -7 -51.5 -26.5t-64.5 -34t-33 -14.5q-10 0 -20.5 9t-10.5 19q0 12 11.5 24t23.5 15q15 6 26 19.5t17.5 35t10 40.5t5 49t1.5 48.5t-0.5 50.5t-0.5 44 q0 49 -3 104t-8 121.5t-7 106.5zM328 1294q-2 -3 -13.5 -14.5t-15.5 -16t-12.5 -15.5t-12 -17.5t-7 -15.5t-3.5 -17q0 -47 51 -47q36 0 82 13.5t77.5 28t84 40.5t72.5 35q40 18 146.5 67t182 82t150.5 64q44 18 162.5 62t183.5 73q2 1 26.5 11.5t30 13t28 12.5t30 13.5 t27.5 13t29.5 15t26.5 14.5t27.5 16.5t23.5 16t24 17.5q11 8 24 8q11 0 23 -9t12 -19q0 -12 -12.5 -26t-38 -30t-52.5 -31t-68.5 -33t-73 -31.5t-79 -31.5t-73 -28t-68.5 -25.5t-53 -19.5q-49 -18 -98.5 -37.5t-105 -43.5t-94.5 -41t-103.5 -47.5t-93 -44.5t-102.5 -49.5 t-95 -45.5q-187 -87 -283 -87q-40 0 -75.5 32t-35.5 67q0 41 36.5 81t76.5 40q15 0 31 -13zM1987 657l55 60q-14 14 -33 14q-8 0 -20.5 -4.5t-28.5 -13t-28 -15.5t-30.5 -18.5t-25.5 -15.5q-139 -78 -457 -213q-19 -7 -33 -19q-99 -76 -278 -151q-130 -57 -184 -109 q-14 -14 -52 -14q-29 0 -48 10t-19 25t61 45t150 67.5t114 50.5q46 22 168.5 94.5t196.5 102.5q162 66 311 149q17 10 52 34t62.5 40t47.5 19q62 8 92 8q23 0 40.5 -22t17.5 -44q0 -27 -33 -64.5t-55 -37.5q-18 0 -43 22zM481 1417q21 -8 49 -8q13 0 28 2.5t34 8.5t33 11 t38 16t35.5 16.5t38 20t34 18t35.5 19.5t30 17q58 32 180 87.5t184 90.5q12 6 27 6q13 0 24 -9t11 -25q0 -15 -49.5 -40t-130.5 -57.5t-101 -42.5q-40 -19 -112.5 -60.5t-126 -71.5t-121.5 -54t-121 -23q-33 0 -61.5 23.5t-28.5 50.5q0 34 29.5 68t62.5 35q8 0 14 -5t6 -10 q0 -11 -20.5 -35t-20.5 -49zM1880 410q5 5 18 17t19.5 19t13 18t6.5 21q0 21 -16 21q-41 0 -154 -55q-27 -13 -146 -77t-189 -93q-33 -14 -81 -56.5t-65 -42.5q-26 0 -26 27q0 15 10 30.5t31 31.5t40.5 29.5t51.5 29.5t51 25t51.5 23.5t40.5 18.5q50 23 106 51.5t123 65 t105 55.5q29 13 51 13q34 0 63 -25t29 -61q0 -32 -35 -67.5t-67 -35.5q-20 0 -31 17z" />
<glyph unicode="I" horiz-adv-x="2033" d="M913 682q112 0 177 33q11 6 20.5 20.5t9.5 26.5q3 95 -6 194q-4 50 -51 56q-8 0 -10 2q-13 5 -17.5 7t-11.5 9.5t-6 18.5q5 26 41 26q53 0 63 2q12 3 34 14.5t32 14.5q12 4 34.5 12t40.5 13.5t35 9.5q9 1 23 -6.5t20 -16.5q11 -20 -22 -43q-5 -3 -19 -8q-65 -21 -61 -111 q8 -107 25 -258q6 -78 18 -155q9 -62 72 -68h10q37 4 47 -26q3 -12 -9 -23.5t-34 -15.5q-14 -2 -39 2q-101 11 -155 -23l-5 -2q-14 -4 -18 -4.5t-15 -2t-18.5 2t-13.5 10.5q-20 20 20 64q19 19 17 30q0 64 -8 113q-9 47 -60 37l-84 -21q-34 -6 -48.5 -31t-4.5 -59l6 -22 q7 -40 25 -62.5t57 -23.5q14 0 22.5 -9t4.5 -22q-2 -9 -10 -18.5t-17 -12.5q-18 -2 -51 6q-14 2 -39 10t-37 11q-30 5 -70 -16q-35 -18 -71 -27q-19 -3 -32.5 6t-16.5 25q-3 18 8 31t33 14q26 1 39 14t16 39q1 5 6 21.5t4 25.5q-1 22 -19 36t-46 17q-39 0 -46 2t-13.5 9 t-6.5 14q-2 5 3 13t11 11q11 7 25.5 15.5t20.5 11.5t14.5 10t11 8t6.5 9.5t4.5 11t2 15t1 19t0 25.5t0.5 33q0 56 -34 137q-5 12 -31 21q-2 1 -5.5 3t-5.5 3t-5 3t-5 3.5t-4.5 4t-3.5 4.5l-2.5 5t-2 6t-0.5 7t1 8q5 31 43 37q55 6 170 26q20 4 53 21q41 18 56 -8 q12 -28 -23 -45l-43 -25q-39 -16 -39 -57q-4 -162 12 -248zM1862 748q3 5 -0.5 18.5t2.5 17.5q20 15 34 9q12 -3 17 -29q3 -20 -4.5 -59.5t-5.5 -57.5q5 -37 22 -86q16 -55 -39 -55q-87 4 -258 -43q-8 -3 -27.5 -5.5t-29.5 -6.5q-35 -13 -78 -37q-41 -23 -57 -2 q-22 25 12 55q19 16 43 22q44 9 62 49.5t-3 75.5q-3 5 -8 17.5t-8 17.5q-22 44 -51.5 57.5t-75.5 -1.5l-25 -9q-33 -7 -45 21q-10 22 21 39q15 10 43 22q60 23 77.5 52.5t10.5 93.5q-8 95 -41 141q-6 -1 -16.5 -2.5t-19.5 -2.5t-17 -1q-38 0 -35 31q0 14 11 25t26 11 q2 0 5 -1t5 -1q61 -17 166 30q8 3 12 5q34 15 98 46t74 36q22 10 51 6q14 -2 21 -12t4 -25q-18 -97 6 -227q5 -18 4 -20q-16 -27 -20 -29q-8 -2 -19 2t-14 10q-6 15 -15 28.5t-16 22.5t-23 22t-22 17t-26.5 18t-24.5 17q-35 27 -66 25q-8 -28 7 -137.5t32 -141.5 q25 4 44 22.5t24 41.5q1 3 0.5 12t1.5 12q12 35 41 35q4 0 7 -0.5t5.5 -2.5t3.5 -3.5t2.5 -5.5t2 -6t1.5 -8t1 -9q16 -93 16 -200q0 -14 -12 -16.5t-27 4t-25 16.5q-22 22 -37 29t-47 7q1 -7 4 -48.5t7 -63.5q6 -37 34 -48.5t60 11.5q4 3 18.5 13t20.5 14.5t18.5 15t19 20 t15.5 23t15 30t10 36.5zM256 248q5 33 39 61q35 26 49 75.5t0 90.5q-4 11 -25 21q-3 2 -24 2q-38 0 -47 26q-4 16 2.5 25t21.5 18l52 37q10 7 14 19q9 56 6 77q-2 30 -22 101q-4 13 -23 43q-87 -100 -61 -197q6 -18 -5.5 -36t-29.5 -21t-30.5 10.5t-12.5 36.5q3 118 -49 237 q-4 8 -9 41q29 29 50 13q26 -16 65 -6q55 11 148 34q43 13 61 13q41 2 84 45q6 6 18 19t21.5 22t19.5 16q6 6 18 8.5t21 -0.5q6 -1 10.5 -11.5t4.5 -20.5q-5 -78 -9 -103q-10 -55 13 -123q7 -24 14 -63q6 -34 -27 -51q-25 -12 -37 -8.5t-24 28.5l-59 113q-15 26 -39 24 q-20 -4 -29 -35q-9 -22 -4 -34q12 -64 33 -127q4 -10 39 -25q3 -2 16.5 -9t19.5 -13q19 -15 17.5 -34t-23.5 -28q-42 -17 -47 -57q-6 -50 31 -84q38 -36 117 -58q2 0 9.5 -1.5t10 -3l7.5 -4.5t6.5 -8t0.5 -13q-3 -40 -38 -43q-29 -6 -54 0q-116 24 -235 -54 q-28 -18 -38.5 -15.5t-37.5 30.5zM1808 1393q-3 -2 -12.5 -10t-16.5 -12t-14 -5q-35 -9 -143 -31q-106 -22 -174 -39q-131 -33 -211 -59q-58 -19 -225 -80q-25 -5 -29 -4q-162 18 -326 -10q-70 -12 -417 -80q-13 -4 -19 -2q-55 0 -82 2l-30 10l6 49l59 11q22 3 62.5 9t74 11 t62.5 10q27 5 209 47l174 41q58 12 91.5 51.5t59.5 102.5v4q14 47 51 55q28 6 64 -30q45 -41 86 -72q15 -12 35 -12q129 -4 205 12q60 11 171 27t134 20q26 4 86 16q17 6 36.5 0t32.5 -32zM1167 35q-4 3 -15.5 8t-14.5 10q-26 35 -97 43q-8 0 -40.5 2.5t-39.5 2t-40 -2.5 q-45 -9 -129.5 -17.5t-122.5 -14.5q-51 -8 -154 -27t-154 -27q-23 -6 -51 6q-7 3 -13.5 13t-4.5 16q0 17 18 31q11 7 43 12q61 11 134.5 27.5t116.5 27t139 35t122 31.5l123 29q58 13 84 53q18 30 51 16q18 -9 39.5 -15t38 -8.5t42 -2.5t38.5 1t42.5 3.5t39.5 3.5 q117 10 219 26q27 5 74.5 10t87 12t74.5 19q22 9 32 7q36 -8 39 -37q0 -27 -37 -35q-54 -10 -100 -21q-32 -7 -92 -23t-78 -20q-16 -4 -77 -14.5t-93 -19.5q-150 -45 -215 -138q-4 -5 -15 -12.5t-14 -9.5z" />
<glyph unicode="J" horiz-adv-x="1957" d="M1104 371q-72 -11 -149.5 -39.5t-125.5 -63.5q-11 -8 -24 -8q-11 0 -22 10.5t-11 22.5q0 13 12 22q15 13 24.5 29.5t19 39t14.5 32.5q37 68 37 192v131q0 386 -117 451q-23 13 -23 29q0 21 58 41.5t143 38.5t86 18q16 4 23 4q8 0 17 -8.5t9 -18.5q0 -4 -10 -24 q-66 -107 -66 -422q7 -33 29 -33q52 0 103 25t51 63q0 77 -17 170q-8 43 -33 122.5t-30 98.5q-6 18 -6 29q0 12 48 25t112 33t92 46q12 11 45.5 28.5t46.5 35.5q7 12 178 53q32 8 79.5 37.5t82 54.5t37.5 25q10 0 21 -17t11 -28q0 -53 -9 -160t-9 -160q0 -12 1 -33t1 -32 q0 -45 -33 -45q-19 0 -171 246l-11 18q-35 -38 -35 -182q0 -84 10 -148q11 4 19 13t14 24.5t9 25.5t8 31t6 25q43 -6 56 -19.5t13 -50.5q0 -33 3.5 -93t4.5 -79q-28 -14 -32 -14q-11 0 -36 23.5t-40 23.5q-4 0 -16 -4q2 -37 8.5 -74.5t19 -95l17.5 -80.5q25 32 46 73.5 t31.5 70.5t27 80.5t24.5 72.5q2 3 5 10t5 10t7 6t11 3q21 0 21 -19q0 -17 -6.5 -49t-6.5 -49q0 -186 21 -272q8 -28 8 -43q-3 -39 -29 -39q-6 0 -21.5 6t-21.5 6q-61 0 -134 -21.5t-117 -60.5q-19 -16 -31 -16q-14 0 -37 26q32 68 43.5 142.5t15.5 173.5q0 185 -32 459 q-3 27 -11 41t-32 40q-41 -37 -68.5 -150t-36 -213t-8.5 -181q0 -47 6.5 -133.5t7.5 -104.5q1 -26 24.5 -47.5t47 -35.5t23.5 -21q0 -19 -103.5 -70t-134.5 -51q-19 0 -27 8q-9 -50 -61 -57zM393 934q-4 -8 -22 -46t-23.5 -50.5t-18.5 -45t-18 -52.5t-9.5 -49t-4.5 -56 q0 -24 -9.5 -33.5t-31.5 -9.5q-23 0 -28 14.5t-5 50.5v7v63q0 88 -9.5 187.5t-29.5 119.5q-14 14 -14 31q0 31 35 43.5t99.5 16.5t84.5 8q183 39 258 88q15 12 31 12q24 0 34.5 -60.5t13.5 -164.5t3 -107q1 -17 9 -65t7 -70q0 -31 -28 -31q-13 0 -29.5 27t-41 83.5 t-28.5 63.5q-14 28 -37 48t-63 44q-18 -83 -18 -98q0 -18 16 -133q3 -26 6.5 -69t6 -74t8 -72t13 -71t20.5 -62.5t30.5 -54t43.5 -38.5t58 -24q19 0 34.5 -11t15.5 -26q-2 -10 -12.5 -18t-34 -14t-36 -8.5t-44 -7.5t-33.5 -5q-39 -7 -82 -23.5t-69.5 -30t-78 -43 t-71.5 -40.5q-13 -10 -29 -10q-9 0 -16.5 8.5t-7.5 17.5q0 24 42.5 70t53.5 67q44 88 59 188t19 240q0 275 -19 275zM139 1225q-12 0 -24.5 9t-12.5 19q0 24 44.5 37t128.5 35t147 55q5 3 35.5 18.5t41 21t40 22.5t43 26t38.5 27t37.5 31t30 32.5t25.5 37t14 38.5t6 43 q0 4 -1 14.5t-1 14.5q0 92 41 92q9 0 25 -9.5t22 -19.5q30 -70 115.5 -112.5t157.5 -42.5q87 0 188 27.5t175.5 60.5t156 60.5t135.5 27.5q13 0 23 -13t10 -28q0 -7 -3.5 -14t-11.5 -14t-16.5 -13.5t-24 -14.5t-29 -14.5t-35.5 -16t-39.5 -16.5t-45.5 -19l-49 -21 q-19 -8 -107 -33q-628 -177 -1009 -307q-44 -15 -91 -23.5t-80 -11t-100 -6.5zM1855 489q-8 -40 -43 -49q-125 -35 -229.5 -113.5t-212.5 -199.5q-43 -49 -43 -109q0 -5 1 -16.5t1 -17.5q0 -15 -9 -28t-28 -13q-24 0 -45 30q-19 29 -73 29q-167 0 -300 -15.5t-260 -58.5 q-47 -16 -130.5 -48.5t-102.5 -39.5q-24 -8 -35 -8q-25 0 -35 5.5t-10 21.5q0 9 5.5 18t16.5 18.5t23 18t30 18t30.5 16t32 15t29 12.5t25.5 10.5t17 6.5q33 14 130.5 61.5t154.5 65.5q35 10 72.5 25.5t83.5 36t71 30.5q139 56 400 155t366 140q30 6 31 6q7 0 13 -2.5 t8.5 -5t7.5 -8t7 -7.5zM1204 680q0 55 -10 127q-13 -4 -46 -12t-54 -14t-45.5 -15.5t-37 -20.5t-12.5 -24q0 -85 26 -160.5t89 -103.5q2 -1 49 -27q41 125 41 250z" />
<glyph unicode="K" horiz-adv-x="2263" d="M1260 598q-12 -4 -41 -9.5t-49.5 -11.5t-43.5 -16t-35 -27t-12 -40q0 -74 45.5 -153.5t100.5 -96.5q35 -12 35 -35q0 -16 -10 -27.5t-27 -11.5q-9 0 -36.5 8t-41.5 8q-9 0 -26 -1t-25 -1h-21q-24 0 -38 -6.5t-32.5 -21.5t-37.5 -25q-12 -6 -21 -6q-11 0 -24 9.5t-13 19.5 q0 19 33 47q49 52 49 118q0 26 -6 50q-80 349 -86 381q-11 59 -49 117t-82 71q-33 10 -33 33q0 21 11.5 34t29.5 13q22 0 69.5 -18.5t71.5 -18.5q70 0 129 78q10 14 25 14q11 0 20 -13t9 -28q0 -24 -29 -59q-57 -62 -57 -158q0 -76 19 -137.5t61 -61.5q63 0 142 40.5 t79 93.5q0 87 -32 148.5t-95 129.5q-10 13 -10 27q0 11 6.5 20.5t17.5 9.5q18 0 51.5 -26.5t55.5 -26.5t44 26t41.5 51.5t34.5 25.5q14 0 24.5 -10t10.5 -27q0 -15 -29.5 -72t-29.5 -94q0 -17 4 -45q4 -29 9.5 -84.5t10 -96t12.5 -95t18.5 -95t25 -80t36 -66.5t48.5 -40 q26 -13 45.5 -41.5t19.5 -52.5q0 -31 -37 -31t-96 32.5t-61 32.5q-10 0 -24.5 -20t-34 -40t-40.5 -20q-18 0 -29.5 14.5t-11.5 28.5q0 23 32 66t32 76q0 88 -2 131q-1 49 -30.5 70.5t-69.5 21.5zM1516 1126q0 24 20 33.5t43 9.5q18 0 65.5 -16t73.5 -16h20.5h22.5t20 0.5 t21.5 1.5t19.5 3t20.5 5t17 7t18 9.5t14.5 12.5q21 21 50 38t47 17t29.5 -8t17 -24t8 -31t4.5 -39t4 -37q2 -14 14.5 -63t12.5 -71q0 -14 -10 -24t-23 -10q-14 0 -30.5 21.5t-32.5 48t-46 48t-67 21.5q-40 0 -75.5 -22.5t-35.5 -67.5q0 -68 16 -141.5t46 -73.5 q37 0 58.5 29.5t21.5 66.5v14q0 25 6.5 36t23.5 11q11 0 23 -22.5t22.5 -58t18.5 -67.5t14.5 -63.5t7.5 -33.5q4 -20 4 -27q0 -14 -11 -24.5t-30 -10.5q-20 0 -35 13t-23.5 29t-25.5 29t-41 13q-18 0 -38 -14q8 -35 45 -166q6 -27 33.5 -52.5t50.5 -25.5q58 0 80.5 36 t29.5 105q8 39 43 39q18 0 32.5 -26t14.5 -47q0 -6 -1 -17.5t-1 -17.5q0 -25 8.5 -77t8.5 -79q0 -22 -17.5 -35.5t-42.5 -13.5q-18 0 -35 10q-62 33 -131 33q-17 0 -32.5 -1.5t-31 -5.5t-25.5 -6.5t-26.5 -10t-23.5 -10.5t-26.5 -13.5t-26.5 -13.5q-22 -11 -25 -11 q-9 0 -22 8t-13 17q0 11 11 22q63 58 63 152q0 27 -2 41q-37 294 -115 524q-7 18 -28 31t-42 18.5t-37.5 16t-16.5 24.5zM475 674q4 -59 9 -102.5t14 -106t23 -107t34 -87.5t50 -67.5t67 -27.5q18 0 29.5 -11.5t11.5 -29.5q0 -39 -95 -39q-12 0 -37 4t-38 4 q-35 0 -85.5 -30.5t-78.5 -30.5q-12 0 -22.5 7t-10.5 18q0 16 13.5 44t29.5 48q7 9 12.5 19t9.5 17.5t6.5 21t3.5 19t2 22t1 19.5v21.5v19.5q0 176 -45 408q-4 21 -19 33t-36 12q-34 0 -57 -30t-23 -64q0 -9 4 -30.5t4 -31.5q0 -47 -37 -47q-15 0 -25 13.5t-10 33.5v13 q0 115 -65 209q-13 17 -13 28q0 13 12.5 22t28.5 9q34 0 97.5 -12.5t93.5 -12.5q79 0 162.5 24.5t136.5 68.5q16 8 22 8q12 0 18.5 -5t9 -16t3 -21.5t1 -27.5t1.5 -29q2 -18 12.5 -72.5t10.5 -82.5q0 -51 -31 -51q-23 0 -38.5 22.5t-23.5 49t-25.5 49t-43.5 22.5 q-19 0 -32.5 -7.5t-20.5 -17.5t-11.5 -27.5t-6 -29t-2.5 -31t-1 -24.5z" />
<glyph unicode="L" horiz-adv-x="2138" d="M1049 557q31 73 102 143.5t135 67.5q31 0 51.5 -17t20.5 -44q0 -38 -18.5 -122t-18.5 -122q0 -86 53 -86q25 0 65 50t40 67l-5 27q-4 27 -4 44q0 125 61.5 199t137.5 74q31 0 57 -19t35 -35q-1 44 -8.5 96.5t-25.5 115t-44 112.5t-68 83.5t-93 33.5q-41 0 -84 -38 t-74 -95q-23 -42 -45.5 -73.5t-54 -64.5t-70 -51t-80.5 -18q-62 0 -117 38.5t-55 92.5q0 58 43.5 97.5t110.5 39.5q50 0 77 -32q20 -23 1 -36l-15 -3q-15 -3 -32 -8t-31.5 -17.5t-14.5 -30.5q0 -27 25 -44t55 -17q67 0 150 149q99 174 213 174q50 0 92.5 -17t72.5 -43 t54 -68.5t39 -81t25.5 -95t16 -96t8 -97.5t3 -86t0.5 -75q3 -44 44.5 -88.5t82.5 -44.5q30 0 64 22q9 3 10 -4q0 -19 -28.5 -50t-51.5 -32q-110 -9 -148 96q-3 7 -8 -3q-1 -4 -2 -5q-27 -69 -65 -137q-48 -78 -95 -78q-96 0 -147 133q-29 -60 -80 -123t-96 -63 q-44 0 -75.5 44.5t-31.5 117.5q0 75 28 157.5t32 108.5q4 33 -19 33q-17 0 -48.5 -39t-65 -113.5t-45.5 -154.5l-13 -87q-6 -65 -6 -67q-6 -29 -41 -29q-31 0 -31 60q0 20 -5.5 68.5t-6.5 64.5q-6 -26 -35 -97q-12 -30 -32.5 -65t-57 -69.5t-71.5 -34.5q-34 0 -65.5 17.5 t-49.5 43.5q-76 -99 -114 -134q-79 -73 -165 -73q-93 4 -162 63t-101 141t-32 171q0 58 13 128t37.5 144.5t64.5 144t89.5 125t118 88.5t144.5 33q120 0 183 -75.5t63 -188.5q-4 -51 -49 -65q-32 -12 -49 2q-12 10 -2 30q35 79 -20 152.5t-136 73.5q-65 0 -120.5 -49.5 t-90 -124.5t-53.5 -158.5t-19 -157.5q0 -71 18 -129.5t64 -99.5t115 -41q28 0 84 45t70 70q11 22 8 41q-22 116 3 204t73 88q31 3 48 -33t19 -81q-1 -50 -19.5 -118t-37.5 -101q-9 -15 18 -57t68 -42q34 0 63 31.5t45.5 74.5t25.5 81t9 59q0 56 -1 104.5t-1 57.5q0 85 45 90 q33 0 49 -29q11 -22 11 -45q1 -14 -4 -94zM1765 715q-16 34 -45.5 62t-54.5 28q-42 0 -71 -59t-29 -146q0 -61 21.5 -103t53.5 -42q31 0 57 32.5t39.5 78t21 85.5t7.5 64zM696 412q14 19 24.5 60.5t10.5 72.5q0 47 -16 47q-22 0 -28 -70t9 -110z" />
<glyph unicode="M" horiz-adv-x="2029" d="M1024 348q0 -4 -11.5 -9.5t-31.5 -14t-29 -13.5q2 -3 13.5 -17.5t18.5 -25t7 -14.5q0 -12 -22 -12q-10 2 -47 17t-48 15q-23 0 -53.5 -12.5t-51.5 -25t-58 -37t-49 -31.5q-9 -6 -19 -6q-11 0 -21 10.5t-10 22.5q0 16 21.5 34.5t47.5 34.5t47.5 41t21.5 53q0 32 -15 71 t-30 63.5t-41 64.5q-11 -6 -42 -23t-50 -28t-48 -28.5t-47.5 -31t-37 -29.5t-27.5 -31t-9 -28q0 -68 23 -206q96 26 106 26q13 0 23 -7.5t10 -20.5q0 -26 -41 -50.5t-93 -43t-58 -23.5q-128 -71 -205 -131q-15 -11 -25 -11q-9 0 -18.5 12t-9.5 25q0 14 12 23q109 94 109 317 q0 21 -3 45q-21 -3 -52.5 -27t-41.5 -24q-11 0 -37 29q18 16 58.5 38.5t61 43.5t20.5 51v49q0 33 1 98.5t1 96.5q0 4 -4 24q-9 -3 -27.5 -11.5t-32 -13.5t-20.5 -5q-10 0 -20.5 10t-10.5 26q0 14 36.5 36t96.5 50t76 37q17 9 53 33.5t65 37.5t60 13q21 0 43.5 -33.5 t52 -98.5t39.5 -83q18 -34 43 -68.5t59 -77t48 -61.5q76 -99 166 -102q4 0 11.5 2t10.5 2q13 0 24 -13t11 -24zM1389 797q11 7 35 21.5t37 23.5t28.5 21t23 22.5t7.5 19.5q0 54 -52.5 156t-99.5 149q-13 -2 -42 -16t-46 -14q-27 0 -27 14q0 57 209 141q134 56 226 56 q101 0 170 -70t69 -176q0 -39 -19.5 -75.5t-40.5 -56.5t-58 -49.5t-48 -39.5q-26 -14 -87 -44.5t-105 -55t-82 -50.5q-20 -14 -39 -14q-27 0 -59 37zM1182 874q-25 68 -54.5 109.5t-74.5 46.5q-7 0 -22.5 -3t-22.5 -3q-8 0 -23.5 9t-15.5 18t15 22t45.5 29.5t52 27.5 t59.5 29t43 21q1 0 3 1t3 1q12 0 21.5 -7.5t9.5 -17.5q0 -11 -25 -59.5t-25 -69.5q0 -57 55.5 -151.5t92.5 -108.5q16 -5 16 -29q0 -22 -27.5 -49.5t-37.5 -27.5q-9 0 -21 6q-208 108 -393 176q-5 2 -45 6q10 -17 31 -55t37 -64t38 -55t46 -44.5t49 -15.5q22 0 56 23t52 23 q10 0 17.5 -9.5t7.5 -19.5q0 -22 -21.5 -40.5t-70 -42.5t-58.5 -30q-4 -3 -35 -29t-49 -26q-13 0 -26 6.5t-13 17.5q0 17 16.5 40.5t16.5 37.5q0 39 -20 80.5t-56.5 91.5t-44.5 64q-18 33 -36 33q-5 0 -24.5 -6.5t-29.5 -6.5q-32 3 -32 27q0 32 42.5 63t89.5 47.5t72 16.5 q37 0 84 -21q69 -33 232 -82zM1554 1286q3 -45 64.5 -164t97.5 -149q90 52 90 137q0 69 -57 139t-119 70q-24 0 -76 -33zM623 602q-35 70 -84 146.5t-72 76.5q-30 0 -45.5 -87.5t-15.5 -141.5q0 -18 1 -61.5t1 -73.5q26 17 69 47t76.5 52t69.5 42z" />
<glyph unicode="N" horiz-adv-x="2002" d="M1536 1352q121 -16 168 -32q44 -15 82 -40q135 -89 135 -266q0 -92 -34 -187t-89 -125q-9 -3 -16 -10q-18 -29 -50.5 -55t-63 -42.5t-66.5 -39t-58 -43.5q-8 -8 -24 -8q-13 0 -24 11.5t-11 23.5q0 10 2 14q20 36 20 88q0 136 -63 268t-170 221q-8 7 -29.5 21t-33 25 t-11.5 22q0 29 86 69t119 40q12 0 36.5 20.5t45.5 20.5h10q27 0 39 4zM586 362q-14 -5 -47.5 -15.5t-53 -17.5t-36.5 -21.5t-17 -33.5q0 -51 17 -89t57 -74q2 -2 7.5 -6t8.5 -7l7 -7t6 -8t2 -9q0 -10 -7.5 -19.5t-24.5 -18.5t-28 -14.5t-34.5 -14.5t-28.5 -11 q-117 -59 -215 -127q-12 -4 -15 -4q-12 0 -22 10.5t-10 22.5q0 17 57 57q83 53 123 254q37 194 39 323q0 7 1 31.5t0.5 36t-4 29t-13 27t-25.5 12.5q-31 3 -31 32q0 26 33 33q13 3 26.5 7t24.5 8.5t25.5 12t23.5 12t24 14.5t21.5 14t21.5 15.5t18.5 14t19 14.5t16.5 13 q8 6 22 6t24.5 -10t10.5 -23q0 -14 -16 -24q-39 -20 -39 -64q0 -33 7.5 -67t14.5 -58t28 -58.5t28.5 -48t37.5 -50t33.5 -40t36.5 -40.5q18 -19 71 -51.5t69 -44.5q5 -3 15 -12.5t17 -14.5q-44 -49 -134 -90t-122 -68q-16 -16 -47 -16q-8 0 -16 6t-8 14q0 11 8 27 q10 36 10 84q0 84 -18 147zM840 811q60 -135 100 -203q29 -49 48 -77.5t53 -64.5t71 -58q34 -19 31 -43q0 -15 -53.5 -49t-90.5 -50q-18 -12 -30 -12q-11 0 -25 14.5t-14 30.5q0 8 9 31.5t9 36.5q0 55 -61 196q-18 44 -39 88.5t-50 95.5t-59 83t-55 32q-37 4 -37 33 q0 24 52.5 52t76.5 28q16 0 35 -9t31 -19t34 -29t31 -27q147 -118 178 -141q18 -14 55.5 -43.5t59 -46t56 -37.5t67.5 -35q-67 184 -217 334q-13 13 -36.5 41.5t-43.5 46t-47 28.5q-25 12 -25 31q0 26 86 71.5t111 45.5q45 0 45 -142q0 -36 13.5 -81.5t28 -76.5t42 -86 l37.5 -75q49 -99 127 -166q18 -22 18 -39q0 -23 -32.5 -45t-78.5 -41.5t-57 -27.5q-11 -11 -22 -11q-18 0 -36 21t-37 53.5t-30 44.5q-19 21 -59.5 71.5t-74.5 85.5t-72 58q-18 11 -53 42.5t-62 47.5zM1712 707q47 22 68.5 88.5t21.5 128.5q0 80 -35.5 158.5t-108 134 t-163.5 55.5q-53 0 -70.5 -16t-17.5 -54q0 -8 2 -10q18 -71 31 -116.5t40.5 -116.5t56.5 -116t75 -84.5t100 -51.5zM84 770q0 2 -1 6t-1 6q0 27 70 58q247 127 436 307q26 25 102 119q41 46 41 69q0 45 41 45q13 0 27 -14q50 -45 127 -45q36 0 74 7.5t85.5 26.5t70 28.5 t79.5 38.5t63 32q13 6 40.5 17t49.5 22t39 25q16 8 35 8q5 0 12 -4.5t7 -12.5q0 -18 -18 -30t-53.5 -24t-45.5 -17q-27 -13 -176 -99q-8 -5 -56.5 -33t-76.5 -46q-288 -138 -920 -482q-30 -12 -35 -12q-10 0 -16 4zM1790 528q0 -1 1 -5t1 -5q0 -4 -1.5 -8.5t-3 -7.5t-5.5 -7 l-6.5 -6.5t-8 -6t-8.5 -5.5t-9.5 -5.5t-9 -4.5t-9 -4t-7.5 -4q-247 -122 -438 -307q-17 -16 -33 -34t-38.5 -46t-30.5 -37q-4 -6 -13 -17.5t-14 -18.5t-9.5 -17t-4.5 -19q0 -43 -41 -43q-12 0 -27 12q-54 48 -127 48q-30 0 -65 -7t-62.5 -15.5t-68 -26t-60 -27t-62 -31.5 t-52.5 -27q-15 -8 -62 -27t-70 -36q-11 -8 -32 -8t-21 16q0 17 18 28.5t53.5 24t45.5 17.5q77 39 176 100q119 68 133 78q76 37 161 80t143.5 73t164 86t142 75.5t162.5 87.5t147 79q20 12 35 12q10 0 16 -4zM471 662q-14 -17 -23.5 -39t-14 -40t-7 -45.5t-3 -40.5t0 -42 t0.5 -33q0 -33 8 -57q146 44 146 73q0 15 -19.5 64.5t-23.5 64.5q-17 54 -64 95z" />
<glyph unicode="O" horiz-adv-x="1687" d="M1458 555q4 37 40.5 29t62.5 -37q24 -30 24 -66q0 -43 -33.5 -79.5t-93.5 -36.5q-18 0 -45.5 15t-44.5 42q-20 -60 -58 -98.5t-96 -38.5q-55 0 -94 39q-19 -30 -58 -54t-69 -24q-24 0 -39.5 10t-22.5 24t-10 39t-2.5 44t2 50t1.5 48q0 78 -52 78q-37 0 -65.5 -23 t-45.5 -64t-25.5 -72t-16.5 -72q-1 -8 -2 -11q-4 -21 4 -68q9 -55 -25 -61q-18 -2 -29.5 9.5t-15.5 37.5l-10 39q-23 -35 -45.5 -58t-50.5 -37.5t-61.5 -12t-71.5 21.5q-51 -55 -107 -62q-76 -10 -122 46t-46 129q0 86 55.5 148t137.5 65q74 0 119 -52.5t45 -111.5 q0 -72 -23 -105q34 -19 61 -6.5t45 53.5q27 76 11 136q-14 53 -15 67q-3 51 39 51q20 2 33 -9.5t14 -33.5q11 -92 13 -100q4 14 10 27q22 80 77 134t132 54q54 0 77 -37.5t23 -79.5q0 -17 -1.5 -47t-2 -50.5t0.5 -42t5.5 -33t12.5 -11.5q19 0 39 13.5t30 27.5t8 18 q-26 43 -26 113q0 73 40 136t109 63q18 0 43 -5t33 -6l-27 80q-2 -1 -35 -14.5t-69.5 -21t-85.5 -7.5q-62 0 -169.5 14.5t-195.5 28t-199.5 18t-181.5 -15.5q-60 -15 -100.5 -40.5t-40.5 -57.5q0 -29 33 -29q19 0 46 18.5t32 20.5q18 9 34.5 -1.5t16.5 -26.5 q0 -33 -42.5 -55.5t-90.5 -22.5q-49 0 -76 24t-27 64q0 114 195 166q72 18 158 20.5t169.5 -6.5t160.5 -20t155.5 -21t130.5 -10q33 0 87.5 18.5t74.5 30.5q2 2 2 8q-27 83 -27 146q0 61 25 106t76 45q59 1 92 -38t33 -105t-37 -117t-90 -84q9 -37 28 -96l33 -115 q15 -53 41.5 -94t60.5 -41q28 0 43.5 20.5t10.5 40.5q-4 29 -27 41q-7 4 -16 6.5t-13 4t-7 5.5t-3 11zM1135 481q0 -129 82 -129q39 0 67.5 41t28.5 101q-2 45 -26 79.5t-66 34.5q-36 0 -61 -40.5t-25 -86.5zM356 203q-28 30 -23.5 88t46.5 96q-16 37 -64 37 q-50 0 -79 -42.5t-29 -92.5q0 -48 18.5 -81.5t59.5 -33.5q38 0 71 29zM1292 840q37 17 56.5 52t19.5 75q0 30 -10 58t-33 28q-32 0 -46 -26.5t-11 -65t9.5 -69.5t14.5 -52zM416 262q17 5 20.5 34t-16.5 50q-17 -5 -19 -36t15 -48z" />
<glyph unicode="P" horiz-adv-x="1585" d="M1110 696q-12 2 -43 2q-28 -2 -36 -11t-7 -38q3 -56 1.5 -247t10.5 -240q5 -36 -20 -68q-33 -39 -58 6q-12 68 -52 184t-85 216q8 -54 8 -115.5t-2.5 -92.5t-11.5 -114q0 -1 -0.5 -6.5t-1 -7.5t-1.5 -6.5t-2.5 -6l-4 -4t-6 -3.5t-8.5 -1q-13 0 -19.5 13t-1.5 32 q27 130 10 293q-11 79 -53 117q-24 21 -6 53q19 37 51 29q14 -2 25.5 -7.5t22 -16l17 -17t15.5 -23.5t11.5 -21.5t11.5 -25.5t10 -22q16 -35 51.5 -165t44.5 -157q0 72 -2 223.5t-2 231.5q0 14 5 24.5t10.5 16.5t19 10.5t19.5 5.5t24 3.5t22 2.5q50 6 116.5 -2.5t132.5 -29 t111.5 -63.5t45.5 -99q0 -42 -15.5 -80.5t-47.5 -75t-57 -60t-70.5 -60t-61.5 -50.5q-5 -4 -24 -23.5t-31 -27.5q-19 -16 -48 -27q-32 -9 -53 15q-25 37 -8 59q26 32 37.5 76.5t11.5 71.5q0 243 -6 329zM238 596q67 -6 196 -35q31 92 61 240t37 176q21 83 37 112t37 29 q14 0 23 -6t13 -18.5t5 -20.5t2 -24q4 -212 8 -314q3 -80 16 -279t13 -304q0 -39 -7 -56.5t-26 -17.5q-22 0 -33.5 27.5t-11.5 52.5q-4 51 -4 229q0 33 -6 50t-27 28q-45 18 -69 24q-56 -156 -143.5 -254t-170.5 -104q-36 0 -61 19t-25 51q0 67 61.5 156.5t123.5 134.5 q22 16 36 20t39 -4q1 -5 2 -7t-3 -7t-8 -9t-13 -12t-18 -15t-22.5 -20t-27.5 -26q-106 -106 -106 -168q59 12 137.5 99t106.5 173q-28 9 -90 33.5t-84 30.5q-22 2 -5 13q5 3 7 3zM1171 272q31 0 91 50t109.5 118t49.5 111q0 41 -55 72q-38 25 -149 55q-29 9 -41 3t-13 -36 q-4 -122 -4 -190v-142q0 -1 -0.5 -8t0 -11t1.5 -10t3.5 -9t7.5 -3zM600 516v438h-6q-11 -66 -36.5 -203.5t-37.5 -209.5q47 -17 80 -25z" />
<glyph unicode="Q" horiz-adv-x="3244" d="M2949 1360l-164 -164l82 -61l144 -144q13 -13 34 -18.5t36.5 -6t27.5 -9.5t12 -29q0 -13 -14.5 -31t-14.5 -29q0 -41 -61 -41q-80 0 -205 -41h-102q-82 -40 -82 -184q-16 -32 -34 -46.5t-48 -14.5q-29 -21 -63 -35.5t-58.5 -20.5t-64.5 -13.5t-60 -12.5q-37 -18 -111 -43 t-160.5 -51t-96.5 -29l-697 -184l-20 -21q0 -61 -21 -82q0 -23 -26 -40.5t-64.5 -25.5t-73 -12t-61.5 -4q-41 -20 -123 -20h-102q-43 -21 -123 -21h-328q-81 0 -102 21h-62q-13 0 -20 0.5t-14 5.5t-7 14q0 62 21 62q36 18 66.5 48.5t58 67t39.5 48.5l123 143q6 4 11.5 9.5 t14 15t15.5 16.5l-62 61l-164 144q-10 0 -30.5 10t-30.5 10q-22 0 -35.5 13t-13.5 28q0 14 14 32.5t14 29.5q0 15 6 23.5t20.5 12t24 4t31.5 0.5q53 0 151 20.5t136 20.5q38 19 55 56.5t25 76t22 52.5q0 18 10.5 28.5t27.5 18t24 14.5q29 21 63 35.5t58.5 20.5t64.5 13.5 t60 12.5q166 62 491 143q201 39 307 82q34 0 104 27t101 35q20 20 62 20q2 -5 12 6.5t19.5 38t9.5 58.5q0 23 26 40.5t64.5 25.5t73 12t61.5 4q41 20 123 20h102q80 0 123 21h348q61 0 82 -21h61q10 0 15 -1t12.5 -4t10.5 -12t3 -24q9 0 9 -8q0 -10 -9.5 -21.5t-19.5 -11.5 q-36 -18 -62.5 -49.5t-52.5 -71.5t-49 -63zM2048 438q125 41 164 41q36 14 94 30.5t102.5 29t88 30.5t67 43.5t23.5 59.5q0 12 -7 33v163q-19 19 -29.5 105.5t-10.5 140.5v62q0 21 -5.5 55t-5.5 51q0 20 11 57v82h-21q-225 0 -348 -20l-184 -41q-41 0 -62 -21 q-55 -11 -122 -42t-103 -40q-62 0 -144 -40l-204 -41l-328 -103q-14 -3 -50.5 -10t-60.5 -11.5t-61 -13.5t-62 -17.5t-54 -22t-46.5 -28t-29 -34.5t-11.5 -43q0 -110 27 -188v-103q20 -61 20 -143v-62q0 -21 4.5 -60t4.5 -56q0 -27 -9 -48v-81h21q225 0 348 20l205 41 l471 123q44 15 110.5 34t113.5 34.5t83 33.5zM2826 1339l205 226q-10 0 -30.5 10t-30.5 10h-205q-51 0 -153.5 -10t-153.5 -10h-62q19 -19 42.5 -28.5t38.5 -11t42 -1.5q47 -15 64.5 -36.5t17.5 -66.5v-184q0 -185 20 -287q21 -43 21 -123h20q43 21 123 21q51 0 99 20.5 t65 20.5q42 0 62 20q-9 0 -14 5.5t-6 10.5l-1 5l-225 205q-13 13 -37 25.5t-34.5 28t-10.5 48.5v4v4t0.5 3.5t1 3l2 2t3.5 2t5.5 1t7.5 0.5q22 0 40.5 8.5t27.5 16t28.5 29t26.5 28.5zM246 664v-21l225 -205q16 -16 21.5 -18.5t19.5 -1.5q41 0 41 -68q0 -30 -21 -35 q-39 0 -80 -34.5t-73 -79.5t-80.5 -102.5t-93.5 -90.5q14 -14 30 -17t52 -3h205q38 0 135 10t151 10h62q-33 17 -70.5 29.5t-59 18.5t-40.5 16.5t-27 29t-8 50.5v184q0 180 -21 287q-20 41 -20 122h-21q-41 -20 -122 -20q-21 0 -52 -10t-51 -10q-10 0 -30.5 -10.5 t-30.5 -10.5q-13 0 -20 -0.5t-14 -5.5t-7 -14zM2216 920h-2v55q-6 80 -74 119q-43 24 -160 59q-26 9 -46 -4t-25 -41q-5 -47 -2 -59q6 -48 6 -67.5t-3.5 -66t-4.5 -65.5q0 -16 -3.5 -34.5t-8.5 -39.5t-7 -33q-4 -33 -2 -53q6 -62 62 -47q128 33 192 88q64 57 74 117 q2 13 2.5 38.5t1.5 33.5zM1014 471l4 -9q5 -10 11.5 -14t17.5 -2q4 0 7 1t5.5 2.5t4 3.5t3 4.5t2.5 4.5t2 5.5t1.5 5.5l1.5 6t1 6q3 31 12 58q9 36 46 39q43 6 84 18q41 13 51 9t32 -44l11 -20q28 -32 37 -39q17 -9 28.5 -2.5t12.5 26.5q0 13 -7 27q-3 7 -14 30t-16 36 q-10 29 -25 62.5t-25.5 54t-32 62t-28.5 54.5q-13 30 -49 59q-19 15 -37.5 9t-24.5 -29l-28 -119zM1511 844q6 -3 11 -4.5t7 -2t3 -1.5q77 -111 143 -203q12 -21 23 -25q26 -15 43 -12q15 1 23 12t8 27q0 89 -3 117q-8 51 7 141q6 39 10 117q0 28 -35 32q-27 0 -31 -32v-49 l-8 -160v-90q-2 0 -10 -4q-15 21 -44.5 57t-39.5 49q-14 21 -59 90q-24 31 -48 55q-27 23 -49 7q-29 -18 -24 -50q30 -191 6 -344q-4 -12 0 -14q20 -30 29 -33q10 -5 32 23q4 4 4 24q0 23 -1 72t-1 74q0 37 4 127zM1966 729q0 18 -2.5 83.5t-2 95.5t6 81t17.5 94 q32 -7 49.5 -12t41.5 -15.5t40.5 -27.5t27.5 -41q15 -42 13.5 -87.5t-28.5 -88t-71 -59.5q-7 -3 -19.5 -9.5t-20.5 -9.5t-23.5 -6t-28.5 2zM1167 131q-44 0 -172 -14t-155 -27q15 -15 20.5 -17.5t20.5 -2.5q10 0 30.5 -10.5t30.5 -10.5q50 -16 92 -16q133 0 133 98z M2089 1442q30 0 155.5 14t151.5 27q-8 0 -38 13.5t-73.5 27.5t-82.5 14q-121 0 -121 -65q0 -15 8 -31zM1266 678h-133q2 9 6.5 30t7.5 32t8 28t12.5 31.5t16.5 27.5q31 -23 52 -79t30 -70z" />
<glyph unicode="R" horiz-adv-x="1472" d="M1024 301q4 -84 -35.5 -147.5t-114.5 -120.5q-9 -7 -24.5 -20t-28.5 -22.5t-26 -15.5q-91 -45 -163.5 -65t-150.5 -4q-98 16 -143 41q-97 48 -152 162q-14 29 -10 100q3 32 39 51q18 9 34.5 20t42.5 30.5t32 23.5l22 10q-10 -70 -37 -115q-18 -29 -22 -57t6 -53t23.5 -44 t35.5 -42q61 -64 164 -64q7 -2 10 4q8 21 20 56.5t17 48.5q28 62 35 158q0 1 6 61q-119 6 -121 6q-29 4 -44.5 31t-4.5 55q14 32 31 49q58 62 98 97q35 26 27 69q-18 102 -41 266q-30 21 -68 0q-126 -61 -198 -133q-39 -39 -58 -100q-4 -14 -3.5 -27.5t2 -22.5t9.5 -22.5 t11.5 -19t15 -20.5t14.5 -19q1 -3 9 -4.5t12 0.5q6 2 17 5.5t17.5 5.5t14 6t12.5 9q3 3 14.5 13t15 13.5t13.5 13t14.5 14.5t12 14.5t11.5 16.5t8.5 16.5t7.5 19.5q3 12 12 18t22 -1q5 -3 7.5 -15t-0.5 -18q-46 -121 -166 -178q-39 -17 -76.5 -7t-65.5 41q-88 102 -82 232 q5 160 166 244q41 23 54 34q53 46 155 50q95 0 217 -17q86 -13 158 -63q6 -4 11 -9t10 -11.5t8 -10.5t7 -13t5.5 -12t5 -14t4 -13t4.5 -15l4 -13q38 -116 -41 -248l-18 -28v-9q91 -8 117 -112q5 -18 22 -50.5t19 -37.5q1 -5 6 -31.5t6 -40.5zM594 -23q4 -2 12 -10 q14 8 61.5 25t69.5 35q113 98 137 125q84 90 37 192q-4 9 -16.5 24t-15.5 23q-16 35 -70 39q-30 3 -64 0q-43 -6 -72 -41t-32 -80q-3 -63 -25 -233q-2 -16 -22 -99zM631 586l155 6q20 4 25 14q90 118 53 238q-18 57 -61 65q-46 11 -101.5 8.5t-99.5 -28.5q-4 -55 12 -157 t17 -146zM1071 463q13 19 59 39q3 1 39 -19l-49 -28q-22 -16 -18 -58q2 -24 41 -28q6 0 14.5 5t9.5 9q49 132 13 221l-9 12q-14 -5 -16 -8q-16 -26 -40 -36.5t-60 -14.5q-60 -6 -76 45q-19 58 4 125q1 3 3.5 5.5l7 7t7.5 8.5l11 -31v-49q6 -73 73 -64q34 4 53.5 28.5 t14.5 55.5q-2 8 -3 18t-1.5 22.5t-1.5 19.5q-6 29 27 36q37 3 40 -26q3 -40 25.5 -133t20.5 -146q-3 -66 -35 -114q-31 -48 -88 -54q-26 -3 -47 11q-24 19 -58 57q3 7 8.5 21.5t9 23.5t9.5 20t12 19zM1333 299q-106 -59 -184 -149q-23 -27 -68.5 -85.5t-70.5 -87.5 q3 79 55 144q83 111 184 172q31 20 84 6zM1098 2q13 56 59 88q93 62 166 109q7 5 23 7t20 3q4 -8 4 -10q-15 -25 -22 -29l-123 -80l-49 -34q-49 -34 -78 -54zM1180 956q-16 -13 -49 -49t-52.5 -53t-19.5 -2q0 40 38 76.5t83 27.5zM1128 1024l-155 -61q1 14 8.5 24t14 14 t20.5 9q44 20 94 25q24 3 22 -5q0 -2 -4 -6zM1032 379v2v-2z" />
<glyph unicode="S" horiz-adv-x="1587" d="M1200 391l6 -26q103 7 158 30q36 15 44 51.5t-17 65.5q-17 20 -19 31.5t10 21.5q13 12 33 11.5t35 -13.5q40 -42 33 -110q-4 -57 -43 -82q-31 -22 -65.5 -37t-55.5 -20.5t-68 -16.5q-35 -7 -42 -14t-7 -27q0 -81 -32 -173t-84.5 -170t-128.5 -129.5t-156 -51.5 q-67 0 -108.5 47.5t-41.5 120.5q0 52 24 105.5t65 99.5t81.5 81t85.5 66q87 60 232 98q0 54 -9 127q-10 -32 -35.5 -62.5t-50.5 -43.5q-38 -20 -73 0t-41 63q-9 67 -39 232q-5 29 -23 65q-12 26 -23 32t-40 1q-35 -8 -47 16q-10 23 14 47q15 17 38.5 19.5t43.5 -10.5 q66 -45 86 -103q18 -44 31.5 -126.5t19.5 -106.5q0 -1 2 -7.5t2.5 -9t2 -8t3 -8.5t3.5 -7.5t4.5 -6.5t5.5 -4.5t6.5 -3.5t7.5 -1q15 0 28 18t21.5 44.5t13.5 46.5t7 35q13 105 -17 239q-4 31 -2 47q0 11 7 22t20 11q18 0 25 -8t12 -29q40 -225 57 -479zM657 713 q101 -3 147 -64t46 -166q0 -136 -82 -225q-93 -100 -197 -90q-31 3 -53.5 23t-25.5 49q-4 14 6 24q12 8 26 -2q53 -29 84 -25.5t86 42.5q95 69 88 204q-3 74 -41 125q-33 47 -88 35q-28 -7 -41 -11t-32 -15.5t-33 -28.5q-30 -38 -84 -31q-37 3 -31 39q10 53 74 72 q43 14 77.5 52t34.5 79q0 50 -35.5 72t-84.5 20q-66 -3 -134.5 -28t-122.5 -74.5t-61 -112.5q-9 -66 53 -92l27 -13q32 -9 23 -30t-31 -25q-47 -10 -100 29q-61 48 -43 145q13 62 56 115t100 86.5t118.5 52.5t116.5 19q75 3 133.5 -38t58.5 -108q0 -64 -35 -104zM1141 276 q-73 -15 -92 -22q-50 -16 -107.5 -53t-107 -83.5t-82.5 -102t-33 -103.5q0 -46 26.5 -79.5t67.5 -33.5q66 2 130 54t106.5 126t68 155t23.5 142zM174 61q0 -30 26 -54.5t66 -24.5q63 0 91.5 50t21.5 115l-31 224q-18 153 -6 307q1 11 4 24t6 22t9 24t8 22q4 11 26 29 q21 17 39 2q20 -20 8 -41q-21 -28 -30.5 -64t-10 -61t2 -71t2.5 -64q0 -71 10 -156q9 -90 28 -192q17 -96 -36 -169t-146 -73q-60 0 -109.5 41t-50.5 106q0 44 15 87t45 44q16 0 23 -6t6 -19t-5 -27t-8 -35.5t-4 -39.5z" />
<glyph unicode="T" horiz-adv-x="1478" d="M1118 354q0 21 -1 68t-1 67q-10 -48 -44 -84t-62 -36q-27 0 -45.5 14.5t-28 34t-14.5 54t-6 60t-1 66.5q0 9 1.5 33.5t1.5 39.5t-3.5 32.5t-11.5 25.5q-33 -22 -43 -22q-14 0 -22.5 12.5t-8.5 30.5q2 22 19.5 37.5t42.5 15.5q50 0 73 -35.5t23 -114.5q0 -20 -1.5 -54.5 t-2 -55.5t1.5 -44t10 -35t21 -13q38 0 62 91t24 171q0 13 -4 41t-4 41q0 63 28 63q21 0 34.5 -46t17.5 -111.5t6 -137.5t0 -123.5t0 -70.5q79 24 104 41q39 28 39 75q0 11 -3 22t-6 17.5t-5 12t-0.5 8t8.5 2.5q26 0 42.5 -22t16.5 -62q-2 -29 -22 -56t-47 -44.5t-54 -31.5 t-46 -21.5t-19 -8.5q0 -36 8 -122t8 -122q0 -110 -70 -180t-184 -70q-62 0 -125 62t-63 156q0 42 22.5 84t50 70.5t77.5 62t76.5 48t77 39t52.5 25.5zM1130 279q-105 -27 -204 -105.5t-99 -163.5q0 -56 39 -97.5t99 -41.5q87 0 133.5 69t46.5 158q0 34 -7 98t-8 83zM616 752 q122 7 178 -76t56 -227q0 -78 -62 -143.5t-143 -65.5q-64 0 -127 49.5t-63 107.5q0 24 47 41q14 -34 22 -50t25.5 -39.5t41.5 -33.5t58 -10q51 0 89 51t38 107q0 42 -16.5 90t-50.5 85.5t-76 37.5q-21 0 -37.5 -5.5t-26 -12t-28.5 -20.5t-35 -24q-12 -10 -29 -10 q-15 0 -33 14t-18 33q0 11 41 36q5 3 8 5q42 27 67 68t25 86q0 47 -35 77.5t-86 30.5q-106 0 -185 -58.5t-79 -125.5q0 -29 19.5 -56.5t39 -47.5t19.5 -29q0 -12 -10.5 -23.5t-22.5 -11.5q-35 0 -80 59t-45 105q0 65 64 128t144.5 98.5t138.5 35.5q87 0 141.5 -48t54.5 -132 q0 -12 -2.5 -24.5t-5.5 -20l-10 -25t-11 -26.5zM369 332q0 70 -27 214t-27 214q0 41 12.5 83t37.5 42q17 0 30 -10.5t13 -24.5q0 -2 -5 -12q-22 -34 -22 -78q0 -64 30.5 -189.5t30.5 -189.5q0 -115 -44.5 -180.5t-127.5 -65.5q-53 0 -107 39t-54 92q0 39 41 39q27 0 30 -31 q6 -33 31 -50t57 -17q46 0 73.5 40t27.5 85z" />
<glyph unicode="U" horiz-adv-x="1105" d="M664 457q85 13 133 51q2 2 6 6.5t7 7.5t7.5 5.5t9.5 2.5q8 0 13.5 -7t5.5 -19q0 -36 -48.5 -65.5t-103.5 -47.5q6 -19 16.5 -39t17.5 -30.5t25.5 -35t22.5 -30.5q21 -30 80 -35q21 0 25 27q0 14 -2 39t-2 39q0 19 7 26.5t25 7.5q22 0 29.5 -18.5t7.5 -56.5 q0 -68 -55 -132.5t-121 -64.5q-92 0 -167 82t-107 184q-3 8 -13 13t-26 6.5t-29.5 1.5t-34 -1t-28.5 -1q-2 -21 -4.5 -61t-5 -67.5t-7 -56.5t-14 -44t-23.5 -15q-12 0 -21 9t-9 24q4 35 15 107.5t15 113.5h-86q21 -35 21 -55q0 -21 -18.5 -41.5t-39.5 -20.5 q-27 0 -56.5 39.5t-29.5 65.5q0 15 3.5 26t13.5 19t17.5 13.5t25 10t27 6.5t32 5.5t31.5 5.5q-4 14 -11.5 42t-11 42t-8 35.5t-6.5 40.5t-2 40q0 49 9.5 150.5t10.5 120.5v16q0 23 21 23q41 0 41 -133q0 -32 -7 -92.5t-7 -90.5q0 -79 47 -153q6 26 36 131t43 174t13 135 q0 172 -60 186q-30 3 -30 29q0 41 49 41q53 0 98.5 -44t69.5 -103t28 -115q4 -53 16 -123.5t22.5 -120t28 -128.5t22.5 -103zM692 1036q-47 -14 -61 -14q-12 0 -22.5 7t-10.5 24q0 19 15.5 26.5t34.5 7t34.5 10t15.5 33.5q0 27 -9 44t-19.5 22.5t-19.5 12.5t-9 18 q4 23 27 35t47 12q96 0 112 -133q3 -35 29 -35q14 0 42 8t42 8q5 0 16 -1t17 -1q-13 -42 -32 -53.5t-105 -28.5q3 -24 8 -86t9.5 -96t19.5 -78t40 -71q3 6 9 17t9.5 16.5t9 13.5t10.5 12t12.5 7t15.5 3q25 -3 25 -31q0 -62 -32 -111.5t-95 -49.5q-33 0 -58.5 15.5t-43 46 t-29.5 64t-20.5 80.5t-13.5 83.5t-10.5 86.5t-9.5 76zM449 688l-11 8q-4 0 -13.5 -34t-20.5 -81t-13 -53q-10 -33 -10 -49q0 -33 41 -33q32 0 49 13q-2 27 -15.5 89t-13.5 95q0 21 7 45z" />
<glyph unicode="V" horiz-adv-x="1093" d="M575 631l52 -271h55q22 -6 25 -14q1 -6 -3 -15t-10 -14t-20.5 -9.5t-18.5 -6.5q-47 -24 -80 -39q-29 -16 -47 10q-17 19 13 45l34 21q-19 102 -28 160l-111 -29q-46 -155 -16 -223l29 14q26 12 40 -16q10 -20 -14 -37l-12 -4l-164 -76q-7 -3 -25 -8q-29 -6 -38 18 q-2 8 2 18.5t10 14.5q16 16 41 23q31 9 46.5 26.5t16.5 48.5q1 15 17 121l12 88l-109 12q-44 5 -88 -36q-17 -19 -20 -48t10 -49q6 -10 35 -20q44 -12 41 -39q-3 -16 -23 -27t-37 -4q-42 18 -61 43q-35 50 -22.5 112t63.5 93q91 50 160 29q34 -10 48.5 -0.5t22.5 45.5 q4 26 20 114.5t23 135.5q2 11 1.5 29.5t0.5 29.5q1 18 14.5 31.5t28.5 13.5q30 0 39 -43q5 -29 47 -268zM958 913l-6 -63q-28 15 -35.5 47.5t-1.5 103.5q-34 -10 -79 -26q-23 -190 10 -500q7 2 30.5 11.5t36.5 11.5q4 1 9 0t12 -3t10 -3q-1 -4 -2.5 -11t-3 -11.5t-4.5 -6.5 q-16 -14 -47 -35.5t-35 -24.5l-66 -45q-12 -9 -23 -5.5t-11 18.5q-4 43 12 57q24 21 24 55q3 42 0 84l-8 213l-12 162q-57 -16 -76 -27q-13 -8 -18 -36q-1 -11 0 -34t0 -34q-1 -16 -3 -24t-10 -18t-22 -15q-8 20 -8 28q4 103 -23 158q-9 19 1 32t32 11q47 -6 127 25 q64 26 135 65q10 5 29 29q24 24 43 12q25 -16 8 -43q-13 -23 -18.5 -54.5t-6 -47t-0.5 -56.5zM291 838q5 0 15.5 -1t15.5 -1q34 -8 32 -35q-2 -14 -17 -26t-28 -9q-35 8 -49 22q-28 24 -40.5 62.5t-7.5 75t24 61.5q75 94 180 117q18 4 39 7t46.5 6t39.5 5q120 13 164 23 q19 5 36.5 12.5t43.5 21t34 17.5q10 5 33 18t37 19q6 3 16 -1.5t15 -10.5q3 -2 0 -13.5t-9 -15.5q-93 -89 -209 -115q-45 -10 -126.5 -17t-110.5 -11q-94 -12 -162 -74q-57 -54 -12 -137zM356 -121l-14 17q-39 33 -44 70t15.5 66.5t59.5 53.5q76 46 243 82q110 22 242 55 q66 14 88 70q1 1 5.5 3.5t6.5 4.5q18 -11 21.5 -29.5t-0.5 -35.5q0 -34 -31 -50q-105 -53 -205 -61q-39 -3 -81 -12q-108 -27 -189 -54q-39 -12 -88 -49q-23 -19 -24.5 -31.5t16.5 -37.5q19 -25 15.5 -36t-36.5 -26zM532 567l-38 195q-1 -33 -23.5 -104.5t-19.5 -112.5 q41 -9 81 22z" />
<glyph unicode="W" horiz-adv-x="1181" d="M580 260q13 13 30 26.5t22.5 19.5t12.5 19.5t8.5 34t1.5 56.5q0 50 -20 270q-2 25 -7 106.5t-12 137t-20 102.5q-3 0 -12 1.5t-12.5 2t-10.5 2.5t-10.5 4t-8 5.5t-6 9t-1.5 12.5q0 21 40.5 46t80.5 39l40 15q32 0 62.5 -41.5t50 -92.5t47 -125t45.5 -111 q19 -40 53.5 -129.5t57.5 -134.5q6 15 6 28q0 11 -4 27q-17 97 -44 283t-42 276q-7 -2 -17.5 -6t-18 -6t-13.5 -2q-12 0 -22.5 9.5t-10.5 22.5q0 20 48 52t64 34q10 3 76 13q43 0 43 -31q0 -7 -3 -12.5t-8.5 -9t-11.5 -6t-15.5 -4t-16 -2t-17 -1.5t-14.5 -2q0 -10 -1 -30 t-1 -29q0 -55 7 -121t15 -110t22.5 -121t19.5 -107q1 -8 8.5 -51t10 -69.5t1.5 -51.5q0 -3 -1 -8.5t-1 -7.5q1 -6 4.5 -22t3.5 -24q0 -20 -33.5 -43.5t-62.5 -23.5q-9 0 -26 5t-21 9q-81 244 -268 582q20 -334 63 -592q3 -15 18.5 -23.5t32.5 -11.5t30.5 -10t12.5 -19 q0 -11 -155 -80l-45 -22q-21 0 -45 43zM422 1071q-8 32 -8 35q0 11 8 17t33 14q6 -9 15 -20t12.5 -16t6.5 -14t3 -20q0 -21 -7 -36t-26 -25t-35.5 -16t-50.5 -15q0 -21 -1 -64t-1 -65q0 -170 20 -514q0 -39 18 -63.5t35 -24.5q4 0 22 4t28 4q9 0 16.5 -6t7.5 -17 q0 -24 -24 -38t-55 -18.5t-70 -13.5t-60 -22q-23 -13 -94 -22q-4 0 -10.5 3.5t-14 9t-10.5 7.5q8 24 27 36.5t37 16.5t33.5 19t17.5 43q0 27 1 80t1 78q-5 109 -27 417q0 47 -13.5 64.5t-33 14t-50.5 0t-56 24.5q-15 15 -15 26q0 20 36.5 33t84 21t53.5 10q113 37 146 53z M784 1479q-5 1 -15 1.5t-15 1.5t-12.5 3t-11 5.5t-6.5 10t-3 15.5q0 13 12.5 23.5t26.5 10.5q47 0 75.5 -44t28.5 -93q0 -29 -9 -54.5t-21.5 -44t-36.5 -35.5t-41 -27.5t-49.5 -20.5t-48 -14.5t-49.5 -10.5t-41.5 -7t-35.5 -5q-11 -1 -38.5 -4t-43 -4.5t-38 -5.5t-41.5 -9 q-39 -9 -103 -44.5t-82 -43.5h-4q-8 0 -19 5t-11 12q0 40 79 82t142 57q43 10 132 17t152.5 24.5t114.5 62.5q31 27 31 68q0 25 -19 68zM383 -133q-59 56 -59 98q0 32 22 60.5t53 47t78.5 36t83 26.5t82.5 19q22 5 73 14t84 16.5t73 20t65 31.5t35 43q1 3 12 8 q23 -13 23 -41q0 -58 -33 -74q-114 -53 -205 -61q-109 -9 -246 -55t-137 -93q0 -9 16.5 -35t16.5 -32q0 -13 -37 -29z" />
<glyph unicode="X" horiz-adv-x="1492" d="M1264 752l-13 141q0 11 1 34t1 36q0 39 -23 67.5t-61 28.5h-18q-33 0 -33 31q0 32 41 38q34 6 103.5 50t97.5 43q14 0 22.5 -8.5t8.5 -20.5q0 -13 -20.5 -32.5t-42.5 -46.5t-25 -56q-5 -35 -5 -45q0 -62 5 -131.5t14.5 -161t13.5 -135.5q0 -38 -85.5 -81.5t-145.5 -43.5 q-19 0 -48 31.5t-71 90.5t-57 78q-8 10 -35.5 46t-48.5 59.5t-37 30.5q-4 -20 -4 -60q0 -46 19.5 -120.5t23.5 -106.5q5 -38 23 -57t59 -19q43 0 43 -29q0 -8 -11 -18t-27.5 -19t-37 -18.5t-37 -16t-28.5 -11.5l-13 -5q-8 -3 -33.5 -13.5t-41 -16.5t-33.5 -11.5t-27 -5.5 t-18 8.5t-9 18.5q0 13 20 42.5t42 51.5q20 26 30 65t11.5 65.5t1.5 72.5q0 29 -6 59q-5 20 -10 80t-15 95.5t-33 35.5q-17 0 -50 -7t-46 -7q-23 0 -23 20q0 32 66 71t132.5 62t84.5 23q55 0 112.5 -33t98.5 -75t95 -95t93 -78zM180 657q-8 0 -19 -1t-16 -1q-19 0 -31 9 t-12 22q0 25 27.5 42t77 33.5t65.5 24.5q19 9 64.5 39.5t82.5 50.5t60 19q13 0 23 -7.5t10 -21.5q0 -19 -35 -59t-35 -76q0 -27 -0.5 -98.5t-0.5 -110.5t3 -95.5t9 -100.5q2 -17 5.5 -25.5t13.5 -14t18 -7.5t32 -6.5t43 -8.5q0 -3 1 -7.5t1 -6.5q0 -7 -1.5 -13.5t-6 -12.5 t-8 -10t-11 -8.5t-12 -7.5t-14 -7t-13.5 -5.5t-15 -5t-13 -4.5q-78 -31 -293 -121q-12 -6 -20 -6q-16 0 -31.5 15.5t-15.5 27.5q0 16 20 27q40 25 54 60.5t14 84.5q0 80 -19 367q0 16 -2 26zM1276 604q-23 48 -59.5 90t-85.5 85.5t-72 70.5q-90 98 -176 98q-16 0 -35.5 -5 t-43.5 -13.5t-36 -11.5q23 -19 31 -29q68 -79 260 -311q41 -50 78 -50q12 0 25 4t29.5 13.5t26 16t30.5 22t28 20.5zM420 221q-37 154 -37 408v149q-90 -26 -114.5 -51t-24.5 -88q0 -81 2 -241.5t2 -241.5q119 43 172 65z" />
<glyph unicode="Y" horiz-adv-x="1355" d="M881 647q16 -16 43.5 -47t44.5 -47.5t44 -36.5t60.5 -28.5t75.5 -8.5q15 1 24 10t9 21q0 23 -43 70q28 14 30 14q35 -1 59.5 -31.5t24.5 -60.5q0 -45 -33 -69.5t-87 -24.5q-70 0 -139 45t-120 110q-36 45 -75 45q-33 0 -97 -33q27 -126 52 -126q10 0 30.5 8t30.5 8 q25 0 25 -29q0 -33 -111 -45q-30 -2 -71 -31.5t-44 -29.5q-2 0 -7 -1t-7 -1q-14 0 -23.5 7t-9.5 17q0 14 16.5 28t36 23.5t36 26.5t16.5 37q0 2 -1 7t-1 7q-3 13 -19 96t-29 133t-22 50q-10 0 -35 -19q2 -4 7 -13.5t7.5 -17t2.5 -14.5q0 -24 -23 -24q-22 0 -43.5 25 t-21.5 48q0 37 50 60t109 31q37 5 119 34t117 29q42 0 74 -31t32 -73q0 -15 -5.5 -30.5t-12 -26t-21.5 -25.5t-22 -21.5t-27.5 -23.5t-25.5 -21zM317 307h-10q-8 -2 -22 -2q-72 0 -127.5 57.5t-55.5 143.5q0 52 45.5 125.5t104.5 85.5q13 2 55 14t60 12q56 0 105.5 -78 t49.5 -151q0 -82 -63.5 -144.5t-141.5 -62.5zM315 367q6 3 26.5 12t27 12.5t23.5 12.5t23.5 15.5l17.5 17.5t15.5 22.5t8.5 27t4 33.5q0 56 -47.5 112t-91.5 56q-70 0 -115 -64.5t-45 -127.5q0 -51 47 -88.5t106 -40.5zM811 1036q0 -44 -42.5 -80t-107 -56.5t-132 -31 t-126.5 -10.5h-28q-58 0 -120 -18t-97 -47q-17 -13 -23 -13q-9 0 -14.5 10t-5.5 23q0 26 26 46.5t67.5 32.5t80 18.5t76.5 9.5q198 11 313 51q63 22 63 49q0 16 -22.5 33t-22.5 37q0 11 9.5 17.5t21.5 6.5q28 0 55.5 -25t28.5 -53zM1004 367q0 -28 -8 -39.5t-35 -20.5 q-23 -8 -72.5 -23t-78.5 -25t-66.5 -28.5t-63.5 -40.5q-57 -49 -127 -83.5t-131 -34.5q-121 0 -121 94q0 22 22 47t46 25q10 0 16 -7t6 -16t-11 -26.5t-13 -22.5q20 -33 51 -33q47 0 100 23.5t102 57t100 66.5t110.5 56.5t115.5 23.5q11 0 33 3.5t25 3.5zM662 768 q3 -10 9.5 -44.5t14.5 -54.5t21 -20q14 0 26.5 3t30 10t27.5 10q46 14 93.5 51.5t47.5 64.5q0 46 -49 46q-26 0 -59.5 -9.5t-84.5 -29t-77 -27.5z" />
<glyph unicode="Z" horiz-adv-x="2097" d="M1286 813q-61 235 -61 391q0 38 26.5 72.5t73.5 34.5q31 0 48.5 -23.5t17.5 -56.5q0 -25 -14.5 -38.5t-32 -17t-32 -15t-14.5 -32.5q0 -24 5 -51.5t15 -67.5t13 -53q9 -44 25.5 -133t27.5 -144t31 -129t45 -134q4 -16 4 -23q0 -14 -11 -16.5t-27 1.5t-39 -2.5t-41 -27.5 q-21 -24 -39 -23.5t-26 10t-21 30.5q-19 29 -52 101.5t-45 94.5q-32 61 -92 158.5t-90 152.5q4 -56 14 -155t16.5 -180.5t6.5 -149.5v-21v-24t-0.5 -22t-2 -24.5t-4 -22t-6.5 -23t-10 -19.5q-43 -77 -100 -124t-164 -105q-13 -10 -26 -10q-8 0 -16.5 7.5t-8.5 14.5 q0 19 23.5 42.5t46.5 33.5q46 21 75 55.5t42.5 82t17.5 90.5t4 104q0 83 -3 170t-9.5 214t-8.5 169q-5 89 -26 123q-17 24 -68 57t-69 33q-15 0 -46.5 -12.5t-48.5 -12.5q-30 0 -30 23q0 32 93 67t140 35q27 0 81 -38t67 -44q26 -15 52 -37.5t46 -42t46 -53.5t40 -51.5 t39.5 -58.5t32.5 -52.5t32.5 -54.5t26.5 -45q2 0 5.5 1t4.5 1zM289 55q-3 -6 5.5 -9t16.5 -3q28 0 38.5 17.5t10.5 60.5q0 74 -15.5 209.5t-18.5 191.5q-1 13 -1 49t-2 61.5t-6 49.5q-17 79 -22 111q-160 0 -160 116q0 51 38 93t91 42q29 0 47.5 -21t18.5 -52 q0 -13 -5 -24.5t-10 -17t-16 -15.5t-14 -13q30 -27 47 -27q53 0 231 154q37 32 88.5 63t75.5 31q15 0 32 -17.5t17 -47.5v-35q0 -10 -1 -32t-1 -34q0 -10 4 -29.5t4 -29.5q0 -14 -16 -31.5t-31 -17.5q-9 2 -25 18t-16 25v12q-4 25 -13 32t-34 7q-18 0 -36 -3.5t-40.5 -12.5 t-32.5 -13.5t-38 -19.5t-31 -16v-37q0 -39 2.5 -79t7 -95t6.5 -76q31 2 45 52.5t23.5 100.5t28.5 50q20 0 32.5 -16.5t18 -46.5t7.5 -59t3.5 -67t3.5 -57q1 -12 11 -41t10 -39t-10.5 -18.5t-28.5 -8.5q-11 0 -38 29t-54 29q-9 0 -15.5 -0.5t-10.5 -3t-6.5 -3.5t-3.5 -6 t-1 -7v-10v-11q0 -246 88 -246q48 0 86.5 53.5t38.5 104.5v10q0 72 37 72q14 0 26 -10t12 -23t-5 -36t-5 -34q0 -20 4 -59t4 -58q0 -15 -4 -43q-25 -11 -72.5 -20t-87 -14.5t-78.5 -22.5t-57 -45q-46 -72 -104 -102.5t-113 -30.5q-69 0 -118.5 51.5t-49.5 122.5 q0 38 29.5 67t65.5 29q42 0 66.5 -27.5t27 -65t-1.5 -75.5zM1597 535q-3 66 -14.5 135.5t-32.5 163t-28 133.5q-8 52 -54 86q-33 -25 -55 -25q-20 0 -32.5 16.5t-12.5 40.5q0 23 19 39.5t43 16.5q43 0 129 5t129 5q82 0 144.5 -43t96.5 -113t50 -146.5t16 -156.5 q0 -102 -64.5 -183t-173.5 -81q-31 0 -93.5 -13.5t-98.5 -13.5q-34 0 -52 20.5t-22 44t-4 60.5q0 44 28.5 50t81.5 -41zM1804 633q0 204 -48.5 329t-129.5 125q-8 0 -12.5 -3.5t-6 -11.5t-2 -13.5t0 -18t0.5 -16.5q0 -41 14.5 -124.5t17.5 -108.5q32 -297 58 -297 q49 0 79.5 42t28.5 97z" />
<glyph unicode="[" horiz-adv-x="1374" d="M336 592l18 -416q11 -8 27 -8q18 0 58 19.5t61 19.5q5 0 30 -10q-5 -13 -10.5 -22t-13 -15t-11.5 -8t-15.5 -7t-14.5 -6q-51 -24 -145 -65t-127 -56q-24 -12 -33 -12q-19 0 -31 10t-12 27q0 22 26 35t57.5 19.5t59 27.5t29.5 57q8 110 8 166q0 59 -11.5 166.5 t-13.5 149.5h-20q-10 0 -32 -4.5t-32 -4.5q-31 0 -58.5 10.5t-27.5 32.5q0 33 31 33q6 0 18.5 -1t18.5 -1q43 0 118 29.5t95 29.5q21 0 41.5 -21.5t49.5 -69.5t36 -58q63 -93 108 -145q-6 25 -6 73q0 17 1 50t1 49q0 62 -14 100q-26 1 -39 2t-34 4.5t-30.5 10.5t-9.5 18 t10.5 22t22.5 11q6 -3 10 -3q9 0 17.5 3t20 9.5t16.5 8.5q14 6 44 14.5t44 14.5q6 2 40 20.5t50 18.5q20 0 20 -25t-18.5 -40.5t-40.5 -21.5t-40.5 -21t-18.5 -38q0 -203 20 -340q3 -18 9.5 -53t11 -64t4.5 -53q0 -22 -16 -33.5t-40 -11.5q-18 0 -40 16.5t-45.5 47 t-43.5 58.5t-44 65t-36 53q-36 47 -108 133zM938 545q-76 0 -114 48t-38 107q0 101 84.5 181t184.5 80q79 0 129.5 -41t50.5 -121t-46 -139.5t-112 -87t-139 -27.5zM1034 612q38 0 68.5 44.5t30.5 93.5q0 46 -29 94.5t-68 48.5q-41 0 -73.5 -60t-32.5 -116q0 -55 30.5 -80 t73.5 -25zM1264 496q-21 6 -41 6q-47 0 -130.5 -36t-115.5 -42q-31 -6 -77 -42t-62 -36q-32 0 -41 90q0 10 7.5 13t37.5 8q205 33 354 118q14 7 23 7q53 0 53 -50q0 -24 -8 -36z" />
<glyph unicode="\" horiz-adv-x="1423" d="M383 956q227 0 227 -372q0 -69 -17.5 -143t-51 -141.5t-90.5 -111t-127 -43.5q-68 0 -121 47.5t-77 111t-24 126.5q0 67 6.5 132t25.5 138.5t49 128.5t81.5 91t118.5 36zM745 989q-65 -35 -83 -35q-10 0 -18.5 8t-8.5 21q0 30 31 39q71 19 118.5 42t63 39t28.5 27t27 11 q16 0 36.5 -21.5t42 -58t39 -69.5t36 -71t24.5 -49q6 -12 20 -40.5t23.5 -46.5t23.5 -39t28 -33q-37 209 -54 389q-3 30 -7 37.5t-23 7.5q-11 0 -23 -4t-20 -8t-15 -6.5t-10.5 0.5t-3.5 14q0 21 26.5 42.5t75 48.5t68.5 42q13 11 42 19t52 8q21 0 21 -19q0 -14 -4.5 -21.5 t-14.5 -14.5t-12 -9q-57 -57 -57 -154v-108q0 -50 3.5 -103t10 -123t8.5 -102q8 -90 29 -127q6 -12 6 -20q0 -24 -48 -49t-67 -25q-24 0 -33.5 14.5t-12 39t-20.5 76.5t-53 108q-31 51 -96 168t-90 159q0 -38 -5 -146.5t-5 -146.5q0 -61 0.5 -89.5t4 -86t14 -86t26.5 -32.5 q14 -3 29 -3.5t22 -0.5t13 -2t8 -7t2 -16q0 -14 -7.5 -21t-18 -9.5t-33 -6.5t-40.5 -10q-18 -8 -45.5 -17.5t-45.5 -17.5t-34 -21q-45 -36 -71 -36q-13 0 -25 12q18 39 64 67q61 39 61 123q0 137 -6 275q-1 20 -7 78t-5 90q0 10 2 31.5t2 31.5q0 3 -9 43zM371 885 q-40 0 -69 -25.5t-44.5 -61.5t-24.5 -86t-11.5 -86.5t-2.5 -76.5q0 -338 143 -338q30 0 52.5 38t34 88.5t18.5 116t8.5 106t1.5 73.5q0 38 -5.5 79t-17 81t-33.5 66t-50 26zM1249 365q33 0 52.5 -18t19.5 -46q0 -37 -83.5 -72.5t-154.5 -40.5q-102 -7 -288 -71.5t-275 -75.5 q-13 -2 -49.5 -20.5t-56.5 -18.5q-9 0 -29 4q0 2 0.5 9t1 10.5t2 9.5t4 9.5t7 7t10.5 5.5q30 11 185 62t236 88q49 23 168 62.5t179 70.5q21 10 71 25zM240 999q-31 0 -51.5 17.5t-20.5 44.5q0 37 83.5 73.5t154.5 41.5q110 7 294.5 71.5t270.5 75.5q17 2 52 20.5t52 18.5 q13 0 29 -4q0 -2 -1 -11t-1.5 -13t-3 -10.5t-6.5 -10.5t-11 -6q-41 -16 -193 -63.5t-231 -86.5q-52 -24 -168.5 -63.5t-175.5 -69.5q-17 -8 -73 -25zM1149 -2q-318 -35 -416 -35q-69 0 -69 39q0 19 57 29t110 10q60 0 162 27q9 2 44.5 11t51 13.5t41.5 14t46 20.5q12 6 41 6 q19 0 30 -1.5t23 -12t12 -31.5q0 -39 -32 -66.5t-72 -27.5q-9 0 -29 4zM342 1366q332 35 420 35q63 0 63 -39q0 -19 -57 -29t-109 -10q-61 0 -163 -27q-6 -1 -43.5 -10.5t-51 -14t-40 -14t-46.5 -20.5q-12 -6 -55 -6q-53 0 -53 45q0 40 33 67t73 27q9 0 29 -4z" />
<glyph unicode="]" horiz-adv-x="1445" d="M365 47q-108 0 -185.5 79t-77.5 181q0 70 76 158q84 94 256 94q91 0 179.5 -82t88.5 -182q0 -54 -34.5 -102.5t-86.5 -79t-109.5 -48.5t-106.5 -18zM737 555q-57 -20 -78 -20q-10 0 -18 8.5t-8 21.5q0 19 25.5 31.5t67 18.5t76 8t70.5 2q43 0 76 -45q47 -65 137 -184 t111 -148q6 15 6 61q0 125 -28 283q-6 0 -18.5 -1t-18.5 -1q-30 0 -43 7t-13 26q0 14 15.5 23t44 11t53 2.5t59.5 -1t47 -1.5q21 0 32 -16.5t11 -34.5q0 -12 -17.5 -17t-31.5 -5q-7 0 -20.5 1t-20.5 1q-10 -49 -10 -117q0 -37 12.5 -108t12.5 -103q0 -52 -13.5 -99.5 t-40.5 -47.5q-3 0 -10 1t-10 1q-4 0 -13.5 -1t-13.5 -1q-34 0 -56 17.5t-42 55.5q-27 49 -68.5 103t-97.5 120.5t-80 96.5q-4 -4 -8 -4q5 -51 12 -108.5t15.5 -128.5t13.5 -111q4 0 22 -3.5t27 -3.5t28 5.5t28 5.5t18.5 -7.5t9.5 -21.5q0 -11 -6 -17.5t-18 -9.5t-22.5 -4.5 t-28 -2t-25.5 -1.5h-21q-10 0 -28 -9t-27 -9h-14h-18.5t-18 0.5t-18.5 2.5t-14.5 5t-11 8t-3.5 12q0 16 13 25t28 12t28 12.5t13 26.5q0 255 -60 377zM516 285q0 36 -3.5 69t-12 66.5t-26.5 53.5t-44 20q-75 0 -111 -36.5t-36 -123.5q0 -38 0.5 -54t2.5 -49.5t8.5 -49.5 t16.5 -35.5t28 -28t42 -8.5q35 0 61 10.5t40 26.5t22 41t10 47t2 51z" />
<glyph unicode="^" horiz-adv-x="1810" d="M305 236q64 -17 133 -17q55 0 164 22.5t160 22.5q35 0 117 -16.5t122 -16.5q29 0 84.5 14.5t81.5 14.5q31 0 94.5 -19.5t96.5 -19.5q53 0 104.5 14t63.5 46q8 30 30 30q19 0 34.5 -13t15.5 -28q0 -29 -36.5 -55.5t-81.5 -41.5t-87 -21q-44 0 -136.5 17t-123.5 17 q-11 0 -23 -4q-56 -22 -123 -22q-42 0 -127.5 15t-128.5 15q-53 0 -88 -12q-45 -15 -130.5 -18t-114.5 -8q-10 -2 -27 -2q-61 0 -118.5 32.5t-57.5 89.5q0 9 9 18t26 9q15 0 27.5 -8t16.5 -13t14 -24zM223 860q1 -7 3.5 -21t2.5 -18q0 -13 -14 -27t-25 -14q-16 0 -27 14 t-11 37q0 32 12.5 53t37 30.5t48 12.5t57.5 3q87 0 269 -15.5t266 -15.5q21 1 120 9t152 10q43 2 140.5 16t148.5 14q7 0 29.5 0.5t32 0t30.5 -1.5t31 -3.5t26.5 -6.5t25 -11.5t17.5 -17t13 -23.5t4 -31q0 -47 -33 -47q-42 0 -47 29q-2 13 -7 22t-15.5 14.5t-19 9t-24 4.5 t-24.5 1.5t-26.5 0t-22.5 -0.5q-79 0 -234 -20.5t-235 -20.5q-33 0 -98.5 3t-98.5 3q-13 0 -40 -2t-42 -2q-168 0 -297 22q-8 2 -24 2q-19 0 -52.5 -5.5t-48.5 -6.5zM332 571h-15q-5 -13 -15.5 -45.5t-19.5 -55.5t-20.5 -49t-25 -40t-27.5 -14q-42 0 -74.5 121t-32.5 206 q0 25 29 25q12 0 20.5 -10.5t14.5 -30t9.5 -37t7.5 -42.5t7 -36q6 -27 29 -53q32 99 47 176q6 43 49 43q15 0 26.5 -9.5t14.5 -27.5q6 -42 43 -106t45 -82q22 17 35.5 59t19 80t21 68t41.5 30q12 0 20.5 -8.5t8.5 -21.5q0 -53 -40 -160t-46 -139q-9 -50 -53 -50 q-13 0 -26.5 14t-26.5 40t-23 50t-23 57t-20 48zM1624 539h-104q-7 0 -20.5 0.5t-18 0t-14 -1.5t-12.5 -3t-8.5 -6.5t-7 -11t-4 -16t-3 -22.5t-0.5 -30v-25q0 -32 -9 -44.5t-30 -12.5q-1 0 -7 -0.5t-9 0t-8 2t-8 4.5t-5 9t-2 15q0 11 6 35t6 35q0 42 -10 127.5t-10 128.5 q0 19 14 35t31 16q39 -14 39 -51q0 -21 -1.5 -59t-1.5 -60q32 3 84 6t70 4q25 2 32 9t7 32q0 8 -1 25t-1 25q0 21 10 42t31 21q37 0 37 -55q0 -9 -2 -26t-2 -25q1 -24 8.5 -105.5t7.5 -126.5q0 -39 -33 -39q-20 0 -31.5 12.5t-11.5 28.5q0 9 3 26.5t3 26.5q0 29 -14 54z M1321 1022q-26 -29 -51 -29q-10 0 -40 9.5t-46 9.5q-35 0 -111.5 -12.5t-116.5 -12.5t-117 15.5t-112 15.5q-24 0 -51 -5.5t-65.5 -16.5t-55.5 -15q-12 -4 -18 -4q-9 0 -18 8.5t-9 20.5q0 33 80.5 54t148.5 21q33 0 99 -16t102 -16q40 0 117 14t108 14q43 0 89.5 -12 t66.5 -43zM1321 59q-25 -28 -51 -28q-10 0 -40 9t-46 9q-35 0 -111.5 -12t-116.5 -12t-117 15t-112 15q-24 0 -51 -5.5t-65.5 -16.5t-55.5 -15q-12 -4 -18 -4q-9 0 -18 8.5t-9 20.5q0 33 80.5 54.5t148.5 21.5q33 0 99 -16.5t102 -16.5q40 0 117 14.5t108 14.5 q42 0 89 -12.5t67 -43.5zM1012 676q-87 -17 -103 -17q-43 0 -43 41q0 16 12 26t34.5 14.5t42.5 6.5t50.5 3t43.5 2q10 1 33 6.5t36 5.5q6 0 21 0.5t24.5 0.5t24 -1t23.5 -4.5t18 -9t13.5 -15t4.5 -22.5q0 -33 -41 -33h-26q-5 0 -23 0.5t-21 0t-14.5 -3t-13.5 -7t-7 -13.5 t-6 -22.5t-1 -32.5q0 -26 2 -79.5t2 -80.5q0 -23 -13 -36t-34 -13q-35 0 -35 45q0 26 3 78t3 78q0 4 -10 82zM776 582q6 -153 6 -154q0 -35 -47 -35q-28 0 -28 25q0 4 1 11t1 11q0 41 -4.5 125.5t-4.5 126.5q0 18 10 38t27 20q12 0 26.5 -18t14.5 -32q0 -98 -2 -118z" />
<glyph unicode="_" horiz-adv-x="1421" d="M309 512q-33 -295 -33 -428q0 -18 3 -33q0 -16 -12 -29.5t-29 -13.5q-19 0 -32 14t-18.5 40.5t-7.5 47.5t-2.5 54t-1.5 41q-11 163 -72 534q-2 8 -2 27q0 43 23 49q17 0 29 -20.5t19 -58.5t11.5 -72t8.5 -82.5t6 -67.5l37 -287q16 371 28 555q3 39 33 39q21 -1 29 -13 t8 -38q0 -40 11 -111.5t13 -93.5q6 -60 24 -181.5t21 -123.5q6 86 8 172.5t2 185t1 156.5q0 68 32 68q18 0 26.5 -18t8.5 -40q0 -2 -1 -6t-1 -6q-6 -23 -9 -51t-3.5 -47.5t-1 -53.5t-0.5 -49q-10 -245 -10 -297q0 -29 4 -89t4 -91q0 -30 -14 -47.5t-37 -17.5q-41 0 -47 63 l-50 408q0 3 -6 12zM1061 874q23 0 30 -13t7 -38q0 -13 -3 -36t-3 -35q0 -22 6 -69t6 -69q0 -31 -2 -93t-2 -97q10 0 29 -1t28 -1q32 0 47 8.5t15 34.5q0 53 -3 182t-2 199q0 53 37 53q9 0 16 -8t7 -21q0 -41 -1 -124t-1 -125q0 -307 45 -496q0 -2 1 -6t1 -6q0 -20 -9.5 -37 t-25.5 -17q-12 0 -20.5 18t-14 51.5t-8.5 63.5t-6.5 73t-5.5 61q-3 26 -18 35.5t-52 9.5q-35 0 -49 -10.5t-14 -36.5q0 -27 3 -79t3 -77v-6q0 -29 -1 -45.5t-4.5 -41.5t-13.5 -37.5t-26 -12.5t-23.5 8.5t-7.5 19.5q0 14 8 45.5t8 48.5q0 33 -4 98.5t-4 96.5q0 36 4 108 t4 109q0 40 -6 119.5t-6 120.5q0 75 31 75zM817 47q0 73 -4 211t-4 207q0 29 2 86t2 86v12q0 30 -0.5 47.5t-4 43t-13.5 38.5t-25 13q-10 0 -34 -4.5t-36 -4.5q-22 0 -22 23q0 17 6.5 26.5t22 13t30.5 4t41 1t45 2.5q92 10 113 10q33 -7 33 -31q-5 -30 -58 -30q-6 0 -19 1 t-20 1q-10 -35 -10 -37q4 -152 4 -225q0 -26 -2 -77t-2 -75q0 -36 4 -106.5t4 -106.5v-39q0 -10 4.5 -31t4.5 -30q0 -17 -9 -24t-32 -7q-3 0 -10 1t-11 1zM604 745q1 -39 4 -162t6 -190q2 -41 15.5 -147.5t13.5 -163.5q0 -8 -14 -20.5t-21 -12.5q-26 0 -46.5 319.5 t-20.5 407.5q0 3 -1 9.5t-1 9.5q0 21 11 38t32 17q6 0 10 -3.5t6.5 -10.5t3.5 -14t1.5 -18.5t0.5 -19v-21v-18.5z" />
<glyph unicode="a" horiz-adv-x="1796" d="M518 907q-40 0 -104.5 13.5t-104.5 13.5q-56 0 -85 -21.5t-29 -56.5q0 -45 29 -74.5t71 -29.5q17 0 47 14t47 14q16 0 27 -14q-18 -33 -62 -47t-80 -14q-65 0 -118.5 67t-53.5 139q0 87 76.5 142t163.5 55q66 0 140.5 -32t117.5 -32q116 0 180 154q23 -9 37 -32t14 -50 q0 -43 -26 -81t-65 -63t-81 -40t-77 -17q-17 -66 -17 -114q0 -106 60 -203q7 13 28 52.5t33 58.5t34.5 38t47.5 19q88 0 88 -154q0 -39 -12.5 -60.5t-28.5 -21.5q-8 0 -17.5 7.5t-20.5 22.5t-20.5 29t-23.5 35l-22 33q-41 -67 -41 -118q0 -25 8 -75t8 -75q0 -61 -14 -119.5 t-42.5 -112t-80.5 -86t-121 -32.5q-116 0 -182 67.5t-66 169.5q0 76 46 147t110 71q36 0 57 -19t21 -49q0 -26 -8.5 -48t-27 -41t-33 -31t-40.5 -30q-29 -19 -29 -36q0 -40 46.5 -89t97.5 -49q39 0 67 18.5t43 45t24 66t11 70.5t2 69q0 58 -35.5 170t-35.5 172q0 125 22 194 zM1432 1036q16 38 54.5 77.5t72.5 39.5q45 0 90 -64.5t45 -101.5q0 -23 -22.5 -45t-47.5 -22q-28 0 -67.5 48.5t-55.5 88.5q-37 -52 -37 -103q0 -49 26 -162t30 -139q8 -59 -8 -104t-60 -45q-45 0 -66 34.5t-16 94.5q16 224 16 254q0 116 -71 176q-17 13 -17 24 q0 14 12 24.5t25 10.5q75 0 97 -86zM909 694q1 42 15 101t37 118t60.5 100.5t78.5 41.5q49 0 87 -34.5t58.5 -87.5t30.5 -106.5t10 -101.5q0 -37 -7 -79.5t-24 -88.5t-41 -82.5t-61 -60t-82 -23.5q-28 0 -51.5 11t-39 26.5t-28 41.5t-19 47t-11.5 52.5t-7 48.5t-4 44.5 t-2 31.5zM983 778q0 -41 3 -74t13 -70t26.5 -61.5t46 -40.5t69.5 -16t62 24.5t22 69.5q0 52 -16 131t-48.5 147t-68.5 68q-42 0 -75.5 -54t-33.5 -124zM766 20q-28 0 -35 23t8 57q85 211 416 211h16q50 0 80.5 0.5t87 2.5t92.5 8t74.5 15t58 25t19.5 37q0 7 -3 23.5t-3 23.5 q0 12 6 24.5t16 12.5q20 0 31.5 -21t11.5 -50q0 -106 -84.5 -156.5t-197.5 -47t-227 6.5h-7q-122 7 -202 -26t-111 -103q-3 -6 -8.5 -25.5t-13.5 -30t-25 -10.5zM1157 96q48 -3 143 -22t123 -23q27 -6 56 -6q36 0 52.5 22.5t17.5 49t10.5 49t31.5 22.5q41 0 41 -49 q0 -41 -20.5 -72.5t-53.5 -49.5t-69.5 -26.5t-73.5 -8.5q-49 0 -162 18t-155 20q-31 0 -51.5 -7t-28 -15.5t-17.5 -15.5t-22 -7q-21 0 -33 12.5t-12 35.5q0 40 65.5 59.5t157.5 13.5zM915 1247q72 0 120.5 19.5t117.5 91.5q42 43 107.5 66.5t125.5 22t103 -37t43 -100.5 q0 -33 -15 -51.5t-36 -6.5q-10 5 -12 9t0.5 8t6 17.5t3.5 31.5q0 30 -27 49.5t-78 11.5q-32 -5 -68 -29t-69.5 -53.5t-70 -58.5t-82.5 -48.5t-93 -19.5q-50 0 -80 39q-21 26 -7 36q4 3 11 3z" />
<glyph unicode="b" horiz-adv-x="1443" d="M1059 784q20 5 86.5 57t83.5 52q37 0 62.5 -17.5t25.5 -44.5q0 -30 -25 -95t-71.5 -170t-65.5 -152q-11 -27 -19 -48t-15.5 -42.5t-11 -36.5t-4.5 -27t3 -18t12 -6q50 0 105.5 47t99.5 104q8 10 14 -7q3 -10 0 -15q-37 -75 -100 -135t-133 -60q-58 0 -94.5 33.5 t-36.5 89.5q0 40 38 104t83 120.5t83 114t38 85.5q0 38 -31 26q-6 -3 -68 -40q-65 -39 -108 -39q-13 0 -50 -25t-59 -47q24 -85 -7 -169t-103 -137t-160 -53q-57 0 -112 39t-73 90l-57 -40q8 -24 65 -166.5t82 -234.5t25 -177q0 -42 -6.5 -84.5t-20 -83t-38.5 -65.5t-58 -25 q-34 0 -60 28t-40 68t-24 95.5t-13.5 99t-6.5 92t-5 61.5q0 1 -7 58t-12.5 96.5t-14 92t-16.5 81.5t-14 29q-3 -3 -20.5 -32t-33.5 -51t-24 -22q-15 0 -26.5 11.5t-11.5 25.5q0 17 1.5 21t26.5 45l72 112q-5 29 -36.5 163t-51 255.5t-19.5 222.5q0 37 1.5 70t6.5 87.5 t18 96.5t32.5 83t52.5 64t76 23q27 0 49 -11.5t36.5 -34.5t26 -47t18 -61.5t10.5 -64t5 -68.5t1.5 -61t0.5 -55v-15q0 -200 -90 -514q-6 -24 -6 -47q0 -44 22 -84l70 50v20q0 39 9.5 81.5t29 82t53.5 65t78 25.5q36 0 54 -20t18 -44q0 -103 -96 -174q-2 -2 -5 -3.5 t-4.5 -2.5t-3.5 -2.5t-2.5 -3t-1 -3.5t-0.5 -5q0 -33 28 -57.5t73 -24.5q61 0 97 54t36 118q-7 11 -25 35.5t-25.5 37t-16 35.5t-9.5 48q0 30 20 46.5t43 16.5q35 0 72.5 -40.5t38.5 -84.5q8 2 19 10.5t19 17t16 18t9 10.5q-18 23 -29.5 64t-11.5 79q0 77 31 132.5t68 55.5 q55 0 67.5 -77t-22.5 -175zM291 1386q-31 0 -53.5 -36t-31.5 -80.5t-9 -85.5q0 -223 104 -604q4 21 17.5 85.5t19.5 96.5t15 84.5t12.5 95t3.5 82.5q0 144 -23.5 253t-54.5 109zM377 90q0 -4 18 -250q12 -147 30 -192q15 -37 36 -37q15 0 28 50t7 95q-2 18 -8 41.5 t-15.5 51.5t-18 51.5t-21.5 55.5t-20.5 49.5t-20.5 48t-15 36.5zM612 682q-29 0 -54.5 -41t-25.5 -84q0 -12 5 -37q32 15 62 57t30 70q0 14 -5 24.5t-12 10.5zM1024 784q12 25 20 68t3.5 80t-25.5 37q-15 0 -20 -42.5t1.5 -88t20.5 -54.5zM811 651q0 65 -21 81q-8 6 -18 -1 q-13 -12 2.5 -42t36.5 -38z" />
<glyph unicode="c" horiz-adv-x="1484" d="M754 766q190 -13 190 -154q0 -60 -36.5 -132.5t-94.5 -98.5q-16 -7 -44 -24t-52 -27.5t-47 -10.5q-58 0 -104 47t-46 105q0 27 8.5 58t17 50t28.5 58.5t26 52.5q8 26 64.5 51t89.5 25zM987 778q-24 -6 -45 -6q-11 0 -24 5.5t-13 17.5q0 29 102 89.5t162 71.5q31 7 58 7 q123 0 123 -101q0 -29 -44 -78.5t-44 -81.5q0 -11 1.5 -27t10 -41.5t22.5 -35.5q15 12 15 23q0 6 -3 16.5t-3 15.5q0 14 7 25.5t21 11.5q49 0 49 -53q0 -39 -27 -70.5t-63 -31.5q-40 0 -70 36.5t-55 106.5l-63 -37q0 -64 12 -109q3 0 13.5 -1t18 -2t16 -2.5t13.5 -4.5t5 -8 q0 -30 -92 -69t-123 -39q-8 0 -16.5 8t-8.5 18q0 14 29 31q51 34 51 106q0 118 -35 209zM256 219q-4 70 -8 115q-7 -3 -19.5 -8t-20 -7t-13.5 -2q-29 0 -29 21q0 19 16 33t32.5 22.5t16.5 12.5q0 8 -9 30.5t-11 28.5q-11 -2 -41 -10.5t-43 -8.5q-9 0 -17 7.5t-8 21.5 q0 26 163.5 113.5t193.5 91.5q6 2 18 2q37 0 37 -61q0 -4 0.5 -13.5t0 -15t-1 -14.5t-2 -14.5t-4.5 -11.5t-8 -8.5t-12 -2.5q-30 0 -55 51q-8 -4 -21 -9.5t-20 -8.5t-16.5 -8t-14.5 -8t-12 -7.5t-10 -8t-6.5 -8t-4.5 -9.5t-1 -11q0 -21 18 -51q14 6 19 14.5t18 48.5h6 q18 0 28.5 -44t10.5 -79q0 -32 -25 -32q-10 0 -47 14q-12 -24 -12 -43q0 -6 1 -16t3 -28t4 -34q54 12 64 12q11 0 19.5 -8t8.5 -18q0 -11 -114.5 -67t-149.5 -56q-31 0 -31 20q0 11 5.5 19.5t18 15.5t23.5 12t31 12.5t31 12.5zM215 35q-27 13 -27 20q0 24 47 41t121 34 t109 34q43 21 126.5 51t110.5 41l555 219q16 4 21 4q11 0 20 -9.5t9 -25.5q0 -12 -32.5 -31t-90 -41.5t-112.5 -43t-125.5 -45t-104.5 -37.5q-27 -10 -117.5 -45.5t-132.5 -51t-115.5 -41.5t-136 -43t-125.5 -30zM162 592q-3 3 -10 10.5t-11.5 12t-8 11.5t-3.5 13 q0 7 6.5 12.5t14.5 7.5q35 4 89 33t64 33q90 36 193 80t226.5 98t195.5 84q36 16 107.5 39.5t107.5 38.5q12 4 20 4q13 0 24 -8t11 -21q0 -44 -98 -65q-90 -20 -188.5 -59.5t-213.5 -92t-182 -78.5q-65 -25 -178 -78t-166 -75zM817 551v20q0 129 -69 129q-55 0 -87 -53.5 t-32 -114.5q0 -54 14.5 -101.5t42.5 -47.5q53 0 92 53.5t39 114.5zM1092 709q6 -6 12 -9q8 7 37.5 29t41 33.5t25.5 36.5t17 55q0 25 -54 25q-40 0 -60.5 -18.5t-20.5 -67.5q0 -15 1 -43t1 -41z" />
<glyph unicode="d" horiz-adv-x="1726" d="M1317 698q3 -3 8.5 -7.5t8.5 -7t7 -3.5q103 -28 103 -186q0 -26 -1 -79t-1 -79q0 -55 12 -106.5t33 -51.5q12 3 35 25t41 22q24 0 42.5 -18.5t18.5 -42.5q0 -34 -29 -59t-73 -25q-36 0 -66 14.5t-50.5 36t-38 56t-27 63.5t-18 70.5t-12 65t-7.5 59.5t-5 42q-2 10 -4.5 34 t-4.5 37t-7.5 32t-13 29t-20.5 18t-31 8q-31 -3 -50.5 -23t-19.5 -49q0 -134 39 -208q10 -17 10 -23q0 -10 -90 -55t-109 -45q-24 0 -24 14q0 17 27.5 43.5t31.5 34.5q41 66 41 170q0 23 -1 34.5t-7.5 27.5t-20.5 28q-20 17 -20 31q0 10 15.5 46.5t15.5 55.5q0 23 -4.5 47 t-14 60t-12.5 47q-5 21 -26 36.5t-42.5 22t-39 15.5t-17.5 20q0 15 79.5 61t102.5 54q169 43 262 43q55 0 91 -57.5t36 -119.5q0 -69 -35.5 -138t-93.5 -95q-5 -3 -13 -12.5t-11 -12.5zM432 502q56 56 68 74q28 42 41 146q2 15 4 32q2 36 12 75t29 78t53.5 64.5t77.5 25.5 q61 0 97 -26.5t49 -68t20 -84.5t19 -85t36 -61q39 -30 39 -54q0 -20 -19 -26q-13 -4 -22 -11.5t-14 -12.5t-8 -17.5t-3.5 -17t-1 -21t-0.5 -18.5q-2 -41 -15.5 -96t-34.5 -108.5t-53 -90.5t-67 -37q-29 0 -52 2.5t-41 10t-30.5 13.5t-22.5 20.5t-16 23.5t-11.5 30t-8 32 t-7 37.5t-7.5 39.5q-4 27 -12 43t-17.5 24t-34.5 26.5t-47 37.5zM293 760l-25 -250q22 0 35 14.5t17.5 31.5t14.5 31.5t27 14.5q25 0 29 -35q0 -4 -1 -11.5t-1 -10.5q0 -22 6 -65.5t6 -63.5q0 -23 -9 -39.5t-23 -16.5q-23 0 -35.5 19t-20 38t-18.5 19q-21 -3 -21 -24 q0 -3 1 -9.5t1 -9.5q-4 -118 -4 -176q0 -21 8 -31t29 -10h4q31 0 31 -33q0 -14 -18 -24.5t-41.5 -16t-50 -17.5t-39.5 -30q-11 -16 -37 -16q-16 0 -23.5 9.5t-7.5 21.5q0 18 6 30q49 77 49 215q0 58 -6 78q-45 8 -53 21q-2 5 -2 10q0 10 4 21t10 12q32 11 43.5 31t11.5 51 q0 7 -2 24t-2 25q0 9 2 29t2 30q0 82 -71 127q-17 10 -17 23q0 14 16.5 24t31.5 10q139 0 260 105q18 14 41 14q17 0 27.5 -11t10.5 -30q0 -31 -10 -94t-10 -96q0 -13 1 -40t1 -40q0 -25 -25 -25q-18 0 -27 20t-9 40v10q0 31 -25 73t-41 42q-15 0 -31.5 -11.5t-19.5 -27.5z M809 -186q-3 3 -15 11t-18.5 13.5t-13 14t-6.5 16.5q0 27 51 27h17.5h18.5t15.5 -1t15 -3.5t11.5 -7t10.5 -11t5 -16.5t2.5 -23q0 -58 -48 -91.5t-97 -33.5q-89 0 -140 66t-51 149q0 16 8 30.5t16 22.5t25 21q-27 -2 -43.5 -4t-43.5 -6.5t-44 -10t-37 -15.5t-31.5 -23 t-19.5 -32.5t-8 -43.5q0 -15 -18 -15q-28 0 -43 16t-15 44q0 57 47.5 102.5t108.5 66.5t117 21q18 0 52 -5t52 -5q6 0 19.5 1t19.5 1q38 0 112 -13.5t107 -13.5q27 0 53.5 6t55 20.5t46 25t50 32t45.5 29.5q13 10 25 10q9 0 18.5 -8.5t9.5 -19.5q0 -17 -47.5 -58t-95.5 -75 q-33 -25 -74.5 -40t-97.5 -20.5t-87.5 -6.5t-98.5 -1q-33 0 -64.5 -24t-34.5 -54q0 -48 39 -71t86 -23q13 0 23 8t10 21zM1137 1331q-23 -40 -66.5 -73.5t-60.5 -55.5q-119 -135 -340 -135q-28 0 -86 11.5t-88 11.5q-68 0 -123 -30t-78 -83q-13 -25 -29 -25q-17 0 -26 10.5 t-9 22.5q0 31 19.5 59t40 43t52.5 34.5t38 23.5q28 19 91 30t118 15.5t98 27t43 64.5q0 33 -29.5 52.5t-70.5 19.5q-37 0 -72 -21q5 -22 22 -30.5t31.5 -11t14.5 -11.5q0 -51 -64 -51q-35 0 -59.5 26t-24.5 62q0 55 50 78.5t114 23.5q62 0 112 -40.5t50 -106.5 q0 -37 -19.5 -61.5t-68.5 -61.5q14 1 28 4.5t25 6.5t25.5 9.5t22 10t24 13t21.5 12.5t23 14.5t21 13.5q12 7 32.5 27.5t33.5 27.5q64 35 164 43zM791 672q-1 13 -2 39t-2.5 47.5t-3.5 48.5t-6 47t-9.5 38.5t-14.5 28t-20 9.5q-21 0 -43.5 -16.5t-23.5 -36.5q-4 -36 -14 -102 t-16.5 -120.5t-6.5 -99.5q0 -38 2.5 -78.5t7 -97.5t6.5 -78q0 -76 57 -76q19 0 34 16t23.5 47t14.5 65t8.5 80.5t3.5 83.5t2.5 83.5t2.5 71.5zM1139 696q101 56 143.5 103.5t42.5 128.5q0 119 -98 119q-56 0 -82.5 -58t-26.5 -137q0 -45 21 -156z" />
<glyph unicode="e" horiz-adv-x="1234" d="M1016 141h-23l11 -45q-33 -26 -48 -26q-18 0 -31.5 20.5t-13.5 40.5q0 35 27 64.5t57 29.5q52 0 95 -35.5t43 -80.5q0 -72 -45.5 -134.5t-122.5 -62.5q-6 0 -20 2t-21 2q-17 0 -28 -27t-21.5 -65.5t-27.5 -77t-55 -65.5t-94 -27q-68 0 -119 46t-51 110q0 44 39 73t84 29 q17 0 70 -21q-17 -11 -51 -28t-51 -31t-17 -31q0 -27 27 -49t53 -22q46 0 82.5 51t36.5 106q0 51 -31 86t-88 35q-60 0 -117.5 -17.5t-93 -37t-103 -61t-108.5 -64.5q-12 -6 -22 -6q-9 0 -17 7t-8 21q0 11 40 41.5t106.5 75.5t91.5 64q62 51 200 51q62 0 113 -21 q13 -8 27 -8q33 0 81 -40t84 -40q60 0 84.5 38t24.5 89q0 23 -11 32t-38 9zM940 580q0 -23 6.5 -47t11.5 -39.5t21 -41.5t21.5 -34t28 -38.5t24.5 -33.5t7.5 -9.5t8.5 -10.5t5.5 -10.5t2.5 -12.5t-8.5 -11t-17.5 -5q-49 0 -98.5 73.5t-69.5 149.5q-2 5 -13 12 q-3 -2 -11.5 -8.5t-11 -8t-9.5 -7t-9 -8.5t-6.5 -8.5t-6 -10t-4 -10.5t-3 -13.5t-0.5 -15.5q0 -19 1 -31.5t5 -31t15.5 -28.5t29.5 -11v-11q0 -35 -45 -63.5t-82 -28.5q-12 0 -20 9.5t-8 21.5q0 22 10 29q35 26 35 82q0 41 -2.5 123.5t-2.5 123.5q0 14 -1 22.5t-4 20.5 t-10 21t-19 16q-19 13 -19 27q0 22 18 40.5t49.5 31.5t58 21t59.5 15t38 9q21 6 39 6q47 0 67.5 -24t20.5 -83q0 -27 -3.5 -44t-21 -38.5t-27.5 -31t-50 -45.5zM532 809v2q-121 -37 -186 -37q-47 0 -92.5 13t-82 48.5t-36.5 88.5q0 75 39 115t107 40q52 0 149.5 -5.5 t138.5 -6.5q1 0 11.5 5t11.5 5q5 0 10 -1.5t10 -8t-8 -18.5q-53 -62 -129 -52l-24 4q-12 4 -17 0.5t-6 -6.5t-0.5 -9.5t0.5 -8.5q-8 -38 -46 -55t-83 -17q-21 0 -33 10.5t-12 28.5q0 9 22 9.5t52 6.5t43 27q0 24 -34.5 30t-78.5 -11q-23 -9 -36 -28.5t-13 -41.5 q0 -49 42.5 -69.5t94.5 -20.5q63 0 147.5 35.5t139.5 71.5t65 51q31 42 77.5 66t98.5 24q35 0 72 -25.5t37 -58.5q0 -23 -12 -36t-31 -13q-15 0 -52.5 11t-56.5 11q-17 0 -84 -37.5t-88 -58.5q-15 -19 -35.5 -32t-49.5 -25.5t-42 -20.5zM532 729v-2q2 0 11 1t14 1 q25 0 43.5 -8t30 -26.5t18 -35.5t9.5 -48t3.5 -51t0.5 -56q0 -38 -6.5 -114.5t-6.5 -115.5q0 -46 -38 -84t-79 -38q-37 0 -60 21.5t-31.5 67.5t-10.5 77.5t-2 91.5v20q0 41 1 67.5t6.5 68.5t15.5 69.5t31 54t50 39.5zM248 358h6q14 0 24 9.5t14.5 21.5t13.5 21.5t22 9.5 q12 0 25.5 -10t13.5 -25q0 -71 -35 -135q-8 11 -19.5 27.5t-13.5 19.5q-39 -7 -49 -19t-10 -49q0 -22 5.5 -63.5t6.5 -61.5q23 0 43 -6t20 -18q0 -24 -70 -61t-108 -37q-9 0 -16.5 8.5t-7.5 17.5q0 11 10 22.5t22.5 20t22.5 24t10 34.5q0 64 -1 196.5t-1 200.5 q0 13 -11.5 18.5t-25.5 5t-25.5 4.5t-11.5 17q0 26 41.5 48t96 38.5t63.5 21.5q27 17 59 17q24 0 40 -20t16 -48q0 -66 -22.5 -116t-49.5 -50q-6 0 -11 4t-8 13t-5.5 17.5t-4 22.5t-2.5 22.5t-2.5 23.5t-1.5 20q-21 -3 -35 -13t-20.5 -22t-9 -34t-2 -39t2 -48t1.5 -51z M518 244q34 0 47 9.5t19 39.5q16 94 16 178q0 41 -1 63.5t-8.5 56.5t-21.5 60q-33 -28 -50.5 -72t-20 -75t-2.5 -82q0 -88 22 -178zM834 743q-19 -93 -19 -143q0 -29 2 -43q12 10 46.5 35t53.5 41t36.5 42t17.5 52q0 15 -9.5 24t-23.5 9q-16 0 -33 -2.5t-39.5 -7.5z" />
<glyph unicode="f" horiz-adv-x="1329" d="M711 541q-2 -15 -5.5 -42.5t-5.5 -41t-8 -35t-15 -35.5t-25 -30t-38 -29q-39 -33 -82 -33q-63 0 -99 64.5t-36 144.5q0 131 45 193.5t136 62.5q68 0 97.5 -51t35.5 -168zM973 659q13 -10 40.5 -29t48 -34t42 -33t33.5 -34t12 -29q0 -7 -12 -13t-19 -6q-9 0 -24 8 t-27 16.5t-29 21.5t-22 16q-32 24 -94 75q-43 -23 -60 -30v-160q-28 -4 -31 -4q-12 0 -17 7.5t-5 27.5q0 57 1 169t1 169t75.5 105t139.5 48q39 0 68.5 -30t29.5 -78q0 -42 -25.5 -79t-45.5 -52t-68 -44q-8 -5 -12 -8zM498 379q40 -6 61 -6q50 0 74 47.5t24 122.5v7 q0 33 -1.5 50t-10 40.5t-29.5 34.5t-55 11q-35 0 -57.5 -15t-32.5 -42.5t-13 -52t-3 -56.5q0 -82 43 -141zM354 659q-1 -25 -30.5 -40t-64 -21t-63 -25t-28.5 -51v-12q0 -14 -4 -64q16 8 53.5 29t58 30t35.5 9q8 0 15.5 -6.5t7.5 -18.5q0 -15 -27 -32.5t-59 -31.5t-59 -35.5 t-27 -45.5q0 -13 6 -44t6 -46q0 -84 -41 -84q-11 2 -17.5 8.5t-8.5 19.5t-2.5 18t-0.5 20q0 12 1 37t1 38q-4 156 -4 238q0 24 8 34.5t35 20.5q17 7 53.5 28t66.5 35t48 13q23 0 41 -21zM958 238q2 -7 6.5 -30t7 -32t8 -27.5t11.5 -28t14.5 -21t20 -18t25.5 -9.5 q45 -14 45 -41q0 -15 -12 -28t-31 -13q-7 0 -11 2q-16 7 -50 19.5t-56.5 21t-51.5 23.5t-46.5 29t-30 34t-12.5 43q0 125 73 125q9 0 22 -5.5t22 -11.5t25 -17.5t21 -14.5zM635 932q0 84 62 133t155 49q30 0 61 -11t31 -32q0 -17 -29.5 -23.5t-68 -15.5t-53.5 -31 q-10 -14 -32.5 -31t-38.5 -35.5t-20 -43.5q0 -2 -0.5 -7.5t-1 -7.5t-1.5 -7t-2 -7t-3 -5.5t-4.5 -5t-6.5 -2.5t-9 -1q-20 0 -30.5 19t-10.5 38q0 4 1 13.5t1 13.5zM473 831q-17 -40 -45 -40q-18 0 -55 11t-56 11q-42 0 -85 -12t-62 -35q-14 -27 -37 -27q-8 0 -12 15.5 t-4 27.5q0 55 62.5 90t127.5 35q36 0 69 -13t46 -22.5t51 -40.5zM860 647q124 73 160 105q47 41 47 79q0 29 -13.5 45.5t-35.5 16.5q-37 0 -64.5 -8.5t-44 -27.5t-27 -38.5t-15 -52t-6 -56.5t-1.5 -63zM326 1071q16 31 30 31q8 0 38.5 -24.5t47.5 -30.5q56 -21 89.5 -70 t33.5 -107q0 -10 -6.5 -17t-17.5 -7q-13 0 -39.5 18t-49 37.5t-55 48.5t-39.5 35q-32 23 -32 86zM979 326q0 28 20 28q9 0 36.5 -12t41.5 -12q20 0 35.5 13.5t24 29.5t21 29.5t26.5 13.5q18 0 30.5 -23t12.5 -49q0 -46 -25 -77t-80 -31q-54 0 -98.5 29t-44.5 61zM551 86 q-2 0 -6 -1t-6 -1q-29 0 -77 24.5t-48 41.5q0 13 12 22.5t23 9.5q9 0 30 -6t31 -6h49q35 0 83 34t60 34q25 0 25 -31q0 -43 -33.5 -72.5t-71 -39t-71.5 -9.5z" />
<glyph unicode="g" horiz-adv-x="1349" d="M936 893q4 5 17.5 22t18.5 22.5t16.5 17.5t19 16.5t18.5 9t21 4.5q28 0 44.5 -21t16.5 -59q0 -34 -13.5 -73t-37.5 -88t-33 -74q-4 -8 -4 -29q0 -22 15 -36.5t38 -14.5q24 0 46 15t22 34q0 12 -28 22.5t-28 24.5q0 10 8.5 18.5t24.5 8.5q28 0 51 -16t23 -40 q0 -60 -42.5 -94.5t-102.5 -34.5q-37 0 -64 35.5t-27 75.5q0 53 40 138t40 138q-7 -7 -22.5 -25t-22.5 -25.5t-19.5 -17.5t-25.5 -14t-28 -4q-8 -10 -29.5 -34t-33 -38t-22 -34t-10.5 -35q0 -83 -56.5 -127.5t-141.5 -44.5q-17 0 -31.5 2.5t-23.5 4.5t-23 9.5t-19 11 t-22 15.5t-23 16q-4 -4 -27 -24t-35.5 -36t-19.5 -36l5 -14q55 -66 88.5 -158t33.5 -176q0 -55 -26.5 -88t-71.5 -33q-16 0 -30 7.5t-26 24t-22.5 33.5t-20 45t-16 48t-14.5 53.5t-12 51t-10.5 50l-8.5 42.5q-5 15 -9.5 18.5t-22.5 3.5h-21q-26 0 -46.5 13.5t-20.5 41.5 q0 21 9 36.5t30.5 35t29.5 29.5q-12 -4 -29.5 -12.5t-29.5 -14.5t-15 -6q-43 10 -43 27q0 13 16.5 24t36 18t36 18.5t16.5 25.5q0 30 -7 94t-7 98q0 42 5 83.5t17 84.5t35 69.5t55 26.5q36 0 67 -37t47.5 -84.5t16.5 -87.5q0 -33 -8 -62.5t-30 -64t-38.5 -56.5t-54.5 -69 q-22 -25 -22 -47q0 -33 53 -57q23 7 80 75.5t76 110.5q12 30 46.5 57t63.5 27q14 0 25.5 -9t11.5 -23q0 -16 -14.5 -29.5t-32.5 -21.5t-32.5 -24t-14.5 -36q0 -63 104 -63q62 0 86.5 26t30.5 94q-75 18 -91 28q-28 18 -28 69q0 25 23 44t49 19q12 0 23.5 -3.5t22.5 -11.5 t17.5 -13.5t18.5 -17t16 -15.5q23 23 23 32q0 14 -21 29q-49 37 -49 117q0 29 20 51.5t48 22.5q30 0 47.5 -23t21.5 -50.5t11 -53t18 -29.5zM1157 426q22 16 41 16q21 0 35 -20t14 -47q0 -43 -46 -66.5t-93 -23.5q-57 3 -159 49.5t-154 46.5q-29 0 -51.5 -3t-45.5 -12 t-36 -29t-13 -50q0 -33 23.5 -58.5t56.5 -25.5q41 0 80 51q-2 1 -9.5 5.5t-11.5 7t-11 7t-11.5 8t-9 8t-6.5 9t-2 8.5q0 12 9.5 18.5t20.5 6.5q33 0 60.5 -28.5t27.5 -61.5q0 -46 -33.5 -78.5t-105.5 -32.5q-61 0 -99 46t-38 104q0 161 194 161q9 0 27 -2t27 -2h10 q49 0 133.5 -42t140.5 -42q15 0 36.5 6.5t21.5 22.5q0 5 -10 20.5t-13 22.5zM985 1090q-31 19 -33 24q0 3 11.5 22t11.5 27q0 27 -44.5 49.5t-82.5 22.5q-37 0 -58.5 -8.5t-34.5 -30.5t-21 -46t-25.5 -68.5t-40.5 -84.5q-22 -39 -78 -39q-51 0 -87 36t-36 83q0 29 17 54.5 t48 25.5q19 0 38 -16t20 -35q0 -4 -1.5 -8t-4.5 -10.5t-4 -10.5q-10 3 -24 9.5t-21 9.5q0 -3 -1.5 -8t-1.5 -7q0 -23 13.5 -36t36.5 -13q26 0 41.5 26t27 62.5t29 73t58 62.5t102.5 26q63 0 124.5 -33.5t61.5 -83.5q0 -37 -41 -75zM264 676l10 -6q56 61 79.5 101t23.5 89 q0 27 -7 58.5t-26 59.5t-45 28q-39 -72 -39 -191q0 -49 4 -139zM477 129q-4 39 -14.5 85t-27 96t-42 83t-55.5 33q-14 0 -14 -14q0 -19 15 -62.5t15 -64.5q0 -54 30 -129.5t50 -75.5q9 0 15.5 7t14.5 21.5t13 20.5zM829 971l19 -60q2 1 5 2q7 2 7 13q0 33 -31 45zM754 772 l-15 16l-6 -6l15 -16z" />
<glyph unicode="h" horiz-adv-x="2054" d="M705 846q6 -46 37 -122t38 -103q5 13 14.5 39.5t16.5 43t19 35.5t29 28t40 9q34 0 90.5 -59.5t71.5 -112.5q22 -85 22 -104q0 -21 -17.5 -35t-41.5 -14q-16 0 -29.5 4.5t-24 15t-19 21t-15.5 28t-11.5 31t-9 35t-7 34t-6 35t-5.5 31.5q-53 -56 -53 -121q0 -47 35.5 -136 t35.5 -134q0 -147 -90 -234q-63 -62 -143.5 -97.5t-151.5 -35.5q-105 0 -192 41.5t-105 116.5q-3 11 -10.5 39.5t-11.5 48.5t-4 39q0 70 36 127t103 57q39 0 77 -11.5t69.5 -45t31.5 -82.5q0 -34 -41 -90.5t-41 -97.5q0 -38 15.5 -57t52.5 -19q69 0 103 49t34 137 q0 75 -35 150q-58 128 -55 270q0 64 14.5 121t44.5 139q-54 25 -172 25q-75 0 -136.5 -38t-61.5 -106q0 -35 43 -76.5t73 -41.5q26 0 40 17t16.5 38t10 38t22.5 17q18 0 28 -16.5t10 -38.5q0 -55 -41 -90t-92 -35q-55 0 -99.5 37t-66.5 88t-22 100q0 82 56.5 159t143 123 t173.5 46q27 0 81 -4t80 -4q69 0 149 22t149 71.5t81 113.5q3 14 10 20t23 6q39 0 39 -110q0 -23 -7.5 -49t-22 -61.5t-19.5 -51.5q-20 -57 -62.5 -99.5t-100 -65.5t-115 -34.5t-121.5 -13.5zM1511 498q-1 -19 -1 -56.5t-2.5 -68t-10.5 -56.5q-17 -51 -65 -87.5t-99 -36.5 q-36 0 -64.5 18.5t-46 45.5t-31.5 65.5t-21.5 71.5t-16.5 70t-16 56q-23 64 -23 117q0 40 6.5 116t7.5 109q3 66 63.5 119t111.5 53q124 0 182 -338q10 -66 26 -198zM1616 1040q84 -113 100 -202q9 -54 49 -213q6 -26 13.5 -44t25.5 -35.5t45 -23.5q29 -6 29 -33 q0 -34 -46 -70t-83 -36q-45 0 -76 27t-47 73t-24.5 92t-17 100t-17.5 81q-7 21 -27 91.5t-41 118.5t-57 99q-35 53 -70 53q-6 0 -20.5 -5t-20.5 -5q-9 0 -17.5 7.5t-13 14.5t-4.5 9q0 17 30.5 29t59.5 12q19 0 42 -10.5t65 -37t55 -34.5q8 56 19.5 97t34 79.5t60.5 59 t91 20.5q69 0 118.5 -52t72.5 -126q8 -8 8 -37q0 -43 -31.5 -77t-75.5 -34q-29 0 -57.5 25t-47 55.5t-40 58t-37.5 31.5q-19 -20 -27.5 -46t-12.5 -62t-7 -50zM1184 1466q0 -15 -24.5 -29t-66 -29.5t-55.5 -23.5q-27 -14 -82.5 -48.5t-89 -52t-89 -34t-113.5 -16.5 q-38 0 -114.5 12t-115.5 12q-144 0 -229 -104q-12 -14 -20 -38t-12 -43t-13.5 -33.5t-24.5 -14.5q-16 0 -24.5 9.5t-8.5 21.5q0 81 58 144t135 92.5t151 29.5q37 0 113.5 -9t114.5 -9q64 0 128 27t144.5 74.5t130.5 68.5q27 12 47 12q24 0 60 -19zM733 -201q82 115 195 180 t260 101q14 4 45 4h98q117 0 178 12q12 2 24.5 5.5t22 7t23 10t20 9.5t21.5 11.5t19 11t20.5 13t19.5 12.5q104 65 142 127q15 25 32 25q10 0 19.5 -10.5t9.5 -18.5q0 -35 -91 -116t-167 -109q-5 -2 -28 -11.5t-30 -12t-27 -9.5t-30.5 -9.5t-27.5 -6.5t-32 -5.5t-30 -1.5 q-21 0 -61.5 1t-59.5 1q-130 0 -265.5 -54.5t-201.5 -139.5q-13 -15 -34.5 -29t-34.5 -14h-4.5h-4.5h-3.5t-3.5 0.5l-3 1.5t-2.5 2t-2 2.5t-3 4t-2.5 5.5zM1237 885q-18 -13 -18 -33q0 -9 4 -25q2 -8 11.5 -51t14.5 -62t16 -62t20 -67t22 -61t27 -59t30.5 -45.5t35.5 -36.5 t40 -18q12 27 12 55q0 108 -60 247.5t-155 217.5zM1864 39q-33 -52 -60.5 -83t-69 -60t-99 -41.5t-136.5 -12.5q-39 0 -113 9.5t-110 9.5q-33 0 -75.5 -24.5t-73.5 -48.5t-37 -24q-10 0 -39 19q77 135 254 135q29 0 86 -6t86 -6q77 0 169.5 35.5t168.5 85.5q1 1 6.5 6 t10.5 7.5t11 2.5q5 0 21 -4zM803 1540q-22 -49 -84 -71.5t-127 -22.5q-24 0 -73 7t-73 7q-28 0 -53 -5t-53.5 -18.5t-45 -22.5t-51.5 -30.5t-48 -29.5q-1 -1 -6 -4.5t-7 -3.5q-3 1 -8.5 1.5t-8 1.5t-6.5 2t-6 2.5t-4 4.5t-3 7t-1 9q0 12 9 24t25.5 24t30 20t33 18t23.5 13 q78 47 228 47q17 0 54 -4.5t56 -4.5q31 0 88 18.5t78 18.5q17 0 33 -8z" />
<glyph unicode="i" horiz-adv-x="2039" d="M1243 709q0 8 1 23t1 22q0 35 -22 86t-39 51q-13 0 -37 -12q2 -4 6.5 -10.5t7 -12.5t2.5 -12q0 -29 -20 -29q-25 0 -41.5 23t-16.5 47q0 41 45.5 60.5t98.5 19.5q50 0 97 -4.5t108.5 -17.5t99 -45t37.5 -79q0 -33 -37 -102q112 -75 158 -154q19 -34 56 -66t64 -32 q28 0 47 13t19 32q0 13 -8 22t-37 31q5 2 12.5 6t12 6.5t8.5 2.5q30 -6 50.5 -31t20.5 -55q0 -33 -35 -65t-69 -32q-14 0 -41.5 10t-49 20.5t-22.5 12.5q-8 9 -34 34.5t-41.5 45.5t-24.5 43q-17 42 -58 68t-89 26q-9 0 -29.5 -3t-30.5 -3q-6 0 -20 1t-21 1q-20 0 -20 -20 q0 -209 57 -209q24 0 43 10t46 37t32 31q14 -11 14 -27q0 -46 -47 -84.5t-96 -38.5q-40 0 -129 16.5t-101 18.5q-28 0 -48.5 -24.5t-32.5 -24.5q-1 0 -8.5 -0.5t-9.5 0t-7 2.5t-6.5 6.5t-1.5 11.5q0 28 20 47t51 26.5t51 10t35 2.5h27q39 0 39 37q0 117 -4 176q-1 8 -6 16.5 t-14.5 20.5t-12.5 17zM311 209q-16 0 -26.5 16t-10.5 33q0 29 25 51.5t55 34.5t55 30t25 38q0 38 -16.5 95.5t-28.5 57.5q-8 0 -37 -16q8 -20 8 -39q0 -8 -6.5 -15.5t-19.5 -7.5q-18 0 -32.5 16t-14.5 34q0 23 12.5 41.5t28.5 29t45 25.5q-6 12 -19.5 45.5t-23 52.5t-32 36 t-52.5 17q-61 0 -82 -55q5 -3 22 -11.5t25 -17t8 -20.5q0 -14 -14.5 -23.5t-28.5 -9.5q-29 0 -51.5 25t-22.5 57q0 20 5 37t12 29.5t21.5 22t25.5 15.5t31.5 10.5t33 6.5t37 3t36 1h37.5h34h69q59 0 115.5 7.5t112.5 32t71 62.5l-38 33q2 2 4.5 6.5t4.5 7t4.5 5t4.5 2.5 q4 -1 17.5 -3t20.5 -3.5t18 -5t17 -8t10.5 -12t4.5 -17.5q0 -36 -22 -64.5t-60 -46.5t-80 -31t-91 -20t-84.5 -10t-69 -5t-35.5 -2l69 -137q3 0 53 -7t76 -7q20 0 25 26t9 52t24 26q24 0 31.5 -14t7.5 -45v-41q0 -24 4.5 -43.5t15 -45t14.5 -36.5q-8 -10 -16 -10 q-16 0 -30.5 19t-31 37.5t-38.5 18.5q-16 0 -35 -1t-41.5 -2.5t-36.5 -2.5q29 -122 29 -172q0 -26 17.5 -34.5t59.5 -8.5q21 0 58 14.5t55 14.5q12 0 27 -6q-39 -96 -140 -96q-27 0 -82 8t-83 8q-34 0 -52.5 -22t-27.5 -44t-19 -22zM1079 664q0 -93 -38 -138t-119 -45 q-45 0 -79.5 20t-52.5 53t-27 67.5t-9 70.5q0 56 40 85.5t101 29.5q84 0 134 -46t50 -97zM1264 895q6 -17 18 -54t19.5 -58t19 -46t23 -37t24.5 -12q26 0 105 49q14 9 21 26t8 28t1 34q0 21 -23 36t-59 21t-63.5 8.5t-52.5 2.5q-27 0 -41 2zM817 657q0 -56 34 -82t85 -26 q36 0 63 26t27 64q0 106 -141 106q-68 0 -68 -88z" />
<glyph unicode="j" horiz-adv-x="1492" d="M291 1055q0 3 -4 24.5t-4 34.5q0 61 35 94t98 33q34 0 62 -14.5t28 -46.5q0 -11 -9.5 -21t-21.5 -10q-11 0 -25 19.5t-26 19.5q-26 0 -45 -28.5t-19 -57.5q0 -52 33 -68t96 -16q398 0 398 135q0 30 -21.5 49t-50.5 19q-34 0 -58 -16t-37 -32t-20 -16q-12 0 -25 15t-13 30 q0 46 46.5 71t94.5 25q27 0 57 -9.5t58 -28t46.5 -51t18.5 -72.5q0 -31 -13 -57t-32 -45t-51 -33.5t-60 -23.5t-70 -15.5t-69.5 -9.5t-71 -5t-61 -2h-51.5q-15 0 -42.5 4t-39.5 4q-15 0 -25 -2q13 -61 44.5 -160t37.5 -122q13 -47 156 -47q9 0 26.5 1t26.5 1q4 -20 4 -27 q0 -32 -28 -50t-66 -18q-28 0 -74 11q0 -4 -1 -12t-1 -11q0 -1 1 -4t1 -4q7 -24 29 -89.5t33 -101.5t21.5 -87.5t10.5 -88.5q0 -88 -37.5 -137t-93.5 -49q-58 0 -99.5 37.5t-41.5 93.5q0 34 21 67t49 33q12 0 23.5 -10t11.5 -22q0 -9 -5.5 -19.5t-15.5 -23.5t-14 -19 q16 -49 57 -49q12 1 21.5 5.5t14.5 14.5t8.5 17.5t5 24t2 23t0 26t-0.5 22.5q0 73 -18 117q-8 19 -12.5 59t-8.5 56q-4 21 -19 64.5t-22 43.5q-18 0 -32 -20.5t-28.5 -41t-33.5 -20.5q-16 0 -27.5 15t-11.5 30q0 42 30 85.5t73 56.5q-9 73 -58.5 211.5t-66.5 138.5 q-39 0 -77 -42t-38 -95q0 -42 23.5 -77.5t62.5 -45.5q15 -4 37 -19t22 -28q0 -14 -19 -26.5t-40 -12.5q-66 0 -112 79.5t-46 145.5q0 19 4.5 36.5t9.5 30t18.5 27t21.5 23t29.5 22.5t30.5 20t37 22t38 22zM1235 834q-81 -22 -154 -56.5t-73 -64.5q0 -2 1 -7.5t1 -7.5 q0 -61 -46 -98t-106 -37q-62 0 -102.5 41.5t-40.5 100.5q0 62 40 103.5t101 41.5q70 0 109 -37q14 -14 32 -14q21 0 37 16q-3 9 -9.5 29t-10 32t-7 28.5t-3.5 29.5q0 33 34 33q45 0 68 -17.5t43 -68.5q62 30 86 30q30 0 46.5 -19.5t16.5 -53.5q0 -19 -9.5 -57.5t-8.5 -55.5 q0 -18 9 -27.5t32 -17.5q3 4 9.5 15t11 17.5t10.5 12.5t12 6q10 0 18.5 -12.5t8.5 -28.5q0 -32 -26.5 -56t-57.5 -24q-42 0 -71.5 25.5t-29.5 73.5q0 13 3 29t6 27.5t9.5 33.5t10.5 35zM813 774q-27 -40 -27 -69q0 -26 25.5 -48t50.5 -22q36 0 56 20t20 52q0 14 -2 20 q-3 0 -10.5 -1t-10.5 -1q-61 0 -102 49z" />
<glyph unicode="k" horiz-adv-x="1740" d="M1087 530l64 25q8 -16 8 -29q0 -18 -33.5 -38t-77.5 -37.5t-96 -45.5t-80 -57q-14 -14 -20 -14q-9 0 -37 28q18 17 63.5 49.5t67 58t21.5 56.5q0 20 1 62t1 63v28v34t-0.5 35t-2 37t-4 33.5t-7 32t-10.5 25t-14.5 20t-19.5 9.5q-26 6 -26 29q0 33 98 84t168 67q37 9 76 9 q57 0 94 -45t37 -119q0 -56 -34.5 -92t-117.5 -86q13 -8 42.5 -25.5t43 -26.5t33 -25.5t31 -36t18.5 -44.5q79 -272 146 -272q30 0 48.5 16.5t18.5 48.5q0 8 -3 15.5t-6.5 13t-11.5 14t-13 12.5t-16.5 14t-16.5 15q12 10 28 10q34 0 62 -32t28 -70q0 -54 -38 -88.5 t-87 -34.5q-56 0 -96.5 18.5t-63.5 47.5t-43 70.5t-33.5 81.5t-36.5 87t-50 80q-28 33 -37 36q-3 1 -6 1q-7 0 -14 -3t-21.5 -10.5t-30.5 -13.5q-4 -36 -4 -53q0 -39 10 -68zM440 578q1 -27 1.5 -80t1.5 -92t4.5 -79.5t13 -62.5t24.5 -22q7 0 28.5 6t29.5 6q16 0 24 -21 q-25 -41 -90 -49q-30 -5 -74.5 -27t-76.5 -41t-37 -18q-10 0 -18.5 10t-8.5 21q0 10 26.5 50.5t26.5 66.5q0 9 -4 30t-4 31v27q0 22 -1 66t-1 65q0 13 1 37t1 37q0 43 -8 123t-8 120q0 47 -28.5 95.5t-65.5 48.5q-7 -1 -31 -10t-35 -9q-29 0 -29 33q0 21 91.5 52t164.5 44 q31 5 108 44.5t114 39.5q28 0 28 -30q0 -12 -4 -38t-4 -38q0 -35 8 -104t8 -103q-1 -7 -8 -17t-12 -12q-23 0 -36.5 21.5t-21 52t-17.5 60.5t-35 51.5t-66 21.5q-6 -30 -6 -37q1 -7 2.5 -18.5t2.5 -21t1 -17.5q0 -11 -3 -33t-3 -33q0 -133 41 -182q1 2 3 4q13 18 16 34 q1 4 2 14q2 12 3 20q2 20 11.5 37.5t25.5 17.5q29 0 43 -82.5t14 -148.5q0 -13 -14.5 -28t-28.5 -15q-13 0 -19.5 13t-9.5 28t-18 28t-43 13zM903 727q-2 -59 -13 -105t-24.5 -73.5t-39.5 -52t-42.5 -35.5t-48.5 -29q-12 -6 -24 -6q-30 0 -51 19.5t-31 52t-14.5 64.5 t-4.5 67q0 30 5 60.5t9.5 48.5t16.5 57.5t18 58.5q11 37 55.5 63.5t76.5 26.5q23 0 40.5 -11t27.5 -26.5t18 -41t11 -45t7.5 -49.5t7.5 -44zM612 -51h-16q-10 -2 -29 -2q-26 0 -55 25t-29 53q0 32 30.5 56.5t61.5 24.5q3 0 40.5 -7t54.5 -7q157 0 434 277q18 22 29 22 q13 0 28 -8t15 -18q0 -23 -44.5 -72t-91.5 -90q-12 -10 -47.5 -42.5t-50.5 -45.5t-49 -41t-54 -41t-52 -32.5t-57.5 -28.5t-56.5 -16t-61 -7zM1257 1178q-13 4 -57 22.5t-70 18.5q-36 0 -84.5 -20.5t-80.5 -40.5t-92.5 -62.5t-79.5 -55.5q-19 -12 -48 -12q-34 0 -34 16 q0 18 23 33t52.5 31t38.5 33q3 7 21 20q16 10 65.5 44t79.5 53t74 43.5t80.5 36.5t66.5 12q54 0 92.5 -28t38.5 -69q0 -24 -28 -50t-58 -25zM1055 985l18 -260q64 37 106 98t42 107q0 92 -60 92q-41 0 -106 -37zM549 1188l-8 10q26 35 118.5 77t124.5 66q74 57 158 60 q26 0 39.5 -13.5t13.5 -35.5q0 -37 -49 -37q-37 0 -76.5 -12.5t-68 -27.5t-67.5 -38q-9 -6 -13 -8q-16 -9 -41 -16.5t-42 -11t-49.5 -8t-39.5 -5.5zM745 862q-49 -70 -49 -168q0 -26 2 -51.5t8 -56.5t20 -50.5t34 -19.5q51 0 51 123q0 210 -66 223zM1270 274q3 -2 7 -4.5 t6 -3.5t4.5 -3t3.5 -3.5t2 -4.5t1 -7q0 -10 -7.5 -26t-23 -36.5t-27 -34t-31 -36.5t-23.5 -27q-2 -3 -14.5 -17.5t-19 -21.5t-19.5 -20t-22 -19.5t-20.5 -12t-21.5 -5.5q-15 0 -31 16.5t-16 30.5q0 16 25.5 39.5t58.5 45.5t70.5 54t56.5 62q4 6 10.5 11.5t16 12t14.5 10.5z " />
<glyph unicode="l" horiz-adv-x="1656" d="M1212 874q12 4 42.5 16t50 17.5t36.5 5.5q45 0 76 -31.5t31 -78.5q0 -54 -18 -111.5t-50 -99.5q-30 -43 -30 -88q0 -22 15 -38.5t38 -16.5q26 0 55.5 21.5t46 41.5t43.5 57q6 -27 6 -49q0 -62 -56.5 -111t-117.5 -49q-48 0 -81 31t-33 76q0 37 32 111l13 26t14.5 31.5 t11.5 29.5t10 34t3 32q0 78 -43 78q-52 0 -133 -88q-20 -22 -38.5 -47t-27.5 -41.5t-8 -18.5q4 -6 9 -24t5 -27q0 -33 -9 -66.5t-28 -66.5t-53.5 -53.5t-79.5 -20.5q-94 0 -143 63t-49 154q0 75 28 107q-42 -4 -88 -26.5t-72 -45.5t-24 -33q39 -146 39 -213 q0 -62 -22.5 -128.5t-61.5 -123t-98 -92.5t-125 -36q-92 0 -159 54.5t-67 149.5q0 70 48 133.5t110 63.5q49 0 77 -38t28 -93q0 -31 -19 -58.5t-57 -27.5q-13 0 -25.5 13t-1.5 26q7 9 19.5 20t19 19.5t6.5 19.5q0 25 -13.5 38t-35.5 13q-31 0 -52.5 -31t-21.5 -71 q0 -61 36 -103t89 -42q115 0 174.5 81.5t59.5 208.5q0 38 -12 90.5t-29 90.5q-8 -1 -50 -7t-65 -6q-51 0 -97.5 9.5t-89.5 31t-68.5 62t-25.5 96.5q0 63 38 103t98 40q64 0 93.5 -36t29.5 -82q0 -42 -34 -56q-25 -11 -33 4q-1 3 -1 7q0 28 -0.5 41t-3 30.5t-7.5 24.5 t-15 12.5t-25 5.5q-28 0 -47 -21t-19 -50q0 -76 64.5 -113t148.5 -37q43 0 78 12q-8 26 -26 77t-29 82.5t-20 71.5t-9 68q0 61 35.5 141.5t75.5 106.5q74 45 123 45q61 0 103 -38.5t42 -106.5q0 -57 -26.5 -98t-75.5 -41q-26 0 -51 17.5t-25 39.5q0 13 9.5 27t20.5 14 q6 0 19 -6t20 -6q31 31 31 69q0 18 -8.5 39t-22.5 21q-6 -1 -20.5 -3.5t-22.5 -4t-19 -7t-20 -14.5q-90 -87 -90 -207q0 -26 7.5 -57t13 -46.5t25.5 -61.5t24 -56q123 78 211 78q46 0 93.5 -23.5t47.5 -56.5q0 -13 -12 -25.5t-27 -22t-27 -31t-12 -50.5q0 -43 32 -76t69 -33 q46 0 80 44.5t34 97.5q0 54 -20 95t-61 52q-22 17 -18.5 30t22.5 13q14 0 36 -10t39 -20.5t19 -10.5q18 0 53 51q-42 23 -73 63t-31 77q0 31 20 53t53 22q56 0 92.5 -36t36.5 -83zM1090 952q-19 -19 8 -55.5t53 -36.5q7 29 -14 60.5t-47 31.5z" />
<glyph unicode="m" horiz-adv-x="1523" d="M1163 387l13 -6q-6 -29 -20.5 -40t-41.5 -11q-56 0 -131 -33q-12 -4 -18 -4q-10 0 -17.5 7.5t-7.5 18.5t8.5 16.5t18.5 7.5t19.5 10t10.5 22q2 35 2 104q0 115 -8 211q-4 0 -11.5 -1t-10.5 -1q-8 0 -18.5 11t-10.5 18q0 38 101 74t167 36q55 0 85 -31.5t30 -82.5 q0 -30 -11.5 -57.5t-22.5 -42t-38 -44t-37 -41.5q19 -33 59.5 -59.5t72.5 -26.5q12 0 19 6t19 22.5t25 29.5q1 -6 6.5 -18.5t5.5 -20.5q0 -64 -61 -64q-93 0 -135 45q-62 66 -129 66q-47 0 -47 -62q0 -47 7.5 -66.5t30.5 -19.5q16 0 76 27zM543 477q3 111 88 172 q7 5 20 16.5t20 16.5t21 9.5t31 4.5q62 0 111 -61.5t49 -132.5q0 -86 -60 -149.5t-145 -63.5q-61 0 -99 54.5t-38 115.5q0 12 2 18zM240 170l-25 297l-63 -16q3 -7 9.5 -18t8.5 -17t2 -17q0 -28 -16 -28q-21 0 -37.5 26t-16.5 45q0 39 57 70.5t136.5 55t89.5 28.5q9 5 40 31 t50 26q5 0 9 -2t6 -6.5t3.5 -9t2 -11.5t0.5 -11v-11.5v-9.5q0 -5 0.5 -21t0 -22t-2.5 -19t-6.5 -24t-12.5 -25l-37 74q-56 -14 -106.5 -39.5t-50.5 -54.5q0 -14 3 -47t3 -54q131 43 139 43q15 0 26 -9.5t11 -24.5q0 -9 -14 -19t-37.5 -19t-45 -16t-45 -14.5t-30.5 -9.5 q1 -9 2.5 -30.5t3 -35t6.5 -29.5t15 -24t26 -8q15 0 36 14.5t32 14.5q2 0 4.5 -1.5t8.5 -4.5t13 -5q-11 -36 -64 -57t-106 -21q-4 0 -12 1t-12 1q-12 0 -33 -16t-33 -16q-9 0 -17.5 8.5t-8.5 17.5q0 8 5 16t15 15t19.5 12.5t25 13.5t23.5 13zM758 623q-35 -15 -43 -15h-13 q-48 0 -77 -37.5t-29 -85.5q2 -30 3.5 -45.5t7 -37.5t15 -33t28 -19t44.5 -8q59 0 98 47.5t39 99.5q0 82 -73 134zM1057 549q8 2 32.5 6t38 7t32.5 8t30.5 11t17.5 13q4 5 15.5 18.5t18 22t14.5 20.5t12 23t4 22q0 32 -24 57t-52 25q-38 0 -88 -21t-57 -44q-11 -32 -11 -64 q0 -25 17 -104z" />
<glyph unicode="n" horiz-adv-x="3244" d="M2949 1442l-164 -164l82 -61l144 -144q13 -13 34 -18.5t36.5 -6t27.5 -9.5t12 -29q0 -13 -14.5 -31t-14.5 -29q0 -41 -61 -41q-80 0 -205 -41h-102q-82 -40 -82 -184q-16 -32 -34 -46.5t-48 -14.5q-29 -21 -63 -35.5t-58.5 -20.5t-64.5 -13.5t-60 -12.5q-37 -18 -111 -43 t-160.5 -51t-96.5 -29l-697 -185l-20 -20q0 -61 -21 -82q0 -23 -26 -40.5t-64.5 -25.5t-73 -12t-61.5 -4q-41 -20 -123 -20h-102q-43 -21 -123 -21h-328q-81 0 -102 21h-62q-13 0 -20 0.5t-14 5.5t-7 14q0 62 21 62q36 18 66.5 48t58 66.5t39.5 48.5l123 144q6 4 11.5 9.5 t14 15t15.5 16.5l-62 61l-164 144q-10 0 -30.5 10t-30.5 10q-22 0 -35.5 13t-13.5 28q0 14 14 32t14 29q0 12 5 20t11.5 12t19.5 6t21.5 2.5t24.5 0.5q53 0 151 20.5t136 20.5q38 19 55 56.5t25 76t22 52.5q0 18 10.5 28.5t27.5 18t24 14.5q29 21 63 35.5t58.5 20.5 t64.5 13.5t60 12.5q166 62 491 143q201 39 307 82q34 0 104 27t101 35q20 20 62 20q2 -5 12 6.5t19.5 38t9.5 58.5q0 23 26 40.5t64.5 25.5t73 12t61.5 4q41 20 123 20h102q80 0 123 21h348q61 0 82 -21h61q10 0 15 -1t12.5 -4t10.5 -12t3 -24q9 0 9 -8q0 -10 -9.5 -21.5 t-19.5 -11.5q-36 -18 -62.5 -49.5t-52.5 -71.5t-49 -63zM2048 520q125 41 164 41q36 14 94 30.5t102.5 29t88 30.5t67 43.5t23.5 59.5q0 11 -7 32v164q-19 19 -29.5 105.5t-10.5 140.5v61q0 21 -5.5 55.5t-5.5 51.5q0 20 11 57v82h-21q-225 0 -348 -20l-184 -41 q-41 0 -62 -21q-55 -11 -122 -42t-103 -40q-60 0 -144 -41l-204 -41l-328 -102q-14 -3 -50.5 -10t-60.5 -11.5t-61 -13.5t-62 -17.5t-54 -22t-46.5 -28t-29 -34.5t-11.5 -43q0 -111 27 -189v-102q20 -61 20 -143v-62q0 -21 4.5 -60.5t4.5 -56.5q0 -26 -9 -47v-82h21 q219 0 348 21l205 41l471 123q44 15 110.5 34t113.5 34.5t83 33.5zM2826 1421l205 226q-10 0 -30.5 10t-30.5 10h-205q-51 0 -153.5 -10t-153.5 -10h-62q19 -19 42.5 -28.5t38.5 -11t42 -1.5q47 -15 64.5 -36.5t17.5 -66.5v-184q0 -185 20 -287q21 -43 21 -123h20 q43 21 123 21q51 0 99 20.5t65 20.5q42 0 62 20q-9 0 -14 5.5t-6 10.5l-1 5l-225 205q-13 13 -37 25.5t-34.5 28t-10.5 48.5v4v4t0.5 3.5t1 3l2 2t3.5 2t5.5 1t7.5 0.5q22 0 40.5 8.5t27.5 16t28.5 29t26.5 28.5zM246 745v-20l225 -205q16 -16 21.5 -18.5t19.5 -1.5 q41 0 41 -68q0 -30 -21 -35q-39 0 -80 -34.5t-73 -79.5t-80.5 -102.5t-93.5 -90.5q14 -14 30 -17t52 -3h205q38 0 135 10t151 10h62q-33 17 -70.5 29.5t-59 18.5t-40.5 16.5t-27 28.5t-8 50v185q0 180 -21 287q-20 41 -20 122h-21q-41 -20 -122 -20q-21 0 -52 -10.5 t-51 -10.5q-10 0 -30.5 -10t-30.5 -10q-41 0 -41 -21zM1432 786q10 -75 14 -92q6 -24 29 -47q65 -59 140.5 -45.5t123.5 82.5q76 108 51 246q-15 82 -68 102q-39 13 -58 17.5t-51 0.5t-57 -26q-5 -3 -14 -6l-12 -4q-24 -14 -27 -21q-5 -11 -19.5 -38t-21.5 -41.5t-16 -38 t-12 -45t-2 -44.5zM2093 987q71 49 102 66q94 63 58 190q-7 25 -32 39t-50 8q-6 -1 -30 -6.5t-32.5 -7.5t-28.5 -8t-31.5 -11t-27 -13t-28.5 -17q-19 -12 -49 -23q-43 -19 -51 -31t-5 -57q1 -13 3.5 -56t3 -63t0.5 -54t-3 -62q-4 -39 -4 -121q-3 -35 33 -41q33 -5 37 31 q3 11 -2 53q0 10 -2 30.5t-2 32.5q0 48 59 76q39 18 78 -27l111 -112q22 -22 28 -25q9 -7 21 -6t16 12q11 21 4 41q-6 13 -33 35zM1675 985q81 -55 58 -154q-22 -96 -72 -139q-27 -24 -65 -28t-66 16q-26 21 -31 43q-23 108 19 168q3 4 14 37q21 43 70 49zM1116 698 q1 12 3.5 51t2.5 58q-3 52 45 74q63 24 158 65q31 13 25 41q-6 35 -41 25q-29 -6 -60 -23q-10 -5 -36.5 -20.5t-40.5 -22.5t-37.5 -14t-44.5 -8q-20 -1 -30 -17.5t-7 -38.5q6 -36 6 -37q0 -109 -4 -327q0 -10 -2.5 -35t-1.5 -39q0 -8 6.5 -17t13.5 -12q10 -3 16.5 4t8.5 19 l6 43l12 117q4 29 27 45q25 16 74.5 42t58.5 31q4 3 15.5 7.5t15.5 7.5q14 12 17 28.5t-7 28.5q-20 24 -51 2l-97 -57q-3 -2 -51 -21zM1966 991q-5 16 -6.5 31t0.5 32t4.5 27.5t8 30.5t7.5 27q1 6 8 11t13 7q82 37 153 62q47 15 44 -41t-52 -84q-51 -32 -180 -103zM1167 213 q-44 0 -172 -14t-155 -27q15 -15 20.5 -17.5t20.5 -2.5q10 0 30.5 -10.5t30.5 -10.5q50 -16 92 -16q133 0 133 98zM2089 1524q30 0 155.5 14t151.5 27q-8 0 -38 13.5t-73.5 27.5t-82.5 14q-121 0 -121 -66q0 -14 8 -30z" />
<glyph unicode="o" horiz-adv-x="1038" d="M911 791q1 0 5 1t6 1q15 0 24.5 -33t9.5 -58q0 -76 -43.5 -154t-105.5 -118q-9 -6 2 -27q18 -36 35.5 -107.5t17.5 -129.5v-11v-52.5t-2.5 -59t-7.5 -66t-15 -60t-24 -53.5t-36 -34t-50 -14q-31 0 -55.5 18t-39.5 49t-24.5 64.5t-14 74t-6 67.5t-1.5 54q0 38 8 112t8 112 q0 11 -6 25.5t-12.5 24.5t-17.5 27t-15 23q-24 -50 -44 -82.5t-49.5 -64t-67.5 -47t-87 -15.5q-91 0 -135.5 58t-44.5 139q0 55 22.5 106t55.5 84t68.5 52.5t62.5 19.5q4 0 31 18.5t57 18.5q52 0 85 -49.5t42 -110.5q18 11 25 15.5t14.5 13t7.5 16.5t-2 12q-18 50 -59.5 139 t-59.5 155t-18 157q3 63 23.5 126.5t65.5 113t103 49.5q57 0 100 -28.5t65 -68.5t35.5 -94.5t17 -94t3.5 -79.5q0 -213 -143 -377q-2 -3 -7 -8.5t-6 -7t-3.5 -5.5t-2.5 -7v-7t1 -10q3 -23 31 -70t36 -47q20 0 50.5 31.5t55.5 84.5t25 104q0 5 -2 24t-2 29q0 24 10 31z M674 711q66 81 103.5 151.5t37.5 147.5q0 47 -7 97.5t-24 105.5t-52.5 90.5t-84.5 35.5q-53 0 -81.5 -54.5t-28.5 -119.5q0 -41 6.5 -84.5t14 -75t25 -79t27 -69.5t33.5 -75.5t31 -70.5zM442 88q0 -11 -15.5 -20t-29.5 -9q-26 0 -45.5 18.5t-19.5 45.5q0 28 27 50t63 22 q55 0 91 -44t36 -106q0 -64 -56 -114t-112 -50q-50 0 -106.5 26.5t-98 76.5t-41.5 106q0 21 11 35t32.5 19t36 6.5t37.5 1.5q13 0 17.5 -3t4.5 -16q0 -18 -9 -51t-9 -43q0 -39 35.5 -65.5t89.5 -26.5q41 0 76 31t35 65q0 38 -21.5 63t-52.5 25q-9 0 -23 -5.5t-14 -12.5 q0 -6 30 -7.5t31 -17.5zM178 885q5 -5 18 -19.5t24 -21t30 -6.5q54 0 87.5 43t33.5 106t-39.5 107.5t-98.5 44.5q-37 0 -64.5 -34.5t-27.5 -68.5q0 -25 12 -45t35 -20q38 0 70 41q24 31 30 16q2 -5 -1 -12q-13 -33 -42.5 -56.5t-56.5 -23.5q-44 0 -75 33t-31 78 q0 62 46.5 106.5t102.5 44.5q87 0 137 -47t50 -147q0 -97 -55.5 -162.5t-141.5 -65.5q-29 0 -57.5 13.5t-28.5 39.5q0 45 43 56zM760 399l-66 -26q-2 -19 -6.5 -52t-7 -58t-2.5 -48q0 -91 16.5 -178.5t50.5 -87.5q36 0 52 68.5t16 152.5q0 133 -53 229zM311 668 q-54 -13 -94.5 -66.5t-40.5 -126.5q0 -53 32 -98t91 -45q45 0 85.5 28.5t57.5 73.5q-16 -8 -39 -8q-53 0 -86.5 39t-33.5 102q0 24 4 44t7.5 28t10 18t6.5 11zM375 637q-2 -6 -2 -19q0 -41 20.5 -78.5t44.5 -37.5q11 0 22 15.5t15 37.5q-1 17 -3.5 34t-8.5 41t-17.5 39 t-27.5 15q-34 0 -43 -47zM705 496q-5 -20 -5 -62q0 -8 13 -8q16 0 28 12q-22 44 -36 58z" />
<glyph unicode="p" horiz-adv-x="1142" d="M768 422q-7 7 -16 17t-13 14.5t-9.5 8t-10.5 3.5q-10 0 -119 -84q-10 -7 -10 -21q0 -25 -7.5 -55t-26.5 -66t-47 -65t-75 -48.5t-104 -19.5q-113 0 -178 63.5t-68 168.5q-5 96 71 176t195 80q55 0 98.5 -13.5t67 -32t40 -44t22 -42t8.5 -34.5q0 -5 21 10.5t46 42.5t33 47 q-48 75 -72 138t-24 133q0 56 17.5 113.5t59 102t97.5 44.5q45 0 76.5 -30.5t44 -70t12.5 -81.5q0 -160 -98 -302l59 -81q48 42 83 82t85 104q56 0 14 -51q-8 -10 -27 -30q-21 -22 -26 -30q-11 -17 -37.5 -48.5t-39.5 -54t-13 -44.5t8 -41q39 -103 39 -205q0 -33 -3 -76.5 t-13.5 -103t-26 -107.5t-44.5 -82t-66 -34q-50 0 -88 25.5t-57 65t-27.5 77t-8.5 71.5q0 86 35 185.5t88 164.5q7 9 13 19t13 23.5t9 17.5zM408 543q-32 14 -54 14q-86 0 -136 -65t-50 -146q0 -78 47 -127t125 -49q76 0 121.5 52.5t50.5 131.5q-34 -6 -47 -6q-66 0 -99.5 36 t-33.5 79q0 33 24.5 56.5t51.5 23.5zM780 -178q31 0 54.5 57.5t33 125t9.5 124.5q0 60 -15.5 121t-44.5 100q-44 -70 -80.5 -165.5t-36.5 -147.5q0 -46 2.5 -78.5t10 -66.5t24.5 -52t43 -18zM758 623q46 40 73 114t27 135q0 50 -22.5 97t-61.5 47q-45 0 -71.5 -55 t-26.5 -109q0 -56 20 -107.5t62 -121.5zM477 406h27q-1 30 -33 61t-59 31q-33 -5 -33 -29q0 -27 35.5 -45t62.5 -18z" />
<glyph unicode="q" horiz-adv-x="1468" d="M766 295q-2 -9 -6.5 -43.5t-9.5 -56.5t-13 -41q-25 -61 -68 -107.5t-98 -62.5q-102 -31 -198 -31q-64 0 -118.5 39.5t-86 96.5t-49 112.5t-17.5 95.5q0 83 40.5 160.5t115 128.5t162.5 51q68 0 138.5 -25.5t128 -84t65.5 -138.5q2 -26 14 -94zM1036 487q17 12 29.5 33 t17.5 38t16.5 29.5t28.5 12.5q16 0 57.5 -104.5t41.5 -128.5q0 -12 -9.5 -21.5t-21.5 -9.5q-17 0 -46 27.5t-54 27.5h-7h-6.5t-5 -1t-5 -3.5t-2.5 -6.5t-1 -11q0 -48 27.5 -108t52.5 -60q7 0 24.5 4t24.5 4q14 0 28.5 -2.5t33.5 -7t30 -6.5q-34 -29 -84 -50t-81 -29 t-101 -21.5t-86 -16.5q-16 -4 -27 -4q-12 0 -24.5 7t-12.5 17q0 8 11 20.5t20 12.5h10q50 9 50 45q0 5 -4 25q-13 51 -35 150.5t-42 178.5t-42 144q-37 -13 -60 -13q-44 0 -67 41q3 1 21.5 9t27.5 8q71 0 197 32.5t151 36.5q52 9 97 31.5t63 28.5q20 4 28 4q11 0 20 -7 t15.5 -21t10.5 -29t7 -37t5 -39t4 -41t4 -37q-23 -23 -35 -23t-35 23q-69 66 -168 66q-13 0 -37.5 4t-33.5 4q-25 0 -51 -23q11 -83 30 -203zM616 205q-10 90 -94 295q-9 24 -31 38.5t-49 14.5q-196 0 -196 -121q0 -62 14.5 -131.5t41 -134t72.5 -106.5t101 -42q25 0 45 6 t34 21.5t23 28.5t17 40t11.5 42t10.5 49z" />
<glyph unicode="r" horiz-adv-x="929" d="M104 522q-2 14 -2 43q0 109 34.5 211.5t103.5 163.5q14 14 36 14q151 0 167 -394q1 -14 1 -19q0 -15 1 -45t1 -45q0 -308 -161 -308q-41 0 -72 13t-49.5 39.5t-30 54t-16.5 68t-7 70.5t-3.5 72t-2.5 62zM340 209q10 175 10 207q0 204 -39 450q-6 25 -32 25 q-24 -2 -40.5 -25t-23.5 -54t-10 -73.5t-2 -74t2.5 -65t1.5 -38.5q0 -183 10 -250q18 -121 70 -121q17 0 53 19zM649 309q9 0 25 3t22 3q9 0 17 -6t8 -18q0 -25 -85 -57.5t-108 -32.5q-34 0 -34 20q0 16 6 19q19 12 30.5 41t14 50.5t2.5 39.5q-1 46 -1 175.5t-4 220.5 t-16 177q-21 3 -35 12.5t-14 22.5q2 12 12.5 21.5t29 17t35.5 12.5t40 11.5t33 9.5q18 6 54 21.5t63.5 26.5t37.5 11t16.5 -14.5t9.5 -45.5t4.5 -51.5t2 -62.5t0.5 -49q0 -19 -10 -32t-25 -13q-14 0 -26 24t-19.5 53.5t-22.5 53.5t-34 24q-41 0 -41 -47q4 -96 8 -288 q0 -5 8 -17q22 1 37 16t22.5 33t19.5 38.5t26 29.5q10 -5 16 -13.5t8 -21.5t2.5 -22t0 -25.5t-0.5 -20.5q0 -10 1 -37.5t0.5 -40t-3.5 -29.5t-12.5 -24.5t-24.5 -7.5q-11 0 -16 12t-5.5 26t-10 26t-29.5 12q-43 0 -43 -41t4 -122.5t4 -123.5zM410 12q-22 11 -35 11 q-19 0 -53 -17.5t-54 -17.5q-13 0 -25 8t-12 18q0 8 41 24.5t111.5 39.5t83.5 28q175 58 309 123q26 13 29 13q10 0 16 -17t6 -24q0 -35 -79 -83t-146 -65q-36 -9 -104.5 -23t-87.5 -18zM690 1178q-9 -24 -25.5 -40.5t-42.5 -25t-45.5 -12.5t-53.5 -7.5t-46 -5.5 q-109 -20 -289 -96q-20 -8 -28 -8t-16.5 7.5t-8.5 17.5q0 14 16.5 28.5t44 31.5t37.5 26q29 27 84.5 50t90.5 23q4 0 12 -1t12 -1q123 0 258 13z" />
<glyph unicode="s" horiz-adv-x="1292" d="M659 995q-63 -26 -73 -26t-18.5 9.5t-8.5 22.5q0 20 153.5 90t207.5 85q12 3 36.5 12t43.5 14.5t30 5.5t19 -9t8 -23q0 -16 -6.5 -48t-6.5 -49q0 -25 5.5 -76t5.5 -77q0 -29 -33 -29q-12 0 -18 8t-9.5 25.5t-5.5 21.5q-49 119 -145 119q-25 0 -42.5 -20.5t-17.5 -53.5 q0 -76 13.5 -160.5t40.5 -123.5q49 35 49 114q0 5 -2 16.5t-2 16.5q0 10 7 23.5t15 13.5q33 0 52 -44.5t35.5 -118t31.5 -105.5q6 -12 6 -27q0 -10 -12 -23.5t-21 -13.5q-15 0 -31 22t-33.5 44t-37.5 22q-21 0 -45 -8q1 -24 6.5 -51.5t11 -45t16.5 -50t15 -45.5 q10 -32 31.5 -54.5t58.5 -47t49 -34.5q-13 -38 -47 -38q-6 0 -18.5 2t-18.5 2q-33 0 -88 -42t-88 -42q-41 0 -41 22q0 13 4 21q43 102 43 245q0 129 -35 273t-90 235zM201 532q4 49 13.5 100t30.5 110.5t49 105t72.5 76t98.5 30.5q35 0 79.5 -63.5t65.5 -116.5 q23 -61 37.5 -142t14.5 -136q0 -79 -29 -171.5t-83.5 -161.5t-115.5 -69q-56 0 -102.5 45t-74 113t-42 141.5t-14.5 138.5zM424 887q-71 -58 -92 -104.5t-21 -151.5q0 -42 8 -117t9 -102q1 -35 6.5 -73.5t17 -80t33.5 -68t51 -26.5q97 0 114 181q7 78 1 122q0 80 -9.5 160 t-40 159.5t-77.5 100.5zM799 1276q-56 -70 -137.5 -110t-172.5 -40q-70 0 -137 -32.5t-88 -85.5q-2 -4 -7 -18.5t-7 -20t-8 -16t-12 -15t-15.5 -8.5t-21.5 -4q-38 0 -64.5 24.5t-26.5 69.5q0 52 46 90.5t119 58.5t141.5 31t134.5 17.5t78 9.5q19 5 70.5 32.5t74.5 26.5 q18 0 33 -10zM489 16q47 29 99 29q9 0 26 -1t25 -1q47 0 107.5 18.5t103.5 38t117 57t102 50.5q23 10 41 10q34 0 57 -17.5t23 -41.5q0 -39 -27.5 -64.5t-64.5 -25.5q-79 0 -229.5 -45.5t-221.5 -45.5q-81 0 -158 39z" />
<glyph unicode="t" horiz-adv-x="1267" d="M584 444q38 13 48.5 21.5t10.5 30.5q0 51 -5 155.5t-5 155.5q0 49 28.5 98t71.5 49q29 0 53.5 -29.5t38.5 -71.5t21.5 -82.5t7.5 -68.5q0 -66 -30 -131.5t-93 -111.5q-18 -12 -18 -31t9 -46.5t23 -62t19 -51.5q19 19 62 64.5t64.5 65.5t59.5 51t78 52.5t90 39.5q4 2 15 2 t21.5 -9.5t10.5 -21.5t-6.5 -20t-12.5 -11t-21.5 -8.5t-20.5 -7.5q-90 -26 -199.5 -128t-109.5 -159q0 -16 5 -38t13.5 -52t11.5 -43q2 -9 9.5 -42.5t10.5 -48t8 -41t7 -47.5t2 -40q0 -36 -9 -74.5t-26 -75.5t-49 -60.5t-73 -23.5q-48 0 -74.5 55.5t-26.5 114.5 q0 182 105 412q4 12 4 23q0 31 -25.5 106.5t-40.5 93.5q-30 -6 -43 -18t-16 -39q-6 -50 -31 -86.5t-63.5 -55.5t-78.5 -27.5t-85 -8.5h-16.5h-19t-17 0.5t-18.5 2t-16 3.5t-17.5 5.5t-14.5 8.5q-45 32 -77 83t-32 102q0 52 27 97t67.5 72t84 42.5t79.5 15.5q79 0 137 -39 t87 -111zM301 524q-56 -18 -93.5 -58.5t-37.5 -92.5q0 -44 16.5 -76t44.5 -47.5t56 -22t59 -6.5q69 0 120.5 32.5t51.5 96.5q0 4 -3 7t-9 5t-12 3.5t-15.5 2.5t-15.5 1.5t-15 1t-12 0.5q-71 1 -103 39t-32 114zM750 94q-29 0 -49.5 -114.5t-22.5 -217.5q0 -20 13 -47.5 t24 -27.5q28 0 53 43.5t25 76.5q0 157 -43 287zM731 872q-14 -5 -22.5 -21.5t-12 -45.5t-4 -49t-0.5 -56q0 -123 23 -174q37 30 57.5 79.5t20.5 103.5q0 101 -62 163zM508 436q-7 33 -41 56.5t-64 23.5q-10 0 -20 -10t-10 -23q0 -22 32 -37.5t62 -15.5q20 0 41 6z" />
<glyph unicode="u" horiz-adv-x="1050" d="M559 369q-28 -39 -42.5 -62.5t-27 -58t-12.5 -68.5v-20q0 -13 -12.5 -26.5t-35 -25.5t-42 -20.5t-44.5 -18t-32 -12.5q0 -13 -14.5 -30t-34.5 -17q-33 0 -44.5 27t-14 75.5t-10.5 69.5q-9 26 -32 54t-41 48t-18 29q0 16 11 35q34 67 34 164q0 12 -1 34t-1 34 q0 17 15.5 29t32 16.5t46 10.5t40.5 9q16 4 40.5 24.5t34.5 20.5q32 0 52 -30.5t28 -70.5t25 -89t41 -76q9 -10 30 -28.5t29 -26.5zM858 754q-37 -6 -67 -6h-15q-25 0 -44 -22t-19 -44q0 -36 13 -90.5t28 -77.5q15 13 24 38.5t17.5 42.5t25.5 17q25 0 46.5 -71.5 t21.5 -122.5q0 -11 -9 -22t-20 -11q-21 0 -53 53q-30 0 -37.5 -4.5t-7.5 -23.5v-5q0 -27 1 -43t5 -40t15.5 -37.5t29.5 -16.5q14 -4 47 -20q-23 -45 -49 -45q-7 0 -24 5t-25 5q-27 0 -68.5 -27.5t-54.5 -33.5q-10 -5 -14 -5q-9 0 -16 7.5t-7 17.5q0 16 21.5 42t43 57.5 t21.5 60.5q0 30 -10 55q-5 -1 -13 -4.5t-15 -5.5t-15 -2q-29 0 -29 33q0 20 22.5 68t22.5 77q0 47 -24.5 84.5t-67.5 40.5q-19 2 -37 13.5t-18 27.5q0 8 5.5 14t14.5 6q6 0 18 -3t17 -3q24 0 62 30t45 34q11 6 70.5 41.5t96 54t54.5 18.5q19 0 32.5 -30t19 -75.5t7.5 -78.5 t2 -59q0 -19 -13.5 -34.5t-31.5 -15.5t-25 25t-10 61.5t-10 49.5zM317 598q-73 -62 -73 -147q0 -19 4 -44.5t9 -45.5l13 -52t11 -47q1 -4 4 -19t4 -20.5t4.5 -18t6.5 -19.5t8 -16.5t11 -16.5q48 8 62 29.5t14 62.5q0 42 -7.5 92t-14 79t-23.5 93t-22 82q0 1 -1.5 1.5t-4 2 t-5.5 4.5z" />
<glyph unicode="v" horiz-adv-x="2918" d="M922 1169l677 179q20 20 62 20q2 -5 12 6t19.5 37.5t9.5 58.5q0 23 26 40.5t64.5 25.5t73 12t61.5 4q43 21 123 21h102q82 0 123 20h348q62 0 82 -20h62q10 0 15 -1t12.5 -4t10.5 -12t3 -24q8 0 8 -8q0 -10 -9.5 -21.5t-19.5 -11.5q-36 -18 -62.5 -49.5t-52.5 -71.5 t-49 -63l-163 -164l82 -62l143 -143q13 -13 34 -19t37 -6.5t28 -9.5t12 -29q0 -13 -14.5 -30.5t-14.5 -28.5q0 -41 -62 -41q-79 0 -204 -41h-103q-82 -40 -82 -184q-16 -32 -34.5 -47t-47.5 -15q-262 -111 -600.5 -201t-384.5 -79l-20 -21q0 -61 -21 -82q0 -23 -26 -40 t-64.5 -25.5t-72.5 -12t-62 -3.5q-43 -21 -123 -21h-102q-41 -20 -123 -20h-328q-82 0 -102 20h-62q-41 0 -41 21q0 61 21 61q36 18 66.5 48.5t58 67t39.5 48.5l123 143q6 4 11.5 9.5t14 15t15.5 16.5l-62 62l-164 143q-10 0 -30.5 10t-30.5 10q-22 0 -35.5 13t-13.5 28 q0 14 14 32.5t14 29.5q0 12 5 20t11.5 12t19.5 6t21.5 2.5t24.5 0.5q53 0 151 20.5t136 20.5q38 19 55 56t25 75.5t22 52.5q0 18 10.5 28.5t27.5 18t24 14.5q29 21 63 35.5t58.5 20.5t64.5 13.5t60 12.5zM1270 268q175 35 616 158q36 15 94 31t102.5 28.5t88 30t67 43 t23.5 59.5q0 15 -6 33v164q-19 19 -30 106t-11 140v61q0 21 -5 55.5t-5 51.5q0 24 10 57v82h-21q-225 0 -348 -20l-184 -41q-41 0 -62 -21q-77 -29 -284.5 -87t-290.5 -71q-14 -3 -50.5 -10t-60.5 -11.5t-61 -13.5t-62 -17.5t-54 -22t-46.5 -28t-29 -34.5t-11.5 -43 q0 -110 27 -188v-103q20 -61 20 -143v-61q0 -21 4.5 -60.5t4.5 -56.5q0 -26 -9 -47v-82h21q225 0 348 20zM2501 1286l204 225q-10 0 -30.5 10.5t-30.5 10.5h-205q-51 0 -153.5 -10.5t-153.5 -10.5h-61q19 -19 42 -28.5t38 -11t42 -1.5q47 -15 64.5 -36t17.5 -66v-184 q0 -180 21 -287q20 -41 20 -123h21q43 21 123 21q51 0 98.5 20.5t64.5 20.5q42 0 62 20q-9 0 -14 5t-6 11l-1 5l-225 204q-12 12 -36.5 25.5t-35 29t-10.5 48.5q0 15 7 18q5 2 14 2q22 0 40.5 8.5t27.5 16t28.5 29t26.5 28.5zM246 719v-21l225 -204q16 -16 21.5 -19t19.5 -2 q41 0 41 -67q0 -30 -21 -35q-39 0 -80 -34.5t-73 -79.5t-80.5 -103t-93.5 -91q14 -14 30 -17t52 -3h205q38 0 135 10t151 10h62q-33 17 -70.5 29.5t-59 18.5t-40.5 16.5t-27 29t-8 50.5v184q0 180 -21 287q-20 41 -20 123h-21q-43 -21 -122 -21q-21 0 -52 -10t-51 -10 q-10 0 -30.5 -10.5t-30.5 -10.5q-13 0 -20 -0.5t-14 -5.5t-7 -14zM1407 739q6 95 -55 195q-10 16 -29 24q-48 17 -86 7q-171 -42 -207 -224q-18 -107 33 -176q32 -44 89 -61.5t108 0.5q65 20 109.5 91t37.5 144zM1343 745q2 -63 -31 -112.5t-91 -69.5q-24 -10 -52 0 q-73 28 -82 105q-12 126 84 200q23 19 55 22.5t58 -1.5q9 0 25 -21q37 -55 34 -123zM1624 860q1 12 3.5 51t2.5 58q-3 53 45 73q45 17 158 66q31 13 25 41q-3 15 -14.5 22t-26.5 3q-29 -6 -60 -23q-10 -6 -36.5 -21t-41 -22t-38 -14.5t-44.5 -8.5q-20 -1 -29.5 -17t-6.5 -38 q6 -36 6 -37l-4 -327q0 -10 -2.5 -35t-1.5 -39q0 -8 6.5 -17t13.5 -12q10 -4 16.5 3.5t8.5 19.5l6 43q12 114 12 116q4 33 27 46q25 16 74.5 42t58.5 31q4 3 15 7.5t15 7.5q14 12 17.5 28t-6.5 27q-18 24 -51 4l-97 -57q-4 -2 -51 -21zM1167 186q-44 0 -172 -14t-155 -27 q15 -15 20.5 -17.5t20.5 -2.5q10 0 30.5 -10.5t30.5 -10.5q50 -16 92 -16q133 0 133 98zM1763 1389q30 0 156 14t152 27q-8 0 -38.5 14t-74 27.5t-82.5 13.5q-121 0 -121 -66q0 -14 8 -30z" />
<glyph unicode="w" horiz-adv-x="3244" d="M2949 1360l-164 -164l82 -61l144 -144q13 -13 34 -18.5t36.5 -6t27.5 -9.5t12 -29q0 -13 -14.5 -31t-14.5 -29q0 -41 -61 -41q-80 0 -205 -41h-102q-82 -40 -82 -184q-16 -32 -34 -46.5t-48 -14.5q-29 -21 -63 -35.5t-58.5 -20.5t-64.5 -13.5t-60 -12.5q-37 -18 -111 -43 t-160.5 -51t-96.5 -29l-697 -184l-20 -21q0 -61 -21 -82q0 -23 -26 -40.5t-64.5 -25.5t-73 -12t-61.5 -4q-41 -20 -123 -20h-102q-43 -21 -123 -21h-328q-81 0 -102 21h-62q-13 0 -20 0.5t-14 5.5t-7 14q0 62 21 62q36 18 66.5 48.5t58 67t39.5 48.5l123 143q6 4 11.5 9.5 t14 15t15.5 16.5l-62 61l-164 144q-10 0 -30.5 10t-30.5 10q-22 0 -35.5 13t-13.5 28q0 14 14 32.5t14 29.5q0 15 6 23.5t20.5 12t24 4t31.5 0.5q53 0 151 20.5t136 20.5q38 19 55 56.5t25 76t22 52.5q0 18 10.5 28.5t27.5 18t24 14.5q29 21 63 35.5t58.5 20.5t64.5 13.5 t60 12.5q166 62 491 143q201 39 307 82q34 0 104 27t101 35q20 20 62 20q2 -5 12 6.5t19.5 38t9.5 58.5q0 23 26 40.5t64.5 25.5t73 12t61.5 4q41 20 123 20h102q80 0 123 21h348q61 0 82 -21h61q10 0 15 -1t12.5 -4t10.5 -12t3 -24q9 0 9 -8q0 -10 -9.5 -21.5t-19.5 -11.5 q-36 -18 -62.5 -49.5t-52.5 -71.5t-49 -63zM2048 438q125 41 164 41q36 14 94 30.5t102.5 29t88 30.5t67 43.5t23.5 59.5q0 12 -7 33v163q-19 19 -29.5 105.5t-10.5 140.5v62q0 21 -5.5 55t-5.5 51q0 20 11 57v82h-21q-225 0 -348 -20l-184 -41q-41 0 -62 -21 q-55 -11 -122 -42t-103 -40q-62 0 -144 -40l-204 -41l-328 -103q-14 -3 -50.5 -10t-60.5 -11.5t-61 -13.5t-62 -17.5t-54 -22t-46.5 -28t-29 -34.5t-11.5 -43q0 -110 27 -188v-103q20 -61 20 -143v-62q0 -21 4.5 -60t4.5 -56q0 -27 -9 -48v-81h21q225 0 348 20l205 41 l471 123q44 15 110.5 34t113.5 34.5t83 33.5zM2826 1339l205 226q-10 0 -30.5 10t-30.5 10h-205q-51 0 -153.5 -10t-153.5 -10h-62q19 -19 42.5 -28.5t38.5 -11t42 -1.5q47 -15 64.5 -36.5t17.5 -66.5v-184q0 -185 20 -287q21 -43 21 -123h20q43 21 123 21q51 0 99 20.5 t65 20.5q42 0 62 20q-9 0 -14 5.5t-6 10.5l-1 5l-225 205q-13 13 -37 25.5t-34.5 28t-10.5 48.5v4v4t0.5 3.5t1 3l2 2t3.5 2t5.5 1t7.5 0.5q22 0 40.5 8.5t27.5 16t28.5 29t26.5 28.5zM246 664v-21l225 -205q16 -16 21.5 -18.5t19.5 -1.5q41 0 41 -68q0 -30 -21 -35 q-39 0 -80 -34.5t-73 -79.5t-80.5 -102.5t-93.5 -90.5q14 -14 30 -17t52 -3h205q38 0 135 10t151 10h62q-33 17 -70.5 29.5t-59 18.5t-40.5 16.5t-27 29t-8 50.5v184q0 180 -21 287q-20 41 -20 122h-21q-41 -20 -122 -20q-21 0 -52 -10t-51 -10q-10 0 -30.5 -10.5 t-30.5 -10.5q-13 0 -20 -0.5t-14 -5.5t-7 -14zM1196 541q-4 9 -14.5 29t-16 32.5t-8.5 24.5q-15 49 -22 121q-7 36 -31 36q-24 3 -47 -16q-8 -8 -17 -45l-18 -80q-21 -70 -23 -80q-1 -4 -4.5 -17t-5.5 -19.5t-6 -17.5t-10.5 -20t-14.5 -18l-22 92q-6 27 -16.5 80t-16.5 78 q-3 19 -13.5 28.5t-23.5 6.5q-17 -4 -24 -19.5t-2 -34.5q1 -3 11.5 -33t12.5 -46q21 -99 39 -201q5 -20 23 -49q17 -29 41 -17q32 18 37 35q9 28 21 80.5t17 71.5q20 68 45 98q35 -63 58 -170q6 -25 15.5 -35.5t29.5 -13.5q33 -3 49 39l6 18q26 142 29 164q1 5 4.5 30.5 t5 34.5t6 28.5t10 34t13.5 28.5q12 27 12 61q0 8 -5 19t-11 12q-16 3 -37 -14q-13 -10 -17 -29q-9 -40 -32 -168q-1 -11 -2.5 -40.5t-6.5 -52.5t-18 -46zM2269 967q0 -14 1 -29.5t1 -19.5t-5.5 -41.5t-6.5 -55.5q-6 -42 25 -45q18 -2 27.5 9.5t6.5 31.5q-8 53 7.5 147.5 t15.5 129.5l6 24l14 76q3 18 -3.5 29.5t-18.5 11.5q-16 1 -24.5 -8t-8.5 -25l-6 -74q-3 -75 -49 -104q-7 -3 -17 -12.5t-14 -12.5q-65 -44 -119 -63v39q2 14 8.5 42.5t8.5 43.5q3 33 -4 74q-3 13 -12.5 21.5t-22.5 4.5q-5 -2 -10.5 -7.5t-11.5 -14.5t-9 -13v-10 q-12 -148 -12 -158q-1 -16 1 -46t1 -46q0 -43 -4 -129v-18q1 -17 12.5 -27t26.5 -8q26 2 26 37q3 55 0 110q0 32 25 46q68 44 145 90zM1753 942q6 -92 -20 -283q-5 -14 -2 -27t18 -18q30 -9 41 25q1 1 12 53q24 168 29 213q6 57 59 74q47 16 49 47q-20 20 -33.5 23t-39.5 -5 l-170 -55l-51 -14q-20 -4 -30 -17.5t-5 -27.5q9 -39 55 -23l21 11zM1522 883q-1 2 -2.5 16t-3.5 23q-8 30 -31 30q-27 0 -35 -34q-21 -169 -23 -193q-1 -20 2 -55t2 -64.5t-12 -54.5q-1 -6 5 -16t12 -15q9 -9 30 2q15 8 19 21t4 35q0 82 8 145q2 23 25 160zM1167 131 q-44 0 -172 -14t-155 -27q15 -15 20.5 -17.5t20.5 -2.5q10 0 30.5 -10.5t30.5 -10.5q50 -16 92 -16q133 0 133 98zM2089 1442q30 0 155.5 14t151.5 27q-8 0 -38 13.5t-73.5 27.5t-82.5 14q-121 0 -121 -65q0 -15 8 -31z" />
<glyph unicode="x" horiz-adv-x="2918" d="M922 1169l677 179q20 20 62 20q2 -5 12 6t19.5 37.5t9.5 58.5q0 23 26 40.5t64.5 25.5t73 12t61.5 4q43 21 123 21h102q82 0 123 20h348q62 0 82 -20h62q10 0 15 -1t12.5 -4t10.5 -12t3 -24q8 0 8 -8q0 -10 -9.5 -21.5t-19.5 -11.5q-36 -18 -62.5 -49.5t-52.5 -71.5 t-49 -63l-163 -164l82 -62l143 -143q13 -13 34 -19t37 -6.5t28 -9.5t12 -29q0 -13 -14.5 -30.5t-14.5 -28.5q0 -41 -62 -41q-79 0 -204 -41h-103q-82 -40 -82 -184q-16 -32 -34.5 -47t-47.5 -15q-262 -111 -600.5 -201t-384.5 -79l-20 -21q0 -61 -21 -82q0 -23 -26 -40 t-64.5 -25.5t-72.5 -12t-62 -3.5q-43 -21 -123 -21h-102q-41 -20 -123 -20h-328q-82 0 -102 20h-62q-41 0 -41 21q0 61 21 61q36 18 66.5 48.5t58 67t39.5 48.5l123 143q6 4 11.5 9.5t14 15t15.5 16.5l-62 62l-164 143q-10 0 -30.5 10t-30.5 10q-22 0 -35.5 13t-13.5 28 q0 14 14 32.5t14 29.5q0 12 5 20t11.5 12t19.5 6t21.5 2.5t24.5 0.5q53 0 151 20.5t136 20.5q38 19 55 56t25 75.5t22 52.5q0 18 10.5 28.5t27.5 18t24 14.5q29 21 63 35.5t58.5 20.5t64.5 13.5t60 12.5zM1270 268q175 35 616 158q36 15 94 31t102.5 28.5t88 30t67 43 t23.5 59.5q0 15 -6 33v164q-19 19 -30 106t-11 140v61q0 21 -5 55.5t-5 51.5q0 24 10 57v82h-21q-225 0 -348 -20l-184 -41q-41 0 -62 -21q-77 -29 -284.5 -87t-290.5 -71q-14 -3 -50.5 -10t-60.5 -11.5t-61 -13.5t-62 -17.5t-54 -22t-46.5 -28t-29 -34.5t-11.5 -43 q0 -110 27 -188v-103q20 -61 20 -143v-61q0 -21 4.5 -60.5t4.5 -56.5q0 -26 -9 -47v-82h21q225 0 348 20zM2501 1286l204 225q-10 0 -30.5 10.5t-30.5 10.5h-205q-51 0 -153.5 -10.5t-153.5 -10.5h-61q19 -19 42 -28.5t38 -11t42 -1.5q47 -15 64.5 -36t17.5 -66v-184 q0 -180 21 -287q20 -41 20 -123h21q43 21 123 21q51 0 98.5 20.5t64.5 20.5q42 0 62 20q-9 0 -14 5t-6 11l-1 5l-225 204q-12 12 -36.5 25.5t-35 29t-10.5 48.5q0 15 7 18q5 2 14 2q22 0 40.5 8.5t27.5 16t28.5 29t26.5 28.5zM246 719v-21l225 -204q16 -16 21.5 -19t19.5 -2 q41 0 41 -67q0 -30 -21 -35q-39 0 -80 -34.5t-73 -79.5t-80.5 -103t-93.5 -91q14 -14 30 -17t52 -3h205q38 0 135 10t151 10h62q-33 17 -70.5 29.5t-59 18.5t-40.5 16.5t-27 29t-8 50.5v184q0 180 -21 287q-20 41 -20 123h-21q-43 -21 -122 -21q-21 0 -52 -10t-51 -10 q-10 0 -30.5 -10.5t-30.5 -10.5q-13 0 -20 -0.5t-14 -5.5t-7 -14zM1350 721q1 2 5.5 11.5t8.5 12.5q37 42 41 127q0 42 -41 56q-16 4 -29 4q-26 1 -57 -4t-45.5 -9t-56.5 -19t-48 -17q-25 -7 -29 -23.5t9 -42.5q8 -24 8 -37v-205q0 -13 -4 -35.5t-4 -33.5q-3 -49 29 -55 q38 -4 61 4q48 15 109 47q2 1 11 6.5t11.5 7.5t10.5 7t11 7.5t10 8t10 9.5t8 10t7.5 11t5.5 11.5t5 13.5q18 74 -47 127zM1669 559q0 6 1.5 70.5t0.5 81.5q-5 61 41 120q72 96 88 191q3 18 -3 31.5t-19 13.5q-17 1 -24 -8.5t-7 -26.5q-1 -22 -10.5 -47t-15.5 -36t-28 -43.5 t-24 -35.5l-18 -32q-52 31 -70 94q-1 3 -4.5 22.5t-7.5 28.5q-7 17 -22 25t-29 2q-26 -10 -11 -52l31 -77q33 -82 74 -111q8 -8 8 -51q0 -106 6 -129q7 -31 43 -31zM1167 186q-44 0 -172 -14t-155 -27q15 -15 20.5 -17.5t20.5 -2.5q10 0 30.5 -10.5t30.5 -10.5 q50 -16 92 -16q133 0 133 98zM1763 1389q30 0 156 14t152 27q-8 0 -38.5 14t-74 27.5t-82.5 13.5q-121 0 -121 -66q0 -14 8 -30zM1337 862q-3 -119 -157 -139q-1 5 -5.5 28t-3.5 35q1 36 12 48.5t48 23.5q50 15 62.5 15.5t43.5 -11.5zM1331 639q-9 -46 -40 -68.5t-99 -33.5 l-12 92q12 3 47 19.5t57.5 15.5t46.5 -25z" />
<glyph unicode="y" horiz-adv-x="2920" d="M922 1169l680 179q20 20 61 20q2 -5 12 6t19.5 37.5t9.5 58.5q0 23 26 40.5t64.5 25.5t73 12t61.5 4q43 21 123 21h102q82 0 123 20h349q61 0 81 -20h62q10 0 15 -1t12.5 -4t10.5 -12t3 -24q8 0 8 -8q0 -10 -9.5 -21.5t-19.5 -11.5q-36 -18 -62.5 -49.5t-52 -71.5 t-48.5 -63l-164 -164l82 -62l143 -143q13 -13 34 -19t37 -6.5t28 -9.5t12 -29q0 -13 -14.5 -30.5t-14.5 -28.5q0 -41 -62 -41q-79 0 -204 -41h-103q-82 -40 -82 -184q-16 -32 -34.5 -47t-47.5 -15q-264 -111 -602 -201t-385 -79l-20 -21q0 -61 -21 -82q0 -23 -26 -40 t-64.5 -25.5t-72.5 -12t-62 -3.5q-43 -21 -123 -21h-102q-41 -20 -123 -20h-328q-82 0 -102 20h-62q-41 0 -41 21q0 61 21 61q36 18 66.5 48.5t58 67t39.5 48.5l123 143q6 4 11.5 9.5t14 15t15.5 16.5l-62 62l-164 143q-10 0 -30.5 10t-30.5 10q-22 0 -35.5 13t-13.5 28 q0 14 14 32.5t14 29.5q0 12 5 20t11.5 12t19.5 6t21.5 2.5t24.5 0.5q53 0 151 20.5t136 20.5q38 19 55 56t25 75.5t22 52.5q0 18 10.5 28.5t27.5 18t24 14.5q29 21 63 35.5t58.5 20.5t64.5 13.5t60 12.5zM1270 268q182 36 618 158q36 15 94 31t102.5 28.5t88 30t67 43 t23.5 59.5q0 15 -6 33v164q-19 19 -30 106t-11 140v61q0 21 -5 55.5t-5 51.5q0 24 10 57v82h-21q-225 0 -348 -20l-184 -41q-40 0 -61 -21q-79 -29 -287 -87t-291 -71q-14 -3 -50.5 -10t-60.5 -11.5t-61 -13.5t-62 -17.5t-54 -22t-46.5 -28t-29 -34.5t-11.5 -43 q0 -110 27 -188v-103q20 -61 20 -143v-61q0 -21 4.5 -60.5t4.5 -56.5q0 -26 -9 -47v-82h21q225 0 348 20zM2503 1286l204 225q-10 0 -30.5 10.5t-30.5 10.5h-205q-51 0 -153.5 -10.5t-153.5 -10.5h-61q19 -19 42 -28.5t38 -11t42 -1.5q47 -15 64.5 -36t17.5 -66v-184 q0 -180 21 -287q20 -41 20 -123h21q43 21 123 21q51 0 99 20.5t65 20.5q41 0 61 20q-9 0 -14 5t-6 11l-1 5l-225 204q-12 12 -36.5 25.5t-35 29t-10.5 48.5q0 15 7 18q5 2 14 2q22 0 40.5 8.5t27.5 16t28.5 29t26.5 28.5zM246 719v-21l225 -204q16 -16 21.5 -19t19.5 -2 q41 0 41 -67q0 -30 -21 -35q-39 0 -80 -34.5t-73 -79.5t-80.5 -103t-93.5 -91q14 -14 30 -17t52 -3h205q38 0 135 10t151 10h62q-33 17 -70.5 29.5t-59 18.5t-40.5 16.5t-27 29t-8 50.5v184q0 180 -21 287q-20 41 -20 123h-21q-43 -21 -122 -21q-21 0 -52 -10t-51 -10 q-10 0 -30.5 -10.5t-30.5 -10.5q-13 0 -20 -0.5t-14 -5.5t-7 -14zM1069 692q1 -11 4.5 -45t5.5 -51q5 -18 11 -27q37 -50 86.5 -69t99 -6t90.5 51q41 41 78 145q22 56 -12 148q-29 75 -92.5 101.5t-122.5 -7.5q-141 -74 -148 -240zM1839 780q-4 0 -12 -4q-18 26 -47 62 q-16 21 -39 55q-66 95 -70 100q-19 27 -37 37q-25 14 -43.5 4t-21.5 -39q-3 -5 -0.5 -34.5t2.5 -36.5q0 -179 -2 -269q0 -20 4 -28q8 -21 24 -27q11 -5 20.5 0.5t12.5 17.5q10 40 10 50q0 128 2 194q0 5 4 13.5t5 11.5l12 6q18 -27 23 -37q59 -86 100 -156q25 -41 57 -38 q32 0 47 43q24 61 17 110q-3 21 -4 42.5t1 47t3 40t5 47t5 42.5q6 39 -2 50.5t-49 17.5q-25 -23 -28.5 -32.5t-2.5 -41.5q8 -133 10 -197q0 -9 -3 -28.5t-3 -22.5zM1386 727q-11 -54 -28.5 -89.5t-54.5 -57.5q-89 -53 -148 38q-19 28 -20.5 61.5t5.5 56t23 59.5q3 7 8 14.5 t15 17.5t12 13q37 38 83.5 32.5t74.5 -49.5q34 -59 30 -96zM1167 186q-44 0 -172 -14t-155 -27q15 -15 20.5 -17.5t20.5 -2.5q10 0 30.5 -10.5t30.5 -10.5q50 -16 92 -16q133 0 133 98zM1765 1389q30 0 156 14t152 27q-8 0 -38.5 14t-74 27.5t-82.5 13.5q-121 0 -121 -66 q0 -14 8 -30z" />
<glyph unicode="z" horiz-adv-x="2918" d="M922 1169l677 179q20 20 62 20q2 -5 12 6t19.5 37.5t9.5 58.5q0 23 26 40.5t64.5 25.5t73 12t61.5 4q43 21 123 21h102q82 0 123 20h348q62 0 82 -20h62q10 0 15 -1t12.5 -4t10.5 -12t3 -24q8 0 8 -8q0 -10 -9.5 -21.5t-19.5 -11.5q-36 -18 -62.5 -49.5t-52.5 -71.5 t-49 -63l-163 -164l82 -62l143 -143q13 -13 34 -19t37 -6.5t28 -9.5t12 -29q0 -13 -14.5 -30.5t-14.5 -28.5q0 -41 -62 -41q-79 0 -204 -41h-103q-82 -40 -82 -184q-16 -32 -34.5 -47t-47.5 -15q-263 -111 -601.5 -201t-383.5 -79l-20 -21q0 -61 -21 -82q0 -23 -26 -40 t-64.5 -25.5t-72.5 -12t-62 -3.5q-43 -21 -123 -21h-102q-41 -20 -123 -20h-328q-82 0 -102 20h-62q-41 0 -41 21q0 61 21 61q36 18 66.5 48.5t58 67t39.5 48.5l123 143q6 4 11.5 9.5t14 15t15.5 16.5l-62 62l-164 143q-10 0 -30.5 10t-30.5 10q-22 0 -35.5 13t-13.5 28 q0 14 14 32.5t14 29.5q0 12 5 20t11.5 12t19.5 6t21.5 2.5t24.5 0.5q53 0 151 20.5t136 20.5q38 19 55 56t25 75.5t22 52.5q0 18 10.5 28.5t27.5 18t24 14.5q29 21 63 35.5t58.5 20.5t64.5 13.5t60 12.5zM1270 268q175 35 616 158q36 15 94 31t102.5 28.5t88 30t67 43 t23.5 59.5q0 15 -6 33v164q-19 19 -30 106t-11 140v61q0 21 -5 55.5t-5 51.5q0 24 10 57v82h-21q-225 0 -348 -20l-184 -41q-41 0 -62 -21q-79 -29 -286 -87t-289 -71q-14 -3 -50.5 -10t-60.5 -11.5t-61 -13.5t-62 -17.5t-54 -22t-46.5 -28t-29 -34.5t-11.5 -43 q0 -110 27 -188v-103q20 -61 20 -143v-61q0 -21 4.5 -60.5t4.5 -56.5q0 -26 -9 -47v-82h21q225 0 348 20zM2501 1286l204 225q-10 0 -30.5 10.5t-30.5 10.5h-205q-51 0 -153.5 -10.5t-153.5 -10.5h-61q19 -19 42 -28.5t38 -11t42 -1.5q47 -15 64.5 -36t17.5 -66v-184 q0 -180 21 -287q20 -41 20 -123h21q43 21 123 21q51 0 98.5 20.5t64.5 20.5q42 0 62 20q-9 0 -14 5t-6 11l-1 5l-225 204q-12 12 -36.5 25.5t-35 29t-10.5 48.5q0 15 7 18q5 2 14 2q22 0 40.5 8.5t27.5 16t28.5 29t26.5 28.5zM246 719v-21l225 -204q16 -16 21.5 -19t19.5 -2 q41 0 41 -67q0 -30 -21 -35q-39 0 -80 -34.5t-73 -79.5t-80.5 -103t-93.5 -91q14 -14 30 -17t52 -3h205q38 0 135 10t151 10h62q-33 17 -70.5 29.5t-59 18.5t-40.5 16.5t-27 29t-8 50.5v184q0 180 -21 287q-20 41 -20 123h-21q-43 -21 -122 -21q-21 0 -52 -10t-51 -10 q-10 0 -30.5 -10.5t-30.5 -10.5q-13 0 -20 -0.5t-14 -5.5t-7 -14zM1395 653l8 -16l10 -47q4 -28 15 -39t28 -6q34 12 19 57q-1 2 -2 5t-2 5t-1 4l-55 183q-22 78 -39 131q-9 25 -39 22q-28 0 -37 -24q-61 -157 -77 -207q-4 -14 -19.5 -65.5t-27 -83.5t-27.5 -62 q-8 -14 -11 -20t-2 -18t13 -19q9 -8 26 2t27 30q4 5 8 23q14 39 27 70q13 26 25 32q72 40 133 43zM1616 985q8 -40 8 -41l-6 -266q0 -19 2 -29q8 -27 31 -24q32 4 35 28q4 78 4 117q0 20 -4.5 72t-2.5 80q1 9 2 23q4 58 13 71q10 14 60 32l1 1h1h1l1 1h1q12 4 19 7q4 0 6 2 q31 11 22 41q-14 32 -43 20l-49 -20q-139 -59 -202 -88q-20 -8 -27 -17q-14 -18 -8 -30q1 -6 9.5 -11.5t14.5 -5.5q16 0 51 13zM1167 186q-44 0 -172 -14t-155 -27q15 -15 20.5 -17.5t20.5 -2.5q10 0 30.5 -10.5t30.5 -10.5q50 -16 92 -16q133 0 133 98zM1763 1389 q30 0 156 14t152 27q-8 0 -38.5 14t-74 27.5t-82.5 13.5q-121 0 -121 -66q0 -14 8 -30zM1374 727l-90 -39l-8 6l29 74q18 44 32 74q13 -10 13 -11q19 -78 24 -104z" />
<glyph unicode="{" horiz-adv-x="905" d="M487 469q11 102 11 129q0 62 -21 127q-4 8 -4 23q0 19 12 31t31 12q138 0 212.5 -55t74.5 -181q0 -45 -11 -83t-36 -70.5t-72 -51t-113 -18.5q-25 0 -41 8.5t-24.5 30t-11.5 40.5t-7 58zM324 430l14 4q6 64 6 129q0 27 -10 81t-10 79q0 57 36 57q11 0 19.5 -11.5 t14 -32.5t10 -45.5t7 -56t4 -59t1.5 -58.5t0.5 -50.5t0 -39.5t-0.5 -21q0 -29 -21.5 -54.5t-50.5 -25.5q-20 0 -39 20.5t-34 56.5t-25 65.5t-20 67.5t-11 42q-18 -15 -18 -37q0 -25 2 -54.5t5.5 -65t4.5 -54.5q0 -48 -39 -48q-15 0 -26 14t-17 40t-9.5 54.5t-4 68t-0.5 69 t1 68.5t1 57q0 21 1.5 34t12.5 27.5t33 14.5q16 0 32.5 -16.5t31.5 -45t28.5 -59.5t26 -69t20.5 -64t15.5 -53.5t7.5 -28.5zM453 846h-127q-34 0 -97 -7.5t-96 -7.5q-31 0 -31 27q0 18 17 30.5t48.5 19t67.5 10t82 4t82.5 -0.5t79.5 -2t64 -1q22 0 70.5 4t72.5 4 q51 0 51 -43q0 -16 -20 -25t-51 -11t-69.5 -2t-75.5 1.5t-68 -0.5zM360 274q173 13 246 13q8 0 35 1t39 0t30 -4t25.5 -11.5t7.5 -22.5q0 -18 -14.5 -29.5t-36.5 -11.5q-26 0 -76.5 3t-74.5 3q-241 0 -367 -27h-4q-12 0 -22.5 7t-10.5 16q0 28 44.5 45t94 18.5t84.5 -0.5z M580 416q153 40 153 155q0 54 -35 88.5t-104 57.5h-8q-4 0 -15 -1t-18 -1q6 -35 6 -107v-35q0 -95 21 -157z" />
<glyph unicode="|" horiz-adv-x="761" d="M223 907h-4q-31 -24 -31 -69q0 -33 21 -75t58.5 -97.5t49.5 -77.5q37 -76 37 -119q0 -60 -36.5 -103.5t-90.5 -43.5q-47 0 -78.5 31.5t-31.5 97.5q0 40 12 67t35 27q35 0 35 -53q0 -5 -2 -14.5t-2 -14.5q0 -22 11.5 -38.5t26.5 -16.5q27 0 27 59q-5 44 -31 98.5t-54 96.5 t-50.5 96.5t-22.5 101.5q0 56 32.5 97.5t76.5 41.5q57 0 90 -43t33 -112q0 -42 -18 -67t-48 -25q-8 0 -10.5 7.5t-3.5 23.5v5v29q0 38 -8.5 64t-22.5 26zM547 926q5 -214 39 -482q0 -4 1 -12t1 -12q0 -37 -21.5 -70t-58.5 -33q-20 0 -28.5 14t-8.5 31q0 35 5 104.5t5 104.5 q0 47 -2.5 97.5t-7 119.5t-6.5 101q0 37 -39 37q-2 0 -5 -1t-5 -1q-24 0 -41 10t-17 31q0 18 14.5 30t43.5 17.5t52.5 7.5t62 3.5t51.5 2.5q28 0 52.5 -12.5t24.5 -36.5q0 -12 -4 -19t-15 -11.5t-22 -6.5t-32.5 -6t-38.5 -8zM281 1090q-19 -1 -59 -9t-60 -8q-43 0 -43 53 q0 58 313 58h46h75.5t53 -3t41 -10.5t11.5 -19.5q0 -11 -11 -24.5t-23 -14.5q-71 -12 -344 -22zM279 215q30 2 98 7t121.5 8t99.5 3q18 0 28.5 -10t10.5 -24q0 -21 -11 -33t-34.5 -16.5t-41 -5t-51 1t-44.5 1.5q-44 0 -133.5 -6t-128.5 -6q-53 0 -56 35q0 20 19 36.5 t41 16.5q13 0 39.5 -3.5t42.5 -4.5z" />
<glyph unicode="}" horiz-adv-x="1150" d="M500 594q-17 0 -17 8q0 13 2 21t14 18.5t36 17.5q39 11 64.5 44.5t25.5 74.5q0 44 -41.5 75.5t-116.5 31.5q-112 0 -190 -73t-78 -185q0 -51 24 -90q6 2 18.5 7t17 7t13.5 5t14 4t12.5 2t14.5 1q22 0 40 -15t18 -36q0 -30 -24.5 -58t-51.5 -28q-34 0 -76 29 q-24 -28 -24 -95q57 8 199.5 40t150.5 34q4 9 17 43.5t20.5 50t21 39t28.5 33.5t32 10q36 0 57.5 -36.5t21.5 -88.5q24 5 126 36.5t149 31.5q31 0 31 -57q-207 -55 -301 -86q-4 -1 -8 -5.5t-9.5 -12.5t-10 -16t-11 -20.5t-11 -22t-12 -25.5t-12.5 -25q-15 -30 -15 -43 q0 -48 26 -87.5t67 -39.5q48 0 110 100q22 37 25 37q2 0 2 -6q-3 -63 -60.5 -135t-126.5 -72q-19 0 -37.5 6.5t-33 17.5t-27.5 23.5t-22 25.5t-16 23.5t-11.5 16.5t-5.5 6q-2 -1 -17.5 -7.5t-33 -13.5t-40 -14.5t-46 -12t-43.5 -4.5q-111 0 -189 72.5t-78 171.5q0 37 13 78 t25 65t12 25q-29 67 -29 113q0 53 23.5 109t65 103.5t106.5 78t141 30.5q211 0 211 -180q0 -79 -49.5 -127.5t-120.5 -48.5zM524 217q0 22 1 66.5t1 64.5q-46 -8 -154 -27t-159 -28q17 -42 74.5 -74.5t111.5 -32.5q58 0 125 31zM694 473q0 74 -18 74q-10 0 -21.5 -28.5 t-11.5 -61.5q39 12 51 16zM684 393q-32 -6 -42.5 -13.5t-10.5 -27.5q0 -9 8 -49q11 20 45 90z" />
<glyph unicode="~" horiz-adv-x="894" d="M403 96q-5 -2 -33.5 -14t-54 -21.5t-62 -18.5t-65.5 -9q-43 0 -64.5 27.5t-21.5 66.5q0 17 6 36t13 32.5t23.5 35.5t25 31.5t31.5 35t30 32.5q-16 -3 -38.5 -9t-34.5 -6q-23 0 -37.5 17.5t-14.5 42.5q0 46 57 111t118 111t102 67q10 6 14.5 8t10.5 6.5t8 5.5t5 6t3.5 6 t1.5 7.5t0.5 9.5t-0.5 12.5v15.5q0 21 -8 93t-8 90q0 37 18 37q11 0 20 -37.5t19 -106.5t14 -92q11 4 39 13.5t40 13.5t36.5 11t41 10.5t38.5 6t43 2.5q33 0 53.5 -19.5t20.5 -49.5q0 -42 -42.5 -95t-72.5 -53q-10 0 -15.5 13.5t-5.5 19.5q0 19 11.5 31.5t25.5 18.5t25.5 21 t11.5 38q-2 1 -4.5 3.5t-3.5 2.5q-52 -3 -108.5 -19t-101 -47t-44.5 -67q1 -8 1.5 -19t0.5 -22v-22.5v-21.5t0.5 -17.5t2 -11.5t3.5 -3q62 25 62 -23q0 -6 -33 -26t-33 -21q0 -148 -2 -209q16 7 63 34.5t74 33.5q15 3 29 -2.5t14 -18.5q-8 -4 -29.5 -13t-35 -15.5 t-33.5 -16.5t-33 -19t-25.5 -20t-19 -23t-6.5 -24q-3 -24 -4 -76t-5.5 -90.5t-15.5 -60.5q-41 0 -41 223zM406 164l8 196q-64 -23 -145 -105.5t-81 -131.5q0 -39 77 -24q75 15 129 55q7 5 12 10zM238 401q0 -14 55 -14q42 0 83.5 25t41.5 55q0 32 -4 102 q-91 -61 -133.5 -98.5t-42.5 -69.5z" />
<glyph unicode="&#xa1;" horiz-adv-x="1861" d="M1743 410q16 -22 16 -54q0 -40 -26 -65t-60 -25q-51 0 -102 72q-9 -2 -16 -7.5t-11 -11t-9.5 -14t-8.5 -12.5q-42 -60 -111 -60q-27 0 -48 11t-34.5 26.5t-22.5 43t-14 48.5t-7 57t-2.5 55t-0.5 53v10q0 89 37 165t98 76q16 0 32 -5t43 -17.5t44 -18.5q10 65 10 115 q0 62 -19 124t-54.5 115t-93 86t-126.5 33q-55 0 -105 -9.5t-96.5 -31t-74 -63t-27.5 -98.5q0 -50 33 -79.5t88 -29.5q43 0 97.5 32.5t54.5 59.5q0 15 -11 26.5t-24 17.5t-24 14t-11 16q0 13 9.5 23t21.5 10q46 0 76 -33.5t30 -81.5q0 -65 -77.5 -111.5t-157.5 -46.5 q-72 0 -127 48t-55 124t35.5 131.5t95 84.5t124 42t136.5 13q91 0 171 -60t125.5 -157t45.5 -203q0 -54 -3 -157t-3 -152q0 -77 19.5 -144t53.5 -67q17 0 28 12t22 37t16 33zM666 311q-18 6 -33 6q-42 0 -67.5 -18.5t-35.5 -53.5t-13 -68t-4 -79.5t-5 -70.5 q-8 -52 -23 -98.5t-41 -92t-68.5 -73t-96.5 -27.5q-52 0 -84.5 39.5t-32.5 97.5q0 55 37.5 110.5t101.5 55.5q27 0 35 -49q-3 -2 -22 -11.5t-23 -12t-18 -11.5t-17.5 -15t-11 -17t-9.5 -23t-2 -27q0 -28 14 -47t34 -19q36 0 65 18.5t47.5 46t32 68t20 75.5t10.5 78.5 t4.5 66.5t0.5 49q0 31 -6 92t-6 92q0 41 0.5 69t3.5 73.5t9 76.5t17.5 67.5t28 59t41.5 37.5t57 15h21q8 0 14 2q-39 57 -106 57q-83 0 -130 -49t-83 -150q-13 -33 -13 -57q0 -23 7.5 -37t23 -32.5t25.5 -37.5q10 -13 10 -22q0 -13 -12 -24t-25 -11q-35 0 -63.5 62 t-28.5 110q0 52 47 160q34 82 113.5 127t171.5 45q76 0 116.5 -57.5t40.5 -147.5q0 -62 -3 -192.5t-3 -196.5q0 -5 -1 -54t0.5 -65.5t5.5 -52t14.5 -55.5t27.5 -33q10 -10 10 -19q0 -7 -7.5 -12t-15 -6.5t-13.5 -1.5q-24 0 -41 16t-25 41t-11 47.5t-3 44.5v56q0 19 -4 65z M926 549q9 14 32 52t37.5 59.5t38 41t45.5 19.5q24 0 41.5 -10.5t26.5 -24t15 -38.5t7.5 -42t3.5 -47.5t3 -42.5q13 -138 30 -266q1 -7 6.5 -15.5t15 -19t13.5 -16.5q-14 -23 -39 -23q-37 0 -63.5 28t-26.5 70q0 8 5 25t5 27q0 172 -37 317q-62 -54 -113.5 -133.5 t-51.5 -134.5q0 -27 -4.5 -83t-4.5 -83q0 -19 3.5 -54.5t3.5 -52.5q0 -80 -38.5 -139t-115.5 -59q-35 0 -68.5 10t-33.5 31q0 17 10.5 27t25.5 10q8 0 27 -6.5t29 -6.5q24 0 42 7.5t29 23.5t17.5 31.5t9.5 41.5t3.5 44t0.5 47q0 71 -8 213t-8 211v15v17v16t1 16.5t2.5 15 t4.5 13.5t7 9.5t9.5 7t12.5 2.5q21 0 28.5 -38t9.5 -75.5t11 -37.5zM1618 147q-7 -17 -32 -25.5t-65 -14.5t-57 -11q-60 -18 -79.5 -24.5t-66.5 -24t-71.5 -32.5t-59.5 -41t-65 -58q-9 -9 -56 -67.5t-81 -81.5q-116 -79 -305 -95q-11 0 -17.5 1.5t-12 8t-5.5 19.5 q0 15 14.5 22t48.5 12t42 7q94 23 156.5 61t115.5 119q109 188 545 258q2 0 6 1t6 1q30 0 39 -35zM969 1380q0 -23 -17 -41.5t-49 -31.5t-59.5 -21t-68.5 -17.5t-56 -13.5q-120 -30 -196 -61t-154 -92q-101 -66 -154 -191q-12 -26 -37 -26q-15 0 -26 7.5t-11 20.5q0 7 11 25 q8 12 25.5 40.5t28 44t26.5 38t32 40.5t33 34q60 52 134 92.5t159 69t156.5 46t164.5 35.5q8 1 18.5 3.5t16.5 4t12 2t8.5 -1.5t2.5 -6zM1550 532q0 179 -131 179q-34 0 -50.5 -55.5t-16.5 -108.5q0 -84 15 -160t52 -76q34 0 61 24.5t41.5 61t21.5 71.5t7 64zM664 725 q-31 0 -55 -13t-39.5 -30.5t-26.5 -49.5t-16 -55.5t-8 -63.5t-3 -59v-55v-16q0 -6 3 -18t3 -15q10 3 33 10t36 11.5t29.5 12t25.5 17t11 21.5q5 30 7.5 66.5t3.5 61t1.5 68t0.5 62.5q0 8 -3 25t-3 20zM1094 -264q-11 14 -11 28q0 24 17.5 50.5t50 53.5t55.5 43.5t58 39.5 q133 84 309 84q17 0 30 -8t13 -17q0 -13 -11 -21.5t-30 -12.5t-37.5 -6t-43 -3.5t-36.5 -3.5q-118 -15 -231 -125q-80 -76 -133 -102zM555 1413q0 -24 -20.5 -42.5t-44.5 -27t-61.5 -20t-53.5 -18.5q-165 -71 -215 -183q-12 -17 -26.5 -23.5t-24 2.5t-5.5 34q6 37 46 84 t106 92q87 59 262 104q33 7 36 2q1 -2 1 -4zM1548 -113h37q10 0 16.5 -1.5t14.5 -5.5t12 -5q-17 -28 -43 -41.5t-49.5 -15t-53.5 -8.5t-50 -23q-8 -6 -23 -18t-24.5 -20t-21 -16.5t-19.5 -12.5t-13 -3q-9 0 -18.5 9.5t-9.5 19.5q0 47 87.5 94t157.5 47z" />
<glyph unicode="&#xa2;" horiz-adv-x="856" d="M287 109q36 4 71.5 22t60.5 38t59.5 42t66.5 31q-28 -65 -110 -121t-169 -76q-7 -2 -12.5 -5.5t-10 -9t-8.5 -11t-7 -14t-5 -13.5t-4 -14.5t-2.5 -13t-2 -12t-1.5 -9.5q-27 8 -38 20.5t-9 24t1 26t-11 23.5q-33 29 -43.5 64.5t-10.5 86.5q0 118 82.5 258t198.5 228 q111 82 188 227q8 17 12 24.5t14 24t19 22.5t17 3q5 -2 2 -12q-4 -19 -19.5 -56.5t-15.5 -60.5q0 -11 2 -15q11 1 27 4t28 5t21 2q32 0 54 -38.5t22 -74.5q0 -30 -12.5 -58.5t-40 -57.5t-46.5 -46.5t-55 -46.5q-16 -8 -29 -8q-24 0 -24 35q2 42 26 76.5t58 70t49 64.5 q2 4 2 12q0 21 -39 21q-65 0 -90 -66q-104 -272 -266 -616zM195 106q163 347 213 482q-30 0 -79.5 -68t-66.5 -114q-9 -25 -32.5 -75.5t-38.5 -90t-15 -64.5q0 -30 19 -70z" />
<glyph unicode="&#xa3;" horiz-adv-x="1579" d="M729 575q58 0 89.5 -40t31.5 -101q0 -73 -50 -131.5t-118 -87.5t-133 -29q-48 0 -84 24.5t-55 64.5t-28 82t-9 85q0 46 29.5 141.5t29.5 147.5q0 7 -1 21.5t-1 21.5q0 21 12 21q17 0 27 -38.5t10 -72.5q0 -40 -22.5 -130.5t-22.5 -127.5q0 -53 34 -98t71 -45 q30 0 78 21.5t89.5 61t41.5 80.5q0 60 -48 60q-29 0 -84 -34t-100 -34q-43 0 -43 54q0 32 36.5 66.5t82.5 27.5q16 -4 29 -4q51 0 86.5 54.5t35.5 111.5q0 114 -159 114q-55 0 -113 -11.5t-115 -35.5t-98.5 -67.5t-52.5 -100.5q-10 -49 11.5 -89t47.5 -40q27 0 47 29 t32 57.5t19 28.5q12 0 20.5 -8.5t8.5 -16.5q0 -54 -56 -104.5t-108 -50.5q-56 0 -90.5 57t-34.5 145q0 75 43 137.5t109.5 99.5t140.5 57t144 20q123 0 195.5 -62.5t72.5 -156.5q0 -41 -18 -80.5t-60 -94.5zM1053 494q20 0 45 11.5t41 31.5q-25 51 -25 114q0 69 37.5 166.5 t73.5 97.5q69 0 69 -131q0 -44 -23.5 -130.5t-23.5 -88.5q0 -27 27 -121q126 23 160 97q22 52 -7 88q-23 30 -8 37q8 4 19 -4q39 -30 39 -97q0 -52 -48 -105t-114 -93q-24 -15 -37 -50.5t-26 -90.5t-29 -91q-25 -54 -76.5 -91t-112.5 -36q-129 0 -129 139q0 49 17 89t53 73 t69.5 55.5t88.5 54.5q17 10 26 15q0 15 -6 45q-3 -2 -18 -11.5t-17.5 -11.5t-15 -10t-16 -9.5t-14.5 -7t-16 -7t-14 -5t-16 -4.5t-15.5 -2t-17.5 -1q-52 0 -79 31t-27 75.5t13.5 90.5t37.5 79q12 15 12 27q0 8 -20.5 33.5t-20.5 41.5q0 40 24.5 69.5t49.5 29.5 q26 0 41.5 -30.5t15.5 -63.5q0 -37 -24.5 -109.5t-24.5 -110.5q0 -79 62 -79zM1182 287q-60 0 -124.5 -55t-64.5 -113q0 -34 18 -52t46 -18q57 0 94 61.5t37 120.5q0 29 -6 56zM1245 858q-24 -31 -24 -96q0 -55 16 -121q23 86 23 135q0 38 -15 82z" />
<glyph unicode="&#xa4;" horiz-adv-x="747" d="M258 123q0 -50 -40 -135.5t-40 -134.5q67 38 109.5 118t56 159.5t10.5 158.5q0 30 -26 30t-78.5 -33.5t-81.5 -33.5q-23 0 -38.5 29t-21.5 61.5t-6 60.5q0 61 38 144t101 147t124 64q33 0 54 -30t21 -71q0 -26 -27.5 -89.5t-47.5 -63.5q-14 0 -21.5 10t-7.5 21 q0 15 15.5 40.5t15.5 42.5q0 4 -5 29q-73 -12 -134.5 -112.5t-61.5 -204.5q0 -23 2 -33q113 117 184 117q19 0 32.5 -7t21.5 -19t13 -28t6.5 -34t2.5 -37.5t0 -38.5v-19q0 -48 -19 -119t-51.5 -141t-83 -119t-104.5 -49q-22 0 -36 28.5t-11 70.5q2 35 51.5 119.5t61.5 119.5 q7 19 15 9q7 -9 7 -27zM582 487q-12 -12 -29.5 -23t-28 -17t-10.5 -9q12 -135 12 -159q0 -9 -6 -17t-20 -8q-10 0 -17 8t-11 22.5t-6.5 30t-3 34.5t-0.5 32t0.5 26.5t0.5 14.5q-3 0 -9.5 -1t-9.5 -1q-12 0 -38 26q-14 15 0 26t34.5 17t20.5 9q0 55 14.5 100t38.5 45 q6 0 6 -55q0 -24 -4 -86l62 14q4 1 8.5 -2.5t4 -11t-8.5 -15.5zM645 340q0 -20 -10 -32.5t-25 -12.5q-23 1 -40 16.5t-17 34.5q1 20 13.5 31.5t31.5 11.5t33 -15t14 -34z" />
<glyph unicode="&#xa5;" horiz-adv-x="1665" d="M1456 133q3 -8 8 -20t7.5 -19.5t5 -19t2.5 -23.5q0 -17 -6 -32.5t-14.5 -28t-24.5 -25t-29 -21.5t-36.5 -19t-37.5 -15.5t-41 -14t-39.5 -12t-39.5 -11t-35 -9.5q-54 -15 -166.5 -45t-198 -55.5t-162.5 -53.5q-17 -6 -51 -14t-51 -14q-65 -25 -98.5 -52.5t-65.5 -81.5 q-23 0 -31 11t-8 32q2 36 24 65t63 50t72 32.5t80 25t58 16.5q-5 10 -19 35t-20 40.5t-6 32.5q0 35 31.5 65t82.5 49t99.5 31t97.5 19q21 3 65 8.5t75.5 9.5t77.5 11.5t80 15.5t73.5 19t66.5 25t51 31t36 39t12 48q0 15 -11.5 39.5t-11.5 32.5q0 7 7.5 15.5t23.5 8.5 q33 0 49.5 -25t16.5 -67q0 -17 -2.5 -31t-11 -29.5t-12.5 -21.5t-18.5 -24.5t-17.5 -22.5zM1098 461v-19q-7 -84 -21 -118q-6 -14 -14 -27q-32 -49 -80.5 -74.5t-103.5 -25.5q-73 0 -120.5 40.5t-47.5 104.5q0 239 250 281h10q50 0 88.5 -53.5t38.5 -108.5zM1358 1114 q7 -7 12.5 -16t9.5 -16t6.5 -19.5t3.5 -18t2 -20.5t1 -17.5v-18.5v-17q0 -20 -22 -35t-61.5 -25t-78.5 -17t-88.5 -14.5t-75.5 -13.5q-120 -26 -125 -92q0 -31 -35 -31q-30 0 -30 48q0 15 3 26.5t13 22.5t16 16t26 19t28 20q-9 56 -9 66q0 46 50 69q23 11 75.5 36.5 t82.5 39.5t75 32t84 29q28 7 44 19.5t19 40.5q0 7 5.5 11.5t11.5 4.5q19 0 36 -22.5t17 -36.5q0 -20 -23 -35t-73 -35zM1550 594q-10 -31 -40.5 -50.5t-65.5 -19.5q-36 0 -59 19t-23 53q0 25 14.5 47.5t38.5 22.5q17 0 22 -11.5t9 -45.5q1 -8 2 -13q33 33 33 82q0 67 -58 67 q-41 0 -73 -26.5t-48.5 -68t-28.5 -91.5t-14 -98t-4.5 -87t0.5 -59v-10q0 -59 -32 -59q-17 0 -27.5 15t-14.5 43.5t-5.5 54.5t-2.5 62.5t-2 53.5q-5 59 -33 125t-63 84q-10 4 -17 15t-7 20q0 20 47 20q15 0 30 -5.5t30.5 -18t25 -21.5t27.5 -28t24 -25q53 90 96 129t117 39 q51 0 83 -50t32 -100q0 -28 -13 -65zM483 373q11 5 41.5 18t46.5 19.5t36 13t30 6.5q13 0 22 -9.5t9 -21.5q0 -26 -26.5 -42t-58.5 -23t-58.5 -26.5t-26.5 -51.5q0 -153 -4 -192q-17 -171 -123 -196q-20 -5 -43 -5q-63 0 -105.5 37.5t-42.5 113.5q0 78 66 78q18 0 18 -16 q0 -10 -9 -32.5t-9 -31.5q0 -25 20.5 -49t52.5 -24q35 0 59 22t33.5 58t13 64.5t3.5 59.5q0 27 -9 80t-9 80q0 12 -0.5 37.5t-0.5 42.5t0.5 42.5t2 43.5t4 40t7 36t10.5 27t15.5 19.5t20.5 6.5q35 -6 35 -51q-4 -12 -11.5 -31.5t-10.5 -32.5t-3 -30q0 -12 2 -39t2 -41z M322 272q-22 -51 -91 -51q-63 0 -96 54t-33 112q0 54 17 98t51 77.5t72 59t94 48.5t101.5 39t110 37.5t105.5 37.5q34 12 37 43q0 5 -4 22t-4 25q0 25 31 25q29 0 48 -17.5t19 -45.5q0 -49 -33 -86.5t-71.5 -54.5t-81.5 -25q-40 -8 -108.5 -32t-92.5 -30 q-106 -32 -162.5 -86t-56.5 -137q0 -78 78 -92q6 -1 18 -1.5t19 -1.5t16.5 -5.5t16.5 -12.5zM694 -170q26 -16 51 -16q16 0 45.5 12t34.5 14q39 10 207 53t258 68q34 10 72.5 39t38.5 49q0 14 -17 45q-83 -41 -231 -71q-18 -3 -61 -12t-74 -14t-62 -7q-106 -6 -186 -38 t-80 -79q0 -11 4 -43zM977 543h-10q-7 -1 -32 -2t-36 -3t-28.5 -9t-30.5 -19q-26 -26 -46 -69.5t-20 -73.5q0 -45 28.5 -73t69.5 -28q42 0 82.5 22.5t57.5 57.5q9 19 14.5 56t5.5 53q0 28 -16.5 58t-38.5 30zM1321 1018q-2 28 -16 46.5t-37 18.5q-31 0 -131 -50.5 t-107 -63.5q-4 -12 -4 -21q0 -10 8 -16t19 -6h4q93 17 233 49q31 6 31 43z" />
<glyph unicode="&#xa6;" horiz-adv-x="1845" d="M756 555q14 31 22.5 42t18.5 11q8 0 26 -12q0 -15 -1 -42t-1 -40q0 -26 11.5 -77t11.5 -77q0 -22 -43 -40t-111 -40t-104 -44q-23 -13 -35 -13q-16 0 -26.5 19.5t-10.5 52.5q0 6 4 22q47 158 47 455q0 104 -33 156q-10 17 -10 24q0 17 62.5 45t130.5 55t76 38q3 6 18 6 q14 0 22.5 -10t8.5 -27q0 -32 -7 -96t-8 -78q0 -3 1 -8t1 -7q0 -39 -32 -39q-11 0 -25 27t-29 61.5t-26 45.5q-40 -12 -62 -106.5t-24 -186.5q0 -3 8 -15q20 7 29.5 29t11.5 44t11.5 40t29.5 18q11 0 19 -12t12 -32t6.5 -43t2.5 -48.5t-0.5 -45t-1.5 -35.5t-1 -17zM629 559 q-11 -68 -11 -102q0 -68 37 -113q93 36 93 145q0 4 -52.5 34.5t-66.5 35.5zM1149 741q-19 -8 -47 -19.5t-36.5 -15.5t-20.5 -13t-14.5 -18.5t-2.5 -25.5q0 -31 12.5 -87t32.5 -89q6 -12 6 -24q0 -29 -21.5 -45t-55 -33t-50.5 -39q-18 -23 -34 -23q-17 0 -27 17.5t-10 40.5 q0 30 23 94t26 90q37 261 37 391q0 104 -25 139q-12 18 -12 29q0 17 79 49.5t95 32.5q14 0 31 -10q-17 -34 -17 -58q0 -38 10.5 -85t22.5 -80t32.5 -86t28.5 -76q46 -136 119 -203q29 -26 29 -45t-72.5 -67t-95.5 -48q-17 0 -27 16.5t-10 32.5q0 21 6 62t6 61q0 64 -18 135z M1139 813q-42 180 -99 291q-14 -24 -14 -29q-4 -88 -8 -264q0 -6 18 -51q102 52 103 53zM1421 1231q-16 -31 -16 -64q0 -110 44.5 -254t106.5 -198q31 -27 31 -53q0 -28 -59.5 -71.5t-102.5 -43.5q-3 0 -13 -0.5t-13.5 0t-10.5 2t-10 5t-5.5 11t-2.5 17.5q0 22 6 65t6 64 q0 152 -24 366q-1 6 -2.5 24.5t-3 28t-6 25t-11.5 27.5q-55 -50 -55 -127q0 -8 3 -24t3 -23q0 -15 -17.5 -28t-25.5 -13q-12 0 -20.5 15t-8.5 28q0 9 3.5 26.5t3.5 26.5q0 25 -20.5 66.5t-20.5 50.5q0 22 157.5 113t184.5 91q17 0 28 -12.5t11 -34.5q0 -17 -8.5 -52 t-8.5 -52q0 -16 3 -50.5t3 -52.5q0 -59 -32 -59q-16 0 -34 36t-35 76.5t-28 47.5zM272 510q31 13 45 48.5t21.5 63t23.5 27.5q39 0 29 -192v-2q0 -11 4 -33t4 -33q0 -14 -8 -27.5t-22 -13.5q-16 0 -26 10.5t-14 23t-14.5 24t-27.5 12.5q-4 -32 -4 -51q0 -67 28 -134 q8 -16 8 -32q0 -17 -28.5 -27t-69 -23.5t-59.5 -35.5q-15 -15 -29 -15t-22.5 11t-8.5 22q0 15 19 43q82 118 82 352q0 11 1 45.5t0.5 53.5t-3.5 47t-12.5 49t-24.5 37q-17 17 -17 31q0 17 65 52.5t138 66.5l72 32q13 10 22 10q12 0 27.5 -17.5t15.5 -29.5q-1 -10 -2.5 -36.5 t-3 -42.5t-4 -40.5t-5.5 -39.5t-7 -30t-10 -22.5t-13 -7.5q-13 0 -24.5 20t-19 44.5t-22.5 44.5t-36 20q-19 0 -34.5 -20.5t-23.5 -50.5t-12 -59.5t-4 -53.5q0 -23 3 -68t3 -53zM1690 809q53 0 53 -61q0 -25 -22 -45.5t-44 -20.5q-20 0 -37.5 16t-17.5 35q1 41 17.5 58.5 t50.5 17.5z" />
<glyph unicode="&#xa7;" horiz-adv-x="1753" d="M817 897q-4 0 -6.5 4.5t-3 13.5t-1 16t0 18t0.5 14q0 50 18.5 73t75.5 23q72 0 121 -38.5t49 -113.5q0 -202 -344 -272q-30 -7 -43.5 -55.5t-13.5 -100.5q0 -33 11 -74t28 -91t24 -78q31 -132 31 -207q0 -67 -19 -134.5t-54.5 -125t-93.5 -93.5t-128 -36q-75 0 -134 70 t-59 147q0 42 42 97.5t94.5 93.5t83.5 38q13 0 21.5 -8t8.5 -19q0 -9 -20 -24q-40 -35 -77.5 -98t-37.5 -103q0 -34 26 -61t58 -27q39 0 70 23.5t50 58.5t31.5 80t17.5 85.5t5 76.5q0 62 -30.5 175t-30.5 167q0 67 23 140.5t24 78.5q-50 1 -139.5 31t-135.5 30 q-35 0 -66.5 -7.5t-57 -31t-25.5 -59.5q0 -32 19 -59t51 -27q19 0 54 18.5t54 18.5q12 0 12 -37q0 -30 -42 -48t-85 -18q-66 0 -119 59.5t-53 129.5q0 81 46.5 143t110.5 90.5t130 28.5q44 0 97 -16t132.5 -49.5t102.5 -41.5q28 -12 45 -12q88 0 169 49t81 101 q0 35 -23.5 55t-58.5 20q-34 0 -59 -25.5t-38.5 -51t-19.5 -25.5zM909 -117q-11 28 -12 91t2 102t-6 55q-23 11 -23 29q0 15 15 30q19 28 29.5 76.5t19 135.5t10.5 104q7 56 50.5 131.5t62.5 75.5q26 0 26 -58q0 -63 -13 -129.5t-36.5 -150t-32.5 -123.5q15 9 41.5 26.5 t44 29t38.5 24t35.5 18.5t23.5 6q22 0 40.5 -18t18.5 -41q0 -15 -2 -23q-33 -160 -33 -213q0 -8 5.5 -23t7.5 -24l90 62q-2 20 -9.5 54t-7.5 52q0 46 26.5 103t73 100t93.5 43q26 0 40.5 -17t14.5 -46q0 -53 -30.5 -132t-73.5 -127q18 -29 42 -36t47.5 4t47.5 35 q14 14 57 73q18 24 19 8v-14q0 -68 -72 -145.5t-133 -77.5q-43 0 -103 72q-8 -6 -40.5 -32.5t-53 -38t-39.5 -11.5q-31 0 -48 23t-17 61q0 51 22 132t27 111l-8 6q-79 -45 -141 -141.5t-62 -177.5q0 -61 -74 -74zM1425 162q31 37 53.5 93.5t22.5 94.5q0 35 -14 35 q-32 0 -54 -41t-22 -90q0 -43 14 -92z" />
<glyph unicode="&#xa8;" horiz-adv-x="1374" d="M238 86l8 -6q-3 -5 -14.5 -24t-17.5 -28.5t-16 -28.5t-15 -31.5t-9 -28t-4 -27.5q0 -23 25 -39q32 18 57.5 46.5t44 69.5t29.5 72t27 84.5t24 77.5q-11 3 -38.5 11t-37 11.5t-29.5 11t-27.5 14t-18 16t-14 21t-3.5 26.5q0 25 20.5 58.5t44.5 33.5q13 0 16.5 -17.5 t2.5 -39t12 -39t41 -17.5l31 4q28 76 43.5 169.5t27.5 202.5t25 173v15q-66 -13 -119 -60.5t-53 -103.5q0 -54 55 -95q-12 -18 -26 -18q-28 0 -59 57.5t-31 104.5q0 83 79.5 163t155.5 91q26 3 51 76q16 46 22 45q3 0 5 -4q5 -11 6 -24t-0.5 -30.5t-1.5 -23.5q0 -39 31 -41 q49 -8 87.5 -80t61.5 -183t37.5 -213t25.5 -209t15 -132q6 -40 26.5 -76.5t39.5 -36.5q18 0 29.5 58t11.5 110q0 79 -33 180l-47 -20q-22 0 -30 20.5t-1 42.5q4 13 47 39q2 1 3.5 3t2.5 5l2 6t1.5 8.5t0.5 10v11.5v12v13.5v14.5q0 16 -8 66t-8 65q0 134 51 197q15 19 34 39 t45 45.5t40 40.5q10 -36 10 -82q0 -42 -11 -118t-11 -112q0 -6 -0.5 -23t-0.5 -30t0.5 -28t2 -23t4.5 -8q62 0 182 47q64 25 72 17q2 -3 2 -7v-12q0 -37 -79 -87t-151 -69q-28 -8 -35.5 -15t-7.5 -30v-10v-52t1.5 -54t4 -57t7 -52.5t12.5 -49t18.5 -36.5t25.5 -26.5t34 -8.5 q36 0 60 31t33 68.5t20.5 68.5t25.5 31q7 0 15 -9.5t8 -13.5q0 -79 -45.5 -149t-110.5 -70q-45 0 -83.5 22.5t-59.5 63.5q-4 -50 -32.5 -88.5t-51.5 -38.5q-26 0 -48 18t-35 43t-24.5 63t-16.5 65.5t-10.5 64t-7.5 45.5q0 2 -14 43q-26 -18 -84 -51.5t-94 -58.5t-39 -42 q-35 -138 -119.5 -265t-187.5 -169q-20 -8 -31 -8q-32 0 -50 24.5t-18 63.5q0 62 41 127t95 82zM553 887q4 -144 4 -193q0 -119 -29 -364q45 16 108 56.5t81 49.5q-5 26 -14.5 92t-18.5 97q-2 6 -10.5 32t-11 33.5t-10.5 30t-12 31.5t-12.5 27.5t-15.5 29.5t-16.5 26 t-20 27.5t-22.5 24.5z" />
<glyph unicode="&#xa9;" horiz-adv-x="1458" d="M336 610q8 -12 8 -18q0 -18 -42 -45t-71 -27q-37 0 -64 19.5t-40 50.5t-19 61.5t-6 61.5q0 64 28.5 129.5t83.5 112t120 46.5q53 0 161.5 -47t143.5 -47q39 0 60 1t55 8t52 20.5t32 41t14 66.5q0 23 -8.5 36.5t-20.5 13.5q-31 0 -49 -25q-8 -11 1 -42.5t7 -45.5 q-38 0 -72 24.5t-26 63.5q9 49 47.5 72.5t73.5 23.5q36 0 61 -15t36 -40.5t15.5 -48t4.5 -47.5q-4 -102 -78.5 -154.5t-186.5 -52.5q-25 0 -75 5.5t-58 6.5q-24 -43 -24 -76q0 -31 12.5 -108.5t13.5 -85.5q74 -12 92 -12q5 0 8.5 1t6.5 1.5t6 4t5 5.5t5.5 8.5t5.5 10.5 t7 13.5t8 16.5q49 -3 49 -59q0 -42 -37 -62t-86 -20h-29q-17 0 -21.5 -6.5t-6.5 -30.5q-1 -14 -5 -72t-7.5 -96t-12.5 -102.5t-20 -109t-30.5 -97t-43.5 -84.5t-60 -54t-79 -22q-34 0 -55 35t-21 73q0 91 22.5 165.5t79.5 144.5q8 8 15 8q15 0 40 -25q-83 -105 -83 -250 q0 -6 7 -17t13 -11q38 0 68.5 98t45 213.5t15.5 208.5q0 6 -4 18q-33 -9 -44 -21.5t-11 -41.5q0 -19 2 -29q-20 -4 -25 -4q-29 0 -29 45q0 30 16 57.5t34.5 43.5t34.5 37.5t16 41.5q0 49 -8 141t-9 122q-28 14 -63 14q-70 0 -120 -56t-50 -128q0 -107 59 -107q13 0 30.5 8 t43.5 23t35 20zM1047 586l32 35q-7 8 -23 24.5t-24 25.5t-18 23.5t-14.5 28.5t-4.5 29q0 37 16 59.5t44 22.5q39 0 66 -38.5t38 -88.5q11 3 30.5 9t34 9.5t27.5 3.5q20 0 31.5 -15t11.5 -32q0 -24 -27.5 -82t-27.5 -82q0 -30 39 -59q39 20 39 53q0 2 -1 6.5t-1 7.5 q0 5 12 33q29 -26 29 -63q0 -47 -36 -82t-83 -35q-33 0 -54.5 32.5t-21.5 92.5q0 19 6 38t17 45t16 42h-14q-24 0 -33 -7t-19 -27t-26 -36q-26 -18 -44 -50.5t-29.5 -63.5t-26.5 -60.5t-43.5 -47.5t-71.5 -18q-67 0 -110.5 49.5t-43.5 141.5q0 76 41 125t113 49q40 0 87 -26 t67 -72zM997 502q-13 7 -34.5 17t-30.5 15t-17 17.5t-8 30.5v10q0 45 -18 45q-35 0 -55.5 -37.5t-20.5 -75.5q0 -40 26 -80.5t64 -40.5q21 0 38.5 14.5t26.5 30t24 44.5q3 7 5 10zM1102 717q0 2 1 6t1 6q0 19 -19 35q-6 -12 -6 -21q0 -16 23 -26z" />
<glyph unicode="&#xaa;" horiz-adv-x="2177" d="M469 301q-41 6 -61 6q-24 0 -36 -10t-24 -39l53 -39q-27 -18 -55 -18q-32 0 -61 25t-29 50q0 55 45.5 96.5t93.5 41.5q16 0 50.5 -6t50.5 -7q37 149 122 469q-33 17 -67 17q-38 0 -80.5 -37.5t-42.5 -87.5q0 -12 45 -57q-17 -11 -39 -11q-32 0 -48.5 28t-16.5 73 q0 98 79.5 171.5t172.5 73.5q47 0 86 -18.5t66.5 -48t49.5 -74t36 -87.5t24.5 -99t15.5 -98.5t10 -94.5q3 -41 39 -377q0 -30 18.5 -50.5t37.5 -20.5q24 0 41.5 13.5t27.5 39.5t17 51.5t8.5 63t2.5 60t0 56.5t-1 39q0 22 -15.5 57.5t-15.5 55.5q0 41 23 41q63 0 63 -119 q8 10 27.5 34.5t33 40.5t32 35t34.5 28.5t29 9.5q36 0 57 -34t25.5 -82.5t5.5 -97t3.5 -82.5t12.5 -34q55 0 93 40.5t38 78.5q0 13 -3 37t-3 36q0 69 57.5 141t118.5 72q27 0 58 -16l-54 164q-21 -4 -51 -11.5t-51 -11.5t-43 -4q-107 0 -289 64q-21 8 -47 8q-42 0 -85.5 -20 t-43.5 -54q2 -13 11 -22t22 -9q45 5 112 31q-6 -38 -33.5 -58t-64.5 -20q-40 0 -83.5 37t-43.5 68q0 33 24 56t58.5 32.5t59.5 13.5t40 4q50 0 172 -30.5t175 -30.5q75 0 141 35q-1 12 -4.5 33t-5.5 37.5t-2 31.5q0 63 44.5 118.5t116.5 55.5q35 0 51.5 -37t16.5 -76 q0 -72 -82 -151q-37 -37 -37 -64q0 -20 12 -47q50 -119 56 -241q0 -13 -2 -34.5t-2 -29.5q0 -33 21 -79t40 -46q42 0 75.5 35.5t33.5 97.5q0 20 -3 31t-13 27.5t-15 27.5q4 6 22 6q26 0 39 -42.5t13 -77.5q0 -59 -46.5 -109.5t-123.5 -50.5q-7 0 -14.5 4t-13.5 9t-14 15 t-11.5 15t-12 17.5t-10.5 15.5q-10 -11 -35.5 -40t-42 -47.5t-38 -40.5t-37.5 -33t-27 -11q-10 0 -22 7.5t-20 15t-20.5 21.5t-17.5 19q-14 -10 -47.5 -35t-55 -40t-47 -28.5t-39.5 -13.5q-20 0 -34.5 20.5t-22 59t-11.5 72t-8 83t-6 69.5q-16 4 -20 4q-37 0 -74.5 -78.5 t-50.5 -147.5q-44 -233 -164 -233q-88 0 -106 158l-25 221q-113 -54 -260 -80q-3 -8 -16 -41.5t-16.5 -42t-15 -36.5t-16.5 -39.5t-16 -34.5t-19 -37.5t-19 -33.5t-23 -36q-42 -63 -123.5 -130t-120.5 -67q-47 0 -79 43t-32 92q0 42 31 98t65.5 93t47.5 37q11 0 22 -8.5 t11 -18.5q0 -9 -21 -35t-42 -59.5t-21 -59.5q0 -49 26 -49q46 0 87.5 37t72 98.5t51.5 118.5t37 119zM692 831q-5 -29 -13.5 -74.5t-15 -82t-10.5 -70.5q-1 -12 -13.5 -84t-12.5 -112q0 -8 1 -15t4 -11.5t5 -8t7 -5.5t7.5 -3.5t9.5 -2t9 -0.5h10.5h9.5q83 0 160 80 q-8 65 -16.5 107.5t-25 97t-45.5 100t-71 84.5zM1669 291q115 98 115 252q0 19 -19 38t-34 19q-28 0 -48.5 -17t-31.5 -44t-16 -53.5t-5 -51.5q0 -104 39 -143zM1839 1063q-63 -25 -63 -92q0 -19 6 -37q71 48 71 86q0 21 -14 43z" />
<glyph unicode="&#xab;" horiz-adv-x="1052" d="M700 416q0 37 1 97.5t1 86.5q0 19 -3 55.5t-3 53.5q0 73 113 73q139 0 139 -303v-32q0 -49 -0.5 -76t-3 -75.5t-10 -79.5t-19.5 -67t-32.5 -60.5t-48.5 -39.5q-90 -49 -123 -47q-43 0 -43 39q0 4 4 20q18 73 21.5 201.5t6.5 153.5zM811 702q-16 -27 -25 -67t-10.5 -69.5 t-2 -83t-1.5 -72.5q-1 -21 -7.5 -122.5t-6.5 -156.5q0 -4 2.5 -14t3.5 -15q115 58 115 390q0 2 0.5 30t0 35.5t-2.5 31.5t-6.5 35t-12 28.5t-19.5 29t-28 20.5zM207 80q22 0 30.5 74.5t8.5 148.5q0 24 -11.5 34.5t-41.5 18.5q-44 11 -62.5 35.5t-19.5 77.5q0 19 3.5 42 t7.5 38.5t12 43t11 38.5q6 25 11.5 40t16.5 37t28.5 33t40.5 11q25 0 42 -12t25.5 -28t12.5 -43.5t4 -45t-1 -46.5t-1 -36q0 -15 -14.5 -32.5t-28.5 -19.5q-18 0 -28.5 16t-10.5 40q0 10 1 51t1 51q0 1 -11 8q-12 0 -25 -52t-13 -83q0 -26 11.5 -51t37.5 -33 q47 -14 65.5 -38t18.5 -74q0 -60 -7 -116.5t-22 -112.5t-46 -90t-73 -34q-24 0 -40 10t-23.5 23.5t-11 37t-3 41t2 45t1.5 40.5q0 7 -1.5 26t-1 30.5t3 26t12.5 21.5t26 7q15 0 30 -7t15 -18q0 -19 -6 -59.5t-6 -59.5q0 -55 29 -55zM516 780h19h23h23.5t25 -1.5t23 -4 t21 -6.5t16 -9t11.5 -12.5t4 -17.5q0 -11 -10.5 -21t-24.5 -10q-3 0 -8 1t-8 1q-24 -3 -43 -15t-30.5 -28.5t-20 -42t-12 -47.5t-5.5 -53.5t-1.5 -51t1 -49.5t0.5 -40q0 -55 2 -163.5t2 -162.5q0 -45 -51 -45q-19 1 -31 14.5t-12 32.5q0 93 11.5 284.5t11.5 284.5 q0 30 -11 44t-27.5 15.5t-32.5 2t-27 9.5t-11 32q0 59 172 59z" />
</font>
</defs>
</svg>
