<?xml version="1.0" standalone="no"?>
<!DOCTYPE svg PUBLIC "-//W3C//DTD SVG 1.1//EN" "http://www.w3.org/Graphics/SVG/1.1/DTD/svg11.dtd" >
<svg xmlns="http://www.w3.org/2000/svg">
<metadata></metadata>
<defs>
<font id="hms_gilbert_ornamentsregular" horiz-adv-x="935" >
<font-face units-per-em="2048" ascent="1536" descent="-512" />
<missing-glyph horiz-adv-x="329" />
<glyph horiz-adv-x="0" />
<glyph horiz-adv-x="682" />
<glyph unicode=" "  horiz-adv-x="329" />
<glyph unicode="&#x09;" horiz-adv-x="329" />
<glyph unicode="&#xa0;" horiz-adv-x="329" />
<glyph unicode="!" horiz-adv-x="1525" d="M285 682q-5 -11 -21 -16.5t-33.5 -10t-34.5 -12t-28.5 -28.5t-11.5 -54q0 -37 37 -66t84.5 -42t91.5 -13q68 0 137.5 32t111.5 91l-22 33t-22 34.5t-12.5 28.5t-6.5 35q0 43 19.5 80t58.5 37q21 0 36 -10.5t24 -33.5t13.5 -41t10 -51t8.5 -46q15 -6 33 -6q22 0 57.5 7.5 t65.5 16t77 23t70 20.5q6 0 18.5 -1t18.5 -1q41 0 124 19.5t132 19.5t75.5 -41.5t26.5 -97.5q0 -54 -21 -86.5t-63 -32.5q-26 0 -56 11.5t-30 25.5q0 12 17 20t37.5 13t37.5 19.5t17 37.5q0 17 -14 30t-34 19t-37 9t-30 3q-27 0 -85 -11.5t-77 -14.5q-93 -12 -182 -47 q-27 -10 -83 -20t-98.5 -19t-51.5 -21q-50 -68 -139.5 -109.5t-168.5 -41.5q-58 0 -116.5 18.5t-101 58t-42.5 89.5q0 51 36 95.5t98 72.5q6 2 14 2q20 0 35 -27zM637 664q2 2 8 2q-3 7 -8 28q-4 0 -6 -2q2 -8 6 -28z" />
<glyph unicode="&#x22;" horiz-adv-x="1748" d="M1364 307q15 -4 45.5 -15t52.5 -16.5t39 -5.5q35 0 52.5 25.5t17.5 62.5t-19.5 61.5t-50.5 24.5q-91 0 -199 -27.5t-212.5 -55t-186.5 -27.5q-13 0 -48 1t-54 1q-75 0 -124.5 -9.5t-70.5 -39.5q-142 -90 -291 -90q-33 0 -62.5 5t-57.5 16.5t-48 29t-32.5 45.5t-12.5 63 q0 63 52.5 108.5t83.5 45.5q29 0 81 -28.5t52 -59.5q0 -16 -10.5 -27.5t-28.5 -11.5q-19 0 -45.5 26.5t-48.5 26.5t-40 -23t-18 -55q0 -33 24.5 -54.5t55.5 -29.5t66 -8q155 0 282 109q-6 8 -20.5 26.5t-21 27.5t-15.5 24.5t-12.5 30t-3.5 30.5q0 34 30.5 63t67.5 29 q50 0 86.5 -36.5t36.5 -84.5q0 -10 -3 -19.5t-6 -15.5t-12.5 -22t-15.5 -27q15 0 39.5 -1t36.5 -1q134 4 206 17q47 8 221.5 56t274.5 48q66 -5 108 -50t42 -120q0 -54 -44.5 -101.5t-103.5 -47.5q-46 0 -90.5 29t-44.5 77zM655 436q19 40 19 53t-12 23t-23 10 q-16 0 -27 -20q1 -2 4 -12t4 -13.5t4.5 -11.5t7.5 -12t10 -9t13 -8z" />
<glyph unicode="#" horiz-adv-x="1867" d="M223 86q0 -66 -28 -66q-8 0 -17 5t-20.5 16.5t-19 19.5t-20.5 24t-16 19q5 14 30.5 25t71.5 17t89.5 10t110 5t106 1.5t104.5 0t80 -0.5q79 0 237.5 4t237.5 4q85 0 255 -8t253 -8q6 0 18.5 3t18.5 3q21 0 36 -12.5t15 -26.5q-3 -27 -41 -27q-130 0 -388 16.5t-388 16.5 q-86 0 -259 -13.5t-259 -13.5q-84 0 -207 -14z" />
<glyph unicode="$" horiz-adv-x="944" d="M397 522q-1 9 -2.5 32t-3 29.5t-6 20t-13.5 21.5t-24 16q-188 93 -188 317q0 109 58.5 178.5t164.5 112.5q1 11 2.5 29t2 24.5t3.5 18.5t6.5 15.5t11.5 10.5t18.5 8.5t27 4.5t37 3.5t49.5 0.5q53 0 67.5 -17t14.5 -71v-45q79 -15 148 -89t69 -145q0 -9 -4.5 -30.5 t-4.5 -34.5v-29q-2 -37 -22 -53.5t-48.5 -17.5t-57 -0.5t-50.5 -8.5t-26 -35q95 -95 144.5 -175t49.5 -183q0 -89 -66.5 -172t-156.5 -115q-1 -11 -3.5 -33t-3.5 -30.5t-5 -24.5t-9 -22.5t-14 -16t-22 -13t-31.5 -6.5t-42.5 -3q-45 0 -71.5 18.5t-26.5 46.5v21 q0 36 -15.5 55t-38 26t-58 30t-64.5 61q-45 45 -67 111.5t-22 134.5q0 50 43 76t107 26q41 0 72 -17t71 -61zM483 1155q0 9 -1 27.5t-1 27.5v10v11.5t1 10t2.5 10t4.5 7t8 6t11 1.5q28 -3 31 -33q0 -6 -1 -18t-1 -17q3 -37 11 -47q6 -7 17 -12q72 -16 127.5 -61t55.5 -113 q0 -43 -29 -43q-14 0 -28 22.5t-27 50t-42 51.5t-69 27q-4 -16 -4 -20q1 -31 2.5 -84t2.5 -97t1 -84q0 -10 -2 -31t-2 -30q0 -23 17.5 -49.5t42.5 -52.5t50 -53.5t42.5 -63t17.5 -72.5q0 -72 -37.5 -110.5t-128.5 -61.5q-26 -7 -32.5 -21t-6.5 -50q56 14 94.5 30t74.5 44.5 t53.5 73t17.5 105.5q0 28 -8 56t-16 47t-31.5 50.5t-33.5 43.5t-44 50t-43 48q-17 20 -17 43q0 19 3.5 52t4.5 43v45v10v13t0.5 13.5t2.5 15t4.5 11.5t7 9t10.5 3q8 0 16.5 -6t18 -19.5t15.5 -23t16.5 -29.5t13.5 -26h92q-1 32 -1.5 38.5t-2.5 37t-4.5 40t-8.5 35 t-13.5 36.5t-20 30t-28 29t-36.5 20.5t-47 16.5q-51 12 -51 59v18q0 8 -2.5 26.5t-3.5 25.5q-42 -7 -98 -17q0 -7 -1 -20t-1 -19q0 -3 1 -9t1 -9q0 -7 -1 -12t-1.5 -8.5t-4.5 -6.5t-5.5 -5t-8 -4.5t-9 -3t-12.5 -3.5t-14 -4q-83 -27 -127.5 -87.5t-44.5 -172.5 q0 -146 180 -248q32 -20 41.5 -42.5t16.5 -76.5q16 43 16 70t-18 53t-44.5 48.5t-53.5 46t-48.5 54.5t-25.5 64q-2 16 -2 51q0 57 8.5 91.5t34 57.5t59.5 35t96 25zM455 256q-102 22 -137 41q-64 35 -64 106q0 11 7.5 20t21.5 9q10 0 20 -15t10 -26q38 -65 117 -65 q19 0 29 2v116v-10q0 -39 -43 -39q-19 0 -36.5 22t-28.5 48t-32.5 48t-48.5 22q-33 0 -66.5 -11.5t-33.5 -34.5q0 -102 55 -169.5t162 -120.5q22 -9 31 -33.5t8.5 -48t8.5 -42t32 -18.5q14 0 21.5 0.5t17.5 2.5t15 7t5 13q0 2 -4 22q-14 1 -23.5 4t-16.5 6t-11.5 11.5 t-7 14.5t-4 21t-2 25t-1 33t-1.5 39zM487 756q2 1 6.5 3t6.5 3q-2 53 -5.5 159.5t-5.5 159.5q-4 0 -11.5 1t-10.5 1q-125 0 -125 -133q0 -30 16 -60t30.5 -45.5t51.5 -47.5t47 -41zM528 324q61 11 96 35t35 75q0 86 -120 180q0 -22 0.5 -32.5t4.5 -17.5t7 -8t14 -4.5 t19 -6.5q51 -22 51 -76q0 -37 -24 -62.5t-48 -25.5q-20 0 -45 14q2 -13 5.5 -37t4.5 -34zM524 442q13 23 13 29t-13 25v-54zM475 971q0 -111 -35 -111q-24 0 -40.5 27t-16.5 55q0 32 18.5 60t47.5 28q9 0 17.5 -15t8.5 -26v-18z" />
<glyph unicode="%" horiz-adv-x="1437" d="M340 467q25 13 43 38t27 46.5t28 39.5t47 21q39 0 39 -26q0 -30 -52.5 -88t-80.5 -82q322 -256 570 -256q201 0 288 121q15 21 15 45q0 12 -4.5 30t-4.5 21q0 10 7 15.5t32 19.5q41 -35 41 -70q0 -48 -26.5 -89.5t-66.5 -69t-88 -47.5t-90.5 -29t-74.5 -9 q-328 0 -633 256q-21 15 -41 15q-16 0 -46 -10.5t-44 -10.5q-51 0 -87 26.5t-36 61.5q0 47 34 80t69 33q30 0 59 -19t67 -54zM188 455q6 -35 35 -35q16 0 37 6q-22 35 -39 35q-12 0 -33 -6z" />
<glyph unicode="&#x26;" horiz-adv-x="1689" d="M1165 180q0 -78 10.5 -100t67.5 -60q-9 -43 -37 -43q-18 0 -44.5 10t-58.5 25.5t-46 20.5q-55 20 -82 108q-136 -4 -205 -4q-56 0 -119 5.5t-138 14t-118 11.5q-85 7 -153 59t-103 126.5t-35 152.5q2 56 62.5 113t134.5 93.5t150 59.5q31 9 117 36.5t129 39.5t113.5 24.5 t133.5 12.5q61 0 113.5 -2t121 -10t122.5 -21.5t109.5 -38.5t92.5 -58t60.5 -82.5t23.5 -111.5q0 -81 -34.5 -144.5t-109 -109.5t-117 -65t-129.5 -50q-22 -8 -32 -12zM766 197q151 7 248 22q9 2 17 -24.5t14.5 -58.5t11.5 -38q11 -16 43 -34q21 -11 19 -1q0 1 -1 3 q-16 37 0 108.5t31 75.5q106 34 176 88q66 48 118 117.5t52 126.5q0 39 -15.5 85t-41.5 46h-13q-21 0 -65.5 27t-73.5 30q-49 5 -167.5 27t-182.5 22q-124 0 -244.5 -34t-277.5 -97q-94 -38 -167 -96t-73 -121q0 -78 74 -161t160 -89q251 -20 358 -24z" />
<glyph unicode="'" horiz-adv-x="872" d="M406 434q27 45 43 69t44.5 60t56.5 53t56 17q39 0 71.5 -27.5t51.5 -68t29 -83t10 -77.5q0 -68 -25.5 -125t-80.5 -135q-11 -19 -33.5 -59t-40 -70t-39.5 -62t-43.5 -49.5t-40.5 -17.5q-32 0 -59.5 18.5t-44 42t-39 53t-41.5 43.5q-69 51 -123.5 138.5t-53.5 175.5 q0 3 -0.5 25t0 31t3.5 25t11 24t21 11q4 0 36.5 20.5t53.5 20.5q11 0 22 -1.5t25 -5t23.5 -6t27 -9t25 -9.5t28 -11.5t26.5 -10.5z" />
<glyph unicode="(" horiz-adv-x="796" d="M399 471q16 49 71.5 101.5t82.5 52.5q74 0 106.5 -47t32.5 -154q0 -6 -4 -14q-37 -71 -132 -181t-110 -131q-17 -20 -30 -20q-7 0 -18.5 7t-12.5 7q-107 26 -195 136t-88 192q0 42 17.5 84t48.5 49q12 3 39 10.5t48.5 12t37.5 4.5q7 0 17 -7t22 -20.5t22.5 -26t24 -29.5 t20.5 -26z" />
<glyph unicode=")" horiz-adv-x="575" d="M244 662q65 65 90 65q18 0 35.5 -31t17.5 -65q0 -8 -2 -10q-18 -19 -25.5 -44t-10 -58t-7.5 -50q-2 -8 -12 -68q13 -2 37.5 -4.5t39 -5t31.5 -7.5t25 -14.5t8 -23.5q0 -20 -7 -47.5t-18.5 -61.5t-15.5 -49q-6 -22 -18.5 -63.5t-19.5 -65.5t-14 -61t-9 -72q-8 5 -26 14 t-27.5 15t-21 15t-17 19.5t-5.5 22.5q0 13 9 25q23 29 37.5 95t17.5 75q5 13 10.5 42.5t7.5 39.5q-30 -19 -44.5 -38.5t-35.5 -27.5q-13 9 -35 22.5t-28 18.5t-12 15.5t-6 25.5q0 23 31.5 119.5t31.5 136.5q-2 0 -14.5 -1.5t-15 -2t-11.5 -3.5t-12.5 -6.5t-8 -10t-6.5 -15.5 q0 -9 -26 -14q-24 0 -41 20.5t-17 44.5q6 128 41.5 269.5t85.5 208.5q7 10 26.5 17t35.5 7q22 0 22 -28q0 -109 -19 -188.5t-63 -190.5q2 -1 5.5 -3t5.5 -3z" />
<glyph unicode="*" horiz-adv-x="550" d="M401 1087q-5 -40 -8 -131.5t-14 -157.5t-39 -126q17 -3 26.5 -5t17 -7.5t10.5 -9.5t5 -16t2.5 -22t1.5 -32t3 -41q0 -75 -41 -187q8 -3 24.5 -7t23.5 -7t16.5 -9t13 -15.5t3.5 -24.5q-5 -39 -16.5 -84t-20.5 -72t-29 -81t-26 -72q-36 12 -46.5 24.5t-10.5 40.5v39v15.5 v18.5t-0.5 18t-1 19t-2 17.5t-4 17.5t-5.5 14.5t-7.5 12.5t-10.5 8q-79 45 -76 119q0 29 4 83.5t5 74.5q-4 4 -22.5 19.5t-23.5 20.5t-18 19.5t-17.5 24.5t-9 26t-4.5 33q0 132 164 416q20 39 68 39q21 0 65 -13z" />
<glyph unicode="+" horiz-adv-x="1370" d="M526 -188q-2 16 -3.5 45t-3.5 49t-7.5 41.5t-18.5 34t-34 14.5q-156 15 -256.5 115t-100.5 233q0 88 52 170.5t132.5 139.5t175.5 93.5t185 43.5q196 14 250 14q91 0 162 -19t121 -73q86 -96 86 -199q0 -79 -26.5 -150t-72.5 -124t-98.5 -92.5t-114.5 -69.5 q-9 -4 -38.5 -19t-41 -20t-37 -16t-42.5 -15t-41 -8t-47 -4q-32 0 -63.5 -35.5t-62.5 -91t-40 -66.5q-3 3 -15 9zM557 -78q0 -14 12 -7t25 36q21 47 49.5 78t56.5 32q130 17 235 80.5t202 182.5q61 75 61 174q0 61 -26.5 108.5t-65.5 74t-92 43.5t-98.5 22.5t-92.5 5.5 q-108 0 -209 -18.5t-203.5 -71.5t-158.5 -136q-64 -95 -64 -170q0 -91 82.5 -180t190.5 -106q64 -10 74 -11q22 -2 22 -137z" />
<glyph unicode="," horiz-adv-x="1263" d="M811 -37q8 10 28.5 25.5t31 31t10.5 39.5q0 53 -27 105q-12 -3 -55.5 -13.5t-60.5 -13.5t-50 -9.5t-59 -8.5t-54 -2q-219 0 -329 84.5t-142 259.5q-2 10 -2 28q0 58 25 110t67 90.5t91 70t104 53.5t97.5 35t78.5 20q54 11 117 11q109 0 192 -45q13 -7 40 -14t38 -13 q207 -106 207 -299q0 -133 -94 -221q-18 -15 -18 -33q0 -12 5 -41.5t5 -44.5q0 -69 -51.5 -128t-124.5 -93q-23 -10 -31 -10q-16 0 -39 26zM1026 334q59 95 59 168q0 120 -88 211q-44 48 -130.5 78t-153.5 30q-90 0 -183 -36t-161.5 -88.5t-112 -114.5t-43.5 -113 q0 -56 25 -115t76.5 -106t117.5 -55q65 -7 109 -7q72 0 167 16.5t166 45.5q25 9 66 -166q4 -22 30 14q19 28 21 43q4 33 1.5 65t5 69t28.5 61z" />
<glyph unicode="-" d="M635 403q63 0 123.5 -35t64.5 -77q4 -38 4 -172q0 -43 -38.5 -63.5t-88.5 -20.5q-43 0 -129.5 2t-130.5 2q-34 0 -100.5 -2t-99.5 -2q-47 0 -89 73.5t-47 114.5q-2 14 -2 43q0 74 27.5 125.5t103.5 145.5q-22 2 -39 11t-28 23.5t-18.5 28.5t-17 33t-17.5 31q0 1 -1 2 t-1 2q0 159 5 202q17 162 117 224q77 47 209 47q178 0 283.5 -95t105.5 -241q0 -212 -196 -402zM389 453q128 54 200.5 155t72.5 236q0 40 -3.5 70t-16 64t-35 56t-63.5 36.5t-98 14.5q-69 0 -126.5 -16.5t-101.5 -59.5t-52 -108q-8 -61 -8 -186q0 -41 57 -41q30 0 76 24 q8 4 8 64v14q0 44 31 80.5t71 36.5q37 0 65 -38.5t28 -76.5q0 -70 -49.5 -141.5t-116.5 -112.5q-77 -47 -122.5 -115t-45.5 -141q0 -39 18 -71q138 -15 182 -15q293 0 293 54q0 5 -1 18t-1.5 18t-1.5 16t-2.5 16t-4 13t-6 11.5t-8.5 8t-11.5 6t-14.5 1.5q-168 -16 -196 -16 t-44 12.5t-16 32.5q0 22 20 48t23 32zM713 975q12 -98 12 -131q0 -97 -48.5 -203.5t-131.5 -157.5q-22 -13 -59 -41.5t-46 -35.5q1 -2 3 -6.5t3 -6.5q83 13 136 46t90 93q33 55 48 82t31.5 76.5t16.5 95.5q0 49 -15.5 106.5t-39.5 82.5zM227 127q0 -8 -2 -12q29 -23 72 -23 q24 0 75 4t77 4q35 0 104 -4t104 -4q57 0 85 17t28 57v39.5t-3 34t-9 35t-17.5 25.5t-29.5 24v-84q0 -58 -9.5 -80t-44.5 -23q-149 -9 -303 -12q-22 0 -63.5 1t-63.5 1zM215 616q32 -14 66 -14q56 0 71 21q6 9 24 36.5t29 44.5t21 38t10 32q0 20 -15 40t-26 20 q-18 0 -30.5 -27.5t-12.5 -54.5q0 -10 3 -31t3 -31q0 -15 -6 -26.5t-14 -17.5t-24 -11t-28 -7.5t-35 -6t-36 -5.5zM379 442q-3 1 -16 4.5t-16 6t-8 10.5t-5 20q0 21 22 21q12 0 23.5 -9.5t11.5 -19.5q0 -21 -12 -33zM279 844q-28 -17 -48 -17q-15 0 -24.5 11t-9.5 26 q0 14 12.5 24.5t30.5 10.5q28 0 39 -55zM471 987q0 -19 -13 -33t-26 -14q-33 0 -33 35q0 15 10.5 26t24.5 11q12 0 37 -25zM336 965q0 -13 -10 -22t-25 -9t-25 9.5t-10 23.5q2 15 13 26t24 11q12 0 22.5 -12.5t10.5 -26.5zM543 905q-15 24 -15 43q0 12 9 20.5t22 8.5 q14 0 25.5 -11t11.5 -24q0 -21 -53 -37zM264 768q0 -16 -11.5 -26.5t-25.5 -10.5q-32 4 -34 27q0 15 12.5 28t27.5 13q13 -1 22 -10t9 -21zM266 311q1 -1 14 -16t13 -23q0 -11 -11 -19.5t-24 -8.5q-35 0 -35 28q0 14 12 26t31 13zM492 549q-5 -2 -13 -6.5t-14.5 -7.5 t-11.5 -3q-12 0 -22.5 11t-10.5 22t14 23t25 12q13 -1 20 -9.5t8.5 -15.5t4.5 -26zM358 293q43 0 43 -35q-2 -14 -11.5 -22.5t-22.5 -8.5q-12 0 -22.5 10t-10.5 21t24 35zM549 248q-20 -23 -37 -23q-14 0 -22.5 10t-8.5 27q0 9 7.5 20t17.5 11q31 0 43 -45zM598 807 q0 -14 -9 -22.5t-24 -8.5q-32 0 -35 27q0 13 11.5 26t23.5 13q15 0 24 -10t9 -25zM578 686q0 -17 -10 -29t-25 -12q-13 1 -18 2.5t-11 8t-6 20.5q0 12 8.5 22.5t20.5 10.5q10 0 25 -11t16 -12zM281 350q-3 4 -10.5 12.5t-9.5 11.5t-4.5 8.5t-2.5 10.5q0 12 8 21.5t17 9.5 t19.5 -12.5t12.5 -22.5q0 -4 -4 -9.5t-12.5 -14.5t-13.5 -15z" />
<glyph unicode="." horiz-adv-x="2191" d="M430 244q5 28 29 28q4 0 13 -2t13 -2q-3 41 -21 59.5t-54 18.5q-38 0 -82 -12.5t-80.5 -44t-36.5 -74.5q0 -47 38.5 -91.5t92 -73t105 -45.5t81.5 -17q104 0 207.5 47t185.5 122.5t145.5 165.5t100.5 183q-56 27 -83.5 40.5t-83 44t-86 53t-72 59t-63.5 70t-38 78 t-16 91.5q0 113 72 177.5t190 64.5q45 0 104 -18.5t68 -47.5q2 -4 19.5 -29t21 -30.5t18 -28t18.5 -31.5t14.5 -29.5t14 -34t9 -32.5t7 -37.5t1.5 -38.5q0 -45 -5.5 -88t-17 -102.5t-16.5 -89.5q145 -29 232 -29q181 0 262 62q-5 8 -19.5 30t-22.5 35t-18 31.5t-15 34 t-5 28.5q0 74 69.5 139.5t137.5 65.5q30 0 55 -6.5t45.5 -28t20.5 -55.5q0 -84 -40 -153.5t-110 -112.5q35 -15 68 -15q100 0 178 97q6 -15 6 -27q0 -46 -91 -83.5t-128 -37.5q-14 0 -39 6.5t-39 6.5q-6 0 -16 -5q-120 -67 -326 -67q-34 0 -104 12.5t-105 11.5 q-8 0 -30.5 -36.5t-53.5 -89.5t-49 -76q-73 -96 -157.5 -173t-194.5 -131.5t-215 -54.5q-93 0 -193 41t-172 118t-72 165q0 84 90 144.5t195 60.5q88 0 145.5 -53t57.5 -132q0 -43 -20.5 -79.5t-43.5 -36.5q-34 0 -96 90zM1196 571q2 7 10.5 43.5t11.5 49t8 39.5t7 46.5 t2 38.5q0 71 -28.5 143t-87.5 124.5t-134 52.5q-72 0 -117 -51t-45 -119q0 -67 31 -126.5t85 -104.5t118 -78.5t139 -57.5zM1798 621q47 25 86 84t39 88q0 21 -37 67q-62 -23 -95.5 -72.5t-33.5 -97.5q0 -44 41 -69z" />
<glyph unicode="/" horiz-adv-x="2703" d="M967 227q23 -13 33.5 -19.5t25.5 -18.5t21 -25t6 -29q0 -39 -33.5 -64.5t-79.5 -25.5q-48 0 -144.5 -4t-144.5 -4q-55 0 -162 2t-161 2q-22 0 -69.5 -1t-72.5 -1q-4 1 -21.5 3.5t-24 4.5t-14 11.5t-7.5 25.5q0 28 19.5 49t59 44t50.5 32q-10 23 -32.5 39t-43 23.5t-36 24 t-15.5 40.5q0 21 19.5 42.5t40.5 34t51.5 28t35.5 18.5q-4 5 -8.5 11t-6.5 8t-5 3q-44 22 -94 78t-50 84q0 40 45.5 65t92.5 25q73 0 230 -6.5t241 -5.5q6 9 6 18q0 14 -17.5 50.5t-17.5 58.5q0 33 9 57.5t27 39.5t36 24t47 12.5t47.5 4.5t48.5 1q23 0 70 -8t71 -8 q12 0 38 1t38 1q51 -1 145 -1.5t170 -2.5t144 -8q88 -9 176 -9q26 0 79.5 1t80.5 1h71q28 0 82 6.5t82 6.5q31 0 55.5 -28t24.5 -62q-2 -41 -25.5 -112.5t-27.5 -90.5q34 -27 88 -27q25 0 73 4t70 4q37 0 71 -23t34 -54q0 -26 -27.5 -46.5t-62.5 -39.5t-45 -35 q12 -2 38.5 -5t41.5 -5t38 -6.5t36.5 -11t27.5 -15.5t20.5 -23t6.5 -31q0 -39 -25.5 -55.5t-75 -26t-72.5 -20.5q14 -21 48 -31.5t64 -14.5t53.5 -27t23.5 -68q0 -24 -14 -38.5t-42 -19.5t-51 -6.5t-60.5 -0.5t-51.5 1q-22 -1 -62 -2.5t-73 -2.5t-62 -1h-28.5h-31.5t-30 1 t-31.5 3t-27 6t-25 10t-18 14.5t-13.5 20.5t-4 27t9 33t17.5 29t29 34.5t28.5 32.5q-40 4 -55 4q-42 -1 -175.5 -4.5t-207.5 -3.5q-35 0 -106 2t-107 2q-63 0 -133 -3t-156 -8t-133 -7q-2 0 -4 -2t-6 -5.5t-8 -5.5zM895 309q196 39 469 39q64 0 192.5 -4t194.5 -4q30 0 92 1 t94 1q6 0 22.5 -4t22.5 -4q24 0 53 85.5t38 155.5q19 146 79 263q9 15 9 26q0 25 -45 25q-98 -8 -297 -12q-113 0 -329.5 10t-326.5 10q-17 0 -53 -3t-55 -3q-33 0 -96.5 12t-94.5 12q-56 0 -92.5 -15.5t-36.5 -39.5q0 -16 26 -59t32 -66q64 -253 102 -426zM221 125 q67 -1 224 -6.5t243 -5.5q168 0 307 16q-7 5 -22.5 14.5t-23 14t-19.5 10t-22.5 8t-22.5 2.5h-13q-20 35 -31 72t-22 86t-22 84q-8 22 -17 83t-21.5 99.5t-35.5 38.5q-99 0 -279.5 6.5t-220.5 7.5q-33 0 -45 -20q7 -6 59.5 -50t75.5 -71.5t23 -50.5q0 -20 -18.5 -41t-37 -33 t-49.5 -29t-36 -20q10 -7 29.5 -22t28.5 -22t22.5 -19t19.5 -20t11 -19t5 -21q0 -8 -1.5 -14.5t-6.5 -13.5t-9 -11.5t-14 -12t-16 -11.5t-20.5 -14t-22.5 -15zM2157 592q-56 -185 -70 -238q-4 -16 -4 -26q0 -14 7 -35.5t7 -24.5q0 -12 -37 -48t-37 -64q21 -27 66 -27 q43 0 133 4t135 4q25 0 77 -6t79 -6q29 0 59 6q-2 12 -10.5 19.5t-24 11.5t-28.5 6t-33 3.5t-29 2.5q-33 3 -68.5 26.5t-35.5 47.5q0 20 10 37t22 27t35 19.5t36 13t39 10l30 7.5q-27 9 -69 16t-67 11.5t-45 20.5t-20 45q0 12 3.5 22.5t11.5 21t15 18t22 18t23.5 16t28 17 t27.5 16.5q-16 2 -49 2q-26 0 -76.5 -4t-74.5 -4q-54 0 -88 14z" />
<glyph unicode="0" horiz-adv-x="2555" d="M2372 428q5 -9 18 -29.5t19.5 -32t13 -26t6.5 -23.5q0 -30 -43 -30q-18 0 -50 12t-50 12h-9q22 -34 66 -57q45 -26 76.5 -72t31.5 -92q0 -12 -8 -24.5t-22 -12.5q-5 0 -23 7t-44 17.5t-42 16.5q5 -19 17 -59t19 -70.5t7 -52.5q0 -13 -8 -18t-27 -5q-30 0 -70 12.5 t-69.5 26t-77.5 37.5t-69 33q-170 78 -303.5 124t-272.5 62q-212 23 -405 23q-120 0 -287 -55q-20 -7 -88.5 -27.5t-97.5 -31.5t-77 -35t-85 -54q-70 -59 -137 -59q-28 0 -36.5 10.5t-8.5 42.5q0 76 49 115q-28 14 -40 27t-12 32q0 13 6.5 31.5t13.5 33t20 39t18 35.5 q-4 4 -23.5 20t-27 28t-7.5 32q0 16 16.5 38.5t18.5 35.5q-12 10 -38.5 30t-45.5 35.5t-39.5 34t-31.5 35.5t-11 31q0 11 8 19.5t25 16t30 12t36 11t30 8.5q176 57 338 131q83 39 129.5 59.5t120 44.5t137.5 32q189 26 308 26q147 0 368 -53q184 -45 277 -100 q28 -17 144.5 -72.5t174.5 -101.5q5 -3 30.5 -19.5t38.5 -25t37.5 -25.5t38.5 -28.5t29.5 -25t23 -25t7.5 -19.5q0 -16 -10.5 -27t-41.5 -34q-6 -5 -9 -7zM295 16q25 16 70 52t69 51q34 20 68.5 36.5t84 33t68 22.5t86.5 24.5t74 20.5q151 43 268 43q457 0 756 -131 q58 -25 123 -56.5t142.5 -70.5t123.5 -61q33 -19 51 -19q7 0 23 4q-12 22 -33 45t-37.5 38t-29.5 33t-13 34q0 23 26 33t52 10q25 0 86 -6q-14 11 -47 32t-53 36t-37.5 40t-17.5 53q0 25 18 42.5t47 17.5h23q-11 26 -11 35q0 10 3.5 17.5t15 15.5t18.5 12t28 14.5t30 15.5 q-33 27 -102.5 66.5t-96.5 58.5q-96 66 -213 109q-28 11 -31 14q-17 12 -35.5 22t-42.5 18t-38.5 12t-45 12t-39.5 10q-314 85 -532 92q-138 0 -284.5 -29t-268.5 -86q-181 -86 -432 -168q15 -21 50 -42t58 -43t23 -54q0 -31 -41 -72q10 -20 29.5 -40t19.5 -41q0 -6 -2 -14 t-4 -14.5t-7 -16t-8.5 -15.5t-10.5 -17.5t-10.5 -16t-12 -17.5t-10.5 -16q61 -30 61 -66q0 -17 -28.5 -49t-28.5 -43q0 -10 8 -21z" />
<glyph unicode="1" horiz-adv-x="2838" d="M2382 393h31q181 0 313 -112q10 -10 10 -33q0 -14 -9 -25.5t-26 -11.5q-8 0 -24 3t-23 3q-58 0 -131.5 -31t-155 -68.5t-145.5 -47.5q-50 -9 -98 -9q-248 0 -514 191q-146 104 -320 104q-67 0 -174 -30q-240 -70 -461 -70q-66 0 -137 27t-123 60t-122 65.5t-132 40.5 q-39 3 -39 26q0 14 11.5 28t33 26t43 22t51.5 19t48 14.5t42 11.5t25 6q-11 14 -37.5 47.5t-44.5 57.5t-38.5 52.5t-31.5 49t-11 31.5q0 30 18 51.5t61 21.5q22 0 84 -30q107 -58 222 -58q94 0 265 52t228 61q69 10 174 10q235 0 469 -94q26 -11 72.5 -34t68.5 -32 q237 -102 361 -102q32 0 97 16.5t95 16.5q77 0 144 -49t133 -129q18 -22 18 -41q0 -20 -13.5 -30.5t-29.5 -10.5q-9 0 -28.5 1t-28.5 1q-68 0 -119 -12t-106 -46q4 -4 4 -10zM2552 520q-18 34 -89.5 68.5t-95.5 34.5q-30 0 -106.5 -18.5t-116.5 -18.5q-63 0 -138 19.5 t-117 36t-130 54.5q-8 4 -91 44.5t-128 54.5q-162 49 -332 49q-90 0 -177.5 -17t-210 -53t-165.5 -47q-42 -10 -80 -10q-45 0 -130 19t-111 22q11 -18 39 -57t43.5 -69t15.5 -57q0 -14 -4 -24.5t-14.5 -18t-20.5 -12t-29.5 -8.5t-33 -6t-40 -6t-42.5 -6q42 -25 128 -61 t103 -44q83 -41 193 -41q103 0 300.5 52.5t297.5 52.5q156 0 309 -86q22 -12 116.5 -71t149.5 -83q133 -59 283 -59q49 0 108.5 14t98 28t112 44t101.5 41q-46 29 -139.5 38.5t-122.5 18.5q40 75 103.5 113t162.5 69z" />
<glyph unicode="2" horiz-adv-x="1298" d="M758 227q41 44 41 90q0 21 -15 58q-43 0 -130 -1t-130 -1h-13h-59.5t-59.5 2t-62.5 5.5t-58 10.5t-55 17t-45 26t-38 36t-22.5 48t-9 62q0 44 19 215q18 181 383 215q24 2 106.5 12t128.5 10q73 0 141.5 -11.5t133 -36t107 -69.5t48.5 -106q2 -18 13.5 -69.5t11.5 -80.5 q0 -106 -27 -158t-96 -81q-56 -24 -70 -62q-10 -25 -34 -48.5t-44 -35.5t-58.5 -32.5t-51.5 -28.5q-9 -6 -20 -6q-18 0 -35 20zM1034 455q32 27 51 51.5t26 53.5t8 43t1 50q0 39 -4.5 76t-15 76t-32 68t-52.5 40q-163 56 -293 56q-104 0 -211 -17t-196.5 -57t-108.5 -94 q-33 -85 -33 -183q0 -86 29 -128.5t102 -51.5q137 -18 234 -18q14 0 68.5 -1t81 -0.5t68.5 5.5t74 14q8 -7 15.5 -48t7.5 -68q0 -41 39 -13q36 28 59 72l2 4q1 4 4.5 17.5t6.5 24.5t6 13q7 4 29.5 7.5t33.5 7.5z" />
<glyph unicode="3" horiz-adv-x="1249" d="M160 176q1 4 3 11t3.5 11.5t3.5 8.5q25 27 49.5 87.5t24.5 82.5q0 17 -17 37q-53 62 -89 144.5t-36 148.5q0 99 66.5 191.5t174.5 149t222 56.5q44 0 97 -13t90.5 -27.5t96 -39t83.5 -33.5q94 -36 154.5 -116.5t60.5 -178.5q0 -86 -37.5 -164t-98.5 -131.5t-136.5 -86.5 t-151.5 -38q-82 -4 -121 -4q-14 0 -43 1t-43 1q-38 0 -83.5 -16t-104.5 -44t-84 -38q-32 -12 -47 -12q-23 0 -37 12zM610 334q139 13 221.5 43.5t149.5 109.5q84 97 84 199q0 65 -36.5 123t-90.5 95.5t-116.5 65t-113.5 40t-83 12.5q-160 0 -253.5 -68t-144.5 -196 q-14 -35 -14 -66q0 -76 32 -145.5t89 -120.5q8 -7 -31.5 -91.5t-30.5 -90.5q11 -7 99 45t98 51q33 -6 74.5 -5.5t66.5 -0.5z" />
<glyph unicode="4" horiz-adv-x="1294" d="M393 229q-136 34 -212.5 104t-76.5 197q0 88 35.5 166t93.5 131.5t130 93t146 58t142 18.5q29 0 87 -9t87 -9q8 0 24.5 6t24.5 6q76 0 139 -40t100.5 -102t58 -131.5t20.5 -135.5q0 -114 -34.5 -177.5t-119.5 -107.5q-45 -24 -90 -39.5t-97 -24t-87.5 -12.5t-101 -8.5 t-97.5 -7.5q-4 -35 -16 -59.5t-36.5 -40.5t-41 -24t-55.5 -20t-54 -18q-16 -4 -20 -4q-10 0 -20.5 9t-10.5 20q0 5 13.5 26.5t33.5 51t29 44.5q3 4 4 10.5t1 15t1 13.5zM1104 586q0 51 -12 108.5t-39 106.5t-62 57q-11 3 -20 21q-6 10 -18.5 18.5t-30 14t-37.5 9.5t-43 6 t-43.5 3.5t-41.5 2t-35 0.5t-27 -1h-13q-144 0 -266.5 -72.5t-192.5 -210.5q-37 -73 -37 -137q0 -83 74 -162.5t174 -79.5q4 0 4.5 -6t-3 -18.5t-7 -24.5t-9.5 -30t-9 -29q-2 -8 -6.5 -18.5t-7 -18t-4.5 -15t-2 -11t3 -3.5q19 0 51 16t48 48q6 11 14.5 30.5t13.5 28.5 t14 19.5t21 15t29 4.5q72 0 149 13t151.5 39t129.5 72.5t71 106.5q14 53 19 97z" />
<glyph unicode="5" horiz-adv-x="1519" d="M709 457q46 -28 134.5 -86t156.5 -97.5t137 -66.5q35 -12 71 -12q121 0 156 92q1 2 4 8.5t4.5 9.5t5 5.5t8.5 2.5q13 0 22 -8.5t9 -19.5q0 -60 -71.5 -103t-137.5 -43q-53 0 -116.5 22.5t-101 43.5t-101.5 61q-41 25 -114.5 71.5t-104.5 65.5q-5 -5 -37 -34t-49 -48.5 t-17 -31.5q0 -24 23.5 -40t48.5 -16q22 0 52.5 24t49.5 24t19 -21q0 -34 -42 -62t-81 -28q-24 0 -49 13t-39 25.5t-38 36.5l-7 7q-8 -3 -22 -8t-20.5 -8t-15 -8.5t-14 -13.5t-8.5 -19q-21 -69 -68.5 -117.5t-115.5 -48.5q-37 0 -87.5 27t-50.5 63q0 27 14 51t31 38.5 t50 29.5t50.5 20.5t55 16t43.5 12.5q-1 7 -10.5 44t-9.5 50q0 40 17.5 68t53.5 28q50 0 76 -25t64 -94q62 73 63 74q-8 11 -40 53t-47 67t-15 42q0 26 9.5 45t23.5 29t35.5 16t38 7t38.5 1q29 0 57.5 -49t28.5 -86q0 -22 -20 -100zM344 211q-95 -19 -119 -31.5t-41 -52.5 q18 -35 54 -35q44 0 76 31.5t32 69.5q0 3 -1 9t-1 9zM430 299q25 6 34 11t9 14q0 19 -21.5 52.5t-33.5 33.5q-8 0 -17 -9q0 -1 1 -20t2 -26t4 -21.5t8.5 -22.5t13.5 -12zM647 518q8 16 8 33q0 26 -16.5 50t-38.5 24q-18 0 -18 -19q0 -43 65 -88z" />
<glyph unicode="6" horiz-adv-x="1415" d="M870 444q5 -1 35 -9t41.5 -10.5t34 -5.5t41.5 -3q28 0 41.5 5.5t13.5 22.5q0 22 -10 45.5t-36 63t-30 45.5q15 6 31 6q18 0 33 -8.5t24.5 -18t19.5 -30t14 -31.5t12 -36t10 -31q32 4 60 30t28 51q0 10 -9.5 31t-9.5 29q0 15 17 28t35 13q21 0 34 -27t13 -55 q0 -43 -48.5 -97.5t-103.5 -66.5q-22 -5 -39.5 -22t-28 -36.5t-27.5 -41.5t-38 -33q-162 -90 -219 -90q-62 0 -120 39.5t-58 113.5q0 33 18.5 56.5t44.5 23.5q7 0 16 -1t11 -1q13 0 47 27q-12 5 -44 20t-57 24t-42 9q-27 0 -115 -57q-66 -45 -158 -45q-83 0 -166.5 60 t-83.5 136q0 53 29 118t85 116t120 51q86 0 143.5 -41t57.5 -106q0 -17 -3.5 -32t-11.5 -37.5t-10 -29.5q9 -5 29.5 -19.5t36.5 -23t28 -8.5q27 0 92.5 26.5t94.5 26.5q100 0 100 -65q0 -18 -10.5 -54.5t-12.5 -44.5zM1055 358q-125 13 -174 27q-20 4 -29 4q-35 0 -98.5 -40 t-63.5 -62q0 -24 42.5 -52t78.5 -28q12 0 28.5 4.5t31 10.5t36.5 16.5t33.5 17l34.5 19.5t29 16q35 17 51 67zM156 578q13 -68 71.5 -108t130.5 -40q49 0 95 21.5t104 62.5q-14 7 -44.5 23t-47.5 24q-33 -31 -88 -46t-98 -15q-69 0 -123 78zM451 651q18 30 18 58 q0 20 -8.5 34t-19.5 21.5t-34.5 12.5t-40 7t-49.5 4q-20 0 -35.5 -5.5t-27.5 -19t-18 -22.5t-17.5 -31t-15.5 -30q35 10 39 10q39 0 120 -19t89 -20zM395 598q-12 3 -30.5 8.5t-28.5 8.5t-23.5 5.5t-25.5 2.5q-51 0 -51 -35q0 -25 51 -25q57 0 108 35zM692 520 q66 -46 125 -49v74q-19 -4 -60 -12.5t-65 -12.5z" />
<glyph unicode="7" horiz-adv-x="1667" d="M702 346q-12 -16 -32.5 -42.5t-30.5 -39.5q141 -106 274 -106q123 0 123 45q0 6 -2 19.5t-2 19.5q0 55 40.5 101t88.5 46q33 0 77 -15t44 -44q0 -23 -5.5 -42.5t-21 -40.5t-23.5 -30.5t-33 -33.5t-30 -29q9 -9 23 -9q54 0 106.5 10t102 30.5t80 59t30.5 89.5 q0 74 -59 134t-127 60q-10 0 -29.5 -6t-29.5 -6q-4 0 -13.5 2t-13.5 2q12 82 82 82q103 0 173.5 -82.5t70.5 -175.5q0 -36 -12.5 -80t-43 -81.5t-71.5 -37.5q-94 -71 -256 -71q-25 0 -68 18.5t-65 18.5q-25 0 -76 -12.5t-76 -12.5q-52 0 -101.5 18t-113.5 52.5t-92 46.5 q-12 -6 -38 -19.5t-37.5 -19t-34.5 -15.5t-39.5 -15.5t-40 -12t-48.5 -10.5q-1 0 -2 -1t-2 -1q-30 0 -52 40t-22 78q0 54 47.5 82.5t98.5 28.5q64 0 145 -43q6 -4 19 -4q5 0 9.5 2t9 7t7.5 9.5t7.5 12.5t7 13t6.5 14t6 13q-19 14 -53 35.5t-48.5 32.5t-35 33.5t-35.5 50.5 q-13 23 -29 29t-51 6q-33 0 -81 29.5t-62 29.5q-12 0 -42 -9t-42 -9q-22 0 -34.5 12.5t-21.5 42.5q15 2 53 9t60 10q-18 56 -18 94q0 72 24 96.5t74 24.5q38 0 64 -32.5t26 -78.5q0 -34 -14.5 -61.5t-48.5 -61.5q36 -31 81 -31q13 0 24 14.5t16.5 30t12.5 39.5t9 31 q15 39 66.5 79t84.5 40q39 0 65 -28t26 -64q0 -31 -13.5 -59t-32 -47.5t-47 -38t-48 -28t-46.5 -20.5q13 -44 56.5 -86.5t82.5 -42.5q15 0 33.5 40t28.5 79q15 66 75.5 112t123.5 46q31 0 54.5 -13t42.5 -42t30 -52t28 -66q5 -13 8 -20q7 -14 7 -22q0 -13 -8.5 -28.5 t-24 -34t-19.5 -25.5q-34 -55 -91.5 -72t-141.5 -17q-56 0 -103 27zM729 414q38 -29 111 -29q41 0 76 8.5t63.5 35t28.5 67.5q0 40 -33 91.5t-60 51.5q-122 0 -186 -225zM528 225q-51 51 -116 51q-33 0 -55.5 -15.5t-22.5 -41.5q0 -25 17 -42t40 -17q59 0 137 65zM1102 201 q55 20 77 42t27 60q-36 19 -47 19q-21 0 -42 -28t-21 -58q0 -20 6 -35zM502 639q47 0 83 28t36 62q0 25 -13 25q-84 0 -106 -115zM281 700q41 24 41 58q0 15 -11.5 30t-25.5 15q-23 0 -23 -58q0 -26 19 -45z" />
<glyph unicode="8" horiz-adv-x="2512" d="M1556 381q0 -4 -4 -25.5t-4 -33.5q2 -20 2 -64q0 -22 -8 -69.5t-8 -67.5q0 -16 50.5 -28.5t92.5 -12.5q45 0 58.5 7.5t23.5 37.5q3 9 16 48.5t19 54.5t22.5 46t32 44.5t42 25.5t57.5 12q56 0 81 -34.5t25 -83.5q0 -67 -67.5 -129.5t-145.5 -90.5q20 -25 40.5 -42.5 t45.5 -29t45.5 -18t56.5 -17.5t62 -20q15 -6 29 -6q49 0 125.5 65.5t101.5 108.5q12 29 27 29q13 0 24.5 -14t11.5 -29q0 -28 -32 -59.5t-73.5 -61t-51.5 -41.5q-46 -57 -123 -57q-99 0 -195 49t-161 133q-15 15 -29 15q-13 0 -39 -3.5t-39 -3.5q-76 0 -158 31 q-52 -106 -147 -176t-205 -70q-42 0 -90.5 13.5t-95 39.5t-77 71t-30.5 100q0 86 68.5 159.5t154.5 73.5q123 0 160 -53q7 -11 29.5 -16t54.5 -8t43 -5q14 -4 29.5 -9t35 -12.5t31.5 -11.5q15 62 15 170q0 43 -5.5 53.5t-33.5 14.5q-27 4 -82.5 11t-89 11.5t-80.5 13.5 t-86 21q-16 5 -66 22.5t-85.5 27.5t-53.5 10q-8 0 -26.5 -15.5t-40.5 -36t-31 -26.5q-30 -20 -95 -68.5t-102.5 -73t-100.5 -47t-128 -22.5q-47 0 -93.5 14.5t-89 43.5t-68.5 81.5t-26 120.5q0 62 35 130.5t90.5 123.5t129.5 91t145 36q107 0 174 -50t67 -130q0 -15 -4 -43 q10 -3 35.5 -12t45 -14t36.5 -5q15 0 68.5 37t76.5 45q107 39 187 39q97 0 190 -58.5t127 -156.5q0 -1 4 -13t5.5 -14.5t7 -10t12.5 -9.5t18 -2q25 0 51.5 27t26.5 59q0 11 -19.5 30t-19.5 39q0 10 8 18.5t21 8.5q27 0 51.5 -39.5t24.5 -60.5q0 -51 -40.5 -95t-99.5 -59z M801 532q-15 3 -50 12t-46 9q-15 0 -29 -14q-33 -38 -93 -68.5t-106 -30.5q-44 0 -80.5 40.5t-36.5 82.5q0 52 43.5 78.5t110.5 26.5q17 0 53.5 -8.5t55.5 -8.5q17 0 28 10.5t11 32.5q0 24 -30.5 46t-66 33t-59.5 11q-72 0 -153.5 -50.5t-135 -124t-53.5 -136.5 q0 -65 37 -109t88.5 -61.5t111.5 -17.5q51 0 99 24.5t102 65.5t86 57q71 36 113 100zM1163 174q-36 19 -65 19q-66 0 -115 -59t-49 -120q0 -43 41 -75.5t92 -47t98 -14.5q49 0 91.5 15t78 45.5t61.5 62t58 78.5q-70 45 -137 45q-23 0 -35 -2q-9 -46 -47.5 -84.5t-75.5 -38.5 q-46 0 -75 27t-29 67q0 14 11 26.5t23.5 19.5t37 18t36.5 18zM954 567q6 -6 9 -12q282 -86 493 -96q-26 94 -104 142t-164 48q-107 0 -234 -82zM1817 100l12 -12q63 21 110.5 68.5t47.5 95.5q0 18 -8 24.5t-29 6.5t-39 -10.5t-29.5 -23t-23.5 -36.5t-17 -38.5t-13.5 -41.5 t-10.5 -33zM598 580q-91 14 -100 14q-18 0 -35 -15t-17 -32q0 -7 12 -15t21 -8q57 0 119 56z" />
<glyph unicode="9" horiz-adv-x="1841" d="M371 633q-56 47 -56 129q0 62 67 105.5t142 43.5q37 0 65.5 -47.5t28.5 -83.5q0 -45 -21 -75.5t-89 -79.5q54 -63 147.5 -111.5t204 -76.5t209 -43t195.5 -21q0 52 -48.5 93.5t-101.5 41.5q-7 0 -22.5 -1t-22.5 -1q-17 0 -49.5 1t-46.5 1q-36 0 -72 35.5t-55 71t-19 47.5 q0 48 39 106.5t78 58.5q5 0 25 -4q-8 -11 -27 -37.5t-27 -39.5t-16 -33t-8 -37q0 -41 35 -74t88 -33q9 0 31.5 1t35.5 1q-4 11 -12 31.5t-11.5 31t-7 25t-3.5 25.5q0 39 49.5 104.5t87.5 65.5q50 0 94.5 -56.5t44.5 -107.5q0 -64 -61 -135q-3 -3 -12 -10t-11 -10 q40 -44 63 -79.5t44 -86.5q79 -9 104 -9q100 0 164.5 52.5t64.5 140.5q0 19 -8 48.5t-10 43.5q46 0 62 -11t16 -48q0 -69 -19.5 -134t-62.5 -96q-27 -16 -52.5 -26.5t-59 -17t-52 -9t-64.5 -6.5t-63 -6q0 -12 1 -34t1 -32q0 -80 -39.5 -160.5t-109 -134t-148.5 -53.5 q-70 0 -111 21.5t-79 66.5q-21 21 -60 21q-107 0 -200 104q-15 17 -27 23t-37 6q-21 0 -56 15.5t-44 15.5q-17 0 -72 -23t-84 -23q-73 0 -136 49t-63 126q0 24 6.5 48t15.5 44t28 45t33.5 42t42 43.5t44 41.5t50 45t49.5 45zM387 205q-32 25 -52 64t-20 77q0 26 21 47t55 21 q56 0 95.5 -35t39.5 -76q0 -23 -22 -94q27 -6 51 -12q6 15 6 22q8 62 47.5 107t98.5 45q30 0 50.5 -23t20.5 -49q0 -24 -9 -46.5t-31 -47.5t-31.5 -34.5t-38.5 -35.5q25 -26 38.5 -38.5t38.5 -25t52 -12.5q-1 8 -7 39.5t-6 48.5q0 51 34 70t93 19q41 0 70 -29t29 -72 q0 -16 -9.5 -35.5t-17 -30t-28.5 -35.5t-25 -30q54 -63 139 -63q66 0 120.5 47.5t82.5 112.5t28 128q0 22 -4 68q-33 4 -129 15t-155.5 21t-124.5 27q-118 30 -217.5 80t-206.5 125q-17 10 -29 10q-16 0 -66.5 -36t-82.5 -66q-113 -104 -113 -182q0 -53 36.5 -82t90.5 -29 q40 0 88 25zM1270 690q-10 49 -23.5 71.5t-40.5 22.5q-30 0 -62 -34t-32 -74q0 -31 21.5 -62.5t50.5 -31.5q37 0 61.5 32.5t24.5 75.5zM530 825q-24 6 -45 6q-42 0 -70 -26t-28 -62q0 -35 45 -71q54 26 77 53.5t23 67.5q0 20 -2 32zM889 59q51 51 51 74q0 11 -16 23t-29 12 q-15 0 -27 -16.5t-12 -34.5q0 -29 33 -58zM432 252q21 38 21 57q0 14 -12.5 24.5t-30.5 10.5q-21 0 -21 -27q0 -8 6 -18t19 -25t18 -22zM635 215q36 15 50.5 29.5t14.5 34.5q0 12 -2 18q-39 -10 -51 -27t-12 -55z" />
<glyph unicode=":" horiz-adv-x="2084" d="M1014 831l33 -22q20 38 67 73.5t74 35.5q30 0 71 -39t41 -64q0 -44 -55.5 -78.5t-89.5 -34.5q-27 0 -76 9q-14 -17 -14 -33q0 -41 60.5 -98.5t115.5 -57.5q57 0 130 25.5t129 70t56 89.5q0 28 -21.5 52.5t-61.5 24.5q-41 0 -41 -39q0 -11 7 -29t7 -24q0 -16 -33 -16 q-30 0 -45.5 17t-15.5 38q0 61 38 90t85 29q58 0 103.5 -53t45.5 -103q0 -31 -39.5 -79t-105 -89t-127.5 -49q-7 -1 -19.5 -7t-13.5 -7q3 -9 8 -32.5t9.5 -35.5t19.5 -23.5t39 -11.5q39 0 132 26t144 26q119 0 215 -82t96 -193q0 -67 -62.5 -138.5t-145 -115t-144.5 -43.5 q-17 0 -63 32t-78 32q-43 0 -112.5 -38t-96.5 -38q-12 0 -33.5 8t-50.5 20t-47 17q-115 29 -148 131q-5 14 -29 29.5t-47.5 25.5t-61.5 25t-50 20q-14 6 -48.5 23t-61 27t-48.5 10q-40 0 -83.5 -32.5t-43.5 -76.5q0 -35 41 -35q24 4 34 10.5t23.5 30t28.5 41.5q15 15 27 15 q9 0 17 -14t8 -21q0 -48 -54 -87.5t-104 -39.5q-33 0 -61.5 36t-28.5 64q0 72 73.5 124t135.5 52q50 0 100 -22.5t106 -55.5t95 -47q21 -6 28 -6q10 0 29 31t47.5 73.5t56.5 63.5q-74 -18 -141 -18q-54 0 -126 16t-72 49q0 7 5 13t15 6q23 -2 76 -14.5t82 -12.5 q105 0 170 33q-4 24 -4 35q0 29 15 45.5t58 28.5q-97 47 -148.5 107t-51.5 151q0 58 -62 75q-62 -43 -86 -65q-94 -86 -218 -138.5t-241 -52.5q-71 0 -137.5 26t-114 83.5t-47.5 134.5q0 91 76 160t168 69q91 0 148 -38t90 -140q0 -44 -58.5 -75t-115.5 -31q-49 0 -82 17.5 t-33 51.5q0 19 12.5 38.5t36.5 19.5q11 0 18 -17.5t7 -44.5q7 1 22.5 3t25.5 3.5t24 4.5t22.5 6.5t17.5 8.5t13 12t4 16q0 39 -53 66.5t-97 27.5q-71 0 -124.5 -52.5t-53.5 -125.5q0 -61 76 -109.5t149 -48.5q68 0 133 18.5t133 58.5t108.5 69t111.5 84q12 9 18 14 q-5 11 -15.5 34.5t-16.5 37.5t-11.5 32t-5.5 31q0 23 24.5 65t51.5 74q32 37 92 37q56 0 84 -28.5t28 -76.5q0 -21 -5.5 -42t-10.5 -34.5t-21.5 -37t-22 -30.5t-29.5 -35t-27 -32zM1524 -35q55 -55 125 -55q74 0 172 79t98 156q0 81 -75.5 143t-157.5 62q-47 0 -140 -28.5 t-139 -28.5q-22 0 -63.5 7t-61.5 7q-61 0 -115 -33q8 2 21 2q54 0 93.5 -39t39.5 -92t-39.5 -84.5t-87.5 -39t-87.5 -13.5t-39.5 -14q43 -39 101.5 -69.5t95.5 -30.5q36 0 98.5 35.5t62.5 47.5q0 5 -9 40.5t-9 54.5q0 50 21.5 97.5t56.5 47.5q43 0 72.5 -32t29.5 -76 q0 -17 -7 -37.5t-14 -33.5t-21.5 -38t-20.5 -35zM1079 84q30 -6 58 -6q46 0 85.5 16.5t39.5 50.5q0 27 -23 45.5t-49 18.5q-49 0 -76.5 -36.5t-34.5 -88.5zM961 887q5 8 33 44t40.5 58.5t12.5 40.5q0 41 -39 41q-36 0 -61 -33t-25 -61q0 -39 39 -90zM1481 20q39 34 39 80 q0 37 -19 37q-18 0 -28.5 -20t-10.5 -39q0 -26 19 -58zM1112 788q15 -6 37 -6q31 0 50.5 9.5t19.5 27.5q0 7 -12.5 17t-16.5 10q-26 -6 -43 -18.5t-35 -39.5z" />
<glyph unicode=";" horiz-adv-x="2136" d="M946 1016q33 -2 101.5 -6t101.5 -7t92.5 -10t100 -17.5t95 -27.5t107.5 -43t109 -61q49 -27 72.5 -40t71.5 -41.5t73.5 -47t61.5 -46.5t54 -50.5t32 -49t14 -51.5q0 -30 -16.5 -59t-50.5 -57t-60 -46t-72.5 -45.5t-60.5 -36.5q-8 -5 -53 -35t-63 -40t-52 -22.5t-62 -12.5 q-82 0 -162 3.5t-186 14t-150.5 15.5t-185 23t-160.5 20q-75 3 -157.5 42t-204 120.5t-148.5 97.5q-45 31 -65.5 56.5t-20.5 55.5q0 19 10.5 37.5t34.5 38t45 34.5t59.5 34.5t59.5 30t64 30t55 25.5q33 16 122.5 67t155 76t130.5 25h108v6zM172 633q6 -20 26.5 -42.5 t55.5 -46t64.5 -41t73.5 -42t63 -35.5q162 -99 295 -111q53 -6 164 -24t169 -23q141 -12 433 -20q83 0 233 93.5t223 166.5q-20 34 -55 62.5t-95 64.5t-73 45q-138 94 -381 203q-40 18 -88 29t-115 15.5t-104 5.5t-123.5 0t-103.5 -1q-92 0 -185 -49q-69 -37 -229.5 -119.5 t-247.5 -130.5z" />
<glyph unicode="&#x3c;" horiz-adv-x="1972" d="M1774 322q-16 -1 -148.5 -10t-200.5 -9q-23 0 -71 1t-72 1q-70 0 -208 -16.5t-202 -16.5q-28 0 -83 4.5t-82 4.5q-59 0 -175 -7.5t-174 -7.5q-14 0 -43 2t-45 2q-19 0 -33.5 -17t-31.5 -17q-8 0 -21.5 2t-33.5 7t-34 17t-14 29q0 23 44 33t94 10q10 0 31.5 -4t33.5 -4 q48 0 147 4t148 4q38 0 113 -3t112 -3q68 0 194 12t173 14q33 2 263.5 11.5t350.5 17.5q19 0 31 -2.5t22.5 -12.5t10.5 -28q-3 -23 -29 -23q-17 0 -67 5z" />
<glyph unicode="=" horiz-adv-x="2797" d="M1059 358q-136 -112 -318 -112q-96 0 -195.5 28t-187 79.5t-154.5 132t-95 176.5q-7 21 -7 34q0 50 67 133.5t116 83.5q37 0 70.5 -4.5t67 -14.5t53.5 -30.5t20 -48.5q0 -12 -4.5 -25t-8.5 -22t-16.5 -25t-18.5 -22.5t-24 -26.5t-23 -26v12q0 13 29 55.5t29 69.5 q0 33 -48.5 53.5t-80.5 20.5q-38 0 -63.5 -21t-71.5 -80q-23 -23 -23 -53q0 -56 36.5 -113t90 -100t118.5 -80.5t117 -60t91 -33.5q55 -16 120 -16q160 0 273 88q-64 71 -85.5 107.5t-21.5 92.5q0 31 4 50.5t17.5 38.5t42.5 27.5t76 8.5q68 0 127 -31.5t59 -87.5 q0 -9 -1.5 -19.5t-3.5 -18.5t-7 -20t-8 -19t-11 -20t-11 -18.5t-12.5 -19.5t-12 -18t-13 -19.5t-12.5 -17.5q46 -55 177.5 -90t244.5 -35q296 0 442 174q-57 27 -82 39t-72 37t-71.5 41.5t-62 44.5t-62.5 55t-54.5 64t-54.5 80q-30 48 -30 112q0 82 43 169.5t106 105.5 q63 16 143 16q77 0 156 -31.5t143.5 -85.5t105 -135t40.5 -172q0 -137 -51 -274q111 25 184 61.5t114.5 91t58.5 121t17 160.5q0 32 -3 59t-13.5 57t-17 48.5t-27.5 53t-29.5 48.5t-39 58.5t-40.5 60.5q52 -7 109 -53q174 -140 174 -371q0 -105 -32 -182t-115 -172 q-28 -32 -75 -49.5t-96.5 -24.5t-100 -16t-98 -33.5t-77.5 -67.5q-41 -60 -128 -100t-176.5 -55t-180.5 -15q-138 0 -270 35.5t-285 101.5zM2064 537q68 162 68 266q0 132 -96.5 225.5t-233.5 93.5q-40 0 -80.5 -67t-40.5 -127q0 -63 43 -132.5t104 -122t125.5 -90 t110.5 -46.5zM1085 459q93 80 93 151q0 35 -34 59.5t-81 24.5q-34 0 -52 -18.5t-18 -46.5q0 -78 92 -170z" />
<glyph unicode="&#x3e;" horiz-adv-x="1529" d="M1427 850q-3 -119 -38 -208t-111 -165q-31 -25 -41.5 -81t-7 -107.5t-4 -92t-33.5 -40.5q-16 0 -48.5 37.5t-63.5 75.5t-42 38q-6 0 -39 -10q-139 -47 -276 -47q-190 0 -341 75.5t-237 223.5q-41 61 -41 209q0 93 27.5 190.5t80 185t122 157t161 110.5t189.5 41 q74 0 137 -7t118 -25t92 -32.5t85.5 -46.5t70.5 -48.5t73 -55.5q54 -42 89 -109t46 -111t28 -137q3 -13 4 -20zM764 340q7 0 20.5 -1t20.5 -1q154 0 260 70q11 7 32 -32q6 -9 17 -31q32 -63 44 -63q3 1 5 3q8 8 8 40.5t-1 68t13 77t46 66.5q48 48 87.5 138t39.5 156 q0 80 -17.5 144.5t-39 102t-68.5 106.5q-17 28 -43 28h-14q-25 0 -69 32.5t-94 69t-87 44.5q-15 2 -95.5 17.5t-123.5 15.5q-86 0 -164 -38.5t-134.5 -102.5t-99 -144t-63.5 -165.5t-21 -164.5q0 -108 48 -193.5t127 -137t173 -78.5t193 -27z" />
<glyph unicode="?" horiz-adv-x="1345" d="M588 166q-9 -13 -44.5 -75t-62.5 -97t-47 -35q-11 0 -19.5 9.5t-8.5 25.5q0 4 1 11t1 11q0 28 -0.5 60.5t-2 61.5t-12 55t-31.5 40q-117 74 -187.5 188.5t-70.5 252.5q0 104 54.5 209t138.5 139q133 54 191 66q51 11 98 10h37q17 0 51 2t51 2q115 0 233 -57t160 -138 q2 -4 17 -24q106 -101 106 -273q0 -88 -33.5 -162.5t-89.5 -126.5t-128.5 -88.5t-151 -53.5t-156.5 -17q-17 0 -48 2t-46 2zM700 219q65 8 119.5 20t114.5 35.5t104 55t78.5 81t46.5 111.5q1 10 9 37.5t8 42.5q0 74 -30.5 143.5t-79.5 120.5t-109 90t-122 58.5t-116 19.5 q-55 0 -164.5 -13t-128.5 -15q-60 -5 -107.5 -37.5t-74.5 -80.5t-41 -101.5t-14 -106.5q0 -225 227 -389q12 -8 18.5 -53.5t10 -103.5t6.5 -75q1 -8 16 16q8 12 28 48q65 112 81 113q17 -2 57.5 -8t62.5 -9z" />
<glyph unicode="@" horiz-adv-x="1288" d="M745 272q-13 -16 -32 -16q-9 0 -24.5 7.5t-28.5 16t-36.5 24t-33.5 22.5q-10 -8 -44.5 -17t-49.5 -28q-4 -7 -19 -7q-8 0 -22 3.5t-21 3.5q-25 0 -47 -15t-39 -36.5t-35 -43t-45 -36.5t-59 -15q-40 0 -73.5 25.5t-33.5 64.5q0 21 16.5 40.5t37.5 19.5q13 0 29.5 -24.5 t27.5 -24.5q31 0 53.5 36.5t30.5 75.5q18 78 78 135.5t139 57.5q24 0 67.5 -21.5t63.5 -21.5q18 0 60.5 9t62.5 9q42 0 98.5 -48t122.5 -126t70 -82q3 5 8.5 13t8.5 14.5t3 13.5q0 4 -3 14.5t-3 14.5q0 11 8 20.5t25 9.5q33 0 56.5 -50t23.5 -91q0 -40 -45 -74t-99 -34 q-29 0 -65 26.5t-100 87.5q-33 33 -68 33h-6q-7 0 -15.5 2t-21 6t-21.5 6z" />
<glyph unicode="A" horiz-adv-x="1093" d="M397 643q13 -6 37 -22.5t44 -25.5t40 -9q9 0 25 4q11 0 42 -13.5t48 -13.5q25 0 88 24.5t98 24.5q26 0 54 -5.5t55.5 -16t45 -30t17.5 -44.5q0 -35 -38.5 -55.5t-75.5 -20.5q-118 0 -183 31q-27 10 -45 10q-9 0 -21.5 -3.5t-30 -12t-30.5 -15t-37.5 -20t-37.5 -20.5 q6 -4 23 -14t22 -12.5t17.5 -9.5t18.5 -9t16 -5.5t18 -4.5t18 -1q18 0 58 16.5t62 16.5q35 0 76 -9.5t78 -35.5t37 -63q0 -33 -36.5 -48.5t-82.5 -15.5q-22 0 -46 4.5t-39 9t-45.5 15t-43.5 14.5q-12 4 -18 4q-20 0 -37 -20q9 -8 38.5 -30t43.5 -35.5t14 -22.5 q0 -15 -9.5 -25t-21.5 -10q-17 0 -58 31.5t-60 37.5q-57 -63 -123 -63q-38 0 -70.5 15.5t-32.5 49.5q0 80 160 80q45 0 76 31q-8 5 -36.5 25t-49.5 31.5t-35 11.5q-26 0 -87 -19.5t-93 -19.5q-52 0 -97 31.5t-45 72.5q0 40 40 66t83 26q32 0 108.5 -32.5t100.5 -32.5 q13 0 29 6.5t41 19t41 19.5q-23 9 -60 20t-63 20t-52.5 21.5t-40.5 31t-14 42.5q0 38 57.5 76.5t106.5 38.5q28 0 49 -18.5t21 -45.5q0 -12 -17 -12q-8 0 -24 5t-23 5t-13.5 -1t-14 -4.5t-11.5 -5.5t-13 -8t-11.5 -8t-12.5 -10.5t-12 -9.5zM332 418q-69 41 -99 41 q-22 0 -45 -29q29 -29 70 -29q25 0 74 17zM748 526q57 -22 92 -22q34 0 61 16q-34 21 -76 21q-33 0 -77 -15zM838 289q-26 33 -72 33q-25 0 -51 -13q33 -24 73 -24q18 0 50 4z" />
<glyph unicode="B" horiz-adv-x="1081" d="M557 553q-31 31 -63 31q-34 0 -113 -18.5t-119 -18.5q-54 0 -107 44t-53 93q0 67 53.5 105t112.5 38q42 0 78 -11t68.5 -35t54.5 -45t55 -58q21 13 77 50.5t95 62t47 24.5q11 0 20 -8.5t9 -18.5t-12.5 -25t-30.5 -29.5t-42.5 -32t-42.5 -29t-36.5 -23t-19.5 -12.5 q28 -35 41 -35q12 0 33 12q32 19 96 32t86 22q6 2 18 2q63 0 90 -25t27 -82q0 -45 -49.5 -75.5t-104.5 -30.5q-24 0 -52.5 8t-70 24t-57.5 21q-18 6 -20 6q-26 0 -73.5 -34t-72.5 -64q47 -33 103 -33q9 0 28.5 4t28.5 4q15 0 25 -7t10 -19q0 -27 -36.5 -38.5t-82.5 -11.5 q-24 0 -72 25t-75 25q-12 0 -53.5 -24t-67.5 -24q-42 0 -74.5 26.5t-32.5 60.5q0 37 42 72.5t79 35.5q16 0 56.5 -23.5t54.5 -23.5q12 0 36 14.5t58.5 38t50.5 33.5zM451 653q-71 67 -99 84q-41 25 -82 25q-37 0 -62.5 -21t-25.5 -45q0 -39 36 -58.5t85 -19.5q79 0 148 35z M715 561q13 -4 33 -12t32.5 -11t30.5 -3q21 0 31 0.5t28.5 3t27.5 9t9 17.5t-12 21t-25 10q-1 0 -16.5 -0.5t-19.5 -1t-18.5 -1t-20 -2t-18 -3t-19 -4t-15.5 -6t-16 -8t-12 -9.5zM254 414q29 -19 37 -19q13 0 37 27q-26 16 -37 16q-13 0 -37 -24z" />
<glyph unicode="C" horiz-adv-x="1552" d="M813 594q-77 45 -129 45q-17 0 -55 -7t-58 -7q-63 0 -107 23t-44 77q0 38 45 68t86 30q33 0 72 -23.5t66.5 -47t33.5 -23.5q12 0 68.5 26.5t103.5 53.5q20 10 29 10t18.5 -13t9.5 -22q0 -13 -25 -28.5t-71.5 -36.5t-58.5 -27q21 -20 62.5 -40.5t62.5 -20.5q37 0 139.5 55 t140.5 55q40 0 78.5 -24.5t38.5 -57.5q0 -59 -70 -96t-133 -37q-29 0 -96.5 10.5t-99.5 10.5q-19 0 -46 -9.5t-74.5 -32.5t-58.5 -28q139 -71 201 -71q25 0 47 14q178 119 330 119q54 0 92.5 -29.5t38.5 -81.5q0 -74 -58.5 -117t-164.5 -43q-105 0 -150 23q-60 31 -106 31 q-51 0 -111.5 -26t-137 -72t-104.5 -60q43 -35 109 -55.5t129 -20.5q29 0 52 7t34.5 14t38.5 28t45 33q8 -13 8 -27q0 -6 -2.5 -12.5t-5 -10t-9 -10t-7.5 -8.5q-58 -71 -152 -71q-54 0 -127 19t-133 48q-33 11 -51 11q-50 0 -165 -45.5t-181 -45.5q-35 0 -67 31t-32 66 q0 30 21 51t55.5 31.5t68.5 15t70 4.5q37 0 105 -13.5t102 -13.5q19 0 37 11q52 28 273 155q-23 17 -51 29.5t-64 24.5t-55 20q-9 0 -29 -4q-25 -7 -100 -33t-129.5 -39.5t-98.5 -13.5q-54 0 -102.5 29t-48.5 80q0 38 32.5 66t80.5 41t87 18.5t66 5.5q31 0 70.5 -11 t88 -28.5t74.5 -24.5q4 -2 13 -2q16 0 42.5 12t61 31.5t43.5 24.5q0 8 -2 12zM1036 385q0 -21 78 -39t119 -18q58 0 107 21.5t49 70.5q0 19 -8 30.5t-24 16t-27 5.5t-30 1q-57 0 -134 -29t-130 -59zM561 465q0 14 -62 25.5t-102 11.5q-155 0 -155 -53q0 -15 16.5 -25 t38.5 -10q32 2 69 8t62.5 12l68 16t64.5 15zM428 141q-58 15 -115 15q-135 0 -135 -45q1 -11 7 -18t16.5 -9.5t18 -3t20.5 -0.5q31 0 59 8t73 28.5t56 24.5zM1239 659q-4 1 -12 5t-15 6t-12 2q-52 0 -141 -70q33 -8 65 -8q91 0 115 65zM631 686q-38 62 -84 62q-35 0 -41 -25 q0 -9 7.5 -15.5t22.5 -10t28 -5t35 -3.5t32 -3z" />
<glyph unicode="D" horiz-adv-x="1140" d="M633 393q-34 37 -68 37q-27 0 -51 -24q-37 -39 -91 -65t-104 -26q-39 0 -76.5 42t-37.5 85q7 48 68 79.5t126 31.5q25 0 51 -7t38 -12t44 -20q5 5 16.5 15.5t24.5 23.5q-5 5 -19 23t-26 26t-30 8q-8 0 -25 -6t-24 -6q-47 0 -91.5 55.5t-44.5 110.5q0 26 27 44.5t57 18.5 q16 0 33.5 -10t34.5 -28.5t29 -32.5t27 -36t18 -26q5 4 14.5 11t13.5 10t10.5 7t11 5.5t9.5 1.5q12 0 22.5 -9t10.5 -20q0 -8 -4.5 -15.5t-7.5 -10.5t-14 -11.5t-13 -9.5q27 -37 41 -37q11 0 94 46.5t117 46.5q29 0 48 -19t19 -47q0 -44 -61 -79.5t-117 -35.5q-11 0 -34 5.5 t-35 5.5q-35 0 -60 -45q6 -3 25 -14.5t30 -17t26 -11t26 -5.5q16 0 88 38t102 38q44 0 90.5 -25t46.5 -57q0 -54 -44.5 -84t-110.5 -30q-29 0 -86 17t-78 17q-33 0 -83.5 -43.5t-86.5 -89.5q63 -28 184 -28q58 0 92 45q23 -20 23 -31q0 -23 -17.5 -40t-42 -25t-44 -11.5 t-31.5 -3.5q-35 0 -107.5 14.5t-103.5 14.5q-34 0 -145 -51.5t-146 -51.5q-42 0 -75.5 31t-33.5 76q0 30 17 52t46.5 33t61 16t66.5 5q28 0 84 -11t82 -11q10 0 26 10t36.5 27.5t38 34.5t40 39t33.5 32zM268 436q16 -53 66 -53q41 0 89 26.5t58 59.5q-79 18 -100 18 q-32 0 -68.5 -12t-44.5 -39zM377 190q-35 21 -76 21q-43 0 -87 -11.5t-44 -33.5q0 -11 12.5 -24t28.5 -13q21 0 46 7t38 13t45 22t37 19zM805 420q0 -15 36.5 -24t57.5 -9q23 0 45.5 8t22.5 25q0 18 -23 29.5t-45 11.5q-20 0 -94 -41zM723 598q10 -2 29 -2q68 0 90 49 q-21 0 -40 -7t-44 -21t-35 -19zM451 672q-14 48 -24.5 57.5t-41.5 9.5q1 -27 17.5 -42t48.5 -25z" />
<glyph unicode="E" horiz-adv-x="1198" d="M451 621q-55 0 -78 -14.5t-23 -45.5q0 -23 13 -38t39.5 -20.5t46 -7t51.5 -1.5t55 32t23 64q0 53 -35 92t-83.5 55.5t-101.5 16.5q-86 0 -140 -51.5t-54 -133.5q0 -94 79.5 -161.5t176.5 -67.5q51 0 100.5 16.5t90.5 40t81.5 47t90.5 40t102 16.5q37 0 62.5 -28t25.5 -66 q0 -52 -41.5 -82.5t-93.5 -30.5q-6 0 -19 3t-20 3q-3 0 -11 -4q3 -37 41 -37q74 0 143.5 66.5t69.5 130.5q0 53 -33.5 113.5t-74.5 60.5q-26 0 -73 -42t-73 -42q-23 0 -46 29t-23 65q0 23 26 44.5t54 21.5q29 0 53 -46q9 4 20.5 10.5t18.5 9.5t17 6t20 3q45 0 80 -30 t53 -72.5t26.5 -77.5t8.5 -55q0 -77 -82 -165.5t-172 -88.5q-49 0 -89 29.5t-40 70.5q0 30 27 52t69 22q6 -1 21.5 -4.5t23.5 -3.5q17 0 30 9t13 25q0 18 -12 26.5t-27 8.5q-53 0 -115.5 -31t-107.5 -71q-38 -33 -109.5 -51.5t-113.5 -18.5q-124 0 -217 88.5t-93 210.5 q0 48 15 92t45 82t82.5 61t120.5 23q61 0 122.5 -25.5t107.5 -80t46 -125.5q0 -74 -52 -120t-136 -46q-67 0 -113.5 37t-46.5 90q0 57 38.5 94t84.5 37q40 0 75 -25.5t35 -62.5q0 -33 -22.5 -57.5t-54.5 -24.5q-41 0 -41 43q0 9 1 16t2 11.5t6.5 10t7.5 8t11.5 10.5t14.5 12 zM825 633q-20 12 -28 12q-19 0 -19 -14q0 -11 7 -16t14 -5q13 0 26 23z" />
<glyph unicode="F" horiz-adv-x="960" d="M496 838q-121 -8 -185.5 -47t-99.5 -129q-27 -71 -25 -113q1 -27 14.5 -52.5t33 -45.5l39 -40t33 -46.5t13.5 -55.5q0 -46 -37.5 -81t-84.5 -35q-40 0 -67.5 24t-27.5 62q0 19 9 37t22 18t23 -16.5t20.5 -33t24.5 -16.5q15 0 25 13.5t10 31.5q-2 35 -39 68 q-82 73 -82 170q0 98 51.5 179t134 125t174.5 44q93 0 181 -45.5t145 -127t57 -175.5q0 -88 -75.5 -149.5t-176.5 -61.5q-68 0 -131 48t-63 116q0 60 51.5 112t97.5 52q44 0 87.5 -34.5t43.5 -74.5q0 -41 -38.5 -64.5t-82.5 -23.5q-17 0 -33 10.5t-16 28.5t15 25.5t33 6.5 t33 3t15 18q0 16 -16.5 28.5t-32.5 12.5q-35 0 -60.5 -30t-25.5 -64q0 -44 44 -74t102 -30q60 0 114 41.5t54 97.5q-5 119 -86.5 199.5t-214.5 93.5z" />
<glyph unicode="G" horiz-adv-x="1046" d="M664 215q27 -61 98 -61q45 0 80 27.5t35 74.5q0 52 -44 92.5t-100 59t-108 18.5q-49 0 -88 -29.5t-67.5 -74.5t-57.5 -92t-73.5 -89t-100.5 -59q-6 -2 -23 -2q-48 0 -80.5 24.5t-32.5 63.5q0 40 35.5 69t73.5 29q22 0 36.5 -14.5t14.5 -38.5q0 -29 -29 -29q-7 0 -17.5 2 t-16.5 2q-23 0 -23 -16q0 -5 12.5 -13.5t16.5 -8.5q46 0 87.5 36t69 82t64.5 99.5t68 78.5q56 43 139 43q61 0 132.5 -29t125 -82.5t53.5 -113.5q0 -75 -66 -124.5t-133 -49.5q-55 0 -114.5 43.5t-59.5 102.5q0 54 41.5 104.5t89.5 50.5q23 0 51.5 -48.5t28.5 -68.5 q0 -37 -26 -56t-51 -19q-14 0 -30 6.5t-16 19.5q0 12 7 21.5t13 13t23.5 10.5l22.5 9q-8 9 -20 24.5t-15 18.5q-45 -29 -45 -62q0 -20 19 -45z" />
<glyph unicode="H" horiz-adv-x="1099" d="M879 360q23 1 32 12.5t9 37.5q0 38 -25 60t-59 22q-42 0 -95.5 -24.5t-89.5 -57.5q-26 -24 -50.5 -66t-45 -78t-51.5 -71t-84.5 -55.5t-128.5 -20.5q-72 0 -130.5 46.5t-58.5 117.5q0 72 57 132t111 60q45 0 84 -29.5t39 -70.5q0 -53 -34.5 -85t-92.5 -32q-17 0 -31 13 t-14 28q0 16 14.5 24.5t32.5 11t32.5 9.5t14.5 21t-15 23t-30 9q-34 0 -65 -36t-31 -68q0 -53 44 -78t99 -25q68 0 138 39q25 14 71.5 99.5t67.5 111.5q95 115 252 115q46 0 89.5 -26t43.5 -66q0 -10 9 -30.5t9 -29.5q0 -39 -41 -77.5t-79 -38.5q-28 0 -48 21t-20 52 q0 18 7.5 33t17.5 15q5 0 10 -3.5t10 -9.5t9 -11.5t9 -13.5t7 -10z" />
<glyph unicode="I" horiz-adv-x="1536" d="M1133 453q-22 -11 -50 -11q-66 0 -130 35t-64 88q0 35 30.5 66t73.5 31q55 0 108 -38.5t79 -91.5q4 -8 14 -18q6 1 31.5 6t39.5 8t37 12t35.5 19.5t22.5 28.5t10 41q0 47 -24 47q-8 0 -36.5 -8.5t-41.5 -8.5q-99 0 -99 70q0 33 32.5 52.5t62.5 19.5q40 0 90 -35 q6 22 10 32.5t12.5 19.5t20.5 9q13 0 23 -12.5t10 -26.5q0 -8 -5.5 -19t-15 -25t-12.5 -19q37 -53 37 -92q0 -65 -64 -112.5t-160 -61.5q-2 -11 -6.5 -42.5t-7 -46.5t-9.5 -41t-15.5 -40.5t-22 -29.5t-31.5 -23q-77 -34 -134.5 -51t-121.5 -17q-83 0 -211 51 q-10 -7 -46.5 -34t-57 -41t-53 -28t-58.5 -14q-21 0 -39 11q-295 169 -295 354q0 120 84 264.5t172 200.5q89 57 226 57q70 0 111 -12.5t112 -65.5q62 46 95.5 58t103.5 12q28 0 50.5 -27.5t22.5 -60.5q0 -48 -44 -73t-101 -25q-15 0 -28 2.5t-36.5 9t-33.5 8.5 q-28 -57 -51 -80.5t-64 -23.5q-35 0 -70 22t-35 60q0 10 6.5 22t18.5 12q21 0 47 -27.5t33 -27.5q15 0 25 19.5t10 44.5q0 96 -160 96q-154 0 -227 -70q-83 -82 -144 -189.5t-61 -199.5q0 -43 31.5 -97t76 -97.5t94.5 -74t85 -30.5q17 0 34 6.5t29.5 14.5t38.5 26t47 31 q-95 83 -123 116q-59 69 -59 140q0 45 17.5 79.5t42 50.5t44 23t31.5 7q72 0 125 -52.5t53 -123.5q0 -38 -22.5 -109t-22.5 -92q0 -26 71.5 -45t123.5 -19q44 0 85 7.5t82.5 25.5t67 54t25.5 87q0 31 -8 52zM635 322q3 14 12 54t13 66t4 52q0 44 -28 75t-83 31 q-27 0 -45.5 -27.5t-18.5 -56.5q0 -61 41 -113t105 -81zM1118 508q-40 82 -110 82q-37 0 -47 -35q18 -22 46 -33t49 -12.5t62 -1.5zM866 874q31 -16 64 -16q74 0 74 35q0 25 -41 25q-25 0 -52.5 -12t-44.5 -32zM1255 733q0 -8 1 -9t10 -1q20 0 20 10h-31z" />
<glyph unicode="J" horiz-adv-x="1347" d="M1235 459q-6 3 -43.5 21.5t-54 25.5t-43 15.5t-43.5 8.5q-64 0 -114 -49t-50 -116q45 63 90 63q115 0 115 -129q0 -54 -29 -99.5t-82 -45.5q-6 0 -13.5 1.5t-14 3.5t-15.5 6t-15 6.5t-16 9t-15.5 9.5t-17 10.5t-16 10.5t-16.5 11.5t-15 10.5q-48 -26 -104 -26 q-54 0 -104 18.5t-70 57.5q-9 19 -46 44t-46 33q-8 7 -25 24t-26 24t-23 17.5t-28 14.5t-29 4q-57 0 -106.5 -17.5t-49.5 -55.5q0 -28 23 -49t57 -21q24 0 55.5 17.5t36.5 17.5q12 0 21.5 -5.5t9.5 -13.5q0 -36 -43 -55.5t-82 -19.5q-53 0 -99.5 38t-46.5 85t40 81t91 48 t101 14q18 0 32.5 -3t29.5 -12t24 -16t28 -23.5t31 -25.5q1 4 4 13q10 34 15.5 49.5t17 38.5t23 33t30 18t43.5 8q49 0 90 -42.5t41 -101.5q0 -55 -29 -80.5t-104 -50.5q-1 -1 -3 -4t-3 -4q9 -21 46 -32t69 -11q33 0 63.5 12.5t34.5 42.5q15 119 61 175.5t156 93.5 q12 4 23 4q40 0 114 -42.5t74 -55.5q0 -10 -10 -33zM543 446q0 -77 49 -77q31 0 60.5 23.5t29.5 43.5q0 30 -18.5 62t-47.5 32q-35 0 -54 -25t-19 -59zM885 274q23 -32 44.5 -47.5t51.5 -15.5q59 0 59 72q0 33 -14 55t-37 22q-17 0 -32.5 -11.5t-40.5 -40t-31 -34.5z" />
<glyph unicode="K" horiz-adv-x="1316" d="M1090 305q30 5 41.5 12.5t11.5 24.5q0 15 -13.5 55.5t-13.5 51.5q0 12 11.5 20t25.5 8q26 0 43.5 -40.5t17.5 -86.5q0 -60 -27 -82.5t-91 -36.5q-7 -107 -36.5 -173.5t-119.5 -139.5q-48 -39 -109 -39q-63 0 -116 41.5t-53 102.5q0 69 69 123.5t135 54.5q23 0 41.5 -23 t18.5 -51q0 -50 -30.5 -88.5t-66.5 -38.5q-38 0 -38 39q0 26 26.5 44t26.5 40q-42 -2 -76.5 -29t-34.5 -65q0 -40 30.5 -64t76.5 -24q65 0 128.5 77t63.5 152q0 31 -4 46t-15.5 20t-24 4.5t-37 1.5t-48.5 10q-34 12 -111 51t-94 39q-19 0 -49 -35q-59 -70 -139 -119 t-154 -49q-58 0 -114.5 20.5t-98 68t-41.5 110.5q0 46 10.5 98.5t31.5 105.5t61 87.5t92 34.5q45 0 67.5 -1t54 -6t49 -15.5t35.5 -30.5t29 -50q3 -8 11 -30.5t12 -31t15.5 -24.5t24.5 -22.5t36 -12.5t53 -6q26 0 86 26.5t96 26.5q147 0 193 -106q25 -63 31 -76zM475 496 q-8 30 -22.5 51t-27 31t-35.5 14.5t-32 5t-32 0.5q-51 0 -101.5 -55t-50.5 -152q0 -90 46.5 -132t119.5 -42q80 0 142.5 41.5t131.5 116.5q-14 4 -31 11t-28 11t-18 4q-13 0 -94 -39.5t-111 -39.5q-24 0 -54 22.5t-30 50.5q0 21 9.5 38t21.5 27.5t34.5 17.5t38 10.5 t42.5 5.5t37.5 2h32.5h11zM1014 309q-13 52 -53 83.5t-87 31.5q-51 0 -90 -33q104 -82 230 -82zM354 410v-13q2 0 10 1t11 1.5t8.5 2t7.5 4.5t2 8q-28 -4 -39 -4z" />
<glyph unicode="L" horiz-adv-x="1843" d="M1024 346q9 7 31 24.5t35 27.5t32 22t35 18t31 6q38 0 81.5 -32t43.5 -62q0 -37 -7.5 -77.5t-21.5 -51.5q-88 -45 -139 -45q-77 0 -137 80q-57 -41 -96 -66t-93.5 -52t-111.5 -39.5t-119 -12.5q-104 0 -213 41q-100 38 -186.5 140.5t-86.5 178.5q0 79 49 143.5t122.5 98 t150.5 33.5q6 0 17 -1t16 -1q8 0 26 2t27 2q74 0 149.5 -39.5t127 -110.5t51.5 -149q0 -80 -81 -131t-163 -51q-47 0 -78.5 13t-71.5 42q-16 12 -67.5 25.5t-86 34.5t-34.5 59q0 11 10 19.5t21 8.5q15 0 42 -23.5t40 -23.5q13 82 47 113t98 31q31 0 54.5 -26.5t23.5 -65.5 q0 -17 -8 -32.5t-26 -31t-26 -21t-28 -18.5q44 -35 86 -35q68 0 124 33t56 88q0 68 -52.5 122t-119.5 79.5t-127 25.5q-50 0 -100.5 -11.5t-96 -34.5t-74 -63.5t-28.5 -92.5q0 -58 31.5 -110t80 -88t107 -62.5t113.5 -39t98 -12.5q53 0 105 16.5t86 34.5t108 62q18 10 27 16 q37 20 37 76q0 94 75.5 172t171.5 78q85 0 160 -39.5t131 -107.5q16 -20 24.5 -53t11.5 -59t17 -47.5t41 -25.5q7 -1 27.5 -4t38 -6t36.5 -7t30.5 -9t11.5 -11q0 -26 -45 -26q-51 0 -152 18q-7 -9 -27.5 -39t-32.5 -44t-32 -34t-41.5 -29t-46.5 -9q-26 0 -41.5 25t-15.5 65 q0 71 50.5 106t131.5 35q0 3 3 15t3 18q0 63 -49 112t-110.5 71t-116.5 22q-71 0 -134 -48t-63 -127q0 -10 2 -16zM1059 293q34 -55 98 -55q38 0 65 20.5t27 54.5q0 47 -59 47q-64 0 -131 -67zM1470 236q-102 -6 -102 -54q0 -16 10 -39q36 3 57 24.5t35 68.5zM444 399 q43 10 52.5 19t11.5 37q-28 4 -35 4q-33 0 -33 -31q0 -9 4 -29z" />
<glyph unicode="M" horiz-adv-x="1742" d="M682 754q9 -4 38 -21t47.5 -25t33.5 -8q12 0 26 7q58 30 137 55.5t121 25.5q104 0 178 -77.5t74 -186.5q0 -50 -24 -137q34 -19 82 -29t82 -10q47 0 70.5 22t23.5 58q0 16 -6 45.5t-6 42.5q0 29 36 29q26 0 34.5 -9.5t8.5 -31.5q-2 -14 -2 -41q0 -11 2 -33t2 -33 q0 -54 -58.5 -84t-119.5 -30q-85 0 -174 36q-72 -85 -96 -112q22 -38 68.5 -64t91.5 -26q38 0 62.5 22t51.5 68q29 -26 29 -53q0 -48 -46.5 -74.5t-90.5 -26.5q-58 0 -113 21t-90 63q-6 9 -18 17q-22 -9 -64 -31.5t-71.5 -33.5t-59.5 -11q-33 0 -62 6.5t-56.5 22t-43.5 46.5 t-16 74q0 66 42 104t97 38q30 0 68 -13.5t60.5 -25.5t65.5 -39t50 -31q62 68 76 82q-15 9 -414 254q-131 -103 -233 -145.5t-234 -42.5q-96 0 -168 84.5t-72 175.5q0 65 45 134.5t95 94.5q125 61 272 61q58 0 129.5 -41t71.5 -79q0 -9 -1.5 -17t-6 -18t-6.5 -15t-9.5 -18 t-9.5 -16zM604 774q29 26 29 45q0 28 -44.5 49t-84.5 21q-59 0 -113 -11.5t-102.5 -36t-77.5 -69.5t-29 -104q0 -78 56 -128.5t147 -50.5q100 0 196 40.5t158 115.5q-8 4 -26 15t-27.5 16.5t-21.5 10.5t-19 5q-11 0 -76 -39t-100 -39q-51 0 -92 31.5t-41 77.5 q0 41 31.5 69.5t83.5 28.5q21 0 45 -7t60.5 -21.5t47.5 -18.5zM1247 408q4 14 10 33.5t9 30t5.5 26t2.5 30.5q0 84 -54.5 133.5t-127.5 49.5q-100 0 -215 -76q252 -164 370 -227zM1083 211q-48 41 -91.5 63.5t-94.5 22.5q-29 0 -49.5 -19.5t-20.5 -54.5q0 -27 33 -49t78 -22 q41 0 81.5 16t63.5 43zM561 729q-90 13 -96 14q-31 0 -31 -28q0 -27 53 -27q36 0 74 41z" />
<glyph unicode="N" horiz-adv-x="1568" d="M641 326q18 52 61 89.5t95 37.5q30 0 71 -45t41 -86q0 -33 -39.5 -85.5t-85.5 -52.5q-12 0 -28.5 3.5t-37 8.5t-30.5 7q-2 -8 -2 -23q0 -45 44 -79.5t97.5 -49t100.5 -14.5q21 0 46.5 10.5t40 19.5t45 31t34.5 25q-9 16 -27.5 49t-29 52.5t-20 44.5t-9.5 44q0 37 34.5 74 t81.5 37q48 0 81.5 -43.5t33.5 -95.5q0 -18 -12 -57t-15 -54q18 -6 33 -6q43 0 83 40t61.5 93.5t21.5 99.5q0 38 -18.5 73t-52.5 64.5t-63.5 49t-68.5 41.5q-9 6 -41 6q-111 0 -168 -29q-123 -63 -282 -63q-71 0 -146 62t-75 136q0 48 61 96t123 48q58 0 89.5 -24.5 t31.5 -69.5q0 -40 -42 -78.5t-81 -38.5q-22 0 -38.5 15t-16.5 34q0 14 16.5 19t36.5 5t36.5 11.5t16.5 36.5q0 10 -11.5 18t-25.5 8q-45 0 -88 -25.5t-43 -54.5q0 -55 53 -97t105 -42q65 0 205 49t204 49q76 0 154 -41.5t131 -113t53 -148.5q0 -117 -79 -209t-173 -92 q-33 0 -73 -19t-72 -41.5t-73 -41.5t-74 -19q-56 0 -110.5 16t-101.5 46.5t-75.5 82t-28.5 116.5q0 19 -21 43t-60 56.5t-52 45.5q-27 25 -52.5 33t-72.5 8q-182 0 -182 -103q0 -30 20 -47.5t56 -17.5q62 0 125 63q13 13 22 13t18 -10.5t9 -18.5q0 -44 -61 -76t-119 -32 q-60 0 -97 38.5t-37 98.5q0 46 24.5 79t65.5 49t82 22.5t86 6.5q44 0 78.5 -9t69 -33t55.5 -43t64 -62zM684 291q55 -35 82 -35q20 0 47 19.5t27 46.5q0 23 -17.5 41t-42.5 18q-17 0 -32 -9.5t-22.5 -18.5t-22 -32t-19.5 -30zM1143 195q31 45 31 88q0 27 -16.5 48t-41.5 21 q-21 0 -30 -13t-9 -28q0 -33 20 -69.5t46 -46.5z" />
<glyph unicode="O" horiz-adv-x="2353" d="M813 647q-51 63 -72.5 120.5t-21.5 133.5q0 39 29 65.5t69 26.5q59 0 97 -56.5t38 -111.5q0 -27 -17 -82.5t-17 -72.5q0 -52 92 -52q43 0 106.5 42.5t63.5 68.5t-35 113.5t-35 132.5q0 75 51 123.5t109 48.5q51 0 81.5 -29t30.5 -80q0 -141 -92 -278q-12 -21 -12 -33 q0 -32 51.5 -60t87.5 -28q65 0 107 51q-3 11 -13 41t-15 51.5t-5 40.5q0 53 47.5 124t87.5 71q31 0 55.5 -47.5t24.5 -87.5q0 -13 -1 -25t-4.5 -25.5t-5.5 -22.5t-9 -25t-9.5 -22t-12 -24t-11.5 -22.5t-13.5 -25t-13.5 -23.5q9 -37 35 -58.5t61 -21.5q54 0 109 49 q-1 13 -8.5 55t-7.5 64q0 56 39 101.5t94 45.5q33 0 53 -34.5t20 -71.5q0 -104 -100 -187q0 -23 15.5 -40t40 -25t48 -11.5t46.5 -3.5q38 0 74 31.5t36 59.5q0 26 -35 53q-5 -2 -16 -7.5t-20 -8.5t-17 -3q-11 0 -21 9.5t-10 21.5q0 25 24.5 41t51.5 16q53 0 83 -37.5 t30 -82.5q0 -67 -66 -118.5t-125 -51.5q-62 0 -109.5 28t-92.5 80q-15 -6 -37.5 -17t-35 -16.5t-30 -10.5t-33.5 -5q-46 0 -79 26t-80 87q-10 -5 -32 -17t-33.5 -17.5t-28.5 -12.5t-32 -10t-30 -3q-14 0 -28 3t-24.5 5.5t-24.5 11t-20.5 12t-22 16.5t-19.5 16.5t-22 20.5 t-21 20q-15 -12 -44 -37t-43.5 -35.5t-38 -25t-47 -20t-51.5 -5.5q-27 0 -68 18.5t-52 18.5q-15 0 -51.5 -27t-83 -54.5t-84.5 -27.5q-23 0 -78.5 15.5t-69.5 15.5q-18 0 -43 -14q-90 -54 -215 -54q-25 0 -49.5 18.5t-40.5 24.5q-32 11 -48 41.5t-16 65.5q0 36 29 64t66 28 q17 0 34 -10.5t17 -28.5q0 -11 -11.5 -18.5t-25.5 -11t-25.5 -11.5t-11.5 -20q0 -25 42 -49.5t75 -24.5q106 0 153 57q-10 15 -26 37.5t-23 33.5t-15.5 28.5t-11.5 35t-3 39.5q0 52 20 99t55 47q15 0 28 -2t25 -8.5t21 -11t19 -16.5t15 -17.5t14.5 -22t12.5 -21.5t13 -24 t12 -23q10 -23 10 -39q0 -32 -39 -112q26 -33 80 -33q46 0 93 25.5t69 68.5zM1235 788q60 78 78 205q0 35 -16.5 56.5t-41.5 21.5q-37 0 -58 -31t-21 -73q0 -80 59 -179zM502 618q26 36 26 74q0 36 -20 78.5t-55 42.5q-12 0 -17.5 -29.5t-5.5 -48.5q0 -74 72 -117zM1583 731 q27 23 47.5 70.5t20.5 85.5q0 19 -8 32t-23 13q-18 0 -42 -33t-24 -59q0 -71 29 -109zM813 920q-20 -26 -20 -68q0 -35 16 -69t43 -54q22 39 22 80q0 35 -16.5 65.5t-44.5 45.5zM1882 674q32 13 53 45t21 61q0 20 -9 33.5t-22 13.5q-19 0 -38 -22.5t-19 -50.5 q1 -9 6.5 -36.5t7.5 -43.5z" />
<glyph unicode="P" horiz-adv-x="1607" d="M1384 1001q-4 -5 -9.5 -13.5t-9 -13.5t-9.5 -9t-13 -4q-26 0 -45.5 23t-19.5 52q0 28 23 47t55 19q63 0 104 -46.5t41 -101.5q0 -63 -21 -107t-59.5 -66t-81.5 -31t-98 -9q-12 0 -34.5 10.5t-30.5 10.5q-67 7 -186.5 54.5t-182.5 55.5q-18 2 -55.5 7t-67.5 7.5t-57 2.5 q-191 0 -297 -49q-50 -23 -80.5 -46t-45 -49.5t-18.5 -49t-4 -58.5q0 -60 26 -105t85 -96q32 -28 69 -28q18 0 28 1t25.5 4.5t24.5 13.5t11 26q5 46 12 79t21 69.5t38.5 55.5t57.5 19q39 0 67.5 -18t28.5 -54q0 -40 -15.5 -75t-33 -55t-56.5 -59l-12 -12q-16 -16 -16 -30 q0 -37 26.5 -62.5t66 -35.5t65.5 -13.5t44 -3.5q99 0 156.5 28.5t93.5 96.5q-5 14 -18.5 48.5t-20 52.5t-12.5 44t-6 47q0 47 27.5 85t70.5 38q44 0 71.5 -36.5t27.5 -77.5q0 -13 -1.5 -26.5t-5.5 -30t-6 -26t-9 -30t-9 -26t-11 -29t-10 -25.5q33 -42 85 -68t100 -26 q62 0 112 45.5t50 103.5q0 11 -20.5 37.5t-20.5 46.5q0 13 10.5 22t21.5 9q34 0 59 -48.5t25 -82.5q0 -51 -46 -99.5t-102.5 -75t-96.5 -26.5q-17 0 -33 2t-33.5 9t-28 11t-31.5 17.5t-27.5 17.5t-32 22t-30.5 22q-66 -80 -129 -115t-141 -35q-103 0 -162 28.5t-145 133.5 q-81 -12 -98 -12q-71 0 -133.5 48.5t-98 127t-35.5 164.5q0 67 37 121t91 85.5t122.5 52.5t125 28.5t104.5 7.5q83 0 178.5 -11t152.5 -30q32 -11 100.5 -39.5t121 -45.5t92.5 -20q100 0 149 29t49 100q0 39 -41 53zM1028 481q4 0 7 4t6 11.5t5 15t3.5 18.5t3 18.5t3 18 t1.5 13.5q0 11 -7 21.5t-18 10.5q-28 0 -28 -51q0 -43 24 -80zM520 481q60 48 60 90q0 5 -5 25q-14 -7 -23 -15.5t-14 -22t-7.5 -22t-5.5 -28t-5 -27.5z" />
<glyph unicode="Q" horiz-adv-x="1851" d="M1006 420q-93 -145 -93 -240q0 -37 16.5 -52t53.5 -15q52 0 88 24q-22 55 -22 76q0 37 25.5 64.5t53.5 27.5t54 -25.5t26 -54.5q0 -34 -39 -98q25 -23 36.5 -33t34.5 -21.5t46 -11.5q72 0 189 23q38 8 78.5 51.5t68.5 93.5t46 90t18 48q0 15 -7.5 26.5t-27 32t-33.5 39.5 q19 8 41 8q90 0 90 -94q0 -20 -6.5 -43t-24 -53.5t-27 -47t-36 -56t-31.5 -46.5q-26 -40 -64.5 -66.5t-88.5 -39.5t-89 -17.5t-98 -7.5q-32 0 -53 9t-53 33t-52 36q-22 -3 -60.5 -10.5t-67 -12t-52.5 -4.5q-47 0 -71.5 31t-24.5 86q0 32 8 68.5t15.5 58t27 67t25.5 62.5 q-24 4 -134 32.5t-169 28.5q-14 0 -39 -20.5t-49.5 -45t-61 -45t-70.5 -20.5q-120 0 -210.5 85t-90.5 202q0 73 38 160.5t89 124.5q69 43 179 110q74 45 221 45q25 0 48.5 -4t51.5 -15.5t41.5 -17t48.5 -24.5t43 -23q88 -46 132 -158t44 -229q0 -18 -8 -56t-8 -58 q0 -29 125 -29h28.5h31.5t26.5 1t29.5 4t24.5 7.5t27 11.5t22.5 17q24 21 91.5 56.5t78.5 35.5q26 0 35.5 -9.5t9.5 -33.5q0 -31 -28 -35q-29 0 -62 -18t-58.5 -39t-63.5 -39t-76 -18q-43 0 -128.5 5t-129.5 5zM944 481q31 49 31 125q0 279 -199 377q-103 49 -188 49 q-32 0 -64.5 -8.5t-53.5 -18.5t-56.5 -28.5t-53.5 -26.5q-84 -40 -144 -123.5t-60 -173.5q0 -87 61 -159t164 -72q99 0 149 94q-75 38 -126.5 94t-51.5 127q0 41 30 67.5t85 26.5q84 0 117.5 -16t56.5 -70q27 -62 27 -110q0 -17 -5.5 -44.5t-7.5 -45.5q54 -11 151.5 -33.5 t137.5 -30.5zM608 639q-17 79 -40 111t-83 32q-30 0 -48.5 -13.5t-18.5 -39.5q0 -61 52 -108.5t108 -47.5q13 0 19 15t11 51zM1143 217q-5 0 -7.5 -2t-3.5 -4t-1.5 -8t-0.5 -8q9 0 13 22z" />
<glyph unicode="R" horiz-adv-x="1871" d="M807 518q65 -39 82 -39q26 0 87 35t101 35q38 0 64.5 -9.5t50 -39.5t34 -48.5t36.5 -74.5l6 -12q75 19 117.5 45t72.5 82q13 22 33 22q13 0 25 -12.5t12 -26.5q0 -21 -77 -82t-126 -78q-5 -2 -37 -6q-2 -21 -6 -60.5t-6 -60.5q37 -22 80 -22q59 0 118.5 22t102.5 62 q12 12 20 16q117 57 117 242q0 63 -19.5 123t-63.5 103.5t-103 43.5q-69 0 -84 -35q-2 -4 -6.5 -6t-12.5 -4.5t-10 -3.5q-12 29 -12 31q0 36 38.5 57t76.5 21q60 0 110 -36.5t79.5 -93t45.5 -118.5t16 -119q0 -59 -28 -133.5t-68 -93.5q-24 -11 -58.5 -42t-47.5 -36t-50 -19 t-59 -22t-50 -15.5t-44 -7.5q-22 0 -102 23q-73 -116 -103 -150q-75 -84 -176 -84q-52 0 -92.5 44.5t-40.5 97.5q0 72 77 138.5t138 66.5q20 0 50.5 -7t65.5 -18t50 -14q1 26 6 96q-29 10 -45 12q-87 10 -238 78q-35 14 -43 14q-9 0 -35.5 -26.5t-64.5 -61t-70 -47.5 q-23 -9 -95.5 -45t-124.5 -51.5t-113 -15.5q-126 0 -216 95t-90 218q0 87 43 160.5t109 118.5t139 69.5t139 24.5q87 0 185 -76t98 -156q0 -12 -4 -41t-4 -47zM748 563q8 32 8 43q0 48 -41.5 88.5t-94.5 61t-96 20.5q-84 0 -168 -40t-140 -112.5t-56 -154.5 q0 -113 77.5 -182.5t186.5 -69.5q58 0 117 18.5t116 53t99.5 66.5t95.5 77q-71 39 -84 45q-15 -6 -29 -16q-47 -27 -73.5 -40.5t-69 -26.5t-80.5 -13q-55 0 -100 21.5t-45 68.5q0 39 43.5 76t97.5 57.5t92 20.5q15 0 28.5 -2.5t29 -10t24.5 -12t30.5 -18t31.5 -19.5z M1217 145q-106 27 -132 27q-64 0 -119 -45.5t-55 -112.5q0 -28 20 -44.5t56 -16.5q71 0 135.5 55.5t94.5 136.5zM700 520q-42 39 -104 39q-47 0 -89 -23t-63 -63q30 -27 88 -27q48 0 95.5 20t72.5 54zM1217 358q-13 61 -49 95t-83 34q-57 0 -112 -49q27 -23 59 -37t80 -27.5 t66 -19.5q2 -2 8 -2q1 0 31 6z" />
<glyph unicode="S" horiz-adv-x="1490" d="M817 532q38 41 91 69t104 28q56 0 98.5 -33.5t42.5 -75.5q0 -30 -11 -49t-33 -27.5t-42 -11t-51 -2.5q-35 0 -91.5 8t-64.5 8q-30 0 -61 -30t-31 -62q19 -23 29.5 -34t28.5 -22t36 -11q22 0 49.5 22.5t40.5 22.5q5 0 11 -1t13 -2.5t11 -2.5q-10 -52 -45 -78.5t-82 -26.5 q-15 0 -27 1.5t-24 6.5t-18.5 7.5t-18 12.5t-14.5 13l-16.5 16.5l-16.5 16.5q-14 18 -31 18q-16 0 -67 -15t-68 -15q-43 0 -78 29.5t-35 78.5q0 30 31 47t66 17q21 0 46 -6.5t66 -22.5t54 -20q8 13 22 33.5t21 31.5q-17 7 -61.5 31t-79 38.5t-56.5 14.5t-69.5 -9t-71.5 -9 q-40 0 -90.5 9.5t-101.5 27t-85.5 49t-34.5 69.5q0 53 37 81t86 28q40 0 174 -80t174 -80q98 0 265 123q-11 21 -56.5 45t-83 37.5t-41.5 13.5q-15 0 -28 -8q-40 -25 -148 -25q-49 0 -110.5 47.5t-61.5 98.5q0 38 36 66t75 28q24 0 48 -5.5t53 -20.5t44.5 -23.5t51.5 -32 t45 -29.5q14 13 43 41t45 43q-94 38 -132 63t-71 77q-6 12 -6 22q0 16 6.5 31.5t17.5 15.5q7 0 18 -6t15 -16q9 -18 22 -33t23.5 -24.5t31.5 -20t30 -14.5t36 -14t33 -13q12 -4 17 -4q10 0 31.5 14.5t39.5 32.5q42 39 129 39q27 0 50.5 -33.5t23.5 -64.5q0 -34 -26.5 -56.5 t-53.5 -29.5t-51 -7q-16 0 -44.5 5.5t-41.5 5.5q-14 0 -26.5 -4t-26 -15t-22 -19t-26 -26.5t-26.5 -27.5q59 -51 190 -99q16 12 25 21q62 67 161.5 120.5t164.5 53.5q52 0 89.5 -38t37.5 -89q0 -46 -28.5 -85.5t-72.5 -49.5q-8 -2 -67 -22.5t-103 -20.5q-26 0 -77 14t-78 14 q-36 0 -94 -29t-119 -66t-86 -46q9 -15 29.5 -26.5t34.5 -16t48 -12t41 -9.5zM993 815q18 -37 129 -37q62 0 131.5 30t69.5 77q0 26 -23.5 40.5t-48.5 14.5t-53.5 -8.5t-62 -26.5t-52 -29.5t-53.5 -35.5t-37 -25zM449 614q-21 12 -75 48t-88.5 54.5t-56.5 18.5 q-20 0 -35.5 -12.5t-15.5 -30.5q0 -34 72.5 -60t134.5 -26q33 0 64 8zM582 918q-27 35 -65 54t-77 19q-35 0 -55 -10q7 -39 39 -61.5t76 -22.5q42 0 82 21zM901 504h184q-23 38 -30.5 43.5t-34.5 5.5q-30 0 -63 -13t-56 -36zM528 385q9 -37 29 -37q11 0 59 23q-37 22 -57 22 q-11 0 -31 -8zM985 1096q-23 18 -27 18q-1 0 -7 -1.5l-8 -2t-7.5 -2t-7.5 -2.5t-7 -3t-7.5 -3.5t-6.5 -4.5t-6.5 -5.5t-5.5 -6.5l-6 -8q8 -2 26 -2q37 0 70 23z" />
<glyph unicode="T" horiz-adv-x="2197" d="M344 848q10 2 33.5 5t39 6t33 9.5t26.5 18t9 28.5q0 29 -59 29q-87 0 -153.5 -56t-67.5 -138q0 -7 -2 -15.5t-6.5 -20.5t-6.5 -18q16 -32 76 -52.5t109 -20.5q167 0 323 73q482 225 852 346q70 23 150 23q91 0 170 -29.5t166 -87.5q59 -41 59 -139q-1 -65 -26.5 -102 t-96.5 -99q-53 -47 -106 -47q-45 0 -100.5 23t-55.5 57q0 51 64 51q12 0 40 -9t41 -7q36 0 69.5 35.5t33.5 62.5q0 31 -84 31q-111 0 -215 -43q-122 -49 -425.5 -177t-471.5 -194q-81 -31 -150 -31q-10 0 -31.5 2.5t-31.5 2.5q-6 0 -18.5 -1.5t-18.5 -1.5q-26 0 -51.5 4 t-44 8t-45.5 17t-39.5 18.5t-42.5 25.5t-38.5 25.5t-44 32t-42.5 31.5q-39 24 -49.5 62t-10.5 104q0 139 95 238.5t231 99.5q43 0 79 -31t36 -75q0 -57 -55 -106.5t-97 -49.5q-27 0 -38 19.5t-11 62.5z" />
<glyph unicode="U" horiz-adv-x="874" d="M453 473q-62 -56 -62 -117q0 -16 16.5 -54.5t16.5 -63.5t-18.5 -39.5t-45.5 -14.5q-33 0 -49 30.5t-16 76.5q0 19 8.5 43t17.5 39.5t28.5 47t27.5 44.5q-20 -6 -64 -20t-74 -21.5t-51 -7.5q-43 0 -64.5 23.5t-21.5 54.5q0 24 20.5 51.5t49.5 27.5q15 0 32.5 -19.5 t37.5 -39.5t41 -20q8 0 16 2t18.5 8t15.5 9.5t20.5 15t19.5 14.5q-11 5 -35.5 10.5t-41.5 14.5t-28 26q-4 7 -15 23.5t-16.5 25.5t-10.5 24.5t-5 30.5q0 42 41 115q-10 0 -25 -1t-22 -1q-3 0 -16.5 2t-18.5 3t-14 4t-12.5 8t-3.5 12q0 32 184 32q38 0 115 -3t116 -3 q13 0 41 1t41 1q101 0 107 -73q2 -20 6.5 -67t7 -81.5t2.5 -66.5q0 -16 -1 -47t-1 -46q0 -37 1 -110.5t1 -110.5v-11v-12v-11.5t-1 -12t-2 -10.5t-3 -9.5t-5 -7t-7 -5t-9 -1.5q-26 0 -40.5 18.5t-14.5 43.5q0 1 4 41q-80 -39 -117 -39q-57 0 -94 51t-37 105q0 15 9 67z M688 748q-81 -81 -133.5 -174.5t-52.5 -182.5q0 -33 26.5 -63.5t53.5 -30.5q14 0 48 28.5t34 57.5q0 18 -15 36.5t-33 18.5q-7 0 -22.5 -6t-22.5 -6q-8 0 -16 10t-8 17q0 17 24 28t45 11q33 0 70 -29q19 36 19 141q0 91 -17 144zM449 807q6 -21 6 -39q0 -31 -29.5 -70 t-58.5 -39q-16 0 -37 35q55 31 68 49q8 11 8 23q0 15 -15 27t-31 12q-28 0 -59 -45.5t-31 -73.5q0 -36 28.5 -62t59.5 -26q73 0 150 56t135 132q-126 15 -194 21z" />
<glyph unicode="V" horiz-adv-x="1230" d="M537 221q-4 -3 -29 -22.5t-31 -24t-27 -19.5t-32 -22t-29 -18t-35 -19q-10 -5 -34.5 -17t-37 -18.5t-32 -18t-36.5 -23.5t-34 -27q-13 3 -29 24.5t-16 36.5q0 22 25.5 65.5t64.5 100t51 78.5q13 21 28.5 64t23.5 59q-13 12 -46 41t-60.5 54t-56.5 53.5t-46 50t-17 32.5 q0 12 6 16t20 9.5t26 17.5q15 -5 53.5 -20t60.5 -22.5t51.5 -15t49.5 -7.5q39 0 59.5 9.5t30.5 37.5q9 24 31.5 73t37 88.5t19.5 75.5q1 5 10 37q25 -4 37 -11t15 -15t9 -30t13 -40q18 -28 41.5 -91.5t46 -101.5t51.5 -38q115 0 287 63q24 8 30 8q24 0 41 -28 q-9 -39 -34 -75.5t-64 -67.5t-72.5 -53.5t-81 -51t-69.5 -43.5q41 -182 65 -297q5 -25 5 -29q0 -26 -19 -26q-55 0 -103.5 27t-78 60t-67.5 67t-72 44zM569 834q-1 1 -4.5 2t-5.5 2q-10 -26 -40 -106t-48 -126q18 -23 72 -84q15 28 22.5 68.5t8.5 65t1 73.5zM975 584 q-217 -76 -295 -113q11 -6 24 -15.5t21.5 -14.5t17.5 -5q37 2 72 18t54 31.5t54.5 50t51.5 48.5zM260 90q1 -1 3 -4t3 -4q40 23 92.5 80.5t67.5 70.5q13 12 44.5 36t50 40.5t18.5 24.5q0 4 -15 41q-21 -23 -118.5 -126t-145.5 -159zM647 430q81 -168 125 -264v16 q0 45 -9.5 93.5t-27.5 66.5q-24 21 -24 51q0 2 1 7.5t1 7.5q-17 5 -66 22zM238 584q0 -1 -1 -5t-1 -6q0 -9 34.5 -41t53.5 -47q16 -16 45 -16t59 23q-118 71 -190 92z" />
<glyph unicode="W" horiz-adv-x="1277" d="M797 586q29 -29 50 -39t58 -10q161 0 269 -54q-21 -8 -46 -8q-19 0 -87 9.5t-89 11.5q-49 0 -49 -21q12 -30 12 -57q0 -50 -31 -103t-75 -53q-58 0 -90.5 22.5t-32.5 61.5q0 49 35.5 96t99.5 84q-15 5 -32.5 13t-22.5 10q-64 -64 -123 -94.5t-135 -30.5q-43 0 -69.5 24 t-26.5 72q0 43 30.5 72.5t70 41t81.5 11.5q14 0 27.5 -1.5t28.5 -5t25 -6.5t29.5 -9t30.5 -9q13 13 40 42t42 44l-5 7.5t-5 7t-4 4.5q-30 20 -97 69.5t-111.5 80.5t-103 58t-102.5 27q-56 0 -110 -33t-54 -83q0 -29 26 -52.5t60 -23.5q8 0 15.5 1.5t15.5 5t13.5 6t15 9.5 t13.5 10t15.5 12t14.5 11q-4 -49 -38 -72.5t-75 -23.5q-62 0 -129.5 51t-67.5 102q0 101 62.5 145t161.5 44q78 0 148.5 -23t112 -49t111.5 -78q6 -5 35.5 -27t46 -34t41.5 -28.5t43 -24.5t29 -8q12 0 39 4t41 4q53 0 108 -20t66 -54q16 -48 27 -104q-11 -1 -27 -4t-23 -3 q-130 8 -196 37q-15 6 -31 6q-12 0 -26.5 -7.5t-23 -15t-27 -24.5t-25.5 -24zM707 575q-28 25 -72 25q-51 0 -97 -27t-46 -61q0 -21 14.5 -38t34.5 -17q46 0 95 35.5t71 82.5zM840 432q-3 -4 -23 -23.5t-27.5 -33t-7.5 -31.5q0 -12 2 -18q31 6 43.5 24t12.5 58v24z" />
<glyph unicode="X" horiz-adv-x="2285" d="M494 604q524 90 993 90q139 0 280 -24q176 -35 249 -64q167 -68 167 -198q0 -56 -16 -93.5t-58 -56.5q-7 -3 -31 -13t-38.5 -16t-36 -13.5t-38.5 -11t-30 -3.5q-35 0 -77 30q15 15 45 20t58 16.5t46 43.5q-254 92 -522 92q-74 0 -299 -18q-27 -2 -165.5 -7t-205.5 -18 q-115 -22 -250 -22q-463 0 -463 221q0 61 48 100.5t153 67.5q8 2 27 2q50 0 99 -34.5t65 -90.5zM451 604q-12 10 -30.5 28.5t-27 25.5t-24 13.5t-33.5 6.5q-119 0 -143 -66q40 -18 90 -18q23 0 71 5t74 5h23z" />
<glyph unicode="Y" horiz-adv-x="1007" d="M614 821q-43 -2 -86 -16t-101.5 -41.5t-86.5 -38.5q-15 -6 -33 -6q-54 0 -122 65t-76 113q-5 20 -5 51q0 84 38.5 155t109.5 71q30 -1 51.5 -4t46.5 -11t40 -21t25.5 -35.5t10.5 -53.5q0 -50 -19.5 -78t-68.5 -62q-17 -10 -31 -10q-20 0 -39 19q1 3 4.5 12t6 13.5t7.5 11 t12.5 9.5t18.5 3q37 7 60.5 36t23.5 66q0 53 -55 53q-119 -14 -119 -123q0 -44 21 -84t50 -64t55 -38t40 -14q9 0 90 25.5t127 25.5q65 0 168 -72t127 -123q-23 13 -69 45t-79 47t-69 15q-85 0 -159 -50.5t-115 -129.5q-8 -13 -8 -33q0 -74 59 -143.5t127 -69.5 q34 0 59 18.5t25 57.5q0 9 -8 49q31 -12 42 -31t11 -47q0 -39 -56.5 -105.5t-103.5 -66.5q-105 0 -191.5 84t-86.5 186q0 35 9.5 68t22.5 57.5t39 50t44.5 41.5t54 37.5t53.5 31t57 29z" />
<glyph unicode="Z" horiz-adv-x="1978" d="M399 377q123 33 123 94q0 27 -31.5 56.5t-78.5 29.5q-48 0 -101.5 -40t-87 -90t-33.5 -81q0 -42 117 -123q64 -43 158 -43q223 0 487 166q135 87 294 142.5t302 56.5q109 0 194.5 -49.5t123.5 -145.5q10 -27 10 -45q0 -60 -57 -110q-17 -15 -44 -22.5t-41 -8t-44 -0.5 q-15 0 -39.5 19.5t-24.5 31.5q0 17 13.5 26t33.5 9q6 0 18.5 -1t18.5 -1q23 0 37 12.5t14 32.5q0 39 -26 60.5t-60 21.5q-99 0 -258 -88q-52 -28 -146 -82.5t-157 -88.5t-147.5 -74.5t-167 -66.5t-164.5 -38q-47 -7 -78 -7q-101 0 -208 59t-177 151t-70 179q0 57 29.5 121 t83.5 111t113 47q49 0 104 -13t96 -37.5t41 -53.5q0 -49 -35.5 -87t-80.5 -38q-30 0 -54 8z" />
<glyph unicode="[" horiz-adv-x="1120" d="M504 516q9 7 43.5 28.5t52.5 41t27 47.5q-133 10 -178 22q-117 31 -124 136q-1 8 -1 16q0 63 43 94t108 31q76 0 147.5 -61t88.5 -144q0 -4 1.5 -7.5t4.5 -8.5t4 -9q44 12 62.5 18t55.5 20.5t56.5 29t42.5 39t37 55.5q43 -21 43 -39q0 -29 -30 -58t-67.5 -49t-85 -37.5 t-69 -24t-33.5 -9.5q-21 -9 -26 -18q-34 -71 -117 -144l-4 -12q6 -2 20 -8.5t23.5 -10t21.5 -7t21 -3.5q10 0 31 20t42.5 43.5t52 43.5t58.5 20q50 0 86.5 -36.5t36.5 -85.5q0 -47 -48.5 -74t-103.5 -27q-19 0 -54 4t-52 4q-18 0 -43.5 -25.5t-66.5 -82.5t-46 -64 q8 -6 32.5 -25.5t36.5 -27.5t33 -16.5t42 -8.5q7 0 20.5 2.5t20.5 2.5q24 0 24 -23q0 -18 -33.5 -34.5t-56.5 -16.5q-27 0 -92.5 49t-89.5 49q-12 0 -27 -6q-47 -23 -124.5 -36t-123.5 -13q-25 0 -48 25t-23 47q0 49 69.5 96t110.5 47q35 0 98.5 -33t71.5 -33 q10 0 29.5 20.5t55.5 68.5t48 63q-4 2 -25 10t-27 10t-23 7.5t-25.5 7.5t-20.5 4t-22 2q-30 0 -91 -16.5t-90 -16.5q-67 0 -140 33.5t-73 83.5q0 45 51.5 74.5t102.5 29.5q46 0 87.5 -18t83.5 -42.5t77 -33.5zM641 692q4 20 4 23q-4 60 -59.5 104.5t-120.5 44.5 q-34 0 -57 -14t-23 -41q0 -112 256 -117zM432 186q-44 41 -96 41q-34 0 -62 -17t-41 -46q20 -14 62 -14q69 0 137 36zM397 477q-62 62 -139 62q-51 0 -76 -31q45 -35 117 -35q17 0 49 2t49 2zM760 436q33 -20 63 -20q28 0 57 13t29 32q0 18 -17 27.5t-36 9.5 q-15 0 -29.5 -6.5t-22.5 -13.5t-22.5 -21.5t-21.5 -20.5z" />
<glyph unicode="\" horiz-adv-x="905" d="M512 430q14 7 43.5 22.5t46.5 24t38.5 16t35.5 7.5q31 0 54.5 -21.5t23.5 -54.5q0 -25 -16.5 -42t-43 -25.5t-51.5 -11.5t-51 -3q-7 0 -23.5 2t-23.5 2q-16 0 -28.5 -10t-29 -35t-18.5 -27q12 -25 37.5 -43t46.5 -18q17 0 48 11.5t48 11.5q57 0 105.5 -10t48.5 -36 q0 -25 -15.5 -42t-40.5 -24t-46 -10t-42 -3q-15 0 -46 5t-46 5q-29 0 -54.5 -25.5t-46 -62t-42 -73t-53 -62t-68.5 -25.5q-53 0 -94 47q0 21 18 21q8 0 24 -2t23 -2q25 0 48 11t39.5 24.5t37.5 42t31.5 46t32 54.5t29.5 51q-55 41 -66 41t-80 -45t-94 -45q-36 0 -68 25.5 t-32 60.5q0 104 159 104q56 0 101 -18q9 13 28.5 42.5t32.5 47.5q-9 4 -32 18.5t-41.5 23.5t-30.5 9q-19 0 -31 -12q-57 -49 -139 -49q-97 0 -97 59q0 65 45 101t107 36q67 0 104 -37q9 10 31 32.5t33 35.5q-19 31 -51 31q-13 0 -80 -23.5t-101 -23.5q-28 0 -47.5 20.5 t-19.5 48.5q0 107 131 107q18 0 38.5 -4.5t48.5 -13.5t44 -13q34 15 66 74q-6 0 -35 -3t-45 -3q-37 0 -72 27.5t-35 64.5q0 42 24 74t60 32q19 0 40 -8t34.5 -16t39 -26t38.5 -26q4 7 15 27t17.5 31t17 21t19.5 10q33 0 33 -39q0 -10 -10 -35q46 22 84 22q19 0 32 -2.5 t26.5 -10t20.5 -25.5t7 -46q0 -64 -33.5 -99.5t-81.5 -35.5q-8 0 -17.5 3t-17 6.5t-19.5 11.5t-19 12.5t-21.5 15.5t-20.5 15q-19 -21 -52.5 -59t-47.5 -54q31 -31 43 -31q4 0 62 23.5t84 23.5q41 0 82.5 -30t41.5 -68q0 -30 -21 -56t-48 -26q-40 0 -112 15.5t-83 15.5 q-18 0 -31 -11t-38 -44q27 -31 100 -66zM582 838q5 -3 14 -8.5t12.5 -7.5t10 -5t11 -4.5t10.5 -2.5t13 -1q22 0 41 13t19 38q0 10 -17 18.5t-39 8.5q-45 0 -75 -49zM371 244q-15 0 -36 1t-28 1q-49 0 -86 -37q2 -2 9 -6.5t9.5 -6t8.5 -4t11.5 -3.5t12.5 -1q43 0 99 56z M305 479q-35 21 -61 21q-45 0 -68 -51q19 -13 41 -13q45 0 88 43zM451 879q-8 4 -25 14t-27 15.5t-22.5 10.5t-20.5 5q-9 0 -18.5 -6t-9.5 -17q0 -13 5 -22t10 -13t16.5 -6t15.5 -2h16q34 0 60 21zM676 606q-32 29 -62 29q-28 0 -65 -27q7 -2 32.5 -11t42 -13t29.5 -4 q20 0 23 26zM313 668q-39 26 -69 26q-4 0 -8 -0.5t-7.5 -1.5t-6 -1.5t-6 -3t-5.5 -3.5t-5.5 -4.5l-4.5 -4.5l-5 -5l-6 -6q26 -21 31 -21q13 3 27 6.5t33 9t32 9.5zM684 416q0 20 -29 20q-21 0 -55 -37q16 3 43.5 9t40.5 8z" />
<glyph unicode="]" horiz-adv-x="1071" d="M227 786q19 -4 49 -8q13 84 38 119.5t104 58.5q21 7 37 7q42 0 77 -34.5t35 -76.5q0 -58 -46.5 -106t-104.5 -54q15 -36 44 -50.5t113 -27.5q19 34 34 59.5t42.5 61t53.5 58t62.5 39t74.5 16.5q45 0 87 -19t42 -53q0 -48 -32.5 -89t-85 -68t-105.5 -44.5t-107 -27.5 q-17 -3 -36 -15t-31 -24t-33 -35t-31 -33q32 -24 62.5 -30.5t76.5 -6.5q26 0 80.5 33t91.5 33q96 0 96 -63q0 -42 -57 -62t-123 -20q-8 0 -15 -1.5t-12.5 -2.5t-11.5 -5.5t-9.5 -6.5t-8.5 -9t-7 -10t-7 -13t-6.5 -13.5t-7 -16.5t-7.5 -17q49 -49 105 -49q55 0 149 27 q20 10 29 10q16 0 16 -16q0 -23 -24 -41t-59 -27t-64.5 -13.5t-49.5 -4.5q-64 0 -104 35q-17 14 -35 14q-15 0 -39 -17q-91 -71 -188 -71q-100 0 -100 51q0 53 66.5 100t127.5 47q17 0 52 -12t53 -12q26 0 45 74q-17 4 -54.5 16.5t-66.5 19.5t-53 7q-18 0 -35 -13 q-69 -53 -162 -53q-150 0 -150 64q0 9 7 26q49 121 176 121q31 0 85.5 -22.5t69.5 -22.5q19 0 32.5 14.5t40.5 56.5q4 7 7 11q-50 17 -77.5 33.5t-68.5 50t-85 63.5q-21 14 -31 21.5t-20.5 26t-10.5 42.5zM893 754q-23 30 -49 30q-58 0 -112.5 -52.5t-86.5 -119.5 q89 17 149 48t99 94zM350 815q1 -4 3.5 -23t5 -26.5t10.5 -16t22 -8.5q39 0 76 31t37 64q0 28 -19 42.5t-43 14.5q-28 0 -59.5 -23.5t-32.5 -54.5zM186 387q36 -20 74 -20q51 0 109 36q-37 37 -95 37q-68 0 -88 -53zM348 137q14 -4 41 -4q55 0 148 51q-62 27 -91 27 q-28 0 -50 -17.5t-48 -56.5z" />
<glyph unicode="^" horiz-adv-x="1454" d="M512 659q1 -1 10.5 -10t13 -13t10 -12t9 -14.5t2.5 -13.5q0 -33 -32 -58.5t-60 -25.5q-45 0 -93 44.5t-48 88.5q0 46 42 69t93 23q88 0 136 -52.5t48 -129.5q0 -76 -66.5 -132t-142.5 -56q-107 0 -176.5 47t-136.5 170q-19 34 -19 78q0 53 30 98t76 72t96 42t95 15 q89 0 188.5 -39t166.5 -109q60 -63 152 -102t177 -39q205 0 205 78q0 21 -13 34t-34 13q-29 0 -29 -39q0 -4 1 -11.5t1 -10.5q0 -39 -24 -39q-17 0 -26 20t-9 47q0 51 26.5 76t63.5 25q61 0 84 -45t23 -125q-11 -41 -96.5 -66t-147.5 -25q-170 0 -285 80q-13 9 -57 40 t-57.5 40t-51 33t-55.5 32t-53 24t-60.5 21.5t-59.5 11t-69 5.5q-73 -3 -132.5 -46.5t-59.5 -110.5q0 -32 16.5 -70.5t46 -75t79.5 -60.5t110 -24q35 0 69.5 11t63.5 41t29 75q0 37 -34.5 78t-84.5 41q-74 0 -74 -35q0 -23 21.5 -39t46.5 -16q12 0 18 2q-6 21 -6 33 t8.5 18.5t34.5 17.5z" />
<glyph unicode="_" horiz-adv-x="1263" d="M963 375q35 14 57 14q51 0 96 -41.5t45 -83.5q0 -31 -21 -51t-53 -20q-16 0 -34 7t-31 15t-34 22t-34 21q-5 -14 -18 -44t-20 -53.5t-7 -47.5q0 -23 4 -35l-26 -6.5t-33 -10.5q-10 -3 -25.5 -11.5t-31 -13.5t-37.5 -5q-70 0 -70 41q0 36 34.5 61t66.5 25q9 0 29 -5.5 t30 -5.5q23 30 41.5 95.5t30.5 89.5q-15 23 -64 96t-72 113q-44 73 -145.5 135.5t-194.5 62.5q-116 0 -198 -91t-82 -208q0 -114 85 -175.5t204 -61.5q49 0 104 18t100.5 62t45.5 104q0 34 -17.5 66t-46.5 51q0 -26 -6.5 -59t-29 -66t-56.5 -33q-29 0 -53.5 26t-24.5 52 q0 55 41.5 104.5t93.5 49.5q65 0 110.5 -60t45.5 -125q0 -96 -90 -172t-193 -76q-4 0 -13 1t-13 1q-9 0 -26.5 -2t-25.5 -2q-74 0 -133.5 27t-94.5 71t-53 95t-18 104q0 75 44.5 155.5t113.5 141.5q72 64 209 64q39 0 73 -13.5t75 -37.5t69 -35q83 -34 141 -135 q3 -13 13 -23q50 -52 123 -182zM1096 264q-14 55 -60 55q-16 0 -26 -2q34 -53 86 -53zM551 414q35 22 35 41q0 8 -17 39q-26 -42 -26 -52q0 -4 8 -28zM799 102q0 3 -4 7q-5 -2 -19 -11q0 -2 4 -6q3 2 9.5 5t9.5 5z" />
<glyph unicode="`" horiz-adv-x="1191" d="M993 352q-9 -27 -14 -39.5t-14.5 -28.5t-22.5 -22t-31 -6q-55 0 -102 26.5t-47 79.5q0 69 43 110.5t104 41.5q83 0 132 -45t49 -137q0 -103 -81.5 -178.5t-195.5 -75.5q-78 0 -141.5 17.5t-119 56t-99 81t-101.5 111.5q-54 62 -106 62q-25 0 -48.5 -14t-23.5 -34 q0 -18 41 -39q8 4 16.5 20.5t22.5 16.5q20 0 38.5 -17t18.5 -36q0 -26 -27.5 -39.5t-64.5 -13.5q-40 0 -78.5 27.5t-38.5 62.5q0 53 41 94t101 41q38 0 79.5 -24t69 -52t67.5 -71.5t60 -61.5q81 -123 316 -123q73 0 129.5 61.5t56.5 133.5q0 51 -34 81t-77 30q-28 0 -54 -22 t-26 -54q0 -23 18 -37t44 -14q10 0 23 3t20.5 5.5t28 10.5t28.5 11z" />
<glyph unicode="a" horiz-adv-x="466" d="M199 1120q-23 -49 -35 -71q-25 3 -25 20q0 40 13 86t38 108t31 78q6 17 9.5 26t14 21t25.5 19q23 -40 38.5 -92t31 -126.5t22.5 -101.5v-8v-24q-21 12 -33.5 30.5t-23.5 43t-22 38.5q-1 -10 -4 -29t-3 -28q0 -50 2.5 -151.5t2.5 -151.5q0 -47 -10.5 -137.5t-12.5 -116.5 q0 -20 12 -35q45 -67 45 -160q-2 -25 -2 -75q0 -28 1 -83.5t1 -82.5q0 -10 -10 -26.5t-22 -16.5q-13 0 -24.5 14.5t-29 52t-20.5 43.5q-16 -26 -41.5 -70.5t-36.5 -62.5q-29 29 -29 70q0 58 7 164.5t8 136.5q3 18 14 41q43 78 43 153q0 87 15.5 254t17.5 246zM162 211 q22 28 27.5 40t5.5 32q0 123 -11 163q-24 -46 -24 -151q0 -53 2 -84zM242 449q0 -23 -3 -68t-3 -68q0 -53 12 -88q10 31 10 76q0 22 -2.5 45.5t-7 56.5t-6.5 46z" />
<glyph unicode="b" horiz-adv-x="2973" d="M182 309q2 35 27 61.5t74.5 56.5t64.5 42q-44 6 -88 6q-24 0 -50 -1t-58 -2.5t-50 -2.5q1 24 32 38t65 17t76 5t49 3q-16 11 -59.5 39.5t-63 45.5t-19.5 28q0 25 84 25q42 0 90.5 -3.5t106.5 -8.5t90 -7q17 0 47 4t45 4q97 0 182 -88q23 -25 70.5 -37.5t82 -14t95.5 -1.5 h17q113 0 341.5 12.5t338.5 12.5q25 0 76.5 -1t78.5 -1q15 0 47 1t49 1q46 0 139.5 -9.5t139.5 -9.5q44 0 120 33t115 33q24 0 62 -6t68 -12.5t81.5 -18.5t71.5 -16h12q8 0 14.5 -4.5t13 -12t11.5 -10.5q-48 -35 -164.5 -56.5t-158.5 -39.5q-12 -6 -29 -6q-37 0 -76 22 q-83 47 -162 47q-78 0 -233.5 9.5t-232.5 9.5q-114 0 -348 -14.5t-355 -14.5q-14 0 -42 4t-42 4q-52 0 -112.5 -21.5t-108 -48t-113.5 -48t-127 -21.5q-148 0 -385 -27zM508 477q-10 2 -29 2q-18 0 -35.5 -5t-29 -10t-28.5 -19t-23 -19.5t-25.5 -25.5t-22.5 -23q12 -2 37 -2 q47 0 80.5 22.5t75.5 79.5zM653 477h-10q-41 0 -77 -22.5t-58 -61.5q18 -2 45 -2q45 0 65 17.5t35 68.5zM616 610q20 -34 72.5 -61t93.5 -27h11q-78 71 -177 88zM444 608q18 -9 51 -30.5t59.5 -36.5t41.5 -15q13 0 25 6q-33 45 -60.5 61.5t-71.5 16.5q-29 0 -45 -2zM311 612 q64 -77 138 -77q8 0 28 4q-20 9 -50.5 29.5t-57 32t-58.5 11.5zM803 461q-19 8 -39 8q-30 0 -54 -18t-36 -50q31 0 71 27.5t58 32.5z" />
<glyph unicode="c" horiz-adv-x="862" d="M416 707q25 40 38.5 59t35 40.5t46 29.5t58.5 8q68 0 116 -65.5t48 -127.5q0 -43 -25.5 -95.5t-58.5 -66.5q-86 -39 -183.5 -107t-146.5 -124q-19 -37 -51 -37q-27 0 -42 23t-18.5 53.5t-13 71.5t-26.5 67q-47 69 -69 119t-22 109q0 94 62 174q14 14 26 32t20 23.5 t26 5.5q56 0 99 -52t81 -140zM291 317q21 15 71 52.5t87 62.5t73 43q81 44 110 71q44 43 44 95q0 53 -80 53q-21 0 -35 -0.5t-28 -5t-21 -6.5t-21 -13t-20.5 -16.5t-27 -24.5t-33.5 -30q-41 35 -41 76q0 6 3 20.5t3 20.5q0 30 -39 54t-76 24q-56 0 -86.5 -32.5t-30.5 -90.5 v-14v-17t1 -16.5t3 -18t6 -14.5t10.5 -13.5t14.5 -9.5q9 -5 20 -28.5t24.5 -58t21.5 -50.5q41 -93 47 -113z" />
<glyph unicode="d" horiz-adv-x="3393" d="M440 250q-12 9 -41 29t-41 30t-24 26t-12 32q0 18 16 32t35 23t35 25t16 36q-26 14 -119 57t-148 74t-55 48q0 71 181 77q227 11 362 60q3 7 12 29t12.5 29.5t12 24t15 25.5t16.5 21.5t22 23.5q47 43 110.5 82t102 58.5t130.5 59.5t118 52q28 10 63 19t58.5 13.5t67 12.5 t61.5 11q195 35 235 40q104 13 252 13q10 58 31.5 101t71 73t82 47.5t122 32.5t130.5 20t163 17q64 7 97 10q82 8 120 8h39q25 0 53 3t47.5 6t53 9t51.5 9q21 2 33 3.5t27 9l20 10t29.5 19.5t36.5 25q20 -39 20 -80q0 -127 -72 -196q-5 -4 -16 -14.5t-14.5 -14t-12 -13 t-13.5 -17.5t-12.5 -21.5t-15.5 -30.5q22 3 49 8t46.5 8t38.5 3q23 0 52 -14t29 -31q0 -27 -16.5 -55.5t-34 -45.5t-52 -46t-46.5 -40q10 -18 31 -18q13 0 41 5t43 5q45 0 74.5 -18t29.5 -48q0 -56 -67.5 -115t-160 -101t-174.5 -70t-126 -35q-23 -3 -65.5 -4.5t-59.5 -3.5 q-29 -119 -59.5 -176.5t-102.5 -116.5q-16 -13 -47 -25q-177 -59 -389 -59h-35q-270 0 -762 -62q11 -13 28.5 -32t23.5 -27t12 -20t6 -25q0 -44 -27 -85t-71 -72t-89 -54t-92 -39q-236 -80 -577 -80q-83 0 -198.5 25t-115.5 53q0 35 56.5 96t136.5 132t106 104zM846 332 q58 58 116.5 94.5t141.5 73.5q7 3 44 20t48.5 21.5t43 17t50 18t45 11.5t51.5 8q36 3 116 11.5t142 13t117 4.5q39 0 116 -5.5t116 -5.5h64h71t64 1.5t72 5t63.5 9.5t69 15t58.5 22.5t60 30.5q24 15 35.5 41.5t12.5 44.5t1 58q0 66 -17 140t-50 116q-191 22 -299 22 q-92 0 -181 -6q-42 -3 -132.5 -7.5t-143 -8.5t-127 -14t-139.5 -29.5t-125 -48.5q-39 -21 -72 -31q-153 -49 -277 -123q-120 -71 -167 -114q-66 -62 -66 -120q0 -12 2 -18q12 -38 34.5 -126t41.5 -142zM2386 1378q167 -200 227 -415q72 -7 94 -7q248 0 359 93 q-31 17 -42.5 24t-21.5 18.5t-10 24.5q0 16 20 37t62 54t53 42q6 4 13.5 17t11.5 18q-30 10 -37 10q-4 0 -33 -7t-43 -7q-58 0 -106 51q24 56 53 115q-22 -6 -79 -23t-84.5 -24t-72.5 -14t-84 -7q-24 0 -72 3t-71 3q-20 0 -42.5 -1t-50.5 -2.5t-44 -2.5zM319 37 q45 -4 159.5 -3.5t158.5 -8.5h16q76 0 157 21t118 58q-5 2 -22.5 8t-22.5 8t-19.5 8t-20 10t-17 12t-17 16t-13 19t-13 25t-9.5 30q-9 33 -25.5 96.5t-27 103t-26 93.5t-29.5 98q-31 -5 -99 -36.5t-104 -31.5q-6 0 -19 4t-20 4q-3 0 -10.5 -1t-10.5 -1q9 -16 33 -28 q51 -28 51 -64q0 -29 -24.5 -55.5t-77.5 -61.5q13 -8 39.5 -23t35 -21t21.5 -17t17 -22t4 -25q0 -10 -4.5 -22t-11.5 -23.5t-18.5 -26t-22 -26t-25 -26t-25 -24.5t-25 -23t-22 -19t-18 -15t-11.5 -10zM2490 590l-57 -10q-91 -37 -264 -37q-71 0 -213 4t-213 4 q-49 0 -142.5 -11.5t-132.5 -13.5q-69 -3 -150 -28.5t-138 -52.5t-148 -73.5t-135 -66.5q-4 -2 -37 -24q3 -8 9 -20t10 -22l8 -20q32 15 103 54t127.5 62.5t111.5 31.5q123 19 543 55q132 10 161 10q17 0 51.5 -3t49.5 -3q49 2 83.5 5t85 10t89 18t78.5 28t70.5 43.5 t49.5 59.5zM2449 1171q-35 39 -87 60.5t-107 21.5q-81 0 -237.5 -6.5t-190.5 -7.5q-44 0 -92 -7t-109.5 -20t-93.5 -18q-13 -2 -91.5 -14t-119.5 -21q-31 -7 -85 -29.5t-67 -27.5q-54 -19 -105.5 -40.5t-112 -54.5t-104.5 -67.5t-74 -78.5t-30 -89q0 -25 9 -55q8 18 20.5 34 t23 27.5t28.5 25t28 20t32 20.5t31 20q74 49 115.5 75t109.5 59.5t130 50.5q4 1 26 12q75 37 164 63t161.5 38.5t180.5 19t168.5 7.5t177.5 1h37q51 0 134.5 -8.5t129.5 -10.5zM2202 1464q15 -5 37 -15.5t39.5 -17t33.5 -6.5q14 0 70 11.5t88 11.5q28 0 84 -4t84 -4 q32 0 62 2.5t66 10.5t56 12t63.5 18.5t54.5 18t63 23t57 21.5q16 5 21 17t7 34q-66 -32 -138.5 -44t-177 -13.5t-144.5 -5.5q-29 -3 -103.5 -8.5t-114.5 -10t-100 -17.5t-108 -34zM1135 80q-25 14 -54 14q-30 0 -61 -22q-156 -113 -387 -113q-55 0 -165.5 14.5t-166.5 14.5 q-27 0 -43 -14t-37 -54q18 -3 64.5 -13t80 -15t64.5 -5q128 0 285 35q28 6 109.5 21.5t125.5 26.5t100 40t85 70zM2646 776q16 3 45.5 6t44.5 6q159 34 311.5 113.5t165.5 153.5q-81 -24 -114 -51q-132 -107 -394 -111q-12 0 -35.5 1t-37.5 1q5 -52 14 -119zM2374 1296 q-4 12 -7 15q-138 94 -229 119q-4 2 -14 2q-25 0 -58.5 -40.5t-33.5 -56.5q0 -4 4 -16q33 -2 338 -23zM645 731q-183 -53 -401 -53q-48 0 -58 -23q52 -24 95 -34q8 0 26 7t27 7q14 0 40 -4t38 -4q51 0 145 28.5t94 49.5q0 11 -6 26zM1176 119q30 30 30 67q0 21 -9 40.5 t-26 19.5q-8 0 -12 -2q-7 -3 -31.5 -12t-47.5 -17.5t-47 -18.5t-39 -18.5t-15 -13.5q104 -23 197 -45z" />
<glyph unicode="e" horiz-adv-x="3166" d="M477 193q-19 9 -128 52t-178 80.5t-69 65.5q0 39 62 51q188 33 405 123q3 1 19 13q-1 9 -8 52t-7 66q0 35 9 65.5t22 52t36 41t41.5 31t49 23.5t48 17.5t48.5 14t41 11.5q367 108 660 144q4 0 103 8t163 16t64 15q-7 24 -7 39q0 42 23 78.5t64 63.5t74 43.5t77 33.5 q245 92 453 92q50 0 141.5 -25.5t136.5 -25.5q40 0 100 14t66 14q38 0 58 -24.5t20 -59.5q0 -29 -16.5 -56t-52 -54t-55.5 -40t-63 -38q-8 -5 -39.5 -22t-51 -29t-44 -28.5t-37 -31.5t-12.5 -28q0 -19 43.5 -44.5t93 -44.5t102 -37t56.5 -20q47 -21 47 -55 q0 -42 -53.5 -80.5t-119.5 -59t-116 -20.5q-18 0 -55 2t-55 2q-110 0 -246 -47q-5 -64 -13 -105t-26 -81.5t-49 -67.5t-79.5 -52t-119.5 -46q-26 -8 -52.5 -14.5t-56 -12.5t-51.5 -11t-56 -10t-52 -8t-56.5 -8t-52.5 -6.5t-56.5 -7t-53.5 -6.5q-20 -2 -56 -2.5t-47 -1.5 q-251 -18 -501 -51q32 -32 32 -76q0 -32 -15 -58t-44 -45.5t-55.5 -32t-66.5 -29t-60 -26.5q-54 -27 -89 -42.5t-86 -29.5t-98 -16q-38 -2 -134 -12t-148 -10q-39 0 -87 28t-48 62q0 20 21.5 46.5t60 56t76 55t85 56.5t70.5 48q8 6 15.5 15.5t18.5 24t17 22.5zM2224 1118 q-8 -5 -31 -18.5t-31.5 -18t-24.5 -12.5t-27.5 -11.5t-22.5 -4.5q-41 -4 -187 -7.5t-225 -21.5q-54 -11 -157 -24t-138 -19q-23 -4 -100.5 -19t-120.5 -20q-80 -10 -221 -50t-188 -50q-41 -9 -72 -50t-31 -83q0 -33 14.5 -98t16.5 -79q11 -67 26.5 -190.5t24.5 -183.5 q29 7 85.5 30t88.5 29q133 24 238 37q25 3 88 12.5t109 14.5t89 6q334 9 664 92q88 22 160.5 79.5t72.5 133.5q0 28 -9.5 80t-10.5 61q-17 153 -29 213q-7 32 -26.5 93t-24.5 79zM2986 1397q-84 -23 -156 -23q-45 0 -132 21.5t-132 21.5q-199 0 -510 -108q-54 -18 -80 -62 q26 -3 68.5 -8t61 -7.5t48 -8t44 -13t33.5 -20t32.5 -30t26.5 -42.5q15 -29 27 -62.5t19.5 -58t15.5 -67.5t10.5 -61t10 -71t9.5 -67q25 3 87 17t101 14q21 0 61 -1t60 -1q185 0 281 96q-14 5 -57.5 20t-68 24t-65 25.5t-64 31t-49 33t-37.5 39.5t-12 44q0 20 14 41t40.5 41 t50 34.5t59.5 35t51 30.5q9 6 34 20.5t42.5 26t37.5 25.5t31 26.5t11 22.5q0 5 -4 21zM604 520q-186 -110 -438 -139q27 -25 92 -47.5t84 -32.5q23 -13 74 -28t79.5 -31.5t28.5 -42.5q0 -42 -42 -88t-95 -80.5t-119 -80t-98 -77.5q16 -29 35.5 -38t50.5 -9h39h70 q122 0 224.5 27.5t192.5 111.5q-45 30 -76 69.5t-46.5 78t-25 92t-12 96.5t-7.5 108t-11 111zM973 25q14 28 14 49q0 26 -19 43.5t-44 17.5q-24 0 -81.5 -26.5t-76.5 -45.5q8 -14 21 -23t32 -12t31.5 -4t33.5 0t25 1h64zM1921 1124q7 0 21.5 -1t21.5 -1q13 0 51 -0.5t60.5 0 t49.5 9t40 24.5q-46 7 -128 19.5t-118 17.5q-10 -17 -10 -31q0 -19 12 -37z" />
<glyph unicode="f" horiz-adv-x="1652" d="M1550 848q-7 -316 -364 -492q-22 -10 -29.5 -24t-7.5 -39q4 -46 4 -76q0 -47 -27 -47q-15 0 -33.5 18t-33.5 39.5t-39 39.5t-49 18q-16 0 -37 -6q-142 -43 -240 -43q-137 0 -271 53.5t-228 156.5q-48 51 -69.5 99.5t-21.5 122.5q0 122 61.5 221t168.5 164 q180 111 312.5 166t279.5 55q142 0 282.5 -47.5t227.5 -141.5q114 -124 114 -237zM877 1219q-12 2 -35 2q-30 0 -67 -9.5t-62 -19.5t-69.5 -29.5t-63.5 -27.5q-81 -33 -149.5 -73t-130 -94t-97 -125t-35.5 -151q0 -101 83.5 -194.5t192.5 -126.5q186 -60 320 -60 q49 0 135 25.5t119 30.5q7 1 25.5 -32.5t37.5 -67t27 -31.5q2 52 12 106t27 61q137 61 235.5 182.5t98.5 256.5q0 56 -21 105t-60.5 89t-75.5 67.5t-85 61.5q-10 6 -14 9q-12 7 -64.5 10.5t-70.5 9.5q-79 25 -185 25h-28z" />
<glyph unicode="g" horiz-adv-x="1155" d="M868 541q16 -44 38.5 -95.5t50 -112.5t42.5 -95q9 -23 9 -31q0 -16 -13.5 -27.5t-29.5 -11.5q-8 0 -19 3t-25.5 10t-24.5 12.5t-27 15t-23 12.5q-188 102 -197 107q-44 -17 -89 -45t-69 -46.5t-73 -58.5q-41 -33 -70 -33q-31 0 -31 35q0 38 21.5 120t21.5 114 q0 20 -40 49.5t-88 55.5t-88 55t-40 47q0 33 57 53t99 20h21q58 0 111.5 19.5t64.5 56.5q6 21 16 63t18 73t19 63.5t24 50.5t27 18q16 0 42 -31.5t53.5 -80.5t42 -76.5t26.5 -52.5q13 -31 45 -31q35 0 105 8t104 8q16 0 25.5 -1t22.5 -5.5t19.5 -17t6.5 -31.5 q0 -15 -11.5 -32.5t-34.5 -39.5t-42.5 -38t-51.5 -41t-45 -35zM614 866q-8 -27 -8 -86q0 -101 21 -145q5 8 21.5 31t26 40t9.5 27q0 8 -4.5 20t-13.5 27.5t-16.5 28t-19 31t-16.5 26.5zM393 276q4 0 6 -2q46 76 131 213q-34 -8 -69 -25t-35 -28q-19 -84 -33 -158zM653 457 q4 -42 15.5 -62.5t36.5 -32.5q28 -14 83 -39.5t82 -39.5q-13 12 -48.5 45.5t-56.5 52.5t-53 42t-59 34zM514 592q-46 70 -92 70q-27 0 -74 -29q116 -29 166 -41zM879 641q-21 -8 -61 -25.5t-54 -23.5q28 -4 35 -4q18 0 31 9.5t49 43.5z" />
<glyph unicode="h" horiz-adv-x="886" d="M240 467q0 33 -1 97.5t-1 97.5q0 16 1 49t1 49q0 28 -14 50.5t-34 38t-40 30.5t-34 36t-14 46q0 18 -1 55t-1 57q0 26 20 45.5t63.5 43t54.5 30.5q88 61 127 190q4 15 16 27t33.5 18.5t39.5 10.5t48 5.5t45.5 2t44.5 0.5h12q28 0 72 -49t63 -86q25 -47 25 -137v-39 q0 -131 9 -385t9 -383q0 -46 -26 -80t-70 -35q-48 -2 -293 -12q-37 0 -92 54.5t-63 88.5v84zM604 397v88q0 59 -2 126t-5.5 149t-4.5 125q0 79 1 233.5t1 233.5q0 37 -35 37q-8 0 -25.5 -1.5t-25.5 -1.5q-6 0 -18.5 1.5t-18.5 1.5q-37 0 -53 -46q-56 -150 -199 -235 q-57 -37 -57 -82q0 -34 21 -48.5t45.5 -14.5t45.5 -11t21 -39q3 -52 3 -229.5t11 -269.5q3 -30 37 -33q26 0 76 6t76 6q9 0 27.5 -2t27.5 -2q10 0 30 4t21 4zM354 985q-9 0 -25.5 -0.5t-24.5 -0.5t-21 1t-19 4.5t-13 9t-10 15t-3 22.5q0 39 38 62q115 68 156 198 q14 52 60 52q51 0 51 -68q0 -37 -2 -111t-2 -112q0 -164 8 -488q1 -7 3.5 -29.5t2.5 -31.5q0 -32 -20 -51t-52 -19q-123 0 -123 45q0 23 4.5 68t4.5 67q0 20 0.5 70.5t0 79t-1.5 70.5t-4 78t-8 69zM385 1061q-4 -8 -4 -10q17 -6 36 -28t27 -22q18 0 27.5 12t9.5 48h-96z M483 942q-38 -5 -45.5 -9.5t-13.5 -27.5q7 0 18.5 -1.5t17 -1t12 3.5t9 12t2.5 24zM430 711q28 -4 29 -4q10 0 15 5t13 21l-36 8q-10 0 -14 -6t-7 -24zM414 817q30 -12 41 -12q12 0 32 26q-18 9 -24 9q-15 0 -49 -23zM430 602q8 5 19.5 7t19 2.5t14.5 6.5t9 19q-28 4 -35 4 q-12 0 -17 -8t-10 -31zM412 1143q0 -17 37 -17q9 0 15 4t8.5 7.5t10.5 17.5q-35 -5 -71 -12zM424 530q33 -20 43 -20q16 0 25 35q-10 -2 -31.5 -7t-36.5 -8zM485 1247q-10 0 -14 -26q8 0 10 -2q4 20 4 28z" />
<glyph unicode="i" horiz-adv-x="4734" d="M4035 696q9 27 44 52.5t42 33.5q-405 127 -885 127q-75 0 -155 -5.5t-173 -18t-155.5 -22t-175 -28.5t-158.5 -26q-282 -45 -916 -143q-141 -22 -230.5 -34t-216.5 -23t-239 -11q-35 0 -106 1t-107 1h-43q-109 0 -216.5 51.5t-175 134t-67.5 166.5q0 53 35.5 102.5 t85.5 80t99 49t81 18.5q34 0 77 -7.5t88 -22.5t75.5 -43t30.5 -64t-66 -88.5t-121 -52.5q-31 0 -47 39q21 -7 35 -7q33 0 74 25t41 51q0 80 -176 80q-56 0 -113 -62t-57 -94q0 -27 44 -63t87 -53q71 -31 176 -31q112 0 226.5 9t246 30t215.5 36.5t243.5 48t221.5 44.5 q179 35 363 67.5t470.5 80.5t364.5 61q237 39 500 39q106 0 233.5 -11.5t215.5 -24t237 -36.5q197 -30 375 -123q14 -8 46.5 -19t53.5 -24t29 -35q4 -12 14.5 -35.5t17.5 -42.5t7 -32q0 -33 -48 -71t-108.5 -62.5t-102.5 -26.5q-16 -2 -51 -2q-183 0 -286 16z" />
<glyph unicode="j" horiz-adv-x="5844" d="M549 502q14 8 45 23.5t51 27t42.5 26.5t34 30.5t11.5 31.5q0 34 -42 75.5t-97 41.5q-117 0 -194 -27t-144 -96q-43 -43 -43 -84q0 -38 59.5 -91.5t143.5 -97.5t155 -61q222 -53 338 -53q82 0 237 9.5t179 10.5q246 11 399.5 19.5t374 27t414.5 43.5q211 23 634.5 91 t641.5 92q191 20 579 55.5t584 56.5q62 6 127 6q443 0 625 -233q39 -51 39 -100q0 -43 -22 -74.5t-58 -47.5t-73.5 -23t-78.5 -7q-44 0 -96 11t-64 36q6 9 29.5 19t48 18t44.5 21.5t20 29.5q0 28 -75.5 53.5t-167 38.5t-157.5 13q-139 0 -385 -31q-720 -77 -974 -111 q-69 -9 -309.5 -55t-372.5 -53q-90 -5 -256 -27t-205 -26q-738 -66 -1313 -66q-235 -10 -285 -10q-468 0 -749 241q-24 21 -57.5 46t-43 33.5t-22 30t-15 47t-2.5 71.5q0 6 -0.5 22t0 24.5t1.5 21t4 22t8 16.5q180 240 358 238q56 0 123.5 -25t121.5 -76t54 -112 q0 -65 -61 -106.5t-125 -41.5h-5h-5.5h-6t-5.5 0.5t-5 1t-5 1.5t-3.5 2.5t-2.5 4t-1 5.5z" />
<glyph unicode="k" horiz-adv-x="3340" d="M578 551q16 29 16 51q0 14 -4.5 24t-16.5 17.5t-22.5 12t-33 13t-38.5 15.5q-25 10 -57 10q-49 0 -108 -33t-97.5 -75t-38.5 -70q0 -42 28 -77t68.5 -55.5t89 -34.5t85 -19.5t59.5 -5.5q81 0 211 26q159 31 465.5 93.5t495.5 99.5t455 79t495 64q106 8 159 8t119 -6 t145 -21t131 -46.5t52 -75.5q0 -52 -61.5 -92.5t-112.5 -40.5q-41 0 -93.5 18.5t-86.5 44.5q38 25 77 25q7 0 20.5 -1t20.5 -1q70 0 70 18q-5 23 -54 36t-89 13q-230 -6 -497 -39t-466.5 -71t-497.5 -96t-479 -89q-113 -20 -161 -28t-137.5 -17.5t-162.5 -9.5 q-129 0 -227 49.5t-184 163.5q-13 13 -13 37q0 66 52 131t124.5 103t135.5 38q46 0 98 -15t94.5 -48.5t42.5 -77.5q0 -25 -10 -42t-23 -17q-16 0 -38 14z" />
<glyph unicode="l" horiz-adv-x="2824" d="M438 518l21 33t20.5 32.5t15 26t12 27t3.5 22.5q0 28 -27.5 49t-56.5 21q-73 0 -151 -58t-78 -118q0 -35 35.5 -68.5t75 -53t85.5 -34.5q104 -37 232 -37q175 0 374.5 37.5t437 100t337.5 82.5q16 3 84.5 17t96.5 19t82 13.5t97.5 12t87.5 3.5q100 0 216.5 -34.5 t200 -92.5t83.5 -117q0 -53 -41.5 -100t-100 -72.5t-112.5 -25.5q-63 0 -130 31.5t-67 60.5q0 21 18.5 39t39.5 18q14 0 30 -20q14 -24 44 -36.5t59 -12.5q28 0 45.5 17.5t17.5 43.5q0 34 -39.5 57.5t-100.5 34t-110.5 15t-91.5 4.5q-22 0 -43.5 -1.5t-48.5 -5.5t-41 -6.5 t-48 -9t-42 -8.5q-127 -25 -394.5 -85.5t-474.5 -97.5t-401 -51q-16 -2 -47 -2q-79 0 -169.5 20.5t-174.5 58.5t-139.5 101t-55.5 138q0 57 24.5 105t60.5 78.5t80 52.5t81.5 31t65.5 9q58 0 112 -33t54 -87q0 -37 -43 -85t-101 -59z" />
<glyph unicode="m" horiz-adv-x="1806" d="M1186 682q-35 14 -82 14q-52 0 -96 -18q49 -73 49 -113q0 -36 -29 -66t-70 -30q-24 0 -42 9.5t-27.5 21.5t-17 39.5t-10 45t-7.5 56.5q-64 -12 -168 -82q10 -3 32 -8.5t28.5 -7.5t21 -8t19.5 -11.5t14 -16t15 -24.5t13 -34q11 -26 11 -39q0 -33 -33.5 -59.5t-77.5 -26.5 q-62 0 -100.5 44.5t-38.5 114.5q-66 -43 -103 -112h17q59 0 115.5 -61.5t56.5 -92.5q0 -28 -37 -49t-86 -21q-42 0 -77.5 14.5t-86.5 49.5q-28 -45 -42.5 -67t-43.5 -58.5t-54.5 -55t-64 -35t-82.5 -20.5q4 27 31 52.5t56.5 42.5t54 48.5t24.5 71.5q0 16 -20 47.5t-41 53.5 q-53 58 -53 166q0 21 3.5 34t19 24t44.5 11q18 0 32.5 -7t24.5 -23.5t17 -29.5t13 -40.5t8.5 -39t6.5 -43.5t5 -36q7 15 19 33t18 29.5t6 23.5t-24.5 58.5t-24.5 78.5q0 35 3 69t11.5 75.5t28.5 67.5t49 26q21 0 36 -13t21.5 -33.5t9 -37t2.5 -31.5q0 -21 -8 -59t-8 -59v-11 q18 14 52.5 40t51.5 40q-10 48 -10 78q0 63 41 146t90 83q44 0 68 -38t24 -85q0 -7 -3 -21.5t-3 -21.5q0 -9 6 -18q65 109 108 159.5t118 86.5q20 8 37 8q39 0 58 -21t19 -53q0 -17 -6.5 -32t-22 -30t-25.5 -23.5t-34.5 -25.5t-31.5 -22q82 -4 118 -4q15 0 21 6 q78 62 276 62q31 0 61.5 -24t30.5 -56q0 -16 -7.5 -29t-24 -21.5t-27.5 -13.5t-35 -9t-29.5 -4.5t-25.5 -2.5q22 -35 42.5 -51.5t55.5 -16.5h13q38 0 74 -7t73 -22.5t59.5 -48t22.5 -77.5q0 -24 -20.5 -40t-49.5 -16q-39 0 -66.5 14t-70.5 48q0 -5 0.5 -19.5t1 -19.5t1 -17 t2 -18t3.5 -15.5t5 -15.5t7.5 -13t10.5 -13q73 -76 73 -191q0 -29 -19.5 -51t-43.5 -22q-32 0 -55 24t-23 57q0 5 1 19t1 22q-10 -10 -56.5 -64.5t-80.5 -80t-68 -25.5q-31 0 -56 19t-25 57q0 51 47.5 84t105.5 33h6q49 0 58 117q-23 -27 -34.5 -38.5t-27.5 -21.5t-33 -10 q-25 0 -43 20t-18 46q0 16 15 39.5t30.5 40t45.5 46t40 39.5q-3 18 -14.5 38.5t-21 31.5t-32.5 37q-4 -11 -12 -35t-13 -38t-14 -33t-18 -29.5t-23 -18.5t-30 -8q-28 0 -50 37.5t-22 73.5q0 16 3.5 31t13 31t15 24.5t20.5 27t18 23.5z" />
<glyph unicode="n" horiz-adv-x="2369" d="M1944 621q62 -27 173 -79t126 -59q24 -10 24 -49q0 -47 -94 -47q-30 0 -94.5 4t-98.5 4q-1 0 -16 -10q24 -21 72.5 -31t68.5 -32q5 -6 17.5 -18t20 -22t7.5 -18t-6.5 -14t-20.5 -10t-25.5 -6t-31 -4.5t-28.5 -4.5q17 -22 51.5 -47t61.5 -50.5t38 -59.5q-26 -21 -61 -21 q-16 0 -48 5t-48 5h-15q16 -16 76.5 -68.5t91.5 -88.5t31 -62q0 -53 -68 -53q-37 0 -77.5 20t-68.5 43.5t-71 61.5t-67 57q-41 30 -119 70q-276 147 -555 147q-147 0 -285.5 -37t-308.5 -110q-60 -25 -133 -25q-40 0 -105 33t-100 33q-3 0 -10 -1t-10 -1q-13 0 -24 7.5 t-11 18.5q0 12 12.5 18.5t28.5 6.5q10 -2 28 -2q44 0 101.5 21t83.5 47q-36 18 -51 24.5t-42.5 14.5t-52.5 8q-6 0 -19.5 -1t-19.5 -1q-41 0 -41 22t37.5 35.5t93.5 27.5t84 33q4 2 68 47q-12 20 -42.5 23t-53.5 5.5t-23 23.5q0 10 11 25t23.5 27t34.5 31t30 27 q-27 33 -75.5 50.5t-101.5 17.5q-55 0 -135 28t-80 50q0 16 22.5 28.5t65 21t80.5 14t92 11.5t76 9q71 9 140 55q105 67 236 111t216 49q350 0 625 -142q124 -65 293 -65q114 0 114 -51q0 -21 -17.5 -36.5t-38.5 -24.5t-40 -27t-22 -43zM360 100q20 -32 60 -32q34 0 65.5 5 t67.5 17.5t57 21.5t66.5 29.5t62.5 28.5q204 92 430 92q344 0 555 -143q272 -186 383 -269q13 -10 29 -10t27 8q-4 5 -19.5 27.5t-21 29.5t-19.5 25t-23 27t-22.5 22t-27.5 22t-29 17q-17 5 -32 28.5t-15 33.5q0 37 80 37h53q-71 67 -84 88q-8 13 -8 22q0 16 11 25.5 t22 12.5t32.5 6t28.5 5q-2 26 -26 41t-52 20t-51 18t-23 36q0 20 21 34.5t44.5 20t41.5 5.5t54 -4.5t54 -4.5q3 0 11 1t12 1q-25 14 -110 51.5t-130 68.5t-45 65q0 13 6 25t23.5 29t26 25t36.5 31q-18 2 -43 2h-24q-178 0 -330 82q-152 78 -268 90q-30 3 -98.5 18t-104.5 15 q-144 0 -276 -45.5t-275 -130.5q-45 -27 -120 -41t-144 -16q-6 0 -18.5 1t-18.5 1q-5 0 -21.5 -1t-27.5 -1q45 -24 105.5 -29.5t112.5 -15t91 -45.5q45 -45 45 -66q0 -14 -6.5 -20t-24.5 -16.5t-34 -26.5q11 -6 34.5 -17t37.5 -18.5t30.5 -18t24.5 -20.5t8 -21 q-2 -12 -41 -26.5t-89.5 -39t-74.5 -57.5q19 -11 58 -19t64.5 -16.5t25.5 -25.5q0 -14 -18.5 -22.5t-46.5 -17.5t-42 -21q-20 -17 -33 -26.5t-35 -18.5t-45 -9z" />
<glyph unicode="o" horiz-adv-x="2918" d="M1270 268q175 35 616 158q36 15 94 31t102.5 28.5t88 30t67 43t23.5 59.5q0 15 -6 33v164q-19 19 -30 106t-11 140v61q0 21 -5 55.5t-5 51.5q0 24 10 57v82h-21q-225 0 -348 -20l-184 -41q-41 0 -62 -21q-79 -29 -286 -87t-289 -71q-14 -3 -50.5 -10t-60.5 -11.5 t-61 -13.5t-62 -17.5t-54 -22t-46.5 -28t-29 -34.5t-11.5 -43q0 -110 27 -188v-103q20 -61 20 -143v-61q0 -21 4.5 -60.5t4.5 -56.5q0 -26 -9 -47v-82h21q225 0 348 20zM246 719v-21l225 -204l5.5 -5.5l4.5 -4.5l3.5 -3.5t3.5 -3t3 -2t3.5 -1.5t3.5 -0.5t4 -0.5h10 q41 0 41 -67q0 -30 -21 -35q-39 0 -80 -34.5t-73 -79.5t-80.5 -103t-93.5 -91q14 -14 30 -17t52 -3h205q38 0 135 10t151 10h62q-33 17 -70.5 29.5t-59 18.5t-40.5 16.5t-27 29t-8 50.5v184q0 180 -21 287q-20 41 -20 123h-21q-43 -21 -122 -21q-21 0 -52 -10t-51 -10 q-10 0 -30.5 -10.5t-30.5 -10.5q-13 0 -20 -0.5t-14 -5.5t-7 -14zM1167 186q-44 0 -172 -14t-155 -27q15 -15 20.5 -17.5t20.5 -2.5q10 0 30.5 -10.5t30.5 -10.5q50 -16 92 -16q133 0 133 98zM1763 1389q30 0 156 14t152 27q-8 0 -38.5 14t-74 27.5t-82.5 13.5 q-121 0 -121 -66q0 -14 8 -30zM2501 1286l204 225q-10 0 -30.5 10.5t-30.5 10.5h-205q-51 0 -153.5 -10.5t-153.5 -10.5h-61q19 -19 42 -28.5t38 -11t42 -1.5q47 -15 64.5 -36t17.5 -66v-184q0 -180 21 -287q20 -41 20 -123h21q43 21 123 21q51 0 98.5 20.5t64.5 20.5 q42 0 62 20q-9 0 -14 5t-6 11l-1 5l-225 204q-12 12 -36.5 25.5t-35 29t-10.5 48.5q0 15 7 18q5 2 14 2q22 0 40.5 8.5t27.5 16t28.5 29t26.5 28.5zM922 1169q135 36 365.5 97t311.5 82q20 20 62 20q0 -2 2 -2q5 0 13.5 12t17 37.5t8.5 54.5q0 23 26 40.5t64.5 25.5t73 12 t61.5 4q43 21 123 21h102q82 0 123 20h348q62 0 82 -20h62q10 0 15 -1t12.5 -4t10.5 -12t3 -24q8 0 8 -8q0 -10 -9.5 -21.5t-19.5 -11.5q-36 -18 -62.5 -49.5t-52.5 -71.5t-49 -63l-163 -164l82 -62l143 -143q13 -13 34 -19t37 -6.5t28 -9.5t12 -29q0 -13 -14.5 -30.5 t-14.5 -28.5q0 -41 -62 -41q-79 0 -204 -41h-103q-82 -40 -82 -184q-16 -32 -34.5 -47t-47.5 -15q-253 -107 -574.5 -194.5t-402.5 -87.5q-2 0 -4.5 1t-3.5 1l-20 -21q0 -61 -21 -82q0 -23 -26 -40t-64.5 -25.5t-72.5 -12t-62 -3.5q-43 -21 -123 -21h-102q-41 -20 -123 -20 h-328q-82 0 -102 20h-62q-41 0 -41 21q0 61 21 61q36 18 66.5 48.5t58 67t39.5 48.5l123 143q6 4 11.5 9.5t14 15t15.5 16.5l-62 62l-164 143q-10 0 -30.5 10t-30.5 10q-22 0 -35.5 13t-13.5 28q0 14 14 32.5t14 29.5q0 12 5 20t11.5 12t19.5 6t21.5 2.5t24.5 0.5 q53 0 151 20.5t136 20.5q38 19 55 56t25 75.5t22 52.5q0 18 10.5 28.5t27.5 18t24 14.5q29 21 63 35.5t58.5 20.5t64.5 13.5t60 12.5z" />
<glyph unicode="p" horiz-adv-x="2705" d="M1167 268l-204 -41q-123 -20 -349 -20h-20v82q8 19 8 47q0 17 -4 56.5t-4 60.5v61q0 79 -21 143v103q-26 75 -26 188q0 23 11.5 43t29 34.5t46.5 28t54 22t62 17.5t61 13.5t60.5 11.5t50.5 10q82 13 289 71t286 87q21 21 62 21l184 41q123 20 348 20h20v-82 q-10 -33 -10 -57q0 -17 5 -51.5t5 -55.5v-61q0 -53 11 -140t30 -106v-164q7 -21 7 -33q0 -34 -23.5 -59.5t-67 -43t-88 -30t-102.5 -28.5t-94 -31q-439 -122 -617 -158zM143 698v21q0 9 7 14t14 5.5t20 0.5q10 0 31 10.5t31 10.5q20 0 51 10t51 10q80 0 123 21h21 q0 -82 20 -123q20 -102 20 -287v-184q0 -32 8 -50.5t27 -29t40.5 -16.5t59 -18.5t70.5 -29.5h-61q-54 0 -151 -10t-136 -10h-205q-36 0 -52 3t-30 17q45 33 94 91t80.5 103t73 79.5t80.5 34.5q21 5 21 35q0 67 -41 67h-11q-4 0 -6 0.5t-5 2.5t-4.5 3.5l-6.5 6.5l-8 8z M1065 186q0 -98 -133 -98q-42 0 -92 16q-10 0 -31 10.5t-31 10.5q-15 0 -20.5 2.5t-20.5 17.5q27 13 155.5 27t172.5 14zM1661 1389q-8 16 -8 30q0 66 121 66q39 0 82.5 -13.5t73.5 -27.5t38 -14q-26 -13 -151.5 -27t-155.5 -14zM2603 1511l-205 -225q-7 -7 -26.5 -28.5 t-28.5 -29t-27.5 -16t-40.5 -8.5q-5 0 -8.5 -0.5t-5.5 -1.5t-3.5 -2t-2 -3.5t-0.5 -3v-4.5v-5q0 -33 10.5 -48.5t35 -29t36.5 -25.5l225 -204q1 -21 21 -21q-20 -20 -62 -20q-17 0 -65 -20.5t-99 -20.5q-80 0 -123 -21h-20q0 80 -21 123q-20 102 -20 287v184q0 45 -17.5 66 t-64.5 36q-27 0 -42 1.5t-38.5 11t-42.5 28.5h62q51 0 153.5 10.5t153.5 10.5h205q10 0 30.5 -10.5t30.5 -10.5z" />
<glyph unicode="q" horiz-adv-x="1132" d="M217 913q39 -5 63 -11.5t43 -24.5t19 -48q0 -9 -5 -27t-5 -26q0 -22 36 -55t70 -33q29 0 51.5 45.5t22.5 77.5q0 12 -24.5 56.5t-24.5 72.5q0 48 36.5 72t78.5 24q61 0 98 -33.5t37 -76.5q0 -27 -34 -74.5t-36 -71.5q-2 -12 -2 -39q0 -40 13.5 -81.5t37.5 -41.5 q27 0 61.5 35t34.5 80q0 8 -2 23t-2 22q0 53 29.5 83t71.5 30q53 0 98 -29t45 -78q0 -29 -25 -58.5t-51 -37.5q-28 -9 -50 -24.5t-36.5 -33.5t-24.5 -44.5t-15.5 -49.5t-9 -55.5t-5 -57t-3 -60.5t-3.5 -58q-1 -16 -8.5 -28t-22.5 -18.5t-29.5 -11t-40.5 -5.5t-42.5 -1 t-48.5 0.5t-48 0.5q-13 0 -35.5 -0.5t-32.5 -0.5t-27.5 1t-25 4t-19.5 8t-17.5 13t-12 20t-9.5 28t-5 37q-8 62 -23 120.5t-36.5 111t-52 87t-64.5 40.5q-45 8 -73 36.5t-28 79.5q0 41 26 59.5t87 26.5z" />
<glyph unicode="r" horiz-adv-x="2525" d="M262 489q-14 4 -40.5 11t-44 12.5t-36.5 13t-29 18t-10 23.5q0 8 18 17.5t30 9.5q25 0 51.5 -2.5t64 -7.5t51.5 -6q8 -1 65.5 -7.5t72.5 -8.5t62 -9t71.5 -13t60.5 -16t66 -22q91 -35 246 -35q52 0 149.5 4t138.5 4q-2 9 -12 51.5t-10 61.5q0 40 27 77t65 37q13 0 24 -9 t11 -25q0 -14 -32 -45t-32 -48q0 -40 29.5 -69t66.5 -31q66 -3 222 -6t223 -6q5 0 6.5 14.5t3.5 32.5t17 32.5t43 14.5q10 0 16 -2q53 -19 116 -35t107.5 -24.5t119.5 -21t112 -19.5q24 -4 37.5 -16.5t13.5 -26.5q0 -39 -101 -39q-253 0 -409 -62q-15 -6 -29 -6 q-18 0 -27.5 13.5t-12.5 29.5t-7 53q-76 3 -221.5 8.5t-212.5 8.5q5 -16 13 -33.5t12 -29.5t4 -27q0 -60 -30.5 -100t-74.5 -40q-24 0 -53 18.5t-29 47.5q0 14 19 14q7 0 23 -7t28 -7q21 0 34 15.5t13 41.5q0 33 -10 55.5t-22 33.5t-36.5 17t-39 6.5t-45.5 0.5h-13 q-66 0 -200.5 -1t-196.5 -1q-43 0 -126 -18.5t-126 -18.5q-48 0 -146.5 3t-146.5 3q-17 0 -49 -2t-47 -2q-21 0 -35 11t-14 26q0 22 38.5 34.5t76.5 18t38 12.5z" />
<glyph unicode="s" horiz-adv-x="526" d="M289 -63q-7 -16 -19 -49.5t-21 -56t-20.5 -47t-24 -37.5t-24.5 -13q-28 0 -28 24q0 12 3 37t3 37q0 58 -8.5 172.5t-8.5 171.5q0 69 25 111q65 114 65 229q0 48 -8 166q-11 3 -46 8.5t-55 13.5t-20 23q0 6 3.5 10.5t11.5 8t15.5 6.5t20 5.5t21 4t22.5 3.5l21 3 q-8 125 -8 299q0 31 0.5 62t1 51.5t0.5 23.5q0 19 -52.5 82.5t-52.5 73.5t9 22q33 50 51 112.5t32 160t19 121.5q0 10 5 20t11 10q13 0 26.5 -74.5t33 -170t45.5 -131.5q14 -17 14 -37q0 -18 -35.5 -85.5t-35.5 -101.5q0 -101 3 -237.5t3 -202.5q137 0 137 -16q0 -3 -4 -7 q-50 -50 -129 -57q0 -26 2 -74t2 -71q0 -58 18.5 -110t40 -85t40 -79t18.5 -93q0 -51 -4.5 -153.5t-4.5 -153.5q0 -20 4.5 -57.5t4.5 -55.5q0 -30 -25 -33q-15 0 -36 48.5t-40 105.5t-22 62z" />
<glyph unicode="t" horiz-adv-x="1861" d="M1358 72q10 -1 75 -10t99 -9q90 0 121 72q-18 23 -49.5 39t-74.5 23.5t-75 10.5t-79 6q-13 1 -19 1q-276 18 -836 18q-49 0 -100 4.5t-109.5 18.5t-103 35t-74 57.5t-29.5 83.5q0 44 28.5 91.5t49.5 47.5q3 0 14.5 -1t20.5 -1q14 0 25 8q65 45 151 45q30 0 50 -0.5t49 -2 t48.5 -6t38 -11t28 -17.5t9.5 -26q0 -5 -2.5 -14.5t-7 -24t-6.5 -23.5q48 -12 53 -12q56 0 170 2t172 2q162 0 271 -13t217 -58q10 -4 29 -12q42 -17 63 -26.5t55.5 -27.5t52.5 -34.5t37.5 -40.5t28 -54t8.5 -66q0 -84 -73.5 -139t-151.5 -55q-31 0 -69.5 9.5t-72.5 34.5 t-34 60q0 2 1 7t1 8zM549 518q-49 49 -139 49q-91 0 -146 -49q6 -6 14.5 -11.5t20.5 -9t22.5 -6t27 -4t26.5 -2.5t27.5 -1.5t24.5 -0.5h24.5h19.5h15.5h15t12.5 1t13 3t9.5 6t8 10t4.5 15z" />
<glyph unicode="u" horiz-adv-x="1546" d="M870 477q-16 11 -60 41t-71 47t-61 33t-55 16q-46 0 -140 -15t-141 -15q-49 0 -102 11t-95.5 36t-42.5 59q0 52 42 88.5t92 36.5q22 0 36 -4q41 -9 124 -27.5t124 -27.5q4 -2 12 -2q23 0 86.5 20.5t63.5 34.5q-83 25 -147 59q-82 42 -133.5 85.5t-51.5 95.5 q0 69 57.5 108t120.5 39q6 0 23.5 -7.5t28.5 -10.5q-12 -12 -55 -24t-75 -31t-32 -54q0 -40 62.5 -91t121.5 -75q135 -53 184 -53q31 0 56 14q108 53 223 72.5t262 19.5q41 0 79 -23.5t38 -62.5q0 -58 -62 -124t-116 -66q-70 0 -108.5 1t-97.5 8.5t-106 21.5q-12 4 -18 4 q-2 0 -5 -1t-5 -1q-61 -22 -174 -64q39 -33 121 -72.5t110 -39.5q15 0 40.5 18t41.5 23q14 4 56.5 24.5t56.5 20.5q34 0 54.5 -1t52.5 -4t52 -10.5t40.5 -19.5t30 -32.5t9.5 -47.5q0 -49 -48.5 -108.5t-88.5 -59.5q-63 0 -135.5 20t-128.5 50q-34 18 -62 18q-18 0 -43 -9.5 t-66.5 -29.5t-58.5 -27q86 -68 144 -98q23 -11 49 -20t61.5 -19.5t51.5 -15.5q-37 -43 -115 -43q-34 0 -78 20t-80 44.5t-77.5 44.5t-71.5 20q-35 0 -102 -24.5t-103 -24.5q-28 0 -56 4t-57 14t-47 29t-18 45q3 23 6 36.5t15 30.5t32 25q3 2 19 8.5t20.5 8.5t18.5 7.5 t20.5 7.5l19.5 6t22 5t20.5 2.5t23.5 1.5q86 0 149 -39q2 -1 16.5 -10.5t21 -13t18.5 -7.5t22 -4q14 0 35 10.5t59.5 35t44.5 28.5zM1333 498q-19 71 -135 71q-55 0 -127 -57q24 -12 68.5 -22.5t62.5 -18.5q32 -14 51 -14q39 0 80 41zM598 352q-56 41 -113 41 q-67 0 -104 -59q3 -2 9.5 -7t12 -7.5t9.5 -2.5q5 0 23.5 0.5t24.5 1t22.5 1.5t24.5 2t22.5 4t24 6t21.5 8.5t23 11.5zM1276 811h-21q-38 0 -83.5 -12t-65.5 -27q12 0 34 -1t34 -1q68 0 102 41zM383 725q-24 8 -51 8q-35 0 -88 -22q21 -6 41 -6q40 0 98 20z" />
<glyph unicode="v" horiz-adv-x="1495" d="M678 145q52 -29 151 -38t136 -21q-79 -55 -215 -55h-11q-26 0 -39.5 0.5t-35.5 5t-33 13t-20 26t-9 43.5q0 27 19.5 47t52.5 31t62 17.5t64 10.5t42 6q98 9 192 40t94 71q-55 10 -96 10q-33 0 -63 -6q-7 -2 -48.5 -12.5t-53.5 -13.5t-49.5 -12t-54 -12.5t-48 -10t-51 -9 t-43.5 -4.5t-43 -2q-39 0 -75.5 7t-60 13.5t-68.5 30.5t-62.5 34.5t-82.5 50.5q-34 19 -34 59q0 32 24 52t69.5 29.5t87.5 13.5t102 7t89 6q28 3 79.5 21t74.5 18q27 0 57 5t51.5 10.5t56 15t52.5 14.5q11 3 61 15t81 21.5t71.5 25t61 34t20.5 40.5q0 14 -10.5 21t-22.5 7 q-2 0 -7.5 -1t-8.5 -1q-26 -6 -109.5 -25t-120 -26.5t-110 -22t-121 -21t-109.5 -12t-116 -5.5q-123 0 -218.5 30.5t-158.5 112.5q-17 20 -17 59q0 67 46.5 110.5t105.5 43.5q29 0 53 -19q-5 -27 -45 -40t-49 -33q26 -16 51 -20.5t70 -4.5q97 0 199.5 13t245.5 39.5 t198 35.5q43 6 84 6q56 0 107.5 -7.5t105 -26t85.5 -56.5t32 -92q0 -36 -14.5 -65.5t-48.5 -55.5t-54.5 -38.5t-66.5 -36.5q-9 -5 -13 -7q-35 -18 -75 -30.5t-94.5 -24t-78.5 -18.5q-19 -5 -66.5 -20t-84 -24t-60.5 -8q-7 0 -21.5 1t-21.5 1q-42 0 -125.5 -16t-126.5 -16 q-16 0 -47 5t-47 5h-47q46 -58 95.5 -81t119.5 -23q54 0 109 12q32 6 352 61q38 6 72 6q69 0 130.5 -12.5t69.5 -44.5q15 -68 15 -90q0 -35 -81 -88.5t-118 -59.5q-15 -2 -45.5 -7.5t-48.5 -8.5t-43.5 -5.5t-46.5 -2.5q-22 0 -64.5 3t-62.5 3q-36 0 -76 -27z" />
<glyph unicode="w" horiz-adv-x="1847" d="M750 1133q-12 -31 -29 -31q-9 0 -21 8q-53 35 -125 35q-26 0 -42.5 -0.5t-42 -5t-42 -12.5t-31 -24t-20.5 -38q9 -4 24.5 -12.5t28.5 -14t25 -8.5q52 -13 170 -45.5t208.5 -52t184.5 -27.5h4q24 0 37 13q92 83 346 83q318 0 318 -172q0 -40 -17.5 -72t-44.5 -51.5 t-67 -33.5t-75.5 -20.5t-80.5 -9.5t-72.5 -3t-60.5 1t-35 1q-69 0 -138 7t-171 22t-141 20h-13q-11 0 -22.5 -3t-19.5 -6t-21 -11.5t-19 -13t-21.5 -16t-21.5 -15.5q58 -33 157.5 -77t111.5 -50q26 -13 45 -13q25 0 60.5 22t76.5 44t78 22q24 0 50.5 -3t59.5 -8t52 -7 q51 -10 80 -26.5t49 -55.5q34 -24 34 -53q0 -36 -22.5 -80.5t-54.5 -54.5q-171 -52 -256 -52q-24 0 -50 5t-62 15t-50 13q-6 1 -67 19.5t-85 17.5q-11 0 -25 -7t-24 -14.5t-27 -21t-24 -18.5q1 -2 2 -6t2 -5q20 -11 73.5 -42t85 -48t74.5 -33t72 -16q15 0 45 5t43 5 q15 0 23 -15t8 -30q0 -25 -25 -67q5 -5 15 -14t14 -13q0 -29 -65.5 -43t-128.5 -14q-43 0 -84.5 16t-66.5 33.5t-66.5 51.5t-61.5 48q-8 6 -34.5 25.5t-45 32.5t-41.5 25t-37 12q-23 0 -74.5 -15.5t-78.5 -15.5q-39 0 -73 14t-34 41q0 50 51 89.5t111 39.5q29 0 92 -18.5 t84 -18.5q8 0 19 4.5t25 13.5t23.5 15.5t25.5 19t20 15.5q-4 15 -44 40t-91 52t-66 39q-44 33 -90 33q-24 0 -80 -19.5t-86 -19.5q-76 0 -138 40.5t-95 114.5q-9 15 -9 33q0 96 119 96q16 0 33.5 -1.5t39.5 -5t37.5 -6t43.5 -9t40 -9.5t44 -12t40 -11t43 -12t38 -11 q18 -7 26 -7q7 0 14.5 4t17 12.5t17.5 16.5t20 21t19 20q-37 20 -122.5 58.5t-149.5 75t-115 83.5q-10 7 -10 21q1 14 3 38t3 34.5t4 29t6.5 26.5t10.5 21.5t16 19t23 14t31.5 12.5t41 9t52.5 7t65 4q96 0 197 -53zM1120 444q177 -55 285 -55h13.5h16.5t15.5 1.5t17 4.5 t14 9t13.5 14q-45 45 -88 63.5t-119 18.5q-100 0 -168 -56zM143 645q5 -52 56.5 -76t109.5 -24q46 0 123 18q-33 33 -125 62.5t-123 29.5q-24 0 -41 -10zM1253 893q43 0 122.5 -5t117.5 -5q7 0 20.5 1t20.5 1q-14 18 -23 22t-28 4q-14 -2 -43 -2q-10 0 -31 1t-33 1 q-68 0 -123 -18zM453 190q0 -1 1 -3.5t1 -4.5q32 4 51 4q0 2 -1 7.5t-1 7.5q-8 -2 -25.5 -5.5t-25.5 -5.5z" />
<glyph unicode="x" horiz-adv-x="1357" d="M1067 721q-69 0 -145.5 -6.5t-172 -18t-145.5 -16.5q-79 -21 -139 -21q-157 0 -259 75.5t-102 219.5q0 61 48.5 121t123.5 60q30 0 71 -14t73.5 -40t32.5 -53q0 -12 -18.5 -29.5t-31.5 -17.5q-6 0 -26 4q1 5 7.5 21t6.5 24q0 22 -27 42t-53 20q-45 0 -73.5 -39.5 t-28.5 -85.5q0 -74 170 -74q77 0 230 23.5t231 23.5q61 0 124.5 -8.5t132.5 -28.5t112.5 -61t43.5 -97q0 -65 -61.5 -120.5t-126.5 -63.5q-147 -20 -262 -20q-34 0 -101 -8.5t-100 -8.5h-16q-73 0 -142 -28q12 -11 27 -18t38 -9.5t34 -3.5t41 -0.5t34 0.5q58 0 173 11 t174 11q48 0 91.5 -6t87.5 -20.5t70.5 -43.5t26.5 -71q0 -81 -84 -121q-54 -25 -219 -58h-1l-1 -1h-1h-1h-1h-1l-1 -1h-1h-1h-1h-1l-1 -1h-2q-6 -2 -21 -2q-65 0 -145 20.5t-86 46.5q16 13 35 13q36 0 108 -9.5t107 -9.5q67 0 129.5 29t62.5 78q0 20 -63 20 q-58 0 -185.5 -16.5t-193.5 -16.5q-64 0 -121 7.5t-113.5 25.5t-89.5 55t-33 89q0 61 50 61h16q24 0 48.5 4t57 12t48.5 11q25 5 72.5 7t58.5 3q23 2 79.5 7t84 7.5t73.5 11t73 19t55 29.5t44 45q-1 2 -4 5t-4 5z" />
<glyph unicode="y" horiz-adv-x="751" d="M436 78q-32 73 -35 104q0 17 -6 50t-6 47q0 30 33.5 106.5t42.5 103.5q-8 -2 -24 -7.5t-22.5 -7.5t-18 -4.5t-20.5 -3.5t-20 -1q-131 0 -131 115q0 37 38 104.5t38 93.5q0 21 -26 33t-56 12q-63 6 -91 38t-28 95q0 68 17.5 142.5t55 181.5t40.5 117q1 3 3 10t4 11.5 t5 6.5q6 2 31 12.5t37 15t30.5 9t32.5 4.5q15 0 30.5 -5.5t25 -11.5t28.5 -19t29 -19q-23 -26 -33.5 -60t-17 -78.5t-12.5 -66.5q-63 -195 -72 -276h14q34 0 75.5 20.5t59.5 20.5h15q7 0 22 3t21 3q22 0 43 -11.5t33 -31.5q-14 -12 -24 -29t-14.5 -30t-11 -35t-10.5 -33 q-8 -21 -43 -100.5t-49 -124.5q34 -2 97.5 -8.5t82.5 -8.5q-13 -30 -34.5 -81.5t-39.5 -91.5t-36 -75q-15 -27 -42.5 -112t-60.5 -127z" />
<glyph unicode="z" horiz-adv-x="2330" d="M1843 559q107 -103 287 -235q7 -5 26 -15t28 -19t9 -22q0 -14 -11.5 -23t-24.5 -9q-17 0 -29 8q-80 41 -211 41q-39 0 -115.5 -4.5t-115.5 -4.5q-21 0 -45 7t-52.5 22.5t-47 26.5t-52.5 33.5t-45 29.5q-84 54 -131 88q-90 62 -264 62q-63 0 -138.5 -27.5t-148 -54.5 t-129.5 -27q-84 0 -180.5 37.5t-173.5 91.5q-6 4 -25 17t-27.5 19t-24.5 17.5t-24 19.5t-17.5 18.5t-13.5 20.5t-4 19q0 16 5.5 49t5.5 50q0 29 -4.5 85t-4.5 85q0 19 3.5 57t3.5 57q0 80 -35 131q-13 16 -13 41q0 31 18.5 48.5t51.5 17.5q27 0 58 -19.5t49 -37.5t45 -50 q52 -60 147 -107.5t156 -49.5q63 0 143 53q108 70 260 70q128 0 213 -27.5t170 -118.5q16 -18 39.5 -32.5t38.5 -21t50 -19t44 -15.5q14 -5 62.5 -24t65.5 -26t60.5 -25t63.5 -29t55.5 -30t56 -35t46.5 -37.5t44.5 -44.5t33.5 -48q13 -26 34.5 -50t35.5 -36t46 -37 q2 -1 6 -3.5t6 -4t5 -4t5 -4t4.5 -4.5t3.5 -5.5t2.5 -6t2 -7.5t0.5 -8q0 -31 -37 -31q-15 0 -47 27q-106 95 -260 98q-16 0 -39 -8zM201 707q24 -17 67 -49t66.5 -49t64 -41t74 -36t81 -21t99.5 -9q65 0 144 26t158.5 52t146.5 26q43 0 89 -11t80 -24t82 -41t74 -45.5 t78.5 -54.5t73.5 -51q71 -49 143 -49q24 0 71 5t71 5q15 0 43.5 -4t42.5 -4q5 0 19 1t24 1q-27 27 -75.5 67t-72.5 64q-76 73 -153 88q-43 10 -43 25q0 12 19.5 31.5t31.5 19.5q23 0 287 -11q3 0 12.5 2t17.5 3l-30 30t-32 31t-30 26t-34.5 26.5t-33.5 19t-40 16.5 q-38 11 -119.5 47t-126.5 47q-146 36 -254 156q-70 78 -215 78q-106 0 -172 -10.5t-127 -49.5q-105 -67 -191 -67q-60 0 -134.5 40.5t-129.5 88.5t-102.5 88.5t-59.5 40.5h-6q27 -97 27 -223q0 -50 -3 -150.5t-3 -150.5z" />
<glyph unicode="{" horiz-adv-x="1970" d="M434 416q200 -10 234 -10h54.5h59.5t56 0.5t60.5 1t56 1.5t60 2.5t55 4t58.5 5.5t52.5 7.5t54.5 9.5q139 27 213 27q169 0 311 -74q52 -26 79.5 -80.5t27.5 -115.5q0 -15 -19 -48q-65 -114 -192 -114q-25 0 -38.5 0.5t-33.5 4t-29.5 12t-9.5 22.5q0 28 27 43.5t57 15.5 q7 0 20.5 -9t20.5 -9q33 0 33 24q0 59 -161 58h-7q-79 0 -223 -20.5t-197 -24.5q-195 -16 -371 -13q-45 0 -128 11.5t-111 13.5t-80 2.5t-68 1.5q-157 6 -237 153q-17 27 -17 58q0 11 6.5 29t6.5 24q0 3 -1 9.5t-1 9.5q0 31 71.5 96t87.5 65q66 0 124.5 -34.5t58.5 -96.5 q0 -33 -21 -63zM395 410q1 11 7 32.5t6 30.5q0 31 -42 53.5t-59 22.5q-24 0 -56 -31t-32 -51q0 -12 10 -20.5t31.5 -14t39.5 -8.5t49.5 -7.5z" />
<glyph unicode="|" horiz-adv-x="1370" d="M434 504q-3 5 -6 9t-8.5 6.5t-8 4t-9.5 2t-8.5 0.5h-11.5h-9q-10 0 -31.5 -2t-30.5 -2q-48 0 -83 17.5t-35 54.5v10v51q0 108 34 195q43 115 344 115q18 0 54 -1t53 -1q28 0 87 4t89 4q28 0 58 -7t70 -21t60 -19q103 -24 164.5 -105t61.5 -170q0 -124 -66 -160 q-32 -16 -92 -36q38 -27 52.5 -38.5t34 -32.5t26 -42.5t6.5 -50.5q0 -133 -71.5 -214t-201.5 -81q-194 0 -426 39q-20 3 -63 10t-71.5 11t-70 13t-69.5 17.5t-59.5 22t-50.5 29.5t-31.5 37.5t-12.5 47.5q0 29 17.5 71t46.5 77t57 41q61 11 127 35.5t84 58.5zM983 426 q46 68 133 88q23 6 34 9.5t16.5 11t6 14.5t4 25t9.5 36q8 21 8 49q0 88 -67 148.5t-164 60.5h-27q-26 0 -52 25t-46 25q-19 0 -61 -6.5t-64 -6.5q-9 0 -28.5 1t-29.5 1q-62 0 -115.5 -9.5t-105 -32t-82 -67.5t-30.5 -108q0 -50 18 -73.5t80 -41.5q78 -24 78 -73 q0 -33 -23 -64t-55.5 -56.5t-65 -51.5t-55.5 -59.5t-23 -69.5q0 -28 137 -66t226 -45q22 -2 101 -12t124 -10q5 0 41.5 -0.5t56.5 0t50 2t48.5 7t26.5 13.5q68 75 68 168q0 35 -27 43q-41 12 -82 51t-63 74zM793 545q-178 42 -243 74q-81 41 -81 92q0 26 18.5 44.5t49 27.5 t60 12.5t62.5 3.5q23 0 70 -2t70 -2h39q61 0 129.5 -34.5t68.5 -82.5q0 -22 -11 -36t-33.5 -27t-30.5 -21q-17 -15 -40.5 -25t-36.5 -12.5t-49 -6.5t-42 -5zM575 692q47 -34 131 -52.5t160 -18.5h32t30.5 3t33 8t24.5 16.5t20 27.5q-20 5 -71 18.5t-77.5 19.5t-68 15 t-77.5 12.5t-71 3.5q-13 0 -22 -2t-16 -8.5t-9.5 -10t-9.5 -16t-9 -16.5zM825 156q-67 3 -150 24t-146.5 55t-63.5 68q0 51 65 93t125 42q52 0 129.5 -33t136 -80.5t58.5 -82.5q0 -19 -8 -33.5t-17.5 -22.5t-30 -14t-30.5 -8t-36 -4.5t-32 -3.5zM547 340q53 -53 180.5 -89 t192.5 -36q9 0 34 10q-8 23 -18 38.5t-23 25.5t-24 15t-29.5 12.5t-30.5 13.5q-72 37 -141 37q-6 0 -18 -1t-17 -1q-8 0 -23 5t-22 5q-22 0 -61 -35z" />
<glyph unicode="}" horiz-adv-x="1873" d="M1628 266q-1 -8 -2.5 -30t-2.5 -31.5t-5.5 -26t-11 -24t-18.5 -13.5t-29 -6q-30 0 -67 13.5t-98 44t-75 36.5q-131 58 -367 58q-163 0 -463 -76q-23 -6 -66.5 -19.5t-70 -21t-65.5 -14t-74 -6.5q-19 0 -26 8.5t-17 36.5q-8 22 -20 45t-18.5 39.5t-6.5 37.5 q0 25 12.5 75.5t12.5 66.5q0 17 -23 41t-23 35q0 54 55.5 104.5t138.5 86.5t178.5 63.5t177.5 41t132 13.5q22 0 67 2t67 2q169 -7 277 -22t218 -58q12 -4 51.5 -19t61 -23.5t58.5 -24.5t59 -29t46.5 -29.5t37.5 -34t16 -35.5q2 -16 13 -55.5t11 -64.5q0 -63 -43 -103 q-19 -15 -22 -31q-2 -15 -6 -24t-12 -14t-14.5 -6.5t-21 -4t-22.5 -4.5zM219 236q30 -5 37 -5q44 0 96 27q156 84 310 104q165 19 317 19q90 0 184.5 -22.5t156 -47t187.5 -80.5q32 -16 49 -16q16 0 23 17t7.5 38t11 39.5t32.5 20.5q24 3 57 52t33 67q0 97 -37 112 q-108 45 -284 98q-26 7 -98 32.5t-113 33.5q-176 33 -375 33q-4 0 -25.5 -4t-33.5 -4h-25q-131 0 -270.5 -42.5t-257.5 -111.5q-23 -18 -23 -29q0 -16 11.5 -49t11.5 -51q0 -20 -9.5 -61.5t-9.5 -63.5q0 -14 3.5 -28.5t8 -24t12.5 -26.5t13 -27z" />
<glyph unicode="~" horiz-adv-x="1445" d="M817 586q41 -17 76 -17q34 0 67 21.5t61.5 51.5t60 60.5t75.5 52t94 21.5q40 -3 65 -30.5t25 -65.5q0 -56 -46.5 -89.5t-98.5 -33.5q-21 0 -41 13t-20 32q0 23 36 23q8 0 26 -5.5t26 -5.5q23 0 47 25t24 41q0 14 -14 25.5t-31 11.5q-31 0 -58.5 -14t-49 -35t-41 -43 t-42.5 -41t-46 -25q-10 -3 -31.5 -9.5t-34 -10t-30.5 -6.5t-33 -3q-23 0 -66.5 7.5t-64.5 7.5q-15 0 -48 -6.5t-51 -6.5q-28 0 -82 13.5t-73 13.5q-5 0 -16.5 -1t-16.5 -1q-41 0 -85 25t-84 50t-71 25q-19 0 -47 -10t-28 -26q0 -18 11 -29t28 -20t24 -17q-20 -14 -39 -14 q-25 0 -48.5 36.5t-23.5 67.5q0 35 32.5 56.5t72.5 21.5q26 0 56.5 -12t51 -25.5t56 -38.5t51.5 -35q1 1 4 4.5t4 4.5q-1 7 -6.5 29t-5.5 32q0 86 108 86q40 0 75.5 -26.5t35.5 -63.5q0 -23 -13 -40t-49 -48q14 -1 41.5 -5.5t42.5 -4.5q36 0 58 24q-2 6 -6 19t-6.5 20.5 t-4.5 19t-2 21.5q0 43 33.5 76t77.5 33q35 0 59.5 -24.5t24.5 -59.5q0 -66 -76 -123zM592 682q-8 5 -17 11.5t-13 9t-10.5 4.5t-14.5 2q-58 0 -58 -39q0 -15 9.5 -29t19.5 -14q8 0 20 7.5t31.5 23t32.5 24.5zM780 639q49 28 49 55q0 15 -6 33q-31 -3 -45 -12t-14 -27 q0 -17 16 -49z" />
<glyph unicode="&#xa2;" horiz-adv-x="1298" d="M758 227q41 44 41 90q0 21 -15 58q-43 0 -130 -1t-130 -1h-13h-59.5t-59.5 2t-62.5 5.5t-58 10.5t-55 17t-45 26t-38 36t-22.5 48t-9 62q0 44 19 215q18 181 383 215q24 2 106.5 12t128.5 10q73 0 141.5 -11.5t133 -36t107 -69.5t48.5 -106q2 -18 13.5 -69.5t11.5 -80.5 q0 -106 -27 -158t-96 -81q-56 -24 -70 -62q-10 -25 -34 -48.5t-44 -35.5t-58.5 -32.5t-51.5 -28.5q-9 -6 -20 -6q-18 0 -35 20z" />
<glyph unicode="&#xa3;" horiz-adv-x="1249" d="M160 176q1 4 3 11t3.5 11.5t3.5 8.5q25 27 49.5 87.5t24.5 82.5q0 17 -17 37q-53 62 -89 144.5t-36 148.5q0 99 66.5 191.5t174.5 149t222 56.5q44 0 97 -13t90.5 -27.5t96 -39t83.5 -33.5q94 -36 154.5 -116.5t60.5 -178.5q0 -86 -37.5 -164t-98.5 -131.5t-136.5 -86.5 t-151.5 -38q-82 -4 -121 -4q-14 0 -43 1t-43 1q-38 0 -83.5 -16t-104.5 -44t-84 -38q-32 -12 -47 -12q-23 0 -37 12z" />
<glyph unicode="&#xa4;" horiz-adv-x="1294" d="M393 229q-136 34 -212.5 104t-76.5 197q0 88 35.5 166t93.5 131.5t130 93t146 58t142 18.5q29 0 87 -9t87 -9q8 0 24.5 6t24.5 6q76 0 139 -40t100.5 -102t58 -131.5t20.5 -135.5q0 -114 -34.5 -177.5t-119.5 -107.5q-45 -24 -90 -39.5t-97 -24t-87.5 -12.5t-101 -8.5 t-97.5 -7.5q-4 -35 -16 -59.5t-36.5 -40.5t-41 -24t-55.5 -20t-54 -18q-16 -4 -20 -4q-10 0 -20.5 9t-10.5 20q0 5 13.5 26.5t33.5 51t29 44.5q3 4 4 10.5t1 15t1 13.5z" />
<glyph unicode="&#xa5;" horiz-adv-x="1689" d="M1165 180q0 -78 10.5 -100t67.5 -60q-9 -43 -37 -43q-18 0 -44.5 10t-58.5 25.5t-46 20.5q-55 20 -82 108q-136 -4 -205 -4q-56 0 -119 5.5t-138 14t-118 11.5q-85 7 -153 59t-103 126.5t-35 152.5q2 56 62.5 113t134.5 93.5t150 59.5q31 9 117 36.5t129 39.5t113.5 24.5 t133.5 12.5q61 0 113.5 -2t121 -10t122.5 -21.5t109.5 -38.5t92.5 -58t60.5 -82.5t23.5 -111.5q0 -81 -34.5 -144.5t-109 -109.5t-117 -65t-129.5 -50q-22 -8 -32 -12z" />
<glyph unicode="&#xa6;" horiz-adv-x="1652" d="M1550 848q-7 -316 -364 -492q-22 -10 -29.5 -24t-7.5 -39q4 -46 4 -76q0 -47 -27 -47q-15 0 -33.5 18t-33.5 39.5t-39 39.5t-49 18q-16 0 -37 -6q-142 -43 -240 -43q-137 0 -271 53.5t-228 156.5q-48 51 -69.5 99.5t-21.5 122.5q0 122 61.5 221t168.5 164 q180 111 312.5 166t279.5 55q142 0 282.5 -47.5t227.5 -141.5q114 -124 114 -237z" />
<glyph unicode="&#xa7;" horiz-adv-x="1529" d="M1427 850q-3 -119 -38 -208t-111 -165q-31 -25 -41.5 -81t-7 -107.5t-4 -92t-33.5 -40.5q-16 0 -48.5 37.5t-63.5 75.5t-42 38q-6 0 -39 -10q-139 -47 -276 -47q-190 0 -341 75.5t-237 223.5q-41 61 -41 209q0 93 27.5 190.5t80 185t122 157t161 110.5t189.5 41 q74 0 137 -7t118 -25t92 -32.5t85.5 -46.5t70.5 -48.5t73 -55.5q54 -42 89 -109t46 -111t28 -137q3 -13 4 -20z" />
<glyph unicode="&#xa8;" horiz-adv-x="1345" d="M588 166q-9 -13 -44.5 -75t-62.5 -97t-47 -35q-11 0 -19.5 9.5t-8.5 25.5q0 4 1 11t1 11q0 28 -0.5 60.5t-2 61.5t-12 55t-31.5 40q-117 74 -187.5 188.5t-70.5 252.5q0 104 54.5 209t138.5 139q133 54 191 66q51 11 98 10h37q17 0 51 2t51 2q115 0 233 -57t160 -138 q2 -4 17 -24q106 -101 106 -273q0 -88 -33.5 -162.5t-89.5 -126.5t-128.5 -88.5t-151 -53.5t-156.5 -17q-17 0 -48 2t-46 2z" />
<glyph unicode="&#xa9;" horiz-adv-x="1130" d="M999 344q29 -56 29 -106q0 -44 -36.5 -86.5t-86.5 -70t-98.5 -44.5t-75.5 -17q-232 0 -289 29q-25 12 -80 34.5t-93.5 40t-80.5 41t-64 49t-22 52.5q0 28 32.5 49t74 30t80.5 9q67 0 139.5 -31.5t147 -76t114.5 -58.5q70 -26 133 -26q45 0 102.5 22t57.5 52q0 7 -7 33 t-7 32q0 17 30 43z" />
<glyph unicode="&#xaa;" horiz-adv-x="1140" d="M963 432q43 -53 59 -80t16 -57q0 -49 -49 -97.5t-115 -77t-120 -28.5q-106 0 -277 87t-231 159q-8 8 -27 12q-45 19 -81 68.5t-36 85.5q0 44 30.5 82.5t72.5 42.5q28 0 58.5 -16t62.5 -49t51 -54.5t50 -64t34 -46.5q49 -86 134 -140t181 -54q69 0 139 27.5t70 70.5 q0 8 -15.5 38.5t-15.5 49.5q0 20 9 41z" />
<glyph unicode="&#xab;" horiz-adv-x="1054" d="M102 293q6 72 129 72q41 0 95 -19t87.5 -36t92.5 -50q14 -8 27.5 -20t29.5 -27t25 -23q111 -96 217 -96q11 0 20 2t16.5 4t16.5 8.5t14.5 11t16.5 16.5t16.5 18.5t20.5 24.5t24 28q0 -3 1 -9.5t1 -9.5q0 -61 -48 -99t-113 -38q-61 0 -123.5 20.5t-118.5 52.5t-110 65 t-117.5 64t-122.5 44q-3 0 -10 1t-11 1q-12 0 -34 -3t-42 -3z" />
<glyph unicode="&#xac;" horiz-adv-x="1077" d="M692 86q-28 12 -114 52.5t-134 58.5q-12 4 -40 15.5t-44 17t-41 11t-47 5.5h-11q-28 0 -43.5 0.5t-41 7t-39 18t-24.5 36t-11 59.5q0 60 54.5 101.5t150.5 41.5q59 -2 110.5 -20.5t97.5 -55t83 -76.5t84 -100q24 -30 60 -49t69 -19q46 0 84.5 35t38.5 74q0 10 -3 30 t-3 29q0 33 39 33q8 -20 8 -31q0 -34 -1.5 -57.5t-8 -45t-12 -35t-22.5 -28t-29.5 -22.5t-44 -20.5t-54 -20t-70.5 -22.5q-9 -3 -23 -12t-18 -11z" />
<glyph unicode="&#xad;" d="M635 403q63 0 123.5 -35t64.5 -77q4 -38 4 -172q0 -43 -38.5 -63.5t-88.5 -20.5q-43 0 -129.5 2t-130.5 2q-34 0 -100.5 -2t-99.5 -2q-47 0 -89 73.5t-47 114.5q-2 14 -2 43q0 74 27.5 125.5t103.5 145.5q-22 2 -39 11t-28 23.5t-18.5 28.5t-17 33t-17.5 31q0 1 -1 2 t-1 2q0 159 5 202q17 162 117 224q77 47 209 47q178 0 283.5 -95t105.5 -241q0 -212 -196 -402zM389 453q128 54 200.5 155t72.5 236q0 40 -3.5 70t-16 64t-35 56t-63.5 36.5t-98 14.5q-69 0 -126.5 -16.5t-101.5 -59.5t-52 -108q-8 -61 -8 -186q0 -41 57 -41q30 0 76 24 q8 4 8 64v14q0 44 31 80.5t71 36.5q37 0 65 -38.5t28 -76.5q0 -70 -49.5 -141.5t-116.5 -112.5q-77 -47 -122.5 -115t-45.5 -141q0 -39 18 -71q138 -15 182 -15q293 0 293 54q0 5 -1 18t-1.5 18t-1.5 16t-2.5 16t-4 13t-6 11.5t-8.5 8t-11.5 6t-14.5 1.5q-168 -16 -196 -16 t-44 12.5t-16 32.5q0 22 20 48t23 32zM713 975q12 -98 12 -131q0 -97 -48.5 -203.5t-131.5 -157.5q-22 -13 -59 -41.5t-46 -35.5q1 -2 3 -6.5t3 -6.5q83 13 136 46t90 93q33 55 48 82t31.5 76.5t16.5 95.5q0 49 -15.5 106.5t-39.5 82.5zM227 127q0 -8 -2 -12q29 -23 72 -23 q24 0 75 4t77 4q35 0 104 -4t104 -4q57 0 85 17t28 57v39.5t-3 34t-9 35t-17.5 25.5t-29.5 24v-84q0 -58 -9.5 -80t-44.5 -23q-149 -9 -303 -12q-22 0 -63.5 1t-63.5 1zM215 616q32 -14 66 -14q56 0 71 21q6 9 24 36.5t29 44.5t21 38t10 32q0 20 -15 40t-26 20 q-18 0 -30.5 -27.5t-12.5 -54.5q0 -10 3 -31t3 -31q0 -15 -6 -26.5t-14 -17.5t-24 -11t-28 -7.5t-35 -6t-36 -5.5zM379 442q-3 1 -16 4.5t-16 6t-8 10.5t-5 20q0 21 22 21q12 0 23.5 -9.5t11.5 -19.5q0 -21 -12 -33zM279 844q-28 -17 -48 -17q-15 0 -24.5 11t-9.5 26 q0 14 12.5 24.5t30.5 10.5q28 0 39 -55zM471 987q0 -19 -13 -33t-26 -14q-33 0 -33 35q0 15 10.5 26t24.5 11q12 0 37 -25zM336 965q0 -13 -10 -22t-25 -9t-25 9.5t-10 23.5q2 15 13 26t24 11q12 0 22.5 -12.5t10.5 -26.5zM543 905q-15 24 -15 43q0 12 9 20.5t22 8.5 q14 0 25.5 -11t11.5 -24q0 -21 -53 -37zM264 768q0 -16 -11.5 -26.5t-25.5 -10.5q-32 4 -34 27q0 15 12.5 28t27.5 13q13 -1 22 -10t9 -21zM266 311q1 -1 14 -16t13 -23q0 -11 -11 -19.5t-24 -8.5q-35 0 -35 28q0 14 12 26t31 13zM492 549q-5 -2 -13 -6.5t-14.5 -7.5 t-11.5 -3q-12 0 -22.5 11t-10.5 22t14 23t25 12q13 -1 20 -9.5t8.5 -15.5t4.5 -26zM358 293q43 0 43 -35q-2 -14 -11.5 -22.5t-22.5 -8.5q-12 0 -22.5 10t-10.5 21t24 35zM549 248q-20 -23 -37 -23q-14 0 -22.5 10t-8.5 27q0 9 7.5 20t17.5 11q31 0 43 -45zM598 807 q0 -14 -9 -22.5t-24 -8.5q-32 0 -35 27q0 13 11.5 26t23.5 13q15 0 24 -10t9 -25zM578 686q0 -17 -10 -29t-25 -12q-13 1 -18 2.5t-11 8t-6 20.5q0 12 8.5 22.5t20.5 10.5q10 0 25 -11t16 -12zM281 350q-3 4 -10.5 12.5t-9.5 11.5t-4.5 8.5t-2.5 10.5q0 12 8 21.5t17 9.5 t19.5 -12.5t12.5 -22.5q0 -4 -4 -9.5t-12.5 -14.5t-13.5 -15z" />
<glyph unicode="&#xc0;" horiz-adv-x="1040" d="M938 610q-32 -152 -53 -207q-34 -92 -94 -149q-107 -104 -224 -109q-123 0 -232.5 67.5t-171 170t-61.5 207.5q0 100 53.5 192.5t144.5 149.5t192 57q78 0 155.5 -26t142 -72.5t105.5 -120t43 -160.5zM467 913q-10 2 -29 2q-57 0 -116.5 -46t-98.5 -117t-39 -140 q0 -96 61.5 -175.5t150.5 -121t179 -41.5q119 0 208 101t89 227q0 82 -55 155t-142.5 114.5t-180.5 41.5h-27z" />
<glyph unicode="&#xc1;" horiz-adv-x="2920" d="M102 555q3 0 10.5 1t10.5 1h6q180 -39 434 -39q47 0 142 2t143 2q199 0 340 -20q32 -4 51 -4q11 0 34 1t34 1q129 -7 500.5 -44.5t566.5 -37.5q11 0 60.5 -2t65 -3t57.5 -4.5t65 -9.5t59.5 -15t68.5 -23t66 -33q0 -2 1 -6.5t1 -6.5q0 -35 -257 -60.5t-409 -25.5 q-22 0 -65 2t-64 2q-15 0 -45.5 -1t-46.5 -1q-135 6 -380.5 25t-344.5 25q-174 9 -338 49q-54 12 -192.5 40.5t-214.5 46.5t-180.5 55t-178.5 83z" />
<glyph unicode="&#xc2;" horiz-adv-x="1751" d="M102 287q15 6 17 6q14 -2 45 -2q42 0 83.5 4.5t107.5 16t83 14.5q189 29 402 26q37 0 82.5 -3t70 -6t85.5 -10.5t73 -8.5q19 -2 126.5 -15t147.5 -19.5t109.5 -26t114.5 -46.5q-12 -39 -103 -61.5t-186 -28.5q-195 -10 -236 -10q-100 0 -298 9t-298 9h-10q-90 0 -241 56 t-175 96z" />
<glyph unicode="&#xc3;" horiz-adv-x="1605" d="M104 281q24 0 74 -1t76 -1q81 0 241.5 10t241.5 10q186 0 572 -20q50 -5 59 -5q34 0 135 29q-2 -36 -24.5 -65t-53 -46.5t-77.5 -30t-81.5 -18t-82 -9t-62.5 -3.5h-39q-97 0 -311 33q-66 10 -202.5 27t-243.5 33t-203 36q-6 0 -21 10q0 7 2 11z" />
<glyph unicode="&#xc4;" horiz-adv-x="1857" d="M104 500h58h28q122 -12 392 -44.5t409 -45.5q110 -9 321.5 -21t241.5 -14h11q35 0 101 21.5t85 25.5q4 -12 4 -16q0 -29 -30.5 -53t-84.5 -39t-112.5 -26t-130.5 -16.5t-121 -8.5t-102 -5t-56 -2h-26q-179 0 -418 68q-47 13 -139 37t-150 39.5t-137.5 39t-145.5 45.5 q0 2 1 7.5t1 7.5z" />
<glyph unicode="&#xc5;" horiz-adv-x="1122" d="M1020 256q-14 -5 -61.5 -24.5t-73.5 -26.5q-134 -39 -262 -39q-86 0 -244 30.5t-213 36.5q-15 1 -25 3.5t-21 11.5t-18 24q27 5 94 19.5t102 21.5t90 16t101 13t91 4q15 0 61 0.5t66.5 0.5t61 -2.5t66.5 -8t58.5 -16t60.5 -25.5q4 -2 24 -9.5t31 -14.5t11 -15z" />
<glyph unicode="&#xc6;" horiz-adv-x="806" d="M354 408q41 -18 41 -43q0 -52 -29 -70.5t-94 -18.5q-64 0 -117 30t-53 81q0 61 37.5 110.5t94 77.5t115 43t108.5 15q55 0 133 -16t96 -42q6 -5 19 -28q-59 -45 -295 -45q-68 0 -132.5 -22.5t-64.5 -61.5q0 -18 32.5 -59.5t65.5 -41.5q18 0 29.5 13.5t11.5 29.5 q0 3 -1 9.5t-1 9.5q0 5 4 29z" />
<glyph unicode="&#xc7;" horiz-adv-x="679" d="M334 340q-4 -16 -4 -18q0 -16 81.5 -61.5t108.5 -55.5q-67 -64 -143 -64q-3 0 -9.5 1t-9.5 1h-14q-58 0 -89.5 38t-31.5 104q0 7 3 21.5t3 21.5q0 45 -41 71q-42 26 -64 75.5t-22 100.5q0 29 23 91q17 42 29.5 100.5t20 100t33 90t68.5 85.5q32 29 82 29q65 0 115.5 -56 t50.5 -122q0 -10 -8 -37q-10 8 -15.5 18.5t-9.5 25.5t-6 20q-19 44 -54 72t-83 28q-39 0 -68.5 -41.5t-29.5 -77.5q0 -22 7.5 -36t16 -18t16 -9.5t7.5 -14.5v-10q0 -29 65 -94q33 15 33 51q0 37 -14.5 55.5t-48.5 24.5q20 10 37 10q36 0 65 -33.5t29 -72.5q0 -60 -37 -116 t-94 -56q-12 0 -33 8t-59 26.5t-41 20.5q-21 -25 -21 -57q0 -41 28 -83t79 -65q96 96 168 96q39 0 80.5 -50.5t41.5 -78.5q0 -26 -23 -42.5t-53 -22.5t-67 -6q-48 0 -98 12zM346 422q12 -25 115 -25q14 0 23.5 10.5t9.5 24.5q0 25 -17 42.5t-33 17.5q-13 0 -27.5 -8 t-23.5 -16t-25 -24.5t-22 -21.5z" />
<glyph unicode="&#xc8;" horiz-adv-x="970" d="M868 721q-21 -12 -34 -12q-15 0 -25 10q-37 26 -129 26q-43 0 -84 -64t-41 -114q0 -14 8 -35.5t16 -38t23.5 -45t20.5 -38.5q34 -67 106 -64q29 1 46.5 24.5t17.5 51.5q0 8 -3.5 16t-7 13.5t-11.5 15.5t-13 16q-36 -8 -43 -8q-5 0 -25 10q3 7 6 11.5t5.5 8t6.5 5.5 t5.5 3.5t7 2t7 0.5h8.5h9q31 0 64 -38.5t33 -61.5q0 -1 -6 -31q-23 -78 -77 -110.5t-134 -32.5q-63 9 -130 76t-67 124q0 37 10 105q-16 -8 -41.5 -21.5t-40 -21t-37 -13.5t-45.5 -6q-58 0 -115 44.5t-57 107.5q0 64 54.5 105.5t119.5 41.5q39 0 55.5 -22.5t16.5 -77.5 q0 -53 -47 -53h-5h-6t-6 0.5t-6 2t-5 3.5t-4 5.5t-1 8.5q0 10 12.5 25t14.5 22q-23 33 -37 33q-20 0 -42.5 -30t-22.5 -54q0 -59 114 -59q57 0 130.5 46t103.5 103q13 25 60.5 43.5t88.5 18.5q18 0 36 -3.5t29 -6.5t30 -13.5t25 -14.5t29.5 -20t28.5 -20z" />
<glyph unicode="&#xc9;" horiz-adv-x="872" d="M653 672q-28 74 -30 82q-30 -12 -60 -27q-2 4 -2 12q0 29 29.5 47.5t54.5 18.5q60 0 92.5 -41.5t32.5 -87.5q0 -94 -56.5 -157.5t-168.5 -63.5q-25 0 -73 10t-73 10q15 -102 15 -113q0 -81 -51 -135.5t-138 -54.5q-54 0 -88.5 45.5t-34.5 95.5q0 41 32.5 62t103.5 26 q38 0 45 -32q-66 -3 -90 -56q4 -16 15 -24t29 -14.5t25 -10.5q74 39 74 113q0 42 -16.5 88.5t-36 81t-36 77.5t-16.5 78q0 58 22.5 118.5t59.5 60.5q4 0 12.5 -1t12.5 -1q-7 -21 -23 -45.5t-16 -42.5q0 -52 96 -103t172 -51q55 0 86 35z" />
<glyph unicode="&#xca;" horiz-adv-x="770" d="M291 537h-10q-26 0 -46 -21t-20 -47q0 -22 15.5 -36.5t39.5 -14.5q14 0 42 2t42 2h11q19 0 35 5t26.5 10t24 19t20 22.5t22 29.5t23.5 31q-54 -15 -65 -15q-49 0 -95.5 39t-46.5 88q0 28 33 51t68 23q19 0 57 -10q-7 -11 -23 -34.5t-24 -35.5q29 -39 57 -39q20 0 37 19.5 t27.5 43t32 43t49.5 19.5q45 0 45 -57q0 -109 -85 -233t-177 -152q-70 -19 -105 -19q-88 0 -156 62q-41 37 -41 119q0 50 40 87t92 37q20 0 31 -4.5t30 -23.5q-4 -8 -6 -10z" />
<glyph unicode="&#xcb;" horiz-adv-x="2238" d="M575 451q11 9 25 19.5t19.5 15t9.5 11.5t4 15q0 38 -58 71t-104 33q-75 0 -162.5 -44t-87.5 -99q0 -34 87 -50.5t173 -16.5q101 0 180 24t183 76q45 22 270 125q165 74 410 74q78 0 144.5 -7.5t139 -29t130 -56t107.5 -92.5t81 -135q10 -20 10 -57q-3 -82 -34.5 -156.5 t-95 -126t-146.5 -51.5q-138 0 -215 80q-27 27 -27 43q0 13 39 71t57 58q6 0 29.5 -22.5t36.5 -22.5q31 0 73.5 31.5t42.5 60.5q0 35 -36 61.5t-87.5 38t-90 16.5t-62.5 5q-270 0 -494 -99q-29 -13 -106 -48.5t-117 -51.5t-103.5 -39t-119 -33t-109.5 -10q-79 0 -153 18 t-174 54q-40 10 -91 90.5t-51 114.5q0 63 39.5 117t97 86t115.5 49.5t103 17.5q53 0 109 -16t99.5 -52.5t43.5 -85.5q0 -35 -21 -64.5t-55 -29.5q-22 0 -58 19z" />
<glyph unicode="&#xcc;" horiz-adv-x="1228" d="M244 309q22 39 75 58.5t89 19.5q10 0 32 -4t31 -4q18 0 66.5 22t74.5 27q82 15 127 92q-50 -16 -90 -16q-10 0 -30.5 4t-30.5 4q-3 0 -12.5 -3.5t-12.5 -4.5q-59 -35 -162 -35q-36 0 -57.5 23t-31.5 55.5t-19 64.5t-30 55t-56 23q-15 0 -24.5 -9t-22.5 -38q30 -20 55 -33 q-58 -20 -65 -20q-19 0 -33.5 16.5t-14.5 40.5q0 103 119 103q108 0 195 -175q19 -40 51 -40q25 0 49 16q-2 2 -11.5 13.5t-12 14.5t-11 14t-11.5 15.5t-9.5 14t-9.5 15t-7.5 14.5t-6.5 15.5t-3.5 14t-1.5 14.5q0 48 26.5 86.5t82.5 38.5q49 0 96 -30.5t47 -69.5 q0 -12 -3.5 -27t-12 -34t-14.5 -32t-17.5 -36l-15.5 -31q17 -14 34 -14q49 0 134 72t90 118q3 33 32 80t47 47q15 0 39 -12q-5 -17 -36 -102q4 3 17 12t17.5 11.5t15 9t17 8.5t15.5 4t18 2q63 0 63 -58q0 -53 -28.5 -98t-75.5 -45q-37 0 -78 20q-18 -24 -60 -81t-67 -89 q6 -6 19 -18.5t20 -19.5t16 -18t13 -20t4 -18q0 -58 -60.5 -108.5t-107.5 -50.5q-16 0 -28.5 15.5t-18 37t-8 38t-2.5 25.5q0 8 1 25t1 26q-43 -6 -56.5 -14t-32.5 -37q29 -52 29 -71q0 -25 -28.5 -53.5t-65.5 -28.5q-25 0 -32.5 43.5l-15 87t-32.5 43.5q-26 0 -81 -16.5 t-75 -16.5q-18 0 -30 12zM604 762q-40 0 -64 -22.5t-24 -59.5q0 -32 15.5 -61t37.5 -29q32 0 58 45t26 80q0 47 -49 47zM987 680q14 -12 33 -12q22 0 47 22.5t25 42.5q0 14 -9 29q-21 -6 -39.5 -20t-28.5 -26t-28 -36zM756 299q10 -2 28 -2q26 0 36.5 11t10.5 38 q0 13 -9.5 20.5t-37.5 16.5q-4 -12 -13 -39.5t-15 -44.5zM956 813l-12 6q-5 -17 -16 -43q6 0 10 -4q3 7 9 20.5t9 20.5z" />
<glyph unicode="&#xcd;" horiz-adv-x="1239" d="M342 182q9 -9 43 -42t46 -43.5t41.5 -37t48 -37t46.5 -26t55 -22.5t56 -9q23 0 76 9.5t67 9.5q19 0 56 -10t57 -11q-7 -55 -51.5 -89t-106.5 -34q-70 0 -132.5 20t-125.5 66.5t-97 78t-100 98.5l-16 16q-14 14 -33 14q-12 0 -46 -8t-44 -8q-34 0 -56 22t-22 58 q0 32 26 50.5t67 18.5q12 0 29 -6.5t27.5 -12.5t33.5 -21t30 -19q38 38 76.5 102t64.5 116.5t68 102.5t92 72q92 43 156 43q10 0 32 -3t32 -3q7 0 20.5 1t20.5 1q62 0 123.5 -50.5t98 -121.5t36.5 -133q0 -23 -4 -41.5t-8 -30t-16.5 -26t-20 -21t-29.5 -24.5l-33 -27 q-48 -41 -86 -41q-8 0 -28.5 4t-32.5 4h-27q-215 0 -215 121q0 73 34 122.5t77 49.5q32 0 61 -17.5t41 -46.5q-2 0 -5 -1t-5 -1q-34 17 -52 17t-37.5 -20t-19.5 -54q0 -28 24.5 -46.5t57.5 -18.5q29 0 58 6.5t53 25t24 45.5q0 91 -55.5 163.5t-144.5 72.5q-43 0 -85 -18 t-73.5 -42t-69 -67t-61 -75t-61 -85.5t-56.5 -79.5zM254 152q-25 28 -53 28q-35 0 -35 -26q0 -3 5.5 -8t8.5 -5q13 0 40 5t34 6z" />
<glyph unicode="&#xce;" horiz-adv-x="3065" d="M2963 449q-13 -32 -33 -61t-41.5 -52t-52.5 -44t-56.5 -36t-64 -30t-65 -24.5t-69.5 -21.5t-67.5 -17.5t-68 -16t-63.5 -15.5q-56 -13 -169.5 -40.5t-183 -43t-166 -34.5t-184 -27.5t-170.5 -8.5q-86 0 -180 16t-166 35.5t-177 60.5t-162 66t-173 78q-22 10 -69 30 q-195 85 -280 142q-196 139 -200 324q0 129 105 240q32 33 87.5 67.5t84.5 34.5q63 0 105 -42.5t42 -100.5q0 -29 -11.5 -54.5t-31.5 -25.5q-19 0 -41 22q3 9 10 22.5t11 24.5t4 23q0 39 -24 77t-56 38q-19 0 -37 -15q-80 -66 -123 -131.5t-43 -152.5q0 -52 25.5 -100 t65.5 -84.5t94 -69t104.5 -54t104.5 -38.5q41 -13 135.5 -44.5t141 -46.5t130 -38.5t141 -34.5t132 -20t143.5 -9q211 0 450 57q60 14 172 39.5t202.5 47t170.5 42.5q213 56 412 56q18 0 155 -10z" />
<glyph unicode="&#xcf;" horiz-adv-x="1927" d="M889 328q-16 24 -75.5 94t-80.5 117q129 -83 180 -160q36 -55 101 -55q59 0 176 6t178 6v8q0 27 15.5 40.5t33.5 16t51 2.5q24 0 55 -4t47 -7t60.5 -13t52.5 -12h7h2q22 -13 66 -36.5t67 -35.5q-11 -15 -13 -16q-49 -15 -147 -44.5t-147 -44.5q-38 -10 -64 -10 q-45 0 -84 23q9 19 14 24.5t27 18.5q-52 -3 -179.5 -9.5t-199.5 -9.5q5 -10 16.5 -31t16.5 -34q-22 0 -63 33.5t-80 33.5q-17 0 -52.5 -1t-54.5 -1q-38 0 -112.5 3t-112.5 3q-84 0 -135 -36q-31 -22 -107 -39t-131 -17q-26 0 -57 23t-31 43t29 20q10 -2 32 -2q99 0 213 29 q-6 13 -44.5 21.5t-101 16t-83.5 11.5q-21 3 -46.5 22t-25.5 33q0 15 25 22t51 7q12 -1 59.5 -5t68 -7t57 -10t64 -19t52.5 -29q26 -20 56 -20q15 0 46 4t46 4q13 0 37 -2t36 -2q49 0 112.5 7t76.5 20z" />
<glyph unicode="&#xd0;" horiz-adv-x="1325" d="M401 414q-49 -41 -143 -119q1 -1 2 -4t2 -4q148 10 180 10q225 0 375 -12q32 -4 47 -4q14 0 43 6t45 6q24 0 73 -8.5t75 -8.5q5 0 16.5 1.5t16.5 1.5q40 0 90 -31q-15 -12 -36 -16.5t-56 -5t-44 -1.5q-22 -2 -65 -7t-78 -8t-65 -3q-73 0 -228.5 13t-232.5 13 q-47 0 -86 -8q3 -3 29.5 -21t40.5 -31t14 -21q0 -23 -27 -23h-2q-8 19 -37 26t-37 13q-72 61 -102 61q-4 0 -13 -4t-14 -4q-15 0 -29 17t-31 49.5t-22 40.5q11 16 35 16h19q32 0 103 50t99 50q25 0 43 -30z" />
<glyph unicode="&#xd1;" horiz-adv-x="1429" d="M881 360q-13 7 -43.5 23t-43.5 24t-31 23t-25 33t-7 41q0 56 63 98.5t132 42.5q63 0 102 -47.5t39 -108.5q0 -28 -6 -55q81 1 139 40.5t119 113.5q6 -9 6 -17t-12 -28q-81 -124 -228 -160q-62 -14 -106 -70q-165 -207 -440 -207q-114 0 -188.5 69t-74.5 181 q-1 1 -1.5 2.5l-1.5 4.5t-3 6q-166 45 -166 188q0 88 84 137q5 -20 5 -22q0 -10 -2.5 -28.5t-2.5 -27.5q0 -97 97 -143q6 15 17 47.5t18.5 50.5t20.5 42.5t30.5 41.5t40.5 29q13 7 34.5 25t42.5 29.5t46 11.5q36 0 57.5 -19.5t21.5 -50.5q0 -48 -10 -85t-24 -63t-50 -58 t-65.5 -52.5t-93.5 -63.5q0 -147 186 -147q94 0 185 39t139 110zM371 492q13 -5 26 -5q46 0 93 49t47 101q0 47 -27 47q-40 0 -90.5 -59t-50.5 -113q0 -14 2 -20zM860 463q48 -33 62 -33q13 0 28 20.5t15 53.5q0 21 -14.5 36t-32.5 15q-9 0 -17 -7.5t-17 -26.5t-12 -26 t-12 -32z" />
<glyph unicode="&#xd2;" horiz-adv-x="1232" d="M289 408q40 -19 92 -19q54 0 107.5 18t86.5 50q-61 61 -61 168q0 56 52.5 106.5t113.5 50.5q38 0 81.5 -36t43.5 -84q0 -111 -47 -160q-2 -2 -13 -25q33 -39 132 -39q66 0 129 30.5t63 84.5q0 12 -8 24t-23 24.5t-28 22t-32.5 22t-27.5 18.5q20 10 25 10q58 0 105.5 -36 t47.5 -87q0 -41 -19 -75t-49.5 -56t-68.5 -37.5t-74 -22t-69 -6.5q-52 0 -156 33h2q-90 -77 -154.5 -109t-156.5 -32q-146 0 -252 133q-26 33 -29 78q0 8 17 65q10 42 22.5 52.5t55.5 13.5q62 0 89 -17t27 -57q0 -17 -3 -33t-11 -40.5t-10 -32.5zM668 532q4 5 17.5 25t19 29 t14.5 25t12.5 29t3.5 26q0 18 -19 32.5t-40 14.5q-18 0 -36.5 -35.5t-18.5 -59.5q0 -48 47 -86zM238 502q-45 -3 -45 -25q0 -12 14 -12q26 0 33 31q0 1 -1 3t-1 3z" />
<glyph unicode="&#xd3;" horiz-adv-x="1200" d="M485 567q0 97 -57 144q-61 51 -61 104q0 57 59.5 110.5t122.5 53.5q52 0 108 -34t56 -83q0 -50 -16 -145.5t-17 -106.5q39 -22 53 -22q22 0 37 34t27.5 83t29 98t50 83t81.5 34q43 0 90.5 -69t47.5 -112q0 -118 -80 -198q-39 -39 -58 -85t-33 -126t-20 -103 q-9 -37 -35 -58.5t-63 -21.5q-10 0 -32 2.5t-34 2.5q-33 -2 -116 -10.5t-123 -8.5q-38 0 -66.5 17t-49.5 53t-35 71.5t-33 92.5q-7 23 -11 34q-8 22 -10.5 28.5t-9 11.5t-17.5 5q-4 0 -21 -2t-24 -2q-57 0 -90 42.5t-33 111.5q0 51 45.5 90t98.5 39q23 0 39 -16.5 t26.5 -39.5t22.5 -46t34.5 -39.5t55.5 -16.5h61zM555 551q-8 -4 -47 -19t-68 -32q-25 -19 -30 -19t-36 21.5t-50 23.5q-22 2 -37 21t-21.5 40t-19.5 38.5t-33 17.5q-27 0 -49.5 -22t-22.5 -46q0 -32 19 -64t41 -32q6 0 30 7.5t37 7.5q45 0 82 -49t55.5 -108t36 -110 t27.5 -53q14 3 69 15t90 18t62 6q24 0 67 -14.5t66 -14.5q25 0 39 21t16.5 45.5t4.5 63t4 53.5q11 80 35 129t75 114q47 59 47 131q0 26 -18.5 45t-46.5 19q-19 0 -35 -13.5t-29.5 -39t-22 -47.5t-20 -55t-16.5 -46q-2 -6 -9.5 -28t-12.5 -34t-13 -28t-17 -23.5t-20 -7.5 q-21 0 -63 5t-64 6q-4 2 -4 6q-2 6 -13.5 41.5t-15 49t-8 39.5t-4.5 48t14.5 66.5t14.5 76.5q0 26 -15 42t-38 16q-44 0 -94 -29t-50 -68q0 -24 27 -59.5t31 -44.5q26 -56 53 -127z" />
<glyph unicode="&#xd4;" horiz-adv-x="1193" d="M766 879q37 26 94 26q88 0 159 -86.5t71 -183.5q0 -57 -25.5 -112.5t-66 -99t-89.5 -78.5t-99 -54.5t-91 -22.5q-23 -2 -66 -2q-211 0 -272 94q-2 4 -5.5 7t-10 7t-9.5 7q-6 -7 -15 -18.5t-11 -14.5q6 -9 22 -35t25 -41t17.5 -34t8.5 -31q0 -25 -17.5 -44.5t-37.5 -19.5 q-48 0 -102 136q-21 -7 -33.5 -15t-23 -20.5t-16.5 -24t-19 -36.5t-25 -46q-6 5 -10.5 9.5t-7 10.5t-4.5 9.5t-2.5 10.5t-0.5 9.5v11.5v11q0 48 32.5 92t80.5 47q35 5 57 24.5t48 57.5q-6 9 -19.5 29t-21.5 33t-15.5 29t-7.5 26q0 35 44 77t95 42q45 0 98.5 -39.5 t53.5 -79.5q0 -52 -96 -115q33 -42 65 -56t94 -14q65 0 125.5 12.5t117.5 38.5t100.5 73t64.5 110q12 36 12 59q0 69 -69 148.5t-134 79.5q-9 0 -29 -4.5t-28 -4.5q-2 1 -6 5zM475 553q-36 25 -65 25q-19 0 -30 -12.5t-11 -26.5q0 -21 41 -56q57 19 65 70zM711 848 q-7 -15 -24 -47t-25 -48t-15.5 -38t-7.5 -37q0 -29 42 -44.5t85 -15.5q22 0 72 23q8 -8 8 -20q0 -23 -41.5 -42.5t-67.5 -19.5q-60 0 -114 35t-54 78q0 17 8.5 35t27.5 39.5t32 34.5t40 37t34 30z" />
<glyph unicode="&#xd5;" horiz-adv-x="978" d="M571 125q54 -14 91 -14q90 0 163 67q-18 -52 -79.5 -81t-110.5 -29q-11 0 -46 5t-52 5q-22 0 -62.5 -16.5t-64.5 -16.5q-123 0 -215.5 72t-92.5 178q0 38 11 78.5t23 68.5t39.5 69t40 58t44.5 58q10 17 10 28q0 13 -9 43t-9 43q0 54 53 87.5t123 33.5q55 0 111.5 -34.5 t56.5 -86.5q0 -36 -25.5 -57t-83.5 -43q46 -14 101 -14q1 0 100 6q-56 -101 -182 -101q-91 0 -197 56q-46 -57 -79 -143t-33 -150q0 -63 59.5 -110.5t136.5 -47.5q3 0 10 1t11 1q-4 7 -15 22t-16.5 23.5t-13 20.5t-10.5 21.5t-3 17.5q0 43 70 192q12 28 28 40.5t42 12.5 q68 0 114.5 -36t46.5 -93q0 -49 -27 -115.5t-59 -119.5zM508 160q35 40 48.5 56t30.5 50t17 66q0 41 -15 55t-61 14q-36 0 -55.5 -54.5t-19.5 -100.5q0 -55 55 -86zM451 696v-4q79 0 79 37q0 25 -28.5 43.5t-50.5 18.5q-33 0 -66 -12.5t-33 -33.5q0 -55 45 -55q6 0 54 6z M838 195q11 21 28 49q2 -1 5.5 -3t5.5 -3q-9 -18 -29 -50q-2 1 -5 3.5t-5 3.5z" />
<glyph unicode="&#xd6;" horiz-adv-x="1136" d="M600 748q6 14 17.5 43.5t18 45t17.5 41.5t19.5 41t20.5 35t23 31t25 22t29.5 16t32.5 5q114 0 171.5 -96t57.5 -264q0 -72 -41.5 -144t-109.5 -129q-22 -18 -100 -92.5t-132 -109.5q-19 -13 -35 -13q-17 0 -41 17q-33 23 -96.5 62.5t-107 67.5t-98 71t-87.5 82t-56.5 91 t-23.5 107q0 120 72.5 199t165.5 79q18 0 34.5 -2.5t33 -11t28.5 -14.5t28.5 -21.5t25.5 -23.5t27 -30.5t25 -31.5t28 -36.5t28 -36.5zM639 580l-16.5 5.5t-16 6t-13.5 6t-14 6.5t-11 7.5t-10.5 10t-7 11.5t-6.5 15t-3 18q-4 41 -55 80t-97 58t-57 19q-41 0 -76 -54.5 t-35 -100.5q0 -28 6 -55.5t14.5 -50.5t26 -49t31 -44.5t38.5 -43.5t40.5 -39.5t46 -39t45 -36t47 -35.5t43.5 -33q15 -11 27 -11q46 0 145 134.5t160 255.5q37 76 37 124q0 45 -43.5 107.5t-102.5 62.5q-29 0 -52.5 -21t-37 -49t-24.5 -72t-15 -74t-8.5 -71t-5.5 -48z" />
<glyph unicode="&#xd7;" horiz-adv-x="2273" d="M418 858q-4 0 -17 -1t-17 -1.5t-14.5 -2t-15.5 -2.5t-13 -3.5t-13 -5.5t-10.5 -7.5t-10.5 -9.5q-84 -93 -84 -223q0 -27 10 -50.5t23 -41t38.5 -34.5t44 -27t52 -22t50 -17t51.5 -15t43 -12q119 -35 229 -35q106 0 241 35t244.5 76.5t248.5 76.5t253 35q103 0 222 -28 t198 -76q0 -6 -108.5 -37t-265 -73.5t-212.5 -59.5q-60 -18 -175 -56.5t-185.5 -60t-171.5 -40.5t-191 -19q-173 0 -332 69q-18 9 -36 15q-85 18 -176 71t-153.5 125.5t-62.5 137.5q0 105 29 193.5t95.5 156.5t164.5 94q20 4 31 4q49 0 81 -37.5t32 -83.5q0 -32 -22 -57 t-50 -25q-47 0 -47 50q0 14 2 24z" />
<glyph unicode="&#x2000;" horiz-adv-x="903" />
<glyph unicode="&#x2001;" horiz-adv-x="1806" />
<glyph unicode="&#x2002;" horiz-adv-x="903" />
<glyph unicode="&#x2003;" horiz-adv-x="1806" />
<glyph unicode="&#x2004;" horiz-adv-x="602" />
<glyph unicode="&#x2005;" horiz-adv-x="451" />
<glyph unicode="&#x2006;" horiz-adv-x="301" />
<glyph unicode="&#x2007;" horiz-adv-x="301" />
<glyph unicode="&#x2008;" horiz-adv-x="225" />
<glyph unicode="&#x2009;" horiz-adv-x="361" />
<glyph unicode="&#x200a;" horiz-adv-x="100" />
<glyph unicode="&#x2010;" d="M635 403q63 0 123.5 -35t64.5 -77q4 -38 4 -172q0 -43 -38.5 -63.5t-88.5 -20.5q-43 0 -129.5 2t-130.5 2q-34 0 -100.5 -2t-99.5 -2q-47 0 -89 73.5t-47 114.5q-2 14 -2 43q0 74 27.5 125.5t103.5 145.5q-22 2 -39 11t-28 23.5t-18.5 28.5t-17 33t-17.5 31q0 1 -1 2 t-1 2q0 159 5 202q17 162 117 224q77 47 209 47q178 0 283.5 -95t105.5 -241q0 -212 -196 -402zM389 453q128 54 200.5 155t72.5 236q0 40 -3.5 70t-16 64t-35 56t-63.5 36.5t-98 14.5q-69 0 -126.5 -16.5t-101.5 -59.5t-52 -108q-8 -61 -8 -186q0 -41 57 -41q30 0 76 24 q8 4 8 64v14q0 44 31 80.5t71 36.5q37 0 65 -38.5t28 -76.5q0 -70 -49.5 -141.5t-116.5 -112.5q-77 -47 -122.5 -115t-45.5 -141q0 -39 18 -71q138 -15 182 -15q293 0 293 54q0 5 -1 18t-1.5 18t-1.5 16t-2.5 16t-4 13t-6 11.5t-8.5 8t-11.5 6t-14.5 1.5q-168 -16 -196 -16 t-44 12.5t-16 32.5q0 22 20 48t23 32zM713 975q12 -98 12 -131q0 -97 -48.5 -203.5t-131.5 -157.5q-22 -13 -59 -41.5t-46 -35.5q1 -2 3 -6.5t3 -6.5q83 13 136 46t90 93q33 55 48 82t31.5 76.5t16.5 95.5q0 49 -15.5 106.5t-39.5 82.5zM227 127q0 -8 -2 -12q29 -23 72 -23 q24 0 75 4t77 4q35 0 104 -4t104 -4q57 0 85 17t28 57v39.5t-3 34t-9 35t-17.5 25.5t-29.5 24v-84q0 -58 -9.5 -80t-44.5 -23q-149 -9 -303 -12q-22 0 -63.5 1t-63.5 1zM215 616q32 -14 66 -14q56 0 71 21q6 9 24 36.5t29 44.5t21 38t10 32q0 20 -15 40t-26 20 q-18 0 -30.5 -27.5t-12.5 -54.5q0 -10 3 -31t3 -31q0 -15 -6 -26.5t-14 -17.5t-24 -11t-28 -7.5t-35 -6t-36 -5.5zM379 442q-3 1 -16 4.5t-16 6t-8 10.5t-5 20q0 21 22 21q12 0 23.5 -9.5t11.5 -19.5q0 -21 -12 -33zM279 844q-28 -17 -48 -17q-15 0 -24.5 11t-9.5 26 q0 14 12.5 24.5t30.5 10.5q28 0 39 -55zM471 987q0 -19 -13 -33t-26 -14q-33 0 -33 35q0 15 10.5 26t24.5 11q12 0 37 -25zM336 965q0 -13 -10 -22t-25 -9t-25 9.5t-10 23.5q2 15 13 26t24 11q12 0 22.5 -12.5t10.5 -26.5zM543 905q-15 24 -15 43q0 12 9 20.5t22 8.5 q14 0 25.5 -11t11.5 -24q0 -21 -53 -37zM264 768q0 -16 -11.5 -26.5t-25.5 -10.5q-32 4 -34 27q0 15 12.5 28t27.5 13q13 -1 22 -10t9 -21zM266 311q1 -1 14 -16t13 -23q0 -11 -11 -19.5t-24 -8.5q-35 0 -35 28q0 14 12 26t31 13zM492 549q-5 -2 -13 -6.5t-14.5 -7.5 t-11.5 -3q-12 0 -22.5 11t-10.5 22t14 23t25 12q13 -1 20 -9.5t8.5 -15.5t4.5 -26zM358 293q43 0 43 -35q-2 -14 -11.5 -22.5t-22.5 -8.5q-12 0 -22.5 10t-10.5 21t24 35zM549 248q-20 -23 -37 -23q-14 0 -22.5 10t-8.5 27q0 9 7.5 20t17.5 11q31 0 43 -45zM598 807 q0 -14 -9 -22.5t-24 -8.5q-32 0 -35 27q0 13 11.5 26t23.5 13q15 0 24 -10t9 -25zM578 686q0 -17 -10 -29t-25 -12q-13 1 -18 2.5t-11 8t-6 20.5q0 12 8.5 22.5t20.5 10.5q10 0 25 -11t16 -12zM281 350q-3 4 -10.5 12.5t-9.5 11.5t-4.5 8.5t-2.5 10.5q0 12 8 21.5t17 9.5 t19.5 -12.5t12.5 -22.5q0 -4 -4 -9.5t-12.5 -14.5t-13.5 -15z" />
<glyph unicode="&#x2011;" d="M635 403q63 0 123.5 -35t64.5 -77q4 -38 4 -172q0 -43 -38.5 -63.5t-88.5 -20.5q-43 0 -129.5 2t-130.5 2q-34 0 -100.5 -2t-99.5 -2q-47 0 -89 73.5t-47 114.5q-2 14 -2 43q0 74 27.5 125.5t103.5 145.5q-22 2 -39 11t-28 23.5t-18.5 28.5t-17 33t-17.5 31q0 1 -1 2 t-1 2q0 159 5 202q17 162 117 224q77 47 209 47q178 0 283.5 -95t105.5 -241q0 -212 -196 -402zM389 453q128 54 200.5 155t72.5 236q0 40 -3.5 70t-16 64t-35 56t-63.5 36.5t-98 14.5q-69 0 -126.5 -16.5t-101.5 -59.5t-52 -108q-8 -61 -8 -186q0 -41 57 -41q30 0 76 24 q8 4 8 64v14q0 44 31 80.5t71 36.5q37 0 65 -38.5t28 -76.5q0 -70 -49.5 -141.5t-116.5 -112.5q-77 -47 -122.5 -115t-45.5 -141q0 -39 18 -71q138 -15 182 -15q293 0 293 54q0 5 -1 18t-1.5 18t-1.5 16t-2.5 16t-4 13t-6 11.5t-8.5 8t-11.5 6t-14.5 1.5q-168 -16 -196 -16 t-44 12.5t-16 32.5q0 22 20 48t23 32zM713 975q12 -98 12 -131q0 -97 -48.5 -203.5t-131.5 -157.5q-22 -13 -59 -41.5t-46 -35.5q1 -2 3 -6.5t3 -6.5q83 13 136 46t90 93q33 55 48 82t31.5 76.5t16.5 95.5q0 49 -15.5 106.5t-39.5 82.5zM227 127q0 -8 -2 -12q29 -23 72 -23 q24 0 75 4t77 4q35 0 104 -4t104 -4q57 0 85 17t28 57v39.5t-3 34t-9 35t-17.5 25.5t-29.5 24v-84q0 -58 -9.5 -80t-44.5 -23q-149 -9 -303 -12q-22 0 -63.5 1t-63.5 1zM215 616q32 -14 66 -14q56 0 71 21q6 9 24 36.5t29 44.5t21 38t10 32q0 20 -15 40t-26 20 q-18 0 -30.5 -27.5t-12.5 -54.5q0 -10 3 -31t3 -31q0 -15 -6 -26.5t-14 -17.5t-24 -11t-28 -7.5t-35 -6t-36 -5.5zM379 442q-3 1 -16 4.5t-16 6t-8 10.5t-5 20q0 21 22 21q12 0 23.5 -9.5t11.5 -19.5q0 -21 -12 -33zM279 844q-28 -17 -48 -17q-15 0 -24.5 11t-9.5 26 q0 14 12.5 24.5t30.5 10.5q28 0 39 -55zM471 987q0 -19 -13 -33t-26 -14q-33 0 -33 35q0 15 10.5 26t24.5 11q12 0 37 -25zM336 965q0 -13 -10 -22t-25 -9t-25 9.5t-10 23.5q2 15 13 26t24 11q12 0 22.5 -12.5t10.5 -26.5zM543 905q-15 24 -15 43q0 12 9 20.5t22 8.5 q14 0 25.5 -11t11.5 -24q0 -21 -53 -37zM264 768q0 -16 -11.5 -26.5t-25.5 -10.5q-32 4 -34 27q0 15 12.5 28t27.5 13q13 -1 22 -10t9 -21zM266 311q1 -1 14 -16t13 -23q0 -11 -11 -19.5t-24 -8.5q-35 0 -35 28q0 14 12 26t31 13zM492 549q-5 -2 -13 -6.5t-14.5 -7.5 t-11.5 -3q-12 0 -22.5 11t-10.5 22t14 23t25 12q13 -1 20 -9.5t8.5 -15.5t4.5 -26zM358 293q43 0 43 -35q-2 -14 -11.5 -22.5t-22.5 -8.5q-12 0 -22.5 10t-10.5 21t24 35zM549 248q-20 -23 -37 -23q-14 0 -22.5 10t-8.5 27q0 9 7.5 20t17.5 11q31 0 43 -45zM598 807 q0 -14 -9 -22.5t-24 -8.5q-32 0 -35 27q0 13 11.5 26t23.5 13q15 0 24 -10t9 -25zM578 686q0 -17 -10 -29t-25 -12q-13 1 -18 2.5t-11 8t-6 20.5q0 12 8.5 22.5t20.5 10.5q10 0 25 -11t16 -12zM281 350q-3 4 -10.5 12.5t-9.5 11.5t-4.5 8.5t-2.5 10.5q0 12 8 21.5t17 9.5 t19.5 -12.5t12.5 -22.5q0 -4 -4 -9.5t-12.5 -14.5t-13.5 -15z" />
<glyph unicode="&#x2012;" d="M635 403q63 0 123.5 -35t64.5 -77q4 -38 4 -172q0 -43 -38.5 -63.5t-88.5 -20.5q-43 0 -129.5 2t-130.5 2q-34 0 -100.5 -2t-99.5 -2q-47 0 -89 73.5t-47 114.5q-2 14 -2 43q0 74 27.5 125.5t103.5 145.5q-22 2 -39 11t-28 23.5t-18.5 28.5t-17 33t-17.5 31q0 1 -1 2 t-1 2q0 159 5 202q17 162 117 224q77 47 209 47q178 0 283.5 -95t105.5 -241q0 -212 -196 -402zM389 453q128 54 200.5 155t72.5 236q0 40 -3.5 70t-16 64t-35 56t-63.5 36.5t-98 14.5q-69 0 -126.5 -16.5t-101.5 -59.5t-52 -108q-8 -61 -8 -186q0 -41 57 -41q30 0 76 24 q8 4 8 64v14q0 44 31 80.5t71 36.5q37 0 65 -38.5t28 -76.5q0 -70 -49.5 -141.5t-116.5 -112.5q-77 -47 -122.5 -115t-45.5 -141q0 -39 18 -71q138 -15 182 -15q293 0 293 54q0 5 -1 18t-1.5 18t-1.5 16t-2.5 16t-4 13t-6 11.5t-8.5 8t-11.5 6t-14.5 1.5q-168 -16 -196 -16 t-44 12.5t-16 32.5q0 22 20 48t23 32zM713 975q12 -98 12 -131q0 -97 -48.5 -203.5t-131.5 -157.5q-22 -13 -59 -41.5t-46 -35.5q1 -2 3 -6.5t3 -6.5q83 13 136 46t90 93q33 55 48 82t31.5 76.5t16.5 95.5q0 49 -15.5 106.5t-39.5 82.5zM227 127q0 -8 -2 -12q29 -23 72 -23 q24 0 75 4t77 4q35 0 104 -4t104 -4q57 0 85 17t28 57v39.5t-3 34t-9 35t-17.5 25.5t-29.5 24v-84q0 -58 -9.5 -80t-44.5 -23q-149 -9 -303 -12q-22 0 -63.5 1t-63.5 1zM215 616q32 -14 66 -14q56 0 71 21q6 9 24 36.5t29 44.5t21 38t10 32q0 20 -15 40t-26 20 q-18 0 -30.5 -27.5t-12.5 -54.5q0 -10 3 -31t3 -31q0 -15 -6 -26.5t-14 -17.5t-24 -11t-28 -7.5t-35 -6t-36 -5.5zM379 442q-3 1 -16 4.5t-16 6t-8 10.5t-5 20q0 21 22 21q12 0 23.5 -9.5t11.5 -19.5q0 -21 -12 -33zM279 844q-28 -17 -48 -17q-15 0 -24.5 11t-9.5 26 q0 14 12.5 24.5t30.5 10.5q28 0 39 -55zM471 987q0 -19 -13 -33t-26 -14q-33 0 -33 35q0 15 10.5 26t24.5 11q12 0 37 -25zM336 965q0 -13 -10 -22t-25 -9t-25 9.5t-10 23.5q2 15 13 26t24 11q12 0 22.5 -12.5t10.5 -26.5zM543 905q-15 24 -15 43q0 12 9 20.5t22 8.5 q14 0 25.5 -11t11.5 -24q0 -21 -53 -37zM264 768q0 -16 -11.5 -26.5t-25.5 -10.5q-32 4 -34 27q0 15 12.5 28t27.5 13q13 -1 22 -10t9 -21zM266 311q1 -1 14 -16t13 -23q0 -11 -11 -19.5t-24 -8.5q-35 0 -35 28q0 14 12 26t31 13zM492 549q-5 -2 -13 -6.5t-14.5 -7.5 t-11.5 -3q-12 0 -22.5 11t-10.5 22t14 23t25 12q13 -1 20 -9.5t8.5 -15.5t4.5 -26zM358 293q43 0 43 -35q-2 -14 -11.5 -22.5t-22.5 -8.5q-12 0 -22.5 10t-10.5 21t24 35zM549 248q-20 -23 -37 -23q-14 0 -22.5 10t-8.5 27q0 9 7.5 20t17.5 11q31 0 43 -45zM598 807 q0 -14 -9 -22.5t-24 -8.5q-32 0 -35 27q0 13 11.5 26t23.5 13q15 0 24 -10t9 -25zM578 686q0 -17 -10 -29t-25 -12q-13 1 -18 2.5t-11 8t-6 20.5q0 12 8.5 22.5t20.5 10.5q10 0 25 -11t16 -12zM281 350q-3 4 -10.5 12.5t-9.5 11.5t-4.5 8.5t-2.5 10.5q0 12 8 21.5t17 9.5 t19.5 -12.5t12.5 -22.5q0 -4 -4 -9.5t-12.5 -14.5t-13.5 -15z" />
<glyph unicode="&#x2013;" horiz-adv-x="1230" d="M851 403q88 0 173 -35t91 -77q5 -38 5 -172q0 -43 -54 -63.5t-124 -20.5q-60 0 -181.5 2t-183.5 2q-48 0 -141.5 -2t-139.5 -2q-66 0 -125 73.5t-66 114.5q-3 14 -3 43q0 74 38.5 125.5t145.5 145.5q-31 2 -55 11t-39.5 23.5t-26 28.5t-23.5 33t-25 31q0 1 -1 2t-1 2 q0 159 7 202q24 162 164 224q108 47 294 47q250 0 398 -95t148 -241q0 -212 -275 -402zM505 453q180 54 282 155t102 236q0 40 -5 70t-22.5 64t-49.5 56t-89.5 36.5t-137.5 14.5q-97 0 -177.5 -16.5t-142.5 -59.5t-73 -108q-11 -61 -11 -186q0 -41 80 -41q42 0 106 24 q12 4 12 64v14q0 44 43.5 80.5t99.5 36.5q52 0 91.5 -38.5t39.5 -76.5q0 -70 -69.5 -141.5t-164.5 -112.5q-108 -47 -172 -115t-64 -141q0 -39 26 -71q194 -15 255 -15q412 0 412 54q0 5 -1.5 18t-2 18t-2 16t-3.5 16t-5.5 13t-8.5 11.5t-12 8t-16 6t-21 1.5 q-236 -16 -275 -16t-61.5 12.5t-22.5 32.5q0 22 28 48t32 32zM960 975q17 -98 17 -131q0 -97 -68 -203.5t-185 -157.5q-31 -13 -83 -41.5t-64 -35.5q1 -2 4 -6.5t4 -6.5q117 13 191.5 46t126.5 93q46 55 67 82t44.5 76.5t23.5 95.5q0 49 -22 106.5t-56 82.5zM278 127 q0 -8 -3 -12q41 -23 101 -23q34 0 105.5 4t107.5 4q50 0 146.5 -4t146.5 -4q80 0 119 17t39 57v39.5t-4 34t-12.5 35t-24.5 25.5t-42 24v-84q0 -58 -13 -80t-62 -23q-210 -9 -426 -12q-31 0 -89.5 1t-88.5 1zM261 616q45 -14 92 -14q79 0 100 21q9 9 34 36.5t40.5 44.5 t29.5 38t14 32q0 20 -21 40t-36 20q-26 0 -43.5 -27.5t-17.5 -54.5q0 -10 4.5 -31t4.5 -31q0 -15 -8.5 -26.5t-20 -17.5t-34 -11t-39 -7.5t-49 -6t-50.5 -5.5zM491 442q-4 1 -22.5 4.5t-22.5 6t-11 10.5t-7 20q0 21 31 21q17 0 33 -9.5t16 -19.5q0 -21 -17 -33zM351 844 q-40 -17 -68 -17q-21 0 -34.5 11t-13.5 26q0 14 18 24.5t43 10.5q39 0 55 -55zM620 987q0 -19 -18 -33t-36 -14q-47 0 -47 35q0 15 15 26t34 11q17 0 52 -25zM431 965q0 -13 -14 -22t-35.5 -9t-35.5 9.5t-14 23.5q3 15 18.5 26t33.5 11q17 0 32 -12.5t15 -26.5zM721 905 q-21 24 -21 43q0 12 13 20.5t31 8.5q20 0 36 -11t16 -24q0 -21 -75 -37zM330 768q0 -16 -16.5 -26.5t-35.5 -10.5q-45 4 -48 27q0 15 17.5 28t38.5 13q18 -1 31 -10t13 -21zM332 311q2 -1 20 -16t18 -23q0 -11 -15.5 -19.5t-33.5 -8.5q-49 0 -49 28q0 14 17 26t43 13z M650 549q-7 -2 -18.5 -6.5t-20.5 -7.5t-16 -3q-17 0 -31.5 11t-14.5 22t19.5 23t34.5 12q19 -1 28.5 -9.5t12 -15.5t6.5 -26zM462 293q60 0 60 -35q-3 -14 -16.5 -22.5t-31.5 -8.5q-17 0 -31.5 10t-14.5 21t34 35zM730 248q-28 -23 -52 -23q-20 0 -32 10t-12 27q0 9 10.5 20 t24.5 11q44 0 61 -45zM799 807q0 -14 -13 -22.5t-34 -8.5q-45 0 -49 27q0 13 16.5 26t32.5 13q21 0 34 -10t13 -25zM771 686q0 -17 -14 -29t-36 -12q-18 1 -25 2.5t-15.5 8t-8.5 20.5q0 12 12 22.5t29 10.5q14 0 35 -11t23 -12zM353 350q-4 4 -14.5 12.5t-13 11.5t-6 8.5 t-3.5 10.5q0 12 11 21.5t23.5 9.5t27.5 -12.5t18 -22.5q0 -4 -6 -9.5t-18 -14.5t-19 -15z" />
<glyph unicode="&#x2014;" horiz-adv-x="2254" d="M1599 403q177 0 347 -35t182 -77q11 -38 11 -172q0 -43 -108.5 -63.5t-248.5 -20.5q-121 0 -364 2t-366 2q-96 0 -283 -2t-279 -2q-132 0 -250 73.5t-132 114.5q-6 14 -6 43q0 74 77.5 125.5t290.5 145.5q-62 2 -109.5 11t-78.5 23.5t-52 28.5t-48 33t-49 31q0 1 -3 2 t-3 2q0 159 14 202q48 162 329 224q216 47 587 47q500 0 796.5 -95t296.5 -241q0 -212 -551 -402zM908 453q360 54 563.5 155t203.5 236q0 40 -9.5 70t-45 64t-98.5 56t-178 36.5t-276 14.5q-193 0 -355 -16.5t-285.5 -59.5t-145.5 -108q-23 -61 -23 -186q0 -41 160 -41 q85 0 214 24q22 4 22 64v14q0 44 87.5 80.5t199.5 36.5q104 0 182.5 -38.5t78.5 -76.5q0 -70 -139 -141.5t-327 -112.5q-216 -47 -344 -115t-128 -141q0 -39 51 -71q387 -15 511 -15q823 0 823 54q0 5 -3 18t-4 18t-4 16t-7.5 16t-11.5 13t-16.5 11.5t-23.5 8t-32.5 6 t-40.5 1.5q-472 -16 -551 -16t-124 12.5t-45 32.5q0 22 56.5 48t64.5 32zM1818 975q34 -98 34 -131q0 -97 -136 -203.5t-369 -157.5q-62 -13 -166 -41.5t-129 -35.5q2 -2 8 -6.5t8 -6.5q234 13 382.5 46t252.5 93q93 55 135 82t88.5 76.5t46.5 95.5q0 49 -43.5 106.5 t-111.5 82.5zM453 127q0 -8 -5 -12q81 -23 202 -23q67 0 210.5 4t216.5 4q98 0 292 -4t292 -4q160 0 239 17t79 57v39.5t-8.5 34t-25.5 35t-49.5 25.5t-82.5 24v-84q0 -58 -26.5 -80t-125.5 -23q-418 -9 -851 -12q-62 0 -178.5 1t-178.5 1zM419 616q90 -14 186 -14 q157 0 199 21q17 9 67.5 36.5t81.5 44.5t59 38t28 32q0 20 -42 40t-73 20q-50 0 -85.5 -27.5t-35.5 -54.5q0 -10 8.5 -31t8.5 -31q0 -15 -17 -26.5t-39 -17.5t-67 -11t-79 -7.5t-98.5 -6t-101.5 -5.5zM880 442q-8 1 -44.5 4.5t-45 6t-22.5 10.5t-14 20q0 21 62 21 q33 0 65.5 -9.5t32.5 -19.5q0 -21 -34 -33zM599 844q-78 -17 -135 -17q-42 0 -68.5 11t-26.5 26q0 14 35 24.5t86 10.5q78 0 109 -55zM1139 987q0 -19 -36.5 -33t-73.5 -14q-93 0 -93 35q0 15 29.5 26t69.5 11q33 0 104 -25zM759 965q0 -13 -28 -22t-70 -9t-70 9.5t-28 23.5 q5 15 36 26t68 11q33 0 62.5 -12.5t29.5 -26.5zM1341 905q-42 24 -42 43q0 12 25 20.5t62 8.5q39 0 71.5 -11t32.5 -24q0 -21 -149 -37zM557 768q0 -16 -32.5 -26.5t-71.5 -10.5q-90 4 -95 27q0 15 35 28t77 13q37 -1 62 -10t25 -21zM563 311q3 -1 39.5 -16t36.5 -23 q0 -11 -31 -19.5t-68 -8.5q-98 0 -98 28q0 14 33.5 26t87.5 13zM1198 549q-14 -2 -36.5 -6.5t-41 -7.5t-32.5 -3q-34 0 -63.5 11t-29.5 22t39.5 23t70.5 12q36 -1 56 -9.5t24 -15.5t13 -26zM821 293q121 0 121 -35q-6 -14 -32.5 -22.5t-63.5 -8.5q-33 0 -62.5 10t-29.5 21 t67 35zM1358 248q-56 -23 -104 -23q-40 0 -63.5 10t-23.5 27q0 9 21 20t49 11q87 0 121 -45zM1495 807q0 -14 -25 -22.5t-67 -8.5q-90 0 -99 27q0 13 32.5 26t66.5 13q42 0 67 -10t25 -25zM1439 686q0 -17 -28 -29t-70 -12q-37 1 -51 2.5t-30.5 8t-16.5 20.5q0 12 23.5 22.5 t57.5 10.5q28 0 70 -11t45 -12zM605 350q-9 4 -30 12.5t-26.5 11.5t-12.5 8.5t-7 10.5q0 12 22.5 21.5t48 9.5t55 -12.5t34.5 -22.5q0 -4 -11 -9.5t-35 -14.5t-38 -15z" />
<glyph unicode="&#x202f;" horiz-adv-x="361" />
<glyph unicode="&#x205f;" horiz-adv-x="451" />
<glyph unicode="&#x20ac;" horiz-adv-x="2224" d="M1366 924q2 32 15.5 57.5t30 41.5t46.5 27.5t52.5 17t62 8t60 3t61.5 0.5h16q51 0 152.5 -4t152.5 -4q17 -5 27 -9.5t19.5 -15.5t9.5 -26q0 -20 -32 -52t-70.5 -60.5t-70.5 -59.5t-32 -49q0 -21 39.5 -42t87.5 -36t87.5 -38t39.5 -46q0 -22 -11.5 -39t-37 -28.5 t-48.5 -19t-64.5 -12.5t-64.5 -7t-70 -5t-61 -4q-7 -50 -29.5 -88.5t-60 -63t-77 -41t-93 -24.5t-94.5 -11.5t-94 -4.5q-71 -2 -208 -18t-202 -19q0 -47 -13 -74.5t-48 -48.5q-94 -55 -180 -83.5t-197 -37.5q-131 -9 -248 -35q-10 -2 -33 -2q-39 0 -39 29q0 36 38 76.5 t76 70t38 37.5q0 11 -28 30t-73 43t-59 34q-35 23 -35 94q0 11 11 20t31.5 14.5t44 9t53.5 5.5t54.5 3.5t52.5 2.5t42 2t72 15q-42 141 -82 213q-12 21 -12 45q0 60 71.5 97.5t145.5 39.5q48 1 137 16t133 17q54 3 181 21t196 18h131zM1325 346q60 0 118.5 8t114 24.5 t89.5 48.5t34 75q0 38 -9.5 85.5t-27.5 111t-20 73.5q-8 31 -11 41.5t-11 25.5t-19 19t-29 4q-7 0 -31.5 -3t-39.5 -3q-34 0 -101.5 4t-101.5 4q-37 0 -76.5 -4.5t-88 -12.5t-77.5 -11q-28 -2 -165 -14.5t-209 -12.5h-41q-61 0 -127 -26t-66 -64q0 -15 10.5 -41t24.5 -39 t26 -30.5t18.5 -30t17.5 -35.5t16 -33q4 -8 17.5 -35.5t20.5 -40t21 -36.5t25.5 -36t27 -26.5t33.5 -20.5t37 -6q17 1 133.5 2t173.5 8q220 27 293 27z" />
<glyph unicode="&#x25fc;" horiz-adv-x="1136" d="M0 1137h1137v-1137h-1137v1137z" />
</font>
</defs>
</svg>
